<svg xmlns="http://www.w3.org/2000/svg" version="1.1" xmlns:xlink="http://www.w3.org/1999/xlink" xmlns:svgjs="http://svgjs.com/svgjs" width="512" height="512" x="0" y="0" viewBox="0 0 512.001 512.001" style="enable-background:new 0 0 512 512" xml:space="preserve" class=""><g><path d="M438.852 119.191a7.605 7.605 0 0 0-10.137 1.635L216.133 389.353c-6.305 7.919-9.149 17.821-8.007 27.879s6.132 19.071 14.051 25.376c6.775 5.394 14.998 8.255 23.531 8.255a38.77 38.77 0 0 0 4.347-.246c10.058-1.142 19.071-6.132 25.376-14.051 1.671-2.1 3.91-5.765 4.342-6.479.068-.112.133-.225.194-.341l161.409-300.601a7.604 7.604 0 0 0-2.524-9.954zM266.665 422.372c-.884 1.449-2.373 3.766-3.132 4.721a22.537 22.537 0 0 1-15.193 8.413 22.547 22.547 0 0 1-16.691-4.795 22.54 22.54 0 0 1-8.413-15.193c-.683-6.022 1.019-11.95 4.808-16.707l159.364-201.303-120.743 224.864zM447.789 153.954a7.604 7.604 0 0 0-11.536 9.91c37.387 43.519 58.688 98.616 60.423 155.899H432.27c-4.062-28.579-13.229-55.847-27.291-81.145a7.603 7.603 0 0 0-10.34-2.951 7.603 7.603 0 0 0-2.951 10.34c14.186 25.519 23.045 53.181 26.334 82.216a7.603 7.603 0 0 0 7.555 6.748h78.82a7.605 7.605 0 0 0 7.604-7.604c-.001-63.629-22.805-125.215-64.212-173.413zM402.926 112.442c-24.788-18.155-52.237-31.756-81.582-40.426-24.409-7.218-49.831-10.878-75.561-10.878-32.677 0-64.59 5.852-94.854 17.395a7.603 7.603 0 0 0-4.395 9.814c1.497 3.923 5.893 5.892 9.814 4.394 28.526-10.88 58.615-16.396 89.434-16.396 24.27 0 48.241 3.45 71.25 10.254 27.662 8.172 53.537 20.994 76.907 38.111a7.57 7.57 0 0 0 4.487 1.47 7.602 7.602 0 0 0 4.5-13.738zM361.297 182.159c-20.056-19.122-43.042-34.435-68.318-45.513-29.969-13.14-61.885-19.802-94.863-19.802-53.348 0-104.152 17.872-145.093 49.698a251.854 251.854 0 0 1 79.961-63.491 7.605 7.605 0 0 0-6.844-13.582C69.799 117.86 25.217 165.441.605 223.449A7.603 7.603 0 0 0 7.6 234.024a7.6 7.6 0 0 0 6.329-3.382c41.224-61.734 110.079-98.59 184.187-98.59 30.863 0 60.725 6.231 88.756 18.522 23.65 10.367 45.159 24.697 63.93 42.592a7.603 7.603 0 0 0 10.751-.257 7.603 7.603 0 0 0-.256-10.75z" fill="#bb0b0b" data-original="#000000" class="" opacity="1"></path><path d="M247.036 409.061c-2.749-1.727-6.371-1.515-8.888.543-5.406 4.419-2.147 13.486 4.818 13.486 3.449 0 6.538-2.42 7.379-5.761.788-3.134-.57-6.547-3.309-8.268z" fill="#bb0b0b" data-original="#000000" class="" opacity="1"></path></g></svg>