<svg xmlns="http://www.w3.org/2000/svg" version="1.1" xmlns:xlink="http://www.w3.org/1999/xlink" xmlns:svgjs="http://svgjs.com/svgjs" width="512" height="512" x="0" y="0" viewBox="0 0 128 128" style="enable-background:new 0 0 512 512" xml:space="preserve" class=""><g><path d="M44.167 31.92h-8.039a3.031 3.031 0 0 0-.708-.708V18.86a1.75 1.75 0 0 0-3.5 0v12.352a3.018 3.018 0 1 0 4.208 4.208h8.039a1.75 1.75 0 0 0 0-3.5zM122.238 86.749a1.75 1.75 0 0 0-1.688-1.289h-6.007q-.335-.757-.713-1.475L117.817 80a1.749 1.749 0 0 0 .2-2.237 28.974 28.974 0 0 0-8.923-8.3 1.751 1.751 0 0 0-2.131.267l-4.2 4.2q-.483-.2-.975-.374V67.77a1.749 1.749 0 0 0-1.379-1.71 28.922 28.922 0 0 0-12.162 0 1.749 1.749 0 0 0-1.379 1.71v5.786q-.492.174-.974.374l-4.2-4.2a1.747 1.747 0 0 0-2.131-.267 28.969 28.969 0 0 0-8.922 8.3 1.748 1.748 0 0 0 .2 2.237l3.987 3.988q-.378.717-.713 1.475H68.11a1.75 1.75 0 0 0-1.688 1.289 28.805 28.805 0 0 0-1.012 7.578 29.569 29.569 0 0 0 .361 4.581 1.751 1.751 0 0 0 1.729 1.479h5.6a22.548 22.548 0 0 0 .828 2.373l-1.57 1.57c-.036.036-.07.074-.1.113l-2.527 2.527a1.75 1.75 0 0 0-.266 2.132 29.126 29.126 0 0 0 8.292 8.91 1.748 1.748 0 0 0 2.239-.2l3.986-3.985a21.678 21.678 0 0 0 2.887 1.273v5.785a1.749 1.749 0 0 0 1.378 1.71 28.779 28.779 0 0 0 12.164 0 1.749 1.749 0 0 0 1.378-1.71v-5.785a21.678 21.678 0 0 0 2.887-1.273l3.986 3.985a1.748 1.748 0 0 0 2.239.2 29.126 29.126 0 0 0 8.292-8.91 1.749 1.749 0 0 0-.266-2.132l-2.527-2.526c-.032-.039-.067-.077-.1-.114l-1.569-1.569a22.255 22.255 0 0 0 .827-2.374h5.6a1.751 1.751 0 0 0 1.729-1.479 29.569 29.569 0 0 0 .361-4.581 28.805 28.805 0 0 0-1.01-7.581zm-2.617 10.141h-5.431a1.751 1.751 0 0 0-1.711 1.381 18.65 18.65 0 0 1-1.417 4.123 1.749 1.749 0 0 0 .34 1.994l2.315 2.315c.033.039.068.078.105.114l1.641 1.641a25.715 25.715 0 0 1-5.393 5.817l-3.863-3.862a1.747 1.747 0 0 0-2.15-.256 18.2 18.2 0 0 1-4.5 1.99 1.751 1.751 0 0 0-1.27 1.683v5.608a25.347 25.347 0 0 1-7.92 0v-5.608a1.75 1.75 0 0 0-1.269-1.683 18.17 18.17 0 0 1-4.5-1.99 1.749 1.749 0 0 0-2.151.256l-3.863 3.862a25.715 25.715 0 0 1-5.393-5.817l1.64-1.641c.036-.036.07-.074.1-.113l2.317-2.316a1.751 1.751 0 0 0 .352-1.988 18.594 18.594 0 0 1-1.417-4.124 1.752 1.752 0 0 0-1.713-1.386h-5.431a25.694 25.694 0 0 1-.129-2.56 25.4 25.4 0 0 1 .573-5.37h5.807a1.749 1.749 0 0 0 1.635-1.125A19.448 19.448 0 0 1 78.5 84.6a1.749 1.749 0 0 0-.255-2.151l-3.863-3.864a25.544 25.544 0 0 1 5.827-5.394l4.061 4.062a1.753 1.753 0 0 0 2 .338 17.488 17.488 0 0 1 2.83-1.078 1.751 1.751 0 0 0 1.27-1.683v-5.609a25.529 25.529 0 0 1 7.92 0v5.609a1.752 1.752 0 0 0 1.268 1.683 17.477 17.477 0 0 1 2.83 1.082 1.753 1.753 0 0 0 2-.338l4.061-4.062a25.525 25.525 0 0 1 5.827 5.394l-3.863 3.864a1.749 1.749 0 0 0-.255 2.151 19.448 19.448 0 0 1 1.577 3.231 1.75 1.75 0 0 0 1.635 1.125h5.807a25.33 25.33 0 0 1 .573 5.37c0 .846-.043 1.702-.129 2.56z" fill="#bb0b0b" data-original="#000000" opacity="1"></path><path d="M94.33 81.51a12.821 12.821 0 1 0 12.82 12.82 12.834 12.834 0 0 0-12.82-12.82zm0 22.141a9.321 9.321 0 1 1 9.32-9.321 9.33 9.33 0 0 1-9.32 9.321zM54.119 13.221a1.7 1.7 0 0 0-.134-.11 28.861 28.861 0 0 0-40.63 0 1.533 1.533 0 0 0-.134.11c-.042.042-.073.089-.11.134a28.861 28.861 0 0 0 0 40.63c.037.045.068.092.11.134s.09.073.134.11a28.859 28.859 0 0 0 40.629 0c.045-.037.093-.068.135-.11s.073-.09.11-.134a28.861 28.861 0 0 0 0-40.629c-.036-.045-.068-.093-.11-.135zm2.638 22.2h2.266a25.308 25.308 0 0 1-6.2 14.931l-1.594-1.593a1.749 1.749 0 0 0-2.474 2.474l1.593 1.594a25.308 25.308 0 0 1-14.931 6.2v-2.27a1.75 1.75 0 1 0-3.5 0v2.266a25.3 25.3 0 0 1-14.931-6.2l1.594-1.594a1.75 1.75 0 0 0-2.475-2.474l-1.594 1.594a25.3 25.3 0 0 1-6.2-14.932h2.266a1.75 1.75 0 0 0 0-3.5h-2.26a25.3 25.3 0 0 1 6.2-14.932l1.594 1.595a1.75 1.75 0 1 0 2.475-2.475l-1.595-1.594a25.3 25.3 0 0 1 14.932-6.2v2.266a1.75 1.75 0 0 0 3.5 0v-2.26a25.3 25.3 0 0 1 14.932 6.2l-1.594 1.594a1.75 1.75 0 1 0 2.474 2.475l1.594-1.594a25.3 25.3 0 0 1 6.2 14.931h-2.272a1.75 1.75 0 1 0 0 3.5zM58.777 95c.022-.055.035-.112.052-.168s.036-.1.047-.159a1.75 1.75 0 0 0 0-.684c-.011-.055-.032-.106-.047-.159s-.03-.113-.052-.167a1.807 1.807 0 0 0-.1-.185c-.022-.038-.039-.079-.064-.116a1.7 1.7 0 0 0-.221-.271l-6.208-6.207a1.749 1.749 0 0 0-2.474 2.474l3.223 3.223H35.42V70.84a1.75 1.75 0 0 0-3.5 0v23.49a1.749 1.749 0 0 0 1.75 1.75h19.266l-3.223 3.22a1.749 1.749 0 1 0 2.474 2.474L58.4 95.57a1.7 1.7 0 0 0 .221-.271c.025-.037.042-.078.064-.117a1.776 1.776 0 0 0 .092-.182zM69.223 33c-.022.055-.035.113-.052.17a1.585 1.585 0 0 0-.047.157 1.75 1.75 0 0 0 0 .684c.011.054.031.1.047.157s.03.114.052.17a1.952 1.952 0 0 0 .1.181c.022.04.039.081.065.119a1.7 1.7 0 0 0 .221.271l6.207 6.207a1.75 1.75 0 0 0 2.475-2.474l-3.227-3.222H92.58v21.74a1.75 1.75 0 1 0 3.5 0V33.67a1.749 1.749 0 0 0-1.75-1.75H75.064l3.223-3.22a1.75 1.75 0 0 0-2.475-2.474l-6.207 6.204a1.7 1.7 0 0 0-.221.271 1.124 1.124 0 0 0-.064.118 1.761 1.761 0 0 0-.097.181z" fill="#bb0b0b" data-original="#000000" opacity="1"></path></g></svg>