<svg xmlns="http://www.w3.org/2000/svg" version="1.1" xmlns:xlink="http://www.w3.org/1999/xlink" xmlns:svgjs="http://svgjs.com/svgjs" width="512" height="512" x="0" y="0" viewBox="0 0 512 512" style="enable-background:new 0 0 512 512" xml:space="preserve" class=""><g><path d="M406.203 412.738c-41.866 41.866-97.53 64.923-156.737 64.923H8a8 8 0 0 1 0-16h241.466c113.402 0 205.661-92.259 205.661-205.661 0-104.075-79.174-191.514-180.419-204.099l23.655 18.473a8 8 0 0 1-4.93 14.306 7.962 7.962 0 0 1-4.918-1.695l-43.973-34.339a8 8 0 0 1 0-12.61l43.973-34.339a8 8 0 0 1 9.848 12.61l-27.029 21.108c51.654 5.039 99.525 27.844 136.294 65.286 40.948 41.697 63.499 96.851 63.499 155.301-.001 59.206-23.057 114.87-64.924 156.736zm-297.975 14.106a7.966 7.966 0 0 0 5.096 1.837 8 8 0 0 0 5.104-14.163C71.004 375.269 43.805 317.492 43.805 256c0-93.274 62.898-175.043 152.958-198.848a8 8 0 0 0-4.089-15.469C95.602 67.342 27.805 155.472 27.805 256c0 66.275 29.313 128.545 80.423 170.844zm400.696 36.511-43.973-34.339a8 8 0 0 0-9.848 12.61l25.655 20.034h-87.876a8 8 0 0 0 0 16h87.876l-25.655 20.034a8 8 0 0 0 4.93 14.306 7.966 7.966 0 0 0 4.918-1.695l43.973-34.339a8 8 0 0 0 0-12.611zm-338.43-207.334c0-43.545 35.427-78.972 78.972-78.972s78.972 35.427 78.972 78.972-35.427 78.972-78.972 78.972c-43.545-.001-78.972-35.428-78.972-78.972zm16 0c0 34.723 28.249 62.972 62.972 62.972s62.972-28.249 62.972-62.972-28.249-62.972-62.972-62.972c-34.723-.001-62.972 28.248-62.972 62.972zm-6.218-111.274a129.54 129.54 0 0 1 39.438-16.35l7.795-20.25a8 8 0 0 1 7.466-5.126h28.98a8 8 0 0 1 7.466 5.126l7.795 20.25a129.565 129.565 0 0 1 39.438 16.35l19.848-8.814a8 8 0 0 1 8.904 1.655l20.493 20.492a7.999 7.999 0 0 1 1.654 8.904l-8.811 19.84a129.543 129.543 0 0 1 16.353 39.449l20.244 7.792a7.998 7.998 0 0 1 5.126 7.466v28.981a8 8 0 0 1-5.126 7.466l-20.25 7.795a129.568 129.568 0 0 1-16.351 39.438l8.815 19.848a8 8 0 0 1-1.655 8.904l-20.492 20.493a8 8 0 0 1-8.904 1.655l-19.84-8.812a129.533 129.533 0 0 1-39.448 16.353l-7.792 20.244a7.998 7.998 0 0 1-7.466 5.126h-28.981a8.001 8.001 0 0 1-7.466-5.126l-7.795-20.25a129.565 129.565 0 0 1-39.438-16.35l-19.848 8.815a7.996 7.996 0 0 1-8.904-1.655l-20.493-20.492a7.999 7.999 0 0 1-1.654-8.904l8.812-19.84a129.537 129.537 0 0 1-16.353-39.448l-20.245-7.792a7.998 7.998 0 0 1-5.126-7.466V241.53a8 8 0 0 1 5.126-7.466l20.249-7.794a129.487 129.487 0 0 1 16.351-39.441l-8.814-19.846a8 8 0 0 1 1.655-8.904l20.493-20.492a8 8 0 0 1 8.904-1.655zm-2.537 16.38-18.785-8.343-12.725 12.725 8.342 18.783a8.001 8.001 0 0 1-.67 7.707c-8.537 12.714-14.356 26.751-17.296 41.723a7.996 7.996 0 0 1-4.977 5.924l-19.164 7.376v17.996l19.16 7.375a8.002 8.002 0 0 1 4.977 5.924c2.942 14.981 8.762 29.021 17.298 41.73a7.996 7.996 0 0 1 .67 7.707l-8.34 18.778 12.725 12.725 18.785-8.343a8 8 0 0 1 7.706.669c12.717 8.537 26.754 14.356 41.721 17.296a7.999 7.999 0 0 1 5.924 4.976l7.378 19.166h17.995l7.375-19.159a8.002 8.002 0 0 1 5.924-4.977c14.98-2.942 29.02-8.762 41.73-17.298a7.998 7.998 0 0 1 7.707-.67l18.778 8.34 12.725-12.725-8.343-18.785a8.002 8.002 0 0 1 .669-7.706c8.537-12.717 14.356-26.754 17.296-41.721a8 8 0 0 1 4.976-5.924l19.166-7.377v-17.995l-19.159-7.375a8.002 8.002 0 0 1-4.977-5.924c-2.943-14.98-8.763-29.021-17.298-41.731a7.996 7.996 0 0 1-.67-7.707l8.339-18.777-12.725-12.725-18.785 8.343a8.004 8.004 0 0 1-7.706-.669c-12.717-8.537-26.754-14.356-41.721-17.296a8 8 0 0 1-5.924-4.976l-7.377-19.166h-17.995l-7.377 19.166a8 8 0 0 1-5.924 4.976c-14.966 2.939-29.003 8.758-41.721 17.296a8.007 8.007 0 0 1-7.707.668z" fill="#bb0b0b" data-original="#000000" opacity="1" class=""></path></g></svg>