<svg xmlns="http://www.w3.org/2000/svg" version="1.1" xmlns:xlink="http://www.w3.org/1999/xlink" xmlns:svgjs="http://svgjs.com/svgjs" width="512" height="512" x="0" y="0" viewBox="0 0 64 64" style="enable-background:new 0 0 512 512" xml:space="preserve" class=""><g><path d="M58.64 2.11H5.36A4.16 4.16 0 0 0 1.2 6.27v51.46a4.16 4.16 0 0 0 4.16 4.16h53.28a4.17 4.17 0 0 0 4.17-4.16V6.27a4.17 4.17 0 0 0-4.17-4.16Zm-53.28 2h53.28a2.17 2.17 0 0 1 2.17 2.16v8.88H3.2V6.27a2.16 2.16 0 0 1 2.16-2.16Zm53.28 55.78H5.36a2.16 2.16 0 0 1-2.16-2.16V17.15h57.61v40.58a2.17 2.17 0 0 1-2.17 2.16Z" fill="#ffffff" data-original="#000000" class=""></path><path d="M9.21 13a3.68 3.68 0 1 0-3.68-3.69A3.68 3.68 0 0 0 9.21 13Zm0-5.36a1.68 1.68 0 1 1-1.68 1.67 1.68 1.68 0 0 1 1.68-1.68ZM18.89 13a3.68 3.68 0 1 0-3.68-3.68A3.68 3.68 0 0 0 18.89 13Zm0-5.36a1.68 1.68 0 1 1-1.68 1.68 1.68 1.68 0 0 1 1.68-1.69ZM27.58 13a3.68 3.68 0 1 0-3.68-3.69A3.68 3.68 0 0 0 27.58 13Zm0-5.36a1.68 1.68 0 1 1-1.68 1.67 1.68 1.68 0 0 1 1.68-1.68ZM57 38.29h-3.94c-.13-.37-.28-.73-.44-1.08l2.77-2.78a1 1 0 0 0 0-1.41l-4.18-4.18a1 1 0 0 0-1.41 0L47 31.62a11.37 11.37 0 0 0-1.09-.45v-3.93a1 1 0 0 0-1-1H39a1 1 0 0 0-1 1v3.93a9.58 9.58 0 0 0-1.09.45l-2.77-2.78a1 1 0 0 0-1.42 0l-2.57 2.57H9a1 1 0 1 0 0 2h19.35a1 1 0 0 0 .24 1l2.77 2.78a10.24 10.24 0 0 0-.45 1.08H27a1 1 0 0 0-1 1v2.34H9a1 1 0 0 0 0 2h17v1.59a1 1 0 0 0 1 1h3.92a10.24 10.24 0 0 0 .45 1.08l-2.77 2.78a1 1 0 0 0 0 1.41l.37.37H9a1 1 0 0 0 0 2h22l1.8 1.81a1 1 0 0 0 1.42 0L37 52.87a10.4 10.4 0 0 0 1.09.45v3.92a1 1 0 0 0 1 1h5.9a1 1 0 0 0 1-1v-3.92a11.37 11.37 0 0 0 1.01-.45l2.77 2.78a1 1 0 0 0 1.41 0l4.18-4.18a1 1 0 0 0 0-1.41l-2.77-2.78c.16-.35.31-.71.44-1.08H57a1 1 0 0 0 1-1v-5.91a1 1 0 0 0-1-1Zm-1 5.91h-3.67a1 1 0 0 0-1 .72 9.68 9.68 0 0 1-.81 2.08 1 1 0 0 0 .17 1.19l2.58 2.58-2.76 2.76-2.59-2.58a1 1 0 0 0-1.19-.16 10.38 10.38 0 0 1-2.06.85 1 1 0 0 0-.73 1v3.65H40v-3.7a1 1 0 0 0-.73-1 10.47 10.47 0 0 1-2.07-.85 1 1 0 0 0-1.19.16l-2.58 2.58-1.39-1.39-1.37-1.37 2.58-2.58a1 1 0 0 0 .21-1.14 9.19 9.19 0 0 1-.85-2.07 1 1 0 0 0-1-.72H28v-3.92h3.65a1 1 0 0 0 1-.73 9.12 9.12 0 0 1 .85-2.06 1 1 0 0 0-.17-1.19l-2.58-2.59L33.47 31l2.58 2.58a1 1 0 0 0 1.19.17 10.47 10.47 0 0 1 2.07-.85 1 1 0 0 0 .73-1v-3.66h3.9v3.66a1 1 0 0 0 .73 1 10.14 10.14 0 0 1 2.06.85 1 1 0 0 0 1.19-.17L50.51 31l2.76 2.76-2.58 2.59a1 1 0 0 0-.17 1.19 9.6 9.6 0 0 1 .85 2.06 1 1 0 0 0 1 .73H56Z" fill="#ffffff" data-original="#000000" class=""></path><path d="M42 34.51a7.78 7.78 0 1 0 7.78 7.78A7.79 7.79 0 0 0 42 34.51Zm0 13.56a5.78 5.78 0 1 1 5.78-5.78A5.78 5.78 0 0 1 42 48.07ZM9 23.19h46a1 1 0 0 0 0-2H9a1 1 0 0 0 0 2Z" fill="#ffffff" data-original="#000000" class=""></path></g></svg>