<svg xmlns="http://www.w3.org/2000/svg" version="1.1" xmlns:xlink="http://www.w3.org/1999/xlink" xmlns:svgjs="http://svgjs.com/svgjs" width="512" height="512" x="0" y="0" viewBox="0 0 64 64" style="enable-background:new 0 0 512 512" xml:space="preserve" class=""><g><path d="M14.68 45.26a2.71 2.71 0 0 0-1.47 3.55l1.39 3.37a2.73 2.73 0 0 0 3.55 1.47.74.74 0 0 1 .86.19A16.8 16.8 0 0 0 21.16 56a.75.75 0 0 1 .2.83 2.73 2.73 0 0 0 1.47 3.55l3.37 1.39a2.72 2.72 0 0 0 3.55-1.47.74.74 0 0 1 .73-.45 17.15 17.15 0 0 0 3 0 .76.76 0 0 1 .74.47 2.68 2.68 0 0 0 1.47 1.47 2.72 2.72 0 0 0 1 .21 2.68 2.68 0 0 0 1-.21l3.37-1.39a2.73 2.73 0 0 0 1.47-3.55.74.74 0 0 1 .19-.86A16.18 16.18 0 0 0 45 53.84a.74.74 0 0 1 .86-.19 2.73 2.73 0 0 0 3.55-1.47l1.39-3.37a2.71 2.71 0 0 0-1.47-3.55.74.74 0 0 1-.47-.74c0-.51.07-1 .07-1.52h-2c0 .45 0 .89-.06 1.33a2.73 2.73 0 0 0 1.7 2.78.73.73 0 0 1 .39.94l-1.4 3.36a.72.72 0 0 1-.94.39 2.74 2.74 0 0 0-3.16.76 14.75 14.75 0 0 1-1.89 1.9 2.72 2.72 0 0 0-.76 3.15.72.72 0 0 1-.39.94L37 59.94a.68.68 0 0 1-.54 0 .74.74 0 0 1-.39-.39 2.74 2.74 0 0 0-2.77-1.7 15 15 0 0 1-2.68 0 2.73 2.73 0 0 0-2.77 1.69.71.71 0 0 1-.93.37l-3.37-1.39a.72.72 0 0 1-.4-.92 2.73 2.73 0 0 0-.76-3.16 14.75 14.75 0 0 1-1.9-1.89 2.72 2.72 0 0 0-3.15-.76.72.72 0 0 1-.94-.39L15 48.04a.74.74 0 0 1 .43-1 2.7 2.7 0 0 0 1.66-2.71c0-.46-.06-.93-.06-1.38h-2c0 .51 0 1 .07 1.56a.69.69 0 0 1-.42.75Z" fill="#ffffff" data-original="#000000" class=""></path><path d="M32 54a11 11 0 0 0 11-11h-2a9 9 0 0 1-18 0h-2a11 11 0 0 0 11 11ZM54 16a1 1 0 0 0-1-1h-8a1 1 0 0 0-1 1v23h-7V23a1 1 0 0 0-1-1h-8a1 1 0 0 0-1 1v16h-7v-9a1 1 0 0 0-1-1h-8a1 1 0 0 0-1 1v9H2v2h60v-2h-8ZM18 39h-6v-8h6Zm17 0h-6V24h6Zm17 0h-6V17h6ZM7.21 25.52 53.73 6.84 52 9.93l1.74 1 3.15-5.58a1 1 0 0 0 .06-.86 1 1 0 0 0-.64-.59L50.16 2l-.58 2L53 5 6.46 23.67Z" fill="#ffffff" data-original="#000000" class=""></path></g></svg>