<svg xmlns="http://www.w3.org/2000/svg" version="1.1" xmlns:xlink="http://www.w3.org/1999/xlink" xmlns:svgjs="http://svgjs.com/svgjs" width="512" height="512" x="0" y="0" viewBox="0 0 512 512" style="enable-background:new 0 0 512 512" xml:space="preserve" class=""><g><path d="M189.533 71.116v12.048M314.937 71.116v12.048M235.708 82.803c8.749 10.04 24.291 10.041 33.063 0M33.856 213.328v218.58c0 40.091 32.501 72.592 72.592 72.592h120.686M33.856 178.187v-52.913c0-31.858 20.523-58.927 49.077-68.696M262.275 504.5h45.383c10.462 0 20.402-2.209 29.388-6.195" style="stroke-width:15;stroke-linecap:round;stroke-linejoin:round;stroke-miterlimit:10;" fill="none" stroke="#ffffff" stroke-width="15" stroke-linecap="round" stroke-linejoin="round" stroke-miterlimit="10" data-original="#000000" class=""></path><circle cx="372.72" cy="399.076" r="105.424" style="stroke-width:15;stroke-linecap:round;stroke-linejoin:round;stroke-miterlimit:10;" fill="none" stroke="#ffffff" stroke-width="15" stroke-linecap="round" stroke-linejoin="round" stroke-miterlimit="10" data-original="#000000" class=""></circle><path d="M345.972 248.47H158.498c-18.926 0-34.278-15.352-34.278-34.278v-36.868c0-18.926 15.352-34.278 34.278-34.278h187.474c18.926 0 34.278 15.352 34.278 34.278v36.868c0 18.926-15.352 34.278-34.278 34.278zM403.192 405.22h-7.882v38.897c0 8.394-6.807 15.201-15.201 15.201H365.33c-8.394 0-15.201-6.807-15.201-15.201V405.22h-7.882c-14.308 0-21.818-16.988-12.179-27.571l30.473-33.435c6.536-7.179 17.822-7.179 24.358 0l30.473 33.435c9.638 10.583 2.128 27.571-12.18 27.571zM169.402 195.758h165.666M124.22 293.652h97.894M124.22 338.833h97.894M124.22 384.015h97.894" style="stroke-width:15;stroke-linecap:round;stroke-linejoin:round;stroke-miterlimit:10;" fill="none" stroke="#ffffff" stroke-width="15" stroke-linecap="round" stroke-linejoin="round" stroke-miterlimit="10" data-original="#000000" class=""></path><path d="M425.432 307.758V82.803L350.129 7.5H151.63c-31.858 0-58.927 20.523-68.696 49.077a72.385 72.385 0 0 0-3.896 23.515v306.634c0 40.091 32.501 72.592 72.592 72.592h134.572" style="stroke-width:15;stroke-linecap:round;stroke-linejoin:round;stroke-miterlimit:10;" fill="none" stroke="#ffffff" stroke-width="15" stroke-linecap="round" stroke-linejoin="round" stroke-miterlimit="10" data-original="#000000" class=""></path><path d="M425.432 82.803h-39.258c-19.91 0-36.045-16.135-36.045-36.045V7.5" style="stroke-width:15;stroke-linecap:round;stroke-linejoin:round;stroke-miterlimit:10;" fill="none" stroke="#ffffff" stroke-width="15" stroke-linecap="round" stroke-linejoin="round" stroke-miterlimit="10" data-original="#000000" class=""></path></g></svg>