<svg xmlns="http://www.w3.org/2000/svg" version="1.1" xmlns:xlink="http://www.w3.org/1999/xlink" xmlns:svgjs="http://svgjs.com/svgjs" width="512" height="512" x="0" y="0" viewBox="0 0 55 60" style="enable-background:new 0 0 512 512" xml:space="preserve" class=""><g><g fill="#000" fill-rule="nonzero"><path d="M55 5a5.006 5.006 0 0 0-5-5H10a5.006 5.006 0 0 0-5 5v35a1 1 0 0 0 2 0V5a3 3 0 0 1 3-3h40a3 3 0 0 1 3 3v39h-7a5.006 5.006 0 0 0-5 5v7H22a1 1 0 0 0 0 2h20a1 1 0 0 0 .707-.293l12-12A1 1 0 0 0 55 45zm-9 41h5.586L43 54.586V49a3 3 0 0 1 3-3z" fill="#bb0b0b" data-original="#000000" opacity="1" class=""></path><path d="M0 48a3.971 3.971 0 0 0 1.172 2.828l8 8A3.978 3.978 0 0 0 12 60c.106 0 .213 0 .322-.013a3.993 3.993 0 0 0 2.924-1.65l18-25a4 4 0 1 0-6.492-4.674l-1.262 1.753a1 1 0 1 0 1.623 1.168l1.262-1.752a2 2 0 1 1 3.246 2.336l-18 25a1.991 1.991 0 0 1-1.46.825 2.016 2.016 0 0 1-1.577-.579l-8-8a2 2 0 0 1 0-2.828 2.047 2.047 0 0 1 2.828 0l5.506 5.505a1 1 0 0 0 1.518-.122l11.8-16.385a1 1 0 1 0-1.623-1.168L11.5 49.846l-4.671-4.674a4.1 4.1 0 0 0-5.657 0A3.971 3.971 0 0 0 0 48zM14 6h-2a1 1 0 0 0 0 2h2a1 1 0 0 0 0-2zM48 6H18a1 1 0 0 0 0 2h30a1 1 0 0 0 0-2zM14 12h-2a1 1 0 0 0 0 2h2a1 1 0 0 0 0-2zM18 14h23a1 1 0 0 0 0-2H18a1 1 0 0 0 0 2zM14 18h-2a1 1 0 0 0 0 2h2a1 1 0 0 0 0-2zM18 20h16a1 1 0 0 0 0-2H18a1 1 0 0 0 0 2zM51 21a1 1 0 0 0-2 0v14a1 1 0 0 0 2 0zM50 38a1 1 0 0 0-1 1v2a1 1 0 0 0 2 0v-2a1 1 0 0 0-1-1z" fill="#bb0b0b" data-original="#000000" opacity="1" class=""></path></g></g></svg>