<svg xmlns="http://www.w3.org/2000/svg" version="1.1" xmlns:xlink="http://www.w3.org/1999/xlink" width="512" height="512" x="0" y="0" viewBox="0 0 511.999 511.999" style="enable-background:new 0 0 512 512" xml:space="preserve" class=""><g><path d="M254.234 180.458c-22.851 0-41.444 18.59-41.444 41.441 0 22.85 18.591 41.439 41.444 41.439 22.849 0 41.44-18.589 41.44-41.439 0-22.852-18.59-41.441-41.44-41.441zm0 67.88c-14.582 0-26.444-11.861-26.444-26.439 0-14.58 11.863-26.441 26.444-26.441 14.58 0 26.44 11.862 26.44 26.441 0 14.578-11.861 26.439-26.44 26.439z" fill="#bb0b0b" opacity="1" data-original="#000000" class=""></path><path d="M449.972 486.561c-50.977-39.188-91.2-113.706-116.436-215.585 47.422-68.328 45.557-64.874 45.638-72.222.151-13.864-13.458-24.988-28.534-19.28-5.368 1.992-5.629 2.091-29.086 36.156a987.672 987.672 0 0 1-10.505-75.307h48.131c7.18 0 13.596-4.286 16.344-10.921a17.64 17.64 0 0 0-3.833-19.275l-44.493-44.49a7.5 7.5 0 0 0-10.607 10.607c48.159 48.157 46.02 45.132 45.073 47.421a2.68 2.68 0 0 1-2.485 1.66h-56.381c-4.399 0-7.868 3.78-7.469 8.179 2.099 23.103 6.261 58.901 14.227 99.553a19264.686 19264.686 0 0 1-21.687 31.417c-3.337 4.451-9.419 7.742-17.037 7.742-36.247 0-35.139.181-38.508-.553-6.886-1.499-10.555-5.628-11.726-7.188l-21.691-31.355c7.972-40.663 12.138-76.49 14.239-99.615.399-4.389-3.062-8.179-7.469-8.179-60.436 0-57.896.684-58.865-1.659-.999-2.411-6.667 4.319 105.523-107.874 1.004-1.004 2.804-1.003 3.805-.001l35.694 35.694a7.501 7.501 0 0 0 10.606-10.607L266.743 5.183c-6.916-6.911-18.096-6.912-25.014.001L136.787 110.128c-11.118 11.119-3.232 30.196 12.508 30.196h48.132a988.81 988.81 0 0 1-10.529 75.436l-20.041-28.97c-6.456-9.339-19.302-11.716-28.676-5.226-9.37 6.48-11.708 19.308-5.225 28.68l41.984 60.687C134.219 435.511 69.95 474.677 61.555 484.292c-12.052 12.562-9.076 27.568 11.397 27.568h63.842c4.142 0 7.5-3.357 7.5-7.5s-3.358-7.5-7.5-7.5c-68.932 0-64.647.037-66.099-.087 5.725-8.227 72.549-47.651 115.486-209.255l12.509 18.078c1.01 1.741 9.908 17.58 9.908 35.163 0 163.495-.122 153.813.256 156.1h-37.062c-4.142 0-7.5 3.357-7.5 7.5s3.358 7.5 7.5 7.5c55.757 0 51.858.066 52.949-.154 2.52.394 56.51.388 58.978.001 1.135.23-8.245.153 156.393.153 3.393 0 13.721 0 16.773-8.078 2.487-6.584-2.563-13.878-6.913-17.22zm-165.23-146.027v152.48a3.946 3.946 0 0 1-3.942 3.943h-19.061V397.39c0-4.143-3.358-7.5-7.5-7.5s-7.5 3.357-7.5 7.5v99.567h-19.075a3.946 3.946 0 0 1-3.94-3.943v-152.48c0-18.662-8.604-37.9-12.386-43.352-71.141-102.834-67.55-96.405-66.954-99.674.895-4.915 7.306-6.28 10.136-2.188.095.137 53.847 77.839 53.946 77.973 2.408 3.266 11.627 13.92 29.168 13.92h33.197c13.307 0 24.181-6.663 29.301-14.104 39.321-56.824 52.611-76.81 55.509-79.495 4.388-1.636 8.436.033 8.539 5.873l.001.01c-1.842 4.2-17.963 26.729-67.054 97.685-1.227 1.769-12.385 21.188-12.385 43.352zM299.6 496.861c.372-2.248.256 7.421.256-156.1 0-17.612 8.929-33.477 9.907-35.16 4.458-6.445 8.624-12.46 12.518-18.077 20.054 75.465 55.01 160.783 116.505 209.337H299.6z" fill="#bb0b0b" opacity="1" data-original="#000000" class=""></path></g></svg>