<svg xmlns="http://www.w3.org/2000/svg" version="1.1" xmlns:xlink="http://www.w3.org/1999/xlink" width="512" height="512" x="0" y="0" viewBox="0 0 512 512" style="enable-background:new 0 0 512 512" xml:space="preserve" class=""><g><path d="M429.5 264.65h-30.88c-3 0-5.45-1.77-6.39-4.62-2.24-6.81-5.02-13.51-8.26-19.91-1.36-2.68-.88-5.67 1.25-7.79l21.84-21.84c3.53-3.53 5.47-8.23 5.47-13.24s-1.94-9.71-5.47-13.24l-17.59-17.59c-4.28-12.05-14.5-21.5-27.17-24.53V98.34c0-3.31-2.69-6-6-6H262v-17.6c13.77-2.79 24.17-14.99 24.17-29.57C286.17 28.53 272.63 15 256 15s-30.17 13.53-30.17 30.17c0 14.58 10.4 26.78 24.17 29.57v17.6h-94.3c-3.31 0-6 2.69-6 6v43.55c-12.67 3.03-22.89 12.47-27.17 24.53L104.94 184c-3.53 3.53-5.47 8.23-5.47 13.24s1.94 9.71 5.47 13.24l21.84 21.84c2.12 2.13 2.6 5.11 1.24 7.79-3.25 6.41-6.03 13.11-8.26 19.91-.94 2.85-3.38 4.62-6.39 4.62H82.5c-10.32 0-18.72 8.4-18.72 18.72v42.82c0 10.32 8.4 18.72 18.72 18.72h30.88c3 0 5.45 1.77 6.39 4.62 2.23 6.8 5.01 13.5 8.26 19.91 1.36 2.68.88 5.67-1.24 7.79l-21.84 21.84c-3.53 3.53-5.47 8.23-5.47 13.24s1.94 9.71 5.47 13.24l30.28 30.28c3.53 3.53 8.23 5.47 13.24 5.47s9.71-1.94 13.24-5.47l21.85-21.84c2.13-2.12 5.11-2.6 7.79-1.24 6.41 3.25 13.11 6.03 19.91 8.26 2.85.94 4.62 3.38 4.62 6.39v30.88c0 10.32 8.4 18.72 18.72 18.72h42.82c10.32 0 18.72-8.4 18.72-18.72V447.4c0-3 1.77-5.45 4.62-6.39 6.8-2.24 13.5-5.02 19.91-8.26 2.68-1.36 5.67-.88 7.79 1.24l21.84 21.85c3.53 3.53 8.23 5.47 13.24 5.47s9.71-1.94 13.24-5.47l30.28-30.28c3.53-3.53 5.47-8.23 5.47-13.24s-1.94-9.71-5.47-13.24l-21.84-21.85c-2.12-2.12-2.6-5.11-1.24-7.79 3.25-6.41 6.02-13.11 8.26-19.91.94-2.85 3.38-4.62 6.39-4.62h30.88c10.32 0 18.72-8.4 18.72-18.72v-42.82c-.01-10.32-8.41-18.72-18.73-18.72zM237.83 45.17C237.83 35.15 245.98 27 256 27s18.17 8.15 18.17 18.17-8.15 18.17-18.17 18.17-18.17-8.15-18.17-18.17zM379.64 179c0 11.17-7.23 20.95-17.35 24.6v-49.21c10.12 3.66 17.35 13.44 17.35 24.61zM161.7 104.34h188.6v149.32H161.7zm175 200.44c0 44.5-36.2 80.7-80.7 80.7s-80.7-36.2-80.7-80.7c0-13.75 3.49-27.2 10.11-39.12H326.6a80.66 80.66 0 0 1 10.1 39.12zm-187-150.39v49.21c-10.11-3.66-17.34-13.43-17.34-24.6s7.23-20.95 17.34-24.61zm286.52 171.8c0 3.71-3.02 6.72-6.72 6.72h-30.88c-8.24 0-15.22 5.05-17.79 12.88-2.05 6.23-4.59 12.37-7.57 18.24-3.72 7.35-2.37 15.87 3.46 21.7l21.84 21.85c1.26 1.26 1.96 2.95 1.96 4.75s-.7 3.49-1.96 4.75l-30.28 30.28c-1.26 1.26-2.95 1.96-4.75 1.96s-3.49-.7-4.75-1.96l-21.85-21.85c-5.83-5.83-14.34-7.18-21.7-3.46-5.87 2.97-12 5.52-18.24 7.57-7.82 2.57-12.88 9.55-12.88 17.79v30.88c0 3.71-3.02 6.72-6.72 6.72h-42.82c-3.71 0-6.72-3.02-6.72-6.72V447.4c0-8.24-5.06-15.22-12.88-17.79-6.23-2.05-12.36-4.59-18.24-7.57-7.36-3.72-15.87-2.36-21.7 3.46l-21.85 21.84c-1.26 1.26-2.95 1.96-4.75 1.96s-3.49-.7-4.75-1.96l-30.28-30.28c-1.26-1.26-1.96-2.95-1.96-4.75s.7-3.49 1.96-4.75l21.84-21.84c5.83-5.83 7.19-14.35 3.46-21.7-2.97-5.87-5.52-12.01-7.57-18.24-2.57-7.82-9.55-12.88-17.79-12.88H82.5c-3.71 0-6.72-3.02-6.72-6.72v-42.82c0-3.71 3.02-6.72 6.72-6.72h30.88c8.24 0 15.22-5.05 17.79-12.88 2.05-6.23 4.59-12.36 7.57-18.23 3.72-7.35 2.37-15.87-3.46-21.7l-21.84-21.84c-1.26-1.26-1.96-2.95-1.96-4.75s.7-3.49 1.96-4.75l7.43-7.43c2.47 15.09 13.96 27.5 28.84 31.05v43.55c0 3.31 2.69 6 6 6h16.25a92.587 92.587 0 0 0-8.65 39.12c0 51.12 41.59 92.7 92.7 92.7s92.7-41.59 92.7-92.7c0-13.59-2.98-26.93-8.65-39.12h16.25c3.31 0 6-2.69 6-6v-43.55c14.88-3.55 26.38-15.96 28.84-31.05l7.43 7.43c1.26 1.26 1.96 2.95 1.96 4.75s-.7 3.49-1.96 4.75l-21.84 21.84c-5.83 5.83-7.19 14.35-3.46 21.7 2.97 5.87 5.52 12 7.57 18.23 2.57 7.82 9.55 12.88 17.79 12.88h30.88c3.71 0 6.72 3.02 6.72 6.72v42.83zM208.5 124.81c-17.88 0-32.43 14.55-32.43 32.43s14.55 32.43 32.43 32.43 32.43-14.55 32.43-32.43-14.55-32.43-32.43-32.43zm0 52.87c-11.27 0-20.43-9.17-20.43-20.43s9.17-20.43 20.43-20.43 20.43 9.17 20.43 20.43-9.17 20.43-20.43 20.43zm95.01-52.87c-17.88 0-32.43 14.55-32.43 32.43s14.55 32.43 32.43 32.43 32.43-14.55 32.43-32.43-14.55-32.43-32.43-32.43zm0 52.87c-11.27 0-20.43-9.17-20.43-20.43s9.17-20.43 20.43-20.43 20.43 9.17 20.43 20.43-9.17 20.43-20.43 20.43z" fill="#ffffff" opacity="1" data-original="#000000" class=""></path></g></svg>