<svg xmlns="http://www.w3.org/2000/svg" version="1.1" xmlns:xlink="http://www.w3.org/1999/xlink" width="512" height="512" x="0" y="0" viewBox="0 0 512 512" style="enable-background:new 0 0 512 512" xml:space="preserve" class=""><g><path d="M386.403 181.382h55.118c10.387 0 18.838-8.407 18.838-18.74v-44.579C478.394 115.408 492.3 99.8 492.3 80.946c0-20.711-16.762-37.559-37.366-37.559-20.633 0-37.417 16.848-37.417 37.559 0 17.362 11.812 31.968 27.782 36.251v45.446c0 2.029-1.696 3.681-3.779 3.681h-55.118c-10.387 0-18.838 8.407-18.838 18.735.003 13.162-.012 68.725.016 69.961h-52.476c.14-1.167.068-51.152.09-84.904 18.391-3.544 32.339-19.811 32.339-39.308 0-22.079-17.878-40.045-39.851-40.045-21.976 0-39.853 17.966-39.853 40.045 0 19.485 13.931 35.746 32.307 39.303.022 33.754-.05 83.742.09 84.909h-74.217c.199-1.655.032 8.85.09-168.093 18.387-3.55 32.331-19.835 32.331-39.355 0-22.079-17.878-40.045-39.851-40.045-21.976 0-39.853 17.966-39.853 40.045 0 19.513 13.934 35.794 32.314 39.352.058 178.088-.108 166.451.09 168.096h-57.675c.14-1.168.066-42.724.09-76.511 0-10.848-8.873-19.672-19.78-19.672H74.057c-2.605 0-4.723-2.069-4.723-4.613V104.55c17.251-4.405 30.069-20.114 30.069-38.821 0-22.079-17.878-40.045-39.851-40.045-21.976 0-39.853 17.966-39.853 40.045 0 20.304 15.092 37.089 34.576 39.7v48.796c0 10.848 8.875 19.672 19.782 19.672h59.706c2.603 0 4.721 2.069 4.721 4.613.024 33.786-.051 75.343.09 76.511H29.539a7.53 7.53 0 0 0-7.529 7.529v47.496c0 9.319 7.674 16.897 17.106 16.897h41.623c.846 0 1.591.534 1.895 1.353a179.567 179.567 0 0 0 12.917 27.456c.316.544.439 1.343-.169 1.941l-30.574 30.074a16.736 16.736 0 0 0-.002 23.946l51.488 50.648c6.657 6.549 17.485 6.544 24.137 0l32.932-32.388c.605-.598 1.62-.711 2.512-.294a185.957 185.957 0 0 0 25.128 9.77c.745.225 1.498.838 1.498 1.696v46.427c0 9.319 7.674 16.902 17.106 16.902h72.765c9.431 0 17.106-7.583 17.106-16.902v-46.427c0-.858.752-1.471 1.507-1.701a185.774 185.774 0 0 0 25.118-9.765c.892-.417 1.909-.304 2.517.294l32.927 32.388c6.652 6.549 17.485 6.549 24.137 0l51.486-50.648a16.736 16.736 0 0 0 .002-23.946l-30.576-30.074c-.605-.598-.485-1.392-.169-1.941 5.069-8.765 9.414-18 12.919-27.451.304-.824 1.047-1.358 1.892-1.358h41.625c9.431 0 17.106-7.578 17.106-16.897V262.55a7.53 7.53 0 0 0-7.529-7.529h-99.831c.026-1.149.012-53.052.016-69.961-.001-2.031 1.695-3.678 3.778-3.678zm46.175-100.438c0-12.407 10.03-22.5 22.358-22.5 12.299 0 22.307 10.093 22.307 22.5s-10.007 22.5-22.307 22.5c-12.329.001-22.358-10.093-22.358-22.5zM59.552 90.763c-13.672 0-24.794-11.23-24.794-25.035 0-13.775 11.123-24.986 24.794-24.986 13.669 0 24.792 11.211 24.792 24.986 0 13.805-11.123 25.035-24.792 25.035zm223.336 40.045c0-13.775 11.123-24.986 24.794-24.986 13.669 0 24.792 11.211 24.792 24.986s-11.123 24.986-24.792 24.986c-13.672-.001-24.794-11.212-24.794-24.986zm-89.104-83.237c0-13.775 11.123-24.986 24.794-24.986 13.669 0 24.792 11.211 24.792 24.986 0 13.804-11.123 25.035-24.792 25.035-13.672 0-24.794-11.23-24.794-25.035zm150.759 222.508c-.006.124-.037.242-.037.368 0 47.662-39.731 86.437-88.567 86.437-48.782 0-88.469-38.775-88.469-86.437 0-.126-.031-.243-.037-.368zm130.366 0v39.966c0 1.015-.919 1.838-2.047 1.838h-41.625c-7.101 0-13.537 4.495-16.015 11.181a164.806 164.806 0 0 1-11.831 25.147c-3.826 6.613-2.735 14.927 2.647 20.216l30.576 30.074c.716.708.713 1.772-.002 2.475l-51.488 50.648c-.819.804-2.201.804-3.02 0l-32.927-32.388c-5.105-5.015-12.951-6.284-19.539-3.157a170.404 170.404 0 0 1-23.069 8.966c-7.267 2.226-12.152 8.691-12.152 16.098v46.427c0 1.015-.919 1.843-2.047 1.843h-72.765c-1.127 0-2.047-.828-2.047-1.843v-46.427c0-7.402-4.882-13.873-12.142-16.093a170.475 170.475 0 0 1-23.081-8.976c-6.576-3.121-14.428-1.86-19.535 3.162l-32.929 32.388c-.819.804-2.201.804-3.02 0L75.36 400.976c-.709-.701-.72-1.765.002-2.475l30.576-30.074c5.38-5.289 6.468-13.603 2.647-20.216-4.65-8.039-8.63-16.5-11.831-25.147-2.478-6.686-8.914-11.181-16.017-11.181H39.116c-1.127 0-2.047-.824-2.047-1.838v-39.966h115.379c-.006.124-.037.242-.037.368 0 55.966 46.442 101.496 103.528 101.496 57.14 0 103.626-45.53 103.626-101.496 0-.126-.031-.243-.037-.368z" fill="#bb0b0b" opacity="1" data-original="#000000" class=""></path></g></svg>