<svg xmlns="http://www.w3.org/2000/svg" version="1.1" xmlns:xlink="http://www.w3.org/1999/xlink" xmlns:svgjs="http://svgjs.com/svgjs" width="512" height="512" x="0" y="0" viewBox="0 0 128 128" style="enable-background:new 0 0 512 512" xml:space="preserve" class=""><g><path d="M54.177 46.382a35.798 35.798 0 0 1 11.679 4.847l6.378-4.79c.794-.567 1.645-.822 2.439-.822.963 0 1.842.396 2.494 1.049a570.23 570.23 0 0 1 4.195 4.167c.681.68 1.021 1.559 1.049 2.494 0 .822-.255 1.672-.822 2.466l-4.79 6.349a35.978 35.978 0 0 1 4.847 11.706l7.881 1.134c.964.113 1.757.539 2.324 1.134a3.65 3.65 0 0 1 1.021 2.495V84.535a3.64 3.64 0 0 1-1.021 2.494c-.567.596-1.36 1.021-2.324 1.163l-7.881 1.105a35.705 35.705 0 0 1-4.847 11.706l4.79 6.378c.567.765.822 1.615.822 2.438-.028.964-.426 1.956-1.162 2.606l-4.082 4.082a3.542 3.542 0 0 1-2.494 1.021c-.795.028-1.646-.227-2.439-.822l-6.378-4.789a33.23 33.23 0 0 1-5.612 2.947 34.41 34.41 0 0 1-6.067 1.928l-1.134 7.88a4.11 4.11 0 0 1-1.134 2.296c-.708.681-1.587 1.049-2.495 1.049H43.49a3.493 3.493 0 0 1-2.494-1.049c-.596-.566-1.021-1.36-1.163-2.296l-1.134-7.88a34.028 34.028 0 0 1-6.038-1.928 32.504 32.504 0 0 1-5.642-2.947l-6.378 4.789c-.765.596-1.616.851-2.438.822a3.487 3.487 0 0 1-2.494-1.021c-.34-.368-4.195-4.195-4.195-4.195-.652-.65-1.021-1.529-1.049-2.493 0-.822.255-1.673.85-2.438l4.762-6.378a38.089 38.089 0 0 1-2.948-5.642c-.794-1.956-1.446-3.967-1.899-6.064l-7.88-1.106a4.053 4.053 0 0 1-2.324-1.163 3.64 3.64 0 0 1-1.021-2.494V78.61c0-.907.369-1.814 1.021-2.495a3.856 3.856 0 0 1 2.324-1.134l7.881-1.134a36.794 36.794 0 0 1 1.899-6.065 38.078 38.078 0 0 1 2.948-5.641l-4.762-6.349c-.595-.794-.85-1.644-.85-2.466a3.744 3.744 0 0 1 1.049-2.494c1.389-1.389 2.806-2.778 4.195-4.195a3.611 3.611 0 0 1 2.494-1.021c.822 0 1.673.255 2.438.822l6.378 4.79a32.296 32.296 0 0 1 5.642-2.947c1.927-.822 3.968-1.446 6.038-1.899l1.134-7.88c.142-.964.567-1.757 1.163-2.324a3.47 3.47 0 0 1 2.494-1.021h5.925c.907 0 1.786.34 2.495 1.021.567.567.992 1.36 1.134 2.324zm-2.211 3.628c-.85-.142-1.417-.793-1.559-1.672l-1.304-9.184h-5.33l-1.304 9.099a2.014 2.014 0 0 1-1.644 1.785 30.777 30.777 0 0 0-6.633 1.928c-2.154.878-4.195 2.012-6.067 3.288-.68.539-1.644.539-2.381 0l-7.427-5.584-1.871 1.899-1.899 1.899 5.556 7.397a2 2 0 0 1 .057 2.353 34.283 34.283 0 0 0-3.345 6.095 34.126 34.126 0 0 0-1.928 6.604v.057a1.956 1.956 0 0 1-1.672 1.616l-9.213 1.332V84.251l9.1 1.275c.879.085 1.616.766 1.786 1.645.397 2.324 1.077 4.563 1.928 6.66a32.761 32.761 0 0 0 3.317 6.038c.51.708.539 1.672 0 2.381l-5.584 7.455 1.899 1.871 1.871 1.897 7.399-5.555a2 2 0 0 1 2.381-.057 30.82 30.82 0 0 0 6.095 3.316 30.08 30.08 0 0 0 6.605 1.927l.057.028c.822.142 1.474.794 1.616 1.673l1.304 9.212h5.33l1.304-9.099c.085-.879.737-1.645 1.644-1.786a32.772 32.772 0 0 0 6.662-1.955 31.046 31.046 0 0 0 6.038-3.288 2 2 0 0 1 2.381 0l7.428 5.583 1.899-1.897 1.871-1.871-5.557-7.427a1.997 1.997 0 0 1-.057-2.353 31.953 31.953 0 0 0 5.273-12.698v-.028a1.985 1.985 0 0 1 1.7-1.645l9.185-1.304V78.92l-9.1-1.304a2.015 2.015 0 0 1-1.785-1.645 31.51 31.51 0 0 0-5.245-12.698 1.956 1.956 0 0 1 .028-2.381l5.557-7.426-1.871-1.899-1.899-1.899-7.399 5.584c-.68.51-1.644.567-2.352.057-4-2.805-8.082-4.42-12.845-5.299zm-5.528 8.163c6.463 0 12.303 2.636 16.555 6.86a23.347 23.347 0 0 1 6.832 16.553 23.324 23.324 0 0 1-6.832 16.525c-4.252 4.224-10.092 6.859-16.555 6.859s-12.303-2.636-16.526-6.859a23.24 23.24 0 0 1-6.86-16.525c0-6.463 2.608-12.329 6.86-16.553 4.224-4.224 10.064-6.86 16.526-6.86zm13.721 9.694a19.325 19.325 0 0 0-13.721-5.669 19.323 19.323 0 0 0-13.72 5.669c-3.487 3.516-5.67 8.361-5.67 13.719s2.183 10.205 5.67 13.69c3.515 3.516 8.363 5.698 13.72 5.698 5.358 0 10.205-2.183 13.721-5.698 3.515-3.485 5.669-8.333 5.669-13.69s-2.154-10.203-5.669-13.719zM105.544 8.57a19.4 19.4 0 0 1 3.401 2.211 20.978 20.978 0 0 1 2.892 2.834l5.415-1.105a2 2 0 0 1 2.296 1.361l1.275 3.26 1.332 3.401a2 2 0 0 1-.878 2.466l-4.678 2.834c.028.425.028.907.028 1.361-.028.907-.085 1.814-.227 2.665a21.47 21.47 0 0 1-.596 2.607 9.985 9.985 0 0 1-.425 1.304l3.656 4.167c.709.766.652 1.956-.057 2.692l-2.154 2.693-2.268 2.835c-.623.765-1.673.964-2.495.51l-4.848-2.665a22.031 22.031 0 0 1-3.628 1.871 20.15 20.15 0 0 1-3.884 1.077l-1.757 5.215c-.313.936-1.248 1.474-2.212 1.333l-3.572-.539-3.6-.539c-1.021-.17-1.758-1.077-1.701-2.098l-.113-5.357a19.4 19.4 0 0 1-3.401-2.211c-1.049-.822-2.013-1.786-2.892-2.806l-5.414 1.077a2.01 2.01 0 0 1-2.297-1.332l-1.275-3.288-1.333-3.373a2 2 0 0 1 .879-2.466l4.679-2.834c-.028-.454-.028-.907-.028-1.389.028-.907.085-1.786.227-2.665.142-.85.34-1.729.595-2.608.113-.454.256-.878.426-1.303l-3.658-4.139c-.708-.793-.651-1.956.057-2.721l2.155-2.692 2.268-2.835a1.975 1.975 0 0 1 2.495-.481l4.847 2.636c1.163-.737 2.354-1.361 3.629-1.843a22.43 22.43 0 0 1 3.884-1.105l1.758-5.216c.312-.935 1.247-1.474 2.211-1.332l3.572.539 3.6.567a1.98 1.98 0 0 1 1.701 2.069zm.907 5.328a14.982 14.982 0 0 0-3.657-2.211c-.709-.255-1.19-1.077-1.19-1.814l-.142-5.045-1.928-.284-1.928-.312-1.586 4.706c-.227.766-.879 1.361-1.701 1.446-1.446.17-2.836.51-4.168 1.02-1.332.539-2.551 1.19-3.713 2.041-.681.454-1.418.595-2.183.17l-4.451-2.438-1.219 1.531-1.219 1.53 3.345 3.799c.482.567.652 1.389.313 2.126a16.733 16.733 0 0 0-.709 2.012c-.198.652-.34 1.361-.454 2.098a11.691 11.691 0 0 0-.198 2.154c-.028.709 0 1.417.085 2.154s-.255 1.502-.936 1.927l-4.337 2.636.709 1.814.709 1.814 4.988-.992c.737-.142 1.531.142 1.984.766 1.616 2.183 4.167 4.251 6.634 5.329.708.312 1.19.992 1.19 1.786l.142 5.046 1.928.312 1.928.284 1.588-4.706a2.091 2.091 0 0 1 1.701-1.446 14.96 14.96 0 0 0 4.167-1.021 15.254 15.254 0 0 0 3.713-2.041c.709-.453 1.445-.566 2.183-.17l4.45 2.438 1.22-1.531 1.22-1.502-3.347-3.827c-.481-.567-.651-1.389-.312-2.098.283-.681.511-1.333.709-2.041.198-.652.34-1.36.453-2.097.142-.766.198-1.474.198-2.154.028-.709 0-1.417-.085-2.126-.085-.766.256-1.531.936-1.928l4.338-2.636-.708-1.814-.709-1.843-4.99.992a1.898 1.898 0 0 1-1.984-.765c-.851-1.161-1.871-2.182-2.977-3.089zm-8.532 1.248c3.203.51 5.924 2.239 7.682 4.677 1.785 2.409 2.664 5.527 2.154 8.73-.482 3.203-2.239 5.896-4.649 7.682a11.743 11.743 0 0 1-8.73 2.154 11.655 11.655 0 0 1-7.683-4.649c-1.786-2.438-2.665-5.527-2.154-8.73a11.781 11.781 0 0 1 4.648-7.71 11.748 11.748 0 0 1 8.732-2.154zm4.478 7.029a7.658 7.658 0 0 0-5.074-3.061 7.65 7.65 0 0 0-5.783 1.417c-1.588 1.162-2.722 2.948-3.062 5.074a7.788 7.788 0 0 0 1.417 5.754c1.162 1.616 2.948 2.75 5.075 3.09a7.894 7.894 0 0 0 5.782-1.417 7.9 7.9 0 0 0 3.062-5.074 7.86 7.86 0 0 0-1.417-5.783z" fill="#ffffff" data-original="#000000" class=""></path><path d="M9.303 45.588a1.978 1.978 0 0 1-2.807.057c-.793-.794-.822-2.041-.057-2.835.595-.595 1.162-1.162 1.758-1.729.567-.539 1.19-1.077 1.814-1.644.822-.708 2.098-.624 2.806.227.737.822.652 2.069-.198 2.806-.567.482-1.134.992-1.701 1.531-.538.51-1.076 1.049-1.615 1.587zm11.651-9.013c-.964.539-2.183.227-2.722-.737s-.199-2.183.737-2.721a55.503 55.503 0 0 1 13.267-5.414 55.91 55.91 0 0 1 14.202-1.814c2.807 0 5.584.199 8.306.596a60.051 60.051 0 0 1 8.107 1.842c1.049.34 1.644 1.446 1.304 2.494-.312 1.049-1.445 1.644-2.494 1.332-2.41-.737-4.905-1.332-7.484-1.701a53.541 53.541 0 0 0-7.739-.566c-4.564 0-8.986.595-13.21 1.7a51.593 51.593 0 0 0-12.274 4.989zm72.541 23.526c-.453-1.02-.028-2.182.993-2.636.992-.482 2.183-.028 2.637.964.227.51.425.992.651 1.53.228.51.426 1.021.624 1.502a1.988 1.988 0 0 1-1.134 2.579 2 2 0 0 1-2.58-1.134c-.198-.482-.396-.963-.566-1.417-.198-.453-.397-.935-.625-1.388zm4.253 14.937c-.142-1.077.652-2.097 1.729-2.21 1.105-.142 2.098.624 2.211 1.729 1.389 10.913-.425 21.967-5.386 31.86a56.11 56.11 0 0 1-16.413 19.699c-.879.652-2.127.482-2.778-.396-.652-.907-.482-2.154.396-2.807a51.914 51.914 0 0 0 15.223-18.254c4.565-9.156 6.294-19.529 5.018-29.621zM124.281 42.271a2 2 0 0 1 2.693-.793 2.033 2.033 0 0 1 .794 2.721c-2.382 4.252-5.557 7.993-9.383 10.97-3.771 2.948-8.137 5.187-12.87 6.462-1.049.283-2.154-.369-2.438-1.417-.283-1.077.341-2.182 1.418-2.465a31.813 31.813 0 0 0 11.453-5.726 32.514 32.514 0 0 0 8.333-9.752zm-60.04-19.926a2.004 2.004 0 0 1-2.239 1.729 2.004 2.004 0 0 1-1.729-2.239 36.776 36.776 0 0 1 3.6-11.536A36.448 36.448 0 0 1 71.129.577a1.977 1.977 0 0 1 2.807.057c.767.793.738 2.069-.057 2.806a33.044 33.044 0 0 0-6.435 8.673 31.477 31.477 0 0 0-3.203 10.232zM35.411 78.865a2.014 2.014 0 0 1-2.834-.17c-.737-.822-.652-2.098.17-2.835 4.11-3.599 8.873-5.413 13.692-5.413 4.791 0 9.553 1.814 13.692 5.441a1.98 1.98 0 0 1 .17 2.807 2.01 2.01 0 0 1-2.807.198c-3.402-2.977-7.229-4.479-11.056-4.479-3.826.001-7.682 1.503-11.027 4.451zm8.817 14.966c-.907.595-2.154.312-2.75-.596a2.015 2.015 0 0 1 .624-2.776c1.36-.851 2.834-1.305 4.337-1.305s2.977.426 4.366 1.276a2.034 2.034 0 0 1 .624 2.748 1.984 1.984 0 0 1-2.75.624 4.071 4.071 0 0 0-2.211-.652c-.767 0-1.532.227-2.24.681zm-4.395-7.652a1.987 1.987 0 0 1-2.807-.313 2.014 2.014 0 0 1 .312-2.806c2.778-2.211 5.953-3.316 9.128-3.316 3.147.028 6.322 1.134 9.1 3.345.851.708.992 1.956.312 2.806a1.981 1.981 0 0 1-2.778.313c-2.069-1.645-4.366-2.467-6.633-2.467-2.296-.001-4.592.822-6.634 2.438z" fill="#ffffff" data-original="#000000" class=""></path></g></svg>