<svg xmlns="http://www.w3.org/2000/svg" version="1.1" xmlns:xlink="http://www.w3.org/1999/xlink" xmlns:svgjs="http://svgjs.com/svgjs" width="512" height="512" x="0" y="0" viewBox="0 0 512 512" style="enable-background:new 0 0 512 512" xml:space="preserve" class=""><g><path d="M89.997 177.851h14.754v89.56a7.515 7.515 0 0 0 7.515 7.515h57.555a7.515 7.515 0 0 0 7.515-7.515v-89.56h14.754a7.515 7.515 0 0 0 5.474-12.663l-51.047-54.269a7.514 7.514 0 0 0-10.948 0l-51.047 54.269a7.515 7.515 0 0 0 5.475 12.663zm51.047-50.816 33.662 35.787h-4.884a7.515 7.515 0 0 0-7.515 7.515v89.56h-42.526v-89.56a7.514 7.514 0 0 0-7.515-7.515h-4.884zM204.954 126.151h14.755v141.26a7.515 7.515 0 0 0 7.515 7.515h57.555a7.514 7.514 0 0 0 7.515-7.515v-141.26h14.754a7.516 7.516 0 0 0 5.473-12.663l-51.046-54.269a7.514 7.514 0 0 0-10.948 0l-51.047 54.269a7.515 7.515 0 0 0 5.474 12.663zm51.047-50.816 33.661 35.787h-4.884a7.514 7.514 0 0 0-7.515 7.515v141.26h-42.526v-141.26a7.515 7.515 0 0 0-7.515-7.515h-4.884zM319.911 69.299h14.754v81.561c0 4.151 3.364 7.515 7.515 7.515s7.515-3.364 7.515-7.515V61.784a7.514 7.514 0 0 0-7.515-7.515h-4.884l33.661-35.787 33.662 35.787h-4.884a7.514 7.514 0 0 0-7.515 7.515v198.112h-42.526v-78.978c0-4.151-3.364-7.515-7.515-7.515s-7.515 3.364-7.515 7.515v86.492a7.514 7.514 0 0 0 7.515 7.515h57.555a7.514 7.514 0 0 0 7.515-7.515V69.299h14.754a7.516 7.516 0 0 0 5.473-12.663l-51.045-54.27a7.514 7.514 0 0 0-10.948 0l-51.046 54.269a7.515 7.515 0 0 0 5.474 12.664zM401.113 434.499l-10.142 5.527a2420.758 2420.758 0 0 0-15.463 8.525c-44.188 24.5-94.267 52.277-142.413 47.972L62.623 481.305a7.447 7.447 0 0 0-.668-.03H15.029v-84.363h46.925c1.777 0 3.496-.63 4.853-1.777.217-.183 22.047-18.489 52.391-30.406a7.516 7.516 0 0 0-5.493-13.989c-27.292 10.717-47.849 25.961-54.412 31.143H7.515A7.515 7.515 0 0 0 0 389.398v99.392a7.515 7.515 0 0 0 7.515 7.515H61.62l170.139 15.188c3.842.343 7.677.507 11.513.507 48.792 0 96.804-26.618 139.525-50.305a2440.53 2440.53 0 0 1 15.367-8.472l10.142-5.526a7.516 7.516 0 0 0-7.193-13.198z" fill="#bb0b0b" data-original="#000000" opacity="1" class=""></path><path d="M506.199 356.787c-7.99-10.593-21.909-14.251-33.926-9.219a26.042 26.042 0 0 0-4.785-13.478c-7.513-10.519-21.798-13.909-33.227-7.884l-17.872 9.419a25.874 25.874 0 0 0-3.673-11.974c-7.132-11.788-22.2-15.88-34.301-9.319l-13.359 7.242a26.612 26.612 0 0 0-5.139-14.529c-7.833-10.657-22.013-13.938-33.722-7.797l-96.437 50.581c-10.845-4.164-45.42-15.426-85.81-7.904a7.514 7.514 0 1 0 2.751 14.775c43.12-8.027 80.021 8.101 80.379 8.26.968.435 2.018.66 3.079.66h100.379c7.132 0 12.934 5.818 12.934 12.971 0 6.519-4.863 12.051-11.313 12.868L204.93 407.573a7.514 7.514 0 0 0 .045 14.916l54.033 6.513c52.338 6.307 104.369-3.9 150.463-29.526l67.525-37.537c5.937-3.09 13.161-1.458 17.204 3.9a13.727 13.727 0 0 1 2.458 11.175 13.694 13.694 0 0 1-6.835 9.144l-62.217 33.906a7.515 7.515 0 0 0 7.192 13.196l62.217-33.905a28.718 28.718 0 0 0 14.334-19.167 28.745 28.745 0 0 0-5.15-23.401zm-194.665-6.196h-50.871l72.512-38.032c5.079-2.663 11.233-1.238 14.631 3.388 2.013 2.739 2.712 6.076 1.97 9.396-.742 3.314-2.791 6.028-5.77 7.644l-.001.001zm28.476 1.657 45.567-24.704a10.708 10.708 0 0 1 14.28 3.886 10.687 10.687 0 0 1 1.163 8.472 10.654 10.654 0 0 1-5.346 6.641l-39.522 20.83c-3.072-7-8.918-12.512-16.142-15.125zm117.028-.608c-.696 3.093-2.604 5.645-5.37 7.182l-49.499 27.517c-41.333 22.978-87.74 32.763-134.64 28.454l66.517-8.425c12.34-1.562 21.987-11.1 24.042-23.027l83.181-43.84c4.811-2.535 10.824-1.107 13.99 3.324 1.845 2.584 2.477 5.715 1.779 8.815z" fill="#bb0b0b" data-original="#000000" opacity="1" class=""></path></g></svg>