<svg xmlns="http://www.w3.org/2000/svg" version="1.1" xmlns:xlink="http://www.w3.org/1999/xlink" width="512" height="512" x="0" y="0" viewBox="0 0 512 512" style="enable-background:new 0 0 512 512" xml:space="preserve" class=""><g><path fill="#121209" fill-rule="evenodd" d="M457.235 85.4c42.583 21.249 52.166 78.3 18.255 112.209a69.944 69.944 0 0 1-18.255 13.165V439.1a15.358 15.358 0 0 1-15.326 15.326H31.336A15.358 15.358 0 0 1 16.01 439.1V72.9a15.358 15.358 0 0 1 15.326-15.326h410.573A15.358 15.358 0 0 1 457.235 72.9z" opacity="1" data-original="#121209" class=""></path><path fill="#89b07e" fill-rule="evenodd" d="M384.219 106.333a59.043 59.043 0 1 0 83.5 0 59.045 59.045 0 0 0-83.5 0zm4.289 47.488a5.489 5.489 0 0 1 6.784-8.631l23.7 18.636 36.9-42.62a5.479 5.479 0 1 1 8.287 7.171l-40.122 46.343a5.5 5.5 0 0 1-7.741.967z" opacity="1" data-original="#89b07e"></path><path fill="#ffffff" fill-rule="evenodd" d="M355.934 148.083v-.037H27V439.1a4.361 4.361 0 0 0 4.333 4.334h410.576a4.361 4.361 0 0 0 4.333-4.334V215.132c-44.825 13.512-90.308-19.966-90.308-67.049zM165.259 265.425a5.493 5.493 0 1 1 4.723-9.919l26.742 12.748a19.328 19.328 0 0 1 25.465-2.9l41.988-33.389a19.337 19.337 0 1 1 36.648-2.4l39.217 23.544a19.329 19.329 0 0 1 23.165-2.254l16.034-14.49a5.472 5.472 0 1 1 7.342 8.115l-16.037 14.493A19.336 19.336 0 1 1 334.4 262.5l-39.218-23.544a19.326 19.326 0 0 1-24.171 1.592l-41.991 33.39a19.335 19.335 0 1 1-37.02 4.231l-26.736-12.744zm-51.044 140.72v-97.584a5.5 5.5 0 0 1 5.5-5.5h37.642a5.5 5.5 0 0 1 5.5 5.5v97.584h23.924v-74.377a5.5 5.5 0 0 1 5.5-5.5h37.642a5.5 5.5 0 0 1 5.5 5.5v74.377h22.376V288.292a5.5 5.5 0 0 1 5.5-5.5h37.642a5.5 5.5 0 0 1 5.5 5.5v117.853H328.8v-96.277a5.5 5.5 0 0 1 5.5-5.5h37.642a5.5 5.5 0 0 1 5.5 5.5v96.277H396.7a5.5 5.5 0 0 1 0 10.992H92.325a5.5 5.5 0 1 1 0-10.992zm-14.29-231.8a57.672 57.672 0 0 1 57.67 57.67 5.5 5.5 0 0 1-5.5 5.5h-4.357A48.13 48.13 0 1 1 94.429 184.2v-4.357a5.5 5.5 0 0 1 5.496-5.5z" opacity="1" data-original="#ffffff"></path><path fill="#1798d5" fill-rule="evenodd" d="M356.8 137.054a69.682 69.682 0 0 1 10.3-26.942H172.577a5.5 5.5 0 0 1 0-10.993H375.9a70.005 70.005 0 0 1 70.345-18.085V72.9a4.361 4.361 0 0 0-4.333-4.334H31.336A4.361 4.361 0 0 0 27 72.9v64.154zM70.523 99.119a5.5 5.5 0 1 1-5.52 5.5 5.5 5.5 0 0 1 5.52-5.5zm32.268 0a5.5 5.5 0 1 1-5.52 5.5 5.5 5.5 0 0 1 5.52-5.5zm32.267 0a5.5 5.5 0 1 1-5.52 5.5 5.5 5.5 0 0 1 5.52-5.5z" opacity="1" data-original="#1798d5"></path><path fill="#86bde8" d="M125.208 314.057h26.65v92.087h-26.65z" opacity="1" data-original="#86bde8"></path><g fill-rule="evenodd"><path fill="#f6c782" d="M136.656 237.509H99.925a5.5 5.5 0 0 1-5.5-5.5v-36.727a37.138 37.138 0 1 0 42.227 42.227z" opacity="1" data-original="#f6c782"></path><path fill="#89b07e" d="M132.932 199.006a46.538 46.538 0 0 0-27.511-13.35v40.861h40.861a46.538 46.538 0 0 0-13.35-27.511z" opacity="1" data-original="#89b07e"></path><path fill="#4595d1" d="M359.015 261.452a8.341 8.341 0 1 0 0 11.8 8.35 8.35 0 0 0 0-11.8zM288 218.82a8.341 8.341 0 1 0 0 11.8 8.35 8.35 0 0 0 0-11.8zM216.991 275.289a8.341 8.341 0 1 0 0 11.8 8.349 8.349 0 0 0 0-11.8z" opacity="1" data-original="#4595d1"></path></g><path fill="#6fafe0" d="M197.768 337.264h26.65v68.881h-26.65z" opacity="1" data-original="#6fafe0"></path><path fill="#59a1d8" d="M268.78 293.788h26.651v112.356H268.78z" opacity="1" data-original="#59a1d8"></path><path fill="#4595d1" d="M339.792 315.365h26.65v90.78h-26.65z" opacity="1" data-original="#4595d1"></path></g></svg>