<svg xmlns="http://www.w3.org/2000/svg" version="1.1" xmlns:xlink="http://www.w3.org/1999/xlink" xmlns:svgjs="http://svgjs.com/svgjs" width="512" height="512" x="0" y="0" viewBox="0 0 100 100" style="enable-background:new 0 0 512 512" xml:space="preserve" class=""><g><switch><g><path d="M87.3 25.3C74.6 23.2 66.1 13.7 66 13.6c-.5-.6-1.5-.6-2 0-.1.1-8.5 9.6-21.3 11.7-.6.1-1.1.7-1.1 1.3V37c.9-.1 1.8.1 2.6.4v-9.7C55 25.6 62.4 19 65 16.4c2.6 2.6 10.1 9.2 20.8 11.3v14.4c0 6.5-2.9 12.5-8.1 16.5l-9.9 7.7c.1.5.2 1.1.2 1.7s-.1 1.1-.2 1.7l11.5-9c5.8-4.5 9.1-11.2 9.1-18.5V26.6c.1-.7-.4-1.2-1.1-1.3z" fill="#bb0b0b" data-original="#000000" opacity="1" class=""></path><path d="M65 53.1c7.5 0 13.5-6.1 13.5-13.5s-6-13.5-13.5-13.5-13.5 6.1-13.5 13.5S57.6 53.1 65 53.1zm0-24.4c6 0 10.9 4.9 10.9 10.9S71 50.5 65 50.5s-10.9-4.9-10.9-10.9S59 28.7 65 28.7z" fill="#bb0b0b" data-original="#000000" opacity="1" class=""></path><path d="M62.5 44.4c.2.2.6.4.9.4s.7-.1.9-.4l6.6-6.6c.5-.5.5-1.3 0-1.9-.5-.5-1.3-.5-1.9 0l-5.6 5.6-2.3-2.3c-.5-.5-1.3-.5-1.9 0-.5.5-.5 1.3 0 1.9zM65.4 67.9c0-1.8-1-3.3-2.4-4.1.5-.8.8-1.7.8-2.7 0-2.6-2.1-4.7-4.7-4.7H45.8c.4-2.4 1.3-6.8 1.8-9.3.7-3.3-.9-6-4.3-7.3-1.1-.4-2.3-.3-3.3.2s-1.7 1.4-2 2.6l-1.2 4.8c-1.3 5-7.1 11.8-7.1 11.8-.7.8-1.7 1.4-2.8 1.7V60c0-.7-.6-1.3-1.3-1.3H12.9c-.7 0-1.3.6-1.3 1.3v22.4c0 .7.6 1.3 1.3 1.3h12.8c.7 0 1.3-.6 1.3-1.3v-1c1.2 0 2.4.4 3.4 1.3 4.1 3.4 10.4 4.2 15.3 4.2 4.1 0 7.4-.6 7.6-.6h5.3c2.6 0 4.7-2.1 4.7-4.7 0-1.1-.4-2.1-1-2.9 1.2-.9 2-2.3 2-3.9 0-1.1-.4-2.1-1-2.9 1.3-.9 2.1-2.3 2.1-4zM24.3 81H14.2V61.2h10.1zm28.5-21.9h6.4c1.1 0 2.1.9 2.1 2.1s-.9 2.1-2.1 2.1h-6.4c-1.1 0-2.1-.9-2.1-2.1s.9-2.1 2.1-2.1zM49.3 84c-4.7.4-12.7.3-17.3-3.4-1.5-1.3-3.3-1.9-5.1-1.9V63.5c1.9-.3 3.6-1.2 4.8-2.7.3-.3 6.2-7.3 7.7-12.9l1.2-4.8c.1-.4.3-.7.7-.8.3-.2.7-.2 1.1-.1 3 1.1 3 3 2.7 4.3-.8 3.6-2.1 10.9-2.1 11-.1.4 0 .8.3 1.1s.6.5 1 .5h4.1c-.6 2.4-2.7 7.6-10.3 8.4-.7.1-1.2.7-1.2 1.4.1.7.6 1.2 1.3 1.2h.1c3.8-.4 6.5-1.8 8.4-3.4-.1.4-.2.8-.2 1.3 0 1.6.8 3.1 2.1 3.9-.6.8-1 1.8-1 2.9 0 1.6.8 3 2 3.9-.6.8-1 1.8-1 2.9 0 .8.2 1.7.7 2.4zm9.4-.4h-5.4c-1.1 0-2.1-.9-2.1-2.1s.9-2.1 2.1-2.1h5.4c1.1 0 2.1.9 2.1 2.1s-1 2.1-2.1 2.1zm1-6.8h-7.4c-1.1 0-2.1-.9-2.1-2.1s.9-2.1 2.1-2.1h7.4c1.1 0 2.1.9 2.1 2.1s-1 2.1-2.1 2.1zm1-6.8h-9.5c-1.1 0-2.1-.9-2.1-2.1s.9-2.1 2.1-2.1h9.5c1.1 0 2.1.9 2.1 2.1s-.9 2.1-2.1 2.1z" fill="#bb0b0b" data-original="#000000" opacity="1" class=""></path><path d="M19.2 78.5c1.2 0 2.2-1 2.2-2.2s-1-2.2-2.2-2.2-2.2 1-2.2 2.2 1 2.2 2.2 2.2z" fill="#bb0b0b" data-original="#000000" opacity="1" class=""></path></g></switch></g></svg>