<svg xmlns="http://www.w3.org/2000/svg" version="1.1" xmlns:xlink="http://www.w3.org/1999/xlink" xmlns:svgjs="http://svgjs.com/svgjs" width="512" height="512" x="0" y="0" viewBox="0 0 64 64" style="enable-background:new 0 0 512 512" xml:space="preserve" class=""><g><path d="m61.984 4.232-6.989.11a1 1 0 0 0-.984 1.015 1.018 1.018 0 0 0 1.015.985l4.154-.065L42.828 19.87l-8.208-9.5a.997.997 0 0 0-1.205-.24l-6.261 3.14A14.187 14.187 0 1 0 9.816 34.02v24.748a1 1 0 0 0 1 1h7.825a1 1 0 0 0 1-1V34.364a14.185 14.185 0 0 0 4.628-2.566v26.97a1 1 0 0 0 1 1h7.825a1 1 0 0 0 1-1V23.475a1 1 0 0 0-1-1h-3.796a14.257 14.257 0 0 0 .094-1.583 14.093 14.093 0 0 0-1.283-5.864l5.506-2.761 8.341 9.653a1 1 0 0 0 1.397.115L61 7.365v4.69a1 1 0 1 0 2 0V5.233a1.031 1.031 0 0 0-1.016-1zM17.641 57.768h-5.825V34.663a13.574 13.574 0 0 0 5.825.198zm-2.444-24.681a12.196 12.196 0 1 1 12.195-12.195 12.21 12.21 0 0 1-12.195 12.195zm16.897-8.612v33.293h-5.825V29.753a14.148 14.148 0 0 0 2.647-5.278z" fill="#bb0b0b" data-original="#000000" class="" opacity="1"></path><path d="M47.547 25.67h-7.825a1 1 0 0 0-1 1v32.097a1 1 0 0 0 1 1h7.825a1 1 0 0 0 1-1V26.67a1 1 0 0 0-1-1zm-1 32.097h-5.825V27.67h5.825zM62 17.062h-7.825a1 1 0 0 0-1 1v40.706a1 1 0 0 0 1 1H62a1 1 0 0 0 1-1V18.062a1 1 0 0 0-1-1zm-1 40.706h-5.825V19.062H61zM15.196 19.892c-2.184 0-2.348-.507-2.348-1.28 0-1.805 3.97-1.625 4.664-.841a1 1 0 1 0 1.497-1.327 4.489 4.489 0 0 0-2.669-1.156v-1.116a1 1 0 0 0-2 0v1.112c-2.406.312-3.492 1.713-3.492 3.328 0 3.28 3.273 3.28 4.348 3.28 2.145 0 2.638.239 2.638 1.278 0 1.838-4.054 1.637-4.72.777a1 1 0 1 0-1.582 1.223 4.283 4.283 0 0 0 2.808 1.337v1.104a1 1 0 0 0 2 0v-1.103a5.803 5.803 0 0 0 1.084-.242 3.219 3.219 0 0 0 2.41-3.096c0-3.278-3.133-3.278-4.638-3.278z" fill="#bb0b0b" data-original="#000000" class="" opacity="1"></path></g></svg>