<svg xmlns="http://www.w3.org/2000/svg" version="1.1" xmlns:xlink="http://www.w3.org/1999/xlink" xmlns:svgjs="http://svgjs.com/svgjs" width="512" height="512" x="0" y="0" viewBox="0 0 512 512" style="enable-background:new 0 0 512 512" xml:space="preserve" class=""><g><path d="M291.071 305.437a7.5 7.5 0 0 0 8.698 12.221c19.955-14.202 31.868-37.252 31.868-61.657 0-41.706-33.931-75.637-75.637-75.637s-75.637 33.93-75.637 75.636 33.931 75.637 75.637 75.637c4.441 0 8.893-.39 13.231-1.159a7.5 7.5 0 1 0-2.619-14.769 60.978 60.978 0 0 1-10.612.929c-33.436 0-60.637-27.201-60.637-60.637s27.202-60.637 60.637-60.637 60.637 27.201 60.637 60.637c0 19.561-9.557 38.042-25.566 49.436z" fill="#bb0b0b" data-original="#000000" opacity="1" class=""></path><path d="M256 150.303c-7.908 0-15.796.878-23.443 2.61a7.499 7.499 0 0 0-5.658 8.971c.915 4.039 4.93 6.577 8.972 5.658a91.336 91.336 0 0 1 20.13-2.239c50.011 0 90.698 40.687 90.698 90.697S306.011 346.697 256 346.697 165.303 306.011 165.303 256c0-32.209 17.321-62.281 45.205-78.482a7.5 7.5 0 0 0 2.717-10.252 7.497 7.497 0 0 0-10.253-2.717c-32.487 18.875-52.668 53.918-52.668 91.451 0 58.281 47.416 105.697 105.697 105.697S361.698 314.281 361.698 256 314.282 150.303 256 150.303zM238.162 96.853a7.498 7.498 0 0 0-10.546 1.132 7.5 7.5 0 0 0 1.132 10.546l21.933 17.682c2.758 2.316 6.921 2.303 9.666-.027l21.034-17.765a7.499 7.499 0 0 0 .891-10.568 7.5 7.5 0 0 0-10.569-.891l-8.703 7.35V57.65c12.76-3.146 22.252-14.682 22.252-28.398C285.251 13.122 272.129 0 256 0s-29.251 13.122-29.251 29.252c0 13.355 9 24.64 21.25 28.129v47.402zm3.587-67.601C241.749 21.394 248.142 15 256 15s14.251 6.394 14.251 14.252S263.858 43.503 256 43.503s-14.251-6.393-14.251-14.251zM344.013 160.474c.319 3.611 3.266 6.466 6.842 6.806l27.445 2.313a7.5 7.5 0 0 0 8.103-6.844 7.5 7.5 0 0 0-6.844-8.104l-11.351-.957 32.987-32.986c4.52 2.745 9.716 4.213 15.139 4.213 7.813 0 15.159-3.043 20.684-8.567 5.525-5.525 8.568-12.871 8.568-20.684s-3.043-15.159-8.567-20.684c-5.525-5.525-12.871-8.568-20.684-8.568s-15.159 3.043-20.684 8.567c-9.444 9.444-11.06 23.788-4.864 34.917l-33.518 33.518-1.349-12.564a7.5 7.5 0 0 0-8.257-6.656 7.499 7.499 0 0 0-6.657 8.257zm62.245-74.887c2.692-2.691 6.271-4.174 10.078-4.174s7.385 1.482 10.077 4.175c2.692 2.691 4.174 6.271 4.174 10.077s-1.482 7.385-4.174 10.076v.001c-2.691 2.691-6.27 4.174-10.077 4.174s-7.386-1.482-10.078-4.175c-5.557-5.555-5.557-14.597 0-20.154zM482.749 226.748c-13.355 0-24.64 9-28.13 21.251h-47.401l7.93-9.837a7.5 7.5 0 1 0-11.678-9.414l-17.686 21.938c-2.319 2.766-2.281 6.896.023 9.652l17.771 21.042a7.484 7.484 0 0 0 5.734 2.661 7.463 7.463 0 0 0 4.835-1.771 7.499 7.499 0 0 0 .891-10.568l-7.35-8.703h46.661c3.146 12.76 14.682 22.253 28.399 22.253C498.878 285.252 512 272.13 512 256s-13.122-29.252-29.251-29.252zm0 43.504c-7.858 0-14.251-6.394-14.251-14.252s6.393-14.252 14.251-14.252S497 248.142 497 256s-6.393 14.252-14.251 14.252zM416.335 387.084a29.087 29.087 0 0 0-14.241 3.695l-33.51-33.51 12.563-1.348a7.499 7.499 0 0 0 6.657-8.257c-.441-4.119-4.148-7.104-8.257-6.657l-28.03 3.007c-3.682.332-6.352 3.267-6.799 6.841l-2.313 27.446a7.5 7.5 0 1 0 14.947 1.26l.957-11.352 32.994 32.995c-6.798 11.247-5.353 26.116 4.346 35.815 5.525 5.525 12.871 8.568 20.684 8.568s15.159-3.043 20.684-8.567c5.525-5.525 8.568-12.871 8.568-20.685 0-7.813-3.043-15.158-8.567-20.683-5.523-5.525-12.869-8.568-20.683-8.568zm10.077 39.329c-2.691 2.691-6.27 4.174-10.077 4.174s-7.386-1.482-10.078-4.174v-.001c-5.557-5.556-5.557-14.598 0-20.154 2.692-2.691 6.271-4.174 10.078-4.174s7.385 1.482 10.077 4.175a14.156 14.156 0 0 1 4.174 10.076 14.154 14.154 0 0 1-4.174 10.078zM273.838 415.147a7.468 7.468 0 0 0 4.703 1.661 7.5 7.5 0 0 0 4.711-13.339l-21.933-17.682c-2.758-2.316-6.922-2.301-9.666.027l-21.034 17.765a7.499 7.499 0 0 0-.891 10.568 7.5 7.5 0 0 0 10.569.891l8.703-7.35v46.662c-12.76 3.146-22.252 14.682-22.252 28.398 0 16.13 13.122 29.252 29.251 29.252s29.251-13.122 29.251-29.252c0-13.355-9-24.64-21.25-28.129v-47.402zm-3.587 67.601c0 7.858-6.393 14.252-14.251 14.252s-14.251-6.394-14.251-14.252 6.393-14.251 14.251-14.251 14.251 6.393 14.251 14.251zM167.987 351.526c-.28-3.164-2.615-5.858-5.691-6.613a7.127 7.127 0 0 0-.456-.1c-.063-.011-.129-.018-.193-.028a7.23 7.23 0 0 0-.503-.065l-27.445-2.313c-4.134-.332-7.755 2.717-8.104 6.844a7.5 7.5 0 0 0 6.844 8.104l11.351.957-32.987 32.986c-4.52-2.745-9.716-4.213-15.139-4.213-7.813 0-15.159 3.043-20.684 8.567-5.525 5.525-8.568 12.871-8.568 20.684s3.043 15.159 8.567 20.684c5.525 5.525 12.871 8.568 20.684 8.568s15.159-3.043 20.684-8.567c9.444-9.444 11.06-23.788 4.864-34.917l33.518-33.518 1.349 12.564a7.5 7.5 0 0 0 14.915-1.601zm-62.245 74.887c-2.692 2.691-6.271 4.174-10.078 4.174s-7.385-1.482-10.077-4.175c-2.692-2.691-4.174-6.271-4.174-10.077s1.482-7.385 4.174-10.076v-.001c2.691-2.691 6.27-4.174 10.077-4.174s7.386 1.482 10.078 4.175c5.557 5.555 5.557 14.597 0 20.154zM104.783 264.001l-7.93 9.837a7.5 7.5 0 1 0 11.678 9.414l17.686-21.938c2.319-2.766 2.281-6.896-.023-9.652l-17.771-21.042a7.5 7.5 0 0 0-11.46 9.677l7.35 8.703H57.651c-3.146-12.76-14.682-22.253-28.399-22.253C13.122 226.748 0 239.87 0 256s13.122 29.252 29.251 29.252c13.355 0 24.64-9 28.13-21.251zm-75.532 6.251C21.393 270.252 15 263.858 15 256s6.393-14.252 14.251-14.252S43.503 248.142 43.503 256s-6.393 14.252-14.252 14.252zM95.665 124.916c5.068 0 9.936-1.288 14.241-3.695l33.51 33.51-12.563 1.348a7.501 7.501 0 0 0 1.6 14.914l28.022-3.006c3.688-.326 6.359-3.267 6.806-6.841l2.313-27.446a7.5 7.5 0 1 0-14.948-1.26l-.957 11.352-32.994-32.995c6.798-11.247 5.353-26.116-4.346-35.815-5.525-5.525-12.871-8.568-20.684-8.568s-15.159 3.043-20.684 8.567c-5.525 5.525-8.568 12.871-8.568 20.685 0 7.813 3.043 15.158 8.567 20.683 5.525 5.524 12.871 8.567 20.685 8.567zM85.588 85.587c2.691-2.691 6.27-4.174 10.077-4.174s7.386 1.482 10.078 4.174v.001c5.557 5.556 5.557 14.598 0 20.154-2.692 2.691-6.271 4.174-10.078 4.174s-7.385-1.482-10.077-4.175a14.156 14.156 0 0 1-4.174-10.076 14.154 14.154 0 0 1 4.174-10.078z" fill="#bb0b0b" data-original="#000000" opacity="1" class=""></path></g></svg>