<svg xmlns="http://www.w3.org/2000/svg" version="1.1" xmlns:xlink="http://www.w3.org/1999/xlink" xmlns:svgjs="http://svgjs.com/svgjs" width="512" height="512" x="0" y="0" viewBox="0 0 60 60" style="enable-background:new 0 0 512 512" xml:space="preserve" class=""><g><g id="Page-1" fill="none" fill-rule="evenodd"><g id="017---Self-Star-Rating" fill="rgb(0,0,0)" fill-rule="nonzero" transform="translate(-1)"><path id="Shape" d="m36.243 33.13c-.3374374.1175404-.5865353.4061728-.653461.7571724-.0669258.3509995.0584883.7110409.329.9445.2705116.2334591.6450236.304868.982461.1873276 8.3055796-2.8784934 13.3185875-11.3335315 11.8590821-20.001762-1.4595053-8.66823057-8.9648388-15.01550443-17.7550821-15.01550443s-16.2955768 6.34727386-17.7550821 15.01550443c-1.4595054 8.6682305 3.5535025 17.1232686 11.8590821 20.001762.5219091.1814255 1.0920744-.0945909 1.2735-.6165.1814255-.5219091-.0945909-1.0920744-.6165-1.2735-1.7289281-.603376-3.3411228-1.4997914-4.766-2.65v-1.089c-.0040793-3.1194741 1.9167043-5.9181142 4.829-7.036 3.0979901 2.1948144 7.2440099 2.1948144 10.342 0 2.9122957 1.1178858 4.8330793 3.9165259 4.829 7.036v1.093c-1.4223868 1.1482323-3.0314527 2.043586-4.757 2.647zm-12.243-18.13c0-3.8659932 3.1340068-7 7-7s7 3.1340068 7 7-3.1340068 7-7 7c-3.8641657-.0044086-6.9955914-3.1358343-7-7zm13.8 5.873c3.1440304-3.6312099 2.8825336-9.0914069-.5941194-12.40554269-3.4766531-3.3141358-8.9431081-3.3141358-12.4197612 0-3.476653 3.31413579-3.7381498 8.77433279-.5941194 12.40554269-2.9445502 1.5054945-4.8977147 4.4303205-5.16 7.727-5.7005804-6.4246531-5.3115095-16.2041.8814494-22.15557405 6.192959-5.9514741 15.9801422-5.9514741 22.1731012 0 6.1929589 5.95147405 6.5820298 15.73092095.8814494 22.15557405-.26315-3.2986318-2.2198237-6.2241772-5.168-7.727z" fill="#bb0b0b" data-original="#000000" class=""></path><path id="Shape" d="m22.4 59.611c.6114716.4512222 1.4268915.5137377 2.1.161l6.507-3.381 6.506 3.382c.6747005.3507651 1.4899491.2885627 2.1036235-.1605036.6136745-.4490663.9195933-1.2072965.7893765-1.9564964l-1.236-7.132 5.23-5.041c.5494388-.5296863.749535-1.3258902.5157941-2.0523995-.233741-.7265093-.860569-1.2566657-1.6157941-1.3666005l-7.26-1.043-3.24-6.513c-.336398-.6820107-1.0325498-1.1122037-1.793-1.108-.7582029-.0027578-1.4520237.42579-1.789 1.105l-3.258 6.516-7.244 1.042c-.7556612.1096467-1.3829497.6399932-1.6167482 1.3668939-.2337984.7269006-.0333033 1.5234933.5167482 2.0531061l5.232 5.041-1.237 7.132c-.1321468.7488916.1740604 1.507618.789 1.955zm-3.4-15.568 7.762-1.117c.3243224-.0465614.6052626-.2490476.752-.542l3.492-6.984 3.477 6.982c.1464346.2939874.4278949.4973266.753.544l7.778 1.117-5.614 5.409c-.238804.2303348-.3478167.5641157-.291.891l1.327 7.657-6.967-3.621c-.2889982-.1501332-.6330018-.1501332-.922 0l-6.968 3.621 1.327-7.655c.0568167-.3268843-.052196-.6606652-.291-.891z" fill="#bb0b0b" data-original="#000000" class=""></path><path id="Shape" d="m5.7 44.222-.977 5.649c-.0942993.5266669.04924751 1.0680688.39209579 1.4788308.34284829.410762.84986362.6487898 1.38490421.6501692.29212778-.0004896.57986477-.0711378.839-.206l5.161-2.686 5.158 2.692c.3168946.1650567.697774.1485142.9991646-.0433962.3013905-.1919104.477504-.5300329.462-.8870001-.015504-.3569671-.22027-.678547-.5371646-.8436037l-5.62-2.93c-.2895351-.1508268-.6344649-.1508268-.924 0l-5.277 2.749 1-5.8c.05681665-.3268843-.05219599-.6606652-.291-.891l-4.247-4.1 5.877-.844c.32452803-.0467713.60551139-.2496622.752-.543l2.648-5.294 2.638 5.293c.1466296.294252.4285238.4976346.754.544l6.279.9c.5467619.0781483 1.0533517-.3017381 1.1315-.8485s-.3017381-1.0533517-.8485-1.1315l-5.76-.825-2.577-5.172c-.3052734-.6153176-.9341252-1.0032583-1.621-1h-.006c-.6793806-.0013594-1.3002179.3843357-1.6.994l-2.59 5.178-5.743.824c-.68753626.09166-1.26123514.5702103-1.47473953 1.2301524-.21350439.659942-.0288226 1.3838436.47473953 1.8608476z" fill="#bb0b0b" data-original="#000000" class=""></path><path id="Shape" d="m60.91 38.356c-.2087665-.6565275-.7772622-1.1339081-1.46-1.226l-5.75-.825-2.584-5.177c-.2988211-.6113339-.9195423-.9992847-1.6-1h-.006c-.6872346-.0036408-1.3165677.3843574-1.622 1l-2.576 5.171-5.761.825c-.3536929.0505531-.653549.285959-.7866152.6175426s-.0791267.7089695.1415.99.5744223.4230105.9281152.3724574l6.28-.9c.3254762-.0463654.6073704-.249748.754-.544l2.632-5.287 2.643 5.294c.1464886.2933378.427472.4962287.752.543l5.874.843-4.247 4.1c-.238804.2303348-.3478167.5641157-.291.891l1.005 5.8-5.277-2.752c-.2895351-.1508268-.6344649-.1508268-.924 0l-5.62 2.93c-.3168946.1650567-.5216606.4866366-.5371646.8436037-.015504.3569672.1606095.6950897.462.8870001.3013906.1919104.68227.2084529.9991646.0433962l5.161-2.688 5.16 2.692c.6107526.3173308 1.3487053.2603664 1.9035216-.1469375s.8302528-1.0942929.7104784-1.7720625l-.974-5.659 4.146-4c.5017617-.4803646.6823412-1.2065744.464-1.866z" fill="#bb0b0b" data-original="#000000" class=""></path><path id="Shape" d="m25.5 47.139c.0481997-.0002563.0963206-.0039322.144-.011l3.761-.541c.3243224-.0465614.6052626-.2490476.752-.542l1.74-3.479c.2485281-.4942949.0492949-1.0964719-.445-1.345s-1.0964719-.0492949-1.345.445l-1.5 3.011-3.245.467c-.5197764.0740625-.8937687.5374814-.8563995 1.0611762.0373692.5236949.4733733.9293151.9983995.9288238z" fill="#bb0b0b" data-original="#000000" class=""></path></g></g></g></svg>