<svg xmlns="http://www.w3.org/2000/svg" version="1.1" xmlns:xlink="http://www.w3.org/1999/xlink" xmlns:svgjs="http://svgjs.com/svgjs" width="512" height="512" x="0" y="0" viewBox="0 0 512 512" style="enable-background:new 0 0 512 512" xml:space="preserve" class=""><g><path d="M399.702 109.066c-11.995-31.214-32.711-57.961-60.073-77.508C310.729 10.913 276.628 0 241.011 0c-49.517 0-96.471 21.561-128.823 59.154a7.5 7.5 0 1 0 11.369 9.785C153.058 34.66 195.867 15 241.011 15c65.009 0 123.581 41.105 145.748 102.282 1.459 4.031 5.332 6.737 9.65 6.737h.013C451.881 124.02 497 169.207 497 224.749c0 25.879-9.784 50.471-27.55 69.245a7.5 7.5 0 1 0 10.895 10.31C500.758 282.732 512 254.479 512 224.749c0-62.707-50.062-113.926-112.298-115.683zM263 458.048V442c0-4.142-3.357-7.5-7.5-7.5s-7.5 3.358-7.5 7.5v16.048c-11.528 3.274-20 13.889-20 26.452 0 15.164 12.337 27.5 27.5 27.5s27.5-12.336 27.5-27.5c0-12.563-8.472-23.178-20-26.452zM255.5 497c-6.893 0-12.5-5.607-12.5-12.5s5.607-12.5 12.5-12.5 12.5 5.607 12.5 12.5-5.607 12.5-12.5 12.5zM192.5 386.5a7.5 7.5 0 0 0-7.5 7.5v40.5c0 3.584-2.916 6.5-6.5 6.5h-13.548c-3.274-11.528-13.889-20-26.452-20-15.163 0-27.5 12.336-27.5 27.5s12.337 27.5 27.5 27.5c12.563 0 23.178-8.472 26.452-20H178.5c11.855 0 21.5-9.645 21.5-21.5V394a7.5 7.5 0 0 0-7.5-7.5zm-54 74.5c-6.893 0-12.5-5.607-12.5-12.5s5.607-12.5 12.5-12.5 12.5 5.607 12.5 12.5-5.607 12.5-12.5 12.5z" fill="#bb0b0b" data-original="#000000" opacity="1"></path><path d="M434.5 365c-12.563 0-23.178 8.472-26.452 20H394.5a6.508 6.508 0 0 1-6.5-6.5v-38.513c12.148-.01 19.204-.033 19.632-.074 14.99-1.446 29.336-5.74 42.638-12.763a7.501 7.501 0 0 0 3.132-10.134c-1.935-3.663-6.472-5.067-10.134-3.131a99.502 99.502 0 0 1-36.841 11.074c-1.67.03-11.081.042-25.918.041h-.018c-59.521-.003-206.377-.218-291.84-.359-14.291-.026-27.802-3.886-39.072-11.16C27.927 299.507 15 275.786 15 250.029c0-36.919 26.339-68.194 62.63-74.365 4.759-.811 8.31-4.925 8.443-9.782.676-24.571 6.913-47.935 18.539-69.442a7.5 7.5 0 0 0-3.031-10.164 7.498 7.498 0 0 0-10.164 3.031c-12.146 22.47-18.931 46.778-20.19 72.316C29.723 170.535 0 207.101 0 250.029c0 30.875 15.493 59.306 41.444 76.055 13.691 8.837 30.006 13.525 47.181 13.557l34.375.056V378.5c0 3.584-2.916 6.5-6.5 6.5h-13.548c-3.274-11.528-13.889-20-26.452-20-15.163 0-27.5 12.336-27.5 27.5S61.337 420 76.5 420c12.563 0 23.178-8.472 26.452-20H116.5c11.855 0 21.5-9.645 21.5-21.5v-38.779l47 .072V359c0 4.142 3.357 7.5 7.5 7.5s7.5-3.358 7.5-7.5v-19.185c16.369.024 32.462.046 48 .066V407c0 4.142 3.357 7.5 7.5 7.5s7.5-3.358 7.5-7.5v-67.1c16.94.021 33.071.039 48 .054V434.5c0 11.855 9.645 21.5 21.5 21.5h13.548c3.274 11.528 13.889 20 26.452 20 15.163 0 27.5-12.336 27.5-27.5S387.663 421 372.5 421c-12.563 0-23.178 8.472-26.452 20H332.5a6.508 6.508 0 0 1-6.5-6.5v-94.532c18.181.015 34.13.024 46.989.024H373V378.5c0 11.855 9.645 21.5 21.5 21.5h13.548c3.274 11.528 13.889 20 26.452 20 15.163 0 27.5-12.336 27.5-27.5S449.663 365 434.5 365zm-358 40c-6.893 0-12.5-5.607-12.5-12.5S69.607 380 76.5 380 89 385.607 89 392.5 83.393 405 76.5 405zm296 31c6.893 0 12.5 5.607 12.5 12.5s-5.607 12.5-12.5 12.5-12.5-5.607-12.5-12.5 5.607-12.5 12.5-12.5zm62-31c-6.893 0-12.5-5.607-12.5-12.5s5.607-12.5 12.5-12.5 12.5 5.607 12.5 12.5-5.607 12.5-12.5 12.5z" fill="#bb0b0b" data-original="#000000" opacity="1"></path></g></svg>