<svg xmlns="http://www.w3.org/2000/svg" version="1.1" xmlns:xlink="http://www.w3.org/1999/xlink" width="512" height="512" x="0" y="0" viewBox="0 0 64 64" style="enable-background:new 0 0 512 512" xml:space="preserve" class=""><g><path d="M49.72 43.45h-6.96c-.55 0-1-.45-1-1s.45-1 1-1h6.96c4.76 0 8.63-3.87 8.63-8.63 0-3.59-2.17-6.75-5.52-8.05a1.01 1.01 0 0 1-.64-.92c-.08-4.45-3.77-8.07-8.22-8.07-.45 0-.9.04-1.32.1-.54.1-1.05-.28-1.15-.82-.97-5.6-5.8-9.66-11.49-9.66-6.44 0-11.69 5.24-11.69 11.68 0 .55-.45 1-1 1-6.44 0-11.68 5.24-11.68 11.69 0 6.44 5.24 11.68 11.68 11.68h4.1c.55 0 1 .45 1 1s-.45 1-1 1h-4.1c-7.54 0-13.68-6.13-13.68-13.68 0-7.22 5.62-13.15 12.71-13.65.5-7.09 6.43-12.71 13.65-12.71 6.35 0 11.79 4.32 13.27 10.39.23-.01.46-.02.69-.02 5.32 0 9.75 4.15 10.19 9.38 3.78 1.73 6.19 5.46 6.19 9.66.01 5.86-4.76 10.63-10.62 10.63z" fill="#ffffff" opacity="1" data-original="#000000" class=""></path><path d="M25.37 50.09H13.72c-.55 0-1-.45-1-1s.45-1 1-1h10.65V36.33c0-.55.45-1 1-1s1 .45 1 1v12.76c0 .56-.45 1-1 1z" fill="#ffffff" opacity="1" data-original="#000000" class=""></path><path d="M10.76 53.06c-2.18 0-3.96-1.78-3.96-3.96s1.78-3.96 3.96-3.96 3.96 1.78 3.96 3.96-1.78 3.96-3.96 3.96zm0-5.93c-1.08 0-1.96.88-1.96 1.96s.88 1.96 1.96 1.96 1.96-.88 1.96-1.96-.88-1.96-1.96-1.96zM50.28 50.09H38.63c-.55 0-1-.45-1-1V36.33c0-.55.45-1 1-1s1 .45 1 1v11.76h10.65c.55 0 1 .45 1 1s-.45 1-1 1z" fill="#ffffff" opacity="1" data-original="#000000" class=""></path><path d="M53.24 53.06c-2.18 0-3.96-1.78-3.96-3.96s1.78-3.96 3.96-3.96 3.96 1.78 3.96 3.96-1.77 3.96-3.96 3.96zm0-5.93c-1.08 0-1.96.88-1.96 1.96s.88 1.96 1.96 1.96 1.96-.88 1.96-1.96-.87-1.96-1.96-1.96zM31.66 53.94c-.55 0-1-.45-1-1v-16.6c0-.55.45-1 1-1s1 .45 1 1v16.6c0 .55-.45 1-1 1z" fill="#ffffff" opacity="1" data-original="#000000" class=""></path><path d="M31.66 60.59c-2.39 0-4.33-1.94-4.33-4.33s1.94-4.33 4.33-4.33 4.33 1.94 4.33 4.33-1.94 4.33-4.33 4.33zm0-6.65c-1.28 0-2.33 1.04-2.33 2.33s1.04 2.33 2.33 2.33c1.28 0 2.33-1.04 2.33-2.33s-1.05-2.33-2.33-2.33zM36.75 18.77a.99.99 0 0 1-.66-.25c-.41-.36-.45-1-.09-1.41 2.67-3.03 6.3-3.21 6.45-3.21.56-.03 1.02.41 1.04.96s-.41 1.02-.96 1.04c-.07 0-2.96.18-5.03 2.54-.2.22-.47.33-.75.33z" fill="#ffffff" opacity="1" data-original="#000000" class=""></path></g></svg>