<svg xmlns="http://www.w3.org/2000/svg" version="1.1" xmlns:xlink="http://www.w3.org/1999/xlink" width="512" height="512" x="0" y="0" viewBox="0 0 1707 1707" style="enable-background:new 0 0 512 512" xml:space="preserve" fill-rule="evenodd" class=""><g><path d="M1378 942H329c-27 0-49-21-49-48V576c0-26 22-48 49-48h1049c27 0 48 22 48 48v318c0 27-21 48-48 48zM329 568c-5 0-9 4-9 8v318c0 4 4 8 9 8h1049c5 0 8-4 8-8V576c0-4-3-8-8-8z" fill="#bb0b0b" opacity="1" data-original="#000000" class=""></path><path d="M1306 792c-90 0-84 5-84-84 0-38 48-29 84-29 38 0 29 47 29 83 0 16-13 30-29 30zm-44-40h33v-33h-33zM1155 792c-89 0-83 5-83-84 0-38 47-29 83-29 38 0 29 47 30 83 0 16-14 30-30 30zm-43-40h33v-33h-33zM1004 792c-89 0-83 6-83-84 0-38 48-29 83-29 39 0 30 47 30 83 0 16-13 30-30 30zm-43-40h33v-33h-33zM833 755H391c-26 0-26-40 0-40h442c26 0 26 40 0 40zM1378 1316H329c-27 0-49-21-49-48V950c0-26 22-48 49-48h1049c27 0 48 22 48 48v318c0 27-21 48-48 48zM329 942c-5 0-9 4-9 8v318c0 4 4 8 9 8h1049c5 0 8-4 8-8V950c0-4-3-8-8-8z" fill="#bb0b0b" opacity="1" data-original="#000000" class=""></path><path d="M1306 1166c-90 0-84 6-84-84 0-38 48-29 84-29 38 0 29 48 29 83 0 16-13 30-29 30zm-44-40h33v-33h-33zM1155 1166c-89 0-83 5-83-83 0-39 47-30 83-30 38 0 29 48 30 83 0 16-14 30-30 30zm-43-40h33v-33h-33zM1004 1166c-89 0-83 5-83-83 0-39 48-30 83-30 39 0 30 47 30 83 0 16-13 30-30 30zm-43-40h33v-33h-33zM833 1129H391c-26 0-26-40 0-40h442c26 0 26 40 0 40zM1378 1690H329c-27 0-49-21-49-48v-317c0-27 22-49 49-49h1049c27 0 48 22 48 49v317c0 27-21 48-48 48zM329 1316c-5 0-9 4-9 9v317c0 5 4 8 9 8h1049c5 0 8-3 8-8v-317c0-5-3-9-8-9z" fill="#bb0b0b" opacity="1" data-original="#000000" class=""></path><path d="M1306 1540c-90 0-84 6-84-83 0-39 48-30 84-30 38 0 29 48 29 83 0 16-13 30-29 30zm-44-40h33v-33h-33zM1155 1540c-89 0-83 6-83-83 0-39 47-30 83-30 38 0 29 48 30 83 0 16-14 30-30 30zm-43-40h33v-33h-33zM1004 1540c-89 0-83 6-83-83 0-39 48-30 83-30 39 0 30 48 30 83 0 16-13 30-30 30zm-43-40h33v-33h-33zM833 1503H391c-26 0-26-40 0-40h442c26 0 26 40 0 40zM1406 1069c-25 0-27-39-1-40 147-8 262-128 262-275 0-141-106-258-245-273-22-3-18-26-18-40 0-212-172-385-385-385-133 0-255 68-326 181-13 20-34-2-95-2-134 0-248 96-271 227-2 10-10 17-19 17-151 4-268 125-268 275 0 147 115 267 261 275 26 1 25 41-2 40C132 1060 0 922 0 754c0-167 126-302 291-314 38-170 206-274 376-237C746 86 877 16 1020 16c234 0 425 190 425 427 150 26 262 156 262 311 0 168-132 306-300 314 0 1 0 1-1 1z" fill="#bb0b0b" opacity="1" data-original="#000000" class=""></path></g></svg>