<svg xmlns="http://www.w3.org/2000/svg" version="1.1" xmlns:xlink="http://www.w3.org/1999/xlink" width="512" height="512" x="0" y="0" viewBox="0 0 64 64" style="enable-background:new 0 0 512 512" xml:space="preserve" class=""><g><path d="M23.92 45.18c-.21 0-.42-.07-.6-.2-.46-.34-.89-.72-1.29-1.13-1.83.82-3.84 1.25-5.86 1.25-7.88 0-14.28-6.4-14.28-14.27 0-7.88 6.41-14.28 14.28-14.28.23 0 .46.01.69.02 2.41-4.43 6.98-7.15 12.08-7.15 6.62 0 12.25 4.7 13.51 11.09.61-.1 1.23-.15 1.85-.15 3.4 0 6.52 1.47 8.67 4.07.56-.13 1.13-.2 1.7-.2 4.1 0 7.44 3.33 7.44 7.43s-3.34 7.44-7.44 7.44c-.58 0-1.15-.07-1.7-.2-.57.68-1.22 1.3-1.93 1.83-.44.33-1.07.24-1.4-.2s-.24-1.07.2-1.4c.75-.56 1.4-1.22 1.95-1.97.26-.36.72-.5 1.14-.35.56.2 1.14.29 1.74.29 3 0 5.44-2.44 5.44-5.44s-2.44-5.43-5.44-5.43c-.59 0-1.18.1-1.76.29a.992.992 0 0 1-1.12-.36c-1.78-2.42-4.51-3.8-7.49-3.8-.81 0-1.62.11-2.42.32-.28.07-.58.02-.82-.14s-.4-.42-.43-.71a11.76 11.76 0 0 0-11.69-10.4c-4.56 0-8.62 2.54-10.59 6.64-.18.38-.58.61-1.01.56-.38-.04-.77-.06-1.17-.06-6.77 0-12.28 5.51-12.28 12.28S9.4 43.12 16.17 43.12c1.96 0 3.91-.47 5.63-1.36a1 1 0 0 1 1.22.24c.45.52.96 1 1.5 1.41.44.33.53.96.19 1.4-.19.23-.49.37-.79.37zM13.95 51.04c-2.35 0-4.04-.47-4.17-.51a.994.994 0 0 1-.68-1.24c.15-.53.71-.84 1.24-.69.05.01 4.98 1.37 9.43-.86a.993.993 0 0 1 1.34.45c.25.49.05 1.09-.45 1.34-2.34 1.19-4.75 1.51-6.71 1.51zM44.74 14.97c-.43 0-.83-.28-.96-.71C42.2 8.98 37.21 7.77 37 7.72c-.54-.12-.87-.66-.75-1.2s.66-.88 1.19-.75c.26.06 6.33 1.49 8.26 7.91.16.53-.14 1.09-.67 1.25-.1.02-.19.04-.29.04z" fill="#ffffff" opacity="1" data-original="#000000"></path><path d="M29.64 52.06c-.55 0-1-.45-1-1v-13.9c0-.55.45-1 1-1s1 .45 1 1v13.89c0 .56-.45 1.01-1 1.01z" fill="#ffffff" opacity="1" data-original="#000000"></path><path d="M29.64 58.25c-2.26 0-4.1-1.84-4.1-4.1s1.84-4.1 4.1-4.1 4.1 1.84 4.1 4.1-1.84 4.1-4.1 4.1zm0-6.19a2.1 2.1 0 1 0 0 4.2 2.1 2.1 0 0 0 0-4.2zM38.33 45.89c-.55 0-1-.45-1-1V31c0-.55.45-1 1-1s1 .45 1 1v13.89c0 .55-.45 1-1 1z" fill="#ffffff" opacity="1" data-original="#000000"></path><path d="M38.33 52.09c-2.26 0-4.1-1.84-4.1-4.1s1.84-4.1 4.1-4.1 4.1 1.84 4.1 4.1-1.84 4.1-4.1 4.1zm0-6.2a2.1 2.1 0 1 0 0 4.2 2.1 2.1 0 0 0 0-4.2zM46.68 50.72c-.55 0-1-.45-1-1V35.83c0-.55.45-1 1-1s1 .45 1 1v13.89c0 .55-.45 1-1 1z" fill="#ffffff" opacity="1" data-original="#000000"></path><path d="M46.68 56.91c-2.26 0-4.1-1.84-4.1-4.1s1.84-4.1 4.1-4.1 4.1 1.84 4.1 4.1-1.84 4.1-4.1 4.1zm0-6.19a2.1 2.1 0 1 0 0 4.2 2.1 2.1 0 0 0 0-4.2z" fill="#ffffff" opacity="1" data-original="#000000"></path></g></svg>