<svg xmlns="http://www.w3.org/2000/svg" version="1.1" xmlns:xlink="http://www.w3.org/1999/xlink" xmlns:svgjs="http://svgjs.com/svgjs" width="512" height="512" x="0" y="0" viewBox="0 0 61 60" style="enable-background:new 0 0 512 512" xml:space="preserve" class=""><g><g fill="#000" fill-rule="nonzero"><path d="M28.971 18.231h.086a52.707 52.707 0 0 0 8.19-1.259 1 1 0 0 0-.494-1.938 50.59 50.59 0 0 1-7.866 1.2 1 1 0 0 0 .084 2z" fill="#bb0b0b" data-original="#000000" class="" opacity="1"></path><circle cx="5" cy="11" r="1" fill="#bb0b0b" data-original="#000000" class="" opacity="1"></circle><path d="M5 14a1 1 0 0 0-1 1v2a1 1 0 0 0 2 0v-2a1 1 0 0 0-1-1z" fill="#bb0b0b" data-original="#000000" class="" opacity="1"></path><circle cx="5" cy="24" r="1" fill="#bb0b0b" data-original="#000000" class="" opacity="1"></circle><path d="M5 27a1 1 0 0 0-1 1v2a1 1 0 0 0 2 0v-2a1 1 0 0 0-1-1z" fill="#bb0b0b" data-original="#000000" class="" opacity="1"></path><circle cx="5" cy="37" r="1" fill="#bb0b0b" data-original="#000000" class="" opacity="1"></circle><path d="M5 40a1 1 0 0 0-1 1v2a1 1 0 0 0 2 0v-2a1 1 0 0 0-1-1z" fill="#bb0b0b" data-original="#000000" class="" opacity="1"></path><path d="M51.917 37.514A12.8 12.8 0 0 0 42 27.194V5c0-4.943-20.143-5-21-5S0 .057 0 5v40c0 2.045 3.382 3.506 10.042 4.35-.027.308-.042.62-.042.935C10 55.642 14.048 60 19.023 60h30.464c5.828 0 10.57-5.111 10.57-11.4a11.208 11.208 0 0 0-8.14-11.086zM39.944 27a11.9 11.9 0 0 0-9.9 5.442 9.313 9.313 0 0 0-7.366 1.541c-.55.008-1.108.017-1.678.017-11.78 0-18.5-1.934-19-3.031V20.362C7.109 22.961 20.309 23 21 23s13.891-.039 19-2.638V27h-.056zM40 17.962C39.526 19.057 32.805 21 21 21 9.163 21 2.435 19.046 2 18V7.362C7.109 9.961 20.309 10 21 10s13.891-.039 19-2.638zM21 2c11.665 0 18.37 1.9 18.984 3C39.37 6.1 32.665 8 21 8 9.2 8 2.474 6.057 2 5.057v-.019C2.474 3.943 9.2 2 21 2zM2 44.968V33.362C6.66 35.733 18.045 35.974 20.534 36a11.029 11.029 0 0 0-2.191 4.6 9.205 9.205 0 0 0-7.926 6.783C4.142 46.593 2.2 45.374 2 44.968zM49.487 58H19.023C15.15 58 12 54.539 12 50.285s3.15-7.715 7.023-7.715H19.186a1 1 0 0 0 .99-.863c.589-4.259 4-7.471 7.927-7.471.717 0 1.43.105 2.116.311a1 1 0 0 0 1.148-.449A9.992 9.992 0 0 1 39.944 29c5 0 9.348 4.079 10.108 9.487a1 1 0 0 0 .814.846c4.167.742 7.191 4.642 7.191 9.272 0 5.181-3.844 9.395-8.57 9.395z" fill="#bb0b0b" data-original="#000000" class="" opacity="1"></path></g></g></svg>