<svg xmlns="http://www.w3.org/2000/svg" version="1.1" xmlns:xlink="http://www.w3.org/1999/xlink" width="512" height="512" x="0" y="0" viewBox="0 0 60 60" style="enable-background:new 0 0 512 512" xml:space="preserve" class=""><g><g fill="#f7c037"><path d="M30.677 9.406a.5.5 0 0 1-.368-.839l1.025-1.107-2.736 1.58a.5.5 0 0 1-.586-.803l1.946-1.768-2.702 1.56a.5.5 0 0 1-.564-.821l1.178-.951-1.272.734a.5.5 0 0 1-.556-.828l.196-.151a.5.5 0 0 1-.482-.861l.345-.273a.528.528 0 0 1-.411-.194.5.5 0 0 1 .04-.657l1.067-1.082a.498.498 0 0 1-.098-.91L29.075.663a.499.499 0 0 1 .606.784l-.638.646L31.171.865a.5.5 0 0 1 .56.824l-.03.023.482-.277a.5.5 0 0 1 .556.828l-.146.113.33-.19a.5.5 0 0 1 .564.821l-1.179.952 1.188-.686a.5.5 0 0 1 .586.803l-1.945 1.768 1.562-.902a.5.5 0 0 1 .618.772l-1.226 1.322a.502.502 0 0 1 .212.932L30.928 9.34a.489.489 0 0 1-.25.067zM8.59 21.424a.502.502 0 0 1-.385-.821l1.58-1.897-3.632 2.097a.5.5 0 0 1-.6-.789l2.698-2.65-3.466 2a.5.5 0 0 1-.554-.83l.113-.086a.5.5 0 0 1-.507-.849l.974-.808-.512.295a.5.5 0 0 1-.619-.771l1.241-1.35a.499.499 0 0 1-.224-.932l2.376-1.372a.5.5 0 0 1 .619.771l-1.061 1.152 2.795-1.613c.225-.132.512-.067.66.146s.109.505-.091.671l-.976.81 1.504-.868a.501.501 0 0 1 .554.83l-.084.063.162-.093a.5.5 0 0 1 .6.789l-2.697 2.65 2.652-1.531a.5.5 0 0 1 .635.753l-1.579 1.896.09-.052a.496.496 0 0 1 .683.183.498.498 0 0 1-.183.683l-2.518 1.454a.489.489 0 0 1-.25.067zM8.18 47.458a.5.5 0 0 1-.375-.831l1.744-1.976-3.547 2.048a.5.5 0 0 1-.561-.823l.735-.588-1.042.602a.5.5 0 0 1-.564-.821l1.195-.966-1.23.71a.499.499 0 0 1-.565-.82l.963-.783-.642.37a.5.5 0 0 1-.639-.747l1.584-1.954-.037.021a.499.499 0 0 1-.683-.183.498.498 0 0 1 .183-.683l2.376-1.372a.5.5 0 0 1 .639.747L6.13 41.364l3.735-2.156a.499.499 0 0 1 .565.82l-.963.783 1.337-.771a.498.498 0 0 1 .564.821l-1.193.964 1.26-.727a.499.499 0 0 1 .561.823l-.736.588.439-.253a.5.5 0 0 1 .625.763l-1.743 1.975.522-.302a.498.498 0 0 1 .683.183.498.498 0 0 1-.183.683l-3.174 1.833a.489.489 0 0 1-.25.067zM51.837 21.461a.499.499 0 0 1-.328-.878l.176-.152-1.067.616a.5.5 0 0 1-.565-.82l.62-.504-1.099.634a.5.5 0 0 1-.585-.804l2.357-2.131-2.74 1.582a.499.499 0 0 1-.57-.816l1.388-1.158-1.126.649a.5.5 0 0 1-.643-.742l1.662-2.105-.118.067a.498.498 0 0 1-.683-.183.498.498 0 0 1 .183-.683l2.376-1.372a.5.5 0 0 1 .643.742l-1.662 2.106 3.891-2.246a.498.498 0 0 1 .57.816l-1.388 1.158 1.803-1.04a.5.5 0 0 1 .585.804l-2.357 2.131 2.461-1.421a.5.5 0 0 1 .565.82l-.62.504.133-.076a.5.5 0 0 1 .578.811l-.664.575a.5.5 0 0 1 .154.924l-3.679 2.124a.489.489 0 0 1-.25.067zM52.254 47.453a.5.5 0 0 1-.36-.847l1.213-1.25-2.728 1.574a.5.5 0 0 1-.569-.817l1.099-.91-1.578.91a.5.5 0 0 1-.589-.8l2.525-2.332-2.807 1.62a.5.5 0 0 1-.583-.806l1.761-1.572-1.333.769a.5.5 0 0 1-.614-.775l1.184-1.255a.498.498 0 0 1-.177-.928l2.376-1.372a.5.5 0 0 1 .614.775l-.927.983 2.575-1.486a.5.5 0 0 1 .583.806l-1.758 1.57 2.493-1.439a.5.5 0 0 1 .589.8l-2.526 2.333 2.815-1.625a.5.5 0 0 1 .569.817l-1.098.91.709-.409a.5.5 0 0 1 .61.78l-1.22 1.258a.5.5 0 0 1 .455.889l-3.054 1.763a.489.489 0 0 1-.25.067zM30.677 59.406a.5.5 0 0 1-.351-.855l.451-.445-1.854 1.069a.497.497 0 0 1-.655-.14.502.502 0 0 1 .073-.667l1.522-1.354-2.304 1.33a.5.5 0 0 1-.56-.824l.843-.67-1.019.588a.5.5 0 0 1-.592-.797l2.494-2.343-2.427 1.4a.5.5 0 0 1-.644-.741l1.678-2.137-.134.077a.498.498 0 0 1-.683-.183.498.498 0 0 1 .183-.683l2.376-1.372a.5.5 0 0 1 .644.741l-1.678 2.137 3.922-2.264a.5.5 0 0 1 .592.797l-2.492 2.342 3.136-1.811a.5.5 0 0 1 .56.824l-.844.671.7-.404a.501.501 0 0 1 .582.807l-1.525 1.355.976-.562a.5.5 0 0 1 .601.788l-1.004.991a.498.498 0 0 1 .056.894l-2.375 1.372a.489.489 0 0 1-.25.067z" fill="#f7c037" opacity="1" data-original="#f7c037"></path></g><path fill="#2bb5e2" d="M21.589 38.47a.5.5 0 0 1-.272-.92l2.72-1.755-4.291 2.477a.5.5 0 0 1-.519-.855l1.604-1.019-2.416 1.395a.5.5 0 0 1-.53-.847l10.466-7.075-11.563 6.676a.5.5 0 0 1-.526-.85l8.802-5.804-9.19 5.306a.5.5 0 0 1-.522-.853l5.825-3.759-5.755 3.322a.5.5 0 0 1-.531-.846l10.362-7.059-9.892 5.711a.5.5 0 0 1-.618-.771l2.092-2.265a.497.497 0 0 1-.674-.188.498.498 0 0 1 .183-.683l2.845-1.643a.5.5 0 0 1 .618.771l-2.092 2.265 18.684-10.787a.5.5 0 0 1 .531.846l-10.359 7.057 11.623-6.711a.5.5 0 0 1 .522.853l-5.829 3.761 6.273-3.621a.499.499 0 0 1 .526.85l-8.803 5.805 9.187-5.304a.5.5 0 0 1 .53.847l-10.468 7.076 10.647-6.146a.5.5 0 0 1 .519.855l-1.61 1.023 1.324-.765a.5.5 0 0 1 .522.853l-2.725 1.759 2.83-1.634a.501.501 0 0 1 .529.849l-4.884 3.265 5.54-3.198a.5.5 0 0 1 .538.842l-6.241 4.392 6.744-3.893a.499.499 0 0 1 .552.831L38.33 33.51l6.245-3.604a.5.5 0 0 1 .542.839l-2.436 1.748 2.037-1.176a.499.499 0 0 1 .562.822l-2.647 2.124 1.767-1.02a.5.5 0 0 1 .59.799l-1.657 1.545a.498.498 0 0 1 .13.918l-2.98 1.72a.5.5 0 0 1-.59-.799l1.203-1.121-3.636 2.099a.5.5 0 0 1-.562-.822l2.648-2.125-5.105 2.947a.5.5 0 0 1-.542-.839l2.436-1.748-4.481 2.587a.5.5 0 0 1-.552-.831l6.087-4.604-9.415 5.435a.5.5 0 0 1-.538-.842l6.235-4.389-9.059 5.23a.501.501 0 0 1-.529-.849l4.893-3.271-7.136 4.119a.494.494 0 0 1-.25.067z" opacity="1" data-original="#2bb5e2" class=""></path><path fill="#2bb5e2" d="M20.22 26.665a.5.5 0 0 1-.37-.837l1.112-1.221a.5.5 0 0 1-.194-.93l2.26-1.305a.5.5 0 0 1 .62.769l-.896.982 2.44-1.408a.498.498 0 0 1 .683.183.498.498 0 0 1-.183.683l-5.223 3.016a.489.489 0 0 1-.25.067z" opacity="1" data-original="#2bb5e2" class=""></path><path fill="#2bb5e2" d="M25.682 23.277a.5.5 0 0 1-.324-.881l1.87-1.594a.498.498 0 0 1-.056-.894l3.467-2.002a.5.5 0 0 1 .574.814l-1.042.889 3.425-1.978a.497.497 0 0 1 .683.183.498.498 0 0 1-.183.683l-8.163 4.713a.491.491 0 0 1-.25.067z" opacity="1" data-original="#2bb5e2" class=""></path><path fill="#262626" d="M52.724 21.465c8.596-2.035 1.392-13.583-4.415-7.211L34.324 6.636c3.019-8.152-11.776-7.558-8.627.306l-13.748 7.489C6.471 7.552-1.669 19.62 7.276 21.507v17.037c-8.656 2.072-1.288 13.63 4.461 7.132l13.973 7.611c-3.031 8.227 11.504 7.861 8.625-.167l13.774-7.503c5.402 6.152 13.55-5.355 4.615-6.868zm-1.555 17.401c-.994.223-1.896.696-2.586 1.361l-5.645-3.347c3.263-2.193 3.72-7.219.877-9.958-1.382-.745-2.078-1.666-2.128-3.289l6.522-3.855c.7.946 1.86 1.619 3.066 1.726V38.85c-.035.007-.071.009-.106.017zm-9.654-2.131a.678.678 0 0 0-.225.344c-3.301 1.275-7.191.3-10.688.59-4.083-.513-9.039 1.19-12.772-1.186-3.358-2.728-2.515-9.145 2.222-9.721.214-.026.863-.189.847-.507-.065-2.089 1.948-3.921 3.985-2.79 2.742-.248 2.779-6.225 9.386-4.963 3.65.729 6.073 4.071 6.361 7.63 3.939 1.823 4.975 7.626 1.459 10.41a.961.961 0 0 0-.574.194zM9.749 38.728a4.78 4.78 0 0 0-1.025-.225V21.486c1.16-.159 2.201-.808 2.928-1.675l8.256 4.886a3.505 3.505 0 0 0-.449 1.593c-5.181.831-7.177 8.242-2.475 11.017l-5.107 3.022a4.424 4.424 0 0 0-2.128-1.602zM50.85 13.735c5.119-1.642 6.051 7.495.628 6.643-3.2-.583-3.734-5.516-.628-6.643zm-4.807.74 1.6.872c-.529 1.127-.475 2.537.077 3.64l-6.372 3.767c-1.682-4.046-6.525-5.992-10.623-4.687v-8.72a5.05 5.05 0 0 0 2.9-1.636l12.418 6.765zM27.19 3.073c2.225-3.978 7.776.217 5.647 3.767-2.125 4.182-7.909-.182-5.647-3.767zm-2.153 5.048 1.019-.555c.749 1.075 1.945 1.697 3.219 1.831v9.236a9.258 9.258 0 0 0-4.15 3.923c-1.572-.323-3.369.157-4.515 1.245l-8.352-4.942c.612-1.152.615-2.632.041-3.799l12.737-6.938zM5.521 19.149c-3.544-5.029 5.276-8.292 5.743-2.104.146 3.07-3.892 4.616-5.743 2.104zm3.632 27.125c-5.118 1.641-6.058-7.513-.633-6.659 3.2.59 3.739 5.526.633 6.659zm4.926-.586-1.762-.96c.589-1.181.523-2.689-.098-3.838l5.423-3.21c3.635 1.351 7.806.409 11.63.664v12.289a5 5 0 0 0-2.959 1.719l-12.234-6.664zm18.728 11.228c-1.629 3.113-6.192 1.207-6.079-1.993.126-6.053 8.803-2.908 6.079 1.993zm2.137-5.106-1.04.566c-.75-1.043-1.924-1.652-3.176-1.79V38.34c3.605-.252 7.476.637 10.902-.723l6.16 3.653c-.612 1.033-.681 2.512-.116 3.606L34.945 51.81zM54.54 40.883c3.724 7.07-7.593 7.814-5.506.438a.602.602 0 0 0 .243-.503c1.054-2.241 4.087-1.758 5.262.065z" opacity="1" data-original="#262626"></path></g></svg>