<svg xmlns="http://www.w3.org/2000/svg" version="1.1" xmlns:xlink="http://www.w3.org/1999/xlink" width="512" height="512" x="0" y="0" viewBox="0 0 682.667 682.667" style="enable-background:new 0 0 512 512" xml:space="preserve" class=""><g><defs><clipPath id="a" clipPathUnits="userSpaceOnUse"><path d="M0 512h512V0H0Z" fill="#000000" opacity="1" data-original="#000000"></path></clipPath></defs><g clip-path="url(#a)" transform="matrix(1.33333 0 0 -1.33333 0 682.667)"><path d="M0 0c0-13.527-10.965-24.493-24.492-24.493-13.527 0-24.493 10.966-24.493 24.493 0 13.526 10.966 24.492 24.493 24.492S0 13.526 0 0" style="fill-opacity:1;fill-rule:nonzero;stroke:none" transform="translate(356.967 444.57)" fill="#f7b594" data-original="#f7b594" class=""></path><path d="M0 0c0 7.781 3.632 14.709 9.29 19.195a24.376 24.376 0 0 1-15.203 5.297c-13.526 0-24.492-10.966-24.492-24.492 0-13.527 10.966-24.493 24.492-24.493A24.376 24.376 0 0 1 9.29-19.196C3.632-14.71 0-7.781 0 0" style="fill-opacity:1;fill-rule:nonzero;stroke:none" transform="translate(338.387 444.57)" fill="#f0a479" data-original="#f0a479" class=""></path><path d="M0 0c0-13.527-10.966-24.493-24.493-24.493S-48.985-13.527-48.985 0c0 13.526 10.965 24.492 24.492 24.492C-10.966 24.492 0 13.526 0 0" style="fill-opacity:1;fill-rule:nonzero;stroke:none" transform="translate(203.544 444.57)" fill="#f7b594" data-original="#f7b594" class=""></path><path d="M0 0c0 7.781 3.633 14.709 9.29 19.195a24.374 24.374 0 0 1-15.203 5.297c-13.526 0-24.492-10.966-24.492-24.492 0-13.527 10.966-24.493 24.492-24.493A24.374 24.374 0 0 1 9.29-19.196C3.633-14.71 0-7.781 0 0" style="fill-opacity:1;fill-rule:nonzero;stroke:none" transform="translate(184.964 444.57)" fill="#f0a479" data-original="#f0a479" class=""></path><path d="M0 0c-10.652 0-22.372-3.973-29.776-10.508a52.021 52.021 0 0 0 3.207-18.037v-49.416a6.969 6.969 0 0 0-6.969-6.969h69.927a5.613 5.613 0 0 1 5.614 5.614v37.313C42.003-18.805 23.197 0 0 0" style="fill-opacity:1;fill-rule:nonzero;stroke:none" transform="translate(332.475 420.077)" fill="#00aaf0" data-original="#00aaf0"></path><path d="M0 0h38.301c.432 2.259.668 4.586.668 6.969v49.416a81.761 81.761 0 0 1-5.12 28.537c-.105.001-.207.008-.311.008-10.653 0-22.372-3.973-29.776-10.508a52.044 52.044 0 0 0 3.207-18.037V6.969A6.969 6.969 0 0 0 0 0" style="fill-opacity:1;fill-rule:nonzero;stroke:none" transform="translate(298.937 335.147)" fill="#059adb" data-original="#059adb"></path><path d="M0 0v49.416a52.021 52.021 0 0 0 3.207 18.037c-7.404 6.535-19.124 10.508-29.776 10.508-23.197 0-42.003-18.805-42.003-42.003V-1.355a5.613 5.613 0 0 1 5.614-5.614H6.969A6.969 6.969 0 0 0 0 0" style="fill-opacity:1;fill-rule:nonzero;stroke:none" transform="translate(205.62 342.116)" fill="#ffc850" data-original="#ffc850"></path><path d="M0 0v37.313c0 18.084 11.429 33.496 27.456 39.414-5.002 1.669-10.348 2.589-15.453 2.589C-11.194 79.316-30 60.512-30 37.313V0a5.613 5.613 0 0 1 5.614-5.613h30A5.613 5.613 0 0 0 0 0" style="fill-opacity:1;fill-rule:nonzero;stroke:none" transform="translate(167.049 340.76)" fill="#feb644" data-original="#feb644"></path><path d="M0 0c0-16.792-13.613-30.405-30.405-30.405S-60.81-16.792-60.81 0s13.613 30.405 30.405 30.405S0 16.792 0 0" style="fill-opacity:1;fill-rule:nonzero;stroke:none" transform="translate(286.168 474.08)" fill="#f7b594" data-original="#f7b594" class=""></path><path d="M0 0c0 11.253 6.117 21.069 15.203 26.327A30.254 30.254 0 0 1 0 30.405c-16.792 0-30.405-13.613-30.405-30.405S-16.792-30.405 0-30.405c5.54 0 10.729 1.489 15.203 4.078C6.117-21.069 0-11.252 0 0" style="fill-opacity:1;fill-rule:nonzero;stroke:none" transform="translate(255.763 474.08)" fill="#f0a479" data-original="#f0a479" class=""></path><path d="M0 0c-28.798 0-52.143-23.345-52.143-52.142v-49.416a6.97 6.97 0 0 1 6.969-6.968h90.348a6.97 6.97 0 0 1 6.969 6.968v49.416C52.143-23.345 28.797 0 0 0" style="fill-opacity:1;fill-rule:nonzero;stroke:none" transform="translate(255.763 443.674)" fill="#d665d3" data-original="#d665d3"></path><path d="M0 0v49.416c0 23.581 15.659 43.497 37.143 49.941a52.137 52.137 0 0 1-15 2.201C-6.655 101.558-30 78.213-30 49.416V0a6.969 6.969 0 0 1 6.969-6.969h30A6.969 6.969 0 0 0 0 0" style="fill-opacity:1;fill-rule:nonzero;stroke:none" transform="translate(233.62 342.116)" fill="#c64ac6" data-original="#c64ac6"></path><path d="M0 0a13.181 13.181 0 0 0 .575-7.097L6.523-.538c2.265 2.497 3.512 5.695 3.512 9.005v74.262c0 4.533 1.344 8.763 3.666 12.35-6.454 5.691-15.89 7.856-24.725 4.848-12.721-4.331-19.373-17.736-14.859-29.94z" style="fill-opacity:1;fill-rule:nonzero;stroke:none" transform="translate(431.65 306.469)" fill="#f0a479" data-original="#f0a479" class=""></path><path d="M0 0c-3.951 10.685.655 22.288 10.398 27.918a25.277 25.277 0 0 1-20.789 2.021C-23.111 25.608-29.763 12.204-25.25 0L.634-69.987a13.192 13.192 0 0 0 .575-7.097l5.948 6.559c2.264 2.497 3.511 5.695 3.511 9.004v32.674z" style="fill-opacity:1;fill-rule:nonzero;stroke:none" transform="translate(431.016 376.456)" fill="#e5966e" data-original="#e5966e"></path><path d="m0 0 55.206 75.952a74.783 74.783 0 0 1 14.856 44.736v70.53c0 13.145-10.759 24.22-23.902 23.971-12.741-.241-22.995-10.645-22.995-23.444v-74.262a13.71 13.71 0 0 0-3.369-9.003L-7.041 77.636c-.626-.721-1.813-.069-1.514.839 3.062 9.307.66 19.955-6.998 27.027-10.196 9.415-26.771 8.582-36.42-1.393l-72.925-75.389a45.951 45.951 0 0 1-12.924-31.949v-73.22h110.479C-25.318-49.648-15.887-21.856 0 0" style="fill-opacity:1;fill-rule:nonzero;stroke:none" transform="translate(417.006 197.452)" fill="#f7b594" data-original="#f7b594" class=""></path><path d="M0 0v73.22a45.948 45.948 0 0 0 12.924 31.949l72.926 75.39a25.659 25.659 0 0 0 3.986 3.354c-10.246 7.266-25.071 5.862-33.986-3.354l-72.926-75.39A45.948 45.948 0 0 1-30 73.22V0H80.479Z" style="fill-opacity:1;fill-rule:nonzero;stroke:none" transform="translate(309.183 121.003)" fill="#f0a479" data-original="#f0a479" class=""></path><path d="M0 0a13.181 13.181 0 0 1-.575-7.097L-6.523-.538c-2.265 2.497-3.512 5.695-3.512 9.005v74.262c0 4.533-1.344 8.763-3.666 12.35 6.454 5.691 15.89 7.856 24.725 4.848 12.721-4.331 19.373-17.736 14.859-29.94z" style="fill-opacity:1;fill-rule:nonzero;stroke:none" transform="translate(79.877 306.469)" fill="#f0a479" data-original="#f0a479" class=""></path><path d="M0 0c-8.835 3.008-18.271.843-24.725-4.848 2.322-3.587 3.666-7.816 3.666-12.35V-91.46c0-3.31 1.247-6.508 3.511-9.005l5.948-6.558a13.189 13.189 0 0 0 .576 7.096L-.56-71.632v54.434c0 2.579-.435 5.059-1.237 7.38-1.216 3.513.425 7.449 3.82 8.965l.069.031C1.414-.521.718-.244 0 0" style="fill-opacity:1;fill-rule:nonzero;stroke:none" transform="translate(90.901 406.396)" fill="#e5966e" data-original="#e5966e"></path><path d="m0 0-55.206 75.952a74.782 74.782 0 0 0-14.855 44.736v70.53c0 13.145 10.758 24.22 23.901 23.971 12.741-.241 22.995-10.645 22.995-23.444v-74.262a13.71 13.71 0 0 1 3.369-9.003L7.041 77.636c.626-.721 1.813-.069 1.514.839-3.062 9.307-.66 19.955 6.998 27.027 10.196 9.415 26.771 8.582 36.42-1.393l72.925-75.389a45.951 45.951 0 0 0 12.924-31.949v-73.22H27.343C25.318-49.648 15.887-21.856 0 0" style="fill-opacity:1;fill-rule:nonzero;stroke:none" transform="translate(94.52 197.452)" fill="#f7b594" data-original="#f7b594" class=""></path><path d="m0 0-55.206 75.951a74.783 74.783 0 0 0-14.856 44.736v70.53c0 7.325 3.344 14.005 8.576 18.443a23.34 23.34 0 0 1-14.674 5.528c-13.143.25-23.901-10.826-23.901-23.971v-70.53a74.789 74.789 0 0 1 14.855-44.736L-30 0C-14.113-21.857-4.682-49.649-2.657-76.45h30C25.318-49.649 15.886-21.857 0 0" style="fill-opacity:1;fill-rule:nonzero;stroke:none" transform="translate(124.52 197.453)" fill="#f0a479" data-original="#f0a479" class=""></path><path d="M0 0v-67.443c0-5.847-4.74-10.586-10.586-10.586H-144.68c-5.847 0-10.587 4.739-10.587 10.586V0Z" style="fill-opacity:1;fill-rule:nonzero;stroke:none" transform="translate(255.784 85.545)" fill="#00aaf0" data-original="#00aaf0"></path><path d="M0 0v67.443h-30V0c0-5.847 4.74-10.586 10.586-10.586h30C4.739-10.586 0-5.847 0 0" style="fill-opacity:1;fill-rule:nonzero;stroke:none" transform="translate(130.518 18.102)" fill="#059adb" data-original="#059adb"></path><path d="M0 0h134.094c5.846 0 10.586-4.739 10.586-10.586v-28.872H-10.586v28.872C-10.586-4.739-5.847 0 0 0" style="fill-opacity:1;fill-rule:nonzero;stroke:none" transform="translate(111.104 123.003)" fill="#e4eaf8" data-original="#e4eaf8"></path><path d="M0 0h-30c-5.846 0-10.586-4.739-10.586-10.586v-28.872h30v28.872C-10.586-4.739-5.847 0 0 0" style="fill-opacity:1;fill-rule:nonzero;stroke:none" transform="translate(141.103 123.003)" fill="#d8dce5" data-original="#d8dce5"></path><path d="M0 0v-67.443c0-5.847-4.74-10.586-10.586-10.586H-144.68c-5.847 0-10.587 4.739-10.587 10.586V0Z" style="fill-opacity:1;fill-rule:nonzero;stroke:none" transform="translate(411.009 85.545)" fill="#00aaf0" data-original="#00aaf0"></path><path d="M0 0v67.443h-30V0c0-5.847 4.74-10.586 10.586-10.586h30C4.74-10.586 0-5.847 0 0" style="fill-opacity:1;fill-rule:nonzero;stroke:none" transform="translate(285.742 18.102)" fill="#059adb" data-original="#059adb"></path><path d="M0 0h134.094c5.846 0 10.586-4.739 10.586-10.586v-28.872H-10.586v28.872C-10.586-4.739-5.847 0 0 0" style="fill-opacity:1;fill-rule:nonzero;stroke:none" transform="translate(266.329 123.003)" fill="#e4eaf8" data-original="#e4eaf8"></path><path d="M0 0h-30c-5.847 0-10.586-4.739-10.586-10.586v-28.872h30v28.872C-10.586-4.739-5.847 0 0 0" style="fill-opacity:1;fill-rule:nonzero;stroke:none" transform="translate(296.329 123.003)" fill="#d8dce5" data-original="#d8dce5"></path><path d="M0 0h-134.095c-5.847 0-10.587-4.739-10.587-10.586v-28.872H10.586v28.872C10.586-4.739 5.847 0 0 0Z" style="stroke-width:15;stroke-linecap:round;stroke-linejoin:round;stroke-miterlimit:10;stroke-dasharray:none;stroke-opacity:1" transform="translate(400.682 123.004)" fill="none" stroke="#000000" stroke-width="15" stroke-linecap="round" stroke-linejoin="round" stroke-miterlimit="10" stroke-dasharray="none" stroke-opacity="" data-original="#000000" class=""></path><path d="m0 0 42.512 45.973c9.739 10.532 9.018 26.986-1.605 36.626-10.316 9.361-26.199 8.843-35.885-1.168L-68.27 5.662a45.952 45.952 0 0 1-12.924-31.95v-71.221h110.48a145.244 145.244 0 0 0 27.343 74.45l55.206 75.953a74.785 74.785 0 0 1 14.856 44.736v71.058c0 12.951-10.498 23.45-23.448 23.45-12.95 0-23.449-10.499-23.449-23.45V94.426c0-3.31-1.196-6.508-3.368-9.004l-40.86-46.961" style="stroke-width:15;stroke-linecap:round;stroke-linejoin:round;stroke-miterlimit:10;stroke-dasharray:none;stroke-opacity:1" transform="translate(360.636 220.513)" fill="none" stroke="#000000" stroke-width="15" stroke-linecap="round" stroke-linejoin="round" stroke-miterlimit="10" stroke-dasharray="none" stroke-opacity="" data-original="#000000" class=""></path><path d="M0 0a13.72 13.72 0 0 0 .552-7.097L6.259-.538a13.716 13.716 0 0 1 3.369 9.005v74.262c0 4.534 1.29 8.764 3.518 12.351-6.193 5.691-15.246 7.856-23.724 4.848-12.204-4.331-18.587-17.736-14.256-29.94z" style="stroke-width:15;stroke-linecap:round;stroke-linejoin:round;stroke-miterlimit:10;stroke-dasharray:none;stroke-opacity:1" transform="translate(430.802 306.472)" fill="none" stroke="#000000" stroke-width="15" stroke-linecap="round" stroke-linejoin="round" stroke-miterlimit="10" stroke-dasharray="none" stroke-opacity="" data-original="#000000" class=""></path><path d="M0 0h134.095c5.847 0 10.587-4.739 10.587-10.586v-28.872H-10.586v28.872C-10.586-4.739-5.847 0 0 0Z" style="stroke-width:15;stroke-linecap:round;stroke-linejoin:round;stroke-miterlimit:10;stroke-dasharray:none;stroke-opacity:1" transform="translate(111.318 123.004)" fill="none" stroke="#000000" stroke-width="15" stroke-linecap="round" stroke-linejoin="round" stroke-miterlimit="10" stroke-dasharray="none" stroke-opacity="" data-original="#000000" class=""></path><path d="M0 0v-65.443C0-71.291-4.74-76.03-10.586-76.03h-134.096c-5.846 0-10.586 4.739-10.586 10.587V0z" style="stroke-width:15;stroke-linecap:round;stroke-linejoin:round;stroke-miterlimit:10;stroke-dasharray:none;stroke-opacity:1" transform="translate(256 83.546)" fill="none" stroke="#000000" stroke-width="15" stroke-linecap="round" stroke-linejoin="round" stroke-miterlimit="10" stroke-dasharray="none" stroke-opacity="" data-original="#000000" class=""></path><path d="m0 0-42.512 45.973c-9.739 10.532-9.018 26.986 1.605 36.626 10.316 9.361 26.2 8.843 35.885-1.168L68.271 5.662a45.955 45.955 0 0 0 12.923-31.95v-71.221h-110.48a145.244 145.244 0 0 1-27.343 74.45l-55.206 75.953a74.785 74.785 0 0 0-14.856 44.736v71.058c0 12.951 10.498 23.45 23.448 23.45 12.95 0 23.449-10.499 23.449-23.45V94.426c0-3.31 1.196-6.508 3.368-9.004l40.86-46.961" style="stroke-width:15;stroke-linecap:round;stroke-linejoin:round;stroke-miterlimit:10;stroke-dasharray:none;stroke-opacity:1" transform="translate(151.364 220.513)" fill="none" stroke="#000000" stroke-width="15" stroke-linecap="round" stroke-linejoin="round" stroke-miterlimit="10" stroke-dasharray="none" stroke-opacity="" data-original="#000000" class=""></path><path d="M0 0a13.72 13.72 0 0 1-.552-7.097L-6.259-.538a13.716 13.716 0 0 0-3.369 9.005v74.262c0 4.534-1.29 8.764-3.518 12.351 6.193 5.691 15.246 7.856 23.724 4.848 12.204-4.331 18.587-17.736 14.256-29.94z" style="stroke-width:15;stroke-linecap:round;stroke-linejoin:round;stroke-miterlimit:10;stroke-dasharray:none;stroke-opacity:1" transform="translate(81.198 306.472)" fill="none" stroke="#000000" stroke-width="15" stroke-linecap="round" stroke-linejoin="round" stroke-miterlimit="10" stroke-dasharray="none" stroke-opacity="" data-original="#000000" class=""></path><path d="M0 0c0-16.792-13.613-30.405-30.405-30.405S-60.81-16.792-60.81 0s13.613 30.405 30.405 30.405S0 16.792 0 0Z" style="stroke-width:15;stroke-linecap:round;stroke-linejoin:round;stroke-miterlimit:10;stroke-dasharray:none;stroke-opacity:1" transform="translate(286.405 474.08)" fill="none" stroke="#000000" stroke-width="15" stroke-linecap="round" stroke-linejoin="round" stroke-miterlimit="10" stroke-dasharray="none" stroke-opacity="" data-original="#000000" class=""></path><path d="M0 0c0-13.527-10.965-24.493-24.492-24.493-13.527 0-24.493 10.966-24.493 24.493 0 13.526 10.966 24.492 24.493 24.492S0 13.526 0 0Z" style="stroke-width:15;stroke-linecap:round;stroke-linejoin:round;stroke-miterlimit:10;stroke-dasharray:none;stroke-opacity:1" transform="translate(357.204 444.57)" fill="none" stroke="#000000" stroke-width="15" stroke-linecap="round" stroke-linejoin="round" stroke-miterlimit="10" stroke-dasharray="none" stroke-opacity="" data-original="#000000" class=""></path><path d="M0 0c0-13.527-10.966-24.493-24.493-24.493S-48.985-13.527-48.985 0c0 13.526 10.965 24.492 24.492 24.492C-10.966 24.492 0 13.526 0 0Z" style="stroke-width:15;stroke-linecap:round;stroke-linejoin:round;stroke-miterlimit:10;stroke-dasharray:none;stroke-opacity:1" transform="translate(203.781 444.57)" fill="none" stroke="#000000" stroke-width="15" stroke-linecap="round" stroke-linejoin="round" stroke-miterlimit="10" stroke-dasharray="none" stroke-opacity="" data-original="#000000" class=""></path><path d="M0 0c-10.652 0-20.372-3.973-27.776-10.508a52.021 52.021 0 0 0 3.207-18.037v-49.416a6.969 6.969 0 0 0-6.969-6.969h67.927a5.613 5.613 0 0 1 5.614 5.614v37.313C42.003-18.805 23.198 0 0 0Z" style="stroke-width:15;stroke-linecap:round;stroke-linejoin:round;stroke-miterlimit:10;stroke-dasharray:none;stroke-opacity:1" transform="translate(332.711 420.077)" fill="none" stroke="#000000" stroke-width="15" stroke-linecap="round" stroke-linejoin="round" stroke-miterlimit="10" stroke-dasharray="none" stroke-opacity="" data-original="#000000" class=""></path><path d="M0 0v49.416a52.021 52.021 0 0 0 3.207 18.037c-7.404 6.535-17.124 10.508-27.776 10.508-23.197 0-42.003-18.805-42.003-42.003V-1.355a5.613 5.613 0 0 1 5.614-5.614H6.969A6.969 6.969 0 0 0 0 0Z" style="stroke-width:15;stroke-linecap:round;stroke-linejoin:round;stroke-miterlimit:10;stroke-dasharray:none;stroke-opacity:1" transform="translate(203.857 342.116)" fill="none" stroke="#000000" stroke-width="15" stroke-linecap="round" stroke-linejoin="round" stroke-miterlimit="10" stroke-dasharray="none" stroke-opacity="" data-original="#000000" class=""></path><path d="M0 0h28.48a6.969 6.969 0 0 1 6.969 6.969v49.416c0 28.797-23.345 52.141-52.143 52.141-28.798 0-52.142-23.344-52.142-52.141V6.969A6.969 6.969 0 0 1-61.868 0H-35" style="stroke-width:15;stroke-linecap:round;stroke-linejoin:round;stroke-miterlimit:10;stroke-dasharray:none;stroke-opacity:1" transform="translate(272.694 335.147)" fill="none" stroke="#000000" stroke-width="15" stroke-linecap="round" stroke-linejoin="round" stroke-miterlimit="10" stroke-dasharray="none" stroke-opacity="" data-original="#000000" class=""></path><path d="M0 0v20.515h-155.268V-44.93c0-5.845 4.74-10.586 10.586-10.586h134.096C-4.74-55.516 0-50.775 0-44.93V-35" style="stroke-width:15;stroke-linecap:round;stroke-linejoin:round;stroke-miterlimit:10;stroke-dasharray:none;stroke-opacity:1" transform="translate(411.268 63.031)" fill="none" stroke="#000000" stroke-width="15" stroke-linecap="round" stroke-linejoin="round" stroke-miterlimit="10" stroke-dasharray="none" stroke-opacity="" data-original="#000000" class=""></path></g></g></svg>