<svg xmlns="http://www.w3.org/2000/svg" version="1.1" xmlns:xlink="http://www.w3.org/1999/xlink" width="512" height="512" x="0" y="0" viewBox="0 0 450 450" style="enable-background:new 0 0 512 512" xml:space="preserve" class=""><g><path d="M365.3 328.8c-1.2 0-2.5-.5-3.4-1.4l-17.8-17.8c-1.9-1.9-1.9-4.9 0-6.8s4.9-1.9 6.8 0l17.8 17.8c1.9 1.9 1.9 4.9 0 6.8-.9.9-2.1 1.4-3.4 1.4z" fill="#bb0b0b" opacity="1" data-original="#000000" class=""></path><path d="M422.7 404.7c-6.3 0-12.1-2.4-16.5-6.8L362 353.7c-4.4-4.4-6.8-10.3-6.8-16.5 0-6.3 2.4-12.1 6.8-16.5 9.1-9.1 24-9.1 33.1 0l44.2 44.2c4.4 4.4 6.8 10.3 6.8 16.5 0 6.3-2.4 12.1-6.8 16.5-4.5 4.4-10.3 6.8-16.6 6.8zm-44.2-81.3c-3.5 0-7.1 1.3-9.8 4-5.4 5.4-5.4 14.1 0 19.5l44.2 44.2c5.4 5.4 14.1 5.4 19.5 0 2.6-2.6 4-6.1 4-9.8s-1.4-7.2-4-9.8l-44.2-44.2c-2.6-2.6-6.2-3.9-9.7-3.9zM258 324.6c-27.6 0-53.5-10.7-73-30.3s-30.3-45.4-30.3-73 10.7-53.5 30.3-73 45.4-30.3 73-30.3 53.5 10.7 73 30.3 30.3 45.4 30.3 73-10.7 53.5-30.3 73-45.4 30.3-73 30.3zm0-197c-25 0-48.6 9.7-66.3 27.4s-27.4 41.2-27.4 66.3c0 25 9.7 48.6 27.4 66.3S233 315 258 315s48.6-9.7 66.3-27.4 27.4-41.2 27.4-66.3c0-25-9.7-48.6-27.4-66.3-17.7-17.6-41.3-27.4-66.3-27.4z" fill="#bb0b0b" opacity="1" data-original="#000000" class=""></path><path d="M258 296.5c-19.3 0-38.6-7.3-53.2-22-29.3-29.3-29.3-77.1 0-106.4s77.1-29.3 106.4 0 29.3 77.1 0 106.4c-14.7 14.7-33.9 22-53.2 22zm0-140.8c-16.8 0-33.6 6.4-46.4 19.2-25.6 25.6-25.6 67.3 0 92.9s67.3 25.6 92.9 0 25.6-67.3 0-92.9c-12.9-12.8-29.7-19.2-46.5-19.2zM332.4 320.6c-4.6 0-9.2-1.7-12.7-5.2l-9.5-9.5c-1.9-1.9-1.9-4.9 0-6.8s4.9-1.9 6.8 0l9.5 9.5c3.2 3.2 8.5 3.2 11.7 0L350 297c3.2-3.2 3.2-8.5 0-11.7l-10.5-10.5c-1.9-1.9-1.9-4.9 0-6.8s4.9-1.9 6.8 0l10.5 10.5c7 7 7 18.3 0 25.3l-11.7 11.7c-3.5 3.4-8.1 5.1-12.7 5.1zM82.5 143.5H49.9c-6 0-10.8-4.8-10.8-10.8v-32.6c0-6 4.8-10.8 10.8-10.8h32.6c6 0 10.8 4.8 10.8 10.8v32.6c0 6-4.8 10.8-10.8 10.8zM49.9 99c-.7 0-1.2.5-1.2 1.2v32.6c0 .7.5 1.2 1.2 1.2h32.6c.7 0 1.2-.5 1.2-1.2v-32.6c0-.7-.5-1.2-1.2-1.2zM274.2 108H113.9c-2.7 0-4.8-2.1-4.8-4.8s2.1-4.8 4.8-4.8h160.3c2.7 0 4.8 2.1 4.8 4.8s-2.2 4.8-4.8 4.8zM163.7 134.5h-49.9c-2.7 0-4.8-2.1-4.8-4.8s2.1-4.8 4.8-4.8h49.9c2.7 0 4.8 2.1 4.8 4.8s-2.1 4.8-4.8 4.8zM82.5 216.4H49.9c-6 0-10.8-4.8-10.8-10.8V173c0-6 4.8-10.8 10.8-10.8h32.6c6 0 10.8 4.8 10.8 10.8v32.6c0 6-4.8 10.8-10.8 10.8zm-32.6-44.6c-.7 0-1.2.5-1.2 1.2v32.6c0 .7.5 1.2 1.2 1.2h32.6c.7 0 1.2-.5 1.2-1.2V173c0-.7-.5-1.2-1.2-1.2zM147.8 180.8h-34c-2.7 0-4.8-2.1-4.8-4.8s2.1-4.8 4.8-4.8h34c2.7 0 4.8 2.1 4.8 4.8s-2.1 4.8-4.8 4.8zM142.3 207.4h-28.4c-2.7 0-4.8-2.1-4.8-4.8s2.1-4.8 4.8-4.8h28.4c2.7 0 4.8 2.1 4.8 4.8s-2.2 4.8-4.8 4.8zM82.5 289.3H49.9c-6 0-10.8-4.8-10.8-10.8v-32.6c0-6 4.8-10.8 10.8-10.8h32.6c6 0 10.8 4.8 10.8 10.8v32.6c0 5.9-4.8 10.8-10.8 10.8zm-32.6-44.6c-.7 0-1.2.5-1.2 1.2v32.6c0 .6.5 1.2 1.2 1.2h32.6c.7 0 1.2-.5 1.2-1.2v-32.6c0-.7-.5-1.2-1.2-1.2zM143.6 253.7h-29.7c-2.7 0-4.8-2.1-4.8-4.8s2.1-4.8 4.8-4.8h29.7c2.7 0 4.8 2.1 4.8 4.8s-2.2 4.8-4.8 4.8zM150.9 280.3h-37.1c-2.7 0-4.8-2.1-4.8-4.8s2.1-4.8 4.8-4.8h37.1c2.7 0 4.8 2.1 4.8 4.8s-2.1 4.8-4.8 4.8zM82.5 362.1H49.9c-6 0-10.8-4.8-10.8-10.8v-32.6c0-6 4.8-10.8 10.8-10.8h32.6c6 0 10.8 4.8 10.8 10.8v32.6c0 6-4.8 10.8-10.8 10.8zm-32.6-44.6c-.7 0-1.2.5-1.2 1.2v32.6c0 .7.5 1.2 1.2 1.2h32.6c.7 0 1.2-.5 1.2-1.2v-32.6c0-.6-.5-1.2-1.2-1.2zM188 326.5h-74.1c-2.7 0-4.8-2.1-4.8-4.8s2.1-4.8 4.8-4.8H188c2.7 0 4.8 2.1 4.8 4.8s-2.1 4.8-4.8 4.8zM234.7 353.1H113.9c-2.7 0-4.8-2.1-4.8-4.8s2.1-4.8 4.8-4.8h120.9c2.7 0 4.8 2.1 4.8 4.8s-2.2 4.8-4.9 4.8z" fill="#bb0b0b" opacity="1" data-original="#000000" class=""></path><path d="M286.4 404.7H31.7c-15 0-27.2-11.3-27.2-25.2V72c0-13.9 12.2-25.2 27.2-25.2h254.8c15 0 27.2 11.3 27.2 25.2v65c0 2.7-2.1 4.8-4.8 4.8s-4.8-2.1-4.8-4.8V72c0-8.6-7.9-15.6-17.6-15.6H31.7c-9.7 0-17.6 7-17.6 15.6v307.5c0 8.6 7.9 15.6 17.6 15.6h254.8c9.7 0 17.6-7 17.6-15.6v-73.8c0-2.7 2.1-4.8 4.8-4.8s4.8 2.1 4.8 4.8v73.8c-.1 13.9-12.3 25.2-27.3 25.2z" fill="#bb0b0b" opacity="1" data-original="#000000" class=""></path><path d="M245.5 258.8c-5 0-9.6-1.9-13.1-5.4l-12.9-12.9c-7.2-7.2-7.2-19 0-26.2 3.5-3.5 8.1-5.4 13.1-5.4 4.9 0 9.5 1.9 12.9 5.3l24.9-24.9c3.5-3.5 8.1-5.4 13.1-5.4s9.6 1.9 13.1 5.4 5.4 8.1 5.4 13.1-1.9 9.6-5.4 13.1l-38 38c-3.5 3.4-8.2 5.3-13.1 5.3zm-13-40.3c-2.4 0-4.6.9-6.3 2.6-3.5 3.5-3.5 9.1 0 12.6l12.9 12.9c1.7 1.7 3.9 2.6 6.3 2.6s4.6-.9 6.3-2.6l38-38c1.7-1.7 2.6-3.9 2.6-6.3s-.9-4.6-2.6-6.3-3.9-2.6-6.3-2.6-4.6.9-6.3 2.6l-28.3 28.3c-.9.9-2.1 1.4-3.4 1.4-1.3 0-2.5-.5-3.4-1.4l-3.2-3.2c-1.6-1.7-3.9-2.6-6.3-2.6z" fill="#bb0b0b" opacity="1" data-original="#000000" class=""></path></g></svg>