<svg xmlns="http://www.w3.org/2000/svg" version="1.1" xmlns:xlink="http://www.w3.org/1999/xlink" width="512" height="512" x="0" y="0" viewBox="0 0 512 512" style="enable-background:new 0 0 512 512" xml:space="preserve" class=""><g><g fill-rule="evenodd"><path fill="#0e82f5" d="M11.531 253.399h44.527v157.553h74.944V253.399h44.529l-82-82z" opacity="1" data-original="#0e82f5"></path><path fill="#009ef9" d="M50.741 253.399h44.527v157.553h35.734V253.399h44.529l-62.395-62.395z" opacity="1" data-original="#009ef9"></path><path fill="#41d980" d="M174 129.524h44.528v281.428h74.944V129.524H338l-82-82z" opacity="1" data-original="#41d980"></path><path fill="#4fe88e" d="M213.21 129.524h44.527v281.428h35.735V129.524H338l-62.395-62.395z" opacity="1" data-original="#4fe88e"></path></g><circle cx="256" cy="253.538" r="59.571" fill="#fdc72e" opacity="1" data-original="#fdc72e"></circle><path fill="#fddb1e" fill-rule="evenodd" d="M267.044 194.997c11.386 2.137 22.269 7.608 31.079 16.418 23.264 23.264 23.264 60.982 0 84.246-8.81 8.81-19.693 14.281-31.079 16.418-11.386-2.137-22.27-7.608-31.08-16.418-23.264-23.264-23.264-60.982 0-84.246 8.81-8.81 19.694-14.281 31.08-16.418z" opacity="1" data-original="#fddb1e"></path><path fill="#f89b00" fill-rule="evenodd" d="M262 287.924a6 6 0 1 1-12 0v-3.31c-3.501-.899-6.654-2.561-9.206-4.768-4.178-3.614-6.763-8.663-6.763-14.289a6 6 0 1 1 12 0c0 2.001.991 3.858 2.592 5.242 1.835 1.587 4.44 2.569 7.378 2.569s5.543-.982 7.378-2.569c1.601-1.385 2.591-3.242 2.591-5.242 0-5.493-5.435-6.693-10.744-7.865-9.672-2.135-19.123-4.222-19.123-17.965 0-5.132 2.353-9.733 6.157-13.022 2.167-1.874 4.81-3.314 7.741-4.157v-3.397a6 6 0 1 1 12 0v3.397c2.931.842 5.574 2.283 7.741 4.157 3.804 3.29 6.157 7.89 6.157 13.022a6 6 0 1 1-12 0c0-1.506-.758-2.915-1.984-3.975-1.46-1.263-3.546-2.044-5.913-2.044s-4.453.781-5.913 2.044c-1.226 1.06-1.984 2.469-1.984 3.975 0 4.151 4.795 5.21 9.701 6.293 9.964 2.199 20.166 4.452 20.166 19.537 0 5.627-2.585 10.676-6.763 14.289-2.552 2.207-5.705 3.869-9.206 4.768v3.31z" opacity="1" data-original="#f89b00"></path><path fill="#d93b43" fill-rule="evenodd" d="M338 253.399h44.527v157.553h74.944V253.399H502l-82-82z" opacity="1" data-original="#d93b43"></path><path fill="#fb545c" fill-rule="evenodd" d="M377.21 253.399h44.527v157.553h35.734V253.399H502l-62.395-62.395z" opacity="1" data-original="#fb545c"></path><path fill="#6875b0" d="M10 436.948h492v27.528H10z" opacity="1" data-original="#6875b0"></path><path fill="#7986bf" d="M71.759 436.948h430.24v27.528H71.759z" opacity="1" data-original="#7986bf"></path><path fill="#242222" fill-rule="evenodd" d="M495.998 458.477H16v-15.53h479.998zm5.992-27.526H10a6 6 0 0 0-6 6v27.526c0 3.313 2.692 6 6 6h491.99a5.972 5.972 0 0 0 5.992-6v-27.526c0-3.317-2.643-6-5.992-6zm-81.988-251.066 67.538 67.516h-30.09a6 6 0 0 0-5.992 6v151.552h-62.929V253.401a6 6 0 0 0-5.996-6h-30.042zm-87.543 75.811a5.99 5.99 0 0 0 5.542 3.701h38.531v151.557a6 6 0 0 0 6 6h74.917c3.348 0 6.035-2.687 6.035-6V259.397h38.505c2.423 0 4.626-1.458 5.551-3.701s.44-4.824-1.322-6.538l-81.979-82.001a5.993 5.993 0 0 0-8.481 0l-82.001 82.001a6 6 0 0 0-1.3 6.538zm-54.488 9.86c0 9.049-6.758 16.697-15.97 19.054v3.313a6 6 0 1 1-12 0v-3.313c-9.199-2.357-15.97-10.005-15.97-19.054 0-3.309 2.692-6 6-6s6 2.692 6 6c0 4.234 4.573 7.811 9.97 7.811s9.97-3.577 9.97-7.811c0-4.648-1.608-5.824-10.75-7.842-7.15-1.577-19.12-4.216-19.12-17.988 0-8.04 5.851-14.865 13.9-17.177v-3.397c0-3.313 2.692-6 6-6s6 2.687 6 6v3.397c8.049 2.313 13.9 9.137 13.9 17.177 0 3.317-2.688 6-6 6s-6-2.683-6-6c0-3.26-3.617-6.018-7.899-6.018s-7.899 2.758-7.899 6.018c0 3.348.899 4.326 9.71 6.273 7.542 1.661 20.16 4.45 20.16 19.557zm-21.97-209.548 67.52 67.516H293.47c-3.309 0-6 2.688-6 6v66.472c-9.538-5.234-20.279-8.027-31.469-8.027s-21.927 2.793-31.469 8.027v-66.472c0-3.313-2.692-6-6-6h-30.037l67.507-67.516zm37.879 235.408c20.891-20.887 20.891-54.872 0-75.758-10.119-10.12-23.57-15.688-37.879-15.688s-27.76 5.569-37.879 15.688c-20.883 20.887-20.883 54.872 0 75.758 10.12 10.12 23.57 15.693 37.879 15.693s27.76-5.573 37.879-15.693zm-6.41 113.537h-62.938v-93.87c9.542 5.234 20.288 8.027 31.469 8.027s21.931-2.793 31.469-8.027zM174 135.525a5.994 5.994 0 0 1-5.538-3.705 5.992 5.992 0 0 1 1.3-6.538l82.001-82.002a5.987 5.987 0 0 1 8.476 0l82.001 82.002a5.975 5.975 0 0 1 1.3 6.538 5.978 5.978 0 0 1-5.538 3.705h-38.531v68.939a64.997 64.997 0 0 1 2.899 2.709c25.561 25.566 25.561 67.163 0 92.733a62.602 62.602 0 0 1-2.899 2.705v108.342c0 3.313-2.678 6-6 6h-74.939a6.004 6.004 0 0 1-6.001-6V302.611a75.508 75.508 0 0 1-2.89-2.705c-25.57-25.57-25.57-67.168 0-92.733a75.626 75.626 0 0 1 2.89-2.709v-68.939zm-80.468 44.36 67.52 67.516h-30.051c-3.309 0-6 2.687-6 6v151.552H62.063V253.401c0-3.313-2.692-6-6-6H26.021zm-82.004 79.512h38.531v151.557c0 3.313 2.692 6 6 6h74.939c3.322 0 6-2.687 6-6V259.397h38.531a5.974 5.974 0 0 0 5.538-3.701 5.984 5.984 0 0 0-1.299-6.538L97.78 167.157c-1.132-1.123-2.661-1.758-4.251-1.758s-3.11.634-4.238 1.758L7.29 249.158a5.998 5.998 0 0 0 4.238 10.239z" opacity="1" data-original="#242222"></path></g></svg>