<svg xmlns="http://www.w3.org/2000/svg" version="1.1" xmlns:xlink="http://www.w3.org/1999/xlink" xmlns:svgjs="http://svgjs.com/svgjs" width="512" height="512" x="0" y="0" viewBox="0 0 512 512" style="enable-background:new 0 0 512 512" xml:space="preserve" class=""><g><path d="M440.2 278.71c-7.06-7.06-16.47-10.95-26.51-10.95h-.15c-9.9.04-19.13 3.87-26.05 10.79l-40.1 34.26c.02-.44.02-.88.02-1.32 0-20.61-16.77-37.38-37.38-37.38H204.38c-13.86 0-25.85 4.97-35.65 14.77l-43.71 43.71-9.24-9.24a15.573 15.573 0 0 0-11.08-4.58c-4.2 0-8.13 1.63-11.08 4.58l-28.13 28.13c-6.11 6.11-6.11 16.06 0 22.17l118.77 118.77c2.95 2.95 6.89 4.58 11.09 4.58 4.19 0 8.13-1.63 11.08-4.58l28.13-28.13c6.11-6.11 6.11-16.06 0-22.17l-9.24-9.24 5.92-5.92c6.15-6.15 13.77-9.53 24.71-10.94l83.92-10.87c12.06-1.56 22.02-6.03 31.33-14.06l68.69-59.21.33-.3c14.55-14.58 14.55-38.29-.02-52.87zM226.06 455.8l-28.13 28.13c-.69.69-1.61 1.06-2.6 1.06s-1.91-.38-2.6-1.07L73.96 365.16c-1.41-1.41-1.41-3.79 0-5.2l28.13-28.13c.69-.69 1.61-1.07 2.6-1.07s1.91.38 2.6 1.06L226.06 450.6c1.41 1.41 1.41 3.79 0 5.2zm205.8-132.86L363.35 382c-7.56 6.51-15.28 9.98-25.04 11.25l-83.92 10.87c-13.56 1.76-23.62 6.32-31.66 14.36l-5.92 5.92-83.32-83.32 43.71-43.71c7.57-7.57 16.45-11.25 27.16-11.25h105.67c13.99 0 25.38 11.38 25.38 25.38 0 6.92-2.78 13.2-7.29 17.78l-.09.07c-.23.2-.45.42-.65.64-4.54 4.26-10.65 6.88-17.35 6.88h-75.06c-3.31 0-6 2.69-6 6s2.69 6 6 6h75.06c10.18 0 19.43-4.1 26.18-10.72l59.25-50.62c.13-.11.26-.23.38-.35 4.67-4.74 10.97-7.37 17.73-7.4h.1c6.83 0 13.23 2.64 18.02 7.43 9.87 9.83 9.92 25.82.17 35.73zM297.82 147.43c0-4.09-5.14-6.34-9.46-7.51-11.64-3.16-18.31-10.12-18.31-19.1 0-8.55 5.84-15.8 13.88-18.26v-4.24c0-3.31 2.69-6 6-6s6 2.69 6 6v4.24c8.04 2.46 13.88 9.71 13.88 18.26 0 3.31-2.69 6-6 6s-6-2.69-6-6c0-3.95-3.54-7.16-7.88-7.16s-7.88 3.21-7.88 7.16c0 4.09 5.14 6.34 9.46 7.51 11.64 3.16 18.31 10.12 18.31 19.09 0 8.55-5.84 15.8-13.88 18.26v4.24c0 3.31-2.69 6-6 6s-6-2.69-6-6v-4.24c-8.04-2.46-13.88-9.71-13.88-18.26 0-3.31 2.69-6 6-6s6 2.69 6 6c0 3.95 3.54 7.16 7.89 7.16 4.33 0 7.87-3.21 7.87-7.15zm-7.88 52.2c36.12 0 65.51-29.39 65.51-65.51s-29.39-65.51-65.51-65.51-65.52 29.39-65.52 65.51 29.39 65.51 65.52 65.51zm0-119.02c29.51 0 53.51 24.01 53.51 53.51 0 29.51-24.01 53.51-53.51 53.51s-53.51-24.01-53.51-53.51c-.01-29.51 24-53.51 53.51-53.51zM176.2 160.83h15.47c2.36 8.71 5.86 17.03 10.45 24.83l-11.06 11.06c-1.13 1.12-1.76 2.65-1.76 4.24s.63 3.12 1.76 4.24l28.41 28.41c1.12 1.12 2.65 1.76 4.24 1.76s3.12-.63 4.24-1.76l11.22-11.22a100.43 100.43 0 0 0 24.67 10.16v15.92c0 3.31 2.69 6 6 6h40.18c3.31 0 6-2.69 6-6v-15.92c8.65-2.28 16.91-5.69 24.67-10.16l11.22 11.22c1.12 1.12 2.65 1.76 4.24 1.76s3.12-.63 4.24-1.76l28.41-28.41c2.34-2.34 2.34-6.14 0-8.49l-11.06-11.06c4.59-7.8 8.09-16.12 10.45-24.83h15.47c3.31 0 6-2.69 6-6v-40.18c0-3.31-2.69-6-6-6h-15.14c-2.28-8.87-5.74-17.34-10.32-25.29l10.6-10.6c2.34-2.34 2.34-6.14 0-8.49l-28.4-28.39c-1.12-1.12-2.65-1.76-4.24-1.76s-3.12.63-4.24 1.76L341.48 46.3c-7.99-4.7-16.51-8.26-25.45-10.62V21c0-3.31-2.69-6-6-6h-40.18c-3.31 0-6 2.69-6 6v14.69c-8.94 2.36-17.46 5.92-25.45 10.62l-10.44-10.44c-1.12-1.12-2.65-1.76-4.24-1.76s-3.12.63-4.24 1.76l-28.41 28.41c-2.34 2.34-2.34 6.14 0 8.49l10.6 10.6c-4.58 7.95-8.04 16.42-10.32 25.29H176.2c-3.31 0-6 2.69-6 6v40.18c0 3.3 2.68 5.99 6 5.99zm6-40.18h13.91c2.85 0 5.3-2 5.88-4.79a88.953 88.953 0 0 1 12.31-30.17 5.993 5.993 0 0 0-.81-7.48l-9.69-9.69 19.93-19.93 9.56 9.56a6.008 6.008 0 0 0 7.53.78 89.107 89.107 0 0 1 30.29-12.64 6.003 6.003 0 0 0 4.75-5.87V27h28.18v13.42c0 2.83 1.98 5.28 4.75 5.87a88.941 88.941 0 0 1 30.29 12.64 5.995 5.995 0 0 0 7.53-.78l9.56-9.56 19.93 19.93-9.69 9.69c-2 1.99-2.33 5.11-.81 7.48a88.953 88.953 0 0 1 12.31 30.17 6.005 6.005 0 0 0 5.88 4.79h13.91v28.18h-14.2c-2.82 0-5.25 1.96-5.86 4.71a89.039 89.039 0 0 1-12.52 29.71 5.995 5.995 0 0 0 .78 7.53l10.18 10.18-19.93 19.93-10.31-10.31a6.006 6.006 0 0 0-7.48-.81c-9.1 5.84-19.05 9.94-29.59 12.18a6.003 6.003 0 0 0-4.75 5.87v14.66h-28.18v-14.66c0-2.83-1.98-5.28-4.75-5.87a88.988 88.988 0 0 1-29.59-12.19 5.993 5.993 0 0 0-7.48.81l-10.31 10.31-19.93-19.93 10.18-10.18a6.008 6.008 0 0 0 .78-7.53 88.812 88.812 0 0 1-12.51-29.71 6.002 6.002 0 0 0-5.86-4.71H182.2z" fill="#bb0b0b" data-original="#000000" opacity="1" class=""></path></g></svg>