<svg xmlns="http://www.w3.org/2000/svg" version="1.1" xmlns:xlink="http://www.w3.org/1999/xlink" width="512" height="512" x="0" y="0" viewBox="0 0 682.667 682.667" style="enable-background:new 0 0 512 512" xml:space="preserve" class=""><g><defs><clipPath id="a" clipPathUnits="userSpaceOnUse"><path d="M0 512h512V0H0Z" fill="#000000" opacity="1" data-original="#000000"></path></clipPath></defs><g clip-path="url(#a)" transform="matrix(1.33333 0 0 -1.33333 0 682.667)"><path d="M0 0h-280.006a3 3 0 0 0-3 3v382.969a3 3 0 0 0 3 3H0a3 3 0 0 0 3-3V3a3 3 0 0 0-3-3" style="fill-opacity:1;fill-rule:nonzero;stroke:none" transform="translate(409.16 115.531)" fill="#dbf1d0" data-original="#dbf1d0"></path><path d="M0 0v382.969a3 3 0 0 0 3 3h-33.847a3 3 0 0 1-3-3V0a3 3 0 0 1 3-3H3a3 3 0 0 0-3 3" style="fill-opacity:1;fill-rule:nonzero;stroke:none" transform="translate(160 118.531)" fill="#c1e9af" data-original="#c1e9af"></path><path d="M0 0h-280.006a3 3 0 0 0-3 3v382.969a3 3 0 0 0 3 3H0a3 3 0 0 0 3-3V3a3 3 0 0 0-3-3Z" style="stroke-width:15;stroke-linecap:round;stroke-linejoin:round;stroke-miterlimit:10;stroke-dasharray:none;stroke-opacity:1" transform="translate(409.16 115.531)" fill="none" stroke="#000000" stroke-width="15" stroke-linecap="round" stroke-linejoin="round" stroke-miterlimit="10" stroke-dasharray="none" stroke-opacity="" data-original="#000000"></path><path d="M0 0h-280.007a3 3 0 0 0-3 3v382.969a3 3 0 0 0 3 3H0a3 3 0 0 0 3-3V3a3 3 0 0 0-3-3" style="fill-opacity:1;fill-rule:nonzero;stroke:none" transform="translate(374.839 81.21)" fill="#fff3de" data-original="#fff3de"></path><path d="M0 0v382.969a3 3 0 0 0 3 3h-33.167a3 3 0 0 1-3-3V0a3 3 0 0 1 3-3H3a3 3 0 0 0-3 3" style="fill-opacity:1;fill-rule:nonzero;stroke:none" transform="translate(125 84.21)" fill="#ffe5c2" data-original="#ffe5c2"></path><path d="M0 0v57.179a3 3 0 0 1-3 3h-280.007a3 3 0 0 1-3-3V-325.79a3 3 0 0 1 3-3H-3a3 3 0 0 1 3 3V-35" style="stroke-width:15;stroke-linecap:round;stroke-linejoin:round;stroke-miterlimit:10;stroke-dasharray:none;stroke-opacity:1" transform="translate(377.839 410)" fill="none" stroke="#000000" stroke-width="15" stroke-linecap="round" stroke-linejoin="round" stroke-miterlimit="10" stroke-dasharray="none" stroke-opacity="" data-original="#000000"></path><path d="M0 0h-280.006a3 3 0 0 0-3 3v382.969a3 3 0 0 0 3 3H0a3 3 0 0 0 3-3V3a3 3 0 0 0-3-3" style="fill-opacity:1;fill-rule:nonzero;stroke:none" transform="translate(340.518 46.89)" fill="#dff6fd" data-original="#dff6fd" class=""></path><path d="M0 0v382.969a3 3 0 0 0 3 3h-33.488a3 3 0 0 1-3-3V0a3 3 0 0 1 3-3H3a3 3 0 0 0-3 3" style="fill-opacity:1;fill-rule:nonzero;stroke:none" transform="translate(91 49.89)" fill="#c8effe" data-original="#c8effe"></path><path d="M0 0h189.518a3 3 0 0 1 3 3v382.969a3 3 0 0 1-3 3H-90.488a3 3 0 0 1-3-3V3a3 3 0 0 1 3-3H-35" style="stroke-width:15;stroke-linecap:round;stroke-linejoin:round;stroke-miterlimit:10;stroke-dasharray:none;stroke-opacity:1" transform="translate(151 46.89)" fill="none" stroke="#000000" stroke-width="15" stroke-linecap="round" stroke-linejoin="round" stroke-miterlimit="10" stroke-dasharray="none" stroke-opacity="" data-original="#000000"></path><path d="M0 0h98.971" style="stroke-width:15;stroke-linecap:round;stroke-linejoin:round;stroke-miterlimit:10;stroke-dasharray:none;stroke-opacity:1" transform="translate(151.03 387)" fill="none" stroke="#000000" stroke-width="15" stroke-linecap="round" stroke-linejoin="round" stroke-miterlimit="10" stroke-dasharray="none" stroke-opacity="" data-original="#000000"></path><path d="M0 0h166.971" style="stroke-width:15;stroke-linecap:round;stroke-linejoin:round;stroke-miterlimit:10;stroke-dasharray:none;stroke-opacity:1" transform="translate(117.03 336)" fill="none" stroke="#000000" stroke-width="15" stroke-linecap="round" stroke-linejoin="round" stroke-miterlimit="10" stroke-dasharray="none" stroke-opacity="" data-original="#000000"></path><path d="M0 0h166.971" style="stroke-width:15;stroke-linecap:round;stroke-linejoin:round;stroke-miterlimit:10;stroke-dasharray:none;stroke-opacity:1" transform="translate(117.03 301)" fill="none" stroke="#000000" stroke-width="15" stroke-linecap="round" stroke-linejoin="round" stroke-miterlimit="10" stroke-dasharray="none" stroke-opacity="" data-original="#000000"></path><path d="M0 0h166.971" style="stroke-width:15;stroke-linecap:round;stroke-linejoin:round;stroke-miterlimit:10;stroke-dasharray:none;stroke-opacity:1" transform="translate(117.03 266)" fill="none" stroke="#000000" stroke-width="15" stroke-linecap="round" stroke-linejoin="round" stroke-miterlimit="10" stroke-dasharray="none" stroke-opacity="" data-original="#000000"></path><path d="M0 0h56.971" style="stroke-width:15;stroke-linecap:round;stroke-linejoin:round;stroke-miterlimit:10;stroke-dasharray:none;stroke-opacity:1" transform="translate(117.03 231)" fill="none" stroke="#000000" stroke-width="15" stroke-linecap="round" stroke-linejoin="round" stroke-miterlimit="10" stroke-dasharray="none" stroke-opacity="" data-original="#000000"></path><path d="M0 0h86" style="stroke-width:15;stroke-linecap:round;stroke-linejoin:round;stroke-miterlimit:10;stroke-dasharray:none;stroke-opacity:1" transform="translate(198 231)" fill="none" stroke="#000000" stroke-width="15" stroke-linecap="round" stroke-linejoin="round" stroke-miterlimit="10" stroke-dasharray="none" stroke-opacity="" data-original="#000000"></path><path d="M0 0h166.971" style="stroke-width:15;stroke-linecap:round;stroke-linejoin:round;stroke-miterlimit:10;stroke-dasharray:none;stroke-opacity:1" transform="translate(117.03 196)" fill="none" stroke="#000000" stroke-width="15" stroke-linecap="round" stroke-linejoin="round" stroke-miterlimit="10" stroke-dasharray="none" stroke-opacity="" data-original="#000000"></path><path d="M0 0h166.971" style="stroke-width:15;stroke-linecap:round;stroke-linejoin:round;stroke-miterlimit:10;stroke-dasharray:none;stroke-opacity:1" transform="translate(117.03 161)" fill="none" stroke="#000000" stroke-width="15" stroke-linecap="round" stroke-linejoin="round" stroke-miterlimit="10" stroke-dasharray="none" stroke-opacity="" data-original="#000000"></path><path d="M0 0h166.971" style="stroke-width:15;stroke-linecap:round;stroke-linejoin:round;stroke-miterlimit:10;stroke-dasharray:none;stroke-opacity:1" transform="translate(117.03 126)" fill="none" stroke="#000000" stroke-width="15" stroke-linecap="round" stroke-linejoin="round" stroke-miterlimit="10" stroke-dasharray="none" stroke-opacity="" data-original="#000000"></path><path d="M0 0v-82.901a83.556 83.556 0 0 1 29.361-63.597l74.324-63.339a5.72 5.72 0 0 1 7.421 0l74.324 63.339a83.559 83.559 0 0 1 29.361 63.597V0c0 1.98-1.025 3.82-2.708 4.863L110.408 67.838a5.722 5.722 0 0 1-6.025 0L2.708 4.863A5.72 5.72 0 0 1 0 0" style="fill-opacity:1;fill-rule:nonzero;stroke:none" transform="translate(239.698 218.704)" fill="#fac600" data-original="#fac600"></path><path d="M0 0a83.556 83.556 0 0 0-29.36 63.597v91.336l-27.645-17.123a5.719 5.719 0 0 1-2.708-4.863V50.046a83.554 83.554 0 0 1 29.36-63.596l74.325-63.34a5.72 5.72 0 0 1 7.421 0l19.416 16.547z" style="fill-opacity:1;fill-rule:nonzero;stroke:none" transform="translate(299.411 85.756)" fill="#e8b801" data-original="#e8b801"></path><path d="M0 0v33.704a5.719 5.719 0 0 1-2.708 4.862l-101.675 62.976a5.72 5.72 0 0 1-6.024 0l-101.676-62.976a5.72 5.72 0 0 1-2.708-4.862v-82.901a83.557 83.557 0 0 1 29.361-63.597l74.325-63.34a5.718 5.718 0 0 1 7.419 0l74.326 63.34A83.556 83.556 0 0 1 0-49.197V-35" style="stroke-width:15;stroke-linecap:round;stroke-linejoin:round;stroke-miterlimit:10;stroke-dasharray:none;stroke-opacity:1" transform="translate(454.488 185)" fill="none" stroke="#000000" stroke-width="15" stroke-linecap="round" stroke-linejoin="round" stroke-miterlimit="10" stroke-dasharray="none" stroke-opacity="" data-original="#000000"></path><path d="M0 0c0-33.799-27.4-61.2-61.2-61.2-33.799 0-61.199 27.401-61.199 61.2 0 33.8 27.4 61.2 61.199 61.2C-27.4 61.2 0 33.8 0 0" style="fill-opacity:1;fill-rule:nonzero;stroke:none" transform="translate(408.293 161.27)" fill="#4fc123" data-original="#4fc123"></path><path d="M0 0c0 27.952 18.746 51.509 44.347 58.831A61.23 61.23 0 0 1 27.492 61.2C-6.307 61.2-33.707 33.8-33.707 0c0-33.799 27.4-61.199 61.199-61.199 5.849 0 11.498.837 16.855 2.369C18.746-51.509 0-27.951 0 0" style="fill-opacity:1;fill-rule:nonzero;stroke:none" transform="translate(319.6 161.27)" fill="#47a920" data-original="#47a920"></path><path d="M0 0c0-33.799-27.4-61.2-61.2-61.2-33.799 0-61.199 27.401-61.199 61.2 0 33.8 27.4 61.2 61.199 61.2C-27.4 61.2 0 33.8 0 0Z" style="stroke-width:15;stroke-linecap:round;stroke-linejoin:round;stroke-miterlimit:10;stroke-dasharray:none;stroke-opacity:1" transform="translate(408.293 161.27)" fill="none" stroke="#000000" stroke-width="15" stroke-linecap="round" stroke-linejoin="round" stroke-miterlimit="10" stroke-dasharray="none" stroke-opacity="" data-original="#000000"></path><path d="m0 0 18.098-18.097 28.05 28.051" style="stroke-width:15;stroke-linecap:round;stroke-linejoin:round;stroke-miterlimit:10;stroke-dasharray:none;stroke-opacity:1" transform="translate(326.388 163.368)" fill="none" stroke="#000000" stroke-width="15" stroke-linecap="round" stroke-linejoin="round" stroke-miterlimit="10" stroke-dasharray="none" stroke-opacity="" data-original="#000000"></path></g></g></svg>