<svg xmlns="http://www.w3.org/2000/svg" version="1.1" xmlns:xlink="http://www.w3.org/1999/xlink" width="512" height="512" x="0" y="0" viewBox="0 0 512 512" style="enable-background:new 0 0 512 512" xml:space="preserve" class=""><g><g fill-rule="evenodd" clip-rule="evenodd"><ellipse cx="76.347" cy="244.86" fill="#ffc338" rx="60.346" ry="60.347" transform="rotate(-7.25 77.01 245.329)" opacity="1" data-original="#ffc338" class=""></ellipse><path fill="#f5b829" d="M76.347 184.513c33.328 0 60.346 27.018 60.346 60.346 0 33.329-27.018 60.347-60.346 60.347-1.233 0-2.457-.041-3.671-.115 31.618-1.898 56.676-28.137 56.676-60.232s-25.057-58.334-56.676-60.232a61.985 61.985 0 0 1 3.671-.114z" opacity="1" data-original="#f5b829"></path><ellipse cx="199.346" cy="102.019" fill="#ffc338" rx="60.346" ry="60.347" transform="rotate(-9.25 199.498 102.26)" opacity="1" data-original="#ffc338" class=""></ellipse><path fill="#f5b829" d="M199.346 41.672c33.328 0 60.347 27.018 60.347 60.347s-27.018 60.347-60.347 60.347c-1.233 0-2.456-.041-3.671-.115 31.618-1.898 56.676-28.137 56.676-60.232s-25.057-58.334-56.676-60.232a61.14 61.14 0 0 1 3.671-.115z" opacity="1" data-original="#f5b829"></path><ellipse cx="435.653" cy="102.019" fill="#ffc338" rx="60.346" ry="60.347" transform="rotate(-9.25 436.06 102.405)" opacity="1" data-original="#ffc338" class=""></ellipse><path fill="#f5b829" d="M435.653 41.672c33.328 0 60.346 27.018 60.346 60.347s-27.018 60.347-60.346 60.347c-1.233 0-2.456-.041-3.671-.115 31.618-1.898 56.676-28.137 56.676-60.232s-25.057-58.334-56.676-60.232a61.167 61.167 0 0 1 3.671-.115z" opacity="1" data-original="#f5b829"></path><ellipse cx="317.5" cy="244.86" fill="#ffc338" rx="60.346" ry="60.347" transform="rotate(-9.25 317.692 245.331)" opacity="1" data-original="#ffc338" class=""></ellipse><path fill="#f5b829" d="M317.5 184.513c33.328 0 60.346 27.018 60.346 60.346 0 33.329-27.018 60.347-60.346 60.347-1.233 0-2.457-.041-3.671-.115 31.618-1.898 56.676-28.137 56.676-60.232s-25.057-58.334-56.676-60.232a61.985 61.985 0 0 1 3.671-.114z" opacity="1" data-original="#f5b829"></path><path fill="#ffe177" d="M169.112 460.328V228.322c0-5.508 4.492-10 10-10h40.468c5.508 0 10 4.492 10 10v232.006c0 5.508-4.492 10-10 10h-40.468c-5.507 0-10-4.492-10-10z" opacity="1" data-original="#ffe177"></path><path fill="#ffd064" d="M209.58 218.323h10c5.508 0 10 4.492 10 10v232.006c0 5.508-4.492 10-10 10h-10c5.508 0 10-4.492 10-10V228.322c0-5.507-4.493-9.999-10-9.999z" opacity="1" data-original="#ffd064"></path><path fill="#6cf5c2" d="M287.266 460.328V341.861c0-5.508 4.492-10 10-10h40.468c5.508 0 10 4.492 10 10v118.467c0 5.508-4.492 10-10 10h-40.468c-5.508 0-10-4.492-10-10z" opacity="1" data-original="#6cf5c2"></path><path fill="#00e499" d="M327.733 331.862h10c5.508 0 10 4.492 10 10v118.467c0 5.508-4.492 10-10 10h-10c5.508 0 10-4.492 10-10V341.861c0-5.507-4.492-9.999-10-9.999z" opacity="1" data-original="#00e499"></path><path fill="#8ac9fe" d="M405.42 460.328V228.322c0-5.508 4.492-10 10-10h40.468c5.508 0 10 4.492 10 10v232.006c0 5.508-4.492 10-10 10H415.42c-5.508 0-10-4.492-10-10z" opacity="1" data-original="#8ac9fe"></path><path fill="#60b7ff" d="M445.887 218.323h10c5.508 0 10 4.492 10 10v232.006c0 5.508-4.492 10-10 10h-10c5.508 0 10-4.492 10-10V228.322c0-5.507-4.492-9.999-10-9.999z" opacity="1" data-original="#60b7ff"></path><path fill="#fe646f" d="M50.959 460.328V341.861c0-5.508 4.492-10 10-10h40.468c5.508 0 10 4.492 10 10v118.467c0 5.508-4.492 10-10 10H60.959c-5.508 0-10-4.492-10-10z" opacity="1" data-original="#fe646f"></path><path fill="#fd4755" d="M91.426 331.862h10c5.508 0 10 4.492 10 10v118.467c0 5.508-4.492 10-10 10h-10c5.508 0 10-4.492 10-10V341.861c0-5.507-4.492-9.999-10-9.999z" opacity="1" data-original="#fd4755"></path><path d="M435.661 154.369c-28.872 0-52.35-23.482-52.35-52.35 0-28.863 23.478-52.35 52.35-52.35 28.858 0 52.336 23.487 52.336 52.35 0 28.867-23.477 52.35-52.336 52.35zm0-120.698c-37.693 0-68.353 30.656-68.353 68.348 0 37.688 30.661 68.349 68.353 68.349 37.679 0 68.339-30.661 68.339-68.349.001-37.693-30.66-68.348-68.339-68.348zm26.19 80.779c-1.36-11.141-9.71-18.042-24.853-20.532-9.588-1.581-9.748-4.711-9.8-5.742-.198-4.245 4.462-5.639 5.888-5.968 3.295-.739 9.531-.419 12.031 5.53 1.714 4.081 6.411 5.992 10.473 4.279a7.986 7.986 0 0 0 4.279-10.468c-3.361-8.011-9.541-12.582-16.211-14.521v-1.21c0-4.42-3.587-8.002-7.997-8.002a8.001 8.001 0 0 0-8.002 8.002v1.29c-10.398 3.121-16.931 11.692-16.441 21.84.311 6.382 3.742 17.561 23.191 20.762 10.958 1.798 11.381 5.206 11.551 6.67.169 1.327-.141 1.996-.65 2.589-1.53 1.77-5.281 3.069-9.103 3.158-4.34.099-9.875-1.577-11.137-6.655-1.073-4.284-5.413-6.896-9.701-5.822-4.293 1.068-6.9 5.408-5.832 9.687 2.203 8.835 9.07 15.321 18.121 17.75v1.134a7.997 7.997 0 0 0 8.002 7.997 8 8 0 0 0 7.997-7.997v-.988c5.62-1.332 10.511-4.053 13.753-7.795 3.589-4.148 5.119-9.34 4.441-14.988zm-262.503 39.919c-28.867 0-52.35-23.482-52.35-52.35 0-28.863 23.482-52.35 52.35-52.35 28.863 0 52.341 23.487 52.341 52.35 0 28.867-23.479 52.35-52.341 52.35zm0-120.698C161.66 33.671 131 64.327 131 102.019c0 37.688 30.661 68.349 68.348 68.349 37.684 0 68.344-30.661 68.344-68.349 0-37.693-30.661-68.348-68.344-68.348zm26.194 80.779c-1.351-11.141-9.71-18.042-24.843-20.532-9.597-1.581-9.748-4.711-9.809-5.742-.198-4.245 4.457-5.639 5.888-5.968 3.29-.739 9.541-.419 12.031 5.53a8.003 8.003 0 0 0 14.761-6.189c-3.37-8.011-9.55-12.582-16.22-14.521v-1.21a7.998 7.998 0 0 0-8.002-8.002 7.998 7.998 0 0 0-7.997 8.002v1.29c-10.402 3.121-16.931 11.692-16.441 21.84.311 6.382 3.737 17.561 23.191 20.762 10.967 1.798 11.377 5.206 11.56 6.67.16 1.327-.151 1.996-.664 2.589-1.53 1.77-5.267 3.069-9.098 3.158-4.33.099-9.87-1.577-11.141-6.655-1.069-4.284-5.408-6.896-9.696-5.822-4.293 1.068-6.891 5.408-5.832 9.687 2.208 8.835 9.07 15.321 18.122 17.75v1.134a7.993 7.993 0 0 0 7.997 7.997 7.994 7.994 0 0 0 8.002-7.997v-.988c5.629-1.332 10.52-4.053 13.749-7.795 3.59-4.148 5.129-9.34 4.442-14.988zM317.5 297.209c-28.863 0-52.35-23.478-52.35-52.35 0-28.863 23.487-52.341 52.35-52.341 28.872 0 52.35 23.478 52.35 52.341 0 28.872-23.478 52.35-52.35 52.35zm0-120.69c-37.688 0-68.349 30.661-68.349 68.339 0 37.688 30.661 68.349 68.349 68.349s68.348-30.661 68.348-68.349c.001-37.678-30.66-68.339-68.348-68.339zm26.189 80.77c-1.351-11.141-9.71-18.041-24.838-20.531-9.602-1.572-9.753-4.712-9.8-5.742-.212-4.245 4.448-5.639 5.879-5.968 3.299-.739 9.541-.419 12.04 5.531a7.987 7.987 0 0 0 10.468 4.279c4.071-1.709 5.992-6.397 4.283-10.468-3.361-8.011-9.555-12.582-16.22-14.521v-1.21c0-4.41-3.582-8.002-8.002-8.002s-8.002 3.591-8.002 8.002v1.29c-10.388 3.121-16.926 11.692-16.427 21.84.306 6.392 3.728 17.571 23.186 20.762 10.962 1.798 11.372 5.211 11.551 6.67.16 1.327-.146 2-.659 2.589-1.53 1.77-5.267 3.069-9.089 3.158-4.382.089-9.88-1.577-11.151-6.66-1.068-4.279-5.408-6.886-9.701-5.818-4.278 1.069-6.891 5.408-5.817 9.692 2.198 8.825 9.056 15.316 18.107 17.749v1.13c0 4.42 3.582 7.997 8.002 7.997s8.002-3.577 8.002-7.997v-.993c5.629-1.328 10.515-4.048 13.749-7.79 3.592-4.149 5.131-9.34 4.439-14.989zm-267.341 39.92c-28.867 0-52.345-23.478-52.345-52.35 0-28.863 23.478-52.341 52.345-52.341 28.863 0 52.35 23.478 52.35 52.341 0 28.872-23.488 52.35-52.35 52.35zm0-120.69c-37.688 0-68.349 30.661-68.349 68.339 0 37.688 30.661 68.349 68.349 68.349 37.683 0 68.353-30.661 68.353-68.349 0-37.678-30.67-68.339-68.353-68.339zm26.194 80.77c-1.351-11.141-9.71-18.041-24.843-20.531-9.598-1.572-9.748-4.712-9.8-5.742-.207-4.245 4.453-5.639 5.879-5.968 3.295-.739 9.532-.419 12.031 5.531a8.003 8.003 0 0 0 10.482 4.279 7.999 7.999 0 0 0 4.279-10.468c-3.37-8.011-9.551-12.582-16.22-14.521v-1.21c0-4.41-3.577-8.002-8.002-8.002-4.42 0-7.997 3.591-7.997 8.002v1.29c-10.393 3.121-16.931 11.692-16.441 21.84.311 6.392 3.742 17.571 23.191 20.762 10.972 1.798 11.381 5.211 11.56 6.67.16 1.327-.15 2-.659 2.589-1.535 1.77-5.272 3.069-9.089 3.158-4.392.089-9.884-1.577-11.155-6.66-1.068-4.279-5.408-6.886-9.696-5.818-4.292 1.069-6.891 5.408-5.832 9.692 2.198 8.825 9.07 15.316 18.122 17.749v1.13a7.993 7.993 0 0 0 7.997 7.997 7.994 7.994 0 0 0 8.002-7.997v-.993c5.63-1.328 10.52-4.048 13.754-7.79 3.584-4.149 5.124-9.34 4.437-14.989zm.889 205.037h-44.47V339.858h44.47zm7.997-138.467H50.959c-4.42 0-7.997 3.587-7.997 8.002v138.467a7.997 7.997 0 0 0 7.997 8.002h60.469a7.999 7.999 0 0 0 8.002-8.002V331.861a8 8 0 0 0-8.002-8.002zm346.464 138.467h-44.471V226.318h44.471zm7.997-252.006h-60.47c-4.42 0-8.002 3.591-8.002 7.997v252.011a8.001 8.001 0 0 0 8.002 8.002h60.47a8.002 8.002 0 0 0 8.002-8.002V218.316c0-4.405-3.582-7.996-8.002-7.996zM339.74 462.326h-44.47V339.858h44.471v122.468zm8.002-138.467h-60.474c-4.42 0-7.997 3.587-7.997 8.002v138.467a7.997 7.997 0 0 0 7.997 8.002h60.474c4.406 0 7.997-3.582 7.997-8.002V331.861c0-4.416-3.592-8.002-7.997-8.002zM221.579 462.326h-44.471V226.318h44.471zm8.001-252.006h-60.469c-4.41 0-8.002 3.591-8.002 7.997v252.011c0 4.42 3.591 8.002 8.002 8.002h60.469a8.001 8.001 0 0 0 8.002-8.002V218.316c0-4.405-3.582-7.996-8.002-7.996z" fill="#000000" opacity="1" data-original="#000000" class=""></path></g></g></svg>