<svg xmlns="http://www.w3.org/2000/svg" version="1.1" xmlns:xlink="http://www.w3.org/1999/xlink" xmlns:svgjs="http://svgjs.com/svgjs" width="512" height="512" x="0" y="0" viewBox="0 0 74 74" style="enable-background:new 0 0 512 512" xml:space="preserve" class=""><g><path d="M41.024 72h-8.048a2 2 0 0 1-1.988-1.776l-.443-3.931a29.634 29.634 0 0 1-9.7-4.014l-3.091 2.465a2 2 0 0 1-2.661-.15L9.406 58.9a2 2 0 0 1-.15-2.661l2.465-3.091a29.634 29.634 0 0 1-4.014-9.7l-3.931-.443A2 2 0 0 1 2 41.024v-8.048a2 2 0 0 1 1.776-1.988l3.931-.443a29.634 29.634 0 0 1 4.014-9.7l-2.465-3.087a2 2 0 0 1 .15-2.661L15.1 9.406a2 2 0 0 1 2.661-.15l3.091 2.465a29.634 29.634 0 0 1 9.7-4.014l.443-3.931A2 2 0 0 1 32.976 2h8.048a2 2 0 0 1 1.988 1.776l.443 3.931a29.634 29.634 0 0 1 9.7 4.014l3.091-2.465a2 2 0 0 1 2.661.15l5.687 5.694a2 2 0 0 1 .15 2.661l-2.465 3.091a29.634 29.634 0 0 1 4.014 9.7l3.931.443A2 2 0 0 1 72 32.976v8.048a2 2 0 0 1-1.776 1.988l-3.931.443a29.634 29.634 0 0 1-4.014 9.7l2.465 3.091a2 2 0 0 1-.15 2.661L58.9 64.594a2 2 0 0 1-2.661.15l-3.091-2.465a29.634 29.634 0 0 1-9.7 4.014l-.443 3.931A2 2 0 0 1 41.024 72ZM20.792 60.045a1 1 0 0 1 .56.172 27.7 27.7 0 0 0 10.295 4.261 1 1 0 0 1 .8.87L32.976 70h8.048l.525-4.652a1 1 0 0 1 .8-.87 27.7 27.7 0 0 0 10.3-4.261 1 1 0 0 1 1.184.047l3.657 2.916 5.691-5.691-2.916-3.657a1 1 0 0 1-.047-1.184 27.7 27.7 0 0 0 4.261-10.3 1 1 0 0 1 .87-.8L70 41.024v-8.048l-4.652-.525a1 1 0 0 1-.87-.8 27.7 27.7 0 0 0-4.261-10.295 1 1 0 0 1 .047-1.184l2.916-3.657-5.691-5.695-3.657 2.916a1 1 0 0 1-1.184.047 27.7 27.7 0 0 0-10.3-4.261 1 1 0 0 1-.8-.87L41.024 4h-8.048l-.525 4.652a1 1 0 0 1-.8.87 27.7 27.7 0 0 0-10.295 4.261 1 1 0 0 1-1.184-.047l-3.661-2.916-5.691 5.691 2.916 3.657a1 1 0 0 1 .047 1.184 27.7 27.7 0 0 0-4.261 10.295 1 1 0 0 1-.87.8L4 32.976v8.048l4.652.525a1 1 0 0 1 .87.8 27.7 27.7 0 0 0 4.261 10.3 1 1 0 0 1-.047 1.184l-2.916 3.656 5.691 5.691 3.657-2.916a1 1 0 0 1 .624-.219Z" fill="#bb0b0b" data-original="#000000" opacity="1" class=""></path><path d="M54.871 29.03a1 1 0 0 1-.9-.561 16.353 16.353 0 0 0-1.527-2.515 1 1 0 1 1 1.61-1.188 18.417 18.417 0 0 1 1.714 2.824 1 1 0 0 1-.9 1.44ZM37 58a21.026 21.026 0 0 1-17.167-8.915A20.806 20.806 0 0 1 16 37a21.023 21.023 0 0 1 21-21q.567 0 1.136.031a1 1 0 1 1-.112 2A15.913 15.913 0 0 0 37 18a19.021 19.021 0 0 0-19 19 18.825 18.825 0 0 0 3.466 10.932 18.989 18.989 0 0 0 31.067 0A18.829 18.829 0 0 0 56 37c0-.223 0-.447-.017-.67a1 1 0 1 1 1.994-.16c.022.277.023.553.023.83a20.817 20.817 0 0 1-3.833 12.087A21.029 21.029 0 0 1 37 58ZM48.239 21.46a1 1 0 0 1-.568-.177 18.153 18.153 0 0 0-2.426-1.4 1 1 0 1 1 .871-1.8 20.359 20.359 0 0 1 2.693 1.557 1 1 0 0 1-.57 1.823Z" fill="#bb0b0b" data-original="#000000" opacity="1" class=""></path><path d="M53.351 49.51a1 1 0 0 1-.82-.427 18.962 18.962 0 0 0-31.062 0 1 1 0 1 1-1.638-1.147 20.962 20.962 0 0 1 34.338 0 1 1 0 0 1-.818 1.574Z" fill="#bb0b0b" data-original="#000000" opacity="1" class=""></path><path d="M37 41a7.656 7.656 0 1 1 7.656-7.656A7.665 7.665 0 0 1 37 41Zm0-13.312a5.656 5.656 0 1 0 5.656 5.656A5.662 5.662 0 0 0 37 27.688Z" fill="#bb0b0b" data-original="#000000" opacity="1" class=""></path></g></svg>