<svg xmlns="http://www.w3.org/2000/svg" version="1.1" xmlns:xlink="http://www.w3.org/1999/xlink" xmlns:svgjs="http://svgjs.com/svgjs" width="512" height="512" x="0" y="0" viewBox="0 0 512 512" style="enable-background:new 0 0 512 512" xml:space="preserve" class=""><g><path d="M324.014 429.197h120.244c33.274 0 60.242-26.969 60.242-60.242V67.743c0-33.274-26.969-60.242-60.242-60.242H67.742C34.468 7.5 7.5 34.468 7.5 67.742v301.212c0 33.274 26.968 60.242 60.242 60.242h.241M504.5 120.45h-80.39M389.11 120.45H7.5" style="stroke-width:15;stroke-linecap:round;stroke-linejoin:round;stroke-miterlimit:10;" fill="none" stroke="#bb0b0b" stroke-width="15" stroke-linecap="round" stroke-linejoin="round" stroke-miterlimit="10" data-original="#000000" opacity="1" class=""></path><circle cx="63.977" cy="63.977" r="18.826" style="stroke-width:15;stroke-linecap:round;stroke-linejoin:round;stroke-miterlimit:10;" transform="rotate(-76.714 63.984 63.98)" fill="none" stroke="#bb0b0b" stroke-width="15" stroke-linecap="round" stroke-linejoin="round" stroke-miterlimit="10" data-original="#000000" opacity="1" class=""></circle><circle cx="139.28" cy="63.977" r="18.826" style="stroke-width:15;stroke-linecap:round;stroke-linejoin:round;stroke-miterlimit:10;" transform="rotate(-22.5 139.274 63.975)" fill="none" stroke="#bb0b0b" stroke-width="15" stroke-linecap="round" stroke-linejoin="round" stroke-miterlimit="10" data-original="#000000" opacity="1" class=""></circle><circle cx="222.114" cy="63.977" r="18.826" style="stroke-width:15;stroke-linecap:round;stroke-linejoin:round;stroke-miterlimit:10;" transform="rotate(-45.001 222.114 63.98)" fill="none" stroke="#bb0b0b" stroke-width="15" stroke-linecap="round" stroke-linejoin="round" stroke-miterlimit="10" data-original="#000000" opacity="1" class=""></circle><path d="M448.023 82.803H297.417c-10.402 0-18.826-8.424-18.826-18.826 0-10.4 8.424-18.826 18.826-18.826h150.606c10.402 0 18.826 8.424 18.826 18.826 0 10.401-8.424 18.826-18.826 18.826zM67.98 301.48V194.67c0-20.2 16.37-36.56 36.57-36.56h182.9c20.2 0 36.56 16.36 36.56 36.56v85.5M324.01 378.34v89.59c0 20.2-16.36 36.57-36.56 36.57h-182.9c-20.2 0-36.57-16.37-36.57-36.57V336.48" style="stroke-width:15;stroke-linecap:round;stroke-linejoin:round;stroke-miterlimit:10;" fill="none" stroke="#bb0b0b" stroke-width="15" stroke-linecap="round" stroke-linejoin="round" stroke-miterlimit="10" data-original="#000000" opacity="1" class=""></path><path d="M271.302 233.409H120.696c-8.324 0-15.061-6.747-15.061-15.061 0-8.316 6.747-15.061 15.061-15.061h150.606c8.313 0 15.061 6.747 15.061 15.061-.001 8.3-6.748 15.061-15.061 15.061zM113.165 278.591h173.197M290.127 323.773H113.165M264.494 368.954H113.165M258.058 414.136H113.165M113.165 459.318h90.364M382.13 205.376l9.237-11.888c10.211-13.143 29.127-15.512 42.27-5.311 13.157 10.235 15.486 29.162 5.301 42.27-.156.201-111.188 143.083-110.384 142.052l-14.368 18.494M266.616 354.034l92.412-118.929M258.061 414.136l8.554-60.102 47.571 36.959-56.125 23.143z" style="stroke-width:15;stroke-linecap:round;stroke-linejoin:round;stroke-miterlimit:10;" fill="none" stroke="#bb0b0b" stroke-width="15" stroke-linecap="round" stroke-linejoin="round" stroke-miterlimit="10" data-original="#000000" opacity="1" class=""></path><path d="m406.589 272.075-47.562-36.969 23.103-29.73 47.562 36.959z" style="stroke-width:15;stroke-linecap:round;stroke-linejoin:round;stroke-miterlimit:10;" fill="none" stroke="#bb0b0b" stroke-width="15" stroke-linecap="round" stroke-linejoin="round" stroke-miterlimit="10" data-original="#000000" opacity="1" class=""></path></g></svg>