<svg width="884" height="626" viewBox="0 0 884 626" fill="none" xmlns="http://www.w3.org/2000/svg">
<g clip-path="url(#clip0_186_142)">
<g filter="url(#filter0_d_186_142)">
<path d="M222 151H16C9.37258 151 4 156.373 4 163V369C4 375.627 9.37258 381 16 381H222C228.627 381 234 375.627 234 369V163C234 156.373 228.627 151 222 151Z" fill="white"/>
</g>
<path d="M89.6 295.1V309H87.32V302.92H80.78V309H78.5V295.1H80.78V301.06H87.32V295.1H89.6ZM102.582 297.98V309H100.302V307.7C99.9416 308.153 99.4682 308.513 98.8816 308.78C98.3082 309.033 97.6949 309.16 97.0416 309.16C96.1749 309.16 95.3949 308.98 94.7016 308.62C94.0216 308.26 93.4816 307.727 93.0816 307.02C92.6949 306.313 92.5016 305.46 92.5016 304.46V297.98H94.7616V304.12C94.7616 305.107 95.0082 305.867 95.5016 306.4C95.9949 306.92 96.6682 307.18 97.5216 307.18C98.3749 307.18 99.0482 306.92 99.5416 306.4C100.048 305.867 100.302 305.107 100.302 304.12V297.98H102.582ZM118.93 297.8C119.797 297.8 120.57 297.98 121.25 298.34C121.943 298.7 122.483 299.233 122.87 299.94C123.27 300.647 123.47 301.5 123.47 302.5V309H121.21V302.84C121.21 301.853 120.963 301.1 120.47 300.58C119.977 300.047 119.303 299.78 118.45 299.78C117.597 299.78 116.917 300.047 116.41 300.58C115.917 301.1 115.67 301.853 115.67 302.84V309H113.41V302.84C113.41 301.853 113.163 301.1 112.67 300.58C112.177 300.047 111.503 299.78 110.65 299.78C109.797 299.78 109.117 300.047 108.61 300.58C108.117 301.1 107.87 301.853 107.87 302.84V309H105.59V297.98H107.87V299.24C108.243 298.787 108.717 298.433 109.29 298.18C109.863 297.927 110.477 297.8 111.13 297.8C112.01 297.8 112.797 297.987 113.49 298.36C114.183 298.733 114.717 299.273 115.09 299.98C115.423 299.313 115.943 298.787 116.65 298.4C117.357 298 118.117 297.8 118.93 297.8ZM127.531 296.52C127.118 296.52 126.771 296.38 126.491 296.1C126.211 295.82 126.071 295.473 126.071 295.06C126.071 294.647 126.211 294.3 126.491 294.02C126.771 293.74 127.118 293.6 127.531 293.6C127.931 293.6 128.271 293.74 128.551 294.02C128.831 294.3 128.971 294.647 128.971 295.06C128.971 295.473 128.831 295.82 128.551 296.1C128.271 296.38 127.931 296.52 127.531 296.52ZM128.651 297.98V309H126.371V297.98H128.651ZM133.925 294.2V309H131.645V294.2H133.925ZM138.078 296.52C137.665 296.52 137.318 296.38 137.038 296.1C136.758 295.82 136.618 295.473 136.618 295.06C136.618 294.647 136.758 294.3 137.038 294.02C137.318 293.74 137.665 293.6 138.078 293.6C138.478 293.6 138.818 293.74 139.098 294.02C139.378 294.3 139.518 294.647 139.518 295.06C139.518 295.473 139.378 295.82 139.098 296.1C138.818 296.38 138.478 296.52 138.078 296.52ZM139.198 297.98V309H136.918V297.98H139.198ZM144.851 299.84V305.94C144.851 306.353 144.945 306.653 145.131 306.84C145.331 307.013 145.665 307.1 146.131 307.1H147.531V309H145.731C144.705 309 143.918 308.76 143.371 308.28C142.825 307.8 142.551 307.02 142.551 305.94V299.84H141.251V297.98H142.551V295.24H144.851V297.98H147.531V299.84H144.851ZM159.553 297.98L152.793 314.18H150.433L152.673 308.82L148.333 297.98H150.873L153.973 306.38L157.193 297.98H159.553Z" fill="black"/>
<path fill-rule="evenodd" clip-rule="evenodd" d="M81.6875 240.889C83.9867 248.336 88.4352 250.336 93.4335 250.536C94.883 246.987 96.5824 243.538 98.7817 240.639C101.981 236.44 105.829 233.891 110.378 232.642C107.929 231.042 106.029 228.743 104.88 226.044C97.882 221.995 89.4848 222.495 87.2856 209.25C80.088 216.997 85.0363 226.394 88.5352 229.643C86.6358 229.893 81.7375 227.193 81.0377 225.344C80.6378 232.642 83.4369 238.39 88.5851 241.889C87.0357 242.338 83.5369 242.238 81.6875 240.889ZM119.675 259.982V248.136H120.074C121.974 248.136 122.824 250.486 122.824 252.085C122.824 252.585 123.173 253.085 123.673 253.235L132.82 256.584C133.82 257.033 134.869 256.034 134.47 254.984L132.07 249.036C131.82 248.386 131.071 248.086 130.421 248.336C129.771 248.586 129.471 249.336 129.721 249.986L131.071 253.335L125.273 251.235C124.973 248.486 123.123 245.687 120.074 245.687H116.776C113.727 245.687 111.877 248.486 111.577 251.235L105.779 253.335L107.129 249.986C107.379 249.336 107.029 248.636 106.429 248.386C105.779 248.136 105.08 248.436 104.83 249.086L102.43 255.034C102.031 256.034 103.03 257.033 104.03 256.683L113.177 253.335C113.727 253.185 114.076 252.685 114.076 252.135C114.076 250.536 114.876 248.186 116.826 248.186H117.225V260.032L98.2319 266.53C94.2832 267.98 90.8844 263.981 92.3839 260.182C97.7821 246.937 100.731 234.191 118.475 234.191C136.219 234.191 139.168 246.887 144.566 260.182C146.066 263.981 142.617 267.93 138.718 266.53L119.675 259.982ZM118.475 208C125.273 208 130.771 213.498 130.771 220.296C130.771 227.094 125.273 232.592 118.475 232.592C111.677 232.592 106.179 227.094 106.179 220.296C106.179 213.498 111.677 208 118.475 208ZM103.03 267.48V272.028C103.03 272.878 103.73 273.578 104.58 273.578H132.37C133.22 273.578 133.92 272.878 133.92 272.028V267.48L118.475 262.182L103.03 267.48ZM143.517 250.586C148.465 250.386 152.963 248.386 155.263 240.939C153.463 242.238 149.914 242.338 148.415 241.938C153.563 238.39 156.362 232.692 155.962 225.394C155.263 227.243 150.364 229.943 148.465 229.693C151.964 226.444 156.912 217.047 149.714 209.3C147.515 222.545 139.168 222.045 132.12 226.094C130.971 228.793 129.071 231.092 126.622 232.692C131.171 233.941 135.019 236.49 138.218 240.689C140.368 243.588 142.017 247.037 143.517 250.586Z" fill="#BB0B0B"/>
<g filter="url(#filter1_d_186_142)">
<path d="M545 11H339C332.373 11 327 16.3726 327 23V229C327 235.627 332.373 241 339 241H545C551.627 241 557 235.627 557 229V23C557 16.3726 551.627 11 545 11Z" fill="white"/>
</g>
<g filter="url(#filter2_d_186_142)">
<path d="M868 0H662C655.373 0 650 5.37258 650 12V218C650 224.627 655.373 230 662 230H868C874.627 230 880 224.627 880 218V12C880 5.37258 874.627 0 868 0Z" fill="white"/>
</g>
<g filter="url(#filter3_d_186_142)">
<path d="M844 388H638C631.373 388 626 393.373 626 400V606C626 612.627 631.373 618 638 618H844C850.627 618 856 612.627 856 606V400C856 393.373 850.627 388 844 388Z" fill="white"/>
</g>
<path d="M646.74 544.02C646.74 542.66 647.053 541.44 647.68 540.36C648.32 539.28 649.18 538.44 650.26 537.84C651.353 537.227 652.547 536.92 653.84 536.92C655.32 536.92 656.633 537.287 657.78 538.02C658.94 538.74 659.78 539.767 660.3 541.1H657.56C657.2 540.367 656.7 539.82 656.06 539.46C655.42 539.1 654.68 538.92 653.84 538.92C652.92 538.92 652.1 539.127 651.38 539.54C650.66 539.953 650.093 540.547 649.68 541.32C649.28 542.093 649.08 542.993 649.08 544.02C649.08 545.047 649.28 545.947 649.68 546.72C650.093 547.493 650.66 548.093 651.38 548.52C652.1 548.933 652.92 549.14 653.84 549.14C654.68 549.14 655.42 548.96 656.06 548.6C656.7 548.24 657.2 547.693 657.56 546.96H660.3C659.78 548.293 658.94 549.32 657.78 550.04C656.633 550.76 655.32 551.12 653.84 551.12C652.533 551.12 651.34 550.82 650.26 550.22C649.18 549.607 648.32 548.76 647.68 547.68C647.053 546.6 646.74 545.38 646.74 544.02ZM672.949 539.98V551H670.669V549.7C670.309 550.153 669.835 550.513 669.249 550.78C668.675 551.033 668.062 551.16 667.409 551.16C666.542 551.16 665.762 550.98 665.069 550.62C664.389 550.26 663.849 549.727 663.449 549.02C663.062 548.313 662.869 547.46 662.869 546.46V539.98H665.129V546.12C665.129 547.107 665.375 547.867 665.869 548.4C666.362 548.92 667.035 549.18 667.889 549.18C668.742 549.18 669.415 548.92 669.909 548.4C670.415 547.867 670.669 547.107 670.669 546.12V539.98H672.949ZM679.957 551.18C679.09 551.18 678.31 551.027 677.617 550.72C676.937 550.4 676.397 549.973 675.997 549.44C675.597 548.893 675.384 548.287 675.357 547.62H677.717C677.757 548.087 677.977 548.48 678.377 548.8C678.79 549.107 679.304 549.26 679.917 549.26C680.557 549.26 681.05 549.14 681.397 548.9C681.757 548.647 681.937 548.327 681.937 547.94C681.937 547.527 681.737 547.22 681.337 547.02C680.95 546.82 680.33 546.6 679.477 546.36C678.65 546.133 677.977 545.913 677.457 545.7C676.937 545.487 676.484 545.16 676.097 544.72C675.724 544.28 675.537 543.7 675.537 542.98C675.537 542.393 675.71 541.86 676.057 541.38C676.404 540.887 676.897 540.5 677.537 540.22C678.19 539.94 678.937 539.8 679.777 539.8C681.03 539.8 682.037 540.12 682.797 540.76C683.57 541.387 683.984 542.247 684.037 543.34H681.757C681.717 542.847 681.517 542.453 681.157 542.16C680.797 541.867 680.31 541.72 679.697 541.72C679.097 541.72 678.637 541.833 678.317 542.06C677.997 542.287 677.837 542.587 677.837 542.96C677.837 543.253 677.944 543.5 678.157 543.7C678.37 543.9 678.63 544.06 678.937 544.18C679.244 544.287 679.697 544.427 680.297 544.6C681.097 544.813 681.75 545.033 682.257 545.26C682.777 545.473 683.224 545.793 683.597 546.22C683.97 546.647 684.164 547.213 684.177 547.92C684.177 548.547 684.004 549.107 683.657 549.6C683.31 550.093 682.817 550.48 682.177 550.76C681.55 551.04 680.81 551.18 679.957 551.18ZM689.301 541.84V547.94C689.301 548.353 689.394 548.653 689.581 548.84C689.781 549.013 690.114 549.1 690.581 549.1H691.981V551H690.181C689.154 551 688.367 550.76 687.821 550.28C687.274 549.8 687.001 549.02 687.001 547.94V541.84H685.701V539.98H687.001V537.24H689.301V539.98H691.981V541.84H689.301ZM698.862 551.18C697.822 551.18 696.882 550.947 696.042 550.48C695.202 550 694.542 549.333 694.062 548.48C693.582 547.613 693.342 546.613 693.342 545.48C693.342 544.36 693.589 543.367 694.082 542.5C694.575 541.633 695.249 540.967 696.102 540.5C696.955 540.033 697.909 539.8 698.962 539.8C700.015 539.8 700.969 540.033 701.822 540.5C702.675 540.967 703.349 541.633 703.842 542.5C704.335 543.367 704.582 544.36 704.582 545.48C704.582 546.6 704.329 547.593 703.822 548.46C703.315 549.327 702.622 550 701.742 550.48C700.875 550.947 699.915 551.18 698.862 551.18ZM698.862 549.2C699.449 549.2 699.995 549.06 700.502 548.78C701.022 548.5 701.442 548.08 701.762 547.52C702.082 546.96 702.242 546.28 702.242 545.48C702.242 544.68 702.089 544.007 701.782 543.46C701.475 542.9 701.069 542.48 700.562 542.2C700.055 541.92 699.509 541.78 698.922 541.78C698.335 541.78 697.789 541.92 697.282 542.2C696.789 542.48 696.395 542.9 696.102 543.46C695.809 544.007 695.662 544.68 695.662 545.48C695.662 546.667 695.962 547.587 696.562 548.24C697.175 548.88 697.942 549.2 698.862 549.2ZM720.176 539.8C721.043 539.8 721.816 539.98 722.496 540.34C723.189 540.7 723.729 541.233 724.116 541.94C724.516 542.647 724.716 543.5 724.716 544.5V551H722.456V544.84C722.456 543.853 722.209 543.1 721.716 542.58C721.223 542.047 720.549 541.78 719.696 541.78C718.843 541.78 718.163 542.047 717.656 542.58C717.163 543.1 716.916 543.853 716.916 544.84V551H714.656V544.84C714.656 543.853 714.409 543.1 713.916 542.58C713.423 542.047 712.749 541.78 711.896 541.78C711.043 541.78 710.363 542.047 709.856 542.58C709.363 543.1 709.116 543.853 709.116 544.84V551H706.836V539.98H709.116V541.24C709.489 540.787 709.963 540.433 710.536 540.18C711.109 539.927 711.723 539.8 712.376 539.8C713.256 539.8 714.043 539.987 714.736 540.36C715.429 540.733 715.963 541.273 716.336 541.98C716.669 541.313 717.189 540.787 717.896 540.4C718.603 540 719.363 539.8 720.176 539.8ZM737.717 545.22C737.717 545.633 737.691 546.007 737.637 546.34H729.217C729.284 547.22 729.611 547.927 730.197 548.46C730.784 548.993 731.504 549.26 732.357 549.26C733.584 549.26 734.451 548.747 734.957 547.72H737.417C737.084 548.733 736.477 549.567 735.597 550.22C734.731 550.86 733.651 551.18 732.357 551.18C731.304 551.18 730.357 550.947 729.517 550.48C728.691 550 728.037 549.333 727.557 548.48C727.091 547.613 726.857 546.613 726.857 545.48C726.857 544.347 727.084 543.353 727.537 542.5C728.004 541.633 728.651 540.967 729.477 540.5C730.317 540.033 731.277 539.8 732.357 539.8C733.397 539.8 734.324 540.027 735.137 540.48C735.951 540.933 736.584 541.573 737.037 542.4C737.491 543.213 737.717 544.153 737.717 545.22ZM735.337 544.5C735.324 543.66 735.024 542.987 734.437 542.48C733.851 541.973 733.124 541.72 732.257 541.72C731.471 541.72 730.797 541.973 730.237 542.48C729.677 542.973 729.344 543.647 729.237 544.5H735.337ZM742.241 541.58C742.574 541.02 743.014 540.587 743.561 540.28C744.121 539.96 744.781 539.8 745.541 539.8V542.16H744.961C744.068 542.16 743.388 542.387 742.921 542.84C742.468 543.293 742.241 544.08 742.241 545.2V551H739.961V539.98H742.241V541.58ZM757.412 551.14C756.479 551.14 755.639 550.98 754.892 550.66C754.145 550.327 753.559 549.86 753.132 549.26C752.705 548.66 752.492 547.96 752.492 547.16H754.932C754.985 547.76 755.219 548.253 755.632 548.64C756.059 549.027 756.652 549.22 757.412 549.22C758.199 549.22 758.812 549.033 759.252 548.66C759.692 548.273 759.912 547.78 759.912 547.18C759.912 546.713 759.772 546.333 759.492 546.04C759.225 545.747 758.885 545.52 758.472 545.36C758.072 545.2 757.512 545.027 756.792 544.84C755.885 544.6 755.145 544.36 754.572 544.12C754.012 543.867 753.532 543.48 753.132 542.96C752.732 542.44 752.532 541.747 752.532 540.88C752.532 540.08 752.732 539.38 753.132 538.78C753.532 538.18 754.092 537.72 754.812 537.4C755.532 537.08 756.365 536.92 757.312 536.92C758.659 536.92 759.759 537.26 760.612 537.94C761.479 538.607 761.959 539.527 762.052 540.7H759.532C759.492 540.193 759.252 539.76 758.812 539.4C758.372 539.04 757.792 538.86 757.072 538.86C756.419 538.86 755.885 539.027 755.472 539.36C755.059 539.693 754.852 540.173 754.852 540.8C754.852 541.227 754.979 541.58 755.232 541.86C755.499 542.127 755.832 542.34 756.232 542.5C756.632 542.66 757.179 542.833 757.872 543.02C758.792 543.273 759.539 543.527 760.112 543.78C760.699 544.033 761.192 544.427 761.592 544.96C762.005 545.48 762.212 546.18 762.212 547.06C762.212 547.767 762.019 548.433 761.632 549.06C761.259 549.687 760.705 550.193 759.972 550.58C759.252 550.953 758.399 551.14 757.412 551.14ZM774.882 539.98V551H772.602V549.7C772.242 550.153 771.769 550.513 771.182 550.78C770.609 551.033 769.996 551.16 769.342 551.16C768.476 551.16 767.696 550.98 767.002 550.62C766.322 550.26 765.782 549.727 765.382 549.02C764.996 548.313 764.802 547.46 764.802 546.46V539.98H767.062V546.12C767.062 547.107 767.309 547.867 767.802 548.4C768.296 548.92 768.969 549.18 769.822 549.18C770.676 549.18 771.349 548.92 771.842 548.4C772.349 547.867 772.602 547.107 772.602 546.12V539.98H774.882ZM777.131 545.48C777.131 544.347 777.357 543.353 777.811 542.5C778.277 541.633 778.917 540.967 779.731 540.5C780.544 540.033 781.477 539.8 782.531 539.8C783.864 539.8 784.964 540.12 785.831 540.76C786.711 541.387 787.304 542.287 787.611 543.46H785.151C784.951 542.913 784.631 542.487 784.191 542.18C783.751 541.873 783.197 541.72 782.531 541.72C781.597 541.72 780.851 542.053 780.291 542.72C779.744 543.373 779.471 544.293 779.471 545.48C779.471 546.667 779.744 547.593 780.291 548.26C780.851 548.927 781.597 549.26 782.531 549.26C783.851 549.26 784.724 548.68 785.151 547.52H787.611C787.291 548.64 786.691 549.533 785.811 550.2C784.931 550.853 783.837 551.18 782.531 551.18C781.477 551.18 780.544 550.947 779.731 550.48C778.917 550 778.277 549.333 777.811 548.48C777.357 547.613 777.131 546.613 777.131 545.48ZM789.123 545.48C789.123 544.347 789.349 543.353 789.803 542.5C790.269 541.633 790.909 540.967 791.723 540.5C792.536 540.033 793.469 539.8 794.523 539.8C795.856 539.8 796.956 540.12 797.823 540.76C798.703 541.387 799.296 542.287 799.603 543.46H797.143C796.943 542.913 796.623 542.487 796.183 542.18C795.743 541.873 795.189 541.72 794.523 541.72C793.589 541.72 792.843 542.053 792.283 542.72C791.736 543.373 791.463 544.293 791.463 545.48C791.463 546.667 791.736 547.593 792.283 548.26C792.843 548.927 793.589 549.26 794.523 549.26C795.843 549.26 796.716 548.68 797.143 547.52H799.603C799.283 548.64 798.683 549.533 797.803 550.2C796.923 550.853 795.829 551.18 794.523 551.18C793.469 551.18 792.536 550.947 791.723 550.48C790.909 550 790.269 549.333 789.803 548.48C789.349 547.613 789.123 546.613 789.123 545.48ZM811.975 545.22C811.975 545.633 811.948 546.007 811.895 546.34H803.475C803.542 547.22 803.868 547.927 804.455 548.46C805.042 548.993 805.762 549.26 806.615 549.26C807.842 549.26 808.708 548.747 809.215 547.72H811.675C811.342 548.733 810.735 549.567 809.855 550.22C808.988 550.86 807.908 551.18 806.615 551.18C805.562 551.18 804.615 550.947 803.775 550.48C802.948 550 802.295 549.333 801.815 548.48C801.348 547.613 801.115 546.613 801.115 545.48C801.115 544.347 801.342 543.353 801.795 542.5C802.262 541.633 802.908 540.967 803.735 540.5C804.575 540.033 805.535 539.8 806.615 539.8C807.655 539.8 808.582 540.027 809.395 540.48C810.208 540.933 810.842 541.573 811.295 542.4C811.748 543.213 811.975 544.153 811.975 545.22ZM809.595 544.5C809.582 543.66 809.282 542.987 808.695 542.48C808.108 541.973 807.382 541.72 806.515 541.72C805.728 541.72 805.055 541.973 804.495 542.48C803.935 542.973 803.602 543.647 803.495 544.5H809.595ZM818.219 551.18C817.352 551.18 816.572 551.027 815.879 550.72C815.199 550.4 814.659 549.973 814.259 549.44C813.859 548.893 813.645 548.287 813.619 547.62H815.979C816.019 548.087 816.239 548.48 816.639 548.8C817.052 549.107 817.565 549.26 818.179 549.26C818.819 549.26 819.312 549.14 819.659 548.9C820.019 548.647 820.199 548.327 820.199 547.94C820.199 547.527 819.999 547.22 819.599 547.02C819.212 546.82 818.592 546.6 817.739 546.36C816.912 546.133 816.239 545.913 815.719 545.7C815.199 545.487 814.745 545.16 814.359 544.72C813.985 544.28 813.799 543.7 813.799 542.98C813.799 542.393 813.972 541.86 814.319 541.38C814.665 540.887 815.159 540.5 815.799 540.22C816.452 539.94 817.199 539.8 818.039 539.8C819.292 539.8 820.299 540.12 821.059 540.76C821.832 541.387 822.245 542.247 822.299 543.34H820.019C819.979 542.847 819.779 542.453 819.419 542.16C819.059 541.867 818.572 541.72 817.959 541.72C817.359 541.72 816.899 541.833 816.579 542.06C816.259 542.287 816.099 542.587 816.099 542.96C816.099 543.253 816.205 543.5 816.419 543.7C816.632 543.9 816.892 544.06 817.199 544.18C817.505 544.287 817.959 544.427 818.559 544.6C819.359 544.813 820.012 545.033 820.519 545.26C821.039 545.473 821.485 545.793 821.859 546.22C822.232 546.647 822.425 547.213 822.439 547.92C822.439 548.547 822.265 549.107 821.919 549.6C821.572 550.093 821.079 550.48 820.439 550.76C819.812 551.04 819.072 551.18 818.219 551.18ZM828.902 551.18C828.036 551.18 827.256 551.027 826.562 550.72C825.882 550.4 825.342 549.973 824.942 549.44C824.542 548.893 824.329 548.287 824.302 547.62H826.662C826.702 548.087 826.922 548.48 827.322 548.8C827.736 549.107 828.249 549.26 828.862 549.26C829.502 549.26 829.996 549.14 830.342 548.9C830.702 548.647 830.882 548.327 830.882 547.94C830.882 547.527 830.682 547.22 830.282 547.02C829.896 546.82 829.276 546.6 828.422 546.36C827.596 546.133 826.922 545.913 826.402 545.7C825.882 545.487 825.429 545.16 825.042 544.72C824.669 544.28 824.482 543.7 824.482 542.98C824.482 542.393 824.656 541.86 825.002 541.38C825.349 540.887 825.842 540.5 826.482 540.22C827.136 539.94 827.882 539.8 828.722 539.8C829.976 539.8 830.982 540.12 831.742 540.76C832.516 541.387 832.929 542.247 832.982 543.34H830.702C830.662 542.847 830.462 542.453 830.102 542.16C829.742 541.867 829.256 541.72 828.642 541.72C828.042 541.72 827.582 541.833 827.262 542.06C826.942 542.287 826.782 542.587 826.782 542.96C826.782 543.253 826.889 543.5 827.102 543.7C827.316 543.9 827.576 544.06 827.882 544.18C828.189 544.287 828.642 544.427 829.242 544.6C830.042 544.813 830.696 545.033 831.202 545.26C831.722 545.473 832.169 545.793 832.542 546.22C832.916 546.647 833.109 547.213 833.122 547.92C833.122 548.547 832.949 549.107 832.602 549.6C832.256 550.093 831.762 550.48 831.122 550.76C830.496 551.04 829.756 551.18 828.902 551.18Z" fill="black"/>
<g filter="url(#filter4_d_186_142)">
<path d="M545 299H339C332.373 299 327 304.373 327 311V517C327 523.627 332.373 529 339 529H545C551.627 529 557 523.627 557 517V311C557 304.373 551.627 299 545 299Z" fill="white"/>
</g>
<path d="M403.78 157.1V171H401.5V157.1H403.78ZM412.333 159.8C413.2 159.8 413.973 159.98 414.653 160.34C415.347 160.7 415.887 161.233 416.273 161.94C416.66 162.647 416.853 163.5 416.853 164.5V171H414.593V164.84C414.593 163.853 414.347 163.1 413.853 162.58C413.36 162.047 412.687 161.78 411.833 161.78C410.98 161.78 410.3 162.047 409.793 162.58C409.3 163.1 409.053 163.853 409.053 164.84V171H406.773V159.98H409.053V161.24C409.427 160.787 409.9 160.433 410.473 160.18C411.06 159.927 411.68 159.8 412.333 159.8ZM422.422 161.84V167.94C422.422 168.353 422.515 168.653 422.702 168.84C422.902 169.013 423.235 169.1 423.702 169.1H425.102V171H423.302C422.275 171 421.488 170.76 420.942 170.28C420.395 169.8 420.122 169.02 420.122 167.94V161.84H418.822V159.98H420.122V157.24H422.422V159.98H425.102V161.84H422.422ZM437.303 165.22C437.303 165.633 437.276 166.007 437.223 166.34H428.803C428.87 167.22 429.196 167.927 429.783 168.46C430.37 168.993 431.09 169.26 431.943 169.26C433.17 169.26 434.036 168.747 434.543 167.72H437.003C436.67 168.733 436.063 169.567 435.183 170.22C434.316 170.86 433.236 171.18 431.943 171.18C430.89 171.18 429.943 170.947 429.103 170.48C428.276 170 427.623 169.333 427.143 168.48C426.676 167.613 426.443 166.613 426.443 165.48C426.443 164.347 426.67 163.353 427.123 162.5C427.59 161.633 428.236 160.967 429.063 160.5C429.903 160.033 430.863 159.8 431.943 159.8C432.983 159.8 433.91 160.027 434.723 160.48C435.536 160.933 436.17 161.573 436.623 162.4C437.076 163.213 437.303 164.153 437.303 165.22ZM434.923 164.5C434.91 163.66 434.61 162.987 434.023 162.48C433.436 161.973 432.71 161.72 431.843 161.72C431.056 161.72 430.383 161.973 429.823 162.48C429.263 162.973 428.93 163.647 428.823 164.5H434.923ZM443.987 159.8C444.84 159.8 445.594 159.973 446.247 160.32C446.914 160.653 447.434 161.073 447.807 161.58V159.98H450.107V171.18C450.107 172.193 449.894 173.093 449.467 173.88C449.04 174.68 448.42 175.307 447.607 175.76C446.807 176.213 445.847 176.44 444.727 176.44C443.234 176.44 441.994 176.087 441.007 175.38C440.02 174.687 439.46 173.74 439.327 172.54H441.587C441.76 173.113 442.127 173.573 442.687 173.92C443.26 174.28 443.94 174.46 444.727 174.46C445.647 174.46 446.387 174.18 446.947 173.62C447.52 173.06 447.807 172.247 447.807 171.18V169.34C447.42 169.86 446.894 170.3 446.227 170.66C445.574 171.007 444.827 171.18 443.987 171.18C443.027 171.18 442.147 170.94 441.347 170.46C440.56 169.967 439.934 169.287 439.467 168.42C439.014 167.54 438.787 166.547 438.787 165.44C438.787 164.333 439.014 163.353 439.467 162.5C439.934 161.647 440.56 160.987 441.347 160.52C442.147 160.04 443.027 159.8 443.987 159.8ZM447.807 165.48C447.807 164.72 447.647 164.06 447.327 163.5C447.02 162.94 446.614 162.513 446.107 162.22C445.6 161.927 445.054 161.78 444.467 161.78C443.88 161.78 443.334 161.927 442.827 162.22C442.32 162.5 441.907 162.92 441.587 163.48C441.28 164.027 441.127 164.68 441.127 165.44C441.127 166.2 441.28 166.867 441.587 167.44C441.907 168.013 442.32 168.453 442.827 168.76C443.347 169.053 443.894 169.2 444.467 169.2C445.054 169.2 445.6 169.053 446.107 168.76C446.614 168.467 447.02 168.04 447.327 167.48C447.647 166.907 447.807 166.24 447.807 165.48ZM455.382 161.58C455.715 161.02 456.155 160.587 456.702 160.28C457.262 159.96 457.922 159.8 458.682 159.8V162.16H458.102C457.208 162.16 456.528 162.387 456.062 162.84C455.608 163.293 455.382 164.08 455.382 165.2V171H453.102V159.98H455.382V161.58ZM461.937 158.52C461.524 158.52 461.177 158.38 460.897 158.1C460.617 157.82 460.477 157.473 460.477 157.06C460.477 156.647 460.617 156.3 460.897 156.02C461.177 155.74 461.524 155.6 461.937 155.6C462.337 155.6 462.677 155.74 462.957 156.02C463.237 156.3 463.377 156.647 463.377 157.06C463.377 157.473 463.237 157.82 462.957 158.1C462.677 158.38 462.337 158.52 461.937 158.52ZM463.057 159.98V171H460.777V159.98H463.057ZM468.711 161.84V167.94C468.711 168.353 468.804 168.653 468.991 168.84C469.191 169.013 469.524 169.1 469.991 169.1H471.391V171H469.591C468.564 171 467.777 170.76 467.231 170.28C466.684 169.8 466.411 169.02 466.411 167.94V161.84H465.111V159.98H466.411V157.24H468.711V159.98H471.391V161.84H468.711ZM483.412 159.98L476.652 176.18H474.292L476.532 170.82L472.192 159.98H474.732L477.832 168.38L481.052 159.98H483.412Z" fill="black"/>
<path d="M412.4 107.201C412.4 103.301 415.55 100.151 419.45 100.151C423.35 100.151 426.5 103.301 426.5 107.201H431.2V99.5506C431.2 97.8006 433.2 96.6506 434.75 97.5506C436.25 98.4506 438.25 97.3006 438.25 95.5006C438.25 93.8006 436.25 92.6006 434.75 93.4506C433.2 94.3506 431.2 93.2006 431.2 91.4506V79.1006H410.05C406.15 79.1006 403 82.2506 403 86.1506V107.251H412.4V107.201Z" fill="#303030"/>
<path d="M431.151 130.65C427.251 130.65 424.101 127.5 424.101 123.6C424.101 119.7 427.251 116.55 431.151 116.55V111.85H423.501C421.751 111.85 420.551 109.9 421.501 108.3C422.401 106.8 421.251 104.8 419.451 104.8C417.751 104.8 416.551 106.8 417.401 108.3C418.301 109.85 417.151 111.85 415.401 111.85H403.051V132.95C403.051 136.85 406.201 140 410.101 140H431.201V130.65H431.151Z" fill="#303030"/>
<path d="M454.549 111.9C454.549 115.8 451.399 118.95 447.499 118.95C443.599 118.95 440.449 115.8 440.449 111.9H435.749V119.55C435.749 121.3 433.749 122.45 432.199 121.55C430.649 120.65 428.699 121.8 428.699 123.6C428.699 125.3 430.699 126.5 432.199 125.65C433.699 124.75 435.749 125.95 435.749 127.65V140H456.849C460.749 140 463.899 136.85 463.899 132.95V111.85H454.549V111.9ZM470.949 65H447.549C446.249 65 445.199 66.05 445.199 67.35V77.35C445.199 79.15 447.199 80.25 448.749 79.35C450.299 78.45 452.249 79.65 452.249 81.4C452.249 83.1 450.249 84.3 448.749 83.45C447.249 82.55 445.199 83.75 445.199 85.45V95.45C445.199 96.75 446.249 97.8 447.549 97.8H454.549C454.549 101.7 457.699 104.85 461.599 104.85C465.499 104.85 468.649 101.7 468.649 97.8H475.699C476.999 97.8 478.049 96.75 478.049 95.45V72C477.999 68.15 474.849 65 470.949 65Z" fill="#303030"/>
<path d="M404.04 446.1C405.52 446.1 406.813 446.387 407.92 446.96C409.04 447.52 409.9 448.333 410.5 449.4C411.113 450.453 411.42 451.687 411.42 453.1C411.42 454.513 411.113 455.74 410.5 456.78C409.9 457.82 409.04 458.62 407.92 459.18C406.813 459.727 405.52 460 404.04 460H399.5V446.1H404.04ZM404.04 458.14C405.667 458.14 406.913 457.7 407.78 456.82C408.647 455.94 409.08 454.7 409.08 453.1C409.08 451.487 408.647 450.227 407.78 449.32C406.913 448.413 405.667 447.96 404.04 447.96H401.78V458.14H404.04ZM414.84 447.52C414.426 447.52 414.08 447.38 413.8 447.1C413.52 446.82 413.38 446.473 413.38 446.06C413.38 445.647 413.52 445.3 413.8 445.02C414.08 444.74 414.426 444.6 414.84 444.6C415.24 444.6 415.58 444.74 415.86 445.02C416.14 445.3 416.28 445.647 416.28 446.06C416.28 446.473 416.14 446.82 415.86 447.1C415.58 447.38 415.24 447.52 414.84 447.52ZM415.96 448.98V460H413.68V448.98H415.96ZM423.213 457.96L426.333 448.98H428.753L424.553 460H421.833L417.653 448.98H420.093L423.213 457.96ZM440.577 454.22C440.577 454.633 440.55 455.007 440.497 455.34H432.077C432.143 456.22 432.47 456.927 433.057 457.46C433.643 457.993 434.363 458.26 435.217 458.26C436.443 458.26 437.31 457.747 437.817 456.72H440.277C439.943 457.733 439.337 458.567 438.457 459.22C437.59 459.86 436.51 460.18 435.217 460.18C434.163 460.18 433.217 459.947 432.377 459.48C431.55 459 430.897 458.333 430.417 457.48C429.95 456.613 429.717 455.613 429.717 454.48C429.717 453.347 429.943 452.353 430.397 451.5C430.863 450.633 431.51 449.967 432.337 449.5C433.177 449.033 434.137 448.8 435.217 448.8C436.257 448.8 437.183 449.027 437.997 449.48C438.81 449.933 439.443 450.573 439.897 451.4C440.35 452.213 440.577 453.153 440.577 454.22ZM438.197 453.5C438.183 452.66 437.883 451.987 437.297 451.48C436.71 450.973 435.983 450.72 435.117 450.72C434.33 450.72 433.657 450.973 433.097 451.48C432.537 451.973 432.203 452.647 432.097 453.5H438.197ZM445.1 450.58C445.434 450.02 445.874 449.587 446.42 449.28C446.98 448.96 447.64 448.8 448.4 448.8V451.16H447.82C446.927 451.16 446.247 451.387 445.78 451.84C445.327 452.293 445.1 453.08 445.1 454.2V460H442.82V448.98H445.1V450.58ZM454.496 460.18C453.629 460.18 452.849 460.027 452.156 459.72C451.476 459.4 450.936 458.973 450.536 458.44C450.136 457.893 449.923 457.287 449.896 456.62H452.256C452.296 457.087 452.516 457.48 452.916 457.8C453.329 458.107 453.843 458.26 454.456 458.26C455.096 458.26 455.589 458.14 455.936 457.9C456.296 457.647 456.476 457.327 456.476 456.94C456.476 456.527 456.276 456.22 455.876 456.02C455.489 455.82 454.869 455.6 454.016 455.36C453.189 455.133 452.516 454.913 451.996 454.7C451.476 454.487 451.023 454.16 450.636 453.72C450.263 453.28 450.076 452.7 450.076 451.98C450.076 451.393 450.249 450.86 450.596 450.38C450.943 449.887 451.436 449.5 452.076 449.22C452.729 448.94 453.476 448.8 454.316 448.8C455.569 448.8 456.576 449.12 457.336 449.76C458.109 450.387 458.523 451.247 458.576 452.34H456.296C456.256 451.847 456.056 451.453 455.696 451.16C455.336 450.867 454.849 450.72 454.236 450.72C453.636 450.72 453.176 450.833 452.856 451.06C452.536 451.287 452.376 451.587 452.376 451.96C452.376 452.253 452.483 452.5 452.696 452.7C452.909 452.9 453.169 453.06 453.476 453.18C453.783 453.287 454.236 453.427 454.836 453.6C455.636 453.813 456.289 454.033 456.796 454.26C457.316 454.473 457.763 454.793 458.136 455.22C458.509 455.647 458.703 456.213 458.716 456.92C458.716 457.547 458.543 458.107 458.196 458.6C457.849 459.093 457.356 459.48 456.716 459.76C456.089 460.04 455.349 460.18 454.496 460.18ZM462.34 447.52C461.926 447.52 461.58 447.38 461.3 447.1C461.02 446.82 460.88 446.473 460.88 446.06C460.88 445.647 461.02 445.3 461.3 445.02C461.58 444.74 461.926 444.6 462.34 444.6C462.74 444.6 463.08 444.74 463.36 445.02C463.64 445.3 463.78 445.647 463.78 446.06C463.78 446.473 463.64 446.82 463.36 447.1C463.08 447.38 462.74 447.52 462.34 447.52ZM463.46 448.98V460H461.18V448.98H463.46ZM469.113 450.84V456.94C469.113 457.353 469.206 457.653 469.393 457.84C469.593 458.013 469.926 458.1 470.393 458.1H471.793V460H469.993C468.966 460 468.18 459.76 467.633 459.28C467.086 458.8 466.813 458.02 466.813 456.94V450.84H465.513V448.98H466.813V446.24H469.113V448.98H471.793V450.84H469.113ZM483.815 448.98L477.055 465.18H474.695L476.935 459.82L472.595 448.98H475.135L478.235 457.38L481.455 448.98H483.815Z" fill="#303030"/>
<path d="M430.269 419.395L426.817 422.847C434.221 425.649 442.577 425.999 450.482 423.448V418.795C444.178 421.146 437.023 421.446 430.269 419.395ZM451.683 360.706L453.935 356.903C445.879 353.351 436.673 352.901 428.318 355.702C429.068 356.953 429.668 358.304 430.069 359.755C437.123 357.454 444.829 357.804 451.683 360.706ZM405.652 378.268C403.051 386.073 403.251 394.528 406.153 402.183L409.605 398.731C407.754 392.777 407.704 386.223 409.705 380.019C408.304 379.618 406.953 379.018 405.652 378.268ZM473.448 400.482C475.499 394.178 475.749 387.274 474.048 380.569H469.495C471.446 387.223 471.146 394.228 468.795 400.482H473.448ZM442.077 389.925H436.973C431.169 389.925 425.616 394.378 425.616 401.783C425.616 402.984 426.616 403.985 427.817 403.985H451.283C452.484 403.985 453.484 402.984 453.484 401.783C453.434 394.478 447.931 389.925 442.077 389.925ZM432.871 378.468V379.618C432.871 383.271 435.823 386.273 439.525 386.273C443.177 386.273 446.18 383.271 446.18 379.618V378.468C446.18 374.815 443.177 371.813 439.525 371.813C435.873 371.813 432.871 374.765 432.871 378.468ZM414.108 376.216C420.813 376.216 426.216 370.762 426.216 364.108C426.216 357.404 420.762 352 414.108 352C407.404 352 402 357.454 402 364.108C402 370.762 407.454 376.216 414.108 376.216ZM428.368 411.94L417.06 400.632C416.209 399.782 414.809 399.782 413.958 400.632L402.65 411.94C401.8 412.791 401.8 414.192 402.65 415.042L413.958 426.35C414.809 427.2 416.209 427.2 417.06 426.35L428.368 415.042C429.268 414.192 429.268 412.841 428.368 411.94ZM451.483 376.216H474.849C476.55 376.216 477.6 374.365 476.75 372.914L465.092 353.101C464.242 351.65 462.14 351.65 461.29 353.101L449.632 372.914C448.731 374.365 449.782 376.216 451.483 376.216ZM474.849 404.885H457.137C455.936 404.885 454.935 405.886 454.935 407.087V424.799C454.935 425.999 455.936 427 457.137 427H474.849C476.049 427 477.05 425.999 477.05 424.799V407.087C477.05 405.886 476.049 404.885 474.849 404.885Z" fill="#DB3236"/>
<path d="M687.72 166L684.52 160.44H682.78V166H680.5V152.1H685.3C686.367 152.1 687.267 152.287 688 152.66C688.747 153.033 689.3 153.533 689.66 154.16C690.033 154.787 690.22 155.487 690.22 156.26C690.22 157.167 689.953 157.993 689.42 158.74C688.9 159.473 688.093 159.973 687 160.24L690.44 166H687.72ZM682.78 158.62H685.3C686.153 158.62 686.793 158.407 687.22 157.98C687.66 157.553 687.88 156.98 687.88 156.26C687.88 155.54 687.667 154.98 687.24 154.58C686.813 154.167 686.167 153.96 685.3 153.96H682.78V158.62ZM703.237 160.22C703.237 160.633 703.21 161.007 703.157 161.34H694.737C694.803 162.22 695.13 162.927 695.717 163.46C696.303 163.993 697.023 164.26 697.877 164.26C699.103 164.26 699.97 163.747 700.477 162.72H702.937C702.603 163.733 701.997 164.567 701.117 165.22C700.25 165.86 699.17 166.18 697.877 166.18C696.823 166.18 695.877 165.947 695.037 165.48C694.21 165 693.557 164.333 693.077 163.48C692.61 162.613 692.377 161.613 692.377 160.48C692.377 159.347 692.603 158.353 693.057 157.5C693.523 156.633 694.17 155.967 694.997 155.5C695.837 155.033 696.797 154.8 697.877 154.8C698.917 154.8 699.843 155.027 700.657 155.48C701.47 155.933 702.103 156.573 702.557 157.4C703.01 158.213 703.237 159.153 703.237 160.22ZM700.857 159.5C700.843 158.66 700.543 157.987 699.957 157.48C699.37 156.973 698.643 156.72 697.777 156.72C696.99 156.72 696.317 156.973 695.757 157.48C695.197 157.973 694.863 158.647 694.757 159.5H700.857ZM709.48 166.18C708.614 166.18 707.834 166.027 707.14 165.72C706.46 165.4 705.92 164.973 705.52 164.44C705.12 163.893 704.907 163.287 704.88 162.62H707.24C707.28 163.087 707.5 163.48 707.9 163.8C708.314 164.107 708.827 164.26 709.44 164.26C710.08 164.26 710.574 164.14 710.92 163.9C711.28 163.647 711.46 163.327 711.46 162.94C711.46 162.527 711.26 162.22 710.86 162.02C710.474 161.82 709.854 161.6 709 161.36C708.174 161.133 707.5 160.913 706.98 160.7C706.46 160.487 706.007 160.16 705.62 159.72C705.247 159.28 705.06 158.7 705.06 157.98C705.06 157.393 705.234 156.86 705.58 156.38C705.927 155.887 706.42 155.5 707.06 155.22C707.714 154.94 708.46 154.8 709.3 154.8C710.554 154.8 711.56 155.12 712.32 155.76C713.094 156.387 713.507 157.247 713.56 158.34H711.28C711.24 157.847 711.04 157.453 710.68 157.16C710.32 156.867 709.834 156.72 709.22 156.72C708.62 156.72 708.16 156.833 707.84 157.06C707.52 157.287 707.36 157.587 707.36 157.96C707.36 158.253 707.467 158.5 707.68 158.7C707.894 158.9 708.154 159.06 708.46 159.18C708.767 159.287 709.22 159.427 709.82 159.6C710.62 159.813 711.274 160.033 711.78 160.26C712.3 160.473 712.747 160.793 713.12 161.22C713.494 161.647 713.687 162.213 713.7 162.92C713.7 163.547 713.527 164.107 713.18 164.6C712.834 165.093 712.34 165.48 711.7 165.76C711.074 166.04 710.334 166.18 709.48 166.18ZM726.144 154.98V166H723.864V164.7C723.504 165.153 723.031 165.513 722.444 165.78C721.871 166.033 721.257 166.16 720.604 166.16C719.737 166.16 718.957 165.98 718.264 165.62C717.584 165.26 717.044 164.727 716.644 164.02C716.257 163.313 716.064 162.46 716.064 161.46V154.98H718.324V161.12C718.324 162.107 718.571 162.867 719.064 163.4C719.557 163.92 720.231 164.18 721.084 164.18C721.937 164.18 722.611 163.92 723.104 163.4C723.611 162.867 723.864 162.107 723.864 161.12V154.98H726.144ZM731.432 151.2V166H729.152V151.2H731.432ZM737.086 156.84V162.94C737.086 163.353 737.179 163.653 737.366 163.84C737.566 164.013 737.899 164.1 738.366 164.1H739.766V166H737.966C736.939 166 736.152 165.76 735.606 165.28C735.059 164.8 734.786 164.02 734.786 162.94V156.84H733.486V154.98H734.786V152.24H737.086V154.98H739.766V156.84H737.086ZM745.867 166.18C745.001 166.18 744.221 166.027 743.527 165.72C742.847 165.4 742.307 164.973 741.907 164.44C741.507 163.893 741.294 163.287 741.267 162.62H743.627C743.667 163.087 743.887 163.48 744.287 163.8C744.701 164.107 745.214 164.26 745.827 164.26C746.467 164.26 746.961 164.14 747.307 163.9C747.667 163.647 747.847 163.327 747.847 162.94C747.847 162.527 747.647 162.22 747.247 162.02C746.861 161.82 746.241 161.6 745.387 161.36C744.561 161.133 743.887 160.913 743.367 160.7C742.847 160.487 742.394 160.16 742.007 159.72C741.634 159.28 741.447 158.7 741.447 157.98C741.447 157.393 741.621 156.86 741.967 156.38C742.314 155.887 742.807 155.5 743.447 155.22C744.101 154.94 744.847 154.8 745.687 154.8C746.941 154.8 747.947 155.12 748.707 155.76C749.481 156.387 749.894 157.247 749.947 158.34H747.667C747.627 157.847 747.427 157.453 747.067 157.16C746.707 156.867 746.221 156.72 745.607 156.72C745.007 156.72 744.547 156.833 744.227 157.06C743.907 157.287 743.747 157.587 743.747 157.96C743.747 158.253 743.854 158.5 744.067 158.7C744.281 158.9 744.541 159.06 744.847 159.18C745.154 159.287 745.607 159.427 746.207 159.6C747.007 159.813 747.661 160.033 748.167 160.26C748.687 160.473 749.134 160.793 749.507 161.22C749.881 161.647 750.074 162.213 750.087 162.92C750.087 163.547 749.914 164.107 749.567 164.6C749.221 165.093 748.727 165.48 748.087 165.76C747.461 166.04 746.721 166.18 745.867 166.18ZM761.011 157.8V159.72H752.791V157.8H761.011ZM770.59 166.14C769.297 166.14 768.103 165.84 767.01 165.24C765.93 164.627 765.07 163.78 764.43 162.7C763.803 161.607 763.49 160.38 763.49 159.02C763.49 157.66 763.803 156.44 764.43 155.36C765.07 154.28 765.93 153.44 767.01 152.84C768.103 152.227 769.297 151.92 770.59 151.92C771.897 151.92 773.09 152.227 774.17 152.84C775.263 153.44 776.123 154.28 776.75 155.36C777.377 156.44 777.69 157.66 777.69 159.02C777.69 160.38 777.377 161.607 776.75 162.7C776.123 163.78 775.263 164.627 774.17 165.24C773.09 165.84 771.897 166.14 770.59 166.14ZM770.59 164.16C771.51 164.16 772.33 163.953 773.05 163.54C773.77 163.113 774.33 162.513 774.73 161.74C775.143 160.953 775.35 160.047 775.35 159.02C775.35 157.993 775.143 157.093 774.73 156.32C774.33 155.547 773.77 154.953 773.05 154.54C772.33 154.127 771.51 153.92 770.59 153.92C769.67 153.92 768.85 154.127 768.13 154.54C767.41 154.953 766.843 155.547 766.43 156.32C766.03 157.093 765.83 157.993 765.83 159.02C765.83 160.047 766.03 160.953 766.43 161.74C766.843 162.513 767.41 163.113 768.13 163.54C768.85 163.953 769.67 164.16 770.59 164.16ZM782.214 156.58C782.547 156.02 782.987 155.587 783.534 155.28C784.094 154.96 784.754 154.8 785.514 154.8V157.16H784.934C784.04 157.16 783.36 157.387 782.894 157.84C782.44 158.293 782.214 159.08 782.214 160.2V166H779.934V154.98H782.214V156.58ZM788.769 153.52C788.356 153.52 788.009 153.38 787.729 153.1C787.449 152.82 787.309 152.473 787.309 152.06C787.309 151.647 787.449 151.3 787.729 151.02C788.009 150.74 788.356 150.6 788.769 150.6C789.169 150.6 789.509 150.74 789.789 151.02C790.069 151.3 790.209 151.647 790.209 152.06C790.209 152.473 790.069 152.82 789.789 153.1C789.509 153.38 789.169 153.52 788.769 153.52ZM789.889 154.98V166H787.609V154.98H789.889ZM802.983 160.22C802.983 160.633 802.956 161.007 802.903 161.34H794.483C794.549 162.22 794.876 162.927 795.463 163.46C796.049 163.993 796.769 164.26 797.623 164.26C798.849 164.26 799.716 163.747 800.223 162.72H802.683C802.349 163.733 801.743 164.567 800.863 165.22C799.996 165.86 798.916 166.18 797.623 166.18C796.569 166.18 795.623 165.947 794.783 165.48C793.956 165 793.303 164.333 792.823 163.48C792.356 162.613 792.123 161.613 792.123 160.48C792.123 159.347 792.349 158.353 792.803 157.5C793.269 156.633 793.916 155.967 794.743 155.5C795.583 155.033 796.543 154.8 797.623 154.8C798.663 154.8 799.589 155.027 800.403 155.48C801.216 155.933 801.849 156.573 802.303 157.4C802.756 158.213 802.983 159.153 802.983 160.22ZM800.603 159.5C800.589 158.66 800.289 157.987 799.703 157.48C799.116 156.973 798.389 156.72 797.523 156.72C796.736 156.72 796.063 156.973 795.503 157.48C794.943 157.973 794.609 158.647 794.503 159.5H800.603ZM810.787 154.8C811.653 154.8 812.427 154.98 813.107 155.34C813.8 155.7 814.34 156.233 814.727 156.94C815.113 157.647 815.307 158.5 815.307 159.5V166H813.047V159.84C813.047 158.853 812.8 158.1 812.307 157.58C811.813 157.047 811.14 156.78 810.287 156.78C809.433 156.78 808.753 157.047 808.247 157.58C807.753 158.1 807.507 158.853 807.507 159.84V166H805.227V154.98H807.507V156.24C807.88 155.787 808.353 155.433 808.927 155.18C809.513 154.927 810.133 154.8 810.787 154.8ZM820.875 156.84V162.94C820.875 163.353 820.968 163.653 821.155 163.84C821.355 164.013 821.688 164.1 822.155 164.1H823.555V166H821.755C820.728 166 819.942 165.76 819.395 165.28C818.848 164.8 818.575 164.02 818.575 162.94V156.84H817.275V154.98H818.575V152.24H820.875V154.98H823.555V156.84H820.875ZM835.756 160.22C835.756 160.633 835.73 161.007 835.676 161.34H827.256C827.323 162.22 827.65 162.927 828.236 163.46C828.823 163.993 829.543 164.26 830.396 164.26C831.623 164.26 832.49 163.747 832.996 162.72H835.456C835.123 163.733 834.516 164.567 833.636 165.22C832.77 165.86 831.69 166.18 830.396 166.18C829.343 166.18 828.396 165.947 827.556 165.48C826.73 165 826.076 164.333 825.596 163.48C825.13 162.613 824.896 161.613 824.896 160.48C824.896 159.347 825.123 158.353 825.576 157.5C826.043 156.633 826.69 155.967 827.516 155.5C828.356 155.033 829.316 154.8 830.396 154.8C831.436 154.8 832.363 155.027 833.176 155.48C833.99 155.933 834.623 156.573 835.076 157.4C835.53 158.213 835.756 159.153 835.756 160.22ZM833.376 159.5C833.363 158.66 833.063 157.987 832.476 157.48C831.89 156.973 831.163 156.72 830.296 156.72C829.51 156.72 828.836 156.973 828.276 157.48C827.716 157.973 827.383 158.647 827.276 159.5H833.376ZM837.24 160.44C837.24 159.333 837.467 158.353 837.92 157.5C838.387 156.647 839.013 155.987 839.8 155.52C840.6 155.04 841.487 154.8 842.46 154.8C843.18 154.8 843.887 154.96 844.58 155.28C845.287 155.587 845.847 156 846.26 156.52V151.2H848.56V166H846.26V164.34C845.887 164.873 845.367 165.313 844.7 165.66C844.047 166.007 843.293 166.18 842.44 166.18C841.48 166.18 840.6 165.94 839.8 165.46C839.013 164.967 838.387 164.287 837.92 163.42C837.467 162.54 837.24 161.547 837.24 160.44ZM846.26 160.48C846.26 159.72 846.1 159.06 845.78 158.5C845.473 157.94 845.067 157.513 844.56 157.22C844.053 156.927 843.507 156.78 842.92 156.78C842.333 156.78 841.787 156.927 841.28 157.22C840.773 157.5 840.36 157.92 840.04 158.48C839.733 159.027 839.58 159.68 839.58 160.44C839.58 161.2 839.733 161.867 840.04 162.44C840.36 163.013 840.773 163.453 841.28 163.76C841.8 164.053 842.347 164.2 842.92 164.2C843.507 164.2 844.053 164.053 844.56 163.76C845.067 163.467 845.473 163.04 845.78 162.48C846.1 161.907 846.26 161.24 846.26 160.48Z" fill="black"/>
<path d="M727 90.2499H749.2V120.05H727V90.2499ZM779.8 82.6H802V120.05H779.8V82.6ZM753.4 71.5H775.6V120.05H753.4V71.5ZM791.1 60.05L794.25 66.4L801.3 67.4L796.2 72.35L797.4 79.35L791.1 76.05L784.8 79.35L786 72.35L780.9 67.4L787.95 66.4L791.1 60.05ZM764.6 49L767.75 55.4L774.8 56.4L769.7 61.35L770.9 68.35L764.6 65.05L758.3 68.35L759.5 61.35L754.4 56.4L761.45 55.4L764.6 49ZM737.7 67.5L740.85 73.9L747.9 74.95L742.8 79.9L744 86.9L737.7 83.6L731.4 86.9L732.6 79.9L727.5 74.95L734.55 73.9L737.7 67.5Z" fill="#BB0B0B"/>
<path d="M754.742 488.464C755.881 488.675 756.977 489.223 757.736 490.108L765.619 484.796C765.535 484.585 765.451 484.375 765.324 484.206C764.945 483.658 764.397 483.278 763.722 483.152C763.09 483.025 762.457 483.152 761.952 483.531L754.742 488.464ZM740.535 489.771L749.641 483.489C749.599 483.405 749.557 483.32 749.515 483.278C749.22 482.857 748.798 482.562 748.292 482.477C747.786 482.393 747.28 482.477 746.859 482.772L738.09 488.801L739.017 489.223C739.523 489.391 740.029 489.602 740.535 489.771ZM747.66 489.855L749.641 489.307L758.663 483.11C758.621 483.025 758.579 482.899 758.495 482.815C758.157 482.309 757.609 481.929 757.019 481.845C756.429 481.719 755.839 481.845 755.333 482.182L743.528 490.319C744.92 490.403 746.269 490.235 747.66 489.855Z" fill="#303030"/>
<path d="M771.732 486.525C770.889 485.302 769.202 484.965 767.98 485.808L758.831 491.963C758.874 492.047 758.874 492.132 758.916 492.258C759.295 493.607 759.084 494.998 758.41 496.221C757.693 497.444 756.597 498.287 755.248 498.666L738.342 503.219C737.752 503.388 737.162 503.051 737.035 502.46C736.867 501.87 737.204 501.28 737.794 501.154L754.742 496.6C755.543 496.39 756.175 495.884 756.597 495.167C757.019 494.45 757.103 493.649 756.892 492.848C756.471 491.204 754.784 490.234 753.14 490.698L748.25 492.005C744.75 492.933 741.462 492.68 738.174 491.204L733.452 489.096C730.374 487.705 727.297 487.494 724.008 488.337C721.31 489.054 718.781 490.487 716.589 491.71C714.691 492.764 712.921 493.776 711.277 494.197L709 494.83V513L713.764 511.735C715.282 511.314 722.196 511.609 723.46 511.777L725.105 512.03C726.243 512.199 727.255 512.157 728.393 511.82C729.067 511.651 730.121 511.356 731.344 511.061C736.319 509.796 745.594 507.477 747.744 506.044L771.057 490.277C771.648 489.897 772.069 489.265 772.196 488.548C772.28 487.831 772.154 487.115 771.732 486.525ZM717.474 477.334H727.086C727.676 477.334 728.182 476.87 728.182 476.238V465.445C728.182 464.855 727.718 464.349 727.086 464.349H717.474C716.884 464.349 716.378 464.813 716.378 465.445V476.238C716.42 476.828 716.884 477.334 717.474 477.334ZM743.949 476.238V456.718C743.949 456.128 743.486 455.622 742.853 455.622H733.241C732.651 455.622 732.145 456.086 732.145 456.718V476.238C732.145 476.828 732.609 477.334 733.241 477.334H742.853C743.486 477.334 743.949 476.828 743.949 476.238ZM746.268 449.889H747.954V476.238C747.954 476.828 748.418 477.334 749.051 477.334H758.663C759.253 477.334 759.759 476.87 759.759 476.238V449.889H761.445C762.035 449.889 762.541 449.425 762.541 448.793C762.541 448.54 762.457 448.329 762.331 448.118L754.742 438.422C754.531 438.169 754.236 438 753.899 438C753.562 438 753.266 438.169 753.056 438.422L745.467 448.118C745.088 448.582 745.172 449.256 745.636 449.636C745.804 449.804 746.057 449.889 746.268 449.889ZM734 446.642L733.494 450.142C733.41 450.732 733.831 451.28 734.422 451.364C734.632 451.406 734.843 451.364 735.054 451.28L738.216 449.72L741.378 451.28C741.926 451.533 742.558 451.322 742.811 450.774C742.895 450.563 742.938 450.352 742.895 450.142L742.39 446.642L744.835 444.113C745.256 443.691 745.256 443.017 744.835 442.595C744.666 442.427 744.497 442.342 744.245 442.3L740.788 441.71L739.143 438.59C738.848 438.042 738.216 437.874 737.668 438.126C737.457 438.211 737.331 438.379 737.204 438.59L735.56 441.71L732.103 442.3C731.513 442.384 731.133 442.975 731.218 443.565C731.26 443.776 731.344 443.987 731.513 444.155L734 446.642ZM719.16 446.642L718.654 450.142C718.57 450.732 718.992 451.28 719.582 451.364C719.793 451.406 720.003 451.364 720.214 451.28L723.376 449.72L726.538 451.28C727.086 451.533 727.718 451.322 727.971 450.774C728.056 450.563 728.098 450.352 728.056 450.142L727.55 446.642L729.995 444.113C730.417 443.691 730.417 443.017 729.995 442.595C729.826 442.427 729.658 442.342 729.405 442.3L725.948 441.71L724.304 438.59C724.008 438.042 723.376 437.874 722.828 438.126C722.617 438.211 722.491 438.379 722.364 438.59L720.72 441.71L717.263 442.3C716.673 442.384 716.293 442.975 716.378 443.565C716.42 443.776 716.504 443.987 716.673 444.155L719.16 446.642Z" fill="#303030"/>
</g>
<defs>
<filter id="filter0_d_186_142" x="0" y="151" width="238" height="238" filterUnits="userSpaceOnUse" color-interpolation-filters="sRGB">
<feFlood flood-opacity="0" result="BackgroundImageFix"/>
<feColorMatrix in="SourceAlpha" type="matrix" values="0 0 0 0 0 0 0 0 0 0 0 0 0 0 0 0 0 0 127 0" result="hardAlpha"/>
<feOffset dy="4"/>
<feGaussianBlur stdDeviation="2"/>
<feComposite in2="hardAlpha" operator="out"/>
<feColorMatrix type="matrix" values="0 0 0 0 0 0 0 0 0 0 0 0 0 0 0 0 0 0 0.25 0"/>
<feBlend mode="normal" in2="BackgroundImageFix" result="effect1_dropShadow_186_142"/>
<feBlend mode="normal" in="SourceGraphic" in2="effect1_dropShadow_186_142" result="shape"/>
</filter>
<filter id="filter1_d_186_142" x="323" y="11" width="238" height="238" filterUnits="userSpaceOnUse" color-interpolation-filters="sRGB">
<feFlood flood-opacity="0" result="BackgroundImageFix"/>
<feColorMatrix in="SourceAlpha" type="matrix" values="0 0 0 0 0 0 0 0 0 0 0 0 0 0 0 0 0 0 127 0" result="hardAlpha"/>
<feOffset dy="4"/>
<feGaussianBlur stdDeviation="2"/>
<feComposite in2="hardAlpha" operator="out"/>
<feColorMatrix type="matrix" values="0 0 0 0 0 0 0 0 0 0 0 0 0 0 0 0 0 0 0.25 0"/>
<feBlend mode="normal" in2="BackgroundImageFix" result="effect1_dropShadow_186_142"/>
<feBlend mode="normal" in="SourceGraphic" in2="effect1_dropShadow_186_142" result="shape"/>
</filter>
<filter id="filter2_d_186_142" x="646" y="0" width="238" height="238" filterUnits="userSpaceOnUse" color-interpolation-filters="sRGB">
<feFlood flood-opacity="0" result="BackgroundImageFix"/>
<feColorMatrix in="SourceAlpha" type="matrix" values="0 0 0 0 0 0 0 0 0 0 0 0 0 0 0 0 0 0 127 0" result="hardAlpha"/>
<feOffset dy="4"/>
<feGaussianBlur stdDeviation="2"/>
<feComposite in2="hardAlpha" operator="out"/>
<feColorMatrix type="matrix" values="0 0 0 0 0 0 0 0 0 0 0 0 0 0 0 0 0 0 0.25 0"/>
<feBlend mode="normal" in2="BackgroundImageFix" result="effect1_dropShadow_186_142"/>
<feBlend mode="normal" in="SourceGraphic" in2="effect1_dropShadow_186_142" result="shape"/>
</filter>
<filter id="filter3_d_186_142" x="622" y="388" width="238" height="238" filterUnits="userSpaceOnUse" color-interpolation-filters="sRGB">
<feFlood flood-opacity="0" result="BackgroundImageFix"/>
<feColorMatrix in="SourceAlpha" type="matrix" values="0 0 0 0 0 0 0 0 0 0 0 0 0 0 0 0 0 0 127 0" result="hardAlpha"/>
<feOffset dy="4"/>
<feGaussianBlur stdDeviation="2"/>
<feComposite in2="hardAlpha" operator="out"/>
<feColorMatrix type="matrix" values="0 0 0 0 0 0 0 0 0 0 0 0 0 0 0 0 0 0 0.25 0"/>
<feBlend mode="normal" in2="BackgroundImageFix" result="effect1_dropShadow_186_142"/>
<feBlend mode="normal" in="SourceGraphic" in2="effect1_dropShadow_186_142" result="shape"/>
</filter>
<filter id="filter4_d_186_142" x="323" y="299" width="238" height="238" filterUnits="userSpaceOnUse" color-interpolation-filters="sRGB">
<feFlood flood-opacity="0" result="BackgroundImageFix"/>
<feColorMatrix in="SourceAlpha" type="matrix" values="0 0 0 0 0 0 0 0 0 0 0 0 0 0 0 0 0 0 127 0" result="hardAlpha"/>
<feOffset dy="4"/>
<feGaussianBlur stdDeviation="2"/>
<feComposite in2="hardAlpha" operator="out"/>
<feColorMatrix type="matrix" values="0 0 0 0 0 0 0 0 0 0 0 0 0 0 0 0 0 0 0.25 0"/>
<feBlend mode="normal" in2="BackgroundImageFix" result="effect1_dropShadow_186_142"/>
<feBlend mode="normal" in="SourceGraphic" in2="effect1_dropShadow_186_142" result="shape"/>
</filter>
<clipPath id="clip0_186_142">
<rect width="884" height="626" fill="white"/>
</clipPath>
</defs>
</svg>
