<svg xmlns="http://www.w3.org/2000/svg" version="1.1" xmlns:xlink="http://www.w3.org/1999/xlink" width="512" height="512" x="0" y="0" viewBox="0 0 512 512" style="enable-background:new 0 0 512 512" xml:space="preserve" class=""><g><path fill="#f1e64c" d="M266.641 358.99H29.429c-12.111 0-21.929-9.818-21.929-21.929v-27.6c0-12.111 9.818-21.929 21.929-21.929h237.212c12.111 0 21.929 9.818 21.929 21.929v27.6c0 12.111-9.818 21.929-21.929 21.929z" opacity="1" data-original="#f1e64c"></path><path fill="#ffc250" d="M75.067 358.993h-45.63c-12.118 0-21.937-9.82-21.937-21.926v-27.606c0-12.107 9.82-21.926 21.937-21.926h45.63c-12.107 0-21.926 9.82-21.926 21.926v27.606c0 12.106 9.82 21.926 21.926 21.926z" opacity="1" data-original="#ffc250"></path><path fill="#ffc250" d="M288.571 319.63v17.44c0 12.11-9.82 21.92-21.93 21.92H29.431c-12.11 0-21.93-9.81-21.93-21.92v-17.44c0 12.11 9.82 21.93 21.93 21.93h237.21c12.11 0 21.93-9.82 21.93-21.93z" opacity="1" data-original="#ffc250"></path><path fill="#f1e64c" d="M307.28 287.534H70.067c-12.111 0-21.929-9.818-21.929-21.929v-27.6c0-12.111 9.818-21.929 21.929-21.929H307.28c12.111 0 21.929 9.818 21.929 21.929v27.6c0 12.111-9.818 21.929-21.929 21.929z" opacity="1" data-original="#f1e64c"></path><path fill="#ffc250" d="M115.706 287.537h-45.63c-12.118 0-21.937-9.82-21.937-21.926v-27.606c0-12.107 9.82-21.926 21.937-21.926h45.63c-12.107 0-21.926 9.82-21.926 21.926v27.606c0 12.107 9.819 21.926 21.926 21.926z" opacity="1" data-original="#ffc250"></path><path fill="#ffc250" d="M329.21 248.174v17.44c0 12.11-9.82 21.92-21.93 21.92H70.07c-12.11 0-21.93-9.81-21.93-21.92v-17.44c0 12.11 9.82 21.93 21.93 21.93h237.21c12.11 0 21.93-9.82 21.93-21.93z" opacity="1" data-original="#ffc250"></path><path fill="#f1e64c" d="M278.703 216.076H41.491c-12.111 0-21.929-9.818-21.929-21.929v-27.6c0-12.111 9.818-21.929 21.929-21.929h237.212c12.111 0 21.929 9.818 21.929 21.929v27.6c0 12.111-9.818 21.929-21.929 21.929z" opacity="1" data-original="#f1e64c"></path><path fill="#ffc250" d="M87.13 216.08H41.5c-12.118 0-21.937-9.82-21.937-21.926v-27.606c0-12.107 9.82-21.926 21.937-21.926h45.63c-12.107 0-21.926 9.82-21.926 21.926v27.606c-.001 12.106 9.819 21.926 21.926 21.926z" opacity="1" data-original="#ffc250"></path><path fill="#ffc250" d="M300.633 176.716v17.44c0 12.11-9.82 21.92-21.93 21.92H41.493c-12.11 0-21.93-9.81-21.93-21.92v-17.44c0 12.11 9.82 21.93 21.93 21.93h237.21c12.11 0 21.93-9.82 21.93-21.93z" opacity="1" data-original="#ffc250"></path><path fill="#f1e64c" d="M286.641 430.448H49.429c-12.111 0-21.929-9.818-21.929-21.929v-27.6c0-12.111 9.818-21.929 21.929-21.929h237.212c12.111 0 21.929 9.818 21.929 21.929v27.6c0 12.111-9.818 21.929-21.929 21.929z" opacity="1" data-original="#f1e64c"></path><path fill="#ffc250" d="M308.571 391.088v17.44c0 12.11-9.82 21.92-21.93 21.92H49.431c-12.11 0-21.93-9.81-21.93-21.92v-17.44c0 12.11 9.82 21.93 21.93 21.93h237.21c12.11 0 21.93-9.82 21.93-21.93z" opacity="1" data-original="#ffc250"></path><path fill="#ffc250" d="M95.067 430.451h-45.63c-12.118 0-21.937-9.82-21.937-21.926v-27.606c0-12.107 9.82-21.926 21.937-21.926h45.63c-12.107 0-21.926 9.82-21.926 21.926v27.606c0 12.106 9.82 21.926 21.926 21.926z" opacity="1" data-original="#ffc250"></path><path fill="#f1e64c" d="M271.641 501.906H34.429c-12.111 0-21.929-9.818-21.929-21.929v-27.6c0-12.111 9.818-21.929 21.929-21.929h237.212c12.111 0 21.929 9.818 21.929 21.929v27.6c0 12.111-9.818 21.929-21.929 21.929z" opacity="1" data-original="#f1e64c"></path><path fill="#ffc250" d="M293.571 462.546v17.44c0 12.11-9.82 21.92-21.93 21.92H34.431c-12.11 0-21.93-9.81-21.93-21.92v-17.44c0 12.11 9.82 21.93 21.93 21.93h237.21c12.11 0 21.93-9.82 21.93-21.93z" opacity="1" data-original="#ffc250"></path><path fill="#ffc250" d="M80.067 501.909h-45.63c-12.118 0-21.937-9.82-21.937-21.926v-27.606c0-12.107 9.82-21.926 21.937-21.926h45.63c-12.107 0-21.926 9.82-21.926 21.926v27.606c0 12.106 9.82 21.926 21.926 21.926z" opacity="1" data-original="#ffc250"></path><circle cx="363.965" cy="361.374" r="140.535" fill="#f1e64c" opacity="1" data-original="#f1e64c"></circle><g fill="#ffc250"><path d="M375.85 501.406c-3.913.338-7.88.501-11.887.501-77.618 0-140.533-62.915-140.533-140.533s62.915-140.533 140.533-140.533c4.008 0 7.974.162 11.887.501-72.067 6.025-128.66 66.408-128.66 140.032s56.593 134.007 128.66 140.032z" fill="#ffc250" opacity="1" data-original="#ffc250"></path><circle cx="363.965" cy="361.374" r="94.897" fill="#ffc250" opacity="1" data-original="#ffc250"></circle></g><path fill="#95d6a4" d="M197.368 310.015V194.32h19.776c24.01 0 39.016-25.993 27.01-46.785L180.768 37.759c-12.005-20.79-42.013-20.791-54.019-.001L63.356 147.533c-12.007 20.793 2.998 46.787 27.009 46.787h19.786v115.695c0 10.84 8.787 19.627 19.627 19.627h47.963c10.84 0 19.627-8.788 19.627-19.627z" opacity="1" data-original="#95d6a4" class=""></path><path fill="#78c2a4" d="M147.835 329.644h-18.059c-10.836 0-19.62-8.784-19.62-19.62V194.316H90.363c-24.011 0-39.018-25.988-27.002-46.785l63.383-109.773c6.003-10.393 16.507-15.584 27.012-15.584-7.037 0-14.074 5.191-18.089 15.584L93.202 147.531c-8.051 20.797 2.008 46.785 18.089 46.785h8.131c8.428 0 15.261 6.833 15.261 15.261v100.436c0 10.84 5.892 19.631 13.152 19.631z" opacity="1" data-original="#78c2a4"></path><g fill="#f7f493"><path d="m373.324 164.883-.574-2.141c-2.023-7.55 2.145-15.378 9.539-17.913l22.744-7.798c8.146-2.793 16.954 1.898 19.183 10.216l1.425 5.319c2.229 8.318-3.054 16.785-11.505 18.439l-23.595 4.619c-7.67 1.503-15.194-3.191-17.217-10.741zM336.991 100.806l-1.567-1.567c-5.527-5.527-5.831-14.39-.695-20.282l15.798-18.125c5.659-6.492 15.632-6.834 21.721-.744l3.894 3.894c6.09 6.09 5.748 16.063-.744 21.721l-18.125 15.798c-5.891 5.136-14.754 4.832-20.282-.695zM273.488 63.48l-2.141-.574c-7.55-2.023-12.245-9.547-10.743-17.218l4.619-23.595c1.654-8.452 10.121-13.734 18.439-11.505l5.319 1.425c8.318 2.229 13.009 11.037 10.216 19.183l-7.798 22.744c-2.533 7.395-10.36 11.563-17.911 9.54z" fill="#f7f493" opacity="1" data-original="#f7f493"></path></g><path d="M471.739 259.891a7.5 7.5 0 1 0-10.918 10.285C484.151 294.943 497 327.331 497 361.373c0 73.359-59.682 133.04-133.04 133.04-73.353 0-133.03-59.681-133.03-133.04 0-73.353 59.677-133.03 133.03-133.03 27.083 0 53.137 8.087 75.345 23.386a7.5 7.5 0 0 0 8.51-12.352c-24.722-17.031-53.719-26.034-83.854-26.034a147.835 147.835 0 0 0-35.43 4.296c-5.496-5.751-13.113-9.064-21.25-9.064h-2.946a29.245 29.245 0 0 0 3.795-14.43v-27.6c0-16.228-13.202-29.43-29.43-29.43h-31.905L187.264 34.011c-6.999-12.115-19.526-19.346-33.515-19.346h-.008c-13.98.003-26.499 7.232-33.486 19.337l-59.54 103.113H41.49c-16.228 0-29.43 13.202-29.43 29.43v27.6c0 16.228 13.202 29.43 29.43 29.43h2.945a29.245 29.245 0 0 0-3.795 14.43v27.6a29.245 29.245 0 0 0 3.795 14.43H29.43c-16.228 0-29.43 13.198-29.43 29.42v27.6c0 14.401 10.399 26.41 24.081 28.934A29.242 29.242 0 0 0 20 380.916v27.6a29.248 29.248 0 0 0 4.788 16.061C13.283 428.579 5 439.525 5 452.376v27.6c0 16.228 13.202 29.43 29.43 29.43h237.21c11.14 0 21.039-6.31 26.019-15.699 19.957 10.041 42.479 15.706 66.301 15.706 81.63 0 148.04-66.41 148.04-148.04 0-37.881-14.298-73.921-40.261-101.482zM35 408.516v-27.6c0-7.957 6.473-14.43 14.43-14.43h166.598c.685 20.083 5.386 39.163 13.329 56.46H49.43c-7.957 0-14.43-6.473-14.43-14.43zm274.449-184.771c-28.39 11.284-52.484 31.113-69.106 56.291H204.87v-56.46h102.41c.734 0 1.457.061 2.169.169zm-16.319-57.199v27.6c0 7.957-6.473 14.43-14.43 14.43h-73.83v-6.753h12.27c13.989 0 26.515-7.234 33.509-19.352 5.447-9.436 6.63-20.293 3.591-30.356h24.46c7.957.001 14.43 6.474 14.43 14.431zm-266.07 27.6v-27.6c0-7.957 6.473-14.43 14.43-14.43h11.774a38.2 38.2 0 0 0-.69 19.406 7.5 7.5 0 0 0 14.633-3.297c-.913-4.053-1.195-10.282 2.648-16.941l63.391-109.781c4.277-7.41 11.94-11.835 20.499-11.837h.004c8.567 0 16.241 4.429 20.526 11.848l63.381 109.771c4.283 7.414 4.284 16.27.002 23.688-4.283 7.42-11.953 11.85-20.518 11.85h-19.77a7.5 7.5 0 0 0-7.5 7.5v115.69c0 6.688-5.441 12.13-12.13 12.13h-47.96c-6.688 0-12.13-5.441-12.13-12.13v-115.69a7.5 7.5 0 0 0-7.5-7.5H90.37c-2.849 0-5.597-.474-8.167-1.408a7.497 7.497 0 0 0-9.611 4.485 7.498 7.498 0 0 0 4.485 9.611c4.218 1.534 8.69 2.312 13.293 2.312h12.28v6.753H41.49c-7.957 0-14.43-6.473-14.43-14.43zm28.58 71.46v-27.6c0-7.957 6.473-14.43 14.43-14.43h32.58v56.46H70.07c-7.957 0-14.43-6.473-14.43-14.43zM15 337.056v-27.6c0-7.951 6.473-14.42 14.43-14.42h73.22v14.977c0 14.959 12.17 27.13 27.13 27.13h47.96c14.959 0 27.13-12.17 27.13-27.13v-14.977h26.783a146.941 146.941 0 0 0-15.385 56.45H29.43c-7.957 0-14.43-6.473-14.43-14.43zm256.64 157.35H34.43c-7.957 0-14.43-6.473-14.43-14.43v-27.6c0-7.957 6.473-14.43 14.43-14.43h202.882a149.198 149.198 0 0 0 47.289 48.344c-2.36 4.83-7.332 8.116-12.961 8.116z" fill="#000000" opacity="1" data-original="#000000"></path><path d="M378.769 353.59a424.317 424.317 0 0 1-8.082-2.433v-33.233c8.052 1.19 12.862 4.581 13.225 4.845a7.5 7.5 0 0 0 9.025-11.981c-.483-.367-8.771-6.508-22.25-7.957v-6.479c0-4.142-3.357-7.5-7.5-7.5s-7.5 3.358-7.5 7.5v6.96a59.42 59.42 0 0 0-4.436.924c-12.644 3.137-22.084 12.784-24.05 24.577-1.658 9.948 2.4 19.414 10.591 24.705 4.505 2.91 10.139 5.579 17.895 8.41v42.095c-7.786-.328-12.933-1.639-21.403-6.203a7.499 7.499 0 0 0-10.16 3.046 7.5 7.5 0 0 0 3.045 10.16c11.197 6.032 18.446 7.651 28.519 8.006v7.365c0 4.142 3.357 7.5 7.5 7.5s7.5-3.358 7.5-7.5v-7.852c19.758-2.951 31.798-16.979 33.732-30.811 2.176-15.572-7.893-28.974-25.651-34.144zm-32.838-12.673c-4.515-2.916-4.255-7.712-3.934-9.639.781-4.686 4.571-10.427 12.865-12.484.278-.069.55-.126.824-.189v27.23c-3.719-1.547-7.071-3.184-9.755-4.918zm43.632 44.74c-1.054 7.535-7.739 15.162-18.877 17.627v-36.442c1.26.378 2.548.761 3.889 1.151 10.661 3.103 16.123 9.541 14.988 17.664z" fill="#000000" opacity="1" data-original="#000000"></path><path d="M363.965 258.977c-56.462 0-102.396 45.935-102.396 102.397S307.503 463.77 363.965 463.77s102.396-45.935 102.396-102.397-45.934-102.396-102.396-102.396zm0 189.793c-48.19 0-87.396-39.206-87.396-87.397s39.206-87.397 87.396-87.397 87.396 39.206 87.396 87.397-39.206 87.397-87.396 87.397zM365.505 164.682l.573 2.141.001.001c2.654 9.904 11.703 16.577 21.628 16.577 1.412 0 2.843-.135 4.274-.416l23.596-4.619c6.061-1.186 11.412-4.872 14.681-10.111s4.227-11.665 2.628-17.629l-1.425-5.321a22.446 22.446 0 0 0-11.092-13.953 22.448 22.448 0 0 0-17.769-1.416l-22.743 7.797c-11.079 3.8-17.383 15.637-14.352 26.949zm19.218-12.758 22.743-7.797c1.951-.67 4.031-.504 5.853.466s3.12 2.603 3.654 4.596l1.425 5.321c.534 1.993.227 4.055-.866 5.807s-2.81 2.934-4.835 3.331l-23.596 4.619c-3.799.741-7.534-1.597-8.532-5.323l-.574-2.142c-.999-3.728 1.077-7.627 4.728-8.878zM331.688 106.11c4.336 4.336 10.074 6.527 15.826 6.527 5.235 0 10.48-1.816 14.687-5.482l18.125-15.798c4.655-4.057 7.446-9.924 7.658-16.096s-2.172-12.216-6.538-16.582l-3.895-3.895a22.415 22.415 0 0 0-16.583-6.538 22.441 22.441 0 0 0-16.095 7.658l-15.799 18.125c-7.694 8.829-7.235 22.232 1.046 30.514zm8.695-22.225 15.799-18.125a7.288 7.288 0 0 1 5.564-2.527 7.29 7.29 0 0 1 5.2 2.158l3.895 3.895a7.293 7.293 0 0 1 2.153 5.462 7.295 7.295 0 0 1-2.522 5.302l-18.126 15.798c-2.906 2.534-7.322 2.383-10.051-.345l-1.566-1.566c-2.729-2.729-2.88-7.144-.346-10.052zM271.548 70.725h-.001zM269.407 70.152l2.14.573c1.916.513 3.847.759 5.751.759 9.34 0 18.042-5.908 21.197-15.111l7.797-22.743a22.447 22.447 0 0 0-1.416-17.769A22.446 22.446 0 0 0 290.923 4.77l-5.319-1.425a22.44 22.44 0 0 0-17.631 2.629 22.444 22.444 0 0 0-10.11 14.68l-4.619 23.596c-2.249 11.492 4.851 22.87 16.163 25.902zm-1.442-23.022 4.619-23.595a7.292 7.292 0 0 1 3.33-4.835 7.3 7.3 0 0 1 5.808-.866l5.319 1.425a7.294 7.294 0 0 1 4.596 3.653 7.292 7.292 0 0 1 .467 5.854l-7.797 22.743c-1.251 3.649-5.149 5.724-8.877 4.728h-.001l-2.14-.573c-3.727-1-6.065-4.748-5.324-8.534z" fill="#000000" opacity="1" data-original="#000000"></path></g></svg>