<svg xmlns="http://www.w3.org/2000/svg" version="1.1" xmlns:xlink="http://www.w3.org/1999/xlink" xmlns:svgjs="http://svgjs.com/svgjs" width="512" height="512" x="0" y="0" viewBox="0 0 60 60" style="enable-background:new 0 0 512 512" xml:space="preserve" class=""><g><path d="M51.53 12.374 31.53.423a2.974 2.974 0 0 0-3.06 0l-20 11.951a3.042 3.042 0 0 0-1.47 2.6v30.052a3.042 3.042 0 0 0 1.469 2.6l20 11.951a2.979 2.979 0 0 0 3.06 0l20-11.951a3.042 3.042 0 0 0 1.471-2.6V14.974a3.041 3.041 0 0 0-1.47-2.6zM30 57.586 19.414 47h21.172zM18 45V15h24v30zm1.414-32L30 2.414 40.586 13zm-2.828 0h-5.265L24.4 5.182zM16 15v30H9V15zm.586 32 7.814 7.818L11.321 47zm26.828 0h5.265L35.6 54.818zM44 45V15h7v30zm-.586-32L35.6 5.182 48.679 13z" fill="#bb0b0b" data-original="#000000" opacity="1"></path><path d="M25.707 25.293a1 1 0 0 0-1.414 0l-4 4a1 1 0 0 0 0 1.414l4 4a1 1 0 0 0 1.414-1.414L22.414 30l3.293-3.293a1 1 0 0 0 0-1.414zM39.707 29.293l-4-4a1 1 0 0 0-1.414 1.414L37.586 30l-3.293 3.293a1 1 0 1 0 1.414 1.414l4-4a1 1 0 0 0 0-1.414zM31.2 24.02a.993.993 0 0 0-1.176.784l-2 10a1 1 0 0 0 .776 1.176.948.948 0 0 0 .2.02 1 1 0 0 0 .979-.8l2-10a1 1 0 0 0-.779-1.18z" fill="#bb0b0b" data-original="#000000" opacity="1"></path></g></svg>