<svg xmlns="http://www.w3.org/2000/svg" version="1.1" xmlns:xlink="http://www.w3.org/1999/xlink" width="512" height="512" x="0" y="0" viewBox="0 0 512 512" style="enable-background:new 0 0 512 512" xml:space="preserve" class=""><g><path fill="#f1d0a5" fill-rule="evenodd" d="M321.042 337.502c-.621-10.951-9.284-21.557-28.692-22.07-30.901-.817-41.835-1.76-72.894-5.559-19.834-2.427-36.205 9.883-51.253 23.031-25.421 22.212-40.341 31.745-69.372 48.971l65.011 74.402c32.065-33.593 51.36-36.598 83.827-35.973 30.516.586 34.169 2.839 63.92-9.932l131.473-61.596c33.259-15.582 10.535-48.046-16.426-36.041-32.553 14.49-86.859 31.26-107.179 34.564 1.222-2.832 1.795-6.079 1.584-9.798z" opacity="1" data-original="#f1d0a5"></path><path fill="#e8c290" fill-rule="evenodd" d="M321.042 337.502c-.494-8.702-6.066-17.185-18.072-20.561 3.5 4.117 5.323 9.489 5.591 14.188.246 4.23-.904 7.466-3.613 10.164-12.729 12.69-52.756 10.278-71.984 9.113-3.26-.198-6.07-.362-8.419-.46-4.177-.156-7.692 3.101-7.858 7.286-.156 4.178 3.104 7.705 7.286 7.858 2.168.086 4.913.249 8.079.44 31.947 1.932 67.4 2.642 83.598-13.506 1.461-1.463 2.736-3.029 3.807-4.725 1.222-2.832 1.795-6.079 1.584-9.798zM147.636 438.56l9.281-9.218c29.905-27.884 56.428-27.095 85.145-26.527 25.063.445 36.377 4.614 61.515-6.16l136.102-62.808c9.732-4.559 14.111-11.053 11.416-16.949-.88-1.924-2.921-4.069-5.705-5.743 16.106 4.874 22.547 25.968-2.327 37.622L311.59 410.373c-29.751 12.772-33.404 10.518-63.92 9.932-32.467-.625-51.762 2.38-83.827 35.973l-16.206-17.717z" opacity="1" data-original="#e8c290"></path><path fill="#ff954a" d="m52.636 398.411 37.939-33.152 89.664 102.61-37.939 33.152z" opacity="1" data-original="#ff954a"></path><path fill="#fc8835" d="m131.743 488.953 37.939-33.152 10.551 12.075-37.938 33.152z" opacity="1" data-original="#fc8835"></path><path fill="#8aabdb" fill-rule="evenodd" d="m341.369 40.898 31.655 13.131 25.329-16.986 35.012 35.012-16.986 25.328 13.131 31.655 29.9 5.896v49.515l-29.9 5.895L416.379 222l16.986 25.328-35.012 35.012-25.329-16.986H248.408L223.08 282.34l-35.012-35.012L205.053 222l-13.13-31.656-29.901-5.895v-49.515l29.901-5.896 13.13-31.655-16.985-25.328 35.012-35.012 25.328 16.986 31.655-13.131 5.896-29.9h49.514z" opacity="1" data-original="#8aabdb" class=""></path><path fill="#9dbbe8" fill-rule="evenodd" d="m341.369 40.898 31.656 13.13 10.759 4.464 21.559-14.458 28.021 28.021-16.985 25.328 13.131 31.655 29.9 5.896v49.514l-29.9 5.896-13.131 31.655 16.985 25.328-28.021 28.023-21.559-14.459L258 258.922l-9.592 6.432-14.904 9.996-28.022-28.022 14.339-21.382-13.598-32.782-14.3-2.819v-.001l-12.487-2.462V131.5l26.787-5.281 13.598-32.781-14.339-21.383 28.022-28.021L258 60.461l32.939-13.664 7.06-35.799h37.474z" opacity="1" data-original="#9dbbe8" class=""></path><circle cx="310.716" cy="159.691" r="76.969" fill="#ebf4ff" transform="rotate(-73.5 310.648 159.654)" opacity="1" data-original="#ebf4ff"></circle><path fill="#f9c795" d="M297.04 169.548h27.353v21.967H297.04z" opacity="1" data-original="#f9c795"></path><path fill="#edbb8a" d="M297.04 169.548h6.145v21.967h-6.145z" opacity="1" data-original="#edbb8a"></path><path fill="#fc8835" fill-rule="evenodd" d="M324.393 180.146h21.403c12.734 0 23.152 10.419 23.152 23.152v35.122H252.484v-35.122c0-12.734 10.418-23.152 23.152-23.152h21.403a16.067 16.067 0 0 0 27.352 0z" opacity="1" data-original="#fc8835"></path><path fill="#ff954a" fill-rule="evenodd" d="M324.393 180.146h21.403c12.734 0 23.152 10.419 23.152 23.152v35.122H267.484v-35.122c0-12.734 10.418-23.152 23.152-23.152h6.404a16.067 16.067 0 0 0 27.352 0z" opacity="1" data-original="#ff954a"></path><ellipse cx="310.716" cy="142.468" fill="#e8c290" rx="28.24" ry="31.011" opacity="1" data-original="#e8c290"></ellipse><g fill-rule="evenodd"><path fill="#f1d0a5" d="M310.716 111.457c15.596 0 28.24 13.884 28.24 31.011s-12.644 31.011-28.24 31.011a25.95 25.95 0 0 1-3.76-.274c-9.764-6.051-16.359-17.547-16.359-30.737s6.594-24.686 16.359-30.737a25.95 25.95 0 0 1 3.76-.274z" opacity="1" data-original="#f1d0a5"></path><path d="M372.921 195.846c-3.28-11.913-14.201-20.695-27.15-20.695h-16.403v-2.91c8.782-6.484 14.563-17.41 14.563-29.771 0-19.857-14.91-36.009-33.239-36.009s-33.24 16.152-33.24 36.009c0 12.361 5.776 23.287 14.567 29.771v2.91h-16.398c-12.949 0-23.87 8.782-27.15 20.695a72.031 72.031 0 0 1-9.741-36.149c0-39.685 32.281-71.97 71.961-71.97s71.97 32.285 71.97 71.97a72.031 72.031 0 0 1-9.741 36.149zm-62.23-27.362c12.819 0 23.239-11.673 23.239-26.013s-10.42-26.014-23.239-26.014-23.243 11.673-23.243 26.014 10.434 26.013 23.243 26.013zm0 9.996c-3.001 0-5.901-.438-8.671-1.247v1.344c2.091 2.65 5.241 4.206 8.671 4.206s6.59-1.556 8.681-4.206v-1.344a30.856 30.856 0 0 1-8.681 1.247zm53.241 54.941v-30.118c0-10.01-8.151-18.157-18.161-18.157h-18.84c-3.97 4.827-9.861 7.636-16.239 7.636s-12.26-2.808-16.229-7.636h-18.841c-10.01 0-18.161 8.146-18.161 18.157v30.118h106.472zM310.691 77.726c-45.191 0-81.962 36.771-81.962 81.971a81.951 81.951 0 0 0 18.73 52.128v26.596c0 2.76 2.24 5.001 5 5.001h116.473c2.76 0 4.995-2.24 4.995-5.001v-26.596a81.943 81.943 0 0 0 18.73-52.128c0-45.201-36.77-81.971-81.966-81.971zm143.7 102.614v-41.289l-25.874-5.102a4.997 4.997 0 0 1-3.647-2.992l-13.132-31.655a5.008 5.008 0 0 1 .463-4.701l14.698-21.914-29.198-29.198-21.914 14.693a4.974 4.974 0 0 1-4.697.467l-31.659-13.127a5.032 5.032 0 0 1-2.991-3.652l-5.101-25.869H290.05l-5.101 25.869a5.027 5.027 0 0 1-2.987 3.652l-31.659 13.127a4.985 4.985 0 0 1-4.702-.467l-21.909-14.693-29.202 29.198 14.693 21.914a4.984 4.984 0 0 1 .467 4.701l-13.127 31.655a5.012 5.012 0 0 1-3.651 2.992l-25.869 5.102v41.289l25.869 5.102a5.01 5.01 0 0 1 3.651 2.992l13.127 31.655a4.984 4.984 0 0 1-.467 4.701l-14.693 21.914 29.202 29.198 21.909-14.698a5.03 5.03 0 0 1 2.789-.848h124.609c.992 0 1.961.299 2.789.848l21.914 14.698 29.198-29.198-14.698-21.914a5.01 5.01 0 0 1-.463-4.701l13.132-31.655a4.997 4.997 0 0 1 3.647-2.992l25.874-5.102zm5.969-50.307-27.281-5.381-11.08-26.707 15.502-23.099a4.999 4.999 0 0 0-.621-6.32l-35.012-35.012a4.992 4.992 0 0 0-6.32-.617L372.439 48.39l-26.707-11.08-5.371-27.275a5.012 5.012 0 0 0-4.909-4.032H285.94a5.002 5.002 0 0 0-4.909 4.032L275.65 37.31l-26.702 11.08-23.109-15.493a4.993 4.993 0 0 0-6.32.617l-35.008 35.012a4.997 4.997 0 0 0-.621 6.32l15.497 23.099-11.08 26.707-27.28 5.381a5.004 5.004 0 0 0-4.027 4.904v49.517a5.003 5.003 0 0 0 4.027 4.904l27.28 5.381 11.08 26.707-15.497 23.099a5 5 0 0 0 .621 6.32l35.008 35.012a5 5 0 0 0 6.32.617l24.072-16.138h121.57l24.067 16.138a4.996 4.996 0 0 0 6.321-.617l35.012-35.012a4.997 4.997 0 0 0 .621-6.32L422 221.446l11.08-26.707 27.281-5.381a5.004 5.004 0 0 0 4.032-4.904v-49.517a5.003 5.003 0 0 0-4.032-4.904zM440.701 344.36l-131.33 61.498c-24.631 10.56-30.142 10.391-50.63 9.769-3.3-.101-6.961-.212-11.113-.294-29.627-.573-50.1 1.228-80.319 30.267L110.6 380.667c23.788-14.317 38.283-24.25 60.824-43.934 14.018-12.251 29.217-24.029 47.33-21.808 30.378 3.719 41.549 4.759 73.314 5.602 16.861.448 23.364 9.259 23.812 17.347.279 4.957-1.142 8.922-4.36 12.125-13.551 13.498-54.33 11.027-73.922 9.842-3.237-.197-6.036-.366-8.349-.458-2.731-.096-5.077 2.047-5.193 4.807a5.006 5.006 0 0 0 4.803 5.188c2.201.082 4.952.251 8.131.443 24.26 1.469 64.851 3.926 81.591-12.737a25.654 25.654 0 0 0 4.046-5.212c22.371-4.206 74.292-20.416 105.822-34.444 11.388-5.068 21.61-.636 24.91 6.59 3.348 7.322-1.503 15.117-12.66 20.339zM142.683 493.946l30.388-26.548-83.012-95.041-30.387 26.548 83.012 95.041zM424.38 308.297c-28.74 12.785-74.64 27.401-98.519 32.7.077-1.194.077-2.428.01-3.685-.679-11.957-9.87-26.148-33.528-26.779-31.342-.833-42.373-1.86-72.38-5.535-22.174-2.717-40.08 11.07-55.12 24.207-22.444 19.602-36.742 29.309-60.934 43.818l-9.606-11.007a5.009 5.009 0 0 0-3.435-1.701 5.042 5.042 0 0 0-3.618 1.224l-37.931 33.124a5.013 5.013 0 0 0-1.7 3.43 4.985 4.985 0 0 0 1.233 3.628l89.588 102.57a5 5 0 0 0 3.42 1.7c.12.005.231.01.342.01 1.209 0 2.38-.434 3.29-1.233l37.917-33.124a4.998 4.998 0 0 0 .482-7.057l-10.001-11.441c26.659-25.773 43.929-28.388 73.541-27.81 4.119.082 7.741.188 10.998.289 21.124.641 28.23.858 54.961-10.608.053-.019.101-.043.149-.067l131.402-61.531c18.691-8.748 22.261-23.157 17.52-33.548-5.323-11.653-21.023-19.163-38.081-11.571z" fill="#000000" opacity="1" data-original="#000000" class=""></path></g></g></svg>