<svg xmlns="http://www.w3.org/2000/svg" version="1.1" xmlns:xlink="http://www.w3.org/1999/xlink" width="512" height="512" x="0" y="0" viewBox="0 0 100 100" style="enable-background:new 0 0 512 512" xml:space="preserve" class=""><g><path fill="#e5f2ff" fill-rule="evenodd" d="M84.1 56.8V17.9H10.6v54.3c0 1.5 1.2 2.7 2.7 2.7h40.8z" clip-rule="evenodd" opacity="1" data-original="#e5f2ff" class=""></path><path fill="#a79ba7" fill-rule="evenodd" d="M10.6 19.7h75.5c1.2 0 2.1-.9 2.1-2.1v-5.9c0-1.1-.9-2.1-2.1-2.1H8.6c-1.1 0-2.1.9-2.1 2.1v5.9c0 1.2.9 2.1 2.1 2.1z" clip-rule="evenodd" opacity="1" data-original="#a79ba7"></path><path fill="#b1dbfc" fill-rule="evenodd" d="M81.7 78.5c5.9-5.9 6.7-15 2.5-21.7-.7-1.1-1.5-2.1-2.5-3.1-6.9-6.9-18-6.9-24.8 0-5.7 5.7-6.7 14.5-2.8 21.2.8 1.3 1.7 2.5 2.8 3.6 6.8 6.9 17.9 6.9 24.8 0z" clip-rule="evenodd" opacity="1" data-original="#b1dbfc" class=""></path><path fill="#caf598" fill-rule="evenodd" d="M45.2 44c0-7.8-6.3-14.1-14.1-14.1V44h11.4z" clip-rule="evenodd" opacity="1" data-original="#caf598"></path><path fill="#f7e679" fill-rule="evenodd" d="M31.1 55.4c6.3 0 11.4-5.1 11.4-11.4H31.1V32.6c-6.3 0-11.4 5.1-11.4 11.4s5.1 11.4 11.4 11.4z" clip-rule="evenodd" opacity="1" data-original="#f7e679" class=""></path><path fill="#cdd9e6" fill-rule="evenodd" d="M84.1 56.8V19.7H73.5v29.4c3 .7 5.8 2.3 8.2 4.6.9 1 1.7 2 2.4 3.1z" clip-rule="evenodd" opacity="1" data-original="#cdd9e6"></path><path fill="#877f87" fill-rule="evenodd" d="M88.2 17.6v-5.9c0-1.1-.9-2.1-2.1-2.1H75.5c1.2 0 2.1.9 2.1 2.1v6.2c-.2 1-1 1.8-2.1 1.8h10.6c1.2 0 2.1-.9 2.1-2.1z" clip-rule="evenodd" opacity="1" data-original="#877f87"></path><path fill="#a7cce8" fill-rule="evenodd" d="M81.7 78.5c5.9-5.9 6.7-15 2.5-21.7-.7-1.1-1.5-2.1-2.5-3.1-2.3-2.3-5.2-3.9-8.2-4.6-2.8-.7-5.8-.7-8.7 0 2.9.8 5.7 2.3 8 4.6 2.1 2.1 3.6 4.6 4.4 7.2 1.8 6 .4 12.8-4.4 17.6-2.3 2.3-5.1 3.8-8 4.6 5.9 1.5 12.3 0 16.9-4.6z" clip-rule="evenodd" opacity="1" data-original="#a7cce8"></path><path d="M94.6 89.3 83.7 78.5c5.3-6.3 6-15.2 1.9-22.1V21.2h.5c2 0 3.6-1.6 3.6-3.6v-5.9c0-2-1.6-3.6-3.6-3.6H8.6c-2 0-3.6 1.6-3.6 3.6v5.9c0 2 1.6 3.6 3.6 3.6h.5v51c0 2.3 1.9 4.2 4.2 4.2h40c.7 1.1 1.6 2.2 2.6 3.2 3.7 3.7 8.6 5.6 13.5 5.6 4.4 0 8.8-1.5 12.4-4.6l10.8 10.8c.3.3.7.4 1.1.4s.8-.1 1.1-.4c.3-.6.3-1.5-.2-2.1zM8 17.6v-5.9c0-.3.3-.6.6-.6h77.6c.3 0 .6.3.6.6v5.9c0 .3-.3.6-.6.6H8.6c-.3 0-.6-.3-.6-.6zm5.3 55.8c-.6 0-1.2-.5-1.2-1.2v-51h70.5v31.4c-3.6-3.5-8.3-5.5-13.4-5.5s-9.9 2-13.5 5.6c-5.6 5.6-7 13.8-4.1 20.7zm44.6 4.1c-6.3-6.3-6.3-16.4 0-22.7 3-3 7.1-4.7 11.3-4.7 4.3 0 8.3 1.7 11.3 4.7 6.3 6.3 6.3 16.4 0 22.7-6.1 6.2-16.3 6.2-22.6 0z" fill="#000000" opacity="1" data-original="#000000"></path><path d="M31.1 28.4c-.8 0-1.5.7-1.5 1.5v1.3c-6.4.7-11.4 6.2-11.4 12.8 0 7.1 5.8 12.9 12.9 12.9 6.6 0 12.1-5 12.8-11.4h1.3c.8 0 1.5-.7 1.5-1.5 0-8.6-7-15.6-15.6-15.6zm0 25.5c-5.5 0-9.9-4.5-9.9-9.9 0-5 3.7-9.1 8.4-9.8V44c0 .8.7 1.5 1.5 1.5h9.8c-.7 4.8-4.8 8.4-9.8 8.4zm1.5-11.4v-11c5.8.7 10.4 5.3 11 11zM42.8 63.2H19.7c-.8 0-1.5.7-1.5 1.5s.7 1.5 1.5 1.5h23.2c.8 0 1.5-.7 1.5-1.5s-.7-1.5-1.6-1.5zM76 58.6c-.8 0-1.5.7-1.5 1.5v9.8h-4.6v-6.2c0-.8-.7-1.5-1.5-1.5s-1.5.7-1.5 1.5v6.2h-4.6v-3.3c0-.8-.7-1.5-1.5-1.5s-1.5.7-1.5 1.5v4.8c0 .8.7 1.5 1.5 1.5H76c.8 0 1.5-.7 1.5-1.5V60.1c0-.9-.7-1.5-1.5-1.5zM54.9 40.1c.8 0 1.5-.7 1.5-1.5s-.7-1.5-1.5-1.5-1.5.7-1.5 1.5.7 1.5 1.5 1.5zM61.5 31.4H75c.8 0 1.5-.7 1.5-1.5s-.7-1.5-1.5-1.5H61.5c-.8 0-1.5.7-1.5 1.5s.7 1.5 1.5 1.5zM54.9 31.4c.8 0 1.5-.7 1.5-1.5s-.7-1.5-1.5-1.5-1.5.7-1.5 1.5.7 1.5 1.5 1.5zM61.5 40.1H75c.8 0 1.5-.7 1.5-1.5s-.7-1.5-1.5-1.5H61.5c-.8 0-1.5.7-1.5 1.5s.7 1.5 1.5 1.5z" fill="#000000" opacity="1" data-original="#000000"></path></g></svg>