<svg xmlns="http://www.w3.org/2000/svg" version="1.1" xmlns:xlink="http://www.w3.org/1999/xlink" width="512" height="512" x="0" y="0" viewBox="0 0 66 66" style="enable-background:new 0 0 512 512" xml:space="preserve"><g><path fill="#7cb5e8" d="M38.22 24a8.253 8.253 0 0 1 2.99 7.49c-.47 3.73-3.52 6.74-7.25 7.16-5 .56-9.24-3.34-9.24-8.22 0-2.59 1.19-4.91 3.06-6.42H12c-2.21 0-4 1.79-4 4v24h50V28c0-2.21-1.79-4-4-4z" opacity="1" data-original="#7cb5e8"></path><path fill="#fff" d="M54 24H38.22a8.253 8.253 0 0 1 2.99 7.49c-.25 1.99-1.25 3.78-2.69 5.08 1.94 3.9 5.96 6.59 10.62 6.59H58V28c0-2.21-1.79-4-4-4z" opacity=".3"></path><path fill="#fff" d="M50.75 27.15h4.48v1.56A2.77 2.77 0 0 0 58 31.48v-3.51c-.01-2.2-1.8-3.98-4-3.98h-6.41c0 1.75 1.41 3.16 3.16 3.16z" opacity=".5"></path><path fill="#e2e2e2" d="M54 58H12c-2.21 0-4-1.79-4-4v-2h50v2c0 2.21-1.79 4-4 4z"></path><path fill="#fff" d="M38 55h20v-3H34.14c.45 1.72 2 3 3.86 3z" opacity=".5"></path><path fill="#4e6575" d="M44.12 27.73c-.34-1.41-.94-2.72-1.75-3.87l1.87-2.41-2.7-2.7-2.51 1.95c-1.13-.7-2.38-1.23-3.73-1.5l-.4-3.2h-3.82l-.4 3.2c-1.35.28-2.6.8-3.73 1.5l-2.51-1.95-2.7 2.7 1.87 2.41c-.81 1.15-1.41 2.46-1.75 3.87l-2.86.36v3.82l2.7.34c.25 1.56.81 3 1.62 4.28l-1.57 2.02 2.7 2.7 1.92-1.49c1.3.93 2.8 1.59 4.43 1.91l.29 2.33h3.82l.29-2.34c1.63-.32 3.13-.98 4.43-1.91l1.92 1.49 2.7-2.7-1.57-2.02c.81-1.28 1.37-2.73 1.62-4.28l2.7-.34v-3.82zM33 36.36a5.94 5.94 0 1 1 .001-11.881A5.94 5.94 0 0 1 33 36.36zM24 58h18v6H24z"></path><path fill="#e2e2e2" d="M35 61.7h7V58H31.03c.16 2.07 1.86 3.7 3.97 3.7z" opacity=".3"></path><circle cx="59" cy="18" r="3" fill="#ffab03"></circle><circle cx="52" cy="10" r="3" fill="#ef4a51"></circle><circle cx="7" cy="18" r="3" fill="#ffab03"></circle><circle cx="14" cy="10" r="3" fill="#ef4a51"></circle><circle cx="33" cy="5" r="3" fill="#8aba55"></circle><path fill="#fff" d="M59 15c-.61 0-1.18.18-1.65.5-.09.29-.15.58-.15.9 0 1.66 1.34 3 3 3 .61 0 1.18-.18 1.65-.5.09-.29.15-.59.15-.9 0-1.66-1.34-3-3-3z" opacity=".3"></path><path fill="#e2e2e2" d="M52 7c-.61 0-1.18.18-1.65.5-.09.29-.15.58-.15.9 0 1.66 1.34 3 3 3 .61 0 1.18-.18 1.65-.5.09-.29.15-.59.15-.9 0-1.66-1.34-3-3-3z" opacity=".3"></path><path fill="#fff" d="M7 15c-.61 0-1.18.18-1.65.5-.09.29-.15.58-.15.9 0 1.66 1.34 3 3 3 .61 0 1.18-.18 1.65-.5.09-.29.15-.59.15-.9 0-1.66-1.34-3-3-3z" opacity=".3"></path><path fill="#e2e2e2" d="M14 7c-.61 0-1.18.18-1.65.5-.09.29-.15.58-.15.9 0 1.66 1.34 3 3 3 .61 0 1.18-.18 1.65-.5.09-.29.15-.59.15-.9 0-1.66-1.34-3-3-3z" opacity=".3"></path><path fill="#fff" d="M33 2c-.61 0-1.18.18-1.65.5-.09.29-.15.58-.15.9 0 1.66 1.34 3 3 3 .61 0 1.18-.18 1.65-.5.09-.29.15-.59.15-.9 0-1.66-1.34-3-3-3z" opacity=".3"></path><path fill="#e2e2e2" d="m42.38 23.86 1.87-2.41-2.7-2.7-2.51 1.95c-1.13-.7-2.38-1.23-3.73-1.5l-.4-3.2h-3.82l-.4 3.2c-1.35.28-2.6.8-3.73 1.5l-2.45-1.91c-.17.85-.26 1.73-.26 2.64 0 3.14 1.07 6.03 2.85 8.35.32-2.98 2.84-5.3 5.9-5.3a5.94 5.94 0 0 1 5.94 5.94c0 1.9-.89 3.58-2.28 4.67.43.04.87.07 1.32.07 2.13 0 4.14-.5 5.94-1.37a10 10 0 0 0 .37-1.55l2.52-.32c.06-.05.12-.11.18-.17v-3.68l-2.88-.36c-.33-1.39-.92-2.7-1.73-3.85z" opacity=".3"></path><path d="M34.91 44.75h-3.82c-.38 0-.7-.28-.74-.66l-.23-1.81c-1.32-.32-2.57-.86-3.72-1.6l-1.49 1.16c-.3.23-.72.21-.99-.06l-2.7-2.7a.749.749 0 0 1-.06-.99l1.25-1.61c-.63-1.11-1.09-2.3-1.35-3.55l-2.16-.27a.753.753 0 0 1-.66-.74V28.1c0-.38.28-.7.66-.74l2.38-.3c.32-1.12.79-2.18 1.42-3.16l-1.54-1.98c-.23-.3-.21-.72.06-.99l2.7-2.7c.27-.27.69-.29.99-.06l2.11 1.64c.95-.54 1.96-.95 2.99-1.21l.33-2.68c.05-.38.37-.66.74-.66h3.82c.38 0 .7.28.74.66l.33 2.68c1.04.26 2.04.67 2.99 1.21l2.11-1.64c.3-.23.72-.21.99.06l2.7 2.7c.27.27.29.69.06.99l-1.54 1.98c.62.98 1.1 2.04 1.42 3.16l2.37.3c.38.05.66.37.66.74v3.82c0 .38-.28.7-.66.74l-2.16.27a11.95 11.95 0 0 1-1.35 3.55l1.25 1.61c.23.3.21.72-.06.99l-2.7 2.7c-.27.27-.69.29-.99.06l-1.49-1.16c-1.15.74-2.4 1.28-3.72 1.6l-.23 1.81c-.01.38-.33.66-.71.66zm-3.16-1.5h2.49l.21-1.68c.04-.32.28-.58.6-.64 1.49-.29 2.88-.89 4.14-1.78.27-.19.63-.18.9.02l1.4 1.09 1.76-1.76-1.16-1.5a.753.753 0 0 1-.04-.86c.77-1.22 1.28-2.57 1.51-4 .05-.33.32-.58.65-.63l2.05-.26v-2.49l-2.22-.28a.757.757 0 0 1-.64-.57c-.32-1.31-.86-2.53-1.63-3.62a.75.75 0 0 1 .02-.89l1.47-1.88-1.76-1.76-2 1.54c-.25.19-.59.21-.86.04a10.74 10.74 0 0 0-3.48-1.4.733.733 0 0 1-.59-.64l-.32-2.55h-2.49l-.32 2.55c-.04.32-.28.58-.59.64-1.22.25-2.39.72-3.48 1.4-.27.17-.61.15-.86-.04l-1.99-1.55-1.76 1.76 1.47 1.88c.2.26.21.62.02.89-.77 1.09-1.32 2.31-1.63 3.62-.07.3-.33.53-.64.57l-2.22.28v2.49l2.05.26c.33.04.59.3.65.63.23 1.43.74 2.78 1.51 4 .17.27.15.61-.04.86l-1.16 1.5 1.76 1.76 1.4-1.09c.26-.2.63-.21.9-.02a10.6 10.6 0 0 0 4.14 1.78c.32.06.56.32.6.64z"></path><path d="M33 37.11c-3.69 0-6.69-3-6.69-6.69s3-6.69 6.69-6.69 6.69 3 6.69 6.69-3 6.69-6.69 6.69zm0-11.88c-2.86 0-5.19 2.33-5.19 5.19s2.33 5.19 5.19 5.19 5.19-2.33 5.19-5.19-2.33-5.19-5.19-5.19zM54 58.75H12c-2.62 0-4.75-2.13-4.75-4.75v-2c0-.41.34-.75.75-.75h50c.41 0 .75.34.75.75v2c0 2.62-2.13 4.75-4.75 4.75zm-45.25-6V54c0 1.79 1.46 3.25 3.25 3.25h42c1.79 0 3.25-1.46 3.25-3.25v-1.25z"></path><path d="M42 64.75H24c-.41 0-.75-.34-.75-.75v-6c0-.41.34-.75.75-.75h18c.41 0 .75.34.75.75v6c0 .41-.34.75-.75.75zm-17.25-1.5h16.5v-4.5h-16.5z"></path><path d="M46 64.75H20c-.41 0-.75-.34-.75-.75s.34-.75.75-.75h26c.41 0 .75.34.75.75s-.34.75-.75.75zM33 13.75c-.41 0-.75-.34-.75-.75V8.09c0-.41.34-.75.75-.75s.75.34.75.75V13c0 .41-.34.75-.75.75zM44.03 17.75c-.41 0-.75-.34-.75-.75v-7c0-.41.34-.75.75-.75H49c.41 0 .75.34.75.75s-.34.75-.75.75h-4.22V17c0 .41-.34.75-.75.75zM52 30.75h-2c-.41 0-.75-.34-.75-.75s.34-.75.75-.75h1.25V18c0-.41.34-.75.75-.75h4c.41 0 .75.34.75.75s-.34.75-.75.75h-3.25V30c0 .41-.34.75-.75.75z"></path><path d="M59 21.75c-2.07 0-3.75-1.68-3.75-3.75s1.68-3.75 3.75-3.75 3.75 1.68 3.75 3.75-1.68 3.75-3.75 3.75zm0-6c-1.24 0-2.25 1.01-2.25 2.25s1.01 2.25 2.25 2.25 2.25-1.01 2.25-2.25-1.01-2.25-2.25-2.25zM52 13.75c-2.07 0-3.75-1.68-3.75-3.75S49.93 6.25 52 6.25s3.75 1.68 3.75 3.75-1.68 3.75-3.75 3.75zm0-6c-1.24 0-2.25 1.01-2.25 2.25s1.01 2.25 2.25 2.25 2.25-1.01 2.25-2.25S53.24 7.75 52 7.75zM21.97 17.75c-.41 0-.75-.34-.75-.75v-6.25H17c-.41 0-.75-.34-.75-.75s.34-.75.75-.75h4.97c.41 0 .75.34.75.75v7c0 .41-.33.75-.75.75zM16 30.75h-2c-.41 0-.75-.34-.75-.75V18.75H10c-.41 0-.75-.34-.75-.75s.34-.75.75-.75h4c.41 0 .75.34.75.75v11.25H16c.41 0 .75.34.75.75s-.34.75-.75.75z"></path><path d="M7 21.75c-2.07 0-3.75-1.68-3.75-3.75S4.93 14.25 7 14.25s3.75 1.68 3.75 3.75S9.07 21.75 7 21.75zm0-6c-1.24 0-2.25 1.01-2.25 2.25S5.76 20.25 7 20.25 9.25 19.24 9.25 18 8.24 15.75 7 15.75zM14 13.75c-2.07 0-3.75-1.68-3.75-3.75S11.93 6.25 14 6.25s3.75 1.68 3.75 3.75-1.68 3.75-3.75 3.75zm0-6c-1.24 0-2.25 1.01-2.25 2.25s1.01 2.25 2.25 2.25 2.25-1.01 2.25-2.25S15.24 7.75 14 7.75zM33 8.75c-2.07 0-3.75-1.68-3.75-3.75S30.93 1.25 33 1.25 36.75 2.93 36.75 5 35.07 8.75 33 8.75zm0-6c-1.24 0-2.25 1.01-2.25 2.25S31.76 7.25 33 7.25 35.25 6.24 35.25 5 34.24 2.75 33 2.75zM58 52.75H8c-.41 0-.75-.34-.75-.75V28c0-2.62 2.13-4.75 4.75-4.75h8.01c.41 0 .75.34.75.75s-.34.75-.75.75H12c-1.79 0-3.25 1.46-3.25 3.25v23.25h48.5V28c0-1.79-1.46-3.25-3.25-3.25h-8.01c-.41 0-.75-.34-.75-.75s.34-.75.75-.75H54c2.62 0 4.75 2.13 4.75 4.75v24c0 .41-.34.75-.75.75z"></path></g></svg>