<svg xmlns="http://www.w3.org/2000/svg" version="1.1" xmlns:xlink="http://www.w3.org/1999/xlink" width="512" height="512" x="0" y="0" viewBox="0 0 512 512" style="enable-background:new 0 0 512 512" xml:space="preserve" class=""><g><g fill-rule="evenodd" clip-rule="evenodd"><path fill="#fedf30" d="m243.04 250.36 1.29-14.35 14.09-3.03c33.07-7.11 70.76-22.73 96.05-45.62l13.16-11.91 13.16 11.91c25.27 22.87 62.95 38.52 96 45.62l14.08 3.03 1.34 14.34c4.77 51.24 1.85 107.34-26.03 152.22-21.65 34.86-53.7 55.78-91.5 70.35l-7.04 2.71-7.08-2.71c-37.89-14.5-69.84-35.47-91.51-70.35-27.84-44.79-30.59-101.08-26.01-152.21z" opacity="1" data-original="#fedf30" class=""></path><path fill="#87d4ed" d="M191.8 357.25c16.56 0 33.14-.69 49.63-2.16l3.34-.3.88 3.23c4.47 16.44 10.97 32.18 19.99 46.66 8.99 14.44 19.96 27.02 33.03 37.91l6.21 5.17-7.87 1.8c-16.31 3.74-33 6.25-49.64 7.94-18.44 1.88-37.03 2.75-55.57 2.75-22.33 0-44.78-1.22-66.93-4.01-19.06-2.4-38.39-5.97-56.79-11.58C53.84 440.32 18 427.77 18 408.73v-93.42l6.62 5.72c11.19 9.68 28.3 16.18 42.28 20.44 18.53 5.64 38.01 9.25 57.2 11.68 22.4 2.85 45.11 4.1 67.7 4.1z" opacity="1" data-original="#87d4ed" class=""></path><path fill="#f1f1f2" d="M238.78 252.98c-2.61 30.91-2.39 63.03 4.06 93.48l.94 4.43-4.51.38a561.163 561.163 0 0 1-47.46 1.99c-22.33 0-44.78-1.22-66.93-4.01-19.06-2.4-38.39-5.97-56.79-11.57-14.24-4.33-50.08-16.89-50.08-35.93v-93.42l6.62 5.73c11.18 9.68 28.31 16.17 42.28 20.43 18.53 5.64 38.01 9.26 57.2 11.68 22.41 2.83 45.12 4.08 67.7 4.08 14.24 0 28.49-.52 42.69-1.59l4.68-.35z" opacity="1" data-original="#f1f1f2" class=""></path><path fill="#87d4ed" d="M191.8 143.22c22.54 0 45.21-1.25 67.58-4.09 19.2-2.43 38.67-6.05 57.21-11.7 14.03-4.27 31.16-10.77 42.41-20.46l6.61-5.69v70.59l-13.83 12.53c-24.82 22.49-61.72 37.72-94.17 44.68l-15.54 3.33c-.84.18-1.49.86-1.55 1.72l-.93 10.12-3.36.27c-14.77 1.17-29.6 1.73-44.41 1.73-22.33 0-44.78-1.23-66.93-4.01-19.06-2.4-38.39-5.98-56.79-11.58-14.23-4.33-50.08-16.89-50.08-35.92v-93.46l6.61 5.69c11.25 9.69 28.38 16.19 42.41 20.46 18.53 5.64 38.01 9.26 57.21 11.7 22.34 2.83 45 4.09 67.55 4.09z" opacity="1" data-original="#87d4ed" class=""></path><path fill="#f1f1f2" d="M68.16 123.61C53.96 119.29 18 106.72 18 87.72s35.96-31.56 50.16-35.88c18.41-5.61 37.75-9.2 56.82-11.6 22.12-2.79 44.53-4.02 66.82-4.02s44.7 1.23 66.82 4.02c19.08 2.41 38.41 6 56.82 11.6 14.2 4.32 50.16 16.89 50.16 35.88 0 19-35.96 31.57-50.16 35.89-18.41 5.61-37.75 9.19-56.82 11.6-22.12 2.79-44.53 4.01-66.82 4.01s-44.7-1.23-66.82-4.01c-19.07-2.41-38.41-6-56.82-11.6z" opacity="1" data-original="#f1f1f2" class=""></path><path fill="#87d4ed" d="M289.4 389.91c18.29 29.46 45.7 47.11 77.47 59.7.24.09.48.14.74.14s.5-.04.74-.14c31.8-12.58 59.12-30.24 77.43-59.7 24.08-38.74 26.48-88.47 22.89-132.71a2 2 0 0 0-1.54-1.78c-34.24-7.98-71.2-23.76-98.25-46.57-.74-.62-1.84-.62-2.58 0-27.08 22.8-63.98 38.59-98.25 46.57a2 2 0 0 0-1.54 1.78c-3.59 44.24-1.17 93.96 22.89 132.71z" opacity="1" data-original="#87d4ed" class=""></path><path fill="#87d4ed" d="M273.22 258.3c32.41-8.08 65.64-22.4 91.91-43.29l2.49-1.98 2.49 1.98c26.27 20.89 59.5 35.21 91.91 43.29l2.82.7.21 2.9c2.98 42.09.21 89.11-22.64 125.89-17.34 27.91-43.26 44.99-73.27 57.21l-1.51.61-1.51-.61c-30-12.21-55.94-29.3-73.27-57.21-22.85-36.8-25.62-83.8-22.64-125.89l.21-2.9z" opacity="1" data-original="#87d4ed" class=""></path><path fill="#f1f1f2" d="M315.45 340.12c-3.28-3.28-3.28-8.59.01-11.86a8.402 8.402 0 0 1 5.93-2.44c2.22 0 4.37.88 5.94 2.45l21.84 21.89c.78.79 2.07.78 2.85 0l55.86-55.86c3.23-3.29 8.56-3.28 11.84-.02 3.29 3.26 3.28 8.57.01 11.85l-69.14 69.13z" opacity="1" data-original="#f1f1f2" class=""></path><path d="m416.91 303.3-66.31 66.3-32.32-32.31a4.358 4.358 0 0 1 0-6.19c.86-.85 1.96-1.28 3.11-1.28 1.1 0 2.25.43 3.11 1.28l21.84 21.89c2.37 2.34 6.18 2.34 8.51 0l55.88-55.87c1.68-1.71 4.46-1.71 6.18 0a4.364 4.364 0 0 1 0 6.18zm-14.69-14.67-51.62 51.63-17.63-17.64c-6.38-6.39-16.77-6.39-23.15 0-6.38 6.38-6.38 16.77 0 23.15l36.53 36.56a6.083 6.083 0 0 0 4.25 1.76c1.55 0 3.07-.59 4.25-1.76l70.52-70.54c6.42-6.39 6.42-16.77 0-23.16-6.38-6.38-16.77-6.38-23.15 0zM439 385.68c18.57-29.92 25.81-70.35 22.05-123.5-35.92-8.95-68.76-24.43-93.43-44.04-24.67 19.61-57.51 35.09-93.43 44.04-3.76 53.15 3.44 93.58 22.05 123.5 15.01 24.22 37.76 41.93 71.38 55.61 33.62-13.68 56.32-31.39 71.38-55.61zm29.04-134.15c-37.14-8.66-72.36-25.33-96.58-45.73-2.21-1.88-5.48-1.88-7.73 0-24.22 20.4-59.4 37.07-96.58 45.73-2.54.59-4.38 2.75-4.62 5.35-4.66 57.95 3.03 102.15 23.48 135.14 16.81 27.03 42.05 46.52 79.4 61.31.7.28 1.43.42 2.21.42.74 0 1.47-.14 2.21-.42 37.35-14.79 62.55-34.28 79.36-61.31 20.49-32.99 28.18-77.2 23.48-135.14a6 6 0 0 0-4.63-5.35zm-5.28 148.93c22.95-36.9 31.25-85.89 25.44-149.74l-1.06-11.42-11.21-2.41c-38.08-8.17-74.7-25.58-97.85-46.57l-10.47-9.48-10.47 9.48c-23.19 20.99-59.76 38.4-97.89 46.57l-11.21 2.41-1.02 11.42c-5.85 63.85 2.5 112.83 25.4 149.74 19.06 30.66 47.49 52.5 89.54 68.73l5.65 2.16 5.6-2.16c42.06-16.23 70.53-38.07 89.55-68.73zm-270.96 55.8c-46.39 0-89.91-5.47-122.56-15.41-29.58-9.01-47.25-21-47.25-32.1v-84.67c9.33 8.07 24.01 15.23 43.73 21.24 33.75 10.27 78.54 15.93 126.07 15.93 17.02 0 33.83-.74 49.99-2.18 4.79 17.61 11.58 33.48 20.45 47.73 9.2 14.78 20.37 27.63 33.87 38.87-29.89 6.85-66.38 10.59-104.3 10.59zM21.99 217.07v84.67c0 11.1 17.67 23.09 47.25 32.1 32.64 9.93 76.17 15.41 122.56 15.41 16.04 0 31.87-.67 47.12-1.97-5.81-27.42-7.16-58.82-4.13-94.64-13.99 1.05-28.43 1.6-42.99 1.6-47.53 0-92.33-5.66-126.07-15.94-19.72-6-34.41-13.16-43.74-21.23zm0-107.07c9.37 8.07 24.05 15.24 43.85 21.26 33.79 10.3 78.54 15.96 125.95 15.96s92.16-5.66 125.95-15.96c19.8-6.02 34.48-13.19 43.85-21.26v60.09l-12.52 11.34c-21.68 19.63-56.21 35.98-92.33 43.73l-15.54 3.33c-2.58.55-4.5 2.7-4.7 5.32l-.61 6.71a562.54 562.54 0 0 1-44.1 1.72c-46.39 0-89.91-5.48-122.56-15.42-29.58-9-47.25-21-47.25-32.09V110zm47.33-54.34c-29.62 9.02-47.33 21-47.33 32.06s17.71 23.04 47.33 32.06c32.73 9.96 76.21 15.44 122.47 15.44 46.27 0 89.75-5.48 122.47-15.44 29.62-9.02 47.33-21 47.33-32.06s-17.71-23.04-47.33-32.06c-32.73-9.96-76.21-15.45-122.47-15.45S102.05 45.7 69.32 55.66zm430.83 193.97-1.43-15.82a6.024 6.024 0 0 0-4.75-5.32l-15.5-3.33c-36.16-7.75-70.69-24.1-92.37-43.73l-12.52-11.34V87.72c0-17.37-19.31-32.43-55.84-43.54-33.83-10.3-78.54-15.97-125.95-15.97S99.63 33.88 65.84 44.18C29.32 55.29 10.01 70.35 10.01 87.72v321.03c0 17.41 19.27 32.48 55.72 43.58 33.75 10.27 78.54 15.93 126.07 15.93 42.91 0 84.19-4.72 116.62-13.28 14.07 9.74 30.39 18.13 49.25 25.4l7.77 3c.7.27 1.43.4 2.17.4s1.43-.13 2.13-.4l7.77-3c44.63-17.21 74.94-40.59 95.44-73.58 24.38-39.21 33.26-90.62 27.2-157.17z" fill="#000000" opacity="1" data-original="#000000" class=""></path></g></g></svg>