<svg xmlns="http://www.w3.org/2000/svg" version="1.1" xmlns:xlink="http://www.w3.org/1999/xlink" width="512" height="512" x="0" y="0" viewBox="0 0 100 100" style="enable-background:new 0 0 512 512" xml:space="preserve" class=""><g><path fill="#a2d5f2" d="M16.18 29.408a1 1 0 0 1 1-1h6.963a1 1 0 0 1 0 2H17.18a1 1 0 0 1-1-1zm-2.064 1a1 1 0 1 0 0-2 1 1 0 0 0 0 2zm3.064 5.082h6.963a1 1 0 0 0 0-2H17.18a1 1 0 0 0 0 2zm-3.064 0a1 1 0 1 0 0-2 1 1 0 0 0 0 2zm3.064 5.082h6.963a1 1 0 0 0 0-2H17.18a1 1 0 0 0 0 2zm-3.064 0a1 1 0 1 0 0-2 1 1 0 0 0 0 2zm3.064 5.082h6.963a1 1 0 0 0 0-2H17.18a1 1 0 0 0 0 2zm-3.064 0a1 1 0 1 0 0-2 1 1 0 0 0 0 2zm50.773 39.818h-7.258a1.042 1.042 0 1 0 0 2.084h7.258a1.042 1.042 0 1 0 0-2.084zm-10.452 0a1.042 1.042 0 1 0 0 2.084 1.042 1.042 0 0 0 0-2.084zm42.723 5.332a1 1 0 0 1-1 1H49.961a1 1 0 0 1-1-1v-3.29H11.266a4.15 4.15 0 0 1-4.146-4.146V16.431a4.15 4.15 0 0 1 4.146-4.146h44.028a4.15 4.15 0 0 1 4.146 4.146v43.974h3.308v-1.341a3.715 3.715 0 0 1 3.71-3.711h13.206a3.716 3.716 0 0 1 3.711 3.711v1.341H96.16a1 1 0 0 1 1 1v29.4zM64.748 60.402h16.627v-1.339c0-.943-.768-1.711-1.711-1.711H66.458c-.943 0-1.71.768-1.71 1.711zM48.961 85.514v-24.11a1 1 0 0 1 1-1h7.479V16.431a2.149 2.149 0 0 0-2.146-2.146H11.266a2.149 2.149 0 0 0-2.146 2.146v66.937c0 1.183.963 2.146 2.146 2.146zm2 4.29h17.993V75.715h-8.041c-4.148 0-7.807-2.126-9.952-5.343zm44.199-19.43c-2.145 3.216-5.803 5.341-9.951 5.341h-8.041v14.089H95.16zM19.129 22.111h28.303a1 1 0 1 0 0-2H19.129a1 1 0 1 0 0 2zm26.495 46.403c0 1.292-1.051 2.342-2.342 2.342s-2.342-1.05-2.342-2.342c0-.589.226-1.121.586-1.533l-3.656-8.474a2.329 2.329 0 0 1-.796-.166l-8.863 8.139c.069.223.114.454.114.692 0 1.292-1.051 2.342-2.342 2.342s-2.336-1.05-2.336-2.342c0-.469.157-.914.413-1.296l-2.383-4.05c-.067.006-.135.027-.202.027-.101 0-.196-.031-.295-.043l-5.163 7.969c.222.358.356.775.356 1.226 0 1.292-1.051 2.342-2.342 2.342s-2.342-1.05-2.342-2.342 1.051-2.342 2.342-2.342c.105 0 .205.018.306.031l5.153-7.954a2.335 2.335 0 0 1-.357-1.229c0-1.292 1.051-2.342 2.342-2.342s2.342 1.05 2.342 2.342c0 .472-.158.919-.416 1.301l2.377 4.04c.369-.032.736.022 1.076.158l8.869-8.145a2.338 2.338 0 0 1-.114-.692c0-1.292 1.051-2.342 2.342-2.342s2.342 1.05 2.342 2.342a2.32 2.32 0 0 1-.594 1.524l3.66 8.483a2.34 2.34 0 0 1 2.266 2.334zM35.87 35.172h16.271a1 1 0 0 1 1 1v8.482a1 1 0 0 1-1 1H35.87a1 1 0 0 1-1-1v-8.482a1 1 0 0 1 1-1z" opacity="1" data-original="#a2d5f2" class=""></path><path fill="#022e57" d="M14.039 27.363a1 1 0 0 1 1-1h6.963a1 1 0 0 1 0 2h-6.963a1 1 0 0 1-1-1zm-2.064 1a1 1 0 1 0 0-2 1 1 0 0 0 0 2zm3.064 5.082h6.963a1 1 0 0 0 0-2h-6.963a1 1 0 0 0 0 2zm-3.064 0a1 1 0 1 0 0-2 1 1 0 0 0 0 2zm3.064 5.082h6.963a1 1 0 0 0 0-2h-6.963a1 1 0 0 0 0 2zm-3.064 0a1 1 0 1 0 0-2 1 1 0 0 0 0 2zm3.064 5.082h6.963a1 1 0 0 0 0-2h-6.963a1 1 0 0 0 0 2zm-3.064 0a1 1 0 1 0 0-2 1 1 0 0 0 0 2zm50.773 39.818H55.49a1.042 1.042 0 1 0 0 2.084h7.258a1.042 1.042 0 1 0 0-2.084zm-10.452 0a1.042 1.042 0 1 0 0 2.084 1.042 1.042 0 0 0 0-2.084zm42.723 5.332a1 1 0 0 1-1 1H47.82a1 1 0 0 1-1-1v-3.29H9.126a4.15 4.15 0 0 1-4.146-4.146V14.386a4.15 4.15 0 0 1 4.146-4.146h44.027a4.15 4.15 0 0 1 4.146 4.146V58.36h3.308v-1.341a3.715 3.715 0 0 1 3.71-3.711h13.206a3.716 3.716 0 0 1 3.711 3.711v1.341h12.785a1 1 0 0 1 1 1v29.4zM62.607 58.357h16.627v-1.339c0-.943-.768-1.711-1.711-1.711H64.317c-.943 0-1.71.768-1.71 1.711zm30.412 2.002H48.82v1.432c.042 5.454 4.488 9.879 9.952 9.879h24.296c5.458 0 9.899-4.415 9.951-9.86zM73.027 73.67h-4.214v14.089h4.214zM46.82 83.469v-24.11a1 1 0 0 1 1-1h7.479V14.386a2.149 2.149 0 0 0-2.146-2.146H9.126a2.149 2.149 0 0 0-2.146 2.146v66.938c0 1.183.963 2.146 2.146 2.146H46.82zm2 4.29h17.993V73.67h-8.041c-4.148 0-7.807-2.126-9.952-5.343zm44.199-19.43c-2.145 3.216-5.803 5.341-9.951 5.341h-8.041v14.089h17.992zM16.988 20.066h28.303a1 1 0 1 0 0-2H16.988a1 1 0 1 0 0 2zm26.495 46.403c0 1.292-1.051 2.342-2.342 2.342s-2.342-1.05-2.342-2.342c0-.589.226-1.121.586-1.533l-3.656-8.474a2.329 2.329 0 0 1-.796-.166l-8.863 8.139c.069.223.114.454.114.692 0 1.292-1.051 2.342-2.342 2.342s-2.336-1.05-2.336-2.342c0-.469.157-.914.413-1.296l-2.383-4.05c-.067.006-.135.027-.202.027-.101 0-.196-.031-.295-.043l-5.163 7.969c.222.358.356.775.356 1.226 0 1.292-1.051 2.342-2.342 2.342s-2.342-1.05-2.342-2.342 1.051-2.342 2.342-2.342c.105 0 .205.018.306.031l5.153-7.954a2.335 2.335 0 0 1-.357-1.229c0-1.292 1.051-2.342 2.342-2.342s2.342 1.05 2.342 2.342c0 .472-.158.919-.416 1.301l2.377 4.04c.369-.032.736.022 1.076.158l8.869-8.145a2.338 2.338 0 0 1-.114-.692c0-1.292 1.051-2.342 2.342-2.342s2.342 1.05 2.342 2.342a2.32 2.32 0 0 1-.594 1.524l3.66 8.483a2.34 2.34 0 0 1 2.266 2.334zm-8.016-12.341c0 .12.056.199.09.235.056.06.225.149.395.077a.34.34 0 0 0 .199-.312.346.346 0 0 0-.342-.342.342.342 0 0 0-.342.342zm-16.476 3.339c0 .116.054.218.144.274.149.099.249.09.388.011a.34.34 0 0 0 .152-.285c0-.185-.156-.342-.342-.342s-.342.157-.342.342zM12.23 68.961a.342.342 0 1 0-.685.001.342.342 0 0 0 .685-.001zm11.952-3.833a.34.34 0 0 0-.09-.235.35.35 0 0 0-.431-.056.354.354 0 0 0-.157.291c0 .188.15.342.336.342a.342.342 0 0 0 .342-.342zm17.3 1.342a.342.342 0 0 0-.47-.316l-.01.007h-.005a.344.344 0 0 0-.198.309.342.342 0 0 0 .684 0zm-7.754-33.342h16.271a1 1 0 0 1 1 1v8.482a1 1 0 0 1-1 1H33.728a1 1 0 0 1-1-1v-8.482a1 1 0 0 1 1-1zm1 8.482h14.271v-6.482H34.728z" opacity="1" data-original="#022e57"></path></g></svg>