<svg xmlns="http://www.w3.org/2000/svg" version="1.1" xmlns:xlink="http://www.w3.org/1999/xlink" width="512" height="512" x="0" y="0" viewBox="0 0 66 66" style="enable-background:new 0 0 512 512" xml:space="preserve" class=""><g><path d="M54.3 19.93c-.48-4.91-4.64-8.76-9.67-8.76-1.75 0-3.42.46-4.9 1.33-2.8-4.96-7.99-8.11-13.51-8.11-8.53 0-15.47 7.02-15.53 15.67C5.19 21 1 25.88 1 31.55 1 37.97 6.23 43.2 12.66 43.2h1.25c.55 0 1-.45 1-1s-.45-1-1-1h-1.25C7.33 41.2 3 36.87 3 31.55c0-4.96 3.86-9.18 8.79-9.61.53-.05.93-.54.91-1.07-.01-.23-.02-.46-.02-.69 0-7.6 6.07-13.78 13.53-13.78 5.12 0 9.92 3.14 12.23 7.99.13.27.38.47.67.54s.6.01.84-.18a7.58 7.58 0 0 1 4.66-1.58c4.26 0 7.72 3.46 7.72 7.72 0 .55.45 1 1 1 5.32 0 9.66 4.33 9.66 9.66s-4.33 9.66-9.66 9.66h-1.21c-.55 0-1 .45-1 1s.45 1 1 1h1.21C59.77 43.2 65 37.97 65 31.55c0-6.11-4.72-11.13-10.7-11.62z" fill="#ffffff" opacity="1" data-original="#000000" class=""></path><path d="M31.07 44.11h-2.88V31.55c0-.55-.45-1-1-1h-7.75c-.55 0-1 .45-1 1v12.56h-2.88c-.37 0-.71.2-.88.53s-.15.72.05 1.03l7.75 11.62c.19.28.5.45.83.45s.65-.17.83-.45l7.75-11.62c.2-.31.22-.7.05-1.03s-.5-.53-.87-.53zm-7.75 10.82-5.88-8.82h2.01c.55 0 1-.45 1-1V32.55h5.75v12.56c0 .55.45 1 1 1h2.01zM43.52 34.87c-.37-.56-1.29-.56-1.66 0l-7.75 11.62c-.2.31-.22.7-.05 1.03s.51.53.88.53h2.88v12.56c0 .55.45 1 1 1h7.75c.55 0 1-.45 1-1V48.05h2.88c.37 0 .71-.2.88-.53s.15-.72-.05-1.03zm3.04 11.18c-.55 0-1 .45-1 1v12.56h-5.75V47.05c0-.55-.45-1-1-1H36.8l5.88-8.82 5.88 8.82z" fill="#ffffff" opacity="1" data-original="#000000" class=""></path></g></svg>