<svg xmlns="http://www.w3.org/2000/svg" version="1.1" xmlns:xlink="http://www.w3.org/1999/xlink" width="512" height="512" x="0" y="0" viewBox="0 0 32 32" style="enable-background:new 0 0 512 512" xml:space="preserve" class=""><g><path fill="#43b3ff" d="M16 2 6 6v9.23C6 21.73 9.96 27.58 16 30c3.02-1.21 5.52-3.28 7.26-5.86 1.75-2.57 2.74-5.66 2.74-8.91V6zm6 19c0 1.1-2.69 2-6 2s-6-.9-6-2V9c0-1.1 2.69-2 6-2s6 .9 6 2z" opacity="1" data-original="#43b3ff" class=""></path><path fill="#ffc943" d="M22 13v4c0 1.1-2.69 2-6 2s-6-.9-6-2v-4c0 1.1 2.69 2 6 2s6-.9 6-2z" opacity="1" data-original="#ffc943"></path><path fill="#f45151" d="M22 9v4c0 1.1-2.69 2-6 2s-6-.9-6-2V9c0 1.1 2.69 2 6 2s6-.9 6-2zM22 17v4c0 1.1-2.69 2-6 2s-6-.9-6-2v-4c0 1.1 2.69 2 6 2s6-.9 6-2z" opacity="1" data-original="#f45151"></path><ellipse cx="16" cy="9" fill="#ffc943" rx="6" ry="2" opacity="1" data-original="#ffc943"></ellipse><path d="M15.814 30.464a.49.49 0 0 0 .372 0 16.31 16.31 0 0 0 7.487-6.043 16.258 16.258 0 0 0 2.827-9.19V6a.5.5 0 0 0-.314-.464l-2.15-.86a.5.5 0 1 0-.371.928l1.835.735v8.891c0 3.096-.917 6.08-2.655 8.63A15.316 15.316 0 0 1 16 29.46a15.34 15.34 0 0 1-9.5-14.23V6.34l9.5-3.8 3.955 1.576a.5.5 0 0 0 .37-.93l-4.14-1.65a.496.496 0 0 0-.37.001l-10 4A.5.5 0 0 0 5.5 6v9.23c0 6.745 4.048 12.724 10.314 15.234z" fill="#000000" opacity="1" data-original="#000000"></path><path d="M9.5 9v12c0 1.642 3.27 2.5 6.5 2.5s6.5-.858 6.5-2.5V9c0-3.283-13-3.283-13 0zm12 8c0 .509-1.941 1.5-5.5 1.5s-5.5-.991-5.5-1.5v-2.608c1.213.73 3.362 1.108 5.5 1.108s4.287-.378 5.5-1.108zm0-4c0 .509-1.941 1.5-5.5 1.5s-5.5-.991-5.5-1.5v-2.608c1.213.73 3.362 1.108 5.5 1.108s4.287-.378 5.5-1.108zM16 7.5c3.559 0 5.5.991 5.5 1.5s-1.941 1.5-5.5 1.5-5.5-.991-5.5-1.5 1.941-1.5 5.5-1.5zm0 15c-3.559 0-5.5-.991-5.5-1.5v-2.608c1.213.73 3.362 1.108 5.5 1.108s4.287-.378 5.5-1.108V21c0 .509-1.941 1.5-5.5 1.5zM2 15.5h2a.5.5 0 1 0 0-1H2a.5.5 0 1 0 0 1zM2.646 12.354A.5.5 0 0 0 3 12.5h1a.5.5 0 1 0 0-1h-.793l-.853-.854a.5.5 0 1 0-.708.708zM2 19.5a.498.498 0 0 0 .354-.146l.853-.854H4a.5.5 0 1 0 0-1H3a.5.5 0 0 0-.354.146l-1 1A.5.5 0 0 0 2 19.5zM30 14.5h-2a.5.5 0 1 0 0 1h2a.5.5 0 1 0 0-1zM29.646 10.646l-.853.854H28a.5.5 0 1 0 0 1h1a.5.5 0 0 0 .354-.146l1-1a.5.5 0 1 0-.708-.708zM29.354 17.646A.5.5 0 0 0 29 17.5h-1a.5.5 0 1 0 0 1h.793l.853.854a.498.498 0 0 0 .708 0 .5.5 0 0 0 0-.708z" fill="#000000" opacity="1" data-original="#000000"></path><circle cx="21.993" cy="4.398" r=".5" fill="#000000" opacity="1" data-original="#000000"></circle></g></svg>