<svg xmlns="http://www.w3.org/2000/svg" version="1.1" xmlns:xlink="http://www.w3.org/1999/xlink" width="512" height="512" x="0" y="0" viewBox="0 0 512 512" style="enable-background:new 0 0 512 512" xml:space="preserve" class=""><g><path d="M497 55.1c0-11.18-9.09-20.27-20.27-20.27H175.2c-11.18 0-20.27 9.09-20.27 20.27 0 9.25 6.23 17.05 14.7 19.48v98.34l-27.6 24.63H57.65c-9.98 0-18.39 6.84-20.47 16.63L15.37 317.05c-1.93 9.09 3.9 18.11 13 20.11 1.18.26 2.37.39 3.53.39 7.53 0 14.37-5.22 16.42-13.05l9.59-36.72v166.87c0 12.42 11.71 22.53 26.11 22.53 8.08 0 15.31-3.19 20.11-8.18 4.79 4.99 12.03 8.18 20.11 8.18 14.4 0 26.11-10.11 26.11-22.53V250.28c0-3.23 1.12-5.8 3.65-8.33l15.66-15.72v77.37c0 3.31 2.69 6 6 6H476.3c3.31 0 6-2.69 6-6V74.58c8.47-2.43 14.7-10.23 14.7-19.48zM110.51 250.08l-6.45 11.82-6.35-11.8 4.03-40.54h4.67zm13.71 215.09c-7.65 0-14.11-4.82-14.11-10.53V381.5c0-3.31-2.69-6-6-6s-6 2.69-6 6v73.14c0 5.71-6.46 10.53-14.11 10.53s-14.11-4.82-14.11-10.53V306.01h68.42v148.63c.02 5.71-6.44 10.53-14.09 10.53zm21.25-231.69c-4.74 4.76-7.14 10.41-7.14 16.8v43.73H69.9v-52.96c0-3.02-2.24-5.57-5.24-5.95s-5.81 1.51-6.57 4.44L36.7 321.45c-.74 2.83-3.21 4.54-5.76 3.98-2.63-.58-4.39-3.28-3.84-5.9l21.82-102.87c.9-4.26 4.41-7.12 8.73-7.12h32.03l-4.09 41.18a5.96 5.96 0 0 0 .69 3.44l12.47 23.16a6 6 0 0 0 5.27 3.16h.02c2.19 0 4.21-1.2 5.27-3.13l12.64-23.16c.58-1.06.82-2.28.7-3.48l-4.18-41.17h25.86c1.47 0 2.9-.54 4-1.52l49.04-43.77c.05-.04.09-.08.14-.13 5.05-4.8 9.23-4.06 11.27-1.97 1.77 1.81 2.58 5.19-.97 8.75zm36.16 64.12v-83.42l34.66-34.8c8.54-8.58 6.92-19.59 1.05-25.6-6.29-6.44-17.94-7.96-28.05 1.59l-7.67 6.84V75.37H470.3V297.6zm295.1-234.23H175.2c-4.56 0-8.27-3.71-8.27-8.27s3.71-8.27 8.27-8.27h301.53c4.56 0 8.27 3.71 8.27 8.27s-3.71 8.27-8.27 8.27zM230.86 253.93h36.68c3.31 0 6-2.69 6-6v-61.24c0-3.31-2.69-6-6-6h-36.68c-3.31 0-6 2.69-6 6v61.24c0 3.31 2.68 6 6 6zm6-61.24h24.68v49.24h-24.68zm54.27 61.24h36.68c3.31 0 6-2.69 6-6v-87.88c0-3.31-2.69-6-6-6h-36.68c-3.31 0-6 2.69-6 6v87.88c0 3.31 2.69 6 6 6zm6-87.88h24.68v75.88h-24.68zm54.28 87.88h36.68c3.31 0 6-2.69 6-6V124.97c0-3.31-2.69-6-6-6h-36.68c-3.31 0-6 2.69-6 6v122.96c0 3.31 2.69 6 6 6zm6-122.96h24.68v110.96h-24.68zm97.07 146.49c0 3.31-2.69 6-6 6H220.03c-3.31 0-6-2.69-6-6s2.69-6 6-6h228.46a5.99 5.99 0 0 1 5.99 6zm-42.68-23.53h36.68c3.31 0 6-2.69 6-6V99.25c0-3.31-2.69-6-6-6H411.8c-3.31 0-6 2.69-6 6v148.68c0 3.31 2.69 6 6 6zm6-148.68h24.68v136.68H417.8zM104.11 184.2c28.13 0 51.02-22.89 51.02-51.01s-22.89-51.01-51.02-51.01-51.01 22.89-51.01 51.01 22.89 51.01 51.01 51.01zm0-90.03c21.51 0 39.02 17.5 39.02 39.01s-17.5 39.01-39.02 39.01c-21.51 0-39.01-17.5-39.01-39.01s17.5-39.01 39.01-39.01z" fill="#ffffff" opacity="1" data-original="#000000" class=""></path></g></svg>