<svg xmlns="http://www.w3.org/2000/svg" version="1.1" xmlns:xlink="http://www.w3.org/1999/xlink" width="512" height="512" x="0" y="0" viewBox="0 0 512 512" style="enable-background:new 0 0 512 512" xml:space="preserve" class=""><g><path d="M381.131 160.215H255.9c-.73 0-1.392-.402-1.73-1.047l-30.108-57.503a31.078 31.078 0 0 0-27.613-16.704h-96.05c-17.182 0-31.162 13.968-31.162 31.14V365.64c0 15.419 12.554 27.964 27.981 27.964h16.628v2.767c0 16.912 13.76 30.672 30.672 30.672h267.601c16.912 0 30.667-13.76 30.667-30.672V226.105c0-15.5-12.632-28.111-28.157-28.111h-16.485V177.22c-.003-9.378-7.635-17.005-17.013-17.005zm-267.287 65.89v152.44H97.217c-7.123 0-12.922-5.789-12.922-12.905V116.102c0-8.868 7.226-16.081 16.103-16.081h96.05a16.054 16.054 0 0 1 14.27 8.63l30.108 57.503v.002a16.98 16.98 0 0 0 15.074 9.118h125.232c1.074 0 1.951.873 1.951 1.946v20.775H142.006c-15.529 0-28.162 12.61-28.162 28.11zm300.783-13.052c7.221 0 13.098 5.855 13.098 13.052v170.266c0 8.608-7 15.613-15.608 15.613H144.516c-8.608 0-15.613-7.005-15.613-15.613V226.105c0-7.196 5.878-13.052 13.103-13.052zM13.529 128.69a7.53 7.53 0 0 0 7.529-7.529v-86.21c0-6.819 5.603-12.365 12.49-12.365h95.653a7.53 7.53 0 0 0 0-15.058H33.549C18.358 7.527 6 19.829 6 34.951v86.209a7.53 7.53 0 0 0 7.529 7.53zM478.451 7.527h-93.427a7.53 7.53 0 0 0 0 15.058h93.427c6.887 0 12.49 5.547 12.49 12.365v86.209a7.53 7.53 0 0 0 15.058 0V34.951C506 19.829 493.642 7.527 478.451 7.527zM498.471 367.839a7.53 7.53 0 0 0-7.529 7.529V477.05c0 6.816-5.603 12.363-12.49 12.363h-93.427a7.53 7.53 0 0 0 0 15.058h93.427c15.191 0 27.549-12.302 27.549-27.422v-101.68a7.532 7.532 0 0 0-7.53-7.53zM33.549 504.473h95.653a7.53 7.53 0 0 0 0-15.058H33.549c-6.887 0-12.49-5.547-12.49-12.363V375.369a7.53 7.53 0 0 0-15.059 0v101.682c0 15.12 12.358 27.422 27.549 27.422z" fill="#ffffff" opacity="1" data-original="#000000" class=""></path></g></svg>