<svg xmlns="http://www.w3.org/2000/svg" version="1.1" xmlns:xlink="http://www.w3.org/1999/xlink" xmlns:svgjs="http://svgjs.com/svgjs" width="512" height="512" x="0" y="0" viewBox="0 0 32 32" style="enable-background:new 0 0 512 512" xml:space="preserve" class=""><g><path d="M29.38 25.407h-.875V12.103c0-1.205-.98-2.185-2.184-2.185h-2.895V6.626a.399.399 0 0 0-.117-.283l-4.24-4.238a.4.4 0 0 0-.282-.118h-7.98A2.234 2.234 0 0 0 8.573 4.22v5.699H5.68c-1.204 0-2.184.98-2.184 2.185v13.304H2.62a.4.4 0 0 0-.4.4v1.477a2.732 2.732 0 0 0 2.729 2.729h22.1a2.732 2.732 0 0 0 2.73-2.73v-1.476a.4.4 0 0 0-.4-.4zM19.186 3.352l2.874 2.875h-2.165a.71.71 0 0 1-.709-.709zm-9.813.867c0-.79.643-1.432 1.432-1.432h7.581v2.731a1.51 1.51 0 0 0 1.508 1.509h2.731v12.181c0 .79-.643 1.432-1.432 1.432H10.806c-.79 0-1.432-.643-1.432-1.432V4.219zm-5.08 7.884c0-.764.622-1.385 1.385-1.385h2.895v1.2h-2.68a.4.4 0 0 0-.4.4v11.489c0 .22.18.4.4.4h13.867a.4.4 0 0 0 0-.8H6.294v-10.69h2.28v6.491a2.234 2.234 0 0 0 2.232 2.232h10.388a2.234 2.234 0 0 0 2.232-2.232v-6.49h2.28v10.689H23.25a.4.4 0 0 0 0 .8h2.856a.4.4 0 0 0 .4-.4v-11.49a.4.4 0 0 0-.4-.4h-2.68v-1.2h2.895c.763 0 1.385.622 1.385 1.386v13.304h-7.993a.4.4 0 0 0-.4.4v1.292h-6.626v-1.292a.4.4 0 0 0-.4-.4H4.294zm24.685 15.18c0 1.064-.865 1.93-1.929 1.93H4.95a1.932 1.932 0 0 1-1.93-1.93v-1.076h8.867v1.292c0 .22.18.4.4.4h7.426a.4.4 0 0 0 .4-.4v-1.292h8.866z" fill="#bb0b0b" data-original="#000000" class="" opacity="1"></path><path d="M21.28 24.09c.07.08.17.12.28.12.11 0 .21-.04.28-.12a.381.381 0 0 0 .12-.28.378.378 0 0 0-.12-.29.56.56 0 0 0-.13-.08.39.39 0 0 0-.3 0 .377.377 0 0 0-.25.37.38.38 0 0 0 .12.28zM14.237 10.615h5.678a.4.4 0 0 0 0-.8h-5.678a.4.4 0 0 0 0 .8zM11.689 10.615h.775a.4.4 0 0 0 0-.8h-.775a.4.4 0 0 0 0 .8zM14.237 8.15h2.3a.4.4 0 0 0 0-.8h-2.3a.4.4 0 0 0 0 .8zM11.689 8.15h.775a.4.4 0 0 0 0-.8h-.775a.4.4 0 0 0 0 .8zM14.237 12.896h5.678a.4.4 0 0 0 0-.8h-5.678a.4.4 0 0 0 0 .8zM11.689 12.896h.775a.4.4 0 0 0 0-.8h-.775a.4.4 0 0 0 0 .8zM14.237 15.176h5.678a.4.4 0 0 0 0-.8h-5.678a.4.4 0 0 0 0 .8zM11.689 15.176h.775a.4.4 0 0 0 0-.8h-.775a.4.4 0 0 0 0 .8zM14.237 17.456h5.678a.4.4 0 0 0 0-.8h-5.678a.4.4 0 0 0 0 .8zM11.689 17.456h.775a.4.4 0 0 0 0-.8h-.775a.4.4 0 0 0 0 .8z" fill="#bb0b0b" data-original="#000000" class="" opacity="1"></path></g></svg>