<svg xmlns="http://www.w3.org/2000/svg" version="1.1" xmlns:xlink="http://www.w3.org/1999/xlink" width="512" height="512" x="0" y="0" viewBox="0 0 64 64" style="enable-background:new 0 0 512 512" xml:space="preserve" class=""><g><path d="M20 51a12 12 0 0 0 20.944 8l-1.49-1.333A10 10 0 1 1 42 51c0 .31-.03.616-.058.923L40.8 50.4l-1.6 1.2 3 4a1 1 0 0 0 1.6 0l3-4-1.6-1.2-1.268 1.691c.032-.362.068-.725.068-1.091a12 12 0 0 0-24 0z" fill="#bb0b0b" opacity="1" data-original="#000000" class=""></path><path d="m31 51.382-3.447 1.723.894 1.79 4-2A1 1 0 0 0 33 52v-8h-2zM49 50h14v2H49zM1 50h17v2H1zM13 48V26a1 1 0 0 0-1-1H4a1 1 0 0 0-1 1v22h2V27h6v21zM28 15h-8a1 1 0 0 0-1 1v26h2V17h6v20h2V16a1 1 0 0 0-1-1zM45 42V26a1 1 0 0 0-1-1h-8a1 1 0 0 0-1 1v11h2V27h6v15zM61 48V16a1 1 0 0 0-1-1h-8a1 1 0 0 0-1 1v32h2V17h6v31z" fill="#bb0b0b" opacity="1" data-original="#000000" class=""></path><path d="M56 9a4 4 0 1 0-4-4 3.952 3.952 0 0 0 .2 1.2l-9.456 5.9a3.978 3.978 0 0 0-5.575.073L26.83 6.09A3.935 3.935 0 0 0 27 5a4 4 0 1 0-7.7 1.522l-9.818 7.366A3.96 3.96 0 0 0 7 13a4.009 4.009 0 1 0 3.7 2.478l9.822-7.366a3.956 3.956 0 0 0 5.313-.289L36.17 13.91A3.935 3.935 0 0 0 36 15a4 4 0 0 0 8 0 3.952 3.952 0 0 0-.2-1.2l9.456-5.9A3.978 3.978 0 0 0 56 9zm0-6a2 2 0 1 1-2 2 2 2 0 0 1 2-2zM7 19a2 2 0 1 1 2-2 2 2 0 0 1-2 2zM23 7a2 2 0 1 1 2-2 2 2 0 0 1-2 2zm17 10a2 2 0 1 1 2-2 2 2 0 0 1-2 2z" fill="#bb0b0b" opacity="1" data-original="#000000" class=""></path></g></svg>