<svg xmlns="http://www.w3.org/2000/svg" version="1.1" xmlns:xlink="http://www.w3.org/1999/xlink" xmlns:svgjs="http://svgjs.com/svgjs" width="512" height="512" x="0" y="0" viewBox="0 0 512 512" style="enable-background:new 0 0 512 512" xml:space="preserve" class=""><g><path d="M256 319.64c-35.1 0-63.65-28.55-63.65-63.64s28.55-63.65 63.65-63.65c35.09 0 63.64 28.55 63.64 63.65 0 35.09-28.55 63.64-63.64 63.64zm0-115.29c-28.48 0-51.65 23.17-51.65 51.65s23.17 51.65 51.65 51.65 51.64-23.17 51.64-51.65-23.16-51.65-51.64-51.65z" fill="#ffffff" data-original="#000000" class=""></path><path d="M278.9 381.45h-45.8c-3.31 0-6-2.68-6-6V350.3a97.544 97.544 0 0 1-17.34-7.19l-17.8 17.79c-1.12 1.13-2.65 1.76-4.24 1.76s-3.12-.63-4.24-1.76l-32.38-32.38a5.981 5.981 0 0 1 0-8.48l17.79-17.8a97.544 97.544 0 0 1-7.19-17.34h-25.16c-3.31 0-6-2.69-6-6v-45.8c0-3.31 2.69-6 6-6h25.16c1.83-5.99 4.24-11.8 7.19-17.34l-17.79-17.79a5.993 5.993 0 0 1 0-8.49l32.38-32.38a6 6 0 0 1 8.48 0l17.79 17.79a98.39 98.39 0 0 1 17.35-7.19v-25.15c0-3.32 2.69-6 6-6h45.79c3.32 0 6 2.68 6 6v25.15c6 1.84 11.81 4.24 17.35 7.19l17.79-17.79a6 6 0 0 1 8.48 0l32.39 32.38a6.011 6.011 0 0 1 0 8.49l-17.79 17.79a99.053 99.053 0 0 1 7.19 17.34h25.15c3.31 0 6 2.69 6 6v45.8c0 3.31-2.69 6-6 6H350.3c-1.84 6-4.25 11.8-7.19 17.35l17.79 17.78c1.12 1.13 1.76 2.66 1.76 4.25s-.64 3.11-1.76 4.24l-32.39 32.38a5.981 5.981 0 0 1-8.48 0l-17.79-17.79a97.332 97.332 0 0 1-17.35 7.19v25.16c.01 3.31-2.68 5.99-5.99 5.99zm-39.8-12h33.8v-23.7a6 6 0 0 1 4.52-5.81c8-2.04 15.66-5.22 22.78-9.45a5.992 5.992 0 0 1 7.31.92l16.77 16.76 23.89-23.89-16.76-16.77a5.992 5.992 0 0 1-.92-7.31 86.21 86.21 0 0 0 9.45-22.78 5.99 5.99 0 0 1 5.81-4.52h23.7v-33.8h-23.7a5.99 5.99 0 0 1-5.81-4.52 86.35 86.35 0 0 0-9.45-22.78 6.004 6.004 0 0 1 .91-7.31l16.77-16.77-23.9-23.89-16.76 16.76a6.006 6.006 0 0 1-7.31.92 86.275 86.275 0 0 0-22.79-9.45 6.002 6.002 0 0 1-4.52-5.81v-23.71H239.1v23.71a6 6 0 0 1-4.52 5.81 86.21 86.21 0 0 0-22.78 9.45 6.006 6.006 0 0 1-7.31-.92l-16.77-16.76-23.89 23.89 16.76 16.77a6.006 6.006 0 0 1 .92 7.31 86.016 86.016 0 0 0-9.45 22.78 5.99 5.99 0 0 1-5.81 4.52h-23.71v33.8h23.71a6 6 0 0 1 5.81 4.52c2.04 8 5.21 15.66 9.45 22.78a6.006 6.006 0 0 1-.92 7.31l-16.77 16.77 23.9 23.89 16.77-16.76a6.006 6.006 0 0 1 7.31-.92 86.21 86.21 0 0 0 22.78 9.45 6 6 0 0 1 4.52 5.81z" fill="#ffffff" data-original="#000000" class=""></path><path d="M351.7 512c-24.47 0-44.37-19.91-44.37-44.37 0-4.87.79-9.68 2.34-14.23H192.9c-2.18 0-4.18-1.18-5.24-3.09-1.06-1.9-1-4.23.15-6.08a32.334 32.334 0 0 0 4.85-17.06c0-17.85-14.52-32.37-32.37-32.37-17.84 0-32.36 14.52-32.36 32.37 0 6.05 1.68 11.95 4.86 17.06 1.15 1.85 1.2 4.18.14 6.08a5.974 5.974 0 0 1-5.24 3.09H98.17c-21.82 0-39.57-17.75-39.57-39.57v-20.1a44.406 44.406 0 0 1-14.23 2.34C19.91 396.07 0 376.17 0 351.7s19.91-44.37 44.37-44.37c4.87 0 9.68.8 14.23 2.34V98.17c0-21.82 17.75-39.57 39.57-39.57h20.1a44.406 44.406 0 0 1-2.34-14.23C115.93 19.91 135.83 0 160.3 0c24.46 0 44.37 19.91 44.37 44.37 0 4.87-.8 9.68-2.34 14.23H319.1c2.17 0 4.18 1.18 5.24 3.09 1.06 1.9 1 4.23-.15 6.08a32.254 32.254 0 0 0-4.86 17.06c0 17.85 14.52 32.37 32.37 32.37s32.37-14.52 32.37-32.37c0-6.05-1.68-11.95-4.86-17.06a6.002 6.002 0 0 1 5.1-9.17h29.52c21.82 0 39.57 17.75 39.57 39.57v20.1c4.55-1.54 9.36-2.34 14.23-2.34 24.46 0 44.37 19.91 44.37 44.37 0 24.47-19.91 44.37-44.37 44.37-4.88 0-9.68-.8-14.23-2.34v211.5c0 21.82-17.75 39.57-39.57 39.57h-20.1c1.54 4.55 2.34 9.36 2.34 14.23 0 24.46-19.91 44.37-44.37 44.37zm-149.37-70.6h116.76c2.18 0 4.19 1.18 5.25 3.08a6.01 6.01 0 0 1-.15 6.09 32.254 32.254 0 0 0-4.86 17.06c0 17.85 14.52 32.37 32.37 32.37s32.37-14.52 32.37-32.37c0-6.05-1.68-11.95-4.86-17.07a5.992 5.992 0 0 1-.15-6.08 6.013 6.013 0 0 1 5.25-3.08h29.52c15.2 0 27.57-12.37 27.57-27.57V192.91c0-2.18 1.18-4.19 3.08-5.25a6.01 6.01 0 0 1 6.09.15 32.254 32.254 0 0 0 17.06 4.86c17.85 0 32.37-14.52 32.37-32.37s-14.52-32.37-32.37-32.37c-6.05 0-11.95 1.68-17.06 4.86a6.01 6.01 0 0 1-6.09.15 6.013 6.013 0 0 1-3.08-5.25V98.17c0-15.2-12.37-27.57-27.57-27.57h-20.1c1.54 4.56 2.34 9.36 2.34 14.23 0 24.47-19.91 44.37-44.37 44.37-24.47 0-44.37-19.9-44.37-44.37 0-4.87.8-9.67 2.34-14.23H192.9a5.997 5.997 0 0 1-5.09-9.17 32.254 32.254 0 0 0 4.86-17.06c0-17.85-14.52-32.37-32.37-32.37s-32.37 14.52-32.37 32.37c0 6.05 1.68 11.95 4.86 17.06 1.15 1.85 1.2 4.18.15 6.09a6.013 6.013 0 0 1-5.25 3.08H98.17c-15.2 0-27.57 12.37-27.57 27.57v220.92c0 2.18-1.18 4.19-3.08 5.25a6.01 6.01 0 0 1-6.09-.15 32.254 32.254 0 0 0-17.06-4.86C26.52 319.33 12 333.85 12 351.7s14.52 32.37 32.37 32.37c6.05 0 11.95-1.68 17.06-4.86a6.01 6.01 0 0 1 6.09-.15 6.013 6.013 0 0 1 3.08 5.25v29.52c0 15.2 12.37 27.57 27.56 27.57h20.11a44.178 44.178 0 0 1-2.34-14.23c0-24.47 19.9-44.37 44.37-44.37 24.46 0 44.37 19.9 44.37 44.37 0 4.87-.8 9.67-2.34 14.23z" fill="#ffffff" data-original="#000000" class=""></path><path d="M447.4 262h-71.95c-3.31 0-6-2.69-6-6s2.69-6 6-6h71.95c3.31 0 6 2.69 6 6s-2.69 6-6 6zm-310.85 0H64.6c-3.31 0-6-2.69-6-6s2.69-6 6-6h71.95c3.31 0 6 2.69 6 6s-2.69 6-6 6zM256 453.4c-3.32 0-6-2.69-6-6v-71.94c0-3.32 2.68-6 6-6 3.31 0 6 2.68 6 6v71.94c0 3.31-2.69 6-6 6zm0-310.85c-3.32 0-6-2.69-6-6V64.6c0-3.31 2.68-6 6-6 3.31 0 6 2.69 6 6v71.95c0 3.31-2.69 6-6 6z" fill="#ffffff" data-original="#000000" class=""></path></g></svg>