<svg xmlns="http://www.w3.org/2000/svg" version="1.1" xmlns:xlink="http://www.w3.org/1999/xlink" xmlns:svgjs="http://svgjs.com/svgjs" width="512" height="512" x="0" y="0" viewBox="0 0 512 512" style="enable-background:new 0 0 512 512" xml:space="preserve" class=""><g><path d="M235.286 367.475v-222.95c0-8.643-11.09-14.104-37.081-18.263-20.958-3.354-48.681-5.2-78.062-5.2s-57.104 1.847-78.062 5.2C16.09 130.421 5 135.883 5 144.525v222.95c0 8.656 11.071 14.121 37.02 18.272 20.919 3.347 48.663 5.19 78.124 5.19s57.205-1.843 78.123-5.19c25.948-4.152 37.02-9.616 37.02-18.272zM17 268.236c5.926 2.333 14.167 4.301 25.02 6.037 20.918 3.347 48.663 5.19 78.124 5.19s57.205-1.843 78.123-5.19c10.852-1.736 19.093-3.704 25.02-6.037v42.353c-1.583 1.173-8.308 4.99-31.808 8.307-19.663 2.775-44.997 4.304-71.335 4.304s-51.672-1.529-71.336-4.304c-23.5-3.317-30.225-7.134-31.808-8.307v-42.353zm0-55.737c5.926 2.333 14.167 4.301 25.02 6.037 20.918 3.347 48.663 5.19 78.124 5.19s57.205-1.843 78.123-5.19c10.852-1.736 19.093-3.704 25.02-6.037v42.353c-1.583 1.173-8.308 4.99-31.808 8.307-19.663 2.776-44.997 4.304-71.335 4.304s-51.673-1.528-71.336-4.304c-23.5-3.317-30.225-7.133-31.808-8.307v-42.353zm0-55.759c5.938 2.336 14.198 4.307 25.081 6.048 20.958 3.354 48.681 5.2 78.062 5.2s57.104-1.847 78.062-5.2c10.883-1.741 19.144-3.712 25.081-6.048v42.374c-1.583 1.173-8.308 4.99-31.808 8.307-19.663 2.776-44.997 4.304-71.335 4.304s-51.673-1.528-71.336-4.304c-23.5-3.317-30.225-7.134-31.808-8.307V156.74zm31.873-19.365c19.695-2.782 45.006-4.313 71.271-4.313s51.574 1.532 71.271 4.313c18.215 2.573 26.377 5.44 29.874 7.15-3.497 1.709-11.659 4.577-29.874 7.149-19.695 2.782-45.007 4.313-71.271 4.313s-51.575-1.532-71.271-4.313c-18.216-2.572-26.378-5.44-29.875-7.149 3.497-1.709 11.659-4.577 29.875-7.15zm71.271 241.562c-26.338 0-51.672-1.528-71.336-4.304-23.486-3.315-30.22-7.131-31.808-8.307v-42.354c5.926 2.333 14.167 4.301 25.02 6.037 20.919 3.347 48.663 5.19 78.124 5.19s57.205-1.843 78.123-5.19c10.852-1.736 19.093-3.704 25.02-6.037v42.354c-1.588 1.176-8.321 4.991-31.808 8.307-19.663 2.776-44.997 4.304-71.335 4.304zm380.801-208.293-43.527-43.527c-3.961-3.96-9.016-6.054-14.616-6.054H302.989a6 6 0 0 0-6 6v257.875a6 6 0 0 0 6 6h198.012a6 6 0 0 0 6-6V185.261c0-5.602-2.094-10.656-6.055-14.617zm-13.748 3.222h-29.611a3.393 3.393 0 0 1-3.39-3.389v-29.612l33.001 33zM308.988 378.938V133.063h128.705c2.759 1.525 4.503 4.392 4.503 7.577v29.837c0 8.485 6.903 15.389 15.39 15.389h29.837c3.185 0 6.052 1.745 7.577 4.504v188.568zm164.237-64.634a6 6 0 0 1-6 6h-65.57a6 6 0 0 1 0-12h65.57a6 6 0 0 1 6 6zm0-67.22a6 6 0 0 1-6 6h-25.896a6 6 0 0 1 0-12h25.896a6 6 0 0 1 6 6zm0-33.609a6 6 0 0 1-6 6H336.762a6 6 0 0 1 0-12h130.463a6 6 0 0 1 6 6zm0 67.219a6 6 0 0 1-6 6h-95.783a6 6 0 0 1 0-12h95.783a6 6 0 0 1 6 6zm-49.725 67.22a6 6 0 0 1-6 6h-80.738a6 6 0 0 1 0-12H417.5a6 6 0 0 1 6 6zm-92.738-33.609a6 6 0 0 1 6-6h37.171a6 6 0 0 1 0 12h-37.171a6 6 0 0 1-6-6zm142.463 33.609a6 6 0 0 1-6 6h-25.896a6 6 0 0 1 0-12h25.896a6 6 0 0 1 6 6zM330.762 179.866a6 6 0 0 1 6-6h66.561a6 6 0 0 1 0 12h-66.561a6 6 0 0 1-6-6zm0 67.219a6 6 0 0 1 6-6H417.5a6 6 0 0 1 0 12h-80.738a6 6 0 0 1-6-6zm0 33.609a6 6 0 0 1 6-6h6.13a6 6 0 0 1 0 12h-6.13a6 6 0 0 1-6-6zM134.322 57.81a6 6 0 0 1 4.991-6.862c3.265-.511 6.346 1.717 6.862 4.991l2.639 16.718C171.003 32.17 213.757 6.519 260.452 6.519c50.761 0 96.609 30.092 116.804 76.662a6 6 0 0 1-11.01 4.775C347.955 45.775 306.429 18.52 260.452 18.52c-42.543 0-81.482 23.5-101.475 60.545l16.361-6.669a6 6 0 0 1 4.529 11.113L147.898 96.54a5.992 5.992 0 0 1-5.212-.33 5.997 5.997 0 0 1-2.979-4.291l-5.385-34.108zm243.355 396.38a6 6 0 0 1-11.853 1.871l-2.638-16.712c-22.188 40.477-64.967 66.132-111.637 66.132-50.761 0-96.609-30.092-116.805-76.662a6 6 0 0 1 11.01-4.774c18.292 42.181 59.818 69.437 105.795 69.437 42.521 0 81.484-23.507 101.477-60.545l-16.363 6.67a6 6 0 0 1-4.529-11.113l31.969-13.031a5.998 5.998 0 0 1 8.191 4.621l5.385 34.108z" fill="#bb0b0b" data-original="#000000" opacity="1"></path></g></svg>