<svg xmlns="http://www.w3.org/2000/svg" version="1.1" xmlns:xlink="http://www.w3.org/1999/xlink" xmlns:svgjs="http://svgjs.com/svgjs" width="512" height="512" x="0" y="0" viewBox="0 0 24 24" style="enable-background:new 0 0 512 512" xml:space="preserve" class=""><g><path d="M21.23 19.796A2.246 2.246 0 0 0 19 17.75h-2.75v-.5H18A1.251 1.251 0 0 0 19.25 16v-1A1.251 1.251 0 0 0 18 13.75h-1.75v-1.5H18A1.251 1.251 0 0 0 19.25 11v-1A1.251 1.251 0 0 0 18 8.75h-1.775a2.246 2.246 0 0 0-2.225-2h-1.75v-1.5H14A1.251 1.251 0 0 0 15.25 4V3A1.251 1.251 0 0 0 14 1.75h-1.586a.755.755 0 0 1-.53-.22l-.414-.414a1.257 1.257 0 0 0-.884-.366H10A1.251 1.251 0 0 0 8.75 2v1a.25.25 0 0 0 .5 0V2a.751.751 0 0 1 .75-.75h.586a.755.755 0 0 1 .53.22l.414.414a1.257 1.257 0 0 0 .884.366H14a.751.751 0 0 1 .75.75v1a.751.751 0 0 1-.75.75h-4A.751.751 0 0 1 9.25 4a.25.25 0 0 0-.5 0A1.251 1.251 0 0 0 10 5.25h1.75v1.5H10a2.246 2.246 0 0 0-2.225 2H6A1.251 1.251 0 0 0 4.75 10v1A1.251 1.251 0 0 0 6 12.25h1.75v3.5H5A2.253 2.253 0 0 0 2.75 18v1.8a1.234 1.234 0 0 0-1 1.2A1.251 1.251 0 0 0 3 22.25a1.234 1.234 0 0 0 1.2-1h.55V22A1.251 1.251 0 0 0 6 23.25h4A1.251 1.251 0 0 0 11.25 22v-.75h2.533a2.246 2.246 0 0 0 1.092 1.699.25.25 0 1 0 .25-.433 1.75 1.75 0 1 1 .875.234.25.25 0 0 0 0 .5 2.246 2.246 0 0 0 2.225-2H19.8a1.234 1.234 0 0 0 1.199 1A1.251 1.251 0 0 0 22.25 21a1.234 1.234 0 0 0-1.02-1.204ZM18.75 15v1a.751.751 0 0 1-.75.75h-4a.751.751 0 0 1-.75-.75v-1a.751.751 0 0 1 .75-.75h4a.751.751 0 0 1 .75.75Zm0-5v1a.751.751 0 0 1-.75.75h-4a.751.751 0 0 1-.75-.75v-1a.751.751 0 0 1 .75-.75h4a.751.751 0 0 1 .75.75ZM3 21.75a.75.75 0 1 1 .75-.75.751.751 0 0 1-.75.75ZM4.75 20v.75H4.2a1.218 1.218 0 0 0-.95-.95V18A1.752 1.752 0 0 1 5 16.25h2.75v2.5H6A1.251 1.251 0 0 0 4.75 20Zm6 2a.751.751 0 0 1-.75.75H6a.751.751 0 0 1-.75-.75v-2a.751.751 0 0 1 .75-.75h4a.751.751 0 0 1 .75.75Zm3.025-1.25H11.25V20A1.251 1.251 0 0 0 10 18.75H8.25v-6.5H10A1.251 1.251 0 0 0 11.25 11a.25.25 0 0 0-.5 0 .751.751 0 0 1-.75.75H6a.751.751 0 0 1-.75-.75v-1A.751.751 0 0 1 6 9.25h4a.751.751 0 0 1 .75.75.25.25 0 0 0 .5 0A1.251 1.251 0 0 0 10 8.75H8.275A1.747 1.747 0 0 1 10 7.25h4a1.747 1.747 0 0 1 1.725 1.5H14A1.251 1.251 0 0 0 12.75 10v1A1.251 1.251 0 0 0 14 12.25h1.75v1.5H14A1.251 1.251 0 0 0 12.75 15v1A1.251 1.251 0 0 0 14 17.25h1.75v1.525a2.239 2.239 0 0 0-1.975 1.975Zm6.026 0h-1.576a2.239 2.239 0 0 0-1.975-1.975v-.525H19a1.746 1.746 0 0 1 1.73 1.555 1.217 1.217 0 0 0-.93.945Zm1.199 1a.75.75 0 1 1 .75-.75.751.751 0 0 1-.75.75Z" fill="#ffffff" data-original="#000000" class=""></path></g></svg>