<svg xmlns="http://www.w3.org/2000/svg" version="1.1" xmlns:xlink="http://www.w3.org/1999/xlink" width="512" height="512" x="0" y="0" viewBox="0 0 500 500" style="enable-background:new 0 0 512 512" xml:space="preserve" class=""><g><g fill-rule="evenodd" clip-rule="evenodd"><path fill="#e3a829" d="M309.405 95.589h74.323c14.467 0 26.304 11.837 26.304 26.304v153.986H309.405z" opacity="1" data-original="#e3a829"></path><path fill="#e6e6e6" d="M313.767 27.188H137.36l-35.791 35.791v239.126c0 4.024 3.292 7.315 7.315 7.315h204.884c4.024 0 7.315-3.291 7.315-7.315V34.503c0-4.024-3.292-7.315-7.316-7.315z" opacity="1" data-original="#e6e6e6" class=""></path><path fill="#ada0ad" d="M101.568 62.979h28.476c4.024 0 7.315-3.292 7.315-7.315V27.188z" opacity="1" data-original="#ada0ad"></path><path fill="#ffe177" d="M101.919 187.83h243.068c12.714 0 23.117 10.402 23.117 23.117v146.634c0 12.714-10.402 23.116-23.117 23.116H101.919c-12.714 0-23.117-10.402-23.117-23.116V210.946c.001-12.714 10.403-23.116 23.117-23.116z" opacity="1" data-original="#ffe177"></path><path fill="#88c8fe" d="M420.59 248.599c.612 22.893 1.135 46.113 0 68.614v53.674c0 22.422-10.255 41.702-28.846 54.235l-70.661 47.638a129.126 129.126 0 0 1-3.551-2.394l-67.11-45.244c-18.591-12.534-28.846-31.814-28.846-54.235v-53.674c-1.137-22.5-.612-45.72 0-68.614 35.36-5.421 71.462-18.193 99.505-35.791 28.047 17.596 64.149 30.37 99.509 35.791z" opacity="1" data-original="#88c8fe"></path><path fill="#41678a" d="M337.285 323.421v-42.467c0-14.191-17.337-21.738-27.638-11.437-2.939 2.939-4.765 6.989-4.765 11.437v42.467h-13.924v-42.467c0-16.583 13.543-30.126 30.126-30.126s30.126 13.543 30.126 30.126v42.467z" opacity="1" data-original="#41678a"></path><path fill="#4187b5" d="M289.942 307.979h62.283c7.291 0 13.256 5.965 13.256 13.256v62.283c0 7.291-5.965 13.256-13.256 13.256h-62.283c-7.291 0-13.256-5.965-13.256-13.256v-62.283c0-7.292 5.965-13.256 13.256-13.256z" opacity="1" data-original="#4187b5"></path><path fill="#2b3f4f" d="M358.488 321.228c0-3.458-2.862-6.291-6.308-6.291h-62.266a6.297 6.297 0 0 0-6.309 6.291v62.289a6.286 6.286 0 0 0 6.309 6.291h62.266c3.446 0 6.308-2.816 6.308-6.291zm-53.68-20.216h32.418v-20.058c0-8.931-7.243-16.197-16.18-16.197s-16.238 7.266-16.238 16.197zm67.582 20.216v62.289c0 11.151-9.054 20.216-20.21 20.216h-62.266c-11.157 0-20.269-9.065-20.269-20.216v-62.289c0-11.145 9.112-20.216 20.269-20.216h.993v-20.058c0-16.606 13.493-30.122 30.14-30.122 16.589 0 30.082 13.516 30.082 30.122v20.058h1.051c11.156 0 20.21 9.071 20.21 20.216zm41.355-66.694c.526 22.103.876 42.301-.175 62.325v54.024c0 20.053-9.171 37.261-25.759 48.464l-66.764 45.012-66.764-45.012c-16.647-11.203-25.818-28.411-25.818-48.464v-54.024c-.993-19.988-.701-40.193-.117-62.325 32.61-5.711 65.776-17.428 92.698-33.557 27.012 16.182 60.037 27.837 92.699 33.557zm-199.124 119.2H101.888c-8.937 0-16.18-7.249-16.18-16.151V210.942c0-8.902 7.243-16.151 16.18-16.151h243.049c8.937 0 16.18 7.249 16.18 16.151v14.24c-13.201-5.274-25.467-11.431-36.39-18.271a6.995 6.995 0 0 0-7.418 0c-27.834 17.409-62.616 29.531-96.846 34.801-3.329.514-5.783 3.335-5.899 6.706-.643 24.626-1.11 46.828 0 68.972v53.493c-.001.958-.001 1.905.057 2.851zM129.984 56.012c.175 0 .351-.17.351-.351v-11.67l-12.032 12.021zm183.761-21.863c.175 0 .35.181.35.356v146.361H108.488V69.938h21.495c7.886 0 14.311-6.408 14.311-14.276V34.149zm14.252 68.4v78.318h16.939c16.589 0 30.082 13.499 30.082 30.076v19.375c9.36 3.138 18.342 5.682 27.979 7.868v-116.29c0-10.666-8.645-19.346-19.334-19.346h-55.666zM427.53 317.39v53.493c0 24.825-11.332 46.139-31.951 60.012l-70.678 47.64c-4.467 3.013-8.035-.15-11.332-2.43l-67.115-45.21c-15.771-10.637-26.11-25.637-30.023-43.236H101.888c-16.589 0-30.082-13.487-30.082-30.076V210.942c0-14.066 9.696-25.9 22.722-29.165V62.975c0-1.846.759-3.61 2.044-4.918l35.806-35.794c1.285-1.303 3.096-2.033 4.907-2.033h176.46c7.827 0 14.252 6.402 14.252 14.276v54.118h55.666c18.341 0 33.294 14.93 33.294 33.271v119.059c1.519.269 3.096.532 4.615.759 3.329.514 5.841 3.335 5.899 6.706.702 24.597 1.169 46.781.059 68.971zM282.32 139.254H140.264a6.946 6.946 0 0 0-6.951 6.957 6.947 6.947 0 0 0 6.951 6.962H282.32a6.948 6.948 0 0 0 6.951-6.962 6.946 6.946 0 0 0-6.951-6.957zm0-41.618H140.264a6.94 6.94 0 0 0-6.951 6.963 6.948 6.948 0 0 0 6.951 6.963H282.32a6.948 6.948 0 0 0 6.951-6.963 6.94 6.94 0 0 0-6.951-6.963z" opacity="1" data-original="#2b3f4f" class=""></path></g></g></svg>