<svg xmlns="http://www.w3.org/2000/svg" version="1.1" xmlns:xlink="http://www.w3.org/1999/xlink" width="512" height="512" x="0" y="0" viewBox="0 0 512 512" style="enable-background:new 0 0 512 512" xml:space="preserve" class=""><g><path fill="#4fabf7" d="M322.8 222c-4.1-11.4-11.2-21.6-20.5-29.5-12.8-11.1-29.3-17.2-46.2-17.2-8.5 0-16.8 1.5-24.7 4.4-7.8 2.9-15.1 7.2-21.5 12.7-9.3 8-16.3 18.1-20.5 29.5-2.8 7.8-4.3 16-4.3 24.4s1.4 16.5 4.3 24.3c4.1 11.4 11.2 21.5 20.5 29.5 12.8 11 29.3 17.1 46.2 17.1 8.5 0 16.8-1.5 24.7-4.4 7.8-2.9 15.1-7.2 21.5-12.7 9.3-8 16.3-18.1 20.5-29.5 2.8-7.8 4.3-16 4.3-24.3-.1-8.3-1.5-16.5-4.3-24.3zm-27.4-21.4c6.9 5.9 12.2 13.4 15.9 21.6h-17.9c-2.3-12-6.4-22.5-11.8-30.5 4.9 2.3 9.6 5.3 13.8 8.9zM285 246.4c0 4.7-.3 9.2-.7 13.5h-56.5c-.5-4.3-.7-8.8-.7-13.5s.3-9.3.7-13.6h56.5c.5 4.3.7 8.8.7 13.6zM256.1 186c10.6 0 21.7 13.9 26.5 36.2h-53.1c4.8-22.3 16-36.2 26.6-36.2zm-39.4 14.6c4.2-3.6 8.8-6.5 13.8-8.9-5.3 8-9.4 18.5-11.8 30.5h-17.9c3.7-8.3 9.1-15.7 15.9-21.6zm-21 45.8c0-4.6.5-9.1 1.6-13.6h19.8c-.4 4.4-.7 8.9-.7 13.6 0 4.6.3 9.1.7 13.5h-19.8c-1-4.4-1.6-9-1.6-13.5zm21 45.7c-6.9-5.9-12.2-13.4-15.9-21.6h17.9c2.3 12 6.4 22.5 11.8 30.5-4.9-2.3-9.6-5.3-13.8-8.9zm39.4 14.6c-10.6 0-21.7-13.9-26.5-36.2h53.1c-4.9 22.3-16.1 36.2-26.6 36.2zm39.3-14.6c-4.2 3.6-8.8 6.5-13.8 8.9 5.3-8 9.4-18.5 11.8-30.5h17.9c-3.7 8.3-9.1 15.7-15.9 21.6zm19.4-32.2H295c.4-4.4.7-8.9.7-13.5 0-4.7-.3-9.2-.7-13.6h19.8c1.1 4.4 1.6 8.9 1.6 13.6 0 4.5-.6 9.1-1.6 13.5z" opacity="1" data-original="#4fabf7"></path><g fill="#9bd8f9"><path d="M311.2 222.2h-17.9c-2.3-12-6.4-22.5-11.8-30.5 4.9 2.3 9.6 5.3 13.8 8.9 6.9 5.9 12.3 13.3 15.9 21.6zM316.4 246.4c0 4.6-.5 9.1-1.6 13.5H295c.4-4.4.7-8.9.7-13.5 0-4.7-.3-9.2-.7-13.6h19.8c1 4.4 1.6 8.9 1.6 13.6zM311.2 270.5c-3.6 8.2-9 15.7-15.9 21.6-4.2 3.6-8.8 6.5-13.8 8.9 5.3-8 9.4-18.5 11.8-30.5zM282.6 270.5c-4.8 22.3-16 36.2-26.5 36.2s-21.7-13.9-26.5-36.2zM285 246.4c0 4.7-.3 9.2-.7 13.5h-56.5c-.5-4.3-.7-8.8-.7-13.5s.3-9.3.7-13.6h56.5c.5 4.3.7 8.8.7 13.6zM282.6 222.2h-53.1c4.8-22.3 16-36.2 26.5-36.2s21.8 13.9 26.6 36.2z" fill="#9bd8f9" opacity="1" data-original="#9bd8f9" class=""></path></g><path fill="#76c1f4" d="M230.5 191.7c-5.3 8-9.4 18.5-11.8 30.5h-17.9c3.6-8.2 9-15.7 15.9-21.6 4.2-3.6 8.9-6.6 13.8-8.9zM230.5 301c-4.9-2.3-9.6-5.3-13.8-8.9-6.9-5.9-12.2-13.4-15.9-21.6h17.9c2.4 12 6.5 22.5 11.8 30.5zM216.4 246.4c0 4.6.3 9.1.7 13.5h-19.8c-1.1-4.4-1.6-8.9-1.6-13.5s.5-9.1 1.6-13.6h19.8c-.4 4.4-.7 8.9-.7 13.6z" opacity="1" data-original="#76c1f4"></path><path fill="#fcad6d" d="M372.1 102c0 23.1-17.4 41.8-38.8 41.8h-7.7c19.3 0 34.9-15.2 34.9-34 0-18.7-15.6-33.9-34.9-33.9-1.8 0-3.6.2-5.3.4.1-.8.1-1.6.1-2.4 0-22-18.4-39.9-41.1-39.9-22.2 0-40.3 17.2-41 38.7-5.9-6.8-14.6-11.1-24.4-11.1-17.6 0-31.8 13.8-31.8 30.9v.4c-1.4-.2-2.8-.4-4.3-.4-14.6 0-26.4 11.5-26.4 25.6 0 14.2 11.8 25.7 26.4 25.7h-8.7c-16.2 0-29.4-14.1-29.4-31.5s13.1-31.5 29.4-31.5c1.6 0 3.2.2 4.7.5v-.5c0-20.9 15.8-37.9 35.3-37.9 10.9 0 20.6 5.3 27.1 13.6 1-26.5 21-47.6 45.8-47.6 25.2 0 45.6 22 45.6 49 0 1-.1 1.9-.2 2.9 1.9-.3 3.8-.5 5.9-.5 21.4-.1 38.8 18.6 38.8 41.7z" opacity="1" data-original="#fcad6d"></path><path fill="#ffc294" d="M360.5 109.7c0 18.8-15.6 34-34.9 34H178c-14.6 0-26.4-11.5-26.4-25.7 0-14.1 11.8-25.6 26.4-25.6 1.4 0 2.9.2 4.3.4v-.4c0-17.1 14.2-30.9 31.8-30.9 9.8 0 18.5 4.3 24.4 11.1.7-21.4 18.7-38.7 41-38.7 22.7 0 41.1 17.9 41.1 39.9 0 .8-.1 1.6-.1 2.4 1.7-.3 3.5-.4 5.3-.4 19.1 0 34.7 15.2 34.7 33.9z" opacity="1" data-original="#ffc294"></path><g fill="#f3eae6"><path d="M209.1 110.8c0 1.1-.2 2.1-.5 3-1.3-4.3-5.4-7.4-10.2-7.4s-8.9 3.1-10.2 7.4c-.3-1-.5-2-.5-3 0-5.9 4.8-10.7 10.7-10.7s10.7 4.8 10.7 10.7zM266.7 110.8c0 1.1-.2 2.1-.5 3-1.3-4.3-5.4-7.4-10.2-7.4s-8.9 3.1-10.2 7.4c-.3-1-.5-2-.5-3 0-5.9 4.8-10.7 10.7-10.7s10.7 4.8 10.7 10.7zM324.3 110.8c0 1.1-.2 2.1-.5 3-1.3-4.3-5.4-7.4-10.2-7.4-4.7 0-8.8 3.1-10.2 7.4-.3-1-.5-2-.5-3 0-5.9 4.8-10.7 10.6-10.7 6.1 0 10.8 4.8 10.8 10.7z" fill="#f3eae6" opacity="1" data-original="#f3eae6"></path></g><g fill="#f9f3f1"><path d="M208.6 113.8v.1c-1.3 4.4-5.4 7.5-10.2 7.5s-8.9-3.1-10.2-7.5v-.1c1.3-4.3 5.4-7.4 10.2-7.4s8.9 3.1 10.2 7.4zM266.3 113.8v.1c-1.3 4.4-5.4 7.5-10.2 7.5s-8.9-3.1-10.2-7.5v-.1c1.3-4.3 5.4-7.4 10.2-7.4s8.8 3.1 10.2 7.4zM323.9 113.8v.1c-1.3 4.4-5.4 7.5-10.2 7.5-4.7 0-8.8-3.1-10.2-7.5v-.1c1.3-4.3 5.4-7.4 10.2-7.4 4.7 0 8.8 3.1 10.2 7.4z" fill="#f9f3f1" opacity="1" data-original="#f9f3f1"></path></g><g fill="#58dd8e"><path d="M23.7 480.9H11.4c-2.8 0-5-2.2-5-5v-10.6h12.3v10.6c0 2.7 2.2 5 5 5zM200.7 480.9h-12.3c-2.8 0-5-2.2-5-5v-10.6h12.3v10.6c0 2.7 2.3 5 5 5zM377.8 480.9h-12.3c-2.8 0-5-2.2-5-5v-10.6h12.3v10.6c0 2.7 2.2 5 5 5z" fill="#58dd8e" opacity="1" data-original="#58dd8e"></path></g><g fill="#71eaa2"><path d="M151.6 465.2v10.6c0 2.8-2.2 5-5 5H23.7c-2.8 0-5-2.2-5-5v-10.6zM328.7 465.2v10.6c0 2.8-2.2 5-5 5h-123c-2.8 0-5-2.2-5-5v-10.6zM505.7 465.2v10.6c0 2.8-2.2 5-5 5H377.8c-2.8 0-5-2.2-5-5v-10.6z" fill="#71eaa2" opacity="1" data-original="#71eaa2"></path></g><g fill="#f3eae6"><path d="M23.7 384.9c-2.8 0-5 2.2-5 5v75.4H6.4v-75.4c0-2.8 2.2-5 5-5zM200.7 384.9c-2.8 0-5 2.2-5 5v75.4h-12.3v-75.4c0-2.8 2.2-5 5-5zM377.8 384.9c-2.8 0-5 2.2-5 5v75.4h-12.3v-75.4c0-2.8 2.2-5 5-5z" fill="#f3eae6" opacity="1" data-original="#f3eae6"></path></g><g fill="#f9f3f1"><path d="M151.6 389.9v75.4H18.7v-75.4c0-2.8 2.2-5 5-5h122.9c2.8 0 5 2.2 5 5zM328.7 389.9v75.4h-133v-75.4c0-2.8 2.2-5 5-5h122.9c2.8 0 5.1 2.2 5.1 5zM505.7 389.9v75.4H372.8v-75.4c0-2.8 2.2-5 5-5h122.9c2.8 0 5 2.2 5 5z" fill="#f9f3f1" opacity="1" data-original="#f9f3f1"></path></g><path fill="#fcad6d" d="M242.8 480.9h7.6v22.2h-7.6zM419.9 480.9h7.6v22.2h-7.6zM65.7 480.9h7.7v22.2h-7.7z" opacity="1" data-original="#fcad6d"></path><path fill="#ffc294" d="M73.4 480.9h18.8v22.2H73.4zM250.4 480.9h18.9v22.2h-18.9zM427.5 480.9h18.9v22.2h-18.9z" opacity="1" data-original="#ffc294"></path><path fill="#58dd8e" d="M108.5 508.5h-59c-2.9 0-5.3-2.4-5.3-5.3s2.4-5.3 5.3-5.3h59c2.9 0 5.3 2.4 5.3 5.3s-2.4 5.3-5.3 5.3zM285.6 508.5h-59c-2.9 0-5.3-2.4-5.3-5.3s2.4-5.3 5.3-5.3h59c2.9 0 5.3 2.4 5.3 5.3s-2.4 5.3-5.3 5.3zM462.6 508.5h-59c-2.9 0-5.3-2.4-5.3-5.3s2.4-5.3 5.3-5.3h59c2.9 0 5.3 2.4 5.3 5.3s-2.3 5.3-5.3 5.3z" opacity="1" data-original="#58dd8e"></path><g fill="#231f20"><path d="M141.5 100.6c.8.5 1.7.7 2.6.7 1.9 0 3.7-1 4.6-2.7 4.4-7.9 12.1-12.6 20.5-12.6 1.2 0 2.4.1 3.8.4 1.5.3 3.1-.4 4.3-1.4s1.9-2.7 1.9-4.3c0-18 13.4-32.6 30-32.6 8.8 0 17.2 4.2 22.9 11.6 1.4 1.8 3.7 2.5 5.8 1.8s3.6-2.7 3.7-4.9c.7-23.7 18.4-42.3 40.2-42.3 8.9 0 17.3 3.1 24.4 8.9 2.3 1.9 5.6 1.6 7.5-.7s1.6-5.6-.7-7.5c-9-7.4-19.8-11.4-31.2-11.4-24.1 0-44.1 17.5-49.5 41.6-6.7-5-14.7-7.7-23.1-7.7-20.7 0-37.8 16.6-40.3 37.9-12.1.1-23.3 7-29.5 18-1.4 2.5-.4 5.7 2.1 7.2zM182.4 110.8c0 8.8 7.2 16 16 16s16-7.2 16-16-7.2-16-16-16-16 7.2-16 16zm21.3 0c0 3-2.4 5.4-5.4 5.4s-5.4-2.4-5.4-5.4 2.4-5.4 5.4-5.4 5.4 2.4 5.4 5.4zM240 110.8c0 8.8 7.2 16 16 16s16-7.2 16-16-7.2-16-16-16-16 7.2-16 16zm21.4 0c0 3-2.4 5.4-5.4 5.4s-5.4-2.4-5.4-5.4 2.4-5.4 5.4-5.4 5.4 2.4 5.4 5.4zM297.6 110.8c0 8.8 7.2 16 16 16s16-7.2 16-16-7.2-16-16-16-16 7.2-16 16zm21.4 0c0 3-2.4 5.4-5.4 5.4s-5.4-2.4-5.4-5.4 2.4-5.4 5.4-5.4 5.4 2.4 5.4 5.4zM146.6 379.6h-32.5c-2.9 0-5.3 2.4-5.3 5.3s2.4 5.3 5.3 5.3l32.1-.3v70H11.6v-34.8c0-2.9-2.4-5.3-5.3-5.3S1 422.1 1 425.1v50.8c0 5.7 4.6 10.3 10.3 10.3h49.1v11.6h-11c-2.9 0-5.3 2.4-5.3 5.3s2.4 5.3 5.3 5.3h59c2.9 0 5.3-2.4 5.3-5.3s-2.4-5.3-5.3-5.3H97.5v-11.6h49.1c5.7 0 10.3-4.6 10.3-10.3v-86c0-5.7-4.7-10.3-10.3-10.3zM71 497.8v-11.6h15.9v11.6zm75.6-22.2-49.1.1v-.1H60.4v.2l-48.7.1v-5.4h134.8z" fill="#231f20" opacity="1" data-original="#231f20" class=""></path><path d="M323.6 379.6h-62.3v-34.8h166.4v34.8h-62.3c-5.7 0-10.3 4.6-10.3 10.3v47.6c0 2.9 2.4 5.3 5.3 5.3s5.3-2.4 5.3-5.3l-.3-47.2h104.1c2.9 0 5.3-2.4 5.3-5.3s-2.4-5.3-5.3-5.3h-31.2v-35.9c0-5.3-4.3-9.6-9.6-9.6H261.3v-17c15-1.1 29.4-7 40.9-16.9 9.2-7.9 16.3-18.1 20.5-29.5 2.8-7.8 4.3-16 4.3-24.3 0-8.4-1.4-16.5-4.3-24.3-4.2-11.4-11.2-21.6-20.4-29.5-11.5-9.9-25.9-15.8-40.9-16.9V149h71.9c24.3 0 44.2-21.1 44.2-47.1 0-26.1-19.9-47.1-44.6-47-.4-7.7-2.3-15.4-5.7-22.2-1.3-2.6-4.5-3.7-7.1-2.4s-3.7 4.5-2.4 7.1c3.1 6.3 4.7 13.3 4.7 20.5 0 .6 0 1.2-.1 1.8v.8c-.1 1.6.6 3.2 1.8 4.2 1.2 1.1 2.8 1.6 4.4 1.3 1.9-.3 3.5-.5 5-.5 18.5 0 33.5 16.3 33.5 36.4s-15 36.4-33.5 36.4H169.3c-13.2 0-24-11.8-24-26.2 0-2.9-2.4-5.3-5.3-5.3s-5.3 2.4-5.3 5.3c0 20.3 15.5 36.8 34.7 36.8h81.4v26.6c-15.1 1.1-29.4 7-40.9 16.9-9.2 7.9-16.3 18.1-20.5 29.5-2.8 7.8-4.3 16-4.3 24.3 0 8.4 1.4 16.5 4.3 24.3 4.1 11.4 11.2 21.6 20.5 29.5 11.5 9.9 25.9 15.8 40.9 16.9v17H83.2c-5.3 0-9.6 4.3-9.6 9.6v35.9H11.3C5.6 379.4 1 384 1 389.7V407c0 2.9 2.4 5.3 5.3 5.3s5.3-2.4 5.3-5.3l-.3-16.7h86.9c2.9 0 5.3-2.4 5.3-5.3s-2.4-5.3-5.3-5.3h-14v-34.8h166.5v34.8h-28.5c-2.9 0-5.3 2.4-5.3 5.3s2.4 5.3 5.3 5.3l101.1-.3v29c0 2.9 2.4 5.3 5.3 5.3s5.3-2.4 5.3-5.3v-29c0-5.8-4.6-10.4-10.3-10.4zm-94.1-109.1h53c-4.8 22.3-15.9 36.1-26.5 36.1s-21.7-13.8-26.5-36.1zm-32.2-10.6c-1-4.4-1.6-8.9-1.6-13.5s.6-9.1 1.6-13.5h19.8c-.5 4.4-.7 8.9-.7 13.5s.3 9.2.7 13.5zm29.7-13.6c0-4.7.3-9.2.7-13.5h56.5c.5 4.3.7 8.8.7 13.5s-.3 9.2-.7 13.5h-56.5c-.4-4.2-.7-8.7-.7-13.5zm29-60.3c10.6 0 21.7 13.8 26.5 36.2h-53.1c4.9-22.3 16-36.2 26.6-36.2zm58.7 46.8c1 4.4 1.6 8.9 1.6 13.5s-.6 9.1-1.6 13.5h-19.8c.5-4.4.7-8.9.7-13.5s-.3-9.2-.7-13.5zm-19.4 59.3c-4.2 3.6-8.8 6.6-13.7 8.9 5.3-7.9 9.4-18.4 11.8-30.5h17.8c-3.7 8.3-9 15.7-15.9 21.6zm15.9-69.9h-17.8c-2.4-12-6.4-22.5-11.8-30.5 4.9 2.3 9.6 5.3 13.8 8.9 6.8 5.9 12.1 13.3 15.8 21.6zm-94.5-21.6c4.2-3.6 8.8-6.6 13.8-8.9-5.3 8-9.4 18.4-11.8 30.5h-17.8c3.6-8.3 8.9-15.7 15.8-21.6zm-15.9 69.9h17.8c2.4 12 6.4 22.5 11.8 30.5-4.9-2.3-9.6-5.3-13.7-8.9-6.9-5.9-12.2-13.4-15.9-21.6z" fill="#231f20" opacity="1" data-original="#231f20" class=""></path><path d="M328.6 429.1c-2.9 0-5.3 2.4-5.3 5.3v25.5H188.7l-.3-69.7h18.9c2.9 0 5.3-2.4 5.3-5.3s-2.4-5.3-5.3-5.3h-18.9c-5.7 0-10.3 4.6-10.3 10.3v86c0 5.7 4.6 10.3 10.3 10.3h49v11.6h-10.9c-2.9 0-5.3 2.4-5.3 5.3s2.4 5.3 5.3 5.3h59c2.9 0 5.3-2.4 5.3-5.3s-2.4-5.3-5.3-5.3h-10.9v-11.6h49c5.7 0 10.3-4.6 10.3-10.3v-41.4c0-3-2.4-5.4-5.3-5.4zm-64.7 68.7H248v-11.6h15.9zm59.7-22.2-49 .1v-.1h-37.1v.2l-48.7.1v-5.3h134.7zM500.7 379.6h-17.4c-2.9 0-5.3 2.4-5.3 5.3s2.4 5.3 5.3 5.3l17.1-.3v70H365.8v-5.3c0-2.9-2.4-5.3-5.3-5.3s-5.3 2.4-5.3 5.3v21.3c0 5.7 4.6 10.3 10.3 10.3h49.1v11.6h-10.9c-2.9 0-5.3 2.4-5.3 5.3s2.4 5.3 5.3 5.3h59c2.9 0 5.3-2.4 5.3-5.3s-2.4-5.3-5.3-5.3h-10.9v-11.6h49.1c5.7 0 10.3-4.6 10.3-10.3v-86c-.2-5.7-4.8-10.3-10.5-10.3zm-75.6 118.2v-11.6H441v11.6zm75.6-22.2-49.1.1v-.1h-37.1v.2l-48.7.1v-5.4h134.8z" fill="#231f20" opacity="1" data-original="#231f20" class=""></path></g></g></svg>