<svg xmlns="http://www.w3.org/2000/svg" version="1.1" xmlns:xlink="http://www.w3.org/1999/xlink" width="512" height="512" x="0" y="0" viewBox="0 0 512 512" style="enable-background:new 0 0 512 512" xml:space="preserve" class=""><g><g fill="#f9d266"><path d="M256.015 380.888c-41.223 0-61.925 9.203-63.598 13.05 1.633 3.84 22.303 13.049 63.598 13.049 41.276 0 61.938-9.208 63.569-13.049-1.674-3.847-22.366-13.05-63.569-13.05zM83.646 380.888c-41.223 0-61.925 9.203-63.598 13.05 1.633 3.84 22.303 13.049 63.598 13.049s61.965-9.208 63.597-13.049c-1.674-3.847-22.375-13.05-63.597-13.05zM428.355 380.888c-41.223 0-61.925 9.203-63.598 13.05 1.632 3.84 22.303 13.049 63.598 13.049s61.965-9.208 63.597-13.049c-1.673-3.847-22.374-13.05-63.597-13.05z" fill="#f9d266" opacity="1" data-original="#f9d266"></path></g><path d="M262.015 368.966v-15.98c9.299-2.246 16.63-9.588 18.871-18.898h130.462c6.069 0 11.008 4.938 11.008 11.009v21.969h12v-21.969c0-12.687-10.321-23.009-23.008-23.009H280.884c-2.243-9.297-9.573-16.627-18.87-18.871v-15.931h5.905a6 6 0 0 0 5.87-4.759l2.464-11.649 8.249-3.419 9.994 6.498a6 6 0 0 0 7.514-.788l16.837-16.838a6 6 0 0 0 .787-7.513l-6.498-9.994 3.42-8.251 11.034-2.334h34.437c39.882 0 72.328-32.461 72.328-72.361 0-39.884-32.446-72.332-72.328-72.332-.247 0-.492.001-.737.004-11.213-26.664-37.473-44.282-66.697-44.282a72.507 72.507 0 0 0-29.238 6.164C252.71 22.505 228.472 8 201.988 8c-39.898 0-72.357 32.448-72.357 72.332 0 1.98.088 4.004.262 6.056-30.582 8.834-52.247 37.219-52.247 69.49 0 39.9 32.459 72.361 72.356 72.361h34.409l11.056 2.334 3.4 8.246-6.502 9.999a5.998 5.998 0 0 0 .788 7.513l16.838 16.838a6 6 0 0 0 7.508.791l10.021-6.501 8.233 3.42 2.488 11.66a6.001 6.001 0 0 0 5.868 4.748h5.905v15.929c-9.31 2.242-16.651 9.573-18.897 18.872H100.652c-12.686 0-23.007 10.322-23.007 23.009v23.87C49.284 369.676 8 375.512 8 393.938v85.013C8 498.724 55.55 504 83.646 504s75.645-5.276 75.645-25.049v-85.013c0-18.425-41.283-24.261-69.645-24.972v-23.87c0-6.07 4.938-11.009 11.007-11.009h130.464c2.244 9.313 9.586 16.656 18.898 18.9v15.979c-28.362.71-69.646 6.547-69.646 24.972v85.013c0 19.773 47.55 25.049 75.646 25.049 28.085 0 75.616-5.276 75.616-25.049v-85.013c0-18.425-41.266-24.261-69.616-24.972zM89.646 155.878c0-28.469 20.208-53.31 48.051-59.068a6 6 0 0 0 4.714-6.8c-.518-3.316-.779-6.573-.779-9.678 0-33.267 27.076-60.332 60.357-60.332 23.839 0 45.496 14.089 55.175 35.894a6.002 6.002 0 0 0 8.38 2.821c8.843-4.872 18.889-7.448 29.05-7.448 25.633 0 48.531 16.247 56.979 40.427a6.007 6.007 0 0 0 6.091 4.006 60.822 60.822 0 0 1 4.364-.155c33.265 0 60.328 27.065 60.328 60.332 0 33.283-27.063 60.361-60.328 60.361h-29.064v-17.812a6 6 0 0 0-4.747-5.868l-11.659-2.489-3.419-8.23 6.497-9.992a6 6 0 0 0-.787-7.513l-16.837-16.838a6.002 6.002 0 0 0-7.506-.793l-10.001 6.481-8.25-3.403-2.463-11.669a6 6 0 0 0-5.871-4.761H244.11a6 6 0 0 0-5.868 4.75l-2.488 11.68-8.233 3.403-10.028-6.484a5.999 5.999 0 0 0-7.5.796l-16.838 16.838a5.998 5.998 0 0 0-.788 7.513l6.501 9.997-3.399 8.225-11.68 2.488a6 6 0 0 0-4.75 5.868v17.812h-29.035c-33.282.002-60.358-27.076-60.358-60.359zm157.185 109.415a6.002 6.002 0 0 0-3.566-4.289l-14.06-5.839a5.996 5.996 0 0 0-5.567.508l-8.596 5.577-9.966-9.966 5.57-8.567a5.999 5.999 0 0 0 .517-5.558l-5.811-14.089a5.998 5.998 0 0 0-4.308-3.583l-10.008-2.113v-14.09l10.019-2.135a6 6 0 0 0 4.295-3.577l5.811-14.06a5.998 5.998 0 0 0-.515-5.562l-5.57-8.567 9.972-9.971 8.598 5.559a6.001 6.001 0 0 0 5.55.506l14.06-5.811a5.998 5.998 0 0 0 3.576-4.295l2.135-10.019h14.088l2.112 10.008a6.003 6.003 0 0 0 3.583 4.308l14.088 5.811a6.002 6.002 0 0 0 5.551-.511l8.569-5.553 9.968 9.968-5.571 8.567a6 6 0 0 0-.511 5.572l5.84 14.06a5.998 5.998 0 0 0 4.288 3.566l9.992 2.133v14.094l-9.981 2.112a6 6 0 0 0-4.301 3.573l-5.84 14.089a6.001 6.001 0 0 0 .513 5.568l5.57 8.567-9.961 9.962-8.567-5.57a6.001 6.001 0 0 0-5.568-.513l-14.088 5.839a6 6 0 0 0-3.572 4.301l-2.111 9.982h-14.092zM147.29 422.176c-1.33 3.78-22.036 13.158-63.645 13.158S21.33 425.956 20 422.176v-13.611c15.954 7.94 44.375 10.422 63.646 10.422 19.27 0 47.69-2.483 63.645-10.422v13.611zm0 28.326c-1.303 3.784-21.979 13.179-63.645 13.179-41.667 0-62.343-9.395-63.646-13.18v-13.589c15.954 7.939 44.375 10.422 63.646 10.422 19.27 0 47.69-2.483 63.645-10.422zM83.646 492C42.09 492 21.378 482.645 20 478.855v-13.608c15.954 7.949 44.375 10.434 63.646 10.434 19.27 0 47.69-2.486 63.645-10.434v13.608c-1.379 3.79-22.09 13.145-63.645 13.145zm63.597-98.062c-1.633 3.84-22.302 13.049-63.597 13.049s-61.966-9.208-63.598-13.049c1.674-3.847 22.375-13.05 63.598-13.05s61.923 9.203 63.597 13.05zm172.388 28.238c-1.33 3.78-22.027 13.158-63.616 13.158-41.608 0-62.316-9.378-63.646-13.158v-13.611c15.955 7.94 44.375 10.422 63.646 10.422 19.261 0 47.667-2.482 63.616-10.42zm0 28.326c-1.303 3.784-21.969 13.179-63.616 13.179-41.667 0-62.343-9.395-63.646-13.18v-13.589c15.955 7.939 44.375 10.422 63.646 10.422 19.261 0 47.667-2.482 63.616-10.42zm-77.232-122.415c0-7.492 6.107-13.588 13.615-13.588 7.492 0 13.587 6.095 13.587 13.588 0 7.508-6.095 13.616-13.587 13.616-7.507 0-13.615-6.108-13.615-13.616zm13.616 52.801c41.204 0 61.896 9.203 63.569 13.05-1.631 3.841-22.293 13.049-63.569 13.049-41.295 0-61.966-9.208-63.598-13.049 1.673-3.847 22.375-13.05 63.598-13.05zm0 111.112c-41.556 0-62.268-9.355-63.646-13.145v-13.608c15.955 7.949 44.375 10.434 63.646 10.434 19.261 0 47.667-2.485 63.616-10.432v13.605c-1.377 3.791-22.08 13.146-63.616 13.146zm36.415-281.667c0-20.096-16.336-36.445-36.415-36.445-20.095 0-36.443 16.349-36.443 36.445s16.349 36.445 36.443 36.445c20.079 0 36.415-16.35 36.415-36.445zm-36.415 24.445c-13.479 0-24.443-10.966-24.443-24.445s10.965-24.445 24.443-24.445c13.463 0 24.415 10.966 24.415 24.445s-10.952 24.445-24.415 24.445zm172.34 134.11c-28.096 0-75.646 5.276-75.646 25.049v85.013c0 19.773 47.55 25.049 75.646 25.049S504 498.724 504 478.951v-85.013c0-19.774-47.549-25.05-75.645-25.05zM492 422.176c-1.33 3.78-22.036 13.158-63.645 13.158s-62.316-9.378-63.646-13.158v-13.611c15.955 7.94 44.375 10.422 63.646 10.422s47.69-2.483 63.645-10.422zm0 28.326c-1.303 3.784-21.978 13.179-63.645 13.179s-62.343-9.395-63.646-13.18v-13.589c15.955 7.939 44.375 10.422 63.646 10.422s47.69-2.483 63.645-10.422zm-63.645-69.614c41.223 0 61.924 9.203 63.597 13.05-1.632 3.84-22.302 13.049-63.597 13.049s-61.966-9.208-63.598-13.049c1.674-3.847 22.376-13.05 63.598-13.05zm0 111.112c-41.556 0-62.268-9.355-63.646-13.145v-13.608c15.955 7.949 44.375 10.434 63.646 10.434s47.69-2.486 63.645-10.434v13.608c-1.378 3.79-22.089 13.145-63.645 13.145zm-5.782-99.678a6.032 6.032 0 0 1 7.398-4.167 6.022 6.022 0 0 1 4.167 7.398c-.907 3.203-4.195 5.074-7.398 4.167-3.203-.878-5.046-4.195-4.167-7.398zm-172.341 0c.879-3.175 4.195-5.046 7.398-4.167 3.175.907 5.046 4.224 4.139 7.398-.878 3.203-4.195 5.074-7.37 4.167a5.975 5.975 0 0 1-4.167-7.398zm-164.971-4.167a6.022 6.022 0 0 1 4.167 7.398 5.975 5.975 0 0 1-7.398 4.167c-3.175-.879-5.045-4.195-4.167-7.399.907-3.174 4.223-5.045 7.398-4.166z" fill="#000000" opacity="1" data-original="#000000"></path><path fill="#f6b940" d="M192.369 408.565v13.611c1.33 3.78 22.037 13.158 63.646 13.158 41.589 0 62.287-9.378 63.616-13.158v-13.609c-15.949 7.938-44.355 10.42-63.616 10.42-19.271 0-47.691-2.482-63.646-10.422z" opacity="1" data-original="#f6b940"></path><path fill="#f4a93c" d="M83.646 463.681c41.666 0 62.342-9.395 63.645-13.179v-13.59c-15.954 7.939-44.374 10.422-63.645 10.422S35.955 444.851 20 436.912v13.589c1.303 3.785 21.979 13.18 63.646 13.18zM364.71 436.912v13.589c1.303 3.785 21.979 13.18 63.646 13.18s62.342-9.395 63.645-13.179v-13.59c-15.954 7.939-44.374 10.422-63.645 10.422s-47.691-2.483-63.646-10.422z" opacity="1" data-original="#f4a93c"></path><path fill="#d5883e" d="M364.71 465.247v13.608c1.378 3.79 22.09 13.145 63.646 13.145s62.267-9.355 63.645-13.145v-13.608c-15.954 7.948-44.374 10.434-63.645 10.434s-47.691-2.485-63.646-10.434z" opacity="1" data-original="#d5883e"></path><path fill="#f6b940" d="M83.646 435.334c41.609 0 62.315-9.378 63.645-13.158v-13.611c-15.954 7.94-44.374 10.422-63.645 10.422S35.955 416.504 20 408.565v13.611c1.33 3.78 22.037 13.158 63.646 13.158zM364.71 408.565v13.611c1.33 3.78 22.037 13.158 63.646 13.158s62.315-9.378 63.645-13.158v-13.611c-15.954 7.94-44.374 10.422-63.645 10.422s-47.691-2.482-63.646-10.422z" opacity="1" data-original="#f6b940"></path><path fill="#d5883e" d="M83.646 492c41.556 0 62.267-9.355 63.645-13.145v-13.608c-15.954 7.948-44.374 10.434-63.645 10.434S35.955 473.196 20 465.247v13.608C21.378 482.645 42.09 492 83.646 492z" opacity="1" data-original="#d5883e"></path><path fill="#474747" d="M265.167 265.304a6 6 0 0 1 3.572-4.301l14.088-5.839a6.001 6.001 0 0 1 5.568.513l8.567 5.57 9.961-9.962-5.57-8.567a6.001 6.001 0 0 1-.513-5.568l5.84-14.089a6.003 6.003 0 0 1 4.301-3.573l9.981-2.112v-14.094l-9.992-2.133a6 6 0 0 1-4.288-3.566l-5.84-14.06a6 6 0 0 1 .511-5.572l5.571-8.567-9.968-9.968-8.569 5.553a6.001 6.001 0 0 1-5.551.511l-14.088-5.811a6.003 6.003 0 0 1-3.583-4.308l-2.112-10.008h-14.088l-2.135 10.019a6 6 0 0 1-3.576 4.295l-14.06 5.811a6.002 6.002 0 0 1-5.55-.506l-8.598-5.559-9.972 9.971 5.57 8.567a5.998 5.998 0 0 1 .515 5.562l-5.811 14.06a6 6 0 0 1-4.295 3.577l-10.019 2.135v14.09l10.008 2.113a6 6 0 0 1 4.308 3.583l5.811 14.089a5.996 5.996 0 0 1-.517 5.558l-5.57 8.567 9.966 9.966 8.596-5.577a5.998 5.998 0 0 1 5.567-.508l14.06 5.839a6 6 0 0 1 3.566 4.289l2.133 9.993h14.092zm-45.596-54.971c0-20.096 16.349-36.445 36.443-36.445 20.079 0 36.415 16.349 36.415 36.445s-16.336 36.445-36.415 36.445c-20.094 0-36.443-16.35-36.443-36.445z" opacity="1" data-original="#474747" class=""></path><path fill="#c0dafc" d="m198.866 181.845-6.501-9.997a5.998 5.998 0 0 1 .788-7.513l16.838-16.838a5.999 5.999 0 0 1 7.5-.796l10.028 6.484 8.233-3.403 2.488-11.68a6 6 0 0 1 5.868-4.75h23.811a6 6 0 0 1 5.871 4.761l2.463 11.669 8.25 3.403 10.001-6.481a6.002 6.002 0 0 1 7.506.793l16.837 16.838a6 6 0 0 1 .787 7.513l-6.497 9.992 3.419 8.23 11.659 2.489a6 6 0 0 1 4.747 5.868v17.812h29.064c33.265 0 60.328-27.078 60.328-60.361 0-33.267-27.063-60.332-60.328-60.332-1.478 0-2.904.051-4.364.155a6.008 6.008 0 0 1-6.091-4.006c-8.448-24.181-31.347-40.427-56.979-40.427-10.161 0-20.207 2.575-29.05 7.448a6 6 0 0 1-8.38-2.821C247.484 34.089 225.827 20 201.988 20c-33.281 0-60.357 27.065-60.357 60.332 0 3.105.262 6.362.779 9.678a6 6 0 0 1-4.714 6.8c-27.843 5.758-48.051 30.599-48.051 59.068 0 33.283 27.076 60.361 60.356 60.361h29.035v-17.812a6 6 0 0 1 4.75-5.868l11.68-2.488z" opacity="1" data-original="#c0dafc"></path><path fill="#c0dafc" d="M256.015 185.888c-13.479 0-24.443 10.966-24.443 24.445s10.965 24.445 24.443 24.445c13.463 0 24.415-10.966 24.415-24.445s-10.952-24.445-24.415-24.445z" opacity="1" data-original="#c0dafc"></path><path fill="#b52f28" d="M256.015 341.703c7.492 0 13.587-6.108 13.587-13.616 0-7.492-6.095-13.588-13.587-13.588-7.508 0-13.615 6.095-13.615 13.588-.001 7.508 6.107 13.616 13.615 13.616z" opacity="1" data-original="#b52f28"></path><path fill="#f4a93c" d="M192.369 436.912v13.589c1.303 3.785 21.979 13.18 63.646 13.18 41.647 0 62.313-9.395 63.616-13.179v-13.588c-15.949 7.938-44.355 10.42-63.616 10.42-19.271 0-47.691-2.483-63.646-10.422z" opacity="1" data-original="#f4a93c"></path><path fill="#d5883e" d="M192.369 465.247v13.608c1.378 3.79 22.09 13.145 63.646 13.145 41.536 0 62.239-9.355 63.616-13.145V465.25c-15.949 7.947-44.355 10.432-63.616 10.432-19.271-.001-47.691-2.486-63.646-10.435z" opacity="1" data-original="#d5883e"></path></g></svg>