<svg xmlns="http://www.w3.org/2000/svg" version="1.1" xmlns:xlink="http://www.w3.org/1999/xlink" xmlns:svgjs="http://svgjs.com/svgjs" width="512" height="512" x="0" y="0" viewBox="0 0 512 512" style="enable-background:new 0 0 512 512" xml:space="preserve" class=""><g><path d="M382.19 195.356v-110.7a18.321 18.321 0 0 0-18.3-18.3h-19.314V51.97a18.32 18.32 0 0 0-18.3-18.3H69.888a6.379 6.379 0 0 0-4.921 2.319L17.7 93.254a6.419 6.419 0 0 0-.579.84c-.02.034-.042.066-.061.1a6.439 6.439 0 0 0-.407.884l-.053.146a6.282 6.282 0 0 0-.246.929c-.01.053-.016.107-.025.16a6.376 6.376 0 0 0-.084.973V427.347a18.32 18.32 0 0 0 18.3 18.3h19.314v14.386a18.319 18.319 0 0 0 18.3 18.3H363.89a18.319 18.319 0 0 0 18.3-18.3v-.673a154.554 154.554 0 0 0 81.823-56.526 159.219 159.219 0 0 0 31.742-94.771v-79.979zm-18.3-116.239a5.544 5.544 0 0 1 5.537 5.539V196.09l-24.851 7.162V79.117zM64.939 56.073V85.4a5.544 5.544 0 0 1-5.539 5.535H36.166zM29.007 427.347V103.7H59.4a18.32 18.32 0 0 0 18.3-18.3V46.432h248.576a5.544 5.544 0 0 1 5.537 5.538v154.96l-73.4 21.154v14.007H67.284a6.382 6.382 0 0 0 0 12.763h191.125v32.03H67.284a6.382 6.382 0 0 0 0 12.763h191.125v8.415a154.48 154.48 0 0 0 1.834 23.617H67.284a6.381 6.381 0 0 0 0 12.762h195.475a160.348 160.348 0 0 0 11.412 32.032H67.284a6.382 6.382 0 0 0 0 12.763h213.752a158.445 158.445 0 0 0 38.576 43.647H34.545a5.543 5.543 0 0 1-5.538-5.536zm334.883 38.221H72.158a5.543 5.543 0 0 1-5.537-5.536v-14.386h259.655a18.146 18.146 0 0 0 8.761-2.238 155.362 155.362 0 0 0 34.39 15.2v1.427a5.543 5.543 0 0 1-5.537 5.533zm119.1-157.506c0 65.2-43.465 122.314-105.911 139.477a143.9 143.9 0 0 1-86.343-66.7 6.372 6.372 0 0 0-1.233-2.163 144.72 144.72 0 0 1-15.3-41.07 6.39 6.39 0 0 0-.317-1.59 145.342 145.342 0 0 1-2.713-27.957v-70.371l68.895-19.855.035-.01 36.98-10.658 105.911 30.523zM124.553 158.885a6.381 6.381 0 0 1 6.382-6.381h162.6a6.382 6.382 0 0 1 0 12.763h-162.6a6.382 6.382 0 0 1-6.382-6.382zM60.9 203.679a6.381 6.381 0 0 1 6.381-6.382h226.256a6.382 6.382 0 0 1 0 12.763H67.284a6.381 6.381 0 0 1-6.384-6.381zM309.571 320.92a67.512 67.512 0 1 0 67.512-67.511 67.589 67.589 0 0 0-67.512 67.511zm67.512-54.749a54.75 54.75 0 1 1-54.749 54.749 54.811 54.811 0 0 1 54.749-54.749zm-30.7 52.556a6.383 6.383 0 0 1 8.9-1.511l16.862 11.967 25.632-29.266a6.381 6.381 0 0 1 9.6 8.408l-29.428 33.6a6.381 6.381 0 0 1-8.493 1l-21.56-15.3a6.381 6.381 0 0 1-1.511-8.898z" fill="#ffffff" data-original="#000000" class=""></path></g></svg>