<svg xmlns="http://www.w3.org/2000/svg" version="1.1" xmlns:xlink="http://www.w3.org/1999/xlink" xmlns:svgjs="http://svgjs.com/svgjs" width="512" height="512" x="0" y="0" viewBox="0 0 64 64" style="enable-background:new 0 0 512 512" xml:space="preserve" class=""><g><path d="M31.892 35.286A2.111 2.111 0 0 0 34 33.177v-2.354a2.111 2.111 0 0 0-2.108-2.109.128.128 0 0 1-.124-.074 11.276 11.276 0 0 0-.778-1.873.129.129 0 0 1 .035-.145 2.111 2.111 0 0 0 0-2.982l-1.665-1.665a2.111 2.111 0 0 0-2.983 0 .126.126 0 0 1-.144.033 11.149 11.149 0 0 0-1.9-.785c-.024-.007-.049-.046-.049-.117A2.111 2.111 0 0 0 22.177 19h-2.354a2.111 2.111 0 0 0-2.109 2.108.128.128 0 0 1-.074.124 11.276 11.276 0 0 0-1.873.778.128.128 0 0 1-.145-.035 2.111 2.111 0 0 0-2.982 0l-1.665 1.665a2.112 2.112 0 0 0 0 2.983.131.131 0 0 1 .034.143 11.241 11.241 0 0 0-.779 1.874.128.128 0 0 1-.124.074A2.111 2.111 0 0 0 8 30.823v2.354a2.116 2.116 0 0 0 2.132 2.109.1.1 0 0 1 .093.048 11.125 11.125 0 0 0 .785 1.9.129.129 0 0 1-.035.145 2.111 2.111 0 0 0 0 2.982l1.665 1.665a2.112 2.112 0 0 0 2.983 0 .132.132 0 0 1 .143-.034 11.241 11.241 0 0 0 1.874.779.128.128 0 0 1 .074.124A2.111 2.111 0 0 0 19.823 45h2.354a2.111 2.111 0 0 0 2.109-2.108.128.128 0 0 1 .074-.124 11.276 11.276 0 0 0 1.873-.778.131.131 0 0 1 .145.035 2.11 2.11 0 0 0 2.982 0l1.665-1.665a2.112 2.112 0 0 0 0-2.983.131.131 0 0 1-.034-.143 11.241 11.241 0 0 0 .779-1.874.128.128 0 0 1 .122-.074zm-2.034-.522a9.183 9.183 0 0 1-.639 1.539 2.116 2.116 0 0 0 .391 2.489.109.109 0 0 1 0 .154l-1.665 1.665a.109.109 0 0 1-.155 0 2.115 2.115 0 0 0-2.49-.391 9.218 9.218 0 0 1-1.538.638 2.113 2.113 0 0 0-1.478 2.034.109.109 0 0 1-.109.108h-2.352a.109.109 0 0 1-.109-.108 2.113 2.113 0 0 0-1.478-2.034 9.183 9.183 0 0 1-1.539-.639 2.1 2.1 0 0 0-.977-.242 2.137 2.137 0 0 0-1.512.633.109.109 0 0 1-.154 0l-1.665-1.665a.11.11 0 0 1 0-.155 2.114 2.114 0 0 0 .39-2.488 9.245 9.245 0 0 1-.646-1.56 2.085 2.085 0 0 0-2.027-1.457.109.109 0 0 1-.106-.108v-2.354a.109.109 0 0 1 .108-.109 2.113 2.113 0 0 0 2.034-1.478 9.183 9.183 0 0 1 .639-1.539 2.116 2.116 0 0 0-.391-2.489.109.109 0 0 1 0-.154l1.665-1.665a.111.111 0 0 1 .155 0 2.115 2.115 0 0 0 2.489.389 9.218 9.218 0 0 1 1.538-.638 2.113 2.113 0 0 0 1.478-2.034.109.109 0 0 1 .108-.106h2.354c.06 0 .109.049.109.132a2.079 2.079 0 0 0 1.458 2 9.182 9.182 0 0 1 1.559.645 2.118 2.118 0 0 0 2.489-.391.109.109 0 0 1 .154 0l1.665 1.665a.11.11 0 0 1 0 .155 2.114 2.114 0 0 0-.391 2.494 9.218 9.218 0 0 1 .638 1.538 2.113 2.113 0 0 0 2.034 1.478.109.109 0 0 1 .108.109v2.354a.109.109 0 0 1-.108.109 2.113 2.113 0 0 0-2.034 1.476z" fill="#bb0b0b" data-original="#000000" opacity="1" class=""></path><path d="M21 25a7 7 0 1 0 7 7 7.008 7.008 0 0 0-7-7zm0 12a5 5 0 1 1 5-5 5.006 5.006 0 0 1-5 5z" fill="#bb0b0b" data-original="#000000" opacity="1" class=""></path><path d="M21 52a19.905 19.905 0 0 0 17.01-9.472l-1.7-1.055a18.011 18.011 0 1 1-1.526-21.037l-2.063-.425-.4 1.959 4.9 1.009a.99.99 0 0 0 .2.021 1 1 0 0 0 1-1.081l-.4-4.983-1.993.161.152 1.886A20 20 0 1 0 21 52zM51.633 22.226A1 1 0 0 0 50 23v3h-9v2h10a1 1 0 0 0 1-1v-1.89L60.421 32 52 38.89V37a1 1 0 0 0-1-1H41v2h9v3a1 1 0 0 0 1.633.774l11-9a1 1 0 0 0 0-1.548z" fill="#bb0b0b" data-original="#000000" opacity="1" class=""></path><path d="M37 26h2v2h-2zM37 36h2v2h-2zM37 31h2v2h-2z" fill="#bb0b0b" data-original="#000000" opacity="1" class=""></path></g></svg>