<svg xmlns="http://www.w3.org/2000/svg" version="1.1" xmlns:xlink="http://www.w3.org/1999/xlink" width="512" height="512" x="0" y="0" viewBox="0 0 500 500" style="enable-background:new 0 0 512 512" xml:space="preserve" class=""><g><g fill-rule="evenodd" clip-rule="evenodd"><path fill="#e9d59a" d="M35.4 404h439.5v61.6H35.4z" opacity="1" data-original="#e9d59a"></path><path fill="#7baca2" d="M397.9 229.1V430h57.7V166.3c-17.4 23.9-36.8 40.9-57.7 62.8zm-285.4 126V430H54.8v-68.8c20.1-1.4 39.4-3.5 57.7-6.1zM226.9 317v113h-57.7v-96.3c20.5-4.8 39.8-10.4 57.7-16.7zm114.3-57.5V430h-57.7V291.5c19.4-9.9 40.4-21.9 57.7-32z" opacity="1" data-original="#7baca2"></path><path fill="#ddbe63" d="M35.4 444h439.5v21.6H35.4z" opacity="1" data-original="#ddbe63"></path><path fill="#f15f4b" d="m296.4 146.3-44 89.7-10.8-36.9L58.8 305.8l-.4-40.6L25 243.5l196.3-84.8-23.2-30.7z" opacity="1" data-original="#f15f4b" class=""></path><path fill="#b92025" d="m296.4 146.3-44 89.7-10.8-36.9L58.8 305.8l-.4-40z" opacity="1" data-original="#b92025"></path><path fill="#f7ec13" d="m396.3 34.4 18.6 33.7 37.9 7.3-26.4 28.2 4.8 38.3-34.9-16.4-35 16.4 4.8-38.3-26.4-28.2 37.9-7.3z" opacity="1" data-original="#f7ec13" class=""></path></g><path fill="#191919" d="M403.3 30.6 420.1 61l34.2 6.6c6 1.2 9 8.7 3.9 13.7l-23.3 24.9 4.3 34.6c.7 6-5.4 11.3-11.9 7.9l-30.9-14.5-31.5 14.8c-5.7 2.7-12-2.2-11.3-8.2l4.3-34.6-23.8-25.4c-4.3-4.6-1.8-12.1 4.3-13.3l34.2-6.6 16.8-30.5c2.9-5.5 11-5.3 13.9.2zm4.6 41.4-11.6-21.1L384.6 72c-1.1 2-3.1 3.5-5.5 4l-23.7 4.6 16 17.1c1.9 1.7 3 4.3 2.6 7l-3 23.9 21.8-10.2c2.1-1 4.5-1 6.8 0l21.8 10.2-3-23.9c-.3-2.2.4-4.6 2.1-6.4L437 80.7 413.4 76c-2.2-.4-4.3-1.9-5.5-4zm-104.6 78.2-43.8 89.3c-3.2 6.5-12.8 5.6-14.8-1.3l-7.9-27.1-174 101.6c-5.1 3-12.2-.3-12-7.5l-.3-35.6-29.8-19.4c-5.4-3.5-4.6-11.5 1.2-14l187-80.8-17.1-22.6c-4.3-5.7.5-14.2 8.3-12.6l97.8 18.2c5.3 1 8 7.1 5.4 11.8zm-49 63.8 30.3-61.8-67.7-12.6c1.8 2.4 11 14.1 11.8 15.9 1.8 4.1-.1 8.8-4.2 10.5L41.8 244.9l20.9 13.6c2.2 1.4 3.6 3.9 3.6 6.6l.2 26.8 170.9-99.8c4.5-2.6 10.2-.3 11.7 4.7zm151.6 18.3V422h41.7V189c-13.2 15.1-27.6 28.6-41.7 43.3zm-16 197.7v-18h-40.6v18c0 4.4-3.6 8-8 8h-57.7c-4.4 0-8-3.6-8-8v-18h-40.7v18c0 4.4-3.6 8-8 8h-57.7c-4.4 0-8-3.6-8-8v-18h-40.7v18c0 4.4-3.6 8-8 8H54.8c-4.4 0-8-3.6-8-8v-18h-3.4v45.6H467V412h-3.4v18c0 4.4-3.6 8-8 8h-57.7c-4.4 0-8-3.6-8-8zm0-34V229c0-2 .7-3.9 2.2-5.5 5.7-6 11.4-11.7 17-17.3 14.1-14.2 27.5-27.6 39.6-44 4.9-7.4 14.9-3.5 14.9 4.1V396H475c4.4 0 8 3.6 8 8v61.6c0 4.4-3.6 8-8 8H35.4c-4.4 0-8-3.6-8-8V404c0-4.4 3.6-8 8-8h11.4v-34.9c0-4.4 3.5-7.9 7.9-8 9.9-.7 19.5-1.6 28.8-2.5 9.4-1 18.7-2.1 27.9-3.5 4.8-.7 9.1 3.1 9.1 7.9v41h40.7v-62.4c0-4 2.9-7.3 6.7-7.9 10.1-2.4 19.7-4.8 28.8-7.5 9.2-2.7 18.4-5.6 27.6-8.8 5.2-1.8 10.6 2.1 10.6 7.5v79h40.7V291.5c0-3.2 1.9-6 4.7-7.3 9.8-5 19.7-10.3 29.1-15.6 9.9-5.6 19.4-11 27.9-16 5.4-3.1 12 .8 12 6.9V396zm-285.4 25.9v-57.7c-13.7 1.8-27.8 3.2-41.7 4.3v53.4zm114.4 0v-93.8c-13.4 4.4-27.8 8.4-41.7 11.8v82zm114.3 0V273.4c-13.4 7.7-28.2 16-41.7 23V422h41.7z" opacity="1" data-original="#191919" class=""></path></g></svg>