<svg xmlns="http://www.w3.org/2000/svg" version="1.1" xmlns:xlink="http://www.w3.org/1999/xlink" width="512" height="512" x="0" y="0" viewBox="0 0 512 512" style="enable-background:new 0 0 512 512" xml:space="preserve" class=""><g><g fill-rule="evenodd" clip-rule="evenodd"><path fill="#b3dafe" d="m37.75 139.27 345.38.04c14.33 0 26.03 11.73 26.03 26.04l-.03 249.95c0 14.31-11.7 26.03-26.04 26.03l-345.38-.04c-14.33 0-26.03-11.73-26.03-26.04l.03-249.95c.01-14.31 11.71-26.03 26.04-26.03z" opacity="1" data-original="#b3dafe"></path><path fill="#345b77" d="m264.04 497.14-33.93-94.88H190.7l-33.95 94.87 53.63.01z" opacity="1" data-original="#345b77"></path><path fill="#407093" d="m409.13 375.37-.01 39.93c0 14.31-11.7 26.03-26.04 26.03l-345.38-.04c-14.33 0-26.03-11.73-26.03-26.04l.01-39.93z" opacity="1" data-original="#407093"></path><path fill="#a1c4e5" d="M37.75 139.27h21.53c-14.31 0-26.03 11.72-26.04 26.03l-.03 210.02H11.68l.03-210.02c.01-14.31 11.71-26.03 26.04-26.03z" opacity="1" data-original="#a1c4e5"></path><path fill="#3a6584" d="M59.24 441.29H37.71c-14.5 0-26.03-11.89-26.03-26.04l.01-39.93h21.53l-.01 39.93c0 14.31 11.73 26.04 26.03 26.04z" opacity="1" data-original="#3a6584"></path><path fill="#fea832" d="M106.98 126.43h33.28c1.46 0 2.66 1.21 2.66 2.66l-.02 134.59c0 1.46-1.21 2.64-2.66 2.64h-33.28c-1.46 0-2.64-1.18-2.64-2.64l.02-134.59c.01-1.45 1.19-2.66 2.64-2.66z" opacity="1" data-original="#fea832"></path><path fill="#ff4155" d="M193.82 85.71h33.26c1.46 0 2.66 1.18 2.66 2.66l-.02 175.31c0 1.46-1.21 2.64-2.66 2.64H193.8c-1.48 0-2.66-1.18-2.66-2.64l.02-175.31a2.64 2.64 0 0 1 2.66-2.66z" opacity="1" data-original="#ff4155" class=""></path><path fill="#fea832" d="M280.62 108.87h33.25c1.48 0 2.66 1.18 2.66 2.66l-.02 152.16c0 1.46-1.18 2.64-2.66 2.64H280.6c-1.46 0-2.66-1.18-2.66-2.64l.02-152.16c0-1.48 1.2-2.66 2.66-2.66z" opacity="1" data-original="#fea832"></path><g fill="#70da40"><path d="M123.63 87.87c10.49 0 19.06-8.57 19.06-19.06s-8.57-19.06-19.06-19.06-19.03 8.57-19.03 19.06 8.54 19.06 19.03 19.06zM210.44 47.13c10.52 0 19.06-8.54 19.06-19.03s-8.54-19.06-19.06-19.06c-10.49 0-19.03 8.57-19.03 19.06s8.54 19.03 19.03 19.03zM297.27 70.29c10.49 0 19.03-8.54 19.03-19.03s-8.54-19.06-19.03-19.06c-10.52 0-19.06 8.57-19.06 19.06s8.54 19.03 19.06 19.03z" fill="#70da40" opacity="1" data-original="#70da40"></path></g><path fill="#aae6fa" d="M409.38 162.3c-50.25-.01-90.98 40.71-90.99 90.94-.01 50.25 40.71 90.98 90.97 90.99 50.23.01 90.96-40.71 90.96-90.97 0-50.22-40.72-90.95-90.94-90.96z" opacity="1" data-original="#aae6fa"></path><path fill="#334973" d="m394.05 386.79-.01 100.89c0 8.4 6.89 15.27 15.29 15.27 8.4 0 15.27-6.86 15.27-15.27l.01-100.89c0-5.41-4.39-9.8-9.8-9.81h-10.96c-5.37.01-9.8 4.4-9.8 9.81z" opacity="1" data-original="#334973"></path><path fill="#99cfe1" d="M409.38 162.3c-50.25-.01-90.98 40.71-90.99 90.94-.01 50.25 40.71 90.98 90.97 90.99 2.33 0 4.67-.08 6.97-.27-46.98-3.55-84-42.82-83.99-90.71s37.03-87.13 84.01-90.69c-2.3-.17-4.64-.26-6.97-.26z" opacity="1" data-original="#99cfe1"></path></g><path d="M509.43 253.05c0-53.3-42.18-96.94-94.92-99.32-5.68-11.54-17.56-19.18-30.7-19.18h-59.03v-23.68c0-5.89-4.77-10.67-10.64-10.67h-33.42c-5.88 0-10.67 4.79-10.67 10.67v23.68h-32.4V87.62c0-5.88-4.79-10.67-10.67-10.67h-33.39c-5.88 0-10.67 4.79-10.67 10.67v46.93h-32.4v-6.02c0-5.89-4.79-10.67-10.67-10.67h-33.39c-5.88 0-10.67 4.79-10.67 10.67v6.02H36.74c-18.84 0-34.17 15.33-34.17 34.17v251.15c0 18.84 15.33 34.17 34.17 34.17h128.32l-14.34 40.08h-27.89c-4.42 0-8.01 3.58-8.01 8.01s3.58 8.01 8.01 8.01h174.91c4.42 0 8.01-3.58 8.01-8.01s-3.58-8.01-8.01-8.01h-27.89l-14.34-40.08h128.32c.94 0 1.87-.05 2.8-.13l-.01 34.75c.04 12.87 10.53 23.34 23.37 23.34 12.89 0 23.37-10.48 23.37-23.37v-101.4c0-9-6.7-16.45-15.36-17.68v-17.41c51.09-4.08 91.43-46.96 91.43-99.09zm-16.01 0c0 45.99-37.43 83.41-83.44 83.41-45.99 0-83.41-37.42-83.41-83.41s37.42-83.41 83.41-83.41c46.01 0 83.44 37.42 83.44 83.41zM383.81 150.57c4.29 0 8.31 1.54 11.49 4.15-29.91 4.44-55.51 22.25-70.52 47.14v-51.28h59.03zm-97.75-34.36h22.71v142.07h-22.71zm-87.14-23.24h22.71v165.32h-22.71zm-87.13 40.9h22.71v124.41h-22.71zm-75.05 16.7h59.03v113.06c0 5.89 4.79 10.67 10.67 10.67h33.39c5.88 0 10.67-4.79 10.67-10.67V150.57h32.4v113.06c0 5.89 4.79 10.67 10.67 10.67h33.39c5.88 0 10.67-4.79 10.67-10.67V150.57h32.4v113.06c0 5.89 4.79 10.67 10.67 10.67h32.13c9.2 42.12 45.18 74.34 89.12 77.86v17.42a17.74 17.74 0 0 0-6.35 2.18H18.58V168.72c0-10.01 8.15-18.15 18.16-18.15zm216.08 343.56h-85.09l14.34-40.08h56.41zm130.99-56.1H36.74c-10.01 0-18.16-8.15-18.16-18.16v-32.1h368.05l-.01 50.01c-.92.15-1.86.25-2.81.25zm33.52 50.61c0 4.06-3.3 7.36-7.36 7.36-4.04 0-7.34-3.31-7.36-7.35l.03-101.4c0-.5.21-.96.54-1.3.02-.01.03-.03.05-.04.33-.32.77-.52 1.24-.52h11c1.01 0 1.86.85 1.86 1.86zM123.14 95.15c14.95 0 27.11-12.18 27.11-27.14 0-1.27-.09-2.51-.26-3.73l40.23-18.88c4.97 5.45 12.12 8.88 20.06 8.88 9.67 0 18.17-5.09 22.98-12.72l37.07 9.89c.56 14.46 12.49 26.05 27.09 26.05 14.97 0 27.14-12.16 27.14-27.11 0-14.97-12.18-27.14-27.14-27.14-9.66 0-18.15 5.09-22.96 12.73L237.4 26.1C236.84 11.62 224.9.01 210.29.01c-14.97 0-27.14 12.18-27.14 27.14 0 1.28.1 2.54.27 3.77l-40.21 18.87c-4.96-5.45-12.11-8.88-20.05-8.88C108.17 40.89 96 53.06 96 68.01c0 14.96 12.17 27.14 27.14 27.14zm174.27-55.9c6.13 0 11.13 4.99 11.13 11.13 0 6.12-4.99 11.1-11.13 11.1-6.12 0-11.1-4.98-11.1-11.1.01-6.14 4.98-11.13 11.1-11.13zM210.28 16c6.13 0 11.13 4.99 11.13 11.13s-4.99 11.13-11.13 11.13-11.13-4.99-11.13-11.13S204.14 16 210.28 16zm-87.14 40.91c6.12 0 11.1 4.98 11.1 11.1 0 6.14-4.98 11.13-11.1 11.13-6.14 0-11.13-4.99-11.13-11.13 0-6.12 4.99-11.1 11.13-11.1z" fill="#000000" opacity="1" data-original="#000000"></path></g></svg>