<svg xmlns="http://www.w3.org/2000/svg" version="1.1" xmlns:xlink="http://www.w3.org/1999/xlink" xmlns:svgjs="http://svgjs.com/svgjs" width="512" height="512" x="0" y="0" viewBox="0 0 492 492" style="enable-background:new 0 0 512 512" xml:space="preserve" class=""><g><path fill-rule="evenodd" d="M388.887 431.06c-8.58 0-17.336-3.97-24.024-10.892l-84.131-87.078a5.75 5.75 0 0 1-1.103-1.622l-16.907-37.263a5.76 5.76 0 1 1 10.49-4.76l16.495 36.356 83.439 86.363c4.529 4.688 10.266 7.376 15.738 7.376 2.566 0 6.23-.625 9.109-3.605l11.454-11.855c2.733-2.828 3.959-7.003 3.455-11.755-.553-5.208-3.074-10.369-7.098-14.534l-83.449-86.372-34.827-17.458a5.76 5.76 0 1 1 5.162-10.299l35.706 17.899a5.752 5.752 0 0 1 1.561 1.147l84.131 87.078c5.798 6.001 9.445 13.574 10.268 21.321.871 8.203-1.482 15.653-6.625 20.977l-11.454 11.855c-4.432 4.592-10.61 7.121-17.39 7.121z" clip-rule="evenodd" fill="#bb0b0b" data-original="#000000" opacity="1" class=""></path><path fill-rule="evenodd" d="M194.322 323.546c-16.43 0-32.446-3.225-47.603-9.587-15.682-6.582-29.746-16.246-41.802-28.725-12.041-12.463-21.364-26.993-27.708-43.187-6.122-15.626-9.226-32.134-9.226-49.065s3.104-33.439 9.226-49.065c6.345-16.193 15.667-30.723 27.708-43.187 12.056-12.478 26.12-22.143 41.801-28.725 15.157-6.362 31.173-9.588 47.603-9.588s32.447 3.226 47.603 9.587c15.681 6.582 29.746 16.246 41.801 28.725 12.041 12.463 21.364 26.993 27.708 43.187 6.122 15.626 9.226 32.134 9.226 49.065s-3.104 33.439-9.226 49.065c-6.345 16.193-15.667 30.723-27.708 43.187-12.056 12.478-26.12 22.142-41.801 28.725-15.156 6.363-31.172 9.588-47.602 9.588zm0-249.606c-30.631 0-59.44 12.358-81.119 34.796-44.881 46.454-44.881 122.04 0 168.494 21.679 22.439 50.488 34.796 81.119 34.796 30.632 0 59.441-12.358 81.12-34.796 44.881-46.454 44.881-122.04 0-168.494-21.679-22.439-50.488-34.796-81.12-34.796z" clip-rule="evenodd" fill="#bb0b0b" data-original="#000000" opacity="1" class=""></path><path fill-rule="evenodd" d="M233.177 186.183a5.76 5.76 0 0 1-3.051-10.651c7.876-4.906 12.77-14.043 12.77-23.846a5.76 5.76 0 0 1 11.52 0c0 6.885-1.723 13.655-4.983 19.578-3.185 5.787-7.755 10.644-13.216 14.046-.948.591-2 .873-3.04.873zM155.471 186.183a5.729 5.729 0 0 1-3.038-.871c-5.462-3.4-10.033-8.257-13.22-14.046-3.26-5.924-4.983-12.694-4.983-19.579a5.76 5.76 0 0 1 11.52 0c0 9.805 4.893 18.942 12.77 23.844a5.76 5.76 0 0 1-3.049 10.652zM138.382 267.648a5.76 5.76 0 0 1-5.76-5.76c0-7.823 1.743-15.516 5.04-22.249 3.26-6.657 7.955-12.237 13.578-16.137a5.76 5.76 0 0 1 6.566 9.466c-8.428 5.845-13.663 16.927-13.663 28.92a5.76 5.76 0 0 1-5.761 5.76zM250.261 267.648a5.76 5.76 0 0 1-5.76-5.76c0-11.995-5.234-23.076-13.66-28.92a5.76 5.76 0 1 1 6.565-9.466c5.622 3.899 10.316 9.478 13.576 16.137 3.297 6.733 5.039 14.427 5.039 22.25a5.76 5.76 0 0 1-5.76 5.759zM213.077 162.774a5.76 5.76 0 0 1-5.76-5.76v-5.874c0-2.997-1.293-5.84-3.64-8.007-2.475-2.284-5.797-3.542-9.355-3.542-7.165 0-12.994 5.181-12.994 11.549v5.874a5.76 5.76 0 0 1-11.52 0v-5.874c0-12.72 10.997-23.069 24.514-23.069 6.462 0 12.559 2.343 17.169 6.596 4.737 4.374 7.346 10.223 7.346 16.472v5.874a5.76 5.76 0 0 1-5.76 5.761z" clip-rule="evenodd" fill="#bb0b0b" data-original="#000000" opacity="1" class=""></path><path fill-rule="evenodd" d="M187.691 140.707a5.761 5.761 0 0 1-5.759-6.012c.008-.175.011-.365.011-.581 0-8.5-6.254-18.189-11.74-18.189a5.76 5.76 0 1 1 0-11.52c6.449 0 12.534 3.713 17.133 10.456 3.837 5.625 6.127 12.823 6.127 19.253 0 .385-.007.74-.022 1.085a5.76 5.76 0 0 1-5.75 5.508zM200.954 140.707a5.76 5.76 0 0 1-5.75-5.506c-.015-.344-.023-.7-.023-1.087 0-6.431 2.291-13.628 6.128-19.253 4.599-6.743 10.684-10.456 17.133-10.456a5.76 5.76 0 0 1 0 11.52c-5.486 0-11.741 9.689-11.741 18.189 0 .216.004.405.011.578a5.76 5.76 0 0 1-5.758 6.015zM194.323 264.06c-25.983 0-47.122-21.139-47.122-47.122v-22.285c0-25.984 21.139-47.122 47.122-47.122s47.123 21.139 47.123 47.122v22.285c-.001 25.984-21.14 47.122-47.123 47.122zm0-105.009c-19.631 0-35.602 15.971-35.602 35.602v22.285c0 19.631 15.971 35.602 35.602 35.602s35.602-15.971 35.602-35.602v-22.285c0-19.631-15.971-35.602-35.602-35.602z" clip-rule="evenodd" fill="#bb0b0b" data-original="#000000" opacity="1" class=""></path><path fill-rule="evenodd" d="M250.262 210.908h-14.577a5.76 5.76 0 0 1 0-11.52h14.577a5.76 5.76 0 1 1 0 11.52zM152.96 210.908h-14.577a5.76 5.76 0 0 1 0-11.52h14.577a5.76 5.76 0 1 1 0 11.52z" clip-rule="evenodd" fill="#bb0b0b" data-original="#000000" opacity="1" class=""></path></g></svg>