<svg xmlns="http://www.w3.org/2000/svg" version="1.1" xmlns:xlink="http://www.w3.org/1999/xlink" width="512" height="512" x="0" y="0" viewBox="0 0 16.933 16.933" style="enable-background:new 0 0 512 512" xml:space="preserve" class=""><g><path fill="#ffca28" d="M11.906 9.79V6.085c0-.44.354-.793.794-.793h1.323V6.35l2.117-1.852-2.117-1.852v1.058H12.17a1.848 1.848 0 0 0-1.852 1.852v3.175zM5.027 9.79V6.085a.792.792 0 0 0-.794-.793H2.91V6.35L.794 4.498 2.91 2.646v1.058h1.853c1.026 0 1.852.826 1.852 1.852v3.175z" opacity="1" data-original="#ffca28" class=""></path><path fill="#549ad4" d="m7.694 4.498-.021-1.587H6.615L8.467.794l1.852 2.117H9.26l.004 1.587z" paint-order="stroke markers fill" opacity="1" data-original="#549ad4"></path><path fill="#f5f9fb" d="M8.467.794 6.615 2.91h.661l1.521-1.739z" paint-order="stroke markers fill" opacity="1" data-original="#f5f9fb" class=""></path><path fill="#3588cb" d="M8.981 1.382C8.876 3.502 8.2 4.066 7.69 4.196l.004.302h1.57L9.26 2.911h1.059z" opacity="1" data-original="#3588cb"></path><path fill="#e4eff8" d="M2.19 10.595A2.127 2.127 0 0 0 .794 12.6v.356c0 .59.472 1.066 1.058 1.066H3.97a1.06 1.06 0 0 0 1.058-1.066V12.6c0-.926-.58-1.71-1.396-2.006z" opacity="1" data-original="#e4eff8"></path><path fill="#c4dcf0" d="M3.771 10.658a1.496 1.496 0 0 0-.067.455c0 2.001-2.38 2.116-2.38 2.116H.832c.12.457.527.794 1.02.794h2.116a1.06 1.06 0 0 0 1.058-1.066V12.6c0-.87-.516-1.611-1.256-1.943z" opacity="1" data-original="#c4dcf0"></path><path fill="#e4eff8" d="M13.303 10.595a2.127 2.127 0 0 0-1.397 2.006v.356c0 .59.472 1.066 1.059 1.066h2.116a1.06 1.06 0 0 0 1.058-1.066V12.6c0-.926-.58-1.71-1.396-2.006z" opacity="1" data-original="#e4eff8"></path><path fill="#c4dcf0" d="M14.817 11.113c0 2.001-2.382 2.116-2.382 2.116h-.49c.12.457.527.794 1.02.794h2.116a1.06 1.06 0 0 0 1.058-1.066V12.6c0-.87-.516-1.611-1.256-1.943a1.496 1.496 0 0 0-.066.454z" opacity="1" data-original="#c4dcf0"></path><path fill="#549ad4" d="M10.848 14.288 6.85 13.261a.818.818 0 1 0-.422 1.581l4.715 1.27c.708.138 1.028-.237 1.028-.765v-2.382A3.696 3.696 0 0 0 9.64 9.449H7.293a3.696 3.696 0 0 0-2.53 3.516v2.382c0 .528.32.903 1.028.765l4.715-1.27a.819.819 0 0 0-.422-1.581l-3.999 1.027z" paint-order="stroke markers fill" opacity="1" data-original="#549ad4"></path><path fill="#3588cb" d="M6.387 12.73v1.293h.492v-.781c0-.22-.16-.436-.492-.512z" opacity="1" data-original="#3588cb"></path><g fill="#ffd1b5"><path d="M10.319 7.938a1.852 1.852 0 1 1-3.704 0 1.852 1.852 0 0 1 3.704 0z" paint-order="stroke markers fill" fill="#ffd1b5" opacity="1" data-original="#ffd1b5"></path><path d="M15.081 9.79a1.058 1.058 0 1 1-2.116 0 1.058 1.058 0 0 1 2.116 0zM3.968 9.79a1.058 1.058 0 1 1-2.116 0 1.058 1.058 0 0 1 2.116 0z" fill="#ffd1b5" opacity="1" data-original="#ffd1b5"></path></g><path fill="#3588cb" d="m10.084 12.732-3.858.99-.14.566 3.998-1.027a.825.825 0 0 1 .393-.002v-.531a.824.824 0 0 0-.393.004z" paint-order="stroke markers fill" opacity="1" data-original="#3588cb"></path><path fill="#3588cb" d="M8.582 9.449a3.696 3.696 0 0 1 2.53 3.516v2.382c0 .294-.103.535-.312.672l.342.093c.708.137 1.029-.237 1.029-.765v-2.382a3.696 3.696 0 0 0-2.53-3.516z" paint-order="stroke markers fill" opacity="1" data-original="#3588cb"></path><path fill="#ffb98d" d="M8.467 6.086c-.18 0-.357.027-.529.078a1.852 1.852 0 0 1-.001 3.548 1.852 1.852 0 1 0 .53-3.626z" paint-order="stroke markers fill" opacity="1" data-original="#ffb98d" class=""></path><path fill="#f5f9fb" d="M8.467 6.086a1.852 1.852 0 1 0 .266 3.683 1.852 1.852 0 0 1-1.59-1.831 1.852 1.852 0 0 1 1.587-1.83 1.852 1.852 0 0 0-.263-.022z" paint-order="stroke markers fill" opacity="1" data-original="#f5f9fb" class=""></path><path fill="#3588cb" d="M10.543 13.274c.003.012.01.023.013.035a.82.82 0 0 1-.58 1.004l-4.714 1.27a1.217 1.217 0 0 1-.47.01c.09.39.408.634.999.519l4.714-1.27a.82.82 0 0 0 .58-1.004.808.808 0 0 0-.542-.564z" paint-order="stroke markers fill" opacity="1" data-original="#3588cb"></path><path fill="#f5f9fb" d="M7.293 9.449a3.696 3.696 0 0 0-2.53 3.516v2.382c0 .528.32.902 1.028.765l.015-.004c-.349-.092-.514-.385-.514-.761v-2.382a3.696 3.696 0 0 1 2.53-3.516z" paint-order="stroke markers fill" opacity="1" data-original="#f5f9fb" class=""></path><path fill="#ecb200" d="M15.163 3.643c0 1.293-1.14 1.537-1.14 1.537v1.17l2.117-1.852z" opacity="1" data-original="#ecb200" class=""></path><path fill="#f5f9fb" d="M14.023 2.646v1.323c.327 0 .53 0 .53-.278v-.582z" opacity="1" data-original="#f5f9fb" class=""></path><path fill="#ecb200" d="M10.319 6.642v2.09l.256.17a1.852 1.852 0 0 0-.256-2.26z" paint-order="stroke markers fill" opacity="1" data-original="#ecb200" class=""></path><path fill="#f5f9fb" d="M12.17 3.704a1.848 1.848 0 0 0-1.851 1.852v1.086c.339.347.529.812.529 1.296V5.556c0-1.026.826-1.852 1.852-1.852z" opacity="1" data-original="#f5f9fb" class=""></path><path fill="#ecb200" d="M3.969 3.704c1.026 0 1.852.826 1.852 1.852v2.638c0 .537-.291.731-.794 1.066v.53L6.615 8.73V5.556a1.848 1.848 0 0 0-1.853-1.852zM11.906 5.292a.792.792 0 0 0-.794.793V9.26l.794.53V6.085c0-.44.354-.793.794-.793z" opacity="1" data-original="#ecb200" class=""></path><path fill="#f5f9fb" d="M2.91 2.646.794 4.498l.397.347L2.91 3.34z" opacity="1" data-original="#f5f9fb" class=""></path><path fill="#c4dcf0" d="M12.322 11.333c-.26.354-.416.792-.416 1.268v.356c0 .498.337.91.794 1.028v-1.02c0-.587-.137-1.14-.378-1.632z" paint-order="stroke markers fill" opacity="1" data-original="#c4dcf0"></path><path fill="#ffb98d" d="M14.023 8.731c-.136 0-.271.027-.397.078a1.058 1.058 0 0 1 0 1.96 1.058 1.058 0 1 0 .397-2.038z" opacity="1" data-original="#ffb98d" class=""></path><path fill="#f5f9fb" d="M14.023 8.731a1.058 1.058 0 1 0 .266 2.082 1.058 1.058 0 0 1-.003-2.047 1.058 1.058 0 0 0-.263-.035z" opacity="1" data-original="#f5f9fb" class=""></path><path fill="#ffb98d" d="M2.91 8.731c-.136 0-.27.027-.397.078a1.058 1.058 0 0 1 0 1.96 1.058 1.058 0 1 0 .397-2.038z" opacity="1" data-original="#ffb98d" class=""></path><path fill="#f5f9fb" d="M2.91 8.731a1.058 1.058 0 1 0 .266 2.082 1.058 1.058 0 0 1-.003-2.047 1.058 1.058 0 0 0-.263-.035z" opacity="1" data-original="#f5f9fb" class=""></path><path fill="#f5f9fb" d="M2.19 10.595A2.127 2.127 0 0 0 .795 12.6v.356c0 .59.472 1.066 1.059 1.066h.529a1.06 1.06 0 0 1-1.06-1.066V12.6c0-.926.582-1.71 1.398-2.006z" opacity="1" data-original="#f5f9fb" class=""></path><path fill="#333333" d="M8.467.53a.264.264 0 0 0-.2.09l-1.85 2.116a.265.265 0 0 0 .198.44h.797l.018 1.326a.265.265 0 1 0 .53-.008l-.022-1.586a.265.265 0 0 0-.264-.262h-.475l1.268-1.449 1.267 1.45H9.26a.265.265 0 0 0-.264.265L9 4.498a.265.265 0 1 0 .53 0l-.004-1.322h.792c.228 0 .35-.269.2-.44L8.666.62a.265.265 0 0 0-.2-.09zM2.909 2.38a.265.265 0 0 0-.172.066L.62 4.3a.265.265 0 0 0 0 .399l2.117 1.851c.17.15.44.029.44-.2v-.792h1.056c.298 0 .528.231.528.53v3.702a.265.265 0 1 0 .53 0V6.086c0-.582-.476-1.058-1.058-1.058H2.91a.264.264 0 0 0-.263.263v.477l-1.45-1.27 1.45-1.27v.477c0 .146.118.263.263.264h1.851A1.58 1.58 0 0 1 6.35 5.557v2.38c0 .532.198 1.019.523 1.39a3.971 3.971 0 0 0-1.99 1.929 2.382 2.382 0 0 0-.849-.77c.127-.203.2-.442.2-.697 0-.727-.595-1.322-1.323-1.322-.727 0-1.321.595-1.321 1.322 0 .255.072.494.198.697A2.399 2.399 0 0 0 .53 12.602v.355c0 .732.593 1.33 1.322 1.33H3.97c.188 0 .367-.039.529-.11v1.17c0 .317.1.63.342.835.242.205.59.27 1.01.188l2.615-.704 2.618.704c.414.08.767.016 1.009-.188.242-.204.343-.514.343-.83v-1.175c.163.071.342.11.53.11h2.117c.729 0 1.322-.598 1.322-1.33v-.355c0-.915-.508-1.712-1.258-2.116.126-.203.2-.442.2-.697 0-.727-.596-1.322-1.323-1.322-.728 0-1.325.595-1.325 1.322 0 .256.074.495.201.698a2.382 2.382 0 0 0-.848.769 3.971 3.971 0 0 0-1.99-1.928c.326-.372.523-.86.523-1.39V5.557c0-.884.702-1.588 1.586-1.588h1.853a.264.264 0 0 0 .263-.264V3.23l1.45 1.27-1.45 1.269V5.29a.264.264 0 0 0-.263-.263h-1.325a1.06 1.06 0 0 0-1.055 1.058v3.44c0 .145.118.263.263.263a.264.264 0 0 0 .264-.263v-3.44c0-.298.23-.53.528-.529h1.06v.793c-.001.228.267.35.439.2l2.117-1.852a.265.265 0 0 0 0-.399l-2.117-1.852a.265.265 0 0 0-.44.2v.793H12.17c-1.168 0-2.115.949-2.115 2.117v.983a2.114 2.114 0 0 0-3.176 0v-.983A2.118 2.118 0 0 0 4.762 3.44H3.177v-.794a.264.264 0 0 0-.268-.265zM8.467 6.35c.869 0 1.588.708 1.588 1.588 0 .88-.708 1.588-1.588 1.588-.88 0-1.588-.708-1.588-1.588 0-.88.72-1.588 1.588-1.588zM2.901 8.997a.794.794 0 1 1 .01 1.587.794.794 0 0 1-.01-1.588zm11.113 0a.795.795 0 1 1 .01 1.587.797.797 0 0 1-.795-.795c0-.434.35-.782.785-.792zm-6.69.721a2.102 2.102 0 0 0 2.286 0 3.43 3.43 0 0 1 2.296 3.248v2.386c0 .208-.06.346-.154.426-.095.08-.256.132-.556.074l-1.71-.46 1.089-.294c.574-.154.918-.752.765-1.328a1.07 1.07 0 0 0-.492-.647v-.157a.265.265 0 1 0-.53.002c-.098 0-.2.01-.3.036l-3.402.875v-.913a.265.265 0 0 0-.53 0v1.049l-.066.017a.265.265 0 0 0 .131.513l4-1.027c.305-.078.6.088.68.389.08.3-.092.599-.393.68L5.74 15.852c-.302.058-.463.006-.557-.074-.095-.08-.154-.22-.154-.432v-2.38a3.43 3.43 0 0 1 2.295-3.248zM3.65 10.887c.451.197.809.57.988 1.034-.09.333-.139.683-.139 1.045v.59a.78.78 0 0 1-.529.202H1.853a.789.789 0 0 1-.793-.8v-.356c0-.774.458-1.43 1.114-1.715a1.31 1.31 0 0 0 1.475 0zm9.636 0a1.313 1.313 0 0 0 1.475 0c.656.286 1.115.941 1.115 1.715v.355c0 .45-.35.801-.793.801h-2.117a.781.781 0 0 1-.53-.203v-.59c0-.361-.047-.711-.138-1.044a1.86 1.86 0 0 1 .988-1.034zm-3.76.49c-.353 0-.353.53 0 .53h.794c.353 0 .353-.53 0-.53z" opacity="1" data-original="#333333" class=""></path></g></svg>