<svg xmlns="http://www.w3.org/2000/svg" version="1.1" xmlns:xlink="http://www.w3.org/1999/xlink" xmlns:svgjs="http://svgjs.com/svgjs" width="512" height="512" x="0" y="0" viewBox="0 0 16.933 16.933" style="enable-background:new 0 0 512 512" xml:space="preserve" class=""><g><path d="M8.467.53a.264.264 0 0 0-.2.09l-1.85 2.116a.265.265 0 0 0 .198.44h.797l.018 1.326a.265.265 0 1 0 .53-.008l-.022-1.586a.265.265 0 0 0-.264-.262h-.475l1.268-1.449 1.267 1.45H9.26a.265.265 0 0 0-.264.265L9 4.498a.265.265 0 1 0 .53 0l-.004-1.322h.792c.228 0 .35-.269.2-.44L8.666.62a.265.265 0 0 0-.2-.09zM2.909 2.38a.265.265 0 0 0-.172.066L.62 4.3a.265.265 0 0 0 0 .399l2.117 1.851c.17.15.44.029.44-.2v-.792h1.056c.298 0 .528.231.528.53v3.702a.265.265 0 1 0 .53 0V6.086c0-.582-.476-1.058-1.058-1.058H2.91a.264.264 0 0 0-.263.263v.477l-1.45-1.27 1.45-1.27v.477c0 .146.118.263.263.264h1.851A1.58 1.58 0 0 1 6.35 5.557v2.38c0 .532.198 1.019.523 1.39a3.971 3.971 0 0 0-1.99 1.929 2.382 2.382 0 0 0-.849-.77c.127-.203.2-.442.2-.697 0-.727-.595-1.322-1.323-1.322-.727 0-1.321.595-1.321 1.322 0 .255.072.494.198.697A2.399 2.399 0 0 0 .53 12.602v.355c0 .732.593 1.33 1.322 1.33H3.97c.188 0 .367-.039.529-.11v1.17c0 .317.1.63.342.835.242.205.59.27 1.01.188l2.615-.704 2.618.704c.414.08.767.016 1.009-.188.242-.204.343-.514.343-.83v-1.175c.163.071.342.11.53.11h2.117c.729 0 1.322-.598 1.322-1.33v-.355c0-.915-.508-1.712-1.258-2.116.126-.203.2-.442.2-.697 0-.727-.596-1.322-1.323-1.322-.728 0-1.325.595-1.325 1.322 0 .256.074.495.201.698a2.382 2.382 0 0 0-.848.769 3.971 3.971 0 0 0-1.99-1.928c.326-.372.523-.86.523-1.39V5.557c0-.884.702-1.588 1.586-1.588h1.853a.264.264 0 0 0 .263-.264V3.23l1.45 1.27-1.45 1.269V5.29a.264.264 0 0 0-.263-.263h-1.325a1.06 1.06 0 0 0-1.055 1.058v3.44c0 .145.118.263.263.263a.264.264 0 0 0 .264-.263v-3.44c0-.298.23-.53.528-.529h1.06v.793c-.001.228.267.35.439.2l2.117-1.852a.265.265 0 0 0 0-.399l-2.117-1.852a.265.265 0 0 0-.44.2v.793H12.17c-1.168 0-2.115.949-2.115 2.117v.983a2.114 2.114 0 0 0-3.176 0v-.983A2.118 2.118 0 0 0 4.762 3.44H3.177v-.794a.264.264 0 0 0-.268-.265zM8.467 6.35c.869 0 1.588.708 1.588 1.588 0 .88-.708 1.588-1.588 1.588-.88 0-1.588-.708-1.588-1.588 0-.88.72-1.588 1.588-1.588zM2.901 8.997a.794.794 0 1 1 .01 1.587.794.794 0 0 1-.01-1.588zm11.113 0a.795.795 0 1 1 .01 1.587.797.797 0 0 1-.795-.795c0-.434.35-.782.785-.792zm-6.69.721a2.102 2.102 0 0 0 2.286 0 3.43 3.43 0 0 1 2.296 3.248v2.386c0 .208-.06.346-.154.426-.095.08-.256.132-.556.074l-1.71-.46 1.089-.294c.574-.154.918-.752.765-1.328a1.07 1.07 0 0 0-.492-.647v-.157a.265.265 0 1 0-.53.002c-.098 0-.2.01-.3.036l-3.402.875v-.913a.265.265 0 0 0-.53 0v1.049l-.066.017a.265.265 0 0 0 .131.513l4-1.027c.305-.078.6.088.68.389.08.3-.092.599-.393.68L5.74 15.852c-.302.058-.463.006-.557-.074-.095-.08-.154-.22-.154-.432v-2.38a3.43 3.43 0 0 1 2.295-3.248zM3.65 10.887c.451.197.809.57.988 1.034-.09.333-.139.683-.139 1.045v.59a.78.78 0 0 1-.529.202H1.853a.789.789 0 0 1-.793-.8v-.356c0-.774.458-1.43 1.114-1.715a1.31 1.31 0 0 0 1.475 0zm9.636 0a1.313 1.313 0 0 0 1.475 0c.656.286 1.115.941 1.115 1.715v.355c0 .45-.35.801-.793.801h-2.117a.781.781 0 0 1-.53-.203v-.59c0-.361-.047-.711-.138-1.044a1.86 1.86 0 0 1 .988-1.034zm-3.76.49c-.353 0-.353.53 0 .53h.794c.353 0 .353-.53 0-.53z" fill="#bb0b0b" data-original="#000000" class="" opacity="1"></path></g></svg>