<svg xmlns="http://www.w3.org/2000/svg" version="1.1" xmlns:xlink="http://www.w3.org/1999/xlink" xmlns:svgjs="http://svgjs.com/svgjs" width="512" height="512" x="0" y="0" viewBox="0 0 512.184 512.184" style="enable-background:new 0 0 512 512" xml:space="preserve" class=""><g><path d="M415.122 144.326C407.689 68.384 347.599 8.294 271.656.861 183.825-7.736 105.655 56.496 97.058 144.326 42.403 147.983-.047 193.407 0 248.184c.05 57.438 46.652 103.96 104.09 103.91h8v-16h-8c-48.601-.11-87.91-39.599-87.8-88.2.11-48.601 39.599-87.91 88.2-87.8a8 8 0 0 0 8-7.584c3.806-73.572 62.6-132.366 136.172-136.172C327.97 12.236 395.587 73.202 399.69 152.51a8.392 8.392 0 0 0 8.4 7.584c48.601 0 88 39.399 88 88s-39.399 88-88 88h-8v16h8c54.778.047 100.201-42.402 103.858-97.058 3.834-57.31-39.516-106.876-96.826-110.71z" fill="#bb0b0b" data-original="#000000" opacity="1" class=""></path><path d="M264.09 449.103V328.094h-16v121.008c-13.802 3.552-24 16.081-24 30.992 0 17.673 14.327 32 32 32 17.673 0 32-14.327 32-32 0-14.91-10.198-27.439-24-30.991zm-8 46.991c-8.837 0-16-7.163-16-16s7.163-16 16-16 16 7.163 16 16-7.164 16-16 16zM144.09 224.094c-17.673 0-32 14.327-32 32 0 14.911 10.198 27.44 24 30.992v41.008h16v-41.008c13.802-3.552 24-16.081 24-30.992 0-17.673-14.327-32-32-32zm0 48c-8.837 0-16-7.163-16-16s7.163-16 16-16 16 7.163 16 16-7.164 16-16 16zM480.09 408.094c-14.911 0-27.44 10.198-30.992 24H384.09a7.32 7.32 0 0 1-8-8v-56h-16v56c-.013.455-.013.909 0 1.364.377 12.878 11.122 23.013 24 22.636h65.008c3.552 13.802 16.081 24 30.992 24 17.673 0 32-14.327 32-32 0-17.673-14.327-32-32-32zm0 48c-8.837 0-16-7.163-16-16s7.163-16 16-16 16 7.163 16 16-7.164 16-16 16zM152.09 424.094v-80h-16v79.904a7.353 7.353 0 0 1-8 8.096H63.082c-3.552-13.802-16.081-24-30.992-24-17.673 0-32 14.327-32 32 0 17.673 14.327 32 32 32 14.911 0 27.44-10.198 30.992-24h65.008c.455.013.909.013 1.364 0 12.878-.377 23.013-11.122 22.636-24zm-120 32c-8.837 0-16-7.163-16-16s7.163-16 16-16 16 7.163 16 16-7.164 16-16 16zM368.09 224.094c-17.673 0-32 14.327-32 32 0 14.911 10.198 27.44 24 30.992v65.008h16v-65.008c13.802-3.552 24-16.081 24-30.992 0-17.673-14.327-32-32-32zm0 48c-8.837 0-16-7.163-16-16s7.163-16 16-16 16 7.163 16 16-7.163 16-16 16zM205.746 282.438a8 8 0 0 0-11.312 0l-24 24 11.312 11.312 10.344-10.344v92.688h16v-92.688l10.344 10.344 11.312-11.312-24-24zM330.434 394.438l-10.344 10.344v-92.688h-16v92.688l-10.344-10.344-11.312 11.312 24 24a8 8 0 0 0 11.312 0l24-24-11.312-11.312zM256.09 176.094c-17.673 0-32 14.327-32 32 0 14.911 10.198 27.44 24 30.992v73.008h16v-73.008c13.802-3.552 24-16.081 24-30.992 0-17.673-14.327-32-32-32zm0 48c-8.837 0-16-7.163-16-16s7.163-16 16-16 16 7.163 16 16-7.163 16-16 16z" fill="#bb0b0b" data-original="#000000" opacity="1" class=""></path></g></svg>