<svg xmlns="http://www.w3.org/2000/svg" version="1.1" xmlns:xlink="http://www.w3.org/1999/xlink" xmlns:svgjs="http://svgjs.com/svgjs" width="512" height="512" x="0" y="0" viewBox="0 0 123 123" style="enable-background:new 0 0 512 512" xml:space="preserve" class=""><g><g fill="#010101"><path d="M118.2 7H21c-2.6 0-4.8 2.1-4.8 4.8v11.4H4.8C2.1 23.2 0 25.3 0 28v83.2c0 2.6 2.1 4.8 4.8 4.8H102c2.6 0 4.8-2.1 4.8-4.8V99.8h11.4c2.6 0 4.8-2.1 4.8-4.8V11.8c0-2.7-2.1-4.8-4.8-4.8zM21 11h97.2c.4 0 .8.3.8.8v13.8H20.2V11.8c0-.5.4-.8.8-.8zM4.8 27.2h11.4v14.6H4V28c0-.4.3-.8.8-.8zm98 84c0 .4-.3.8-.8.8H4.8c-.4 0-.8-.3-.8-.8V45.8h12.2V95c0 2.6 2.1 4.8 4.8 4.8h81.8zm15.4-15.4H21c-.4 0-.8-.3-.8-.8V29.6H119V95c0 .4-.3.8-.8.8z" fill="#bb0b0b" data-original="#010101" opacity="1" class=""></path><path d="M37.1 19.9h-7.4c-1.1 0-2-.9-2-2s.9-2 2-2h7.4c1.1 0 2 .9 2 2s-.9 2-2 2zM54 19.9h-7.4c-1.1 0-2-.9-2-2s.9-2 2-2H54c1.1 0 2 .9 2 2s-.9 2-2 2z" fill="#bb0b0b" data-original="#010101" opacity="1" class=""></path></g><path d="m38.9 62.9 19 9.8v-3.8l-14.6-7.3 14.6-7.3v-3.8l-19 9.7zM62.1 73.9h3.6l11.2-29h-3.7zM81 50.5v3.8l14.7 7.3L81 68.9v3.8l19-9.8v-2.7z" fill="#bb0b0b" data-original="#000000" class="" opacity="1"></path></g></svg>