<svg xmlns="http://www.w3.org/2000/svg" version="1.1" xmlns:xlink="http://www.w3.org/1999/xlink" xmlns:svgjs="http://svgjs.com/svgjs" width="512" height="512" x="0" y="0" viewBox="0 0 512 512" style="enable-background:new 0 0 512 512" xml:space="preserve" class=""><g><path d="M60.642 168.166c40.208-20.819 82.976-20.866 127.116-.137a8.002 8.002 0 0 1-3.407 15.244 7.964 7.964 0 0 1-3.396-.761c-39.951-18.764-76.9-18.809-112.957-.137a8.002 8.002 0 0 1-10.783-3.426 8.003 8.003 0 0 1 3.427-10.783zm127.115 78.809c-44.139-20.729-86.907-20.683-127.115.137a8 8 0 0 0 7.356 14.209c36.057-18.671 73.005-18.624 112.958.137a7.956 7.956 0 0 0 3.395.761 8 8 0 0 0 7.247-4.602 8 8 0 0 0-3.841-10.642zm0 78.946c-44.139-20.729-86.907-20.683-127.115.137a8 8 0 0 0-3.426 10.783 8 8 0 0 0 10.782 3.426c36.057-18.67 73.005-18.625 112.958.137a7.956 7.956 0 0 0 3.395.761 8 8 0 0 0 7.247-4.602 8 8 0 0 0-3.841-10.642zm112.927-143.546c36.057-18.672 73.005-18.627 112.957.137a8 8 0 0 0 10.643-3.841 8 8 0 0 0-3.84-10.642c-44.14-20.729-86.907-20.683-127.116.137a8 8 0 0 0-3.425 10.783 7.999 7.999 0 0 0 10.781 3.426zM505.43 456.797c-4.383 4.383-10.14 6.574-15.897 6.574s-11.514-2.19-15.897-6.573l-19.701-19.701c-72.856-30.71-143.328-28.349-209.478 7.055l-.008-.014a7.987 7.987 0 0 1-7.543.014c-70.916-37.956-146.76-37.906-225.425.148a7.994 7.994 0 0 1-7.734-.424 8 8 0 0 1-3.75-6.777V93.612a8.003 8.003 0 0 1 3.242-6.432c68.244-50.485 148.112-51.386 237.442-2.704 89.331-48.683 169.199-47.78 237.443 2.703a8.002 8.002 0 0 1 3.242 6.432V400.94l24.063 24.063c8.765 8.766 8.765 23.028.001 31.794zM232.681 98.335c-82.924-45.133-153.883-45.346-216.684-.644v326.898c75.143-33.111 147.922-33.279 216.685-.5V98.335zm194.784 312.292-30.205-30.205c-13.167 7.991-28.304 12.267-44.101 12.267-22.768 0-44.172-8.866-60.271-24.965s-24.965-37.504-24.965-60.271 8.866-44.172 24.965-60.271c33.233-33.232 87.309-33.232 120.542 0 16.099 16.1 24.965 37.505 24.965 60.271 0 14.329-3.518 28.115-10.135 40.382l37.105 37.105V97.69c-62.798-44.701-133.76-44.485-216.685.645V424.11c57.135-27.235 117.084-31.737 178.785-13.483zm-5.07-103.175c0-18.493-7.202-35.88-20.279-48.957-26.995-26.995-70.919-26.995-97.915 0-13.077 13.077-20.279 30.464-20.279 48.957 0 18.494 7.202 35.881 20.279 48.957 13.077 13.078 30.464 20.279 48.958 20.279s35.88-7.201 48.958-20.279c13.077-13.076 20.278-30.463 20.278-48.957zm71.721 128.866-74.939-74.939a87.057 87.057 0 0 1-5.747 6.345 88.026 88.026 0 0 1-3.202 3.039l74.721 74.721a6.49 6.49 0 0 0 9.167 0 6.489 6.489 0 0 0 0-9.166z" fill="#bb0b0b" data-original="#000000" opacity="1" class=""></path></g></svg>