<svg xmlns="http://www.w3.org/2000/svg" version="1.1" xmlns:xlink="http://www.w3.org/1999/xlink" xmlns:svgjs="http://svgjs.com/svgjs" width="512" height="512" x="0" y="0" viewBox="0 0 64 64" style="enable-background:new 0 0 512 512" xml:space="preserve" class=""><g><path d="M60 7H4a1 1 0 0 0-1 1v48a1 1 0 0 0 1 1h56a1 1 0 0 0 1-1V8a1 1 0 0 0-1-1zM5 9h12v46H5zm54 46H19V9h40z" fill="#bb0b0b" data-original="#000000" opacity="1" class=""></path><path d="M8 15h6a1 1 0 0 0 0-2H8a1 1 0 0 0 0 2zM14 19H8a1 1 0 0 0 0 2h6a1 1 0 0 0 0-2zM14 25H8a1 1 0 0 0 0 2h6a1 1 0 0 0 0-2zM26.86 32.77l6 5a1 1 0 0 0 .64.23 1 1 0 0 0 .77-.36 1 1 0 0 0-.13-1.41L29.06 32l5.08-4.23a1 1 0 0 0-1.28-1.54l-6 5a1 1 0 0 0 0 1.54zM43.73 37.64a1 1 0 0 0 .77.36 1 1 0 0 0 .64-.23l6-5a1 1 0 0 0 0-1.54l-6-5a1 1 0 1 0-1.28 1.54L48.94 32l-5.08 4.23a1 1 0 0 0-.13 1.41zM36.63 37.93A1 1 0 0 0 37 38a1 1 0 0 0 .93-.63l4-10a1 1 0 0 0-1.86-.74l-4 10a1 1 0 0 0 .56 1.3z" fill="#bb0b0b" data-original="#000000" opacity="1" class=""></path></g></svg>