<svg xmlns="http://www.w3.org/2000/svg" version="1.1" xmlns:xlink="http://www.w3.org/1999/xlink" xmlns:svgjs="http://svgjs.com/svgjs" width="512" height="512" x="0" y="0" viewBox="0 0 501.164 501.164" style="enable-background:new 0 0 512 512" xml:space="preserve" class=""><g><path d="M482.079 138.808 278.715 51.65c-17.879-7.662-38.397-7.656-56.298.015l-203.32 87.138C7.318 143.85 0 154.946 0 167.76c0 12.807 7.313 23.897 19.085 28.942l24.034 10.301c-.025.248-.038.5-.038.754v113.734c-9.29 3.138-16 11.93-16 22.266 0 5.992 2.258 11.465 5.963 15.621-4.098 4.017-6.819 9.463-7.381 15.634l-5.758 63.342a15.536 15.536 0 0 0 3.991 11.855 15.533 15.533 0 0 0 11.445 5.048H65.82c4.344 0 8.516-1.84 11.445-5.048a15.534 15.534 0 0 0 3.991-11.855l-5.758-63.342c-.561-6.17-3.283-11.616-7.381-15.634 3.705-4.155 5.963-9.628 5.963-15.621 0-10.335-6.71-19.127-16-22.266V213.415l41.038 17.588a7.503 7.503 0 0 0-.038.753v57.263c0 23.899 16.364 46.008 46.079 62.256 28.282 15.464 65.722 23.981 105.421 23.981s77.139-8.517 105.421-23.981c29.714-16.248 46.079-38.357 46.079-62.256v-57.263c0-.254-.013-.505-.038-.752l80.024-34.296c11.779-5.048 19.097-16.145 19.097-28.958.001-12.807-7.312-23.897-19.084-28.942zM66.189 440.094c-.148.163-.309.163-.369.163H35.341c-.061 0-.221 0-.369-.163-.149-.163-.134-.322-.129-.382l5.758-63.342a9.973 9.973 0 0 1 9.98-9.113 9.973 9.973 0 0 1 9.979 9.113l5.758 63.341c.006.061.02.22-.129.383zm-15.608-87.837c-4.687 0-8.5-3.813-8.5-8.5s3.813-8.5 8.5-8.5 8.5 3.813 8.5 8.5-3.813 8.5-8.5 8.5zm336.5-95.237c0 19.394-15.962 38.329-43.793 51.95a7.499 7.499 0 0 0-3.439 10.033 7.499 7.499 0 0 0 10.034 3.439c15.437-7.555 27.805-16.759 36.623-26.993-2.812 15.816-15.945 30.771-37.699 42.666-26.114 14.279-60.997 22.142-98.225 22.142s-72.111-7.863-98.225-22.142c-21.675-11.852-34.795-26.742-37.671-42.495 7.581 8.739 17.81 16.731 30.474 23.656 28.282 15.464 65.722 23.981 105.421 23.981 11.106 0 22.183-.676 32.923-2.008a7.5 7.5 0 0 0 6.52-8.366 7.496 7.496 0 0 0-8.366-6.52c-10.13 1.257-20.586 1.894-31.077 1.894-37.228 0-72.111-7.863-98.225-22.142-24.682-13.496-38.275-30.931-38.275-49.095v-19.604l108.368 46.445c8.934 3.829 18.526 5.743 28.123 5.743 9.608 0 19.22-1.919 28.175-5.757l108.334-46.429v19.602zm89.077-74.099-203.321 87.137c-14.144 6.062-30.356 6.067-44.479.015l-155.39-66.597 142.379-24.762c6.404 7.579 19.455 12.542 35.234 12.542 22.519 0 39.5-10.103 39.5-23.5s-16.981-23.5-39.5-23.5c-20.452 0-36.334 8.334-39.077 19.9l-162.208 28.21a7.49 7.49 0 0 0-1.367.377l-22.934-9.83C18.736 180.233 15 174.567 15 167.76c0-6.814 3.741-12.486 10.006-15.171l203.32-87.138a56.576 56.576 0 0 1 22.267-4.55c7.58 0 15.158 1.512 22.213 4.535l203.364 87.158c6.258 2.682 9.994 8.348 9.994 15.155 0 6.816-3.741 12.487-10.006 15.172zm-250.077-15.164c0-2.185 8.424-8.5 24.5-8.5s24.5 6.315 24.5 8.5-8.424 8.5-24.5 8.5-24.5-6.316-24.5-8.5z" fill="#bb0b0b" data-original="#000000" opacity="1" class=""></path><path d="M306.574 337.083c.559 0 1.127-.063 1.695-.194a217.412 217.412 0 0 0 16.573-4.515c3.949-1.249 6.138-5.463 4.889-9.412s-5.462-6.14-9.413-4.89a202.67 202.67 0 0 1-15.425 4.201 7.5 7.5 0 0 0-5.62 8.995 7.504 7.504 0 0 0 7.301 5.815z" fill="#bb0b0b" data-original="#000000" opacity="1" class=""></path></g></svg>