<svg xmlns="http://www.w3.org/2000/svg" version="1.1" xmlns:xlink="http://www.w3.org/1999/xlink" width="512" height="512" x="0" y="0" viewBox="0 0 512 512" style="enable-background:new 0 0 512 512" xml:space="preserve" class=""><g><g fill-rule="evenodd" clip-rule="evenodd"><path fill="#fe646f" d="M37.478 297.402h34.776c4.881 0 8.862 3.981 8.862 8.862v84.846c0 4.881-3.981 8.862-8.862 8.862H37.478c-4.881 0-8.862-3.981-8.862-8.862v-84.846c-.001-4.881 3.981-8.862 8.862-8.862z" opacity="1" data-original="#fe646f"></path><path fill="#fd4755" d="M63.39 297.402h8.863c4.881 0 8.862 3.981 8.862 8.862v84.846c0 4.881-3.981 8.862-8.862 8.862H63.39c4.881 0 8.862-3.981 8.862-8.862v-84.846c.001-4.881-3.981-8.862-8.862-8.862z" opacity="1" data-original="#fd4755"></path><path fill="#ffe177" d="M134.962 232.401h34.775c4.881 0 8.863 3.981 8.863 8.863v149.847c0 4.881-3.981 8.863-8.863 8.863h-34.775c-4.881 0-8.862-3.981-8.862-8.863V241.264c0-4.882 3.981-8.863 8.862-8.863z" opacity="1" data-original="#ffe177"></path><path fill="#ffd064" d="M160.875 232.401h8.863c4.881 0 8.863 3.981 8.863 8.863v149.847c0 4.881-3.981 8.863-8.863 8.863h-8.863c4.881 0 8.863-3.981 8.863-8.863V241.264c-.001-4.882-3.982-8.863-8.863-8.863z" opacity="1" data-original="#ffd064"></path><path fill="#6cf5c2" d="M232.447 254.283h34.776c4.882 0 8.863 3.982 8.862 8.863v127.963c.001 4.882-3.981 8.864-8.862 8.864h-34.776c-4.882 0-8.863-3.982-8.862-8.864V263.146c-.001-4.881 3.981-8.863 8.862-8.863z" opacity="1" data-original="#6cf5c2"></path><path fill="#00e499" d="M258.36 254.283h8.863c4.882 0 8.863 3.982 8.862 8.863v127.963c.001 4.882-3.981 8.864-8.862 8.864h-8.863c4.882 0 8.863-3.982 8.863-8.864V263.146c0-4.881-3.981-8.863-8.863-8.863z" opacity="1" data-original="#00e499"></path><path fill="#8ac9fe" d="M329.931 163.534h34.776c4.881 0 8.862 3.981 8.862 8.862V391.11c0 4.881-3.981 8.862-8.862 8.862h-34.776c-4.881 0-8.862-3.981-8.862-8.862V172.396c-.001-4.881 3.98-8.862 8.862-8.862z" opacity="1" data-original="#8ac9fe"></path><path fill="#60b7ff" d="M355.843 163.534h8.863c4.881 0 8.862 3.981 8.862 8.862V391.11c0 4.881-3.981 8.862-8.862 8.862h-8.863c4.881 0 8.863-3.981 8.863-8.862V172.396c0-4.881-3.982-8.862-8.863-8.862z" opacity="1" data-original="#60b7ff"></path><path fill="#ffe177" d="M383.403 315.747a66.326 66.326 0 0 1 19.415 8.049l12.616-5.603 14.869 14.869-5.602 12.612a66.292 66.292 0 0 1 8.05 19.42l12.871 4.954v21.028l-12.874 4.956a66.288 66.288 0 0 1-8.049 19.415l5.603 12.616-14.869 14.87-12.612-5.602a66.292 66.292 0 0 1-19.42 8.05l-4.954 12.871h-21.028l-4.956-12.874a66.288 66.288 0 0 1-19.415-8.049l-12.616 5.603-14.869-14.869 5.602-12.612a66.265 66.265 0 0 1-8.05-19.42l-12.871-4.954v-21.028l12.873-4.955a66.302 66.302 0 0 1 8.05-19.417l-5.603-12.615 14.869-14.87 12.616 5.603a66.3 66.3 0 0 1 19.415-8.049l4.956-12.874h21.028z" opacity="1" data-original="#ffe177"></path><path fill="#ffd064" d="m333.049 437.329-12.616 5.603-1.943-1.943 11.828-5.253a67.193 67.193 0 0 0 2.731 1.593zm50.354-121.582a66.326 66.326 0 0 1 19.415 8.049l-3.586 1.592c-6.004-3.697-15.286-8.009-22.145-9.642l-4.956-12.874h6.316zm19.419 121.584a66.292 66.292 0 0 1-19.42 8.05l-4.954 12.871h-6.316l4.954-12.871c6.861-1.633 16.145-5.945 22.15-9.643zM318.49 320.135l1.942-1.943 12.616 5.603a66.46 66.46 0 0 0-2.73 1.592zm92.57 0 4.374-1.943 14.869 14.869-5.602 12.612a66.292 66.292 0 0 1 8.05 19.42l12.871 4.954v21.028l-12.874 4.956a66.288 66.288 0 0 1-8.049 19.415l5.603 12.616-14.869 14.87-4.374-1.943 12.927-12.927-5.603-12.616a66.315 66.315 0 0 0 8.049-19.415l12.874-4.956v-21.028l-12.871-4.954a66.292 66.292 0 0 0-8.05-19.42l5.602-12.612z" opacity="1" data-original="#ffd064"></path><circle cx="367.933" cy="380.562" r="36.671" fill="#eceff1" transform="rotate(-67.48 368.072 380.48)" opacity="1" data-original="#eceff1"></circle><path fill="#d1d1d6" d="M367.933 343.892c-20.254 0-36.67 16.416-36.67 36.671 0 20.254 16.416 36.67 36.67 36.67.982 0 1.954-.04 2.917-.115-18.89-1.487-33.754-17.283-33.754-36.555 0-19.273 14.864-35.069 33.754-36.556a37.055 37.055 0 0 0-2.917-.115z" opacity="1" data-original="#d1d1d6"></path><circle cx="215.419" cy="76.182" r="68.187" fill="#ffe177" transform="rotate(-45 215.42 76.227)" opacity="1" data-original="#ffe177"></circle><path fill="#ffd064" d="M215.419 7.995c37.656 0 68.187 30.531 68.187 68.187s-30.531 68.187-68.187 68.187c-1.433 0-2.854-.05-4.265-.137 35.669-2.202 63.922-31.827 63.922-68.05s-28.253-65.848-63.922-68.05a69.255 69.255 0 0 1 4.265-.137z" opacity="1" data-original="#ffd064"></path><circle cx="215.419" cy="76.182" r="51.217" fill="#eceff1" transform="rotate(-45 215.42 76.227)" opacity="1" data-original="#eceff1"></circle><path fill="#d1d1d6" d="M215.419 24.965c1.421 0 2.827.06 4.219.174-26.311 2.146-46.998 24.179-46.998 51.043s20.688 48.897 46.998 51.043a51.64 51.64 0 0 1-4.219.174c-28.285 0-51.217-22.933-51.217-51.217 0-28.285 22.932-51.217 51.217-51.217z" opacity="1" data-original="#d1d1d6"></path><path fill="#242222" d="M34.375 56.125c0-4.42 3.577-8 7.997-8h31.592a7.999 7.999 0 1 1 0 16H42.372c-4.42 0-7.997-3.589-7.997-8zm18.428-40.128a8.001 8.001 0 0 1 8.002-8.002h41.374c4.42 0 7.997 3.582 7.997 8.002s-3.577 7.997-7.997 7.997H60.804a7.996 7.996 0 0 1-8.001-7.997zm64.63 0a8.001 8.001 0 0 1 8.002-8.002h29.347c4.425 0 8.002 3.582 8.002 8.002s-3.577 7.997-8.002 7.997h-29.347a7.997 7.997 0 0 1-8.002-7.997zm8.722 120.368c0-4.42 3.591-8 8.002-8h11.136c4.424 0 8.002 3.58 8.002 8s-3.577 8.002-8.002 8.002h-11.136c-4.411-.001-8.002-3.582-8.002-8.002zm-91.78 0c0-4.42 3.577-8 7.997-8h57.485c4.42 0 7.997 3.58 7.997 8s-3.577 8.002-7.997 8.002H42.372a7.998 7.998 0 0 1-7.997-8.002zm69.379-72.24a8 8 0 1 1 0-16h21.539a7.999 7.999 0 1 1 0 16zm-4.979 24.121h35.292c4.42 0 7.997 3.58 7.997 8s-3.577 8-7.997 8H98.775a8 8 0 0 1-8.002-8 8 8 0 0 1 8.002-8zm-27.531 0a8 8 0 0 1 8.002 8 8 8 0 0 1-8.002 8h-10.44a8 8 0 0 1-8.002-8 8 8 0 0 1 8.002-8zm136.18-12.062V40.425a8 8 0 0 1 8.002-8.001 8 8 0 0 1 8.002 8.001v31.141l21.868 12.63a7.999 7.999 0 1 1-8.001 13.85l-25.869-14.941a7.971 7.971 0 0 1-4.002-6.921zm8.001-52.19c-28.783 0-52.19 23.411-52.19 52.19 0 28.771 23.407 52.18 52.19 52.18 28.768 0 52.18-23.41 52.18-52.18.001-28.779-23.411-52.19-52.18-52.19zm0 120.372c37.598 0 68.179-30.58 68.179-68.182 0-37.6-30.581-68.189-68.179-68.189-37.599 0-68.189 30.589-68.189 68.189.001 37.602 30.591 68.182 68.189 68.182zm152.508 264.869c-15.811 0-28.67-12.859-28.67-28.67 0-15.81 12.859-28.67 28.67-28.67 15.81 0 28.67 12.859 28.67 28.67 0 15.81-12.86 28.67-28.67 28.67zm0-73.339c-24.631 0-44.668 20.039-44.668 44.669s20.037 44.669 44.668 44.669 44.673-20.039 44.673-44.669-20.042-44.669-44.673-44.669zm69.69 49.689v-10.039l-7.738-2.98a7.98 7.98 0 0 1-4.909-5.621 58.401 58.401 0 0 0-7.079-17.07 7.998 7.998 0 0 1-.504-7.45l3.37-7.59-7.098-7.099-7.601 3.368a7.98 7.98 0 0 1-7.437-.498 58.116 58.116 0 0 0-17.072-7.071 8.03 8.03 0 0 1-5.62-4.909l-2.979-7.749h-10.04l-2.979 7.749a8.028 8.028 0 0 1-5.62 4.909 58.116 58.116 0 0 0-17.072 7.071 7.983 7.983 0 0 1-7.441.498l-7.597-3.368-7.103 7.099 3.38 7.601a8.002 8.002 0 0 1-.499 7.439 58.158 58.158 0 0 0-7.079 17.07 7.966 7.966 0 0 1-4.909 5.61l-7.752 2.991v10.039l7.752 2.98a8.006 8.006 0 0 1 4.909 5.61 58.099 58.099 0 0 0 7.079 17.081 8.001 8.001 0 0 1 .499 7.439l-3.38 7.59 7.112 7.109 7.588-3.379a8.006 8.006 0 0 1 7.441.5 58.492 58.492 0 0 0 17.072 7.081 8.009 8.009 0 0 1 5.62 4.909l2.979 7.75h10.04l2.979-7.75a8.009 8.009 0 0 1 5.62-4.909 57.826 57.826 0 0 0 17.072-7.081 8.022 8.022 0 0 1 7.446-.5l7.592 3.379 7.098-7.109-3.37-7.59a7.974 7.974 0 0 1 .504-7.439 58.189 58.189 0 0 0 7.07-17.081 8.008 8.008 0 0 1 4.909-5.61zm10.873 12.96a8.01 8.01 0 0 0 5.13-7.47v-21.03c0-3.31-2.043-6.27-5.13-7.459l-9.07-3.501a74.459 74.459 0 0 0-5.761-13.88l3.949-8.899a7.983 7.983 0 0 0-1.647-8.901l-14.874-14.869a8.008 8.008 0 0 0-8.91-1.651l-8.896 3.949a73.62 73.62 0 0 0-13.871-5.749l-3.502-9.09a7.997 7.997 0 0 0-7.46-5.12h-21.03a8.016 8.016 0 0 0-7.47 5.12l-3.488 9.09a73.767 73.767 0 0 0-13.88 5.749l-8.901-3.949a7.979 7.979 0 0 0-8.901 1.651l-14.869 14.869a8.011 8.011 0 0 0-1.662 8.901l3.954 8.899a74.368 74.368 0 0 0-5.752 13.88l-9.08 3.501a7.99 7.99 0 0 0-5.13 7.459v21.03a8.004 8.004 0 0 0 5.13 7.47l9.08 3.49c1.44 4.81 3.37 9.46 5.752 13.88l-3.954 8.901a8.007 8.007 0 0 0 1.662 8.899l14.869 14.871a7.998 7.998 0 0 0 8.901 1.66l8.901-3.96a73.676 73.676 0 0 0 13.88 5.76l3.488 9.079a8.008 8.008 0 0 0 7.47 5.13h21.03a7.99 7.99 0 0 0 7.46-5.13l3.502-9.079a74.318 74.318 0 0 0 13.881-5.751l8.887 3.951a8.013 8.013 0 0 0 8.91-1.66l14.874-14.871a7.98 7.98 0 0 0 1.647-8.899l-3.949-8.901a74.312 74.312 0 0 0 5.752-13.88zm-15.622 77.811c-2.217-3.821-7.117-5.111-10.939-2.89-42.061 24.489-95.512 17.529-129.971-16.93-34.77-34.77-40.771-89.11-16.61-130.41a8 8 0 0 0 7.79 6.209h.301a7.998 7.998 0 0 0 7.701-8.279l-.763-21.29a8.016 8.016 0 0 0-3.285-6.18 8.005 8.005 0 0 0-6.9-1.221l-20.484 5.84c-4.246 1.21-6.707 5.641-5.498 9.89 1.031 3.611 4.382 5.911 7.969 5.79-12.407 20.57-18.578 44.431-17.566 68.831 1.276 31.01 14.078 60.169 36.036 82.129 23.784 23.781 55.433 36.16 87.392 36.16 21.252 0 42.64-5.47 61.938-16.709 3.821-2.221 5.11-7.121 2.889-10.94zm48.782-26.32c-1.031-3.611-4.382-5.92-7.964-5.801 12.412-20.57 18.583-44.419 17.575-68.82-1.294-31.01-14.092-60.18-36.055-82.141-39.59-39.589-101-47.58-149.331-19.44-3.817 2.221-5.116 7.121-2.89 10.94 2.222 3.821 7.122 5.11 10.943 2.891 42.061-24.5 95.508-17.529 129.967 16.93 34.774 34.77 40.785 89.1 16.61 130.41-.838-3.67-4.18-6.319-8.077-6.211a7.995 7.995 0 0 0-7.71 8.281l.767 21.28a7.995 7.995 0 0 0 3.29 6.189 8.024 8.024 0 0 0 4.702 1.521c.73 0 1.469-.099 2.189-.3l20.48-5.85a7.992 7.992 0 0 0 5.504-9.879zM307.614 95.565c.391 4.4 4.269 7.66 8.67 7.27l9.979-.869-78.638 79.309-92.801-30.08a7.99 7.99 0 0 0-7.38 1.3l-97.489 75.9c-3.478 2.721-4.109 7.741-1.398 11.231a7.966 7.966 0 0 0 6.317 3.079 7.98 7.98 0 0 0 4.909-1.68l94.142-73.299 93.45 30.279a7.985 7.985 0 0 0 8.148-1.969l81.293-81.999-.979 8.82a7.996 7.996 0 1 0 15.895 1.769l3.544-31.65a8.01 8.01 0 0 0-2.231-6.479 7.965 7.965 0 0 0-6.42-2.379l-31.729 2.778a8.013 8.013 0 0 0-7.282 8.669zM73.127 391.975H36.625v-86.57h36.502zm7.997-102.571h-52.5a7.997 7.997 0 0 0-7.997 8v102.571c0 4.409 3.577 8 7.997 8h52.5c4.41 0 8.002-3.59 8.002-8V297.404c0-4.418-3.592-8-8.002-8zm239.952-133.868h52.5c4.42 0 7.997 3.58 7.997 8v71.73c0 4.418-3.577 8-7.997 8a8 8 0 0 1-8.002-8v-63.731h-36.502v73.5c0 4.42-3.577 8-7.997 8a8 8 0 0 1-8.002-8v-81.499c.001-4.42 3.583-8 8.003-8zm-78.939 244.439a8 8 0 0 1-8.002 8h-10.548c-4.41 0-8.002-3.58-8.002-8v-145.69c0-4.42 3.592-8 8.002-8h52.5a7.998 7.998 0 0 1 7.997 8v26.351c0 4.42-3.582 8-7.997 8s-8.002-3.58-8.002-8v-18.351h-36.502v129.691h2.551a7.999 7.999 0 0 1 8.003 7.999zm-71.531-8h-36.502v-151.57h36.502zm7.997-167.569a7.999 7.999 0 0 1 8.002 8v167.57c0 4.409-3.582 8-8.002 8h-52.501c-4.42 0-7.997-3.59-7.997-8v-167.57c0-4.42 3.577-8 7.997-8z" opacity="1" data-original="#242222" class=""></path></g></g></svg>