<svg xmlns="http://www.w3.org/2000/svg" version="1.1" xmlns:xlink="http://www.w3.org/1999/xlink" width="512" height="512" x="0" y="0" viewBox="0 0 512 512" style="enable-background:new 0 0 512 512" xml:space="preserve" class=""><g><g fill-rule="evenodd" clip-rule="evenodd"><path fill="#ffe177" d="M361.223 66.057a106.813 106.813 0 0 1 31.267 12.962l20.317-9.024 23.946 23.946-9.021 20.311a106.763 106.763 0 0 1 12.965 31.275l20.728 7.978v33.865l-20.733 7.98a106.802 106.802 0 0 1-12.962 31.267l9.024 20.317-23.946 23.946-20.311-9.021a106.734 106.734 0 0 1-31.275 12.964l-7.978 20.729h-33.865l-7.981-20.733a106.813 106.813 0 0 1-31.267-12.962l-20.317 9.024-23.946-23.946 9.021-20.311a106.801 106.801 0 0 1-12.965-31.275l-20.729-7.978v-33.865l20.731-7.98a106.789 106.789 0 0 1 12.963-31.269l-9.023-20.315 23.946-23.946 20.318 9.024a106.775 106.775 0 0 1 31.267-12.962l7.981-20.733h33.864z" opacity="1" data-original="#ffe177"></path><path fill="#ffd064" d="m280.131 261.858-20.317 9.024-3.128-3.128 19.049-8.46c1.445.89 2.912 1.745 4.396 2.564zm81.092-195.801a106.813 106.813 0 0 1 31.267 12.962l-5.775 2.565c-9.669-5.954-24.617-12.898-35.664-15.527l-7.981-20.733h10.172zm31.273 195.804a106.734 106.734 0 0 1-31.275 12.964l-7.978 20.729H343.07l7.979-20.729c11.049-2.629 26.001-9.574 35.671-15.53zM256.685 73.124l3.128-3.128 20.318 9.024c-1.484.82-2.951 1.674-4.397 2.565zm149.078 0 7.044-3.128 23.946 23.946-9.021 20.311a106.763 106.763 0 0 1 12.965 31.275l20.728 7.978v33.865l-20.733 7.98a106.802 106.802 0 0 1-12.962 31.267l9.024 20.317-23.946 23.946-7.044-3.128 20.817-20.818-9.023-20.317a106.764 106.764 0 0 0 12.962-31.267l20.733-7.98v-33.865l-20.729-7.978a106.752 106.752 0 0 0-12.965-31.275l9.021-20.311z" opacity="1" data-original="#ffd064"></path><circle cx="336.31" cy="170.439" r="71.15" fill="#eceff1" transform="rotate(-45 336.305 170.514)" opacity="1" data-original="#eceff1"></circle><path fill="#d1d1d6" d="M336.31 99.289c-39.298 0-71.149 31.851-71.149 71.151 0 39.298 31.852 71.149 71.149 71.149 1.905 0 3.793-.077 5.659-.224-36.651-2.884-65.491-33.533-65.491-70.926 0-37.394 28.839-68.043 65.491-70.927a72.567 72.567 0 0 0-5.659-.223z" opacity="1" data-original="#d1d1d6"></path><path fill="#f6dccd" d="m63.672 349.576 90.5-52.432c16.985-9.841 34.255-16.818 52.924-10.762 20.814 6.75 54.802 21.244 89.464 27.495 12.866 4.171 20.887 17.054 17.387 30.116-3.5 13.065-14.54 19.801-30.116 17.391l12.116 1.94c13.884 2.221 26.636.32 38.788-6.757l87.011-50.68c67.636-39.391 77.57 21.21 55.082 35.055l-157.903 97.23c-14.523 8.941-30.414 11.027-46.888 6.611l-114.532-30.689-42.416 24.488c-8.155 4.708-18.647 1.897-23.355-6.258L57.435 372.92c-4.704-8.148-1.904-18.628 6.237-23.344z" opacity="1" data-original="#f6dccd"></path><path fill="#f1cbbc" d="m63.671 349.576 90.5-52.432c16.985-9.841 34.255-16.818 52.924-10.762 11.135 3.611 26.043 9.439 42.806 15.035L74.59 402.634 57.435 372.92c-4.704-8.148-1.904-18.627 6.236-23.344z" opacity="1" data-original="#f1cbbc"></path><path fill="#d1d1d6" d="m72.695 321.02 71.774 126.819c3.47 6.132 1.292 13.988-4.839 17.459l-24.413 13.817c-6.132 3.47-13.989 1.293-17.459-4.839l-71.774-126.82c-3.47-6.132-1.293-13.989 4.84-17.459l24.413-13.816c6.131-3.471 13.988-1.293 17.458 4.839z" opacity="1" data-original="#d1d1d6"></path><path fill="#b1b1b5" d="m110.444 408.152 12.704 22.446 12.562 22.197c3.463 6.12 1.302 13.956-4.802 17.438l8.721-4.936c6.132-3.47 8.309-11.327 4.839-17.459l-12.605-22.272-25.31-44.721-25.338-44.77-8.521-15.056c-3.006-5.312-9.304-7.655-14.921-5.931l14.753 26.067 25.31 44.72 12.604 22.272z" opacity="1" data-original="#b1b1b5"></path><path fill="#242222" d="M160.387 163.806a176.45 176.45 0 0 1 50.959-124.07l-10.344-.522c-4.414-.207-7.812-3.972-7.596-8.382a7.995 7.995 0 0 1 8.387-7.596l29.616 1.468c4.41.221 7.812 3.981 7.596 8.391l-1.468 29.607a8.008 8.008 0 0 1-8.386 7.6c-4.414-.216-7.812-3.977-7.596-8.386l.508-10.259c-29.179 29.889-45.679 70.047-45.679 112.149 0 35.108 11.125 68.447 32.172 96.42 2.659 3.53 1.948 8.547-1.586 11.21a7.966 7.966 0 0 1-4.8 1.595 7.983 7.983 0 0 1-6.4-3.186c-23.147-30.773-35.383-67.429-35.383-106.039zm169.15 7.859v-42.37a8 8 0 1 1 16.001 0v37.748l26.661 15.389c3.817 2.212 5.139 7.102 2.927 10.932a7.994 7.994 0 0 1-6.937 4 7.93 7.93 0 0 1-3.991-1.068l-30.661-17.705a7.988 7.988 0 0 1-4-6.926zm8-63.322c-34.92 0-63.317 28.411-63.317 63.322 0 34.91 28.397 63.307 63.317 63.307 34.911 0 63.313-28.397 63.313-63.307s-28.402-63.322-63.313-63.322zm0 142.631c43.73 0 79.309-35.579 79.309-79.309 0-43.739-35.579-79.318-79.309-79.318-43.739 0-79.318 35.579-79.318 79.318 0 43.73 35.579 79.309 79.318 79.309zm-97.809-103.569a8.016 8.016 0 0 1-4.908 5.61l-15.606 6.01v22.882l15.606 6.001a8.006 8.006 0 0 1 4.908 5.619 98.677 98.677 0 0 0 11.991 28.929 7.99 7.99 0 0 1 .499 7.44l-6.791 15.291 16.18 16.18 15.3-6.801a7.994 7.994 0 0 1 7.436.499 98.803 98.803 0 0 0 28.925 12.001 8 8 0 0 1 5.619 4.899l6 15.611h22.882l6.01-15.601a8.026 8.026 0 0 1 5.61-4.909c10.231-2.428 19.959-6.471 28.939-11.991a7.99 7.99 0 0 1 7.44-.499l15.29 6.791 16.18-16.18-6.801-15.3a8.018 8.018 0 0 1 .499-7.44 98.345 98.345 0 0 0 11.991-28.92 8.02 8.02 0 0 1 4.908-5.619l15.61-6.001v-22.882l-15.596-6.01a8.02 8.02 0 0 1-4.913-5.61c-2.429-10.231-6.471-19.959-11.987-28.938a7.951 7.951 0 0 1-.504-7.441l6.791-15.29-16.18-16.18-15.3 6.8a8.006 8.006 0 0 1-7.441-.504 98.37 98.37 0 0 0-28.929-11.987 8.042 8.042 0 0 1-5.61-4.913l-6.01-15.606h-22.882l-6 15.606a8.038 8.038 0 0 1-5.619 4.913 98.375 98.375 0 0 0-28.925 11.987 7.995 7.995 0 0 1-7.436.504l-15.3-6.8-16.18 16.18 6.796 15.3a8.006 8.006 0 0 1-.499 7.441 98.579 98.579 0 0 0-11.993 28.928zm-11.153-50.192 7.351 16.552a114.395 114.395 0 0 0-10.697 25.799l-16.886 6.499a7.995 7.995 0 0 0-5.125 7.459v33.871a7.975 7.975 0 0 0 5.125 7.459l16.886 6.504a114.534 114.534 0 0 0 10.697 25.809l-7.351 16.547a8.009 8.009 0 0 0 1.657 8.904l23.945 23.945a7.999 7.999 0 0 0 8.904 1.652l16.557-7.351a114.012 114.012 0 0 0 25.79 10.692l6.509 16.9a7.994 7.994 0 0 0 7.459 5.12h33.871a8.006 8.006 0 0 0 7.464-5.12l6.499-16.891a114.091 114.091 0 0 0 25.809-10.702l16.542 7.351a8.004 8.004 0 0 0 8.909-1.652l23.94-23.945a8.009 8.009 0 0 0 1.657-8.904l-7.346-16.556a114.739 114.739 0 0 0 10.688-25.79l16.891-6.513a7.99 7.99 0 0 0 5.13-7.459v-33.871a7.999 7.999 0 0 0-5.13-7.459l-16.881-6.499a114.689 114.689 0 0 0-10.697-25.809l7.346-16.552a7.997 7.997 0 0 0-1.657-8.899l-23.94-23.941a8.022 8.022 0 0 0-8.909-1.661l-16.552 7.351a114.669 114.669 0 0 0-25.8-10.688l-6.499-16.89a7.994 7.994 0 0 0-7.464-5.13h-33.871a7.982 7.982 0 0 0-7.459 5.13l-6.509 16.89a114.823 114.823 0 0 0-25.795 10.688l-16.552-7.351a8.014 8.014 0 0 0-8.904 1.661l-23.945 23.941a8.009 8.009 0 0 0-1.657 8.909zM66.15 347.385c.696 4.758-2.603 9.191-7.365 9.878-4.763.701-9.187-2.598-9.883-7.361-.701-4.767 2.598-9.186 7.361-9.888a8.72 8.72 0 0 1 9.887 7.371zm406.497-13.21-157.912 97.239c-12.457 7.671-26.124 9.591-40.629 5.699l-114.544-30.689a7.998 7.998 0 0 0-6.071.8l-17.173 9.911-42.784-75.601 64.63-37.433c14.458-8.368 30.091-15.38 46.455-10.066 5.285 1.708 11.38 3.92 18.439 6.471 20.241 7.318 45.391 16.406 71.501 21.178 8.937 3.139 13.935 11.77 11.657 20.288-2.998 11.191-12.335 12.594-19.78 11.742-12.806-2.64-24.981-6.109-37.861-9.789-6.113-1.741-12.434-3.553-18.928-5.294a8.009 8.009 0 0 0-9.799 5.662 7.992 7.992 0 0 0 5.657 9.789c6.372 1.713 12.627 3.501 18.674 5.233 13.29 3.788 25.842 7.379 39.363 10.137.052.014.104.014.155.023.056.009.108.028.165.038l10.82 1.76c16.246 2.598 30.665.061 44.083-7.751l87.022-50.681c24.9-14.495 44.041-16.02 51.199-4.066 4.933 8.227 2.74 21.051-4.339 25.4zM137.976 455.426a4.772 4.772 0 0 0-.433-3.652L65.759 324.941a4.748 4.748 0 0 0-2.904-2.25 4.802 4.802 0 0 0-3.652.433l-24.416 13.817c-2.268 1.294-3.101 4.292-1.816 6.561l71.779 126.832c1.285 2.269 4.287 3.111 6.561 1.822l24.411-13.822a4.765 4.765 0 0 0 2.254-2.908zm352.743-154.872c-4.593-7.662-23.413-30.411-72.993-1.539l-87.008 50.69c-4.141 2.4-8.339 4.141-12.711 5.219 1.572-2.631 2.8-5.582 3.671-8.81 4.48-16.749-5.459-34.233-22.651-39.8a9.448 9.448 0 0 0-1.05-.273c-24.985-4.495-49.655-13.418-69.477-20.59-6.895-2.485-13.403-4.838-18.943-6.636-22.387-7.262-42.596 1.708-59.407 11.45l-64.498 37.339-5.967-10.542c-2.729-4.819-7.191-8.297-12.556-9.789-5.37-1.492-10.979-.8-15.808 1.93l-24.416 13.822c-9.987 5.647-13.512 18.368-7.859 28.359L90.83 478.211c3.821 6.763 10.881 10.561 18.142 10.561a20.66 20.66 0 0 0 10.217-2.701l24.416-13.818c4.824-2.729 8.302-7.191 9.789-12.551 1.487-5.37.805-10.98-1.925-15.808l-7.266-12.829 14.42-8.335 111.339 29.842c6.325 1.689 12.528 2.532 18.594 2.532 12.1 0 23.672-3.36 34.562-10.062l157.921-97.239c14.518-8.941 19.126-31.46 9.68-47.249z" opacity="1" data-original="#242222"></path></g></g></svg>