<svg xmlns="http://www.w3.org/2000/svg" version="1.1" xmlns:xlink="http://www.w3.org/1999/xlink" xmlns:svgjs="http://svgjs.com/svgjs" width="512" height="512" x="0" y="0" viewBox="0 0 512 512" style="enable-background:new 0 0 512 512" xml:space="preserve" class=""><g><path d="M288.064 460.411H504.5c0-137.243-111.257-248.5-248.5-248.5S7.5 323.168 7.5 460.411h216.435" style="stroke-width:15;stroke-linecap:round;stroke-linejoin:round;stroke-miterlimit:10;" fill="none" stroke="#bb0b0b" stroke-width="15" stroke-linecap="round" stroke-linejoin="round" stroke-miterlimit="10" data-original="#000000" opacity="1" class=""></path><circle cx="256" cy="460.411" r="32.065" style="stroke-width:15;stroke-linecap:round;stroke-linejoin:round;stroke-miterlimit:10;" fill="none" stroke="#bb0b0b" stroke-width="15" stroke-linecap="round" stroke-linejoin="round" stroke-miterlimit="10" data-original="#000000" opacity="1" class=""></circle><path d="M256 276.04v16.033M386.37 330.041 279.002 437.409M125.63 330.041l11.337 11.337M185.444 290.075l6.136 14.812M426.337 389.856l-14.812 6.135M326.556 290.075l-6.136 14.812M85.663 389.856l14.812 6.135M92.082 319.166c-32.699 37.914-52.517 87.25-52.517 141.246M472.435 460.411c0-119.534-96.902-216.435-216.435-216.435-53.995 0-103.331 19.818-141.245 52.517M288.065 179.847v-56.113h32.064L256 19.524l-64.129 104.21h32.064v56.113M416.323 227.944v-48.097h24.048l-48.097-80.162-48.097 80.162h24.049v24.048M95.677 227.944v-48.097H71.629l48.097-80.162 48.097 80.162h-24.049v24.048" style="stroke-width:15;stroke-linecap:round;stroke-linejoin:round;stroke-miterlimit:10;" fill="none" stroke="#bb0b0b" stroke-width="15" stroke-linecap="round" stroke-linejoin="round" stroke-miterlimit="10" data-original="#000000" opacity="1" class=""></path></g></svg>