<svg xmlns="http://www.w3.org/2000/svg" version="1.1" xmlns:xlink="http://www.w3.org/1999/xlink" width="512" height="512" x="0" y="0" viewBox="0 0 512.131 512.131" style="enable-background:new 0 0 512 512" xml:space="preserve" class=""><g><path d="M356.868 252.083a37.867 37.867 0 0 1-2.745-9.689 99.233 99.233 0 0 0-7.126-25.209 7.498 7.498 0 0 0-9.859-3.91 7.499 7.499 0 0 0-3.91 9.859 84.22 84.22 0 0 1 6.048 21.396 52.977 52.977 0 0 0 3.831 13.522l16.28 37.54c6.876 15.854 4.68 33.488-5.874 47.172-8.992 11.658-22.302 18.15-36.605 18.204a66.95 66.95 0 0 0 6.475-28.786v-69.019c0-8.365-6.551-15.091-14.915-15.312l-42.433-1.118c-14.471-.382-28.623-5.623-39.851-14.757l-2.793-2.273a12.429 12.429 0 0 0-9.222-2.735 12.42 12.42 0 0 0-8.436 4.621c-11.009 13.755-17.072 31.032-17.072 48.649v51.944a66.953 66.953 0 0 0 6.475 28.786c-14.302-.053-27.613-6.545-36.604-18.204-10.555-13.684-12.751-31.317-5.875-47.172l16.28-37.539a52.996 52.996 0 0 0 3.831-13.523c2.881-20.022 12.888-38.345 28.176-51.591s34.849-20.541 55.077-20.541c22.86 0 44.251 9.023 60.231 25.408 2.891 2.967 7.64 3.024 10.605.133s3.025-7.641.133-10.605c-18.827-19.305-44.031-29.936-70.97-29.936-23.836 0-46.885 8.596-64.899 24.204s-29.806 37.198-33.201 60.791a37.863 37.863 0 0 1-2.745 9.69l-16.28 37.54c-9.081 20.939-6.181 44.229 7.759 62.302 11.924 15.46 29.59 24.076 48.57 24.075 3.012 0 6.062-.226 9.123-.667a67.84 67.84 0 0 0 18.968 15.707v14.474l-38.347 15.384c-26.868 10.78-44.229 36.453-44.229 65.403v18.329c0 4.143 3.357 7.5 7.5 7.5s7.5-3.357 7.5-7.5v-18.329c0-22.788 13.666-42.996 34.815-51.481l34.517-13.848c4.311 12.396 16.105 21.319 29.95 21.319s25.639-8.924 29.95-21.319l34.521 13.85c.906.363 1.863.784 3.013 1.325a7.502 7.502 0 0 0 6.385-13.574 71.048 71.048 0 0 0-3.815-1.674l-38.347-15.385v-13.409a67.78 67.78 0 0 0 20.968-16.772c3.062.442 6.109.667 9.123.667 18.979 0 36.647-8.616 48.57-24.075 13.939-18.072 16.84-41.362 7.759-62.302zm-85.14 158.504c0 9.211-7.494 16.705-16.706 16.705s-16.706-7.494-16.706-16.705v-13.423a67.185 67.185 0 0 0 17.706 2.378c5.408 0 10.663-.658 15.706-1.868zm-15.706-26.045c-28.871 0-52.36-23.488-52.36-52.359v-51.944c0-13.384 4.334-26.524 12.251-37.281l.805.655c13.784 11.213 31.158 17.646 48.922 18.115l42.432 1.118a.318.318 0 0 1 .312.318v69.019c-.002 28.871-23.491 52.359-52.362 52.359zM345.886 443.801a7.498 7.498 0 0 0-1.788 10.454c6.677 9.433 10.206 20.514 10.206 32.047v18.329c0 4.143 3.357 7.5 7.5 7.5s7.5-3.357 7.5-7.5v-18.329c0-14.655-4.482-28.733-12.964-40.713a7.497 7.497 0 0 0-10.454-1.788zM114.255 112.32c-16.707-11.416-37.605-13.553-57.339-5.854-14.395 5.614-25.904 17.05-31.58 31.374-3.693 9.323-5.217 18.857-4.526 28.338a7.493 7.493 0 0 0 8.025 6.936 7.501 7.501 0 0 0 6.936-8.025c-.525-7.209.656-14.518 3.511-21.723 4.146-10.464 12.561-18.819 23.086-22.925 15.044-5.868 30.873-4.314 43.425 4.264a44.888 44.888 0 0 1 19.591 37.077c0 9.31-2.825 18.236-8.169 25.817a9.67 9.67 0 0 0-.181.268l-25.199 39.23a7.508 7.508 0 0 0-1.189 4.054v3.416h-2.631V197.02c7.618-.684 13.61-7.096 13.61-14.889v-12.307c0-8.247-6.71-14.957-14.957-14.957H74.361c-8.247 0-14.957 6.71-14.957 14.957v12.307c0 7.792 5.993 14.205 13.61 14.889v37.548h-2.631v-3.416a7.508 7.508 0 0 0-1.189-4.054l-22.932-35.701a7.5 7.5 0 0 0-12.621 8.107l21.742 33.849v5.373c0 2.145.634 4.141 1.713 5.826v7.766c0 12.065 9.816 21.882 21.883 21.882h3.07c12.066 0 21.883-9.816 21.883-21.882v-7.766a10.767 10.767 0 0 0 1.713-5.826v-5.373l23.925-37.247c7.074-10.094 10.813-21.959 10.813-34.323a59.882 59.882 0 0 0-26.128-49.463zm-27.631 57.504.048 12.264-5.759.02c-.133-.007-.265-.02-.4-.02-.155 0-.307.014-.459.023l-5.651.02-.043-12.264zm2.308 82.493c0 3.795-3.088 6.882-6.883 6.882h-3.07c-3.795 0-6.883-3.087-6.883-6.882v-2.75h16.836zM255.022 133.167c36.715 0 66.584-29.869 66.584-66.584C321.606 29.869 291.737 0 255.022 0s-66.584 29.869-66.584 66.583c0 36.715 29.869 66.584 66.584 66.584zm0-118.167c28.443 0 51.584 23.14 51.584 51.583s-23.141 51.584-51.584 51.584-51.584-23.141-51.584-51.584S226.579 15 255.022 15z" fill="#bb0b0b" opacity="1" data-original="#000000" class=""></path><path d="M241.834 91.611c1.464 1.464 3.384 2.196 5.303 2.196s3.839-.732 5.304-2.196l35.038-35.038a7.5 7.5 0 0 0-10.607-10.607l-29.734 29.735-5.046-5.045a7.5 7.5 0 0 0-10.606.001 7.498 7.498 0 0 0 .001 10.606zM490.902 149.175a11.63 11.63 0 0 0-9.447-7.966l-31.169-4.529-13.939-28.245a11.63 11.63 0 0 0-10.493-6.522 11.63 11.63 0 0 0-10.492 6.522l-13.94 28.245-31.17 4.529a11.627 11.627 0 0 0-9.445 7.965 11.628 11.628 0 0 0 2.961 11.993l22.555 21.985-5.325 31.045a11.63 11.63 0 0 0 4.656 11.443 11.625 11.625 0 0 0 12.322.891l27.879-14.657 27.88 14.657a11.705 11.705 0 0 0 5.455 1.356c2.416 0 4.816-.758 6.868-2.248a11.627 11.627 0 0 0 4.653-11.443l-5.324-31.043 22.553-21.985a11.629 11.629 0 0 0 2.962-11.993zm-37.228 24.445a11.7 11.7 0 0 0-3.366 10.358l4.487 26.165-23.496-12.353a11.7 11.7 0 0 0-10.891-.001l-23.497 12.354 4.488-26.167a11.699 11.699 0 0 0-3.365-10.355l-19.01-18.529 26.273-3.817a11.699 11.699 0 0 0 8.807-6.401l11.749-23.806L437.6 144.87a11.698 11.698 0 0 0 8.812 6.404l26.27 3.817zM334.549 96.204a218.338 218.338 0 0 1 33.097 16.281c-3.302 1.551-5.069 5.316-3.996 8.919a7.503 7.503 0 0 0 9.33 5.046l14.208-4.232a7.498 7.498 0 0 0 5.358-7.188V99.662c0-4.143-3.357-7.5-7.5-7.5s-7.5 3.357-7.5 7.5v1.296C365.61 93.605 353.022 87.309 340 82.229a7.5 7.5 0 0 0-9.713 4.262 7.502 7.502 0 0 0 4.262 9.713zM136.672 114.676a7.465 7.465 0 0 0 3.919-1.11 219.334 219.334 0 0 1 21.744-11.714l-.39 1.46a7.501 7.501 0 0 0 14.491 3.874l4.58-17.138a7.499 7.499 0 0 0-4.829-9.036l-13.744-4.678c-3.918-1.338-8.182.761-9.516 4.684a7.491 7.491 0 0 0 1.883 7.795 234.378 234.378 0 0 0-22.07 11.973 7.5 7.5 0 0 0 3.932 13.89z" fill="#bb0b0b" opacity="1" data-original="#000000" class=""></path></g></svg>