<svg xmlns="http://www.w3.org/2000/svg" version="1.1" xmlns:xlink="http://www.w3.org/1999/xlink" xmlns:svgjs="http://svgjs.com/svgjs" width="512" height="512" x="0" y="0" viewBox="0 0 512 512" style="enable-background:new 0 0 512 512" xml:space="preserve" class=""><g><path d="M449.068 388a7.5 7.5 0 0 0 7.5-7.5v-180c0-8.952-3.489-18.109-9.824-25.784l-55.623-67.394a43.985 43.985 0 0 0-9.902-8.877c.223-2.292.35-4.607.35-6.944v-84a7.5 7.5 0 0 0-15 0s-.015 84.715-.021 85.073a37.133 37.133 0 0 0-6.479-.573h-97c-6.829 0-13.523 1.916-19.516 5.437a7.6 7.6 0 0 0-.768.32l-73.111 35.612a39.187 39.187 0 0 0-18.24 19.189c-.04.091-.078.182-.114.274l-30.228 76.672a7.501 7.501 0 0 0 13.955 5.502l30.169-76.524c2.269-5.069 6.236-9.222 11.105-11.666l38.628-18.815-38.556 46.715c-5.773 6.994-8.824 15.911-8.824 25.785v259c0 3.016.265 5.969.746 8.847l-77.282-34.244c-17.458-7.735-25.37-28.282-17.634-45.802l.097-.229 48.883-121.484a7.5 7.5 0 0 0-13.916-5.6l-48.84 121.371c-10.982 25.05.362 54.392 25.333 65.456l90.624 40.156c.111.049.224.085.336.128 9.198 14.372 25.1 23.899 43.153 23.899h185c28.458 0 52.5-24.042 52.5-52.5v-44a7.5 7.5 0 0 0-15 0v44c0 20.327-17.173 37.5-37.5 37.5h-185c-20.126 0-36.5-16.822-36.5-37.5v-259c0-6.438 1.814-11.901 5.393-16.236l55.623-67.394c5.177-6.272 12.279-9.87 19.484-9.87h97c1.413 0 2.821.143 4.212.413-4.695 16.011-16.325 29.371-32.03 36.066C328.144 136.61 320.636 132 312.068 132c-12.958 0-23.5 10.542-23.5 23.5s10.542 23.5 23.5 23.5c11.983 0 21.893-9.018 23.318-20.623 20.199-7.64 35.473-23.828 42.278-43.587a30.37 30.37 0 0 1 1.889 2.08l55.623 67.395c4.122 4.994 6.393 10.76 6.393 16.236v180a7.498 7.498 0 0 0 7.499 7.499zm-137-224c-4.687 0-8.5-3.813-8.5-8.5s3.813-8.5 8.5-8.5 8.5 3.813 8.5 8.5-3.813 8.5-8.5 8.5z" fill="#000000" data-original="#000000"></path><path d="M247.068 399a7.474 7.474 0 0 0 5.303-2.197l128-128a7.5 7.5 0 0 0 0-10.606 7.5 7.5 0 0 0-10.606 0l-128 128c-4.782 4.457-1.113 13.03 5.303 12.803zM263.068 320c17.92 0 32.5-14.58 32.5-32.5s-14.58-32.5-32.5-32.5h-1c-17.92 0-32.5 14.58-32.5 32.5s14.58 32.5 32.5 32.5zm-18.5-32.5c0-9.649 7.851-17.5 17.5-17.5h1c9.649 0 17.5 7.851 17.5 17.5s-7.851 17.5-17.5 17.5h-1c-9.649 0-17.5-7.851-17.5-17.5zM360.068 399h1c17.92 0 32.5-14.58 32.5-32.5s-14.58-32.5-32.5-32.5h-1c-17.92 0-32.5 14.58-32.5 32.5s14.58 32.5 32.5 32.5zm0-50h1c9.649 0 17.5 7.851 17.5 17.5s-7.851 17.5-17.5 17.5h-1c-9.649 0-17.5-7.851-17.5-17.5s7.851-17.5 17.5-17.5z" fill="#000000" data-original="#000000"></path></g></svg>