<svg xmlns="http://www.w3.org/2000/svg" version="1.1" xmlns:xlink="http://www.w3.org/1999/xlink" xmlns:svgjs="http://svgjs.com/svgjs" width="512" height="512" x="0" y="0" viewBox="0 0 64 64" style="enable-background:new 0 0 512 512" xml:space="preserve" class=""><g><path d="M21.079 36.93h16.266a2.905 2.905 0 0 1 2.067.854 2.936 2.936 0 0 1-2.067 4.974l-9.797.007a1 1 0 0 0 .001 2l9.796-.007c6.49-.202 6.495-9.64 0-9.828h-14.49a15.477 15.477 0 0 1 6.156-9.625c.761-.639 2.275-.978 1.681-2.197a.998.998 0 0 0-1.362-.38 17.471 17.471 0 0 0-8.504 12.215 5.818 5.818 0 0 0-3.803 1.681L4.294 49.368a1 1 0 0 0 1.415 1.414l12.729-12.744a3.8 3.8 0 0 1 2.64-1.108z" fill="#bb0b0b" data-original="#000000" opacity="1" class=""></path><path d="M58.414 29.438a4.933 4.933 0 0 0-5.72-.853 17.321 17.321 0 0 0-9.968-7.487c7.89-4.749 4.593-17.046-4.75-17.098a9.215 9.215 0 0 0 0 18.43 15.409 15.409 0 0 1 13.13 7.383l-6.133 6.15a1 1 0 0 0 1.416 1.413l6.49-6.509c1.852-1.926 5.152-.334 5.12 2.2a2.897 2.897 0 0 1-.856 2.067L41.04 51.269a4.502 4.502 0 0 1-2.534 1.26c-5.6.77-22.279 3.05-22.279 3.05a1.007 1.007 0 0 0-.57.282l-2.44 2.43a1 1 0 0 0 1.411 1.418l2.202-2.193c2.374-.325 16.816-2.3 21.955-3.006a6.497 6.497 0 0 0 3.665-1.824l16.11-16.14a4.972 4.972 0 0 0-.145-7.108zM37.981 20.43a7.222 7.222 0 0 1-7.22-7.215c.338-9.548 14.093-9.548 14.43 0a7.223 7.223 0 0 1-7.21 7.215z" fill="#bb0b0b" data-original="#000000" opacity="1" class=""></path></g></svg>