<svg xmlns="http://www.w3.org/2000/svg" version="1.1" xmlns:xlink="http://www.w3.org/1999/xlink" xmlns:svgjs="http://svgjs.com/svgjs" width="512" height="512" x="0" y="0" viewBox="0 0 682.667 682.667" style="enable-background:new 0 0 512 512" xml:space="preserve" class=""><g><defs><clipPath id="a" clipPathUnits="userSpaceOnUse"><path d="M0 512h512V0H0Z" fill="#bb0b0b" data-original="#000000" opacity="1"></path></clipPath></defs><g clip-path="url(#a)" transform="matrix(1.33333 0 0 -1.33333 0 682.667)"><path d="M0 0v-376.3h63.97V68.88c0 14.4-11.67 26.06-26.06 26.06H26.06C11.67 94.94 0 83.28 0 68.88V30" style="stroke-width:15;stroke-linecap:round;stroke-linejoin:round;stroke-miterlimit:10;stroke-dasharray:none;stroke-opacity:1" transform="translate(7.5 396.68)" fill="none" stroke="#bb0b0b" stroke-width="15" stroke-linecap="round" stroke-linejoin="round" stroke-miterlimit="10" stroke-dasharray="none" stroke-opacity="" data-original="#000000" opacity="1" class=""></path><path d="M0 0v-68.95h63.97v445.18c0 14.4-11.67 26.06-26.06 26.06H26.06C11.67 402.29 0 390.63 0 376.23V30" style="stroke-width:15;stroke-linecap:round;stroke-linejoin:round;stroke-miterlimit:10;stroke-dasharray:none;stroke-opacity:1" transform="translate(440.53 89.33)" fill="none" stroke="#bb0b0b" stroke-width="15" stroke-linecap="round" stroke-linejoin="round" stroke-miterlimit="10" stroke-dasharray="none" stroke-opacity="" data-original="#000000" opacity="1" class=""></path><path d="M0 0a1805.406 1805.406 0 0 0 282.51 1.536c11.502-.839 20.82-9.73 22.191-21.181 7.618-63.62 7.618-127.241 0-190.861-1.371-11.451-10.689-20.342-22.191-21.181A1805.528 1805.528 0 0 0 0-230.151" style="stroke-width:15;stroke-linecap:round;stroke-linejoin:round;stroke-miterlimit:10;stroke-dasharray:none;stroke-opacity:1" transform="translate(71.473 446.91)" fill="none" stroke="#bb0b0b" stroke-width="15" stroke-linecap="round" stroke-linejoin="round" stroke-miterlimit="10" stroke-dasharray="none" stroke-opacity="" data-original="#000000" opacity="1" class=""></path><path d="m0 0 45.791 79.303c6.303 10.916 22.06 10.916 28.363 0L119.95 0c6.304-10.917-1.575-24.565-14.181-24.565H85.588v-45.099c0-14.124-11.49-25.615-25.615-25.615-14.124 0-25.615 11.491-25.615 25.615v45.099H14.182C1.575-24.565-6.304-10.917 0 0Z" style="stroke-width:15;stroke-linecap:round;stroke-linejoin:round;stroke-miterlimit:10;stroke-dasharray:none;stroke-opacity:1" transform="translate(162.551 335.728)" fill="none" stroke="#bb0b0b" stroke-width="15" stroke-linecap="round" stroke-linejoin="round" stroke-miterlimit="10" stroke-dasharray="none" stroke-opacity="" data-original="#000000" opacity="1" class=""></path></g></g></svg>