<svg xmlns="http://www.w3.org/2000/svg" version="1.1" xmlns:xlink="http://www.w3.org/1999/xlink" xmlns:svgjs="http://svgjs.com/svgjs" width="512" height="512" x="0" y="0" viewBox="0 0 450 450" style="enable-background:new 0 0 512 512" xml:space="preserve" class=""><g><g><g><path d="m283.7 373.1h-256.3c-12.8 0-23.1-10.4-23.1-23.1v-262.7c0-12.8 10.4-23.2 23.1-23.2h23.1c2.8 0 5 2.2 5 5s-2.2 5-5 5h-23.1c-7.3 0-13.1 5.9-13.1 13.2v262.6c0 7.3 5.9 13.1 13.2 13.1h256.3c2.8 0 5 2.2 5 5s-2.3 5.1-5.1 5.1zm108.8-108.8c-2.8 0-5-2.2-5-5v-172c0-7.3-5.9-13.2-13.1-13.2h-23.1c-2.8 0-5-2.2-5-5s2.2-5 5-5h23.1c12.8 0 23.1 10.4 23.1 23.2v172c0 2.8-2.2 5-5 5zm-78.1-190.1h-32.3c-2.8 0-5-2.2-5-5s2.2-5 5-5h32.3c2.8 0 5 2.2 5 5s-2.2 5-5 5zm-69.1 0h-88.9c-2.8 0-5-2.2-5-5s2.2-5 5-5h88.9c2.8 0 5 2.2 5 5s-2.2 5-5 5zm-125.7 0h-32.3c-2.8 0-5-2.2-5-5s2.2-5 5-5h32.3c2.8 0 5 2.2 5 5s-2.2 5-5 5z" fill="#bb0b0b" data-original="#000000" class=""></path></g><g><path d="m392.5 146.8h-383.2c-2.8 0-5-2.2-5-5s2.2-5 5-5h383.2c2.8 0 5 2.2 5 5s-2.2 5-5 5z" fill="#bb0b0b" data-original="#000000" class=""></path></g><g><path d="m68.9 109.9c-12.9 0-23.4-10.5-23.4-23.4v-47.2c0-6 4.9-10.9 10.9-10.9h25.1c6 0 10.9 4.9 10.9 10.9v47.2c-.1 12.9-10.6 23.4-23.5 23.4zm-12.5-71.5c-.5 0-.9.4-.9.9v47.2c0 7.4 6 13.4 13.4 13.4s13.4-6 13.4-13.4v-47.2c0-.5-.4-.9-.9-.9z" fill="#bb0b0b" data-original="#000000" class=""></path></g><g><path d="m138 109.9c-12.9 0-23.4-10.5-23.4-23.4v-47.2c0-6 4.9-10.9 10.9-10.9h25.1c6 0 10.9 4.9 10.9 10.9v47.2c-.1 12.9-10.6 23.4-23.5 23.4zm-12.5-71.5c-.5 0-.9.4-.9.9v47.2c0 7.4 6 13.4 13.4 13.4s13.4-6 13.4-13.4v-47.2c0-.5-.4-.9-.9-.9z" fill="#bb0b0b" data-original="#000000" class=""></path></g><g><path d="m263.7 109.9c-12.9 0-23.4-10.5-23.4-23.4v-47.2c0-6 4.9-10.9 10.9-10.9h25.1c6 0 10.9 4.9 10.9 10.9v47.2c-.1 12.9-10.6 23.4-23.5 23.4zm-12.5-71.5c-.5 0-.9.4-.9.9v47.2c0 7.4 6 13.4 13.4 13.4s13.4-6 13.4-13.4v-47.2c0-.5-.4-.9-.9-.9z" fill="#bb0b0b" data-original="#000000" class=""></path></g><g><path d="m332.9 109.9c-12.9 0-23.4-10.5-23.4-23.4v-47.2c0-6 4.9-10.9 10.9-10.9h25.1c6 0 10.9 4.9 10.9 10.9v47.2c-.1 12.9-10.6 23.4-23.5 23.4zm-12.6-71.5c-.5 0-.9.4-.9.9v47.2c0 7.4 6 13.4 13.4 13.4s13.4-6 13.4-13.4v-47.2c0-.5-.4-.9-.9-.9z" fill="#bb0b0b" data-original="#000000" class=""></path></g><g><path d="m72.9 215h-22.4c-7.4 0-13.4-6-13.4-13.4v-22.4c0-7.4 6-13.4 13.4-13.4h22.4c7.4 0 13.4 6 13.4 13.4v22.4c.1 7.4-6 13.4-13.4 13.4zm-22.4-39.3c-1.9 0-3.4 1.5-3.4 3.4v22.4c0 1.9 1.6 3.4 3.4 3.4h22.4c1.8 0 3.4-1.6 3.4-3.4v-22.4c0-1.9-1.6-3.4-3.4-3.4z" fill="#bb0b0b" data-original="#000000" class=""></path></g><g><path d="m142.5 215h-22.4c-7.4 0-13.4-6-13.4-13.4v-22.4c0-7.4 6-13.4 13.4-13.4h22.4c7.4 0 13.4 6 13.4 13.4v22.4c0 7.4-6 13.4-13.4 13.4zm-22.4-39.3c-1.9 0-3.4 1.5-3.4 3.4v22.4c0 1.9 1.6 3.4 3.4 3.4h22.4c1.9 0 3.4-1.6 3.4-3.4v-22.4c0-1.9-1.6-3.4-3.4-3.4z" fill="#bb0b0b" data-original="#000000" class=""></path></g><g><path d="m212.1 215h-22.4c-7.4 0-13.4-6-13.4-13.4v-22.4c0-7.4 6-13.4 13.4-13.4h22.4c7.4 0 13.4 6 13.4 13.4v22.4c0 7.4-6 13.4-13.4 13.4zm-22.4-39.3c-1.9 0-3.4 1.6-3.4 3.4v22.4c0 1.9 1.6 3.4 3.4 3.4h22.4c1.9 0 3.4-1.6 3.4-3.4v-22.4c0-1.9-1.6-3.4-3.4-3.4z" fill="#bb0b0b" data-original="#000000" class=""></path></g><g><path d="m281.7 215h-22.5c-7.4 0-13.4-6-13.4-13.4v-22.4c0-7.4 6-13.4 13.4-13.4h22.5c7.4 0 13.4 6 13.4 13.4v22.4c0 7.4-6 13.4-13.4 13.4zm-22.5-39.3c-1.9 0-3.4 1.6-3.4 3.4v22.4c0 1.9 1.6 3.4 3.4 3.4h22.5c1.9 0 3.4-1.6 3.4-3.4v-22.4c0-1.9-1.6-3.4-3.4-3.4z" fill="#bb0b0b" data-original="#000000" class=""></path></g><g><path d="m351.3 215h-22.4c-7.4 0-13.4-6-13.4-13.4v-22.4c0-7.4 6-13.4 13.4-13.4h22.4c7.4 0 13.4 6 13.4 13.4v22.4c0 7.4-6 13.4-13.4 13.4zm-22.5-39.3c-1.9 0-3.4 1.6-3.4 3.4v22.4c0 1.9 1.6 3.4 3.4 3.4h22.4c1.9 0 3.4-1.6 3.4-3.4v-22.4c0-1.9-1.6-3.4-3.4-3.4z" fill="#bb0b0b" data-original="#000000" class=""></path></g><g><path d="m72.9 279.6h-22.4c-7.4 0-13.4-6-13.4-13.4v-22.4c0-7.4 6-13.4 13.4-13.4h22.4c7.4 0 13.4 6 13.4 13.4v22.4c.1 7.4-6 13.4-13.4 13.4zm-22.4-39.3c-1.9 0-3.4 1.5-3.4 3.4v22.4c0 1.9 1.6 3.4 3.4 3.4h22.4c1.8 0 3.4-1.6 3.4-3.4v-22.4c0-1.9-1.6-3.4-3.4-3.4z" fill="#bb0b0b" data-original="#000000" class=""></path></g><g><path d="m142.5 279.6h-22.4c-7.4 0-13.4-6-13.4-13.4v-22.4c0-7.4 6-13.4 13.4-13.4h22.4c7.4 0 13.4 6 13.4 13.4v22.4c0 7.4-6 13.4-13.4 13.4zm-22.4-39.3c-1.9 0-3.4 1.5-3.4 3.4v22.4c0 1.9 1.6 3.4 3.4 3.4h22.4c1.9 0 3.4-1.6 3.4-3.4v-22.4c0-1.9-1.5-3.4-3.4-3.4z" fill="#bb0b0b" data-original="#000000" class=""></path></g><g><path d="m212.1 279.6h-22.4c-7.4 0-13.4-6-13.4-13.4v-22.4c0-7.4 6-13.4 13.4-13.4h22.4c7.4 0 13.4 6 13.4 13.4v22.4c0 7.4-6 13.4-13.4 13.4zm-22.4-39.3c-1.9 0-3.4 1.6-3.4 3.4v22.4c0 1.9 1.6 3.4 3.4 3.4h22.4c1.9 0 3.4-1.6 3.4-3.4v-22.4c0-1.9-1.6-3.4-3.4-3.4z" fill="#bb0b0b" data-original="#000000" class=""></path></g><g><path d="m277.6 279.6h-18.4c-7.4 0-13.4-6-13.4-13.4v-22.4c0-7.4 6-13.4 13.4-13.4h22.5c7.4 0 13.4 6 13.4 13.4v6.2c0 2.8-2.2 5-5 5s-5-2.2-5-5v-6.2c0-1.9-1.6-3.4-3.4-3.4h-22.5c-1.9 0-3.4 1.6-3.4 3.4v22.4c0 1.9 1.6 3.4 3.4 3.4h18.4c2.8 0 5 2.2 5 5s-2.2 5-5 5z" fill="#bb0b0b" data-original="#000000" class=""></path></g><g><path d="m72.9 344.2h-22.4c-7.4 0-13.4-6-13.4-13.4v-22.4c0-7.4 6-13.4 13.4-13.4h22.4c7.4 0 13.4 6 13.4 13.4v22.5c.1 7.2-6 13.3-13.4 13.3zm-22.4-39.3c-1.8 0-3.4 1.6-3.4 3.4v22.5c0 1.9 1.6 3.4 3.4 3.4h22.4c1.8 0 3.4-1.6 3.4-3.4v-22.5c0-1.9-1.6-3.4-3.4-3.4z" fill="#bb0b0b" data-original="#000000" class=""></path></g><g><path d="m142.5 344.2h-22.4c-7.4 0-13.4-6-13.4-13.4v-22.4c0-7.4 6-13.4 13.4-13.4h22.4c7.4 0 13.4 6 13.4 13.4v22.5c0 7.2-6 13.3-13.4 13.3zm-22.4-39.3c-1.9 0-3.4 1.6-3.4 3.4v22.5c0 1.9 1.6 3.4 3.4 3.4h22.4c1.9 0 3.4-1.6 3.4-3.4v-22.5c0-1.9-1.6-3.4-3.4-3.4z" fill="#bb0b0b" data-original="#000000" class=""></path></g><g><path d="m212.1 344.2h-22.4c-7.4 0-13.4-6-13.4-13.4v-22.4c0-7.4 6-13.4 13.4-13.4h22.4c7.4 0 13.4 6 13.4 13.4v22.5c0 7.2-6 13.3-13.4 13.3zm-22.4-39.3c-1.9 0-3.4 1.6-3.4 3.4v22.5c0 1.9 1.6 3.4 3.4 3.4h22.4c1.9 0 3.4-1.6 3.4-3.4v-22.5c0-1.9-1.6-3.4-3.4-3.4z" fill="#bb0b0b" data-original="#000000" class=""></path></g><g><path d="m358.1 423h-21.1c-4.8 0-8.8-3.9-8.8-8.8v-16.2c-6.8-1.8-13.2-4.4-19.2-8l-11.5 11.5c-3.4 3.4-9 3.4-12.4 0l-14.9-14.9c-3.4-3.4-3.4-9 0-12.4l11.5-11.5c-3.5-6-6.2-12.5-8-19.2h-16.2c-4.8 0-8.8-3.9-8.8-8.8v-21.1c0-4.8 3.9-8.8 8.8-8.8h16.2c1.8-6.8 4.4-13.2 8-19.2l-11.5-11.5c-3.4-3.4-3.4-9 0-12.4l14.9-14.9c3.4-3.4 9-3.4 12.4 0l11.5 11.5c6-3.5 12.5-6.2 19.2-8v-16.2c0-4.8 3.9-8.8 8.8-8.8h21.1c4.8 0 8.8 3.9 8.8 8.8v16.2c6.8 1.8 13.2 4.4 19.2 8l11.5-11.5c3.4-3.4 9-3.4 12.4 0l14.9 14.9c3.4 3.4 3.4 9 0 12.4l-11.5 11.5c3.5 6 6.2 12.5 8 19.2h16.2c4.8 0 8.8 3.9 8.8 8.8v21.1c0 4.8-3.9 8.8-8.8 8.8h-16.2c-1.8 6.8-4.4 13.2-8 19.2l11.5 11.5c3.4 3.4 3.4 9 0 12.4l-14.9 14.9c-3.4 3.4-9 3.4-12.4 0l-11.5-11.5c-6 3.5-12.5 6.2-19.2 8v16.2c0 4.9-3.9 8.8-8.8 8.8zm-19.8-10h18.6v-18.9c0-2.4 1.7-4.4 4-4.9 8.3-1.7 16.1-4.9 23.2-9.6 2-1.3 4.6-1 6.3.6l13.4 13.4 13.1-13.1-13.4-13.4c-1.7-1.7-2-4.3-.6-6.3 4.7-7.1 7.9-14.9 9.6-23.2.5-2.3 2.5-4 4.9-4h18.9v-18.6h-18.9c-2.4 0-4.4-1.7-4.9-4-1.7-8.3-4.9-16.1-9.6-23.2-1.3-2-1-4.6.6-6.3l13.4-13.4-13.1-13.1-13.4 13.4c-1.7 1.7-4.3 1.9-6.3.6-7.1-4.7-14.9-7.9-23.2-9.6-2.3-.5-4-2.5-4-4.9v-18.9h-18.6v18.9c0 2.4-1.7 4.4-4 4.9-8.3 1.7-16.1 4.9-23.2 9.6-2 1.3-4.6 1-6.3-.6l-13.4-13.4-13.1 13.1 13.4 13.4c1.7 1.7 2 4.3.6 6.3-4.7 7.1-7.9 14.9-9.6 23.2-.5 2.3-2.5 4-4.9 4h-18.8v18.6h18.9c2.4 0 4.4 1.7 4.9 4 1.7 8.3 4.9 16.1 9.6 23.2 1.3 2 1 4.6-.6 6.3l-13.4 13.4 13.1 13.1 13.4-13.4c1.7-1.7 4.3-2 6.3-.6 7.1 4.7 14.9 7.9 23.2 9.6 2.3.5 4 2.5 4 4.9z" fill="#bb0b0b" data-original="#000000" class=""></path></g><g><path d="m347.6 378.6c-29.9 0-54.2-24.3-54.2-54.2s24.3-54.2 54.2-54.2 54.2 24.3 54.2 54.2-24.3 54.2-54.2 54.2zm0-98.4c-24.4 0-44.2 19.8-44.2 44.2s19.8 44.2 44.2 44.2 44.2-19.8 44.2-44.2-19.8-44.2-44.2-44.2z" fill="#bb0b0b" data-original="#000000" class=""></path></g><g><path d="m360.4 351.9c-1.7 0-3.5-.5-5-1.4l-7.7-4.5-7.7 4.5c-3.5 2-7.6 1.8-10.9-.5s-4.7-6.3-3.9-10.2l1.9-8.7-6.7-5.9c-3-2.6-4.1-6.7-2.9-10.5s4.5-6.4 8.5-6.8l8.9-.9 3.6-8.2c1.6-3.7 5.1-6 9.1-6s7.5 2.3 9.1 6l3.6 8.2 8.9.9c4 .4 7.2 3 8.5 6.8 1.2 3.8.1 7.8-2.9 10.5l-6.7 5.9 1.9 8.7c.9 3.9-.6 7.8-3.9 10.2-1.7 1.3-3.7 1.9-5.7 1.9zm-12.8-16.7c.9 0 1.8.2 2.5.7l10 5.9-2.5-11.4c-.4-1.8.2-3.6 1.6-4.8l8.8-7.7-11.6-1.1c-1.8-.2-3.4-1.3-4.1-3l-4.6-10.7-4.6 10.7c-.7 1.7-2.3 2.8-4.1 3l-11.6 1.1 8.8 7.7c1.4 1.2 2 3.1 1.6 4.8l-2.5 11.4 10-5.9c.6-.5 1.4-.7 2.3-.7z" fill="#bb0b0b" data-original="#000000" class=""></path></g></g></g></svg>