<svg xmlns="http://www.w3.org/2000/svg" version="1.1" xmlns:xlink="http://www.w3.org/1999/xlink" xmlns:svgjs="http://svgjs.com/svgjs" width="512" height="512" x="0" y="0" viewBox="0 0 512 512" style="enable-background:new 0 0 512 512" xml:space="preserve" class=""><g><path d="M332.4 390.5c-1.9-3.3-.8-7.6 2.5-9.5 3.3-2 7.6-.8 9.6 2.5l19.6 34 69.3-69.3c2.7-2.7 7.1-2.7 9.9 0 2.7 2.8 2.7 7.2 0 9.9l-75.7 75.7c-3.2 3.2-8.7 2.6-11-1.4zm56-104.3c20.7 0 40 5.9 56.3 16.2 16.5-61.5 4.3-127.9-33.8-179.5-2.3-3.1-1.6-7.5 1.4-9.8 3.1-2.3 7.5-1.6 9.8 1.4 41.8 56.5 54.4 129.6 34.6 196.6 47.3 40 50.4 111.9 6.5 155.8-43.4 43.4-114.4 40.9-154.7-5.3-28.6 8.9-58.7 11.9-88.4 9.1-27-2.6-53.6-10.1-78.5-22.5l12.6 22.9c1.8 3.4.6 7.6-2.8 9.5-3.4 1.8-7.6.6-9.5-2.8l-24.5-44.6c-2.5-4.6.7-10.7 6.7-10.3l50.4 1c3.9.1 6.9 3.3 6.9 7.1-.1 3.9-3.3 6.9-7.1 6.8l-23-.5c22.4 10.7 46.1 17.1 70.2 19.5 26.2 2.5 52.7.1 78.1-7.1-15.8-24.3-21.1-54.3-14-83.1-4.7 1.7-9.5 3.2-14.3 4.3v23.6c0 3.9-3.1 7-7 7h-44.9c-3.9 0-7-3.1-7-7V371c-13-3.1-25.5-8.3-36.9-15.3l-16.7 16.7c-2.7 2.8-7.2 2.8-9.9 0L117 340.6c-2.7-2.7-2.7-7.2 0-9.9l16.7-16.7c-7-11.4-12.2-23.8-15.3-36.9H94.9c-3.9 0-7-3.1-7-7v-44.9c0-3.9 3.1-7 7-7h23.6c3.1-13.1 8.3-25.5 15.3-36.9L117 164.6c-2.7-2.7-2.7-7.2 0-9.9l31.8-31.8c2.7-2.7 7.2-2.7 9.9 0l16.7 16.7c11.4-7 23.8-12.2 36.9-15.3v-23.6c0-3.9 3.1-7 7-7h44.9c3.9 0 7 3.1 7 7v23.6c13.1 3.1 25.5 8.3 36.9 15.3l16.7-16.7c2.7-2.7 7.2-2.7 9.9 0l31.8 31.8c2.7 2.7 2.7 7.1 0 9.9l-16.7 16.7c7 11.3 12.2 23.8 15.3 36.9h23.6c3.9 0 7 3.1 7 7v44.9c0 4-3.2 7.1-7.6 6.9h-23l-3.7 12.5c8.6-2.1 17.7-3.3 27-3.3zm-96.7 62.7c5.3-11.9 12.7-22.6 21.8-31.7 8.7-8.7 18.9-15.9 30.2-21.1 1.8-3.9 3.5-7.9 4.9-12.1 1.7-4.9 3-9.9 4-15.1.6-3.2 3.5-5.7 6.9-5.7h22.3v-31h-22.3c-3.3 0-6.2-2.3-6.9-5.7-1.4-7.6-3.7-15-6.6-22s-6.5-13.6-10.7-19.8c-2.1-2.8-1.9-6.7.6-9.2l15.7-15.7-21.9-21.9-15.7 15.7c-2.3 2.3-6 2.7-8.9.8-6.3-4.3-13.1-8-20.2-10.9-6.9-2.9-14.1-5-21.5-6.5-3.5-.4-6.2-3.4-6.2-6.9v-22.3h-31v21.9c.2 3.5-2.2 6.6-5.7 7.3-7.7 1.4-15 3.7-22 6.6s-13.6 6.5-19.9 10.7c-2.7 2.1-6.7 1.9-9.2-.6L153.7 138l-21.9 21.9 15.7 15.7c2.3 2.3 2.7 6 .8 8.9-4.3 6.3-8 13.1-10.9 20.2-2.8 6.9-5 14.1-6.5 21.5-.4 3.5-3.3 6.2-6.9 6.2h-22.3v30.9H124c3.3 0 6.2 2.4 6.9 5.7 1.4 7.7 3.7 15 6.6 22s6.5 13.6 10.7 19.8c2.1 2.7 1.9 6.7-.6 9.2l-15.7 15.7 21.9 21.9 15.7-15.7c2.3-2.3 6-2.7 8.9-.8 6.3 4.3 13.1 8 20.2 10.9 6.9 2.8 14.1 5 21.6 6.5 3.5.4 6.2 3.3 6.2 6.9v22.3h30.9v-22.3c0-3.3 2.4-6.2 5.7-6.9 10-1.9 19.6-5.2 28.7-9.6zm161.7-21.8c-35.9-35.9-94.1-35.9-130 0s-35.9 94.1 0 130 94.1 35.9 130 0c35.8-35.9 35.8-94.1 0-130zm-124-302.7c-1.8-3.4-.6-7.6 2.8-9.5 3.4-1.8 7.6-.6 9.5 2.7l24.5 44.6c2.5 4.6-.7 10.7-6.7 10.3l-50.5-1c-3.8-.1-6.9-3.3-6.8-7.1s3.3-6.9 7.1-6.8l23 .5c-39.2-18.7-83.1-24.6-125.4-17.5-97.3 16.2-170.5 98.7-175 197.6-2.1 47.3 11.7 94.9 40.8 134.4 2.3 3.1 1.6 7.5-1.4 9.8-3.1 2.3-7.5 1.6-9.8-1.4-31.1-42-45.8-92.9-43.6-143.3C22.7 132 100.8 44 204.6 26.7 251 19 299.3 26 342 47.3zm-87.6 153.9c38.3 0 69.3 31 69.3 69.3s-31.1 69.3-69.3 69.3c-38.3 0-69.4-31-69.4-69.3 0-38.2 31.1-69.3 69.4-69.3zm39.1 30.3c-21.6-21.6-56.7-21.6-78.3 0s-21.6 56.6 0 78.3c21.6 21.6 56.7 21.6 78.3 0 21.6-21.7 21.6-56.7 0-78.3z" fill="#bb0b0b" data-original="#000000" opacity="1" class=""></path></g></svg>