<svg xmlns="http://www.w3.org/2000/svg" version="1.1" xmlns:xlink="http://www.w3.org/1999/xlink" width="512" height="512" x="0" y="0" viewBox="0 0 512 512" style="enable-background:new 0 0 512 512" xml:space="preserve" class=""><g><path d="M45.683 165.529A223.847 223.847 0 0 1 139.379 58.9 232.158 232.158 0 0 1 263.7 27.364l-6.387-6.432a7 7 0 1 1 9.935-9.864l20 20.147a7 7 0 0 1-.288 10.137L266.141 60.07a7 7 0 0 1-9.36-10.41l9.123-8.2C175.753 37.981 93.346 89.007 58.571 171a7 7 0 1 1-12.888-5.467Zm125.522 287.564A214.6 214.6 0 0 1 41.555 250.67l8.276 8.619a7 7 0 0 0 10.1-9.7L40.536 229.4a7 7 0 0 0-5.049-2.151h-.031a7 7 0 0 0-5.061 2.2L10.916 250.1a7 7 0 0 0 10.184 9.6l6.405-6.793a228.544 228.544 0 0 0 138.159 213.041 7 7 0 0 0 5.541-12.855ZM462.112 337.15a7 7 0 0 0-9.2 3.651A214.131 214.131 0 0 1 250.387 470.45l8.641-8.263a7 7 0 0 0-9.675-10.118l-20.235 19.35a7 7 0 0 0 .025 10.141l20.613 19.522a7 7 0 0 0 9.627-10.164L252.6 484.5c1.164.017 2.33.041 3.492.041a228.117 228.117 0 0 0 209.67-138.184 7 7 0 0 0-3.65-9.207Zm38.858-79.165a7 7 0 0 0-9.9-.057l-6.574 6.5a228.341 228.341 0 0 0-29.033-122.514 222.837 222.837 0 0 0-102.251-94 7 7 0 0 0-5.822 12.732C426.667 96.9 475.13 178.659 470.37 266.3l-8.026-8.967a7 7 0 1 0-10.432 9.336l18.673 20.862a6.994 6.994 0 0 0 5 2.329h.214a7 7 0 0 0 4.921-2.021l20.19-19.959a7 7 0 0 0 .06-9.895ZM236.657 426.226a21.716 21.716 0 0 1-21.691-21.691v-24.672a130.361 130.361 0 0 1-17.422-7.225l-17.453 17.452a21.733 21.733 0 0 1-30.675 0l-27.5-27.5a21.719 21.719 0 0 1 0-30.676l17.452-17.452a130.029 130.029 0 0 1-7.226-17.423h-24.67a21.715 21.715 0 0 1-21.691-21.69v-38.887a21.716 21.716 0 0 1 21.691-21.691h24.671a130.138 130.138 0 0 1 7.226-17.423L121.918 179.9a21.733 21.733 0 0 1 0-30.674l27.5-27.5a21.732 21.732 0 0 1 30.675 0l17.452 17.452a130.317 130.317 0 0 1 17.422-7.227v-24.674a21.715 21.715 0 0 1 21.691-21.691h38.889a21.715 21.715 0 0 1 21.69 21.691v24.67a130.439 130.439 0 0 1 17.423 7.227l17.452-17.451a21.712 21.712 0 0 1 30.674 0l27.5 27.5a21.73 21.73 0 0 1 0 30.674l-17.452 17.453a130.317 130.317 0 0 1 7.227 17.422h24.67a21.716 21.716 0 0 1 21.692 21.691v38.889a21.716 21.716 0 0 1-21.692 21.69h-24.67a130.33 130.33 0 0 1-7.227 17.423l17.452 17.452a21.732 21.732 0 0 1 0 30.675l-27.5 27.5a21.732 21.732 0 0 1-30.674 0l-17.452-17.451a130.138 130.138 0 0 1-17.423 7.226v24.671a21.715 21.715 0 0 1-21.69 21.691Zm0-14h38.889a7.7 7.7 0 0 0 7.69-7.691V374.7a7 7 0 0 1 5.07-6.728 115.99 115.99 0 0 0 24.255-10.061 7 7 0 0 1 8.345 1.172l21.1 21.1a7.733 7.733 0 0 0 10.876 0l27.5-27.5a7.7 7.7 0 0 0 0-10.877l-21.1-21.1a7 7 0 0 1-1.172-8.345 116.062 116.062 0 0 0 10.06-24.256 7 7 0 0 1 6.728-5.069h29.831a7.7 7.7 0 0 0 7.692-7.69v-38.884a7.7 7.7 0 0 0-7.692-7.691H374.9a7 7 0 0 1-6.728-5.07 116.084 116.084 0 0 0-10.06-24.256 7 7 0 0 1 1.172-8.345l21.1-21.1a7.7 7.7 0 0 0 0-10.877l-27.5-27.5a7.7 7.7 0 0 0-10.877 0l-21.1 21.1a7 7 0 0 1-8.344 1.171 116.119 116.119 0 0 0-24.256-10.06 7 7 0 0 1-5.07-6.729v-29.83a7.7 7.7 0 0 0-7.69-7.691h-38.89a7.7 7.7 0 0 0-7.691 7.691v29.831a7 7 0 0 1-5.07 6.729 116.1 116.1 0 0 0-24.255 10.065 7 7 0 0 1-8.345-1.171l-21.1-21.1a7.736 7.736 0 0 0-10.876 0l-27.5 27.5a7.737 7.737 0 0 0 0 10.877l21.1 21.1a7 7 0 0 1 1.172 8.345 115.99 115.99 0 0 0-10.061 24.249 7 7 0 0 1-6.728 5.07h-29.831a7.7 7.7 0 0 0-7.691 7.691v38.889a7.7 7.7 0 0 0 7.691 7.69H137.3a7 7 0 0 1 6.728 5.069 115.952 115.952 0 0 0 10.06 24.255 7 7 0 0 1-1.171 8.346l-21.1 21.1a7.7 7.7 0 0 0 0 10.878l27.5 27.5a7.732 7.732 0 0 0 10.876 0l21.1-21.1a7 7 0 0 1 8.345-1.171 116.172 116.172 0 0 0 24.262 10.06 7 7 0 0 1 5.069 6.727v29.831a7.7 7.7 0 0 0 7.688 7.691Zm19.443-64.983a91.338 91.338 0 1 1 91.337-91.338 91.44 91.44 0 0 1-91.337 91.338Zm0-14a77.338 77.338 0 1 0-77.337-77.338 77.425 77.425 0 0 0 77.337 77.338Z" fill="#bb0b0b" opacity="1" data-original="#000000" class=""></path></g></svg>