<svg xmlns="http://www.w3.org/2000/svg" version="1.1" xmlns:xlink="http://www.w3.org/1999/xlink" xmlns:svgjs="http://svgjs.com/svgjs" width="512" height="512" x="0" y="0" viewBox="0 0 60 60" style="enable-background:new 0 0 512 512" xml:space="preserve" class=""><g><path d="M55 4h-2V3a3 3 0 0 0-6 0v1h-4V3a3 3 0 0 0-6 0v1h-4V3a3 3 0 0 0-6 0v1h-4V3a3 3 0 0 0-6 0v1h-4V3a3 3 0 0 0-6 0v1H5a5.006 5.006 0 0 0-5 5v46a5.006 5.006 0 0 0 5 5h50a5.006 5.006 0 0 0 5-5V9a5.006 5.006 0 0 0-5-5Zm-6-1a1 1 0 0 1 2 0v4a1 1 0 0 1-2 0ZM39 3a1 1 0 0 1 2 0v4a1 1 0 0 1-2 0ZM29 3a1 1 0 0 1 2 0v4a1 1 0 0 1-2 0ZM19 3a1 1 0 0 1 2 0v4a1 1 0 0 1-2 0ZM9 3a1 1 0 0 1 2 0v4a1 1 0 0 1-2 0Zm49 52a3 3 0 0 1-3 3H5a3 3 0 0 1-3-3V14h56Zm0-43H2V9a3 3 0 0 1 3-3h2v1a3 3 0 0 0 6 0V6h4v1a3 3 0 0 0 6 0V6h4v1a3 3 0 0 0 6 0V6h4v1a3 3 0 0 0 6 0V6h4v1a3 3 0 0 0 6 0V6h2a3 3 0 0 1 3 3Z" fill="#000000" data-original="#000000"></path><path d="M18 49a13.015 13.015 0 0 0 13-13 11 11 0 1 1 11.436 10.978l1.271-1.271a1 1 0 0 0-1.414-1.414l-3 3a1 1 0 0 0 0 1.414l3 3a1 1 0 0 0 1.414-1.414l-1.313-1.313A12.993 12.993 0 1 0 29 36a11 11 0 1 1-11.436-10.978l-1.271 1.271a1 1 0 1 0 1.414 1.414l3-3a1 1 0 0 0 0-1.414l-3-3a1 1 0 0 0-1.414 1.414l1.313 1.313A12.993 12.993 0 0 0 18 49Z" fill="#000000" data-original="#000000"></path></g></svg>