<svg xmlns="http://www.w3.org/2000/svg" version="1.1" xmlns:xlink="http://www.w3.org/1999/xlink" xmlns:svgjs="http://svgjs.com/svgjs" width="512" height="512" x="0" y="0" viewBox="0 0 512 512" style="enable-background:new 0 0 512 512" xml:space="preserve" class=""><g><path d="M402.89 123.018v282.449c0 15.135-12.276 27.411-27.411 27.411H161.496c-15.135 0-27.411-12.276-27.411-27.411v-54.17h41.369c22.765 0 41.215-18.449 41.215-41.214V95.607h158.81c15.135 0 27.411 12.276 27.411 27.411z" style="stroke-width:15;stroke-linecap:round;stroke-linejoin:round;stroke-miterlimit:10;" fill="none" stroke="#ffffff" stroke-width="15" stroke-linecap="round" stroke-linejoin="round" stroke-miterlimit="10" data-original="#000000" class=""></path><path d="M357.818 143.246h-17.491c-8.227 0-14.896 6.669-14.896 14.896v17.491c0 8.227 6.669 14.896 14.896 14.896h17.491c8.227 0 14.896-6.669 14.896-14.896v-17.491c0-8.227-6.669-14.896-14.896-14.896zM279.855 143.246h-17.491c-8.227 0-14.896 6.669-14.896 14.896v17.491c0 8.227 6.669 14.896 14.896 14.896h17.491c8.227 0 14.896-6.669 14.896-14.896v-17.491c0-8.227-6.669-14.896-14.896-14.896zM357.818 239.601h-17.491c-8.227 0-14.896 6.669-14.896 14.896v17.491c0 8.227 6.669 14.896 14.896 14.896h17.491c8.227 0 14.896-6.669 14.896-14.896v-17.491c0-8.227-6.669-14.896-14.896-14.896zM279.855 239.601h-17.491c-8.227 0-14.896 6.669-14.896 14.896v17.491c0 8.227 6.669 14.896 14.896 14.896h17.491c8.227 0 14.896-6.669 14.896-14.896v-17.491c0-8.227-6.669-14.896-14.896-14.896zM357.818 335.956h-17.491c-8.227 0-14.896 6.669-14.896 14.896v17.491c0 8.227 6.669 14.896 14.896 14.896h17.491c8.227 0 14.896-6.669 14.896-14.896v-17.491c0-8.227-6.669-14.896-14.896-14.896zM279.855 335.956h-17.491c-8.227 0-14.896 6.669-14.896 14.896v17.491c0 8.227 6.669 14.896 14.896 14.896h17.491c8.227 0 14.896-6.669 14.896-14.896v-17.491c0-8.227-6.669-14.896-14.896-14.896zM237.677 468.331h61.621M250.677 70.226h35.621" style="stroke-width:15;stroke-linecap:round;stroke-linejoin:round;stroke-miterlimit:10;" fill="none" stroke="#ffffff" stroke-width="15" stroke-linecap="round" stroke-linejoin="round" stroke-miterlimit="10" data-original="#000000" class=""></path><path d="M454.511 327.317V100.16c0-31.024-25.15-56.174-56.174-56.174H216.669v266.098c0 22.765-18.449 41.214-41.214 41.214h-41.37c-42.298 0-76.596 34.297-76.596 76.596 0 21.154 8.569 40.306 22.435 54.171C93.79 495.93 112.931 504.5 134.085 504.5h264.251c31.024 0 56.174-25.15 56.174-56.174v-91.008" style="stroke-width:15;stroke-linecap:round;stroke-linejoin:round;stroke-miterlimit:10;" fill="none" stroke="#ffffff" stroke-width="15" stroke-linecap="round" stroke-linejoin="round" stroke-miterlimit="10" data-original="#000000" class=""></path><path d="M57.489 181.331v246.563c0-42.299 34.297-76.596 76.596-76.596h41.37c22.765 0 41.214-18.449 41.214-41.214V43.986c0-20.153-16.333-36.486-36.486-36.486h-46.098c-42.298 0-76.596 34.297-76.596 76.596v67.235" style="stroke-width:15;stroke-linecap:round;stroke-linejoin:round;stroke-miterlimit:10;" fill="none" stroke="#ffffff" stroke-width="15" stroke-linecap="round" stroke-linejoin="round" stroke-miterlimit="10" data-original="#000000" class=""></path></g></svg>