<svg xmlns="http://www.w3.org/2000/svg" version="1.1" xmlns:xlink="http://www.w3.org/1999/xlink" xmlns:svgjs="http://svgjs.com/svgjs" width="512" height="512" x="0" y="0" viewBox="0 0 512 512" style="enable-background:new 0 0 512 512" xml:space="preserve" class=""><g><path d="m509.421 196.955-94.575-82.038a7.479 7.479 0 0 0-12.38 5.649v42.715l-37.826.012-.171-.004c-25.662-.568-50.379 5.557-72.148 17.576V109.06h46.818a7.478 7.478 0 0 0 5.584-12.454L261.591 3.278a7.48 7.48 0 0 0-11.172 0l-83.132 93.33a7.48 7.48 0 0 0 5.584 12.454h46.818v32.93a7.479 7.479 0 0 0 14.958 0v-40.409a7.479 7.479 0 0 0-7.479-7.479h-37.62l66.454-74.606 66.454 74.606h-37.618a7.479 7.479 0 0 0-7.479 7.479v88.82a143.293 143.293 0 0 0-15.031 12.621c-11.451 11.042-20.731 23.537-27.678 37.134v-68.249a7.479 7.479 0 0 0-14.958 0v104.998c-21.761-12.025-46.465-18.154-72.138-17.577l-.181.004-37.841-.012v-42.715a7.477 7.477 0 0 0-12.38-5.649L2.579 292.995C.94 294.415 0 296.476 0 298.644s.94 4.229 2.579 5.649l29.129 25.267a7.48 7.48 0 0 0 9.802-11.3l-22.616-19.618 75.682-65.649v33.803a7.479 7.479 0 0 0 7.477 7.479l45.407.015.143-.001.257-.006c34.399-.75 66.872 11.867 91.427 35.547 24.289 23.422 37.774 54.686 38.062 88.139v17.728a7.479 7.479 0 0 0 7.479 7.479h.014a7.479 7.479 0 0 0 7.479-7.479v-16.636c0-.365-.011-.728-.014-1.093v-94.946c0-18.415 7.356-35.649 20.712-48.53 13.351-12.875 30.985-19.763 49.698-19.355.053.001.106.009.16.001l39.589-.015v49.518a7.478 7.478 0 0 0 12.38 5.649l94.575-82.038a7.478 7.478 0 0 0 0-11.297zm-91.996 71.299v-40.611a7.48 7.48 0 0 0-7.479-7.479h-.003l-46.992.018c-22.653-.436-44.095 7.904-60.316 23.545-16.307 15.725-25.287 36.783-25.287 59.297v33.298c-6.962-13.658-16.249-26.236-27.678-37.258a143.806 143.806 0 0 0-14.029-11.891c3.553-28.059 16.325-53.374 37.073-73.382 24.555-23.68 57.016-36.326 91.507-35.544l.131.003c.063.002.132.008.19.003l45.407-.015a7.48 7.48 0 0 0 7.477-7.479v-33.803l75.681 65.649-75.682 65.649z" fill="#bb0b0b" data-original="#000000" opacity="1" class=""></path><path d="M284.841 438.136a7.479 7.479 0 0 0-7.479 7.479v50.652h-42.711v-97.205c0-22.514-8.98-43.572-25.287-59.297-16.219-15.64-37.661-24.005-60.315-23.545l-46.993-.018h-.003a7.48 7.48 0 0 0-7.479 7.479v40.612l-30.46-26.422a7.48 7.48 0 0 0-9.802 11.3l42.839 37.161a7.479 7.479 0 0 0 12.38-5.649v-49.518l39.588.015c.06.007.107 0 .16-.001 18.701-.39 36.348 6.481 49.699 19.356 13.356 12.878 20.712 30.114 20.712 48.529v104.684a7.479 7.479 0 0 0 7.479 7.479h57.669a7.479 7.479 0 0 0 7.479-7.479v-58.133a7.474 7.474 0 0 0-7.476-7.479z" fill="#bb0b0b" data-original="#000000" opacity="1" class=""></path></g></svg>