<svg xmlns="http://www.w3.org/2000/svg" version="1.1" xmlns:xlink="http://www.w3.org/1999/xlink" xmlns:svgjs="http://svgjs.com/svgjs" width="50" height="50" x="0" y="0" viewBox="0 0 682.667 682.667" style="enable-background:new 0 0 512 512" xml:space="preserve" class=""><g><defs><clipPath id="a" clipPathUnits="userSpaceOnUse"><path d="M0 512h512V0H0Z" fill="#bb0b0b" data-original="#bb0b0b"></path></clipPath></defs><g clip-path="url(#a)" transform="matrix(1.33333 0 0 -1.33333 0 682.667)"><path d="M0 0v-44.203a5.32 5.32 0 0 0-1.643-3.844L-23.32-68.766a5.315 5.315 0 0 0-7.433.084l-20.649 20.648a5.318 5.318 0 0 0-1.557 3.76V0c0 4.387-4.8 7.072-8.551 4.797-20.332-12.33-33.65-35.069-32.557-60.827 1.509-35.592 31.003-64.202 66.623-64.699 37.804-.526 68.615 29.961 68.615 67.645 0 24.54-13.068 46.026-32.625 57.884C4.797 7.073 0 4.384 0 0Z" style="stroke-width:15;stroke-linecap:round;stroke-linejoin:round;stroke-miterlimit:10;stroke-dasharray:none;stroke-opacity:1" transform="translate(282.48 335.327)" fill="none" stroke="#bb0b0b" stroke-width="15" stroke-linecap="round" stroke-linejoin="round" stroke-miterlimit="10" stroke-dasharray="none" stroke-opacity="" data-original="#bb0b0b"></path><path d="M0 0v-22.305" style="stroke-width:15;stroke-linecap:round;stroke-linejoin:round;stroke-miterlimit:10;stroke-dasharray:none;stroke-opacity:1" transform="translate(230.204 154.806)" fill="none" stroke="#bb0b0b" stroke-width="15" stroke-linecap="round" stroke-linejoin="round" stroke-miterlimit="10" stroke-dasharray="none" stroke-opacity="" data-original="#bb0b0b"></path><path d="M0 0v-29.949" style="stroke-width:15;stroke-linecap:round;stroke-linejoin:round;stroke-miterlimit:10;stroke-dasharray:none;stroke-opacity:1" transform="translate(230.204 219.755)" fill="none" stroke="#bb0b0b" stroke-width="15" stroke-linecap="round" stroke-linejoin="round" stroke-miterlimit="10" stroke-dasharray="none" stroke-opacity="" data-original="#bb0b0b"></path><path d="M0 0v87.185" style="stroke-width:15;stroke-linecap:round;stroke-linejoin:round;stroke-miterlimit:10;stroke-dasharray:none;stroke-opacity:1" transform="translate(281.796 132.501)" fill="none" stroke="#bb0b0b" stroke-width="15" stroke-linecap="round" stroke-linejoin="round" stroke-miterlimit="10" stroke-dasharray="none" stroke-opacity="" data-original="#bb0b0b"></path><path d="M0 0v-49.949" style="stroke-width:15;stroke-linecap:round;stroke-linejoin:round;stroke-miterlimit:10;stroke-dasharray:none;stroke-opacity:1" transform="translate(256 179.806)" fill="none" stroke="#bb0b0b" stroke-width="15" stroke-linecap="round" stroke-linejoin="round" stroke-miterlimit="10" stroke-dasharray="none" stroke-opacity="" data-original="#bb0b0b"></path><path d="M0 0c-21.368 16.626-48.223 26.533-77.395 26.533-69.667 0-126.142-56.476-126.142-126.143 0-69.666 56.475-126.142 126.142-126.142S48.749-169.276 48.749-99.61c0 27.873-9.047 53.628-24.355 74.506" style="stroke-width:15;stroke-linecap:round;stroke-linejoin:round;stroke-miterlimit:10;stroke-dasharray:none;stroke-opacity:1" transform="translate(333.394 355.61)" fill="none" stroke="#bb0b0b" stroke-width="15" stroke-linecap="round" stroke-linejoin="round" stroke-miterlimit="10" stroke-dasharray="none" stroke-opacity="" data-original="#bb0b0b"></path><path d="m0 0-12.382-12.382a14.167 14.167 0 0 1-1.128-18.764l30.649-39.065c2.596-3.31 3.03-7.798 1.205-11.587a186.808 186.808 0 0 1-7.932-19.094c-1.416-4.022-4.945-6.925-9.178-7.436l-49.173-5.937a14.168 14.168 0 0 1-12.471-14.066v-70.021a14.167 14.167 0 0 1 12.471-14.066l49.173-5.937c4.233-.511 7.762-3.414 9.178-7.436a186.808 186.808 0 0 1 7.932-19.094c1.825-3.789 1.391-8.278-1.205-11.587l-30.649-39.065a14.169 14.169 0 0 1 1.128-18.765l49.512-49.512a14.169 14.169 0 0 1 18.765-1.128l39.065 30.649c3.309 2.596 7.798 3.03 11.587 1.205a187.266 187.266 0 0 1 19.094-7.933c4.022-1.415 6.925-4.943 7.436-9.177l5.937-49.174a14.168 14.168 0 0 1 14.066-12.47h70.021a14.168 14.168 0 0 1 14.066 12.47l5.937 49.174c.511 4.234 3.414 7.762 7.436 9.177a187.155 187.155 0 0 1 19.093 7.933c3.79 1.825 8.279 1.391 11.588-1.205l39.065-30.649a14.167 14.167 0 0 1 18.764 1.128l49.512 49.512a14.169 14.169 0 0 1 1.129 18.765l-30.649 39.065c-2.596 3.309-3.031 7.798-1.205 11.587a187.034 187.034 0 0 1 7.932 19.094c1.416 4.022 4.944 6.925 9.177 7.436l49.174 5.937a14.167 14.167 0 0 1 12.47 14.066v70.021a14.168 14.168 0 0 1-12.47 14.066l-49.174 5.937c-4.233.511-7.761 3.414-9.177 7.436a187.034 187.034 0 0 1-7.932 19.094c-1.826 3.789-1.391 8.277 1.205 11.587l30.649 39.065a14.167 14.167 0 0 1-1.129 18.764L339.05 37.13a14.168 14.168 0 0 1-18.764 1.129L281.221 7.61c-3.309-2.596-7.798-3.031-11.588-1.205a186.923 186.923 0 0 1-19.093 7.932c-4.022 1.415-6.925 4.944-7.436 9.177l-5.937 49.174a14.168 14.168 0 0 1-14.066 12.47H153.08a14.168 14.168 0 0 1-14.066-12.47l-5.937-49.174c-.511-4.233-3.414-7.762-7.436-9.177a187.034 187.034 0 0 1-19.094-7.932c-3.789-1.826-8.278-1.391-11.587 1.205L55.895 38.259A14.169 14.169 0 0 1 37.13 37.13L24.749 24.749" style="stroke-width:15;stroke-linecap:round;stroke-linejoin:round;stroke-miterlimit:10;stroke-dasharray:none;stroke-opacity:1" transform="translate(67.91 419.342)" fill="none" stroke="#bb0b0b" stroke-width="15" stroke-linecap="round" stroke-linejoin="round" stroke-miterlimit="10" stroke-dasharray="none" stroke-opacity="" data-original="#bb0b0b"></path></g></g></svg>