<svg xmlns="http://www.w3.org/2000/svg" version="1.1" xmlns:xlink="http://www.w3.org/1999/xlink" width="512" height="512" x="0" y="0" viewBox="0 0 512 512" style="enable-background:new 0 0 512 512" xml:space="preserve" class=""><g><path fill="#5d689e" d="M196.151 408.647h102.668v66.798H196.151z" opacity="1" data-original="#5d689e"></path><path fill="#495586" d="M283.51 408.647h15.309v66.798H283.51z" opacity="1" data-original="#495586"></path><path fill="#7986bf" fill-rule="evenodd" d="M170.328 465.862h154.314c15.612 0 28.344 12.735 28.344 28.343v6.878h-211v-6.878c0-15.611 12.732-28.343 28.343-28.343z" opacity="1" data-original="#7986bf"></path><path fill="#909cd1" fill-rule="evenodd" d="M170.328 465.862h136.32c15.611 0 28.343 12.735 28.343 28.343v6.878H141.986v-6.878c0-15.611 12.732-28.343 28.343-28.343z" opacity="1" data-original="#909cd1"></path><rect width="466.421" height="324.811" x="14.275" y="94.911" fill="#b6dbff" rx="17.34" opacity="1" data-original="#b6dbff" class=""></rect><path fill="#f3f3ff" d="M43.901 124.537h407.17v249.404H43.901z" opacity="1" data-original="#f3f3ff" class=""></path><circle cx="146.24" cy="302.386" r="17.058" fill="#2a93fc" transform="rotate(-80.8 146.189 302.396)" opacity="1" data-original="#2a93fc"></circle><path fill="#f23353" fill-rule="evenodd" d="M177.095 243.77c0-9.421 7.637-17.059 17.058-17.059s17.058 7.638 17.058 17.059-7.637 17.058-17.058 17.058-17.058-7.637-17.058-17.058z" opacity="1" data-original="#f23353"></path><circle cx="348.732" cy="302.386" r="17.058" fill="#fdc72e" transform="rotate(-45 348.704 302.473)" opacity="1" data-original="#fdc72e"></circle><g fill-rule="evenodd"><path fill="#2dd62d" d="M317.878 243.77c0-9.421-7.638-17.059-17.059-17.059s-17.058 7.638-17.058 17.059 7.637 17.058 17.058 17.058 17.059-7.637 17.059-17.058z" opacity="1" data-original="#2dd62d"></path><path fill="#4eb1fc" d="M129.182 302.386c0-7.727 5.138-14.252 12.183-16.35 7.045 2.098 12.183 8.623 12.183 16.35s-5.138 14.252-12.183 16.35c-7.045-2.098-12.183-8.623-12.183-16.35z" opacity="1" data-original="#4eb1fc"></path><path fill="#ff5471" d="M177.095 243.77c0-7.727 5.138-14.253 12.183-16.35 7.045 2.098 12.183 8.624 12.183 16.35s-5.138 14.252-12.183 16.35c-7.045-2.098-12.183-8.623-12.183-16.35z" opacity="1" data-original="#ff5471"></path><path fill="#fcdb35" d="M343.857 286.036c-7.045 2.098-12.183 8.623-12.183 16.35s5.138 14.252 12.183 16.35c7.045-2.098 12.183-8.623 12.183-16.35s-5.138-14.252-12.183-16.35z" opacity="1" data-original="#fcdb35" class=""></path><path fill="#43f043" d="M295.944 227.42c-7.045 2.098-12.183 8.624-12.183 16.35s5.138 14.252 12.183 16.35c7.046-2.098 12.184-8.623 12.184-16.35s-5.138-14.253-12.184-16.35z" opacity="1" data-original="#43f043" class=""></path></g><path fill="#4eb1fc" d="M397.456 148.007H427.6v30.145h-30.144z" opacity="1" data-original="#4eb1fc"></path><path fill="#fcdb35" d="M406.699 24.563h36.132v36.132h-36.132z" opacity="1" data-original="#fcdb35" class=""></path><path fill="#ff5471" d="M451.071 77.879h46.658v46.658h-46.658z" opacity="1" data-original="#ff5471"></path><path fill="#2a93fc" d="M419.156 148.007h8.444v30.145h-8.444z" opacity="1" data-original="#2a93fc"></path><path fill="#f23353" d="M486.842 77.879h10.887v46.658h-10.887z" opacity="1" data-original="#f23353"></path><path fill="#fdc72e" d="M434.387 24.563h8.444v36.132h-8.444z" opacity="1" data-original="#fdc72e"></path><path fill="#f9ac00" fill-rule="evenodd" d="m290.873 38.313 14.666-9.836 23.194 23.193-9.836 14.667 9.765 23.571 17.324 3.416v32.8l-17.324 3.415-9.765 23.572 9.836 14.666-23.194 23.193-14.666-9.836-23.571 9.766-3.416 17.324h-32.8L227.67 190.9l-23.571-9.766-14.666 9.836-23.194-23.193 9.836-14.666-9.765-23.572-17.324-3.415v-32.8l17.324-3.416 9.765-23.571-9.836-14.667 23.194-23.193 14.666 9.836 23.571-9.766 3.416-17.323h32.8l3.416 17.323z" opacity="1" data-original="#f9ac00" class=""></path><path fill="#fcdb35" fill-rule="evenodd" d="m290.873 38.313 8.331-5.587 18.945 18.944-9.835 14.667 9.765 23.571 17.324 3.416v32.8l-17.324 3.416-9.765 23.571 9.835 14.667-18.944 18.944-8.332-5.588-.001.001-8.575-5.751-24.522 10.16-4.472 22.68h-22.217L227.67 190.9l-23.57-9.766-.001.001-8.773-3.634-11.59 7.772-17.496-17.496 9.835-14.666-9.765-23.571-17.324-3.416v-32.8l17.324-3.416 9.765-23.571-9.835-14.667 17.496-17.495 11.59 7.772 8.773-3.634 23.571-9.766 3.416-17.323h22.217l4.472 22.68 24.522 10.16z" opacity="1" data-original="#fcdb35" class=""></path><circle cx="238.415" cy="109.724" r="50.514" fill="#f9ac00" transform="rotate(-22.48 238.291 109.533)" opacity="1" data-original="#f9ac00" class=""></circle><circle cx="247.486" cy="109.724" r="50.514" fill="#f3f3ff" transform="rotate(-80.8 247.46 109.757)" opacity="1" data-original="#f3f3ff" class=""></circle><path fill-rule="evenodd" d="M490.729 117.46h-32.656V84.8h32.656zM473.705 402.3V131.462h-15.631v242.4a6.996 6.996 0 0 1-7.004 6.999H43.901a6.993 6.993 0 0 1-6.999-6.999V124.464a6.997 6.997 0 0 1 6.999-7.004h97.939v-15.627H31.61c-5.697 0-10.339 4.637-10.339 10.339V402.3c0 5.702 4.642 10.339 10.339 10.339h431.751c5.702 0 10.344-4.637 10.344-10.339zm-181.802 56.433h-88.828v-32.092h88.828zm54.25 35.268H148.824c.058-11.742 9.626-21.271 21.387-21.271h154.55c11.761 0 21.333 9.529 21.391 21.271zM155.842 98.97l14.19-2.791a7.034 7.034 0 0 0 5.119-4.189l8.71-21.001a6.998 6.998 0 0 0-.66-6.579l-8.059-12.016 15.091-15.092 12.016 8.059a6.984 6.984 0 0 0 6.584.651l20.996-8.71a6.97 6.97 0 0 0 4.194-5.109l2.8-14.195h21.329l2.8 14.195a7.003 7.003 0 0 0 4.189 5.109l21.001 8.71a6.973 6.973 0 0 0 6.579-.651l12.021-8.059 15.092 15.092-8.064 12.016a6.985 6.985 0 0 0-.651 6.579l8.715 21.001a6.987 6.987 0 0 0 5.109 4.189l14.185 2.791v21.343l-14.185 2.801a6.943 6.943 0 0 0-5.109 4.189l-8.715 21.001a6.988 6.988 0 0 0 .651 6.579l8.064 12.021-15.092 15.087-12.021-8.069a7.029 7.029 0 0 0-6.579-.651l-21.001 8.71a7.039 7.039 0 0 0-4.189 5.109l-2.8 14.19h-21.329l-2.8-14.19a7 7 0 0 0-4.194-5.109l-20.996-8.71a7.034 7.034 0 0 0-6.584.651l-12.016 8.069-15.091-15.087 8.059-12.021a7.001 7.001 0 0 0 .66-6.579l-8.71-21.001a6.995 6.995 0 0 0-5.119-4.189l-14.19-2.801zm288.229 18.49h-90.94v-15.627h90.94zM156.3 302.313c0 5.538-4.507 10.05-10.06 10.05s-10.059-4.512-10.059-10.05 4.512-10.059 10.059-10.059 10.06 4.507 10.06 10.059zm37.852-48.562c-5.538 0-10.06-4.521-10.06-10.06s4.521-10.059 10.06-10.059 10.059 4.507 10.059 10.059-4.512 10.06-10.059 10.06zm96.608-10.06c0-5.552 4.512-10.059 10.06-10.059s10.059 4.507 10.059 10.059-4.507 10.06-10.059 10.06-10.06-4.521-10.06-10.06zm47.911 58.621c0-5.552 4.521-10.059 10.059-10.059s10.059 4.507 10.059 10.059-4.507 10.05-10.059 10.05-10.059-4.512-10.059-10.05zm-12.961 6.999c3.012 9.862 12.19 17.049 23.02 17.049 13.27 0 24.062-10.787 24.062-24.048S362 278.25 348.73 278.25c-10.831 0-20.008 7.191-23.02 17.058h-34.189a7.002 7.002 0 0 0-6.999 7.003v64.55h-15.361v-81.622l20.341-20.331a23.845 23.845 0 0 0 11.318 2.844c13.265 0 24.062-10.802 24.062-24.062s-10.797-24.062-24.062-24.062-24.057 10.792-24.057 24.062c0 4.088 1.031 7.939 2.839 11.318l-22.38 22.384a7.002 7.002 0 0 0-2.063 4.95v84.519h-15.347v-84.519c0-1.851-.742-3.63-2.049-4.95l-22.394-22.384a23.875 23.875 0 0 0 2.844-11.318c0-13.269-10.792-24.062-24.062-24.062s-24.062 10.792-24.062 24.062 10.802 24.062 24.062 24.062c4.087 0 7.948-1.031 11.317-2.844l20.341 20.331v81.622h-15.357v-64.55a7.006 7.006 0 0 0-7.003-7.003h-34.188c-3.008-9.867-12.19-17.058-23.021-17.058-13.27 0-24.057 10.792-24.057 24.062s10.787 24.048 24.057 24.048c10.831 0 20.013-7.187 23.021-17.049h27.19v57.551H50.9v-235.4h93.499a6.995 6.995 0 0 0 3.09 1.47l16.162 3.191 5.842 14.069-9.182 13.689a7.009 7.009 0 0 0 .863 8.85l23.228 23.233a7.014 7.014 0 0 0 8.85.858l13.679-9.182 14.084 5.842 3.176 16.162a7.01 7.01 0 0 0 6.873 5.64h32.849a7.005 7.005 0 0 0 6.869-5.64l3.181-16.162 14.079-5.842 13.679 9.182a7.011 7.011 0 0 0 8.85-.858l23.232-23.233a7.013 7.013 0 0 0 .858-8.85l-9.177-13.689 5.837-14.069 16.162-3.191a7.086 7.086 0 0 0 3.099-1.47h93.489v235.401H298.52v-57.551h27.19zM497.732 70.802h-46.663a6.995 6.995 0 0 0-6.999 6.999v10.03h-93.489a7.113 7.113 0 0 0-3.099-1.48L331.32 83.17l-5.837-14.079 9.177-13.689a6.999 6.999 0 0 0-.858-8.84L310.57 23.329a7 7 0 0 0-8.85-.858l-13.679 9.173-14.079-5.832-3.181-16.162a7.013 7.013 0 0 0-6.869-5.649h-32.849a7.017 7.017 0 0 0-6.873 5.649l-3.176 16.162-14.084 5.832-13.679-9.173a7.001 7.001 0 0 0-8.85.858l-23.228 23.233a6.994 6.994 0 0 0-.863 8.84l9.182 13.689-5.842 14.079-16.162 3.181a7.02 7.02 0 0 0-3.09 1.48H31.61c-13.419 0-24.341 10.922-24.341 24.341V402.3c0 13.424 10.922 24.341 24.341 24.341h157.461v32.092H170.21c-19.512 0-35.389 15.868-35.389 35.379V501a6.992 6.992 0 0 0 6.999 6.998h211.33a6.992 6.992 0 0 0 6.999-6.998v-6.888c0-19.511-15.877-35.379-35.389-35.379h-18.861v-32.092H463.36c13.419 0 24.341-10.917 24.341-24.341V131.462h10.03c3.861 0 6.999-3.143 6.999-6.999V77.8a6.999 6.999 0 0 0-6.999-6.999zM413.704 31.48h22.129v22.134h-22.129zM406.7 67.611a6.993 6.993 0 0 1-6.999-6.999V24.481a6.998 6.998 0 0 1 6.999-6.999h36.131a6.998 6.998 0 0 1 6.999 6.999v36.131a6.992 6.992 0 0 1-6.999 6.999zm-2.241 87.32h16.142v16.142h-16.142zm-6.998 30.14a6.992 6.992 0 0 1-6.999-6.998v-30.14a6.996 6.996 0 0 1 6.999-7.003h30.14a6.997 6.997 0 0 1 6.999 7.003v30.14a6.992 6.992 0 0 1-6.999 6.998zM247.49 66.064c24.033 0 43.583 19.545 43.583 43.578s-19.55 43.588-43.583 43.588-43.587-19.55-43.587-43.588 19.55-43.578 43.587-43.578zm0 101.168c-31.759 0-57.59-25.831-57.59-57.59s25.831-57.58 57.59-57.58 57.58 25.831 57.58 57.58-25.83 57.59-57.58 57.59z" fill="#000000" opacity="1" data-original="#000000" class=""></path></g></svg>