<svg xmlns="http://www.w3.org/2000/svg" version="1.1" xmlns:xlink="http://www.w3.org/1999/xlink" xmlns:svgjs="http://svgjs.com/svgjs" width="50" height="50" x="0" y="0" viewBox="0 0 1000 1000" style="enable-background:new 0 0 512 512" xml:space="preserve" class=""><g><path d="M829.45 871.76h-658.9a86.26 86.26 0 0 1-74.86-129.67l329.44-570.62a86.45 86.45 0 0 1 149.74 0l329.44 570.62a86.45 86.45 0 0 1-74.86 129.67zM116 785.31a54.66 54.66 0 0 0 54.53 54.45h658.9a54.33 54.33 0 0 0 47.15-81.67L547.15 187.47a54.44 54.44 0 0 0-94.3 0L123.4 758.09a54.31 54.31 0 0 0-7.4 27.22z" fill="#bb0b0b" data-original="#bb0b0b"></path><path d="M500 625.89A53.52 53.52 0 0 1 446.73 576l-14.07-213.13a67.49 67.49 0 1 1 134.68 0L553.27 576A53.52 53.52 0 0 1 500 625.89zm0-303a35.49 35.49 0 0 0-35.41 37.83l14.07 213.15a21.39 21.39 0 0 0 42.68 0l14.07-213.15A35.49 35.49 0 0 0 500 322.93zM500 769.07a59.87 59.87 0 0 1-59.8-59.8V708a59.8 59.8 0 0 1 119.6 0v1.27a59.87 59.87 0 0 1-59.8 59.8zm0-88.86A27.82 27.82 0 0 0 472.2 708v1.27a27.8 27.8 0 1 0 55.6 0V708a27.82 27.82 0 0 0-27.8-27.79z" fill="#bb0b0b" data-original="#bb0b0b"></path></g></svg>