<svg xmlns="http://www.w3.org/2000/svg" version="1.1" xmlns:xlink="http://www.w3.org/1999/xlink" width="512" height="512" x="0" y="0" viewBox="0 0 512 512" style="enable-background:new 0 0 512 512" xml:space="preserve" class=""><g><g fill-rule="evenodd" clip-rule="evenodd"><path fill="#fe646f" d="M53.028 345.165h44.83c5.508 0 10 4.493 10 10v131.622h-64.83V355.164c0-5.507 4.492-9.999 10-9.999z" opacity="1" data-original="#fe646f"></path><path fill="#fd4755" d="M87.857 345.165h10c5.508 0 10 4.493 10 10v131.622h-10V355.164c0-5.507-4.492-9.999-10-9.999z" opacity="1" data-original="#fd4755"></path><path fill="#ffe177" d="M218.237 280.001h-44.831c-5.508 0-10 4.492-10 10v196.787h64.83V290.001c.001-5.508-4.491-10-9.999-10z" opacity="1" data-original="#ffe177"></path><path fill="#ffd064" d="M218.237 280.001h-10c5.508 0 10 4.492 10 10v196.787h10V290.001c0-5.508-4.492-10-10-10z" opacity="1" data-original="#ffd064"></path><path fill="#6cf5c2" d="M414.161 150.747h44.831c5.508 0 10 4.493 10 10v326.04h-64.83v-326.04c0-5.508 4.492-10 9.999-10z" opacity="1" data-original="#6cf5c2"></path><path fill="#00e499" d="M448.991 150.747h10c5.508 0 10 4.493 10 10v326.04h-10v-326.04c0-5.508-4.492-10-10-10z" opacity="1" data-original="#00e499"></path><path fill="#8ac9fe" d="M338.616 211.958h-44.83c-5.507 0-10 4.493-10 10v264.83h64.829v-264.83c.001-5.508-4.492-10-9.999-10z" opacity="1" data-original="#8ac9fe"></path><path fill="#60b7ff" d="M338.616 211.958h-10c5.507 0 10 4.492 10 10v264.83h10v-264.83c0-5.508-4.493-10-10-10z" opacity="1" data-original="#60b7ff"></path><path fill="#837683" d="M21.254 469.537h469.513c5.508 0 10 4.492 10 10v14.465c0 5.508-4.492 10-10 10H21.254c-5.508 0-10-4.492-10-10v-14.465c0-5.508 4.492-10 10-10z" opacity="1" data-original="#837683"></path><path fill="#685e68" d="M490.766 469.537c5.508 0 10 4.492 10 10v14.465c0 5.508-4.492 10-10 10H21.254c-5.508 0-10-4.492-10-10h469.512c5.508 0 10-4.492 10-10z" opacity="1" data-original="#685e68"></path><circle cx="104.444" cy="101.192" r="93.19" fill="#ffd064" transform="rotate(-45 104.433 101.219)" opacity="1" data-original="#ffd064"></circle><circle cx="104.444" cy="101.192" r="77.549" fill="#ffe177" opacity="1" data-original="#ffe177"></circle><path d="M81.11 147.94c4.609 3.07 9.969 5.101 15.588 6.08v6.141a7.752 7.752 0 0 0 15.502 0v-5.99c6.817-1.03 13.766-3.511 19.22-7.65 6.53-4.95 10.87-12.041 10.639-21.56-.019-1.08-.09-2.04-.189-2.86-1.259-10.431-6.902-17.22-14.389-21.741-6.581-3.969-14.469-5.951-21.702-7.139-5.242-.861-10.752-2.311-14.79-4.95-3.137-2.051-5.387-5.02-5.6-9.36-.231-4.701 1.821-8.49 5.053-11.111 2.519-2.06 5.737-3.48 9.228-4.179 3.59-.73 7.44-.671 11.11.259 5.841 1.48 11.158 5.33 13.96 11.999 1.646 3.951 6.199 5.801 10.138 4.15a7.747 7.747 0 0 0 4.152-10.149c-4.902-11.671-14.234-18.42-24.49-21.02-.783-.2-1.552-.37-2.34-.51v-6.129a7.75 7.75 0 0 0-7.751-7.75 7.75 7.75 0 0 0-7.751 7.75v6.241l-.048.008c-5.93 1.191-11.493 3.69-15.97 7.331-6.869 5.599-11.233 13.71-10.742 23.829.491 10.171 5.572 16.992 12.629 21.601 6.171 4.03 13.743 6.111 20.72 7.261 5.633.92 11.629 2.379 16.201 5.14 3.661 2.209 6.411 5.44 7.001 10.28.08.651.118 1.109.128 1.419.09 3.85-1.76 6.791-4.529 8.902-3.449 2.62-8.308 4.159-13.158 4.749a38.109 38.109 0 0 1-3.439.28c-5.751.131-11.422-1.27-15.842-4.221-3.642-2.429-6.421-5.969-7.591-10.63-1.009-4.15-5.208-6.68-9.351-5.659-4.147 1.019-6.69 5.21-5.671 9.36 2.18 8.739 7.341 15.348 14.074 19.828zm-61.86-46.75C19.25 54.22 57.469 16 104.439 16c46.98 0 85.189 38.22 85.189 85.189 0 46.971-38.21 85.191-85.189 85.191-46.97.001-85.189-38.219-85.189-85.19zm-16.003 0C3.247 45.391 48.646.003 104.439.003c55.798 0 101.192 45.388 101.192 101.187 0 55.801-45.395 101.191-101.192 101.191-55.792 0-101.192-45.39-101.192-101.191zm489.532 376.351H19.25v18.46h473.529zm-441.75-16h48.829V353.16H51.029zm120.379 0h48.829V287.999h-48.829zm120.379 0h48.829V219.96h-48.829zm120.37 0h48.824V158.75h-48.824zm96.616 8v34.46c0 4.419-3.586 8-8.02 8H11.249c-4.411 0-8.001-3.581-8.001-8v-34.46c0-4.419 3.59-8 8.001-8h23.782V345.16c0-4.41 3.576-8 7.996-8h64.832c4.421 0 7.996 3.59 7.996 8v116.38h39.554V279.999c0-4.419 3.581-8 7.996-8h64.832a8 8 0 0 1 8.001 8V461.54h39.549V211.96a8 8 0 0 1 8.001-8h64.827c4.411 0 8.001 3.581 8.001 8v249.581h39.54V150.75a8 8 0 0 1 8.001-8h64.841c4.387 0 7.973 3.581 7.973 8v310.79h23.777c4.439.001 8.025 3.581 8.025 8.001zm-99.612-438.67c-.241-4.421 3.137-8.19 7.548-8.431l51.867-2.807a7.954 7.954 0 0 1 6.322 2.585 8.127 8.127 0 0 1 2.029 6.553l-7.501 51.378c-.566 3.98-4.01 6.852-7.926 6.852-.378 0-.755-.031-1.132-.081-4.388-.639-7.407-4.699-6.746-9.069l4.246-29.262C396.857 103.1 329.388 151.57 257.036 192.81c-67.417 38.42-140.826 71.57-218.198 98.509-.868.301-1.76.45-2.637.45a8.01 8.01 0 0 1-7.553-5.37c-1.448-4.18.75-8.739 4.921-10.189 158.267-55.12 297.258-135.619 413.448-239.39l-29.439 1.599c-4.407.25-8.181-3.137-8.417-7.548z" fill="#000000" opacity="1" data-original="#000000" class=""></path></g></g></svg>