<svg xmlns="http://www.w3.org/2000/svg" version="1.1" xmlns:xlink="http://www.w3.org/1999/xlink" width="512" height="512" x="0" y="0" viewBox="0 0 512 512" style="enable-background:new 0 0 512 512" xml:space="preserve" class=""><g><path d="M248 151.87v160l-24 48v144h128v-144l-24-48v-160h48l-88-144-88 144z" style="" fill="#54febd" data-original="#54febd" class=""></path><path d="M320 511.87H192c-4.416 0-8-3.576-8-8v-144c0-1.24.288-2.472.84-3.576L208 309.982V159.87h-40a7.988 7.988 0 0 1-6.976-4.088 7.998 7.998 0 0 1 .152-8.088l88-144c2.912-4.752 10.744-4.752 13.656 0l88 144a8.016 8.016 0 0 1 .152 8.088 8.005 8.005 0 0 1-6.976 4.088h-40v150.112l23.16 46.312a8.145 8.145 0 0 1 .832 3.576v144c0 4.424-3.584 8-8 8zm-120-16h112V361.766l-23.16-46.312a8.052 8.052 0 0 1-.84-3.584v-160c0-4.424 3.584-8 8-8h33.736L256 23.214 182.264 143.87H216c4.416 0 8 3.576 8 8v160c0 1.24-.288 2.472-.84 3.576L200 361.766V495.87z" style="" fill="#1d1b4c" data-original="#1d1b4c" class=""></path><path d="M504 511.87H376c-4.416 0-8-3.576-8-8V362.294l-30.656-45.984a8.025 8.025 0 0 1-1.344-4.44v-64h-16c-2.952 0-5.664-1.624-7.056-4.224s-1.24-5.76.4-8.208l64-96c2.968-4.456 10.344-4.456 13.312 0l64 96c1.64 2.456 1.792 5.608.4 8.208s-4.104 4.224-7.056 4.224h-16v59.472l76.12 45.672a7.999 7.999 0 0 1 3.88 6.856v144c0 4.424-3.584 8-8 8zm-120-16h112V364.406l-76.12-45.672a8.002 8.002 0 0 1-3.88-6.864v-72c0-4.424 3.584-8 8-8h9.048L384 158.294l-49.048 73.576H344c4.416 0 8 3.576 8 8v69.576l30.656 45.984a8.064 8.064 0 0 1 1.344 4.44v136zM136 511.87H8c-4.416 0-8-3.576-8-8v-144a7.979 7.979 0 0 1 3.88-6.856L80 307.342V247.87H64c-2.952 0-5.664-1.624-7.056-4.224s-1.24-5.76.4-8.208l64-96c2.968-4.456 10.344-4.456 13.312 0l64 96a7.985 7.985 0 0 1 .4 8.208A8.003 8.003 0 0 1 192 247.87h-16v64a8.044 8.044 0 0 1-1.344 4.44L144 362.294V503.87c0 4.424-3.584 8-8 8zm-120-16h112v-136c0-1.576.472-3.128 1.344-4.44L160 309.454v-69.576c0-4.424 3.584-8 8-8h9.048L128 158.294 78.952 231.87H88c4.416 0 8 3.576 8 8v72a7.979 7.979 0 0 1-3.88 6.856L16 364.406V495.87z" style="" fill="#1d1b4c" data-original="#1d1b4c" class=""></path><path d="M40 479.87c-2.08 0-4.16-.88-5.68-2.32-1.44-1.52-2.32-3.6-2.32-5.68s.88-4.168 2.32-5.68c3.04-2.96 8.4-2.96 11.36 0 1.44 1.52 2.32 3.608 2.32 5.68s-.88 4.16-2.32 5.68c-1.52 1.44-3.6 2.32-5.68 2.32zM72 479.87c-2.08 0-4.16-.88-5.68-2.32-1.44-1.52-2.32-3.6-2.32-5.68s.88-4.168 2.32-5.68c2.96-2.96 8.4-2.96 11.36 0 1.44 1.512 2.32 3.6 2.32 5.68s-.88 4.16-2.32 5.68c-1.52 1.44-3.6 2.32-5.68 2.32zM104 479.87c-2.08 0-4.16-.88-5.68-2.32-1.44-1.52-2.32-3.6-2.32-5.68s.88-4.168 2.32-5.68c2.96-2.96 8.32-2.96 11.36 0 1.44 1.512 2.32 3.6 2.32 5.68s-.88 4.16-2.32 5.68c-1.52 1.44-3.6 2.32-5.68 2.32zM40 447.87c-2.08 0-4.16-.88-5.68-2.32-1.44-1.52-2.32-3.6-2.32-5.68 0-2.168.88-4.168 2.32-5.68 2.96-2.96 8.4-2.96 11.36 0 1.44 1.52 2.32 3.52 2.32 5.68 0 2.08-.88 4.16-2.32 5.68-1.52 1.44-3.6 2.32-5.68 2.32zM72 447.87c-2.08 0-4.16-.88-5.68-2.32-1.44-1.52-2.32-3.6-2.32-5.68 0-2.168.88-4.168 2.32-5.68 2.96-2.96 8.32-2.96 11.36 0 1.44 1.512 2.32 3.6 2.32 5.68s-.88 4.16-2.32 5.68c-1.52 1.44-3.6 2.32-5.68 2.32zM104 447.87c-2.08 0-4.16-.88-5.68-2.32-1.44-1.52-2.32-3.52-2.32-5.68 0-2.168.88-4.168 2.32-5.68 3.04-2.96 8.4-2.96 11.36 0 1.44 1.512 2.32 3.6 2.32 5.68s-.88 4.16-2.32 5.68c-1.52 1.44-3.6 2.32-5.68 2.32zM40 415.87c-2.08 0-4.16-.88-5.68-2.32-1.44-1.52-2.32-3.6-2.32-5.68s.88-4.168 2.32-5.68c3.04-2.96 8.32-2.96 11.36 0 1.44 1.52 2.32 3.608 2.32 5.68s-.88 4.16-2.32 5.68c-1.52 1.44-3.6 2.32-5.68 2.32zM72 415.87c-2.08 0-4.16-.88-5.68-2.32-1.44-1.52-2.32-3.6-2.32-5.68s.88-4.168 2.32-5.68c3.04-2.96 8.4-2.96 11.36 0 1.44 1.512 2.32 3.6 2.32 5.68s-.88 4.16-2.32 5.68c-1.52 1.44-3.6 2.32-5.68 2.32zM104 415.87c-2.08 0-4.16-.88-5.68-2.32-1.44-1.52-2.32-3.6-2.32-5.68s.88-4.168 2.32-5.68c3.04-2.96 8.32-2.96 11.36 0 1.44 1.512 2.32 3.6 2.32 5.68s-.88 4.16-2.32 5.68c-1.52 1.44-3.6 2.32-5.68 2.32zM224 479.87c-2.08 0-4.16-.88-5.68-2.32-1.44-1.52-2.32-3.6-2.32-5.68s.88-4.168 2.32-5.68c3.04-2.96 8.4-2.96 11.36 0 1.44 1.512 2.32 3.6 2.32 5.68s-.88 4.16-2.32 5.68c-1.52 1.44-3.6 2.32-5.68 2.32zM256 479.87c-2.08 0-4.16-.88-5.68-2.32-1.44-1.52-2.32-3.6-2.32-5.68s.88-4.168 2.32-5.68c2.96-2.96 8.4-2.96 11.36 0 1.44 1.512 2.32 3.6 2.32 5.68s-.88 4.16-2.32 5.68c-1.52 1.44-3.6 2.32-5.68 2.32zM288 479.87c-2.08 0-4.16-.88-5.68-2.32-1.44-1.52-2.32-3.6-2.32-5.68s.88-4.168 2.32-5.68c2.96-2.96 8.32-2.96 11.36 0 1.44 1.512 2.32 3.6 2.32 5.68s-.88 4.16-2.32 5.68c-1.52 1.44-3.6 2.32-5.68 2.32zM224 447.87c-2.08 0-4.16-.88-5.68-2.32-1.44-1.52-2.32-3.6-2.32-5.68s.88-4.168 2.32-5.68c2.96-2.96 8.32-2.96 11.36 0 1.44 1.512 2.32 3.6 2.32 5.68s-.88 4.16-2.32 5.68c-1.52 1.44-3.6 2.32-5.68 2.32zM256 447.87c-2.08 0-4.16-.88-5.68-2.32-1.44-1.52-2.32-3.6-2.32-5.68s.88-4.168 2.32-5.68c2.96-2.96 8.4-2.96 11.36 0 1.44 1.512 2.32 3.512 2.32 5.68 0 2.08-.88 4.16-2.32 5.68-1.52 1.44-3.6 2.32-5.68 2.32zM288 447.87c-2.08 0-4.16-.88-5.68-2.32-1.44-1.52-2.32-3.6-2.32-5.68 0-2.168.88-4.168 2.32-5.68 2.96-2.96 8.4-2.96 11.36 0 1.44 1.512 2.32 3.6 2.32 5.68s-.88 4.16-2.32 5.68c-1.52 1.44-3.6 2.32-5.68 2.32zM224 415.87c-2.08 0-4.16-.88-5.68-2.32-1.44-1.52-2.32-3.6-2.32-5.68 0-2.168.88-4.168 2.32-5.68 3.04-2.96 8.4-2.96 11.36 0 1.44 1.512 2.32 3.6 2.32 5.68s-.88 4.16-2.32 5.68c-1.52 1.44-3.6 2.32-5.68 2.32zM256 415.87c-2.08 0-4.16-.88-5.68-2.32-1.44-1.52-2.32-3.6-2.32-5.68 0-2.168.88-4.168 2.32-5.68 2.96-2.96 8.32-2.96 11.36 0 1.44 1.512 2.32 3.512 2.32 5.68 0 2.08-.88 4.16-2.32 5.68-1.52 1.44-3.6 2.32-5.68 2.32zM288 415.87c-2.08 0-4.16-.88-5.68-2.32-1.44-1.52-2.32-3.6-2.32-5.68 0-2.168.88-4.168 2.32-5.68 3.04-2.96 8.4-2.96 11.36 0 1.44 1.512 2.32 3.6 2.32 5.68s-.88 4.16-2.32 5.68c-1.52 1.44-3.6 2.32-5.68 2.32zM408 479.87c-2.08 0-4.16-.88-5.68-2.32-1.44-1.52-2.32-3.6-2.32-5.68s.88-4.168 2.32-5.68c3.04-2.96 8.4-2.96 11.36 0 1.44 1.512 2.32 3.6 2.32 5.68s-.88 4.16-2.32 5.68c-1.52 1.44-3.6 2.32-5.68 2.32zM440 479.87c-2.08 0-4.16-.88-5.68-2.32-1.44-1.52-2.32-3.6-2.32-5.68s.88-4.168 2.32-5.68c2.96-2.96 8.32-2.96 11.36 0 1.44 1.512 2.32 3.512 2.32 5.68 0 2.16-.88 4.16-2.4 5.68a8.07 8.07 0 0 1-5.6 2.32zM472 479.87c-2.08 0-4.16-.88-5.68-2.32-1.44-1.52-2.32-3.6-2.32-5.68s.88-4.168 2.32-5.68c2.96-2.96 8.32-2.96 11.36 0 1.44 1.512 2.32 3.6 2.32 5.68s-.88 4.16-2.32 5.68c-1.52 1.44-3.6 2.32-5.68 2.32zM408 447.87c-2.08 0-4.16-.88-5.68-2.32-1.44-1.52-2.32-3.6-2.32-5.68 0-2.168.88-4.168 2.32-5.68 2.96-2.96 8.32-2.96 11.36 0 1.44 1.512 2.32 3.6 2.32 5.68s-.88 4.16-2.32 5.68c-1.52 1.44-3.6 2.32-5.68 2.32zM440 447.87c-2.08 0-4.16-.88-5.68-2.32-1.44-1.52-2.32-3.52-2.32-5.68 0-2.168.88-4.168 2.32-5.68 3.04-2.96 8.4-2.96 11.36 0 1.44 1.512 2.32 3.6 2.32 5.68s-.88 4.16-2.32 5.68c-1.52 1.44-3.6 2.32-5.68 2.32zM472 447.87c-2.08 0-4.16-.88-5.68-2.32-1.44-1.52-2.32-3.6-2.32-5.68 0-2.168.88-4.168 2.32-5.68 2.96-2.96 8.4-2.96 11.36 0 1.44 1.512 2.32 3.512 2.32 5.68 0 2.08-.88 4.16-2.32 5.68-1.52 1.44-3.6 2.32-5.68 2.32zM408 415.87c-2.08 0-4.16-.88-5.68-2.32-1.44-1.52-2.32-3.6-2.32-5.68s.88-4.168 2.32-5.68c3.04-2.96 8.4-2.96 11.36 0 1.44 1.512 2.32 3.6 2.32 5.68s-.88 4.16-2.32 5.68c-1.52 1.44-3.6 2.32-5.68 2.32zM440 415.87c-2.08 0-4.16-.88-5.68-2.32-1.44-1.52-2.32-3.52-2.32-5.68 0-2.168.88-4.168 2.32-5.68 2.96-2.96 8.32-2.96 11.36 0 1.44 1.512 2.32 3.6 2.32 5.68s-.88 4.16-2.32 5.68c-1.52 1.44-3.6 2.32-5.68 2.32zM472 415.87c-2.08 0-4.16-.88-5.68-2.32-1.44-1.52-2.32-3.6-2.32-5.68s.88-4.168 2.32-5.68c3.04-2.96 8.4-2.96 11.36 0 1.44 1.512 2.32 3.6 2.32 5.68s-.88 4.16-2.32 5.68c-1.52 1.44-3.6 2.32-5.68 2.32zM408 383.87c-2.08 0-4.16-.88-5.68-2.32-1.44-1.52-2.32-3.6-2.32-5.68s.88-4.168 2.32-5.68c2.96-2.96 8.4-2.96 11.36 0 1.44 1.512 2.32 3.6 2.32 5.68s-.88 4.16-2.32 5.68c-1.52 1.44-3.52 2.32-5.68 2.32zM440 383.87c-2.08 0-4.16-.88-5.68-2.32-1.44-1.52-2.32-3.6-2.32-5.68s.88-4.168 2.32-5.68c2.96-2.96 8.4-2.96 11.36 0 1.44 1.512 2.32 3.6 2.32 5.68s-.88 4.16-2.32 5.68c-1.52 1.44-3.6 2.32-5.68 2.32zM472 383.87c-2.08 0-4.16-.88-5.68-2.32-1.44-1.52-2.32-3.6-2.32-5.68s.88-4.168 2.32-5.68c2.96-2.96 8.4-2.96 11.36 0 1.44 1.512 2.32 3.6 2.32 5.68s-.88 4.16-2.32 5.68c-1.52 1.44-3.6 2.32-5.68 2.32zM224 383.87c-2.08 0-4.16-.88-5.68-2.32-1.44-1.52-2.32-3.6-2.32-5.68s.88-4.168 2.32-5.68c2.96-2.96 8.4-2.96 11.36 0 1.44 1.512 2.32 3.6 2.32 5.68s-.88 4.16-2.32 5.68c-1.52 1.44-3.52 2.32-5.68 2.32zM256 383.87c-2.08 0-4.16-.88-5.68-2.32-1.44-1.52-2.32-3.6-2.32-5.68s.88-4.168 2.32-5.68c2.96-2.96 8.4-2.96 11.36 0 1.44 1.512 2.32 3.6 2.32 5.68s-.88 4.16-2.32 5.68c-1.52 1.44-3.6 2.32-5.68 2.32zM288 383.87c-2.08 0-4.16-.88-5.68-2.32-1.44-1.52-2.32-3.6-2.32-5.68s.88-4.168 2.32-5.68c2.96-2.96 8.4-2.96 11.36 0 1.44 1.512 2.32 3.6 2.32 5.68s-.88 4.16-2.32 5.68c-1.52 1.44-3.6 2.32-5.68 2.32zM40 383.87c-2.08 0-4.16-.88-5.68-2.32-1.44-1.52-2.32-3.6-2.32-5.68s.88-4.168 2.32-5.68c2.96-2.96 8.4-2.96 11.36 0 1.44 1.52 2.32 3.608 2.32 5.68s-.88 4.16-2.32 5.68c-1.52 1.44-3.6 2.32-5.68 2.32zM72 383.87c-2.08 0-4.16-.88-5.68-2.32-1.44-1.52-2.32-3.6-2.32-5.68s.88-4.168 2.32-5.68c3.04-2.96 8.4-2.96 11.36 0 1.44 1.512 2.32 3.6 2.32 5.68s-.88 4.16-2.32 5.68c-1.52 1.44-3.6 2.32-5.68 2.32zM104 383.87c-2.08 0-4.16-.88-5.68-2.32-1.44-1.52-2.32-3.6-2.32-5.68s.88-4.168 2.32-5.68c2.96-2.96 8.4-2.96 11.36 0 1.44 1.512 2.32 3.6 2.32 5.68s-.88 4.16-2.32 5.68c-1.52 1.44-3.6 2.32-5.68 2.32z" style="" fill="#1d1b4c" data-original="#1d1b4c" class=""></path></g></svg>