<svg xmlns="http://www.w3.org/2000/svg" version="1.1" xmlns:xlink="http://www.w3.org/1999/xlink" xmlns:svgjs="http://svgjs.com/svgjs" width="512" height="512" x="0" y="0" viewBox="0 0 496 496" style="enable-background:new 0 0 512 512" xml:space="preserve" class=""><g><path d="M245.414 321.04c-88.824 0-161.094-72.009-161.094-160.52S156.586 0 245.414 0c88.832 0 161.094 72.008 161.094 160.52s-72.266 160.52-161.094 160.52zm0-305.04C165.406 16 100.32 80.832 100.32 160.52s65.086 144.52 145.094 144.52 145.094-64.833 145.094-144.52S325.414 16 245.414 16zM336.59 278.496l72.441 74.746" fill="#bb0b0b" data-original="#000000" opacity="1" class=""></path><path d="m330.832 284.07 11.488-11.132 72.442 74.746-11.492 11.136zm0 0" fill="#bb0b0b" data-original="#000000" opacity="1" class=""></path><path d="M444.664 416h-.277c-5.719-.074-11.055-2.36-15.028-6.438l-31.257-32.074c-8.22-8.433-8.047-21.988.378-30.21l6.098-5.95c4.078-3.973 9.567-6.027 15.188-6.055 5.718.075 11.054 2.36 15.027 6.434l31.258 32.078c8.222 8.426 8.05 21.985-.38 30.211l-6.1 5.95c-4.009 3.91-9.294 6.054-14.907 6.054zm-25.176-64.727a5.325 5.325 0 0 0-3.742 1.508l-6.094 5.942a5.384 5.384 0 0 0-.093 7.597l31.261 32.075a5.298 5.298 0 0 0 3.766 1.601c1.539.031 2.793-.52 3.809-1.508l6.097-5.945c2.082-2.031 2.125-5.512.094-7.59l-31.262-32.082a5.294 5.294 0 0 0-3.765-1.598h-.07zM335.328 256.578H160.672c-4.414 0-8-3.582-8-8V216.07c0-37.28 23.558-71.004 58.621-83.902a7.987 7.987 0 0 1 7.695 1.21c8.371 6.563 18.403 10.024 29.012 10.024s20.64-3.46 29.012-10.023a7.977 7.977 0 0 1 7.695-1.211c35.066 12.898 58.621 46.617 58.621 83.902v32.508a8 8 0 0 1-8 8zm-166.656-16h158.656V216.07c0-29.21-17.621-55.754-44.258-67.328-10.394 6.988-22.422 10.66-35.07 10.66s-24.676-3.672-35.07-10.66c-26.637 11.574-44.258 38.117-44.258 67.328zm0 0" fill="#bb0b0b" data-original="#000000" opacity="1" class=""></path><path d="M293.297 250.914a8 8 0 0 1-8-8v-18.152a8 8 0 0 1 16 0v18.152a8 8 0 0 1-8 8zM202.703 250.914c-4.414 0-8-3.582-8-8v-18.152a8 8 0 0 1 16 0v18.152a8 8 0 0 1-8 8zM248 159.402c-34.68 0-62.89-28.043-62.89-62.511 0-34.465 28.21-62.512 62.89-62.512s62.89 28.047 62.89 62.512c0 34.468-28.21 62.511-62.89 62.511zm0-109.023c-25.855 0-46.89 20.863-46.89 46.512s21.035 46.511 46.89 46.511 46.89-20.863 46.89-46.511S273.856 50.379 248 50.379zM78.781 154.492c-28.945 0-52.492-23.054-52.492-51.39 0-28.336 23.547-51.391 52.492-51.391 17.621 0 33.977 8.601 43.746 23.012l-13.242 8.976c-6.789-10.011-18.191-15.988-30.504-15.988-20.12 0-36.492 15.879-36.492 35.39 0 19.516 16.371 35.391 36.492 35.391 3.992 0 7.992-.66 11.89-1.965l5.083 15.172c-5.543 1.856-11.254 2.793-16.973 2.793zm0 0" fill="#bb0b0b" data-original="#000000" opacity="1" class=""></path><path d="M105.105 229.617H8c-4.414 0-8-3.586-8-8V196.93c0-30.383 18.242-57.34 46.477-68.684 2.75-1.117 5.914-.594 8.187 1.352 9.703 8.312 23.45 11.125 36.008 6.925l1.734 5.184 9.059 1.117-.297 2.14a8 8 0 0 1-5.414 6.731c-16.137 5.407-33.902 2.668-47.406-6.773C28.555 154.664 16 174.622 16 196.93v16.687h89.105zM417.219 154.492c-8.149 0-16.02-1.828-23.399-5.43l7.024-14.375c5.172 2.524 10.68 3.805 16.375 3.805 20.12 0 36.492-15.875 36.492-35.39 0-19.512-16.371-35.391-36.492-35.391-13.82 0-26.293 7.46-32.559 19.477l-14.187-7.399c9.027-17.32 26.933-28.082 46.746-28.082 28.945 0 52.492 23.055 52.492 51.39 0 28.337-23.547 51.395-52.492 51.395zm0 0" fill="#bb0b0b" data-original="#000000" opacity="1" class=""></path><path d="M488 229.617H385.719v-16H480V196.93c0-22.309-12.555-42.266-32.348-52.008a53.113 53.113 0 0 1-30.433 9.57c-3.692 0-7.324-.375-10.883-1.12.113 2.413.172 4.792.172 7.148h-16c0-5.903-.406-12.047-1.203-18.254-.57-4.383 2.527-8.391 6.91-8.953 2.57-.352 5.039.597 6.738 2.328 12.738 5.304 27.984 2.882 38.387-6.04a7.975 7.975 0 0 1 8.187-1.347C477.757 139.59 496 166.55 496 196.93v24.687c0 4.418-3.586 8-8 8zm0 0" fill="#bb0b0b" data-original="#000000" opacity="1" class=""></path></g></svg>