<svg xmlns="http://www.w3.org/2000/svg" version="1.1" xmlns:xlink="http://www.w3.org/1999/xlink" xmlns:svgjs="http://svgjs.com/svgjs" width="50" height="50" x="0" y="0" viewBox="0 0 512 512" style="enable-background:new 0 0 512 512" xml:space="preserve" class=""><g><path d="M256.002 135.364c18.339 0 33.259-14.92 33.259-33.259 0-18.337-14.92-33.255-33.259-33.255s-33.259 14.918-33.259 33.255c0 18.339 14.92 33.259 33.259 33.259zm0-52.513c10.619 0 19.259 8.638 19.259 19.255 0 10.619-8.64 19.259-19.259 19.259-10.62 0-19.259-8.64-19.259-19.259 0-10.618 8.64-19.255 19.259-19.255zm0 53.646c-35.189 0-63.817 28.626-63.817 63.812 0 7.297 3.875 17.421 22.336 24.218 11.06 4.072 25.79 6.314 41.479 6.314s30.419-2.242 41.479-6.314c18.461-6.797 22.336-16.921 22.336-24.218 0-35.186-28.626-63.812-63.813-63.812zM256 216.841c-29.798 0-49.814-8.548-49.814-16.532 0-27.467 22.348-49.812 49.817-49.812 27.467 0 49.812 22.346 49.812 49.812 0 7.984-20.017 16.532-49.815 16.532zm132-66.994c0-72.785-59.215-132-132-132s-132 59.215-132 132 59.215 132 132 132 132-59.216 132-132zM256 267.846c-65.065 0-118-52.935-118-118s52.935-118 118-118 118 52.935 118 118c0 65.066-52.934 118-118 118zm-23.537 163.937h-1.3l-1.08-4.304c-4.739-18.884-9.64-38.411-14.173-57.658-6.955-29.533-14.08-48.371-53.707-59.585l-38.604-27.729c-6.295-4.522-13.996-6.32-21.688-5.058l-.339.058-25.837-60.986c-17.167-40.523-39.323-35.85-45.705-33.45-15.742 5.916-24.977 26.788-19.375 43.79 0 0 33.395 101.372 33.751 102.464 5.313 16.308 11.925 36.604 27.057 47.003l44.589 30.644c5.032 3.458 8.165 8.026 9.578 13.966l2.578 10.839h-5.772c-4.739 0-9.181 1.834-12.508 5.164-3.328 3.331-5.158 7.775-5.153 12.515l.026 27.047c.01 9.729 7.932 17.644 17.66 17.644l110.027.007h.001c4.739 0 9.182-1.834 12.508-5.164 3.328-3.331 5.158-7.775 5.153-12.514l-.026-27.048c-.011-9.73-7.933-17.645-17.661-17.645zm-93.213-14.085c-2.221-9.337-7.358-16.828-15.268-22.264L79.393 364.79c-11.22-7.711-17.017-25.505-21.675-39.802-.361-1.107-33.765-102.509-33.765-102.509-3.5-10.624 3.125-23.343 11.003-26.304 9.159-3.444 19.584 6.204 27.889 25.806l25.915 61.171a29.064 29.064 0 0 0-5.786 6.013c-4.521 6.295-6.318 13.998-5.057 21.688s5.422 14.416 11.717 18.937l52.644 37.814a6.998 6.998 0 0 0 9.769-1.601 7 7 0 0 0-1.601-9.769L97.801 318.42c-3.258-2.34-5.413-5.832-6.069-9.832s.272-7.997 2.612-11.255 5.832-5.414 9.832-6.069c4.002-.654 7.998.272 11.255 2.612l39.612 28.454c.675.484 1.43.845 2.231 1.065 34.108 9.362 38.669 22.716 45.008 49.634 4.557 19.347 9.47 38.924 14.221 57.856l.225.896-74.13-.005zm95.842 61.396a3.647 3.647 0 0 1-2.605 1.059l-110.027-.007a3.666 3.666 0 0 1-3.661-3.658l-.026-27.047a3.65 3.65 0 0 1 1.057-2.606 3.649 3.649 0 0 1 2.605-1.059l110.027.007a3.666 3.666 0 0 1 3.661 3.658l.026 27.048a3.645 3.645 0 0 1-1.057 2.605zM481.97 183.071c-6.381-2.398-28.537-7.075-45.705 33.45l-25.837 60.986-.339-.058c-7.691-1.261-15.393.535-21.688 5.057l-38.604 27.729c-39.626 11.214-46.752 30.052-53.707 59.584-4.533 19.248-9.434 38.774-14.173 57.659l-1.08 4.304h-1.3c-9.729 0-17.651 7.916-17.66 17.644l-.026 27.048c-.005 4.739 1.825 9.184 5.153 12.514 3.327 3.331 7.77 5.165 12.51 5.164l110.026-.007c9.729 0 17.651-7.915 17.661-17.644l.026-27.047c.005-4.74-1.825-9.184-5.153-12.515-3.327-3.331-7.77-5.165-12.51-5.164h-5.771l2.578-10.838c1.413-5.94 4.546-10.508 9.578-13.966l44.589-30.644c15.132-10.4 21.745-30.698 27.058-47.007.355-1.091 33.75-102.46 33.75-102.46 5.6-17.002-3.635-37.873-19.376-43.789zm-92.405 262.705c.998 0 1.922.376 2.605 1.059a3.65 3.65 0 0 1 1.057 2.606l-.026 27.047a3.666 3.666 0 0 1-3.661 3.658l-110.027.007c-.998 0-1.922-.376-2.605-1.059s-1.058-1.608-1.057-2.605l.026-27.048a3.665 3.665 0 0 1 3.661-3.657zm98.483-223.297s-33.404 101.399-33.764 102.505c-4.658 14.299-10.456 32.094-21.676 39.806l-44.589 30.644c-7.91 5.436-13.047 12.927-15.268 22.265l-3.349 14.079-74.13.005.225-.896c4.751-18.933 9.665-38.51 14.221-57.857 6.339-26.917 10.9-40.272 45.008-49.634a7.019 7.019 0 0 0 2.231-1.065l39.612-28.454c3.258-2.34 7.255-3.266 11.255-2.612 4 .656 7.492 2.811 9.832 6.069s3.268 7.255 2.612 11.255-2.811 7.492-6.069 9.832l-52.644 37.814a7 7 0 0 0-1.601 9.769 6.999 6.999 0 0 0 9.769 1.601l52.643-37.814c6.295-4.522 10.457-11.247 11.718-18.938s-.536-15.393-5.058-21.688a29.085 29.085 0 0 0-5.785-6.013l25.915-61.171c8.304-19.601 18.729-29.248 27.889-25.806 7.878 2.962 14.503 15.681 11.003 26.304z" fill="#bb0b0b" data-original="#bb0b0b"></path></g></svg>