<svg xmlns="http://www.w3.org/2000/svg" version="1.1" xmlns:xlink="http://www.w3.org/1999/xlink" xmlns:svgjs="http://svgjs.com/svgjs" width="512" height="512" x="0" y="0" viewBox="0 0 511.995 511.995" style="enable-background:new 0 0 512 512" xml:space="preserve" class=""><g><path d="M248.978 356.379h-3.159a9.477 9.477 0 0 1-9.477-9.477v-45.979h-45.979a9.477 9.477 0 0 0-9.477 9.477v2.542c0 14.871-12.168 27.49-27.038 27.29-14.505-.196-26.312-12.122-26.312-26.673V310.4a9.477 9.477 0 0 0-9.477-9.477H72.081v154.785a9.477 9.477 0 0 0 9.477 9.477h36.502a9.477 9.477 0 0 1 9.477 9.477v2.542c0 14.872 12.169 27.491 27.039 27.29 14.505-.197 26.311-12.123 26.311-26.673v-3.159a9.477 9.477 0 0 1 9.477-9.477h45.979v-45.979a9.477 9.477 0 0 1 9.477-9.477h3.159c14.671 0 26.675-12.004 26.675-26.675-.002-14.671-12.005-26.675-26.676-26.675z" style="stroke-width:15;stroke-linecap:round;stroke-linejoin:round;stroke-miterlimit:10;" fill="none" stroke="#bb0b0b" stroke-width="15" stroke-linecap="round" stroke-linejoin="round" stroke-miterlimit="10" data-original="#000000" opacity="1"></path><path d="M412.621 356.379h-2.541a9.477 9.477 0 0 1-9.477-9.477V310.4a9.477 9.477 0 0 0-9.477-9.477h-36.502a9.477 9.477 0 0 1-9.477-9.477v-2.542c0-14.871-12.168-27.49-27.038-27.29-14.505.196-26.312 12.122-26.312 26.672v3.159a9.477 9.477 0 0 1-9.477 9.477h-45.979v45.979a9.477 9.477 0 0 0 9.477 9.477h2.541c14.872 0 27.492 12.169 27.29 27.039-.196 14.505-12.122 26.311-26.672 26.311h-3.159a9.477 9.477 0 0 0-9.477 9.477v45.979h154.785a9.477 9.477 0 0 0 9.477-9.477v-36.502a9.477 9.477 0 0 1 9.477-9.477h3.159c14.55 0 26.476-11.805 26.672-26.311.202-14.869-12.418-27.038-27.29-27.038z" style="stroke-width:15;stroke-linecap:round;stroke-linejoin:round;stroke-miterlimit:10;" fill="none" stroke="#bb0b0b" stroke-width="15" stroke-linecap="round" stroke-linejoin="round" stroke-miterlimit="10" data-original="#000000" opacity="1"></path><path d="M132.93 136.662H81.558a9.477 9.477 0 0 0-9.477 9.477v36.502a9.477 9.477 0 0 1-9.477 9.477h-2.541c-14.872 0-27.492 12.169-27.29 27.039.196 14.505 12.122 26.311 26.672 26.311h3.159a9.477 9.477 0 0 1 9.477 9.477v45.979h45.979a9.477 9.477 0 0 1 9.477 9.477v2.542c0 14.872 12.169 27.491 27.039 27.289 14.505-.197 26.311-12.123 26.311-26.672v-3.16a9.477 9.477 0 0 1 9.477-9.477h45.979v-45.979a9.477 9.477 0 0 0-9.477-9.477h-3.159c-14.55 0-26.476-11.805-26.672-26.311-.202-14.871 12.418-27.039 27.29-27.039h2.541a9.477 9.477 0 0 0 9.477-9.477v-36.502a9.477 9.477 0 0 0-9.477-9.477H167.93M479.224 104.253V56.287a9.477 9.477 0 0 0-9.477-9.477h-36.502a9.477 9.477 0 0 1-9.477-9.477v-2.542c0-14.872-12.168-27.491-27.038-27.29-14.505.196-26.312 12.122-26.312 26.672v3.159a9.477 9.477 0 0 1-9.477 9.477h-37.555a8.424 8.424 0 0 0-8.424 8.424v37.555a9.477 9.477 0 0 1-9.477 9.477h-2.541c-14.872 0-27.492 12.168-27.29 27.039.196 14.505 12.122 26.311 26.672 26.311h3.159c5.233 0 9.477 4.243 9.477 9.477v37.555a8.424 8.424 0 0 0 8.424 8.424h37.555c5.233 0 9.477-4.243 9.477-9.477v-2.542c0-14.872 12.168-27.491 27.039-27.29 14.505.197 26.311 12.123 26.311 26.672v3.159a9.477 9.477 0 0 0 9.477 9.477H470.8a8.425 8.425 0 0 0 8.424-8.424v-63.394" style="stroke-width:15;stroke-linecap:round;stroke-linejoin:round;stroke-miterlimit:10;" fill="none" stroke="#bb0b0b" stroke-width="15" stroke-linecap="round" stroke-linejoin="round" stroke-miterlimit="10" data-original="#000000" opacity="1"></path></g></svg>