<svg xmlns="http://www.w3.org/2000/svg" version="1.1" xmlns:xlink="http://www.w3.org/1999/xlink" xmlns:svgjs="http://svgjs.com/svgjs" width="512" height="512" x="0" y="0" viewBox="0 0 1706.66 1706.66" style="enable-background:new 0 0 512 512" xml:space="preserve" class=""><g><g id="Layer_x0020_1"><path d="m605.65 755.86h-134.44c-27.71 0-20-40.3-20-77.23-35.67-11.43-68.74-29.9-96.96-54.15-33.84 18.83-65.32 45.34-79.31 21.97l-67.22-112.25c-14.98-25.02 26.38-38.29 59.06-56.47-7.4-35.26-7.38-71.72-.02-106.95-32.7-18.2-74.02-31.46-59.04-56.47l67.22-112.25c13.99-23.37 45.46 3.13 79.33 21.99 28.22-24.25 61.28-42.72 96.94-54.15 0-36.94-7.72-77.25 20-77.25l134.44-.01c27.72 0 20 40.31 20 77.25 35.68 11.44 68.74 29.9 96.94 54.15 33.85-18.83 65.35-45.35 79.33-21.97l67.23 112.25c14.97 25.01-26.48 38.35-59.06 56.47 7.39 35.21 7.35 71.75 0 106.95 32.61 18.14 74.04 31.45 59.06 56.47l-67.22 112.25c-13.99 23.37-45.49-3.15-79.29-21.96-28.22 24.25-61.29 42.72-96.98 54.17 0 36.96 7.72 77.19-20.01 77.19zm-114.44-39.99h94.44c0-34.19-6.49-66 14.96-71.58 95.33-24.8 101.52-76.96 128.94-61.73l48.02 26.72 46.67-77.91c-87.37-48.6-48.59-20.25-48.59-107.09 0-86.86-38.77-58.52 48.59-107.11l-46.67-77.92c-30.69 17.07-56.02 38.66-71.63 23.7-70.92-67.97-120.3-45.76-120.3-78.04v-52.26l-94.44-.01c0 34.21 6.5 66.04-14.96 71.62-95.3 24.79-101.48 76.97-128.9 61.72l-48.04-26.73-46.67 77.91c87.39 48.61 48.58 20.25 48.58 107.12 0 86.84 38.81 58.49-48.58 107.11l46.67 77.91c30.76-17.12 56-38.66 71.61-23.7 70.96 68 120.31 45.76 120.31 78.04v52.23h-.02z" fill="#bb0b0b" data-original="#000000" class=""></path><path d="m538.45 547.47c-70.07 0-127.08-55.28-127.08-123.22s57-123.22 127.08-123.22 127.08 55.28 127.08 123.22-57.01 123.22-127.08 123.22zm0-206.44c-114.74 0-114.74 166.44 0 166.44s114.74-166.44 0-166.44z" fill="#bb0b0b" data-original="#000000" class=""></path><path d="m1686.65 1500.7h-1576.93c-11.04 0-20-8.97-20-20v-1255.91c0-26.33 40-26.33 40 0v1235.89h1556.94c26.34 0 26.31 40.02 0 40.02z" fill="#bb0b0b" data-original="#000000" class=""></path><path d="m1563.89 1500.7c-11.04 0-20-8.97-20-20v-727.09c0-9.8-7.96-17.76-17.76-17.76h-132.2c-9.81 0-17.76 7.98-17.76 17.76v727.09c0 26.33-40 26.32-40 0v-727.09c0-31.85 25.92-57.76 57.78-57.76h132.2c31.87 0 57.78 25.91 57.78 57.76v727.09c-.02 11.04-8.98 20-20.03 20z" fill="#bb0b0b" data-original="#000000" class=""></path><path d="m1214.51 1500.7c-11.04 0-20-8.97-20-20v-538.24c0-9.63-8.13-17.76-17.75-17.76h-132.22c-9.79 0-17.75 7.96-17.75 17.76v538.24c0 26.33-40 26.32-40 0v-538.24c0-31.86 25.92-57.78 57.76-57.78h132.22c31.85 0 57.76 25.91 57.76 57.78v538.24c-.02 11.04-8.98 20-20.02 20z" fill="#bb0b0b" data-original="#000000" class=""></path><path d="m865.14 1500.7c-11.04 0-20-8.97-20-20v-424.94c0-9.63-8.14-17.76-17.78-17.76h-132.2c-9.8 0-17.78 7.96-17.78 17.76v424.94c0 26.33-40 26.32-40 0v-424.94c0-31.86 25.91-57.78 57.78-57.78h132.2c31.85 0 57.78 25.92 57.78 57.78v424.94c0 11.04-8.96 20-20 20z" fill="#bb0b0b" data-original="#000000" class=""></path><path d="m515.74 1500.7c-11.04 0-20-8.97-20-20v-311.63c0-9.63-8.14-17.76-17.76-17.76h-132.21c-9.8 0-17.76 7.96-17.76 17.76v311.63c0 26.33-40 26.32-40 0v-311.63c0-31.86 25.91-57.78 57.76-57.78h132.21c31.85 0 57.76 25.91 57.76 57.78v311.63c0 11.04-8.96 20-20 20z" fill="#bb0b0b" data-original="#000000" class=""></path><path d="m292.02 1085.87c-20.31 0-27.72-27.12-10.03-37.33l1156.26-667.57c22.77-13.17 42.81 21.48 20 34.63l-1156.25 667.6c-3.15 1.81-6.58 2.68-9.98 2.68z" fill="#bb0b0b" data-original="#000000" class=""></path><path d="m1294.1 631.32c-15.85 0-25.86-18.35-16.2-31.72l127.96-176.81-217.11 22.4c-26.11 2.56-30.32-37.09-4.09-39.8l261.55-26.99c16.99-1.73 28.43 17.54 18.26 31.61l-154.15 213.03c-3.92 5.43-10.01 8.29-16.22 8.29z" fill="#bb0b0b" data-original="#000000" class=""></path><path d="m1408.11 1614.03c-11.04 0-20-8.97-20-20v-89.7c0-26.33 40-26.32 40 0v89.7c.01 11.03-8.96 20-20 20z" fill="#bb0b0b" data-original="#000000" class=""></path><path d="m1153.15 1614.03c-11.04 0-20-8.97-20-20v-89.7c0-26.33 40-26.32 40 0v89.7c0 11.03-8.96 20-20 20z" fill="#bb0b0b" data-original="#000000" class=""></path><path d="m898.17 1614.03c-11.04 0-20-8.97-20-20v-89.7c0-26.33 40-26.32 40 0v89.7c.02 11.03-8.95 20-20 20z" fill="#bb0b0b" data-original="#000000" class=""></path><path d="m643.22 1614.03c-11.04 0-20-8.97-20-20v-89.7c0-26.33 40-26.32 40 0v89.7c0 11.03-8.96 20-20 20z" fill="#bb0b0b" data-original="#000000" class=""></path><path d="m388.26 1614.03c-11.04 0-20-8.97-20-20v-89.7c0-26.33 40-26.32 40 0v89.7c0 11.03-8.94 20-20 20z" fill="#bb0b0b" data-original="#000000" class=""></path><path d="m109.72 1382.67h-89.7c-26.33 0-26.33-40 0-40h89.7c26.32 0 26.33 40 0 40z" fill="#bb0b0b" data-original="#000000" class=""></path><path d="m109.72 1127.72h-89.7c-26.33 0-26.33-40 0-40h89.7c26.32 0 26.33 40 0 40z" fill="#bb0b0b" data-original="#000000" class=""></path><path d="m109.72 872.73h-89.7c-26.33 0-26.33-40 0-40h89.7c26.32 0 26.33 40 0 40z" fill="#bb0b0b" data-original="#000000" class=""></path><path d="m109.72 617.78h-89.7c-26.33 0-26.33-40 0-40h89.7c26.32 0 26.33 40 0 40z" fill="#bb0b0b" data-original="#000000" class=""></path><path d="m109.72 362.81h-89.7c-26.33 0-26.33-40 0-40h89.7c26.32 0 26.33 40 0 40z" fill="#bb0b0b" data-original="#000000" class=""></path></g></g></svg>