<svg xmlns="http://www.w3.org/2000/svg" version="1.1" xmlns:xlink="http://www.w3.org/1999/xlink" xmlns:svgjs="http://svgjs.com/svgjs" width="512" height="512" x="0" y="0" viewBox="0 0 128 128" style="enable-background:new 0 0 512 512" xml:space="preserve" class=""><g><path d="m58.03 66.314 8.282-8.283a1.748 1.748 0 0 0 0-2.474L61.9 51.145a26.638 26.638 0 0 0 2.169-5.232h6.236a1.75 1.75 0 0 0 1.75-1.75V32.451a1.75 1.75 0 0 0-1.75-1.75h-6.222a26.431 26.431 0 0 0-2.176-5.237l4.405-4.406a1.749 1.749 0 0 0 0-2.475L58.03 10.3a1.748 1.748 0 0 0-2.474 0l-4.406 4.407a26.431 26.431 0 0 0-5.237-2.176V6.307a1.749 1.749 0 0 0-1.75-1.75H32.45a1.749 1.749 0 0 0-1.75 1.75v6.235a26.669 26.669 0 0 0-5.231 2.17L21.058 10.3a1.749 1.749 0 0 0-2.475 0L10.3 18.583a1.749 1.749 0 0 0 0 2.475l4.41 4.411a26.688 26.688 0 0 0-2.17 5.232H6.307a1.749 1.749 0 0 0-1.75 1.75v11.712a1.749 1.749 0 0 0 1.75 1.75h6.223a26.424 26.424 0 0 0 2.177 5.237L10.3 55.557a1.748 1.748 0 0 0 0 2.474l8.281 8.283a1.752 1.752 0 0 0 2.475 0l4.406-4.407a26.486 26.486 0 0 0 5.238 2.177v6.224a1.75 1.75 0 0 0 1.75 1.75h11.713a1.75 1.75 0 0 0 1.75-1.75v-6.236a26.669 26.669 0 0 0 5.231-2.17l4.412 4.412a1.75 1.75 0 0 0 2.474 0Zm-5.361-7.837a1.748 1.748 0 0 0-2.153-.254 23.168 23.168 0 0 1-6.76 2.8 1.752 1.752 0 0 0-1.343 1.7v5.83H34.2v-5.814a1.75 1.75 0 0 0-1.345-1.7 23.02 23.02 0 0 1-6.755-2.811 1.751 1.751 0 0 0-2.157.252L19.82 62.6l-5.806-5.808 4.12-4.121a1.751 1.751 0 0 0 .252-2.156 23.007 23.007 0 0 1-2.809-6.759 1.75 1.75 0 0 0-1.7-1.345h-5.82V34.2h5.829a1.751 1.751 0 0 0 1.7-1.343 23.118 23.118 0 0 1 2.8-6.758 1.753 1.753 0 0 0-.254-2.155l-4.118-4.124 5.806-5.806 4.124 4.124a1.751 1.751 0 0 0 2.154.254 23.164 23.164 0 0 1 6.759-2.8 1.752 1.752 0 0 0 1.343-1.7V8.057h8.213v5.819a1.75 1.75 0 0 0 1.345 1.7 23.014 23.014 0 0 1 6.759 2.808 1.746 1.746 0 0 0 2.156-.252l4.12-4.12L62.6 19.82l-4.12 4.121a1.753 1.753 0 0 0-.252 2.157 22.981 22.981 0 0 1 2.808 6.758 1.75 1.75 0 0 0 1.7 1.345h5.819v8.212h-5.83a1.752 1.752 0 0 0-1.7 1.344 23.155 23.155 0 0 1-2.8 6.759 1.748 1.748 0 0 0 .254 2.153l4.121 4.125-5.807 5.806Z" fill="#bb0b0b" data-original="#000000" class="" opacity="1"></path><path d="M38.307 23.158a15.149 15.149 0 1 0 15.149 15.149 15.166 15.166 0 0 0-15.149-15.149Zm0 26.8a11.649 11.649 0 1 1 11.649-11.651 11.663 11.663 0 0 1-11.649 11.649ZM121.693 82.087h-6.224a26.421 26.421 0 0 0-2.176-5.237l4.406-4.407a1.748 1.748 0 0 0 0-2.474l-8.282-8.281a1.749 1.749 0 0 0-2.475 0l-4.406 4.405a26.494 26.494 0 0 0-5.236-2.177v-6.224a1.75 1.75 0 0 0-1.75-1.75H83.837a1.75 1.75 0 0 0-1.75 1.75v6.236a26.652 26.652 0 0 0-5.232 2.17l-4.411-4.41a1.748 1.748 0 0 0-2.474 0l-8.283 8.281a1.75 1.75 0 0 0 0 2.474l4.413 4.412a26.578 26.578 0 0 0-2.169 5.232h-6.238a1.75 1.75 0 0 0-1.75 1.75v11.712a1.75 1.75 0 0 0 1.75 1.75h6.224a26.431 26.431 0 0 0 2.176 5.237l-4.406 4.406a1.751 1.751 0 0 0 0 2.475l8.283 8.283a1.748 1.748 0 0 0 2.474 0l4.406-4.4a26.406 26.406 0 0 0 5.237 2.176v6.224a1.749 1.749 0 0 0 1.75 1.75h11.712a1.749 1.749 0 0 0 1.75-1.75v-6.235a26.645 26.645 0 0 0 5.232-2.171l4.411 4.411a1.749 1.749 0 0 0 2.475 0l8.282-8.281a1.749 1.749 0 0 0 0-2.475l-4.411-4.412a26.669 26.669 0 0 0 2.17-5.231h6.235a1.749 1.749 0 0 0 1.75-1.75V83.837a1.749 1.749 0 0 0-1.75-1.75Zm-1.75 11.713h-5.829a1.751 1.751 0 0 0-1.7 1.343 23.164 23.164 0 0 1-2.8 6.759 1.752 1.752 0 0 0 .254 2.154l4.125 4.125-5.807 5.806-4.124-4.124a1.754 1.754 0 0 0-2.154-.254 23.181 23.181 0 0 1-6.76 2.8 1.751 1.751 0 0 0-1.343 1.7v5.829h-8.218v-5.819a1.75 1.75 0 0 0-1.345-1.7 23.014 23.014 0 0 1-6.759-2.808 1.747 1.747 0 0 0-2.156.252l-4.12 4.12-5.807-5.803 4.12-4.121a1.75 1.75 0 0 0 .252-2.157 23.005 23.005 0 0 1-2.807-6.758 1.75 1.75 0 0 0-1.7-1.345h-5.822v-8.212h5.829a1.752 1.752 0 0 0 1.7-1.344 23.155 23.155 0 0 1 2.8-6.759 1.748 1.748 0 0 0-.254-2.153L65.4 71.206l5.807-5.806 4.124 4.124a1.746 1.746 0 0 0 2.153.254 23.168 23.168 0 0 1 6.76-2.8 1.752 1.752 0 0 0 1.343-1.7v-5.83H93.8v5.819a1.75 1.75 0 0 0 1.345 1.7 23.026 23.026 0 0 1 6.758 2.809 1.748 1.748 0 0 0 2.157-.252l4.12-4.124 5.807 5.807-4.121 4.121a1.75 1.75 0 0 0-.252 2.156 22.992 22.992 0 0 1 2.807 6.758 1.75 1.75 0 0 0 1.7 1.346h5.819Z" fill="#bb0b0b" data-original="#000000" class="" opacity="1"></path><path d="M89.693 74.544a15.149 15.149 0 1 0 15.149 15.149 15.166 15.166 0 0 0-15.149-15.149Zm0 26.8a11.649 11.649 0 1 1 11.649-11.649 11.662 11.662 0 0 1-11.649 11.647ZM76.711 20.857A44.9 44.9 0 0 1 101.5 39.189a7.7 7.7 0 1 0 3.069-1.7A48.388 48.388 0 0 0 77.7 17.5a1.75 1.75 0 1 0-.988 3.357ZM110.8 44.874a4.172 4.172 0 1 1-4.172-4.172 4.176 4.176 0 0 1 4.172 4.172ZM51.289 107.143a44.9 44.9 0 0 1-24.784-18.332 7.7 7.7 0 1 0-3.069 1.7A48.385 48.385 0 0 0 50.3 110.5a1.732 1.732 0 0 0 .495.071 1.75 1.75 0 0 0 .493-3.428ZM17.2 83.126a4.172 4.172 0 1 1 4.172 4.174 4.176 4.176 0 0 1-4.172-4.174Z" fill="#bb0b0b" data-original="#000000" class="" opacity="1"></path></g></svg>