<svg xmlns="http://www.w3.org/2000/svg" version="1.1" xmlns:xlink="http://www.w3.org/1999/xlink" xmlns:svgjs="http://svgjs.com/svgjs" width="512" height="512" x="0" y="0" viewBox="0 0 76 96" style="enable-background:new 0 0 512 512" xml:space="preserve" fill-rule="evenodd" class=""><g><path d="M53.338 9.661h17.34a1.5 1.5 0 0 1 1.5 1.5V91a1.5 1.5 0 0 1-1.5 1.5H5.322a1.5 1.5 0 0 1-1.5-1.5V11.161a1.5 1.5 0 0 1 1.5-1.5h13.84a1.501 1.501 0 0 0 0-3H5.322a4.5 4.5 0 0 0-4.5 4.5V91a4.5 4.5 0 0 0 4.5 4.5h65.356a4.5 4.5 0 0 0 4.5-4.5V11.161a4.5 4.5 0 0 0-4.5-4.5H53.229a3.338 3.338 0 0 0-3.227-2.486h-.003a.336.336 0 0 1-.336-.336v-.003A3.336 3.336 0 0 0 46.327.5H29.673a3.336 3.336 0 0 0-3.336 3.336v.003a.336.336 0 0 1-.336.336h-.003a3.336 3.336 0 0 0-3.336 3.336v4.812a3.5 3.5 0 0 0 3.5 3.5h23.676a3.5 3.5 0 0 0 3.5-3.5zM54.5 73.416h-3.502a3.498 3.498 0 0 0-3.5 3.5v7.62a3.503 3.503 0 0 0 3.5 3.5h7.62a3.5 3.5 0 0 0 3.5-3.5v-3.501a1.501 1.501 0 0 0-3 0v3.501a.5.5 0 0 1-.5.5h-7.62a.504.504 0 0 1-.354-.146.504.504 0 0 1-.146-.354v-7.62a.503.503 0 0 1 .5-.5H54.5a1.5 1.5 0 0 0 0-3zm-41.671 10.67h15.039a1.5 1.5 0 0 0 0-3H12.829a1.5 1.5 0 0 0 0 3zm43.039-2.299 8.891-8.891a1.5 1.5 0 1 0-2.121-2.121l-8.891 8.891a1.501 1.501 0 0 0 0 2.121 1.501 1.501 0 0 0 2.121 0zm-43.039-5.371H39.45a1.501 1.501 0 0 0 0-3H12.829a1.5 1.5 0 0 0 0 3zM54.5 49.066h-3.502a3.498 3.498 0 0 0-3.5 3.5v7.62a3.502 3.502 0 0 0 3.5 3.5h7.62a3.5 3.5 0 0 0 3.5-3.5v-3.501a1.501 1.501 0 0 0-3 0v3.501a.5.5 0 0 1-.5.5h-7.62a.504.504 0 0 1-.354-.146.504.504 0 0 1-.146-.354v-7.62a.503.503 0 0 1 .5-.5H54.5a1.5 1.5 0 0 0 0-3zm-41.671 10.67h15.039a1.5 1.5 0 0 0 0-3H12.829a1.501 1.501 0 0 0 0 3zm43.039-2.299 8.891-8.891a1.5 1.5 0 1 0-2.121-2.121l-8.891 8.891a1.501 1.501 0 0 0 0 2.121 1.501 1.501 0 0 0 2.121 0zm-43.039-5.371H39.45a1.501 1.501 0 0 0 0-3H12.829a1.501 1.501 0 0 0 0 3zM54.5 24.716h-3.502a3.503 3.503 0 0 0-3.5 3.501v7.619a3.502 3.502 0 0 0 3.5 3.5h7.62a3.5 3.5 0 0 0 3.5-3.5v-3.501a1.501 1.501 0 0 0-3 0v3.501a.5.5 0 0 1-.5.5h-7.62a.504.504 0 0 1-.354-.146.504.504 0 0 1-.146-.354v-7.619a.504.504 0 0 1 .5-.501H54.5a1.5 1.5 0 0 0 0-3zm-41.671 10.67h15.039a1.5 1.5 0 0 0 0-3H12.829a1.501 1.501 0 0 0 0 3zm43.039-2.299 8.891-8.891a1.5 1.5 0 1 0-2.121-2.121l-8.891 8.891a1.501 1.501 0 0 0 0 2.121 1.501 1.501 0 0 0 2.121 0zm-43.039-5.371H39.45a1.501 1.501 0 0 0 0-3H12.829a1.501 1.501 0 0 0 0 3zm37.17-20.541h.003c.186 0 .336.151.336.336v4.812a.5.5 0 0 1-.5.5H26.162a.5.5 0 0 1-.5-.5V7.511c0-.185.15-.336.336-.336h.003a3.336 3.336 0 0 0 3.336-3.336v-.003c0-.186.15-.336.336-.336h16.654c.186 0 .336.15.336.336v.003a3.336 3.336 0 0 0 3.336 3.336z" fill="#bb0b0b" data-original="#000000" opacity="1" class=""></path></g></svg>