<svg xmlns="http://www.w3.org/2000/svg" version="1.1" xmlns:xlink="http://www.w3.org/1999/xlink" xmlns:svgjs="http://svgjs.com/svgjs" width="512" height="512" x="0" y="0" viewBox="0 0 480 480" style="enable-background:new 0 0 512 512" xml:space="preserve" class=""><g><path d="M215 164c0 57.897 47.103 105 105 105s105-47.103 105-105S377.897 59 320 59s-105 47.103-105 105zm194 0c0 49.075-39.925 89-89 89s-89-39.925-89-89 39.925-89 89-89 89 39.925 89 89zm-89-54a8 8 0 0 1 8 8v3.376c9.311 3.303 16 12.195 16 22.624a8 8 0 0 1-16 0c0-4.411-3.589-8-8-8s-8 3.589-8 8v3.237a7.966 7.966 0 0 0 5.614 7.636l9.544 2.982C337.232 161.004 344 170.21 344 180.763V184c0 11.519-8.159 21.166-19 23.473V210a8 8 0 0 1-16 0v-4.68c-7.714-3.996-13-12.05-13-21.32a8 8 0 0 1 16 0c0 4.411 3.589 8 8 8s8-3.589 8-8v-3.237a7.966 7.966 0 0 0-5.614-7.636l-9.544-2.982C302.768 166.996 296 157.79 296 147.237V144c0-10.429 6.689-19.321 16-22.624V118a8 8 0 0 1 8-8zm130 212v102c0 30.879-25.122 56-56 56H86c-30.878 0-56-25.121-56-56V32C30 14.355 44.355 0 62 0h260c17.645 0 32 14.355 32 32a8 8 0 0 1-16 0c0-8.822-7.178-16-16-16H62c-8.822 0-16 7.178-16 16v392c0 22.056 17.944 40 40 40h268.862C344.467 453.828 338 439.658 338 424V299a8 8 0 0 1 16 0v125c0 22.056 17.944 40 40 40s40-17.944 40-40V322c0-8.822-7.178-16-16-16h-34a8 8 0 0 1 0-16h34c17.645 0 32 14.355 32 32zM100 215a8 8 0 0 1 8-8h68a8 8 0 0 1 0 16h-68a8 8 0 0 1-8-8zm0-90a8 8 0 0 1 8-8h68a8 8 0 0 1 0 16h-68a8 8 0 0 1-8-8zm184 180a8 8 0 0 1-8 8H108a8 8 0 0 1 0-16h168a8 8 0 0 1 8 8zm0 84a8 8 0 0 1-8 8H108a8 8 0 0 1 0-16h168a8 8 0 0 1 8 8z" fill="#bb0b0b" data-original="#000000" opacity="1" class=""></path></g></svg>