<svg xmlns="http://www.w3.org/2000/svg" version="1.1" xmlns:xlink="http://www.w3.org/1999/xlink" xmlns:svgjs="http://svgjs.com/svgjs" width="512" height="512" x="0" y="0" viewBox="0 0 512 512" style="enable-background:new 0 0 512 512" xml:space="preserve" class=""><g><path d="M483.956 500H252.148c-10.482 0-20.002-5.542-24.845-14.464-4.623-8.518-4.216-18.477 1.088-26.639l115.882-178.16c5.159-7.916 14.047-12.639 23.779-12.639s18.62 4.723 23.775 12.633l115.884 178.163c5.306 8.165 5.713 18.123 1.09 26.641-4.843 8.923-14.363 14.465-24.845 14.465zM368.052 284.092c-4.305 0-8.184 2.008-10.376 5.372L241.799 467.615c-2.086 3.21-2.247 6.963-.44 10.292 2.073 3.82 6.106 6.1 10.788 6.1h231.808c4.682 0 8.715-2.28 10.788-6.1 1.807-3.33 1.646-7.082-.442-10.295L378.424 289.458c-2.188-3.358-6.067-5.366-10.372-5.366z" fill="#bb0b0b" data-original="#000000" class="" opacity="1"></path><path d="M368.052 432.029a7.997 7.997 0 0 1-7.997-7.997v-75.968a7.997 7.997 0 0 1 15.994 0v75.968a7.998 7.998 0 0 1-7.997 7.997zM368.052 468.014a7.997 7.997 0 0 1-7.997-7.997v-3.998a7.997 7.997 0 0 1 15.994 0v3.998a7.998 7.998 0 0 1-7.997 7.997zM232.109 396.252h-79.966a8.204 8.204 0 0 1-8.204-8.204v-22.801a167.824 167.824 0 0 1-31.666-13.128L96.131 368.26a8.205 8.205 0 0 1-11.603 0l-56.536-56.536a8.205 8.205 0 0 1 0-11.603l16.142-16.142a167.837 167.837 0 0 1-13.129-31.667H8.204A8.204 8.204 0 0 1 0 244.108v-79.966a8.204 8.204 0 0 1 8.204-8.204h22.801a167.799 167.799 0 0 1 13.129-31.667L27.992 108.13a8.205 8.205 0 0 1 0-11.603l56.536-56.536a8.205 8.205 0 0 1 11.603 0l16.142 16.142a167.837 167.837 0 0 1 31.667-13.129v-22.8A8.204 8.204 0 0 1 152.144 12h79.966a8.204 8.204 0 0 1 8.204 8.204v22.801a167.799 167.799 0 0 1 31.667 13.129l16.142-16.142a8.205 8.205 0 0 1 11.603 0l56.536 56.536a8.205 8.205 0 0 1 0 11.603l-16.142 16.142a167.786 167.786 0 0 1 13.128 31.666h22.801a8.204 8.204 0 0 1 8.204 8.204v79.966a8.204 8.204 0 0 1-8.204 8.204h-22.798a164.07 164.07 0 0 1-3.8 11.187 8.204 8.204 0 1 1-15.335-5.837 146.682 146.682 0 0 0 4.96-15.598 8.204 8.204 0 0 1 7.946-6.161h20.823v-63.557h-20.823a8.203 8.203 0 0 1-7.942-6.148 151.449 151.449 0 0 0-16.233-39.143 8.205 8.205 0 0 1 1.261-9.977l14.75-14.75-44.933-44.933-14.75 14.75a8.205 8.205 0 0 1-9.977 1.261 151.478 151.478 0 0 0-39.143-16.233 8.204 8.204 0 0 1-6.148-7.943V28.408H160.35v20.823a8.206 8.206 0 0 1-6.148 7.943 151.463 151.463 0 0 0-39.143 16.233 8.205 8.205 0 0 1-9.977-1.261l-14.75-14.75-44.933 44.933 14.75 14.75a8.205 8.205 0 0 1 1.261 9.977 151.478 151.478 0 0 0-16.233 39.143 8.204 8.204 0 0 1-7.943 6.148H16.409v63.557h20.824a8.206 8.206 0 0 1 7.943 6.148 151.463 151.463 0 0 0 16.233 39.143 8.205 8.205 0 0 1-1.261 9.977l-14.75 14.75 44.933 44.933 14.75-14.75a8.205 8.205 0 0 1 9.977-1.261 151.498 151.498 0 0 0 39.143 16.233 8.204 8.204 0 0 1 6.148 7.942v20.823h63.557V359.02a8.204 8.204 0 0 1 6.148-7.942 151.47 151.47 0 0 0 39.144-16.233 8.205 8.205 0 0 1 9.977 1.261l7.277 7.277a8.205 8.205 0 0 1-11.603 11.603l-2.867-2.867a167.768 167.768 0 0 1-31.667 13.128v22.801a8.206 8.206 0 0 1-8.206 8.204z" fill="#bb0b0b" data-original="#000000" class="" opacity="1"></path><path d="M192.126 296.295c-12.439 0-24.51-2.438-35.879-7.246-10.976-4.643-20.832-11.287-29.294-19.749s-15.107-18.318-19.749-29.295c-4.808-11.368-7.246-23.44-7.246-35.879s2.438-24.51 7.246-35.879c4.643-10.976 11.287-20.832 19.749-29.294s18.318-15.107 29.294-19.749c11.368-4.808 23.44-7.246 35.879-7.246s24.51 2.438 35.879 7.246c10.976 4.643 20.832 11.287 29.294 19.749s15.106 18.318 19.749 29.294c4.808 11.368 7.246 23.44 7.246 35.879s-2.438 24.51-7.246 35.879c-4.643 10.976-11.287 20.832-19.749 29.295-8.462 8.462-18.318 15.106-29.294 19.749-11.368 4.808-23.44 7.246-35.879 7.246zm0-167.929c-41.774 0-75.76 33.986-75.76 75.76s33.986 75.76 75.76 75.76 75.76-33.986 75.76-75.76-33.985-75.76-75.76-75.76z" fill="#bb0b0b" data-original="#000000" class="" opacity="1"></path></g></svg>