<svg xmlns="http://www.w3.org/2000/svg" version="1.1" xmlns:xlink="http://www.w3.org/1999/xlink" xmlns:svgjs="http://svgjs.com/svgjs" width="50" height="50" x="0" y="0" viewBox="0 0 512 512" style="enable-background:new 0 0 512 512" xml:space="preserve" class=""><g><path d="M161.709 166.141c.691-7.918 7.065-14.16 14.985-14.82l20.352-1.696c3.566-16.449 10.073-31.772 18.897-45.483l-13.23-15.636c-5.134-6.067-5.227-14.988-.117-21.076a150.174 150.174 0 0 1 8.81-9.643 149.883 149.883 0 0 1 9.643-8.81c6.087-5.11 15.008-5.018 21.076.116l15.636 13.231c13.711-8.823 29.035-15.33 45.483-18.897l1.696-20.352c.66-7.921 6.902-14.295 14.82-14.985 4.303-.376 8.65-.59 13.05-.59 4.401 0 8.748.214 13.049.589 7.918.691 14.16 7.064 14.82 14.985l1.696 20.352c16.449 3.566 31.773 10.073 45.483 18.897l15.636-13.231c6.067-5.134 14.988-5.227 21.076-.116a149.883 149.883 0 0 1 9.643 8.81 149.883 149.883 0 0 1 8.81 9.643c5.11 6.087 5.018 15.008-.117 21.076l-13.23 15.636c8.823 13.711 15.33 29.035 18.897 45.483l20.352 1.696c7.92.66 14.294 6.902 14.985 14.82.375 4.301.589 8.648.589 13.049s-.214 8.747-.589 13.048c-.691 7.918-7.065 14.16-14.985 14.82l-20.352 1.696c-3.566 16.449-10.073 31.773-18.897 45.483l13.23 15.635c5.134 6.067 5.227 14.989.117 21.076a150.442 150.442 0 0 1-8.81 9.643 149.883 149.883 0 0 1-9.643 8.81c-6.087 5.11-15.008 5.017-21.076-.117l-15.636-13.23c-13.711 8.823-29.035 15.33-45.483 18.897l-1.696 20.352c-.66 7.921-6.902 14.295-14.82 14.985-4.301.375-8.648.589-13.049.589s-8.748-.214-13.048-.589c-7.918-.691-14.16-7.064-14.82-14.985l-1.696-20.352c-16.448-3.566-31.773-10.073-45.483-18.897l-15.636 13.23c-6.067 5.134-14.988 5.227-21.076.117a150.174 150.174 0 0 1-9.643-8.81 150.149 150.149 0 0 1-8.81-9.643c-5.11-6.087-5.018-15.009.117-21.076l13.23-15.635c-8.823-13.711-15.33-29.035-18.897-45.483l-20.352-1.696c-7.92-.66-14.294-6.902-14.985-14.82a150.076 150.076 0 0 1-.589-13.048c-.001-4.4.212-8.746.587-13.048z" style="stroke-width:15;stroke-linecap:round;stroke-linejoin:round;stroke-miterlimit:10;" fill="none" stroke="#bb0b0b" stroke-width="15" stroke-linecap="round" stroke-linejoin="round" stroke-miterlimit="10" data-original="#bb0b0b" class=""></path><circle cx="136.593" cy="375.407" r="49.054" style="stroke-width:15;stroke-linecap:round;stroke-linejoin:round;stroke-miterlimit:10;" fill="none" stroke="#bb0b0b" stroke-width="15" stroke-linecap="round" stroke-linejoin="round" stroke-miterlimit="10" data-original="#bb0b0b" class=""></circle><path d="M261.452 336.402a129.17 129.17 0 0 1 4.001 16.536c1.375 7.934-3.451 15.654-11.101 18.166l-19.754 6.487c-.344 15.528-4.34 30.966-12.014 44.953l13.84 15.468c5.369 6.001 5.689 15.099.531 21.282a129.208 129.208 0 0 1-7.864 8.61 129.232 129.232 0 0 1-8.61 7.864c-6.183 5.158-15.282 4.838-21.282-.531l-15.468-13.84c-13.988 7.674-29.425 11.671-44.953 12.014l-6.487 19.754c-2.512 7.65-10.232 12.476-18.166 11.101a129.17 129.17 0 0 1-22.503-6.03c-7.558-2.776-11.831-10.815-10.181-18.697l4.261-20.362c-6.565-3.994-12.807-8.724-18.482-14.398-5.675-5.675-10.404-11.917-14.398-18.482L32.46 430.56c-7.882 1.65-15.921-2.623-18.697-10.181a129.092 129.092 0 0 1-6.03-22.503c-1.375-7.934 3.451-15.654 11.101-18.165l19.754-6.487c.344-15.528 4.34-30.966 12.014-44.953l-13.84-15.468c-5.369-6.001-5.689-15.099-.531-21.283a129.193 129.193 0 0 1 16.473-16.473c6.183-5.158 15.282-4.838 21.283.531l15.468 13.84c13.988-7.674 29.425-11.671 44.953-12.014l6.487-19.754c2.512-7.65 10.232-12.476 18.165-11.101a129.17 129.17 0 0 1 16.519 3.996M281.86 105.116c14.487-9.984 32.025-15.858 50.95-15.858 49.669 0 89.933 40.264 89.933 89.933s-40.264 89.933-89.933 89.933-89.933-40.264-89.933-89.933c0-18.925 5.874-36.463 15.858-50.95" style="stroke-width:15;stroke-linecap:round;stroke-linejoin:round;stroke-miterlimit:10;" fill="none" stroke="#bb0b0b" stroke-width="15" stroke-linecap="round" stroke-linejoin="round" stroke-miterlimit="10" data-original="#bb0b0b" class=""></path></g></svg>