<svg xmlns="http://www.w3.org/2000/svg" version="1.1" xmlns:xlink="http://www.w3.org/1999/xlink" xmlns:svgjs="http://svgjs.com/svgjs" width="50" height="50" x="0" y="0" viewBox="0 0 128 128" style="enable-background:new 0 0 512 512" xml:space="preserve" class=""><g><path d="M110.07 73.5a47 47 0 0 0 0-19l9.41-10.28a2 2 0 0 0 .39-2.08 59.94 59.94 0 0 0-9.09-15.72 2 2 0 0 0-2-.7l-13.6 3a47.44 47.44 0 0 0-16.45-9.51L74.54 5.95a2 2 0 0 0-1.61-1.37 60.91 60.91 0 0 0-18.14 0A2 2 0 0 0 53.17 6l-3.68 13h-7.75a8 8 0 1 0 0 4H51a2 2 0 0 0 1.92-1.45l3.74-13.2a56.8 56.8 0 0 1 14.44 0l4.13 13.06a2 2 0 0 0 1.32 1.31 43.36 43.36 0 0 1 16.69 9.65 2 2 0 0 0 1.79.49l13.38-3a56 56 0 0 1 7.25 12.55l-9.25 10.11a2 2 0 0 0-.47 1.79 43 43 0 0 1 0 19.28 2 2 0 0 0 .47 1.79l9.25 10.11a56 56 0 0 1-7.25 12.55L95 95.13a2 2 0 0 0-1.79.49 43.36 43.36 0 0 1-16.69 9.65 2 2 0 0 0-1.32 1.31l-4.13 13.06a56.84 56.84 0 0 1-14.44 0l-3.74-13.2A2 2 0 0 0 51 105h-9.26a8 8 0 1 0 0 4h7.75l3.68 13a2 2 0 0 0 1.63 1.43 60.66 60.66 0 0 0 18.14 0 2 2 0 0 0 1.61-1.37l4.19-13.28a47.44 47.44 0 0 0 16.45-9.51l13.6 3a2 2 0 0 0 2-.7 59.94 59.94 0 0 0 9.09-15.72 2 2 0 0 0-.39-2.08zM34 25a4 4 0 1 1 4-4 4 4 0 0 1-4 4zm0 86a4 4 0 1 1 4-4 4 4 0 0 1-4 4z" fill="#bb0b0b" data-original="#bb0b0b" class=""></path><path d="M63.47 86a22 22 0 0 0 .4-44H19.74a8 8 0 1 0 0 4h31.41a21.94 21.94 0 0 0-9.55 16h-4.86a8 8 0 1 0 0 4h6.76a2 2 0 0 0 2-2 18 18 0 1 1 18 18H19.74a8 8 0 1 0 0 4zM12 48a4 4 0 1 1 4-4 4 4 0 0 1-4 4zm17 20a4 4 0 1 1 4-4 4 4 0 0 1-4 4zM12 88a4 4 0 1 1 4-4 4 4 0 0 1-4 4z" fill="#bb0b0b" data-original="#bb0b0b" class=""></path></g></svg>