<svg xmlns="http://www.w3.org/2000/svg" version="1.1" xmlns:xlink="http://www.w3.org/1999/xlink" xmlns:svgjs="http://svgjs.com/svgjs" width="512" height="512" x="0" y="0" viewBox="0 0 8.467 8.467" style="enable-background:new 0 0 512 512" xml:space="preserve" class=""><g><path d="M7.581 4.302a.132.132 35.28 0 1 .154.108L8.2 7.026a.132.132 35.28 0 1-.107.153l-.924.162a.132.132 35.28 0 1-.153-.108L6.55 4.617a.132.132 35.28 0 1 .107-.153zm-.084.283-.663.116.419 2.356.663-.115z" fill="#bb0b0b" data-original="#000000" opacity="1" class=""></path><path fill-rule="evenodd" d="m7.674 4.825.046.26-.924.163-.045-.261z" fill="#bb0b0b" data-original="#000000" opacity="1" class=""></path><path d="M3.53 4.302a.132.132 54.72 0 0-.153.108l-.465 2.616a.132.132 54.72 0 0 .107.153l.924.162a.132.132 54.72 0 0 .154-.108l.465-2.616a.132.132 54.72 0 0-.107-.153zm.085.283.663.116-.419 2.356-.663-.115z" fill="#bb0b0b" data-original="#000000" opacity="1" class=""></path><path fill-rule="evenodd" d="m3.438 4.825-.046.26.924.163.045-.261z" fill="#bb0b0b" data-original="#000000" opacity="1" class=""></path><path d="M5.562 3.573a1.588 1.588 0 0 0-1.446.91.132.132 0 1 0 .24.112 1.323 1.323 0 0 1 2.4.016.132.132 0 0 0 .24-.11 1.588 1.588 0 0 0-1.434-.928z" fill="#bb0b0b" data-original="#000000" opacity="1" class=""></path><path d="M5.82.265a.132.132 0 0 0-.132.132v.53a.132.132 0 0 0 .133.132c.11 0 .198.087.198.198a.196.196 0 0 1-.198.199.132.132 0 0 0-.133.132v.397a.132.132 0 0 0 .133.132c.11 0 .198.087.198.198a.196.196 0 0 1-.198.199h-.265c-.364 0-.661.298-.661.661s.297.662.661.662a.132.132 0 1 0 0-.265.395.395 0 0 1-.397-.397c0-.22.176-.397.397-.397h.265a.465.465 0 0 0 .463-.463c0-.202-.148-.345-.331-.407v-.243c.183-.062.33-.205.33-.408 0-.203-.147-.346-.33-.408V.53h.351c.193 0 .357.137.391.327l.649 3.6a.132.132 0 0 0 .26-.047l-.649-3.6a.663.663 0 0 0-.65-.544z" fill="#bb0b0b" data-original="#000000" opacity="1" class=""></path><path d="M5.688 3.176a.132.132 0 0 1-.132.132.132.132 0 0 1-.132-.132.132.132 0 0 1 .132-.133.132.132 0 0 1 .132.133z" fill="#bb0b0b" data-original="#000000" opacity="1" class=""></path><g fill-rule="evenodd"><path d="M4.808.265c-.32 0-.595.23-.651.544l-.65 3.6.261.047.65-3.6a.396.396 0 0 1 .39-.327h.351v.32c-.182.062-.33.205-.33.408 0 .203.148.346.33.408v.243c-.182.062-.33.205-.33.407 0 .255.208.463.463.463h.396v-.264h-.396a.196.196 0 0 1-.199-.199c0-.11.087-.198.199-.198h.132v-.662h-.132a.196.196 0 0 1-.199-.198c0-.111.087-.198.199-.198h.132V.265zM.132 5.557v.264h1.059a.66.66 0 0 1 .661.662v.926c0 .51.416.926.926.926h.006a.896.896 0 0 0 .854-.932v-.259h-.265v.271a.626.626 0 0 1-.598.654.66.66 0 0 1-.658-.66v-.927a.928.928 0 0 0-.926-.926z" fill="#bb0b0b" data-original="#000000" opacity="1" class=""></path></g></g></svg>