<svg xmlns="http://www.w3.org/2000/svg" version="1.1" xmlns:xlink="http://www.w3.org/1999/xlink" xmlns:svgjs="http://svgjs.com/svgjs" width="512" height="512" x="0" y="0" viewBox="0 0 512 512" style="enable-background:new 0 0 512 512" xml:space="preserve" class=""><g><path d="M72.847 237.96c0 42.508 34.619 77.094 77.164 77.094 42.508 0 77.097-34.585 77.097-77.094 0-42.549-34.589-77.168-77.097-77.168-42.545 0-77.164 34.619-77.164 77.168zm139.005 0c0 34.097-27.743 61.837-61.84 61.837-34.135 0-61.907-27.739-61.907-61.837 0-34.138 27.773-61.911 61.907-61.911 34.097 0 61.84 27.773 61.84 61.911zM241.494 500.113c32.879 0 55.517-33.328 43.126-63.297-22.602-54.7-75.451-90.041-134.624-90.041-59.091 0-111.936 35.278-134.62 89.877-12.516 30.131 10.234 63.461 43.059 63.461zM29.463 442.508c20.315-48.889 67.625-80.476 120.533-80.476 52.975 0 100.288 31.643 120.529 80.61 8.404 20.361-7.451 42.214-29.032 42.214H58.435c-21.671 0-37.433-21.976-28.972-42.348zM410.409 11.887h-72.337c-49.459 0-89.702 40.24-89.702 89.702v82.074a7.627 7.627 0 0 0 7.629 7.629H410.41c49.459 0 89.702-40.24 89.702-89.702s-40.244-89.703-89.703-89.703zm0 164.148H263.627V101.59c0-41.048 33.397-74.445 74.445-74.445h72.337c41.048 0 74.445 33.397 74.445 74.445s-33.397 74.445-74.445 74.445z" fill="#bb0b0b" data-original="#000000" opacity="1"></path><path d="M374.189 57.517c-18.081 0-32.786 14.754-32.786 32.891 0 15.487 10.763 28.426 25.158 31.896v15.73c0 4.213 3.412 7.629 7.629 7.629s7.629-3.416 7.629-7.629v-15.723c14.451-3.462 25.262-16.408 25.262-31.903-.002-18.137-14.76-32.891-32.892-32.891zm0 50.52c-9.662 0-17.529-7.908-17.529-17.63s7.867-17.634 17.529-17.634c9.722 0 17.634 7.912 17.634 17.634s-7.912 17.63-17.634 17.63z" fill="#bb0b0b" data-original="#000000" opacity="1"></path></g></svg>