<svg xmlns="http://www.w3.org/2000/svg" version="1.1" xmlns:xlink="http://www.w3.org/1999/xlink" xmlns:svgjs="http://svgjs.com/svgjs" width="512" height="512" x="0" y="0" viewBox="0 0 512 512" style="enable-background:new 0 0 512 512" xml:space="preserve" class=""><g><path d="M484.446 0H27.554C12.361 0 0 12.361 0 27.554v154.107a7.515 7.515 0 1 0 15.03 0V27.554c0-6.906 5.618-12.524 12.524-12.524h456.892c6.906 0 12.524 5.618 12.524 12.524v304.775a7.515 7.515 0 1 0 15.03 0V27.554C512 12.361 499.64 0 484.446 0zM504.485 354.872a7.515 7.515 0 0 0-7.515 7.515v122.059c0 6.906-5.618 12.524-12.524 12.524H27.554c-6.906 0-12.524-5.618-12.524-12.524V211.72a7.516 7.516 0 0 0-15.03 0v272.727C0 499.639 12.361 512 27.554 512h456.892C499.64 512 512 499.639 512 484.446V362.387a7.515 7.515 0 0 0-7.515-7.515z" fill="#bb0b0b" data-original="#000000" class="" opacity="1"></path><path d="M55.654 120.701v54.369a7.516 7.516 0 0 0 7.515 7.515h54.369a7.515 7.515 0 0 0 7.515-7.515v-54.369a7.515 7.515 0 0 0-7.515-7.515h-54.37a7.514 7.514 0 0 0-7.514 7.515zm15.029 7.514h39.34v39.34h-39.34zM55.654 266.089a7.516 7.516 0 0 0 7.515 7.515h54.369a7.516 7.516 0 0 0 7.515-7.515V211.72a7.515 7.515 0 0 0-7.515-7.515h-54.37a7.516 7.516 0 0 0-7.515 7.515v54.369zm15.029-46.855h39.34v39.34h-39.34zM55.654 357.108a7.516 7.516 0 0 0 7.515 7.515h54.369a7.515 7.515 0 0 0 7.515-7.515v-54.369a7.515 7.515 0 0 0-7.515-7.515h-54.37a7.516 7.516 0 0 0-7.515 7.515v54.369zm15.029-46.855h39.34v39.34h-39.34zM55.654 448.127a7.516 7.516 0 0 0 7.515 7.515h54.369a7.516 7.516 0 0 0 7.515-7.515v-54.37a7.515 7.515 0 0 0-7.515-7.515h-54.37a7.515 7.515 0 0 0-7.515 7.515v54.37zm15.029-46.855h39.34v39.341h-39.34zM115.302 66.627c0-13.757-11.192-24.949-24.949-24.949S65.404 52.87 65.404 66.627s11.192 24.949 24.949 24.949 24.949-11.192 24.949-24.949zm-34.869 0c0-5.47 4.45-9.92 9.919-9.92 5.47 0 9.92 4.45 9.92 9.92s-4.45 9.919-9.92 9.919c-5.469.001-9.919-4.449-9.919-9.919zM147.016 120.701v54.369a7.516 7.516 0 0 0 7.515 7.515H208.9a7.515 7.515 0 0 0 7.515-7.515v-54.369a7.516 7.516 0 0 0-7.515-7.515h-54.369a7.515 7.515 0 0 0-7.515 7.515zm15.029 7.514h39.34v39.34h-39.34zM147.016 266.089a7.516 7.516 0 0 0 7.515 7.515H208.9a7.516 7.516 0 0 0 7.515-7.515V211.72a7.516 7.516 0 0 0-7.515-7.515h-54.369a7.516 7.516 0 0 0-7.515 7.515zm15.029-46.855h39.34v39.34h-39.34zM147.016 357.108a7.516 7.516 0 0 0 7.515 7.515H208.9a7.515 7.515 0 0 0 7.515-7.515v-54.369a7.516 7.516 0 0 0-7.515-7.515h-54.369a7.516 7.516 0 0 0-7.515 7.515zm15.029-46.855h39.34v39.34h-39.34zM147.016 448.127a7.516 7.516 0 0 0 7.515 7.515H208.9a7.516 7.516 0 0 0 7.515-7.515v-54.37a7.516 7.516 0 0 0-7.515-7.515h-54.369a7.515 7.515 0 0 0-7.515 7.515zm15.029-46.855h39.34v39.341h-39.34zM206.664 66.627c0-13.757-11.192-24.949-24.949-24.949s-24.949 11.192-24.949 24.949 11.192 24.949 24.949 24.949c13.758 0 24.949-11.192 24.949-24.949zm-34.868 0c0-5.47 4.45-9.92 9.92-9.92s9.919 4.45 9.919 9.92-4.45 9.919-9.919 9.919c-5.47.001-9.92-4.449-9.92-9.919zM238.379 120.701v54.369a7.516 7.516 0 0 0 7.515 7.515h54.37a7.514 7.514 0 0 0 7.515-7.515v-54.369a7.515 7.515 0 0 0-7.515-7.515h-54.37a7.514 7.514 0 0 0-7.515 7.515zm15.029 7.514h39.34v39.34h-39.34zM245.893 246.419a7.516 7.516 0 0 0-7.515 7.515v12.155a7.516 7.516 0 0 0 7.515 7.515h54.37a7.515 7.515 0 0 0 7.515-7.515V211.72a7.515 7.515 0 0 0-7.515-7.515h-54.37a7.516 7.516 0 0 0-7.515 7.515v12.155a7.516 7.516 0 0 0 15.03 0v-4.641h39.34v39.34h-39.34v-4.641a7.515 7.515 0 0 0-7.515-7.514zM238.379 357.108a7.516 7.516 0 0 0 7.515 7.515h54.37a7.514 7.514 0 0 0 7.515-7.515v-54.369a7.515 7.515 0 0 0-7.515-7.515h-54.37a7.516 7.516 0 0 0-7.515 7.515zm15.029-46.855h39.34v39.34h-39.34zM238.379 448.127a7.516 7.516 0 0 0 7.515 7.515h54.37a7.515 7.515 0 0 0 7.515-7.515v-54.37a7.515 7.515 0 0 0-7.515-7.515h-54.37a7.515 7.515 0 0 0-7.515 7.515zm15.029-46.855h39.34v39.341h-39.34zM298.027 66.627c0-13.757-11.192-24.949-24.949-24.949-13.756 0-24.949 11.192-24.949 24.949s11.192 24.949 24.949 24.949c13.758 0 24.949-11.192 24.949-24.949zm-34.869 0c0-5.47 4.45-9.92 9.92-9.92s9.92 4.45 9.92 9.92-4.45 9.919-9.92 9.919c-5.469.001-9.92-4.449-9.92-9.919zM329.742 120.701v54.369a7.515 7.515 0 0 0 7.515 7.515h54.369a7.514 7.514 0 0 0 7.515-7.515v-54.369a7.515 7.515 0 0 0-7.515-7.515h-54.369a7.514 7.514 0 0 0-7.515 7.515zm15.029 7.514h39.34v39.34h-39.34zM329.742 266.089a7.515 7.515 0 0 0 7.515 7.515h54.369a7.515 7.515 0 0 0 7.515-7.515V211.72a7.515 7.515 0 0 0-7.515-7.515h-54.369a7.515 7.515 0 0 0-7.515 7.515zm15.029-46.855h39.34v39.34h-39.34zM329.742 357.108a7.515 7.515 0 0 0 7.515 7.515h54.369a7.514 7.514 0 0 0 7.515-7.515v-54.369a7.515 7.515 0 0 0-7.515-7.515h-54.369a7.515 7.515 0 0 0-7.515 7.515zm15.029-46.855h39.34v39.34h-39.34zM329.742 448.127a7.515 7.515 0 0 0 7.515 7.515h54.369a7.515 7.515 0 0 0 7.515-7.515v-54.37a7.515 7.515 0 0 0-7.515-7.515h-54.369a7.514 7.514 0 0 0-7.515 7.515zm15.029-46.855h39.34v39.341h-39.34zM389.389 66.627c0-13.757-11.192-24.949-24.948-24.949-13.757 0-24.949 11.192-24.949 24.949s11.192 24.949 24.949 24.949 24.948-11.192 24.948-24.949zm-34.867 0c0-5.47 4.45-9.92 9.92-9.92s9.919 4.45 9.919 9.92-4.449 9.919-9.919 9.919c-5.47.001-9.92-4.449-9.92-9.919zM448.371 172.834c13.757 0 24.949-11.192 24.949-24.949s-11.192-24.949-24.949-24.949c-13.756 0-24.948 11.192-24.948 24.949s11.192 24.949 24.948 24.949zm0-34.868c5.47 0 9.92 4.45 9.92 9.92s-4.45 9.919-9.92 9.919-9.919-4.45-9.919-9.919c0-5.47 4.449-9.92 9.919-9.92zM448.371 263.853c13.757 0 24.949-11.192 24.949-24.949s-11.192-24.949-24.949-24.949c-13.756 0-24.948 11.192-24.948 24.949s11.192 24.949 24.948 24.949zm0-34.868c5.47 0 9.92 4.45 9.92 9.919 0 5.47-4.45 9.92-9.92 9.92s-9.919-4.45-9.919-9.92 4.449-9.919 9.919-9.919zM448.371 354.872c13.757 0 24.949-11.192 24.949-24.949s-11.192-24.949-24.949-24.949c-13.756 0-24.948 11.192-24.948 24.949s11.192 24.949 24.948 24.949zm0-34.868c5.47 0 9.92 4.45 9.92 9.919s-4.45 9.92-9.92 9.92-9.919-4.45-9.919-9.92 4.449-9.919 9.919-9.919zM448.371 445.891c13.757 0 24.949-11.192 24.949-24.949s-11.192-24.949-24.949-24.949c-13.756 0-24.948 11.192-24.948 24.949s11.192 24.949 24.948 24.949zm0-34.868c5.47 0 9.92 4.45 9.92 9.919 0 5.47-4.45 9.919-9.92 9.919s-9.919-4.45-9.919-9.919 4.449-9.919 9.919-9.919z" fill="#bb0b0b" data-original="#000000" class="" opacity="1"></path></g></svg>