<svg xmlns="http://www.w3.org/2000/svg" version="1.1" xmlns:xlink="http://www.w3.org/1999/xlink" xmlns:svgjs="http://svgjs.com/svgjs" width="512" height="512" x="0" y="0" viewBox="0 0 66 66" style="enable-background:new 0 0 512 512" xml:space="preserve" class=""><g><path d="M30.4 19c-.2-.3-.5-.4-.9-.4-1.9.2-3.6.5-5.1 1-1.6.5-2.8 1.8-3 3.2l-2.1 10.8c-.1.3 0 .6.2.8s.5.4.8.4h25.6c.3 0 .6-.1.8-.4.2-.2.3-.5.2-.8l-2.1-10.7c-.2-1.5-1.4-2.8-3.1-3.3-1.6-.5-3.3-.8-5.1-1-.3 0-.7.1-.9.4s-.3.6-.2.9c.5 1.8 1.1 3.8-2.4 7.5-2.4-2.6-3.2-5-2.4-7.5 0-.3-.1-.6-.3-.9zm1.9 10.5c.4.4 1 .4 1.4 0 4-3.8 4.4-6.4 4-8.7 1.2.2 2.3.4 3.3.7.9.3 1.6.9 1.7 1.7l1.9 9.5H21.4l1.9-9.6c.1-.7.8-1.4 1.6-1.6 1-.3 2.2-.6 3.4-.7-.4 3 1 5.8 4 8.7zM28.1 11.4c.9 1.9 2.5 4.5 4.9 4.5 2.3 0 4-2.6 4.9-4.5 1.8-.7 2-4.4.5-5.7C37.7 2.9 35.5 1 33 1s-4.7 1.9-5.4 4.7c-1.5 1.4-1.3 5 .5 5.7zm.8-4.2c.3-.1.5-.4.5-.7.5-2 1.9-3.5 3.6-3.5 1.9 0 3.2 1.8 3.6 3.5.1.3.3.5.5.7.4.3.4 1.9 0 2.3-.4 0-.7.3-.9.6-1 2.3-2.3 3.7-3.3 3.7s-2.3-1.5-3.3-3.7c-.1-.3-.5-.6-.9-.6-.2-.4-.2-1.9.2-2.3z" fill="#bb0b0b" data-original="#000000" opacity="1"></path><path d="M55.3 48.8c-.9-.9-2.1-1.4-3.5-1.4-1 0-1.9.3-2.7.8L44 43.1c4.5-3.4 7.2-8.8 7.2-14.5 0-6.8-3.7-13-9.7-16.1-.5-.3-1.1-.1-1.4.4s-.1 1.1.4 1.4c5.3 2.8 8.7 8.3 8.7 14.4 0 9-7.3 16.3-16.3 16.3-8.9 0-16.3-7.2-16.3-16.3 0-6.1 3.4-11.7 8.8-14.5.5-.3.7-.9.4-1.3-.3-.5-.9-.7-1.3-.4-6.1 3.1-9.9 9.4-9.9 16.3 0 5.7 2.7 11.1 7.2 14.5l-5.1 5.1c-1.9-1.2-4.5-1.1-6.2.6-1.9 1.9-1.9 5 0 6.9s5 1.9 6.9 0c1.7-1.7 1.9-4.3.6-6.1l5.4-5.4c2.5 1.5 5.4 2.4 8.4 2.6v8.5c-2.2.5-3.9 2.4-3.9 4.8 0 2.7 2.2 4.9 4.9 4.9s4.9-2.2 4.9-4.9c0-2.4-1.7-4.3-3.9-4.8V47c3-.2 5.8-1 8.4-2.6l5.4 5.4c-2.1 3.2.2 7.6 4.1 7.6 4.5-.2 6.7-5.5 3.6-8.6zm-39.1 5.5c-1.1 1.1-3 1.1-4.1 0s-1.1-3 0-4.1 3-1.1 4.1 0c1.1 1.2 1.1 3 0 4.1zm19.7 5.8c0 1.6-1.3 2.9-2.9 2.9s-2.9-1.3-2.9-2.9 1.3-2.9 2.9-2.9 2.9 1.3 2.9 2.9zm16-4.9c-3.8 0-3.9-5.8 0-5.8.8 0 1.5.3 2 .9 1.8 1.8.5 4.9-2 4.9z" fill="#bb0b0b" data-original="#000000" opacity="1"></path></g></svg>