<svg xmlns="http://www.w3.org/2000/svg" version="1.1" xmlns:xlink="http://www.w3.org/1999/xlink" width="512" height="512" x="0" y="0" viewBox="0 0 550 550" style="enable-background:new 0 0 512 512" xml:space="preserve" class=""><g><path d="M525.25 440.67H25.75a6 6 0 0 1-6-6V85.75a6 6 0 0 1 6-6h68.5a6 6 0 0 1 0 12h-62.5v336.92h487.5V91.75h-63.5a6 6 0 0 1 0-12h69.5a6 6 0 0 1 6 6v348.92a6 6 0 0 1-6 6z" fill="#ffffff" opacity="1" data-original="#000000" class=""></path><path d="M340 502.75H215.5a6 6 0 0 1-5.764-7.667l17.95-62.08a5.997 5.997 0 0 1 7.43-4.097 5.999 5.999 0 0 1 4.097 7.431L223.48 490.75h107.873l-20.165-53.98a6.002 6.002 0 0 1 3.521-7.721 6.004 6.004 0 0 1 7.721 3.521l23.19 62.08a5.998 5.998 0 0 1-5.62 8.1z" fill="#ffffff" opacity="1" data-original="#000000" class=""></path><path d="M363.25 530.5h-174.5a6 6 0 0 1-6-6v-27.75a6 6 0 0 1 6-6h174.5a6 6 0 0 1 6 6v27.75a6 6 0 0 1-6 6zm-168.5-12h162.5v-15.75h-162.5zM525.25 373.75H25.75a6 6 0 0 1 0-12h499.5a6 6 0 0 1 0 12zM475.75 420.25c-9.512 0-17.25-7.738-17.25-17.25s7.738-17.25 17.25-17.25S493 393.488 493 403s-7.738 17.25-17.25 17.25zm0-22.5c-2.895 0-5.25 2.355-5.25 5.25s2.355 5.25 5.25 5.25S481 405.895 481 403s-2.355-5.25-5.25-5.25zM427.75 420.25c-9.512 0-17.25-7.738-17.25-17.25s7.738-17.25 17.25-17.25S445 393.488 445 403s-7.738 17.25-17.25 17.25zm0-22.5c-2.895 0-5.25 2.355-5.25 5.25s2.355 5.25 5.25 5.25S433 405.895 433 403s-2.355-5.25-5.25-5.25zM379.75 420.25c-9.512 0-17.25-7.738-17.25-17.25s7.738-17.25 17.25-17.25S397 393.488 397 403s-7.738 17.25-17.25 17.25zm0-22.5c-2.895 0-5.25 2.355-5.25 5.25s2.355 5.25 5.25 5.25S385 405.895 385 403s-2.355-5.25-5.25-5.25zM130.75 420.25h-81a6 6 0 0 1-6-6v-25.5a6 6 0 0 1 6-6h81a6 6 0 0 1 6 6v25.5a6 6 0 0 1-6 6zm-75-12h69v-13.5h-69zM455.75 340.75H94.25a6 6 0 0 1-6-6V27.25a6 6 0 0 1 6-6h361.5a6 6 0 0 1 6 6v307.5a6 6 0 0 1-6 6zm-355.5-12h349.5V33.25h-349.5z" fill="#ffffff" opacity="1" data-original="#000000" class=""></path><path d="M454.75 109.75h-360a6 6 0 0 1 0-12h360a6 6 0 0 1 0 12zM154 82h-36.75a6 6 0 0 1-6-6V54.25a6 6 0 0 1 6-6H154a6 6 0 0 1 6 6V76a6 6 0 0 1-6 6zm-30.75-12H148v-9.75h-24.75zM214 82h-36.75a6 6 0 0 1-6-6V54.25a6 6 0 0 1 6-6H214a6 6 0 0 1 6 6V76a6 6 0 0 1-6 6zm-30.75-12H208v-9.75h-24.75zM274 82h-36.75a6 6 0 0 1-6-6V54.25a6 6 0 0 1 6-6H274a6 6 0 0 1 6 6V76a6 6 0 0 1-6 6zm-30.75-12H268v-9.75h-24.75zM225.064 280.75a5.98 5.98 0 0 1-4.24-1.755l-62.064-61.997a6.004 6.004 0 0 1 .008-8.499l61.314-61.003a6 6 0 0 1 8.464 8.506l-57.048 56.758 57.806 57.743a5.999 5.999 0 0 1 .005 8.485 5.974 5.974 0 0 1-4.245 1.762zM322.186 280.75a5.999 5.999 0 0 1-4.24-10.245l57.807-57.743-57.048-56.758a5.999 5.999 0 1 1 8.463-8.506l61.314 61.003a6.001 6.001 0 0 1 .009 8.499l-62.064 61.997a5.991 5.991 0 0 1-4.241 1.753zM249.998 283.002a5.977 5.977 0 0 1-2.217-.428 5.999 5.999 0 0 1-3.355-7.793l50.25-126.224a6 6 0 0 1 11.148 4.439l-50.25 126.224a6.003 6.003 0 0 1-5.576 3.782z" fill="#ffffff" opacity="1" data-original="#000000" class=""></path></g></svg>