<svg xmlns="http://www.w3.org/2000/svg" version="1.1" xmlns:xlink="http://www.w3.org/1999/xlink" xmlns:svgjs="http://svgjs.com/svgjs" width="512" height="512" x="0" y="0" viewBox="0 0 64 64" style="enable-background:new 0 0 512 512" xml:space="preserve" class=""><g><path d="M58.144 19.434A28.723 28.723 0 0 1 61 32a28.98 28.98 0 0 1-48.144 21.759l2.172-2.168a1 1 0 0 0-.509-1.689L7.45 48.485a1 1 0 0 0-1.177 1.176l1.407 7.068a1 1 0 0 0 1.686.513l2.073-2.068A30.979 30.979 0 0 0 63 32a30.7 30.7 0 0 0-3.054-13.434ZM9.276 54.506l-.749-3.765 3.766.755ZM5.856 44.566A28.723 28.723 0 0 1 3 32a28.994 28.994 0 0 1 48.153-21.768l-2.181 2.177a1 1 0 0 0 .509 1.689l7.069 1.417a1 1 0 0 0 1.177-1.176L56.32 7.271a1 1 0 0 0-1.686-.513L52.57 8.817A30.993 30.993 0 0 0 1 32a30.7 30.7 0 0 0 3.054 13.434ZM54.724 9.494l.749 3.765-3.766-.759Z" fill="#ffffff" data-original="#000000" class=""></path><path d="M45.271 50.178h.148a4.767 4.767 0 0 0 3.157-8.335l-9.031-8.009a7.986 7.986 0 0 0-10.412-9.554 1 1 0 0 0-.372 1.649l2.345 2.346-2.828 2.828-2.345-2.345a1 1 0 0 0-1.65.372 7.987 7.987 0 0 0 9.554 10.413l8.01 9.03a4.723 4.723 0 0 0 3.424 1.605ZM34.159 37.4a1.025 1.025 0 0 0-.335.057 5.98 5.98 0 0 1-7.992-5.971l1.739 1.74a1.029 1.029 0 0 0 1.414 0l4.243-4.243a1 1 0 0 0 0-1.414l-1.74-1.739a5.98 5.98 0 0 1 5.971 7.992 1 1 0 0 0 .279 1.083l9.512 8.435a2.767 2.767 0 0 1 .12 4.028 2.711 2.711 0 0 1-2.04.809 2.74 2.74 0 0 1-1.987-.93l-8.436-9.511a1 1 0 0 0-.748-.336Z" fill="#ffffff" data-original="#000000" class=""></path><path d="M46.125 37A15.06 15.06 0 1 0 37 46.125l-1.446-1.631a13.045 13.045 0 1 1 8.941-8.941ZM45.956 45.956a1 1 0 1 0-1.415 0 1 1 0 0 0 1.415 0Z" fill="#ffffff" data-original="#000000" class=""></path><path d="M51.061 37A2.943 2.943 0 0 0 54 34.06v-4.12A2.943 2.943 0 0 0 51.061 27a.972.972 0 0 1-.934-.658 18.913 18.913 0 0 0-1.309-3.151.975.975 0 0 1 .193-1.13l.02-.021a2.944 2.944 0 0 0-.018-4.14L46.1 14.986a3.011 3.011 0 0 0-4.161 0 .973.973 0 0 1-1.129.192 18.886 18.886 0 0 0-3.154-1.309.972.972 0 0 1-.656-.929A2.943 2.943 0 0 0 34.061 10h-4.122A2.952 2.952 0 0 0 27 12.981a.913.913 0 0 1-.614.879 18.851 18.851 0 0 0-3.195 1.322.976.976 0 0 1-1.133-.2 3.01 3.01 0 0 0-4.158 0L14.987 17.9a2.945 2.945 0 0 0-.019 4.139l.021.022a.975.975 0 0 1 .194 1.129 18.942 18.942 0 0 0-1.311 3.153.97.97 0 0 1-.933.657A2.943 2.943 0 0 0 10 29.94v4.12A2.943 2.943 0 0 0 12.939 37a.972.972 0 0 1 .934.658 18.913 18.913 0 0 0 1.309 3.151.975.975 0 0 1-.193 1.13l-.02.021a2.944 2.944 0 0 0 .018 4.14l2.913 2.914a3.011 3.011 0 0 0 4.161 0 .976.976 0 0 1 1.129-.192 18.886 18.886 0 0 0 3.154 1.309.972.972 0 0 1 .656.929A2.943 2.943 0 0 0 29.939 54h4.122A2.943 2.943 0 0 0 37 51.06a.972.972 0 0 1 .656-.933 19.01 19.01 0 0 0 2.15-.838l-1.388-1.564c-.446.183-.9.35-1.357.493A2.95 2.95 0 0 0 35 51.06a.941.941 0 0 1-.939.94h-4.122a.941.941 0 0 1-.939-.94 2.95 2.95 0 0 0-2.061-2.842 16.921 16.921 0 0 1-2.818-1.17 2.909 2.909 0 0 0-1.36-.337 2.992 2.992 0 0 0-2.117.888.964.964 0 0 1-1.33 0L16.4 44.686a.943.943 0 0 1 0-1.33.134.134 0 0 0 .02-.021 2.951 2.951 0 0 0 .531-3.457 16.869 16.869 0 0 1-1.17-2.817A2.95 2.95 0 0 0 12.939 35a.941.941 0 0 1-.939-.94v-4.12a.941.941 0 0 1 .939-.94 2.949 2.949 0 0 0 2.842-2.06 16.9 16.9 0 0 1 1.172-2.819 2.954 2.954 0 0 0-.53-3.455l-.022-.022a.943.943 0 0 1 0-1.33l2.913-2.914a.96.96 0 0 1 1.332 0 2.957 2.957 0 0 0 3.476.548 16.884 16.884 0 0 1 2.856-1.182A2.9 2.9 0 0 0 29 12.94a.941.941 0 0 1 .939-.94h4.122a.941.941 0 0 1 .939.94 2.95 2.95 0 0 0 2.061 2.842 16.921 16.921 0 0 1 2.818 1.17 2.955 2.955 0 0 0 3.477-.551.964.964 0 0 1 1.33 0l2.914 2.913a.943.943 0 0 1 0 1.33.134.134 0 0 0-.02.021 2.951 2.951 0 0 0-.531 3.457 16.869 16.869 0 0 1 1.17 2.817A2.95 2.95 0 0 0 51.061 29a.941.941 0 0 1 .939.94v4.12a.951.951 0 0 1-.981.94 2.928 2.928 0 0 0-2.79 2.023 17.56 17.56 0 0 1-.5 1.395l1.559 1.382a18.626 18.626 0 0 0 .852-2.189.928.928 0 0 1 .921-.611Z" fill="#ffffff" data-original="#000000" class=""></path></g></svg>