<svg xmlns="http://www.w3.org/2000/svg" version="1.1" xmlns:xlink="http://www.w3.org/1999/xlink" xmlns:svgjs="http://svgjs.com/svgjs" width="512" height="512" x="0" y="0" viewBox="0 0 64 64" style="enable-background:new 0 0 512 512" xml:space="preserve" class=""><g><path d="M58 55a3.947 3.947 0 0 0-2.019.567l-6.273-6.273-16.415-16.415A2.978 2.978 0 0 0 31.172 32h-.313a2.642 2.642 0 0 0-.818-1.345c-.98-.839-2.629-1.043-5.172-.646a24.569 24.569 0 0 1-5.061-1.748l-1.86-5.577a1 1 0 0 0-1.9.632l2 6a1 1 0 0 0 .545.6c1.937.854 5.361 2.266 6.557 2.073 2.474-.387 3.31-.05 3.586.186.121.1.26.291.26.826 0 .35 0 1-2.5 1a42.207 42.207 0 0 1-8.363-1.46 3.028 3.028 0 0 1-2-1.69l-3.225-7.256a1 1 0 0 0-1.828.812l3.225 7.257a4.985 4.985 0 0 0 3.329 2.815A42.557 42.557 0 0 0 26.5 36c.972 0 3.679 0 4.348-2h.324a1.009 1.009 0 0 1 .707.293L46.586 49H40a5.006 5.006 0 0 1-5-5v-3a1 1 0 0 0 0-2h-1a1 1 0 0 0-1 1v4a7.008 7.008 0 0 0 7 7h3.586l-4.567 4.567A3.947 3.947 0 0 0 37 55a4 4 0 1 0 3.858 5h13.284A3.993 3.993 0 1 0 58 55Zm-9.414-4 5.981 5.981A3.915 3.915 0 0 0 54.142 58H40.858a3.915 3.915 0 0 0-.425-1.019L46.414 51ZM37 61a2 2 0 1 1 2-2 2 2 0 0 1-2 2Zm21 0a2 2 0 1 1 2-2 2 2 0 0 1-2 2Z" fill="#000000" data-original="#000000"></path><path d="M63 40a15.088 15.088 0 0 0-15-15 1.029 1.029 0 0 0-1 1v13h-3a1 1 0 0 0 0 2h17v3a5.006 5.006 0 0 1-5 5h-2a1 1 0 0 0 0 2h2a7.008 7.008 0 0 0 7-7v-4ZM49 27.053a12.98 12.98 0 0 1 7.433 3.1l-5.14 5.14a1 1 0 0 0 1.414 1.414l5.14-5.14a12.973 12.973 0 0 1 3.1 7.433H49ZM3.757 14.97c5.51 1.378 7.423-.757 8.4-5.132.326-1.459.535-2.055.872-2.248C13.288 11.766 16.054 14 19 14c1.632 0 5-1.467 5-6 0-6.091-3.622-7-5.781-7a5.371 5.371 0 0 0-3.371 1.022A4.364 4.364 0 0 0 11.839 1 6.238 6.238 0 0 0 6 7c0 2.617.076 3.509-2.707 6.293a1 1 0 0 0 .464 1.677ZM19 12a3.984 3.984 0 0 1-3.506-2.429 9.54 9.54 0 0 0 4.016-3.427 14.25 14.25 0 0 0 2.344.081A10.061 10.061 0 0 1 22 8c0 3.321-2.366 4-3 4Zm-.781-9a3.312 3.312 0 0 1 2.862 1.238 6.023 6.023 0 0 1-1.7-.163 1.009 1.009 0 0 0-1.3.537 6.818 6.818 0 0 1-3.046 2.956C14.757 3.88 16.189 3 18.219 3ZM8 7a4.189 4.189 0 0 1 3.839-4 2.376 2.376 0 0 1 1.787.6 6.61 6.61 0 0 0-.533 1.928c-2.048.163-2.547 2.349-2.887 3.872-.619 2.771-1.2 4.217-4.229 3.937C8.011 10.934 7.939 9.688 8 7ZM21.368 38.36A2.7 2.7 0 0 1 21 37a1 1 0 0 0-2 0 4.716 4.716 0 0 0 .64 2.368L25.667 49.7a20.5 20.5 0 0 1-22.442-.071C5.984 42.688 10 33.13 10 30v-7c0-4.429 2.693-6 5-6 1.674 0 7 4.762 7 8.081a1.619 1.619 0 0 1-.662 1.167 1 1 0 0 0 1.316 1.5A3.513 3.513 0 0 0 24 24.963C23.966 20.674 17.816 15 15 15c-3.371 0-7 2.5-7 8v7c0 2.818-4.578 13.7-6.93 19.631a1 1 0 0 0 .349 1.182 22.446 22.446 0 0 0 4.857 2.632L5.1 58.537A3.637 3.637 0 0 0 8.64 63a3.242 3.242 0 0 0 3.117-2.312l1.724-5.719a20.353 20.353 0 0 0 4.3-.206l1.54 5.116A4.361 4.361 0 0 0 23.517 63a2.972 2.972 0 0 0 2.895-3.645l-1.594-6.864a22.415 22.415 0 0 0 2.763-1.678 1 1 0 0 0 .283-1.317ZM9.844 60.108A1.253 1.253 0 0 1 8.64 61a1.637 1.637 0 0 1-1.6-2.014l1.135-4.9a22.6 22.6 0 0 0 3.267.7Zm14.62-.3A.972.972 0 0 1 23.517 61a2.374 2.374 0 0 1-2.286-1.7l-1.481-4.917a22.6 22.6 0 0 0 3.216-1.029Z" fill="#000000" data-original="#000000"></path></g></svg>