<svg xmlns="http://www.w3.org/2000/svg" version="1.1" xmlns:xlink="http://www.w3.org/1999/xlink" xmlns:svgjs="http://svgjs.com/svgjs" width="512" height="512" x="0" y="0" viewBox="0 0 682.667 682.667" style="enable-background:new 0 0 512 512" xml:space="preserve" class=""><g><defs><clipPath id="a" clipPathUnits="userSpaceOnUse"><path d="M0 512h512V0H0Z" fill="#bb0b0b" data-original="#000000" opacity="1"></path></clipPath></defs><g clip-path="url(#a)" transform="matrix(1.33333 0 0 -1.33333 0 682.667)"><path d="M0 0v20c0 20.639-16.731 37.37-37.37 37.37h-260.661c-20.639 0-37.37-16.731-37.37-37.37v-422.26c0-20.638 16.731-37.37 37.37-37.37H18.202c20.639 0 37.37 16.732 37.37 37.371v145.354c0 5.37-3.067 10.27-7.898 12.617l-22.778 11.065a11.502 11.502 0 0 0-6.474 10.344v41.249c0 6.35 5.148 11.498 11.499 11.498h11.624c7.747 0 14.027 6.28 14.027 14.028v41.201c0 5.204-2.881 9.98-7.485 12.407L7.484-81.086A14.027 14.027 0 0 0 0-68.678v33.618" style="stroke-width:15;stroke-linecap:round;stroke-linejoin:round;stroke-miterlimit:10;stroke-dasharray:none;stroke-opacity:1" transform="translate(395.915 447.13)" fill="none" stroke="#bb0b0b" stroke-width="15" stroke-linecap="round" stroke-linejoin="round" stroke-miterlimit="10" stroke-dasharray="none" stroke-opacity="" data-original="#000000" opacity="1" class=""></path><path d="M0 0v38.108c0 8.262 6.697 14.959 14.958 14.959h251.44c8.261 0 14.958-6.697 14.958-14.959V-73.168c0-8.262-6.697-14.959-14.958-14.959H14.958C6.697-88.127 0-81.43 0-73.168v38.108" style="stroke-width:15;stroke-linecap:round;stroke-linejoin:round;stroke-miterlimit:10;stroke-dasharray:none;stroke-opacity:1" transform="translate(115.322 137.904)" fill="none" stroke="#bb0b0b" stroke-width="15" stroke-linecap="round" stroke-linejoin="round" stroke-miterlimit="10" stroke-dasharray="none" stroke-opacity="" data-original="#000000" opacity="1" class=""></path><path d="M0 0v62.938a4.972 4.972 0 0 0 4.971 4.971h29.535a4.972 4.972 0 0 0 4.971-4.971V0a4.97 4.97 0 0 0-4.971-4.971H4.971A4.97 4.97 0 0 0 0 0Z" style="stroke-width:15;stroke-linecap:round;stroke-linejoin:round;stroke-miterlimit:10;stroke-dasharray:none;stroke-opacity:1" transform="translate(105.63 398.131)" fill="none" stroke="#bb0b0b" stroke-width="15" stroke-linecap="round" stroke-linejoin="round" stroke-miterlimit="10" stroke-dasharray="none" stroke-opacity="" data-original="#000000" opacity="1" class=""></path><path d="M0 0v62.938a4.972 4.972 0 0 0 4.971 4.971h29.535a4.972 4.972 0 0 0 4.971-4.971V0a4.97 4.97 0 0 0-4.971-4.971H4.971A4.97 4.97 0 0 0 0 0Z" style="stroke-width:15;stroke-linecap:round;stroke-linejoin:round;stroke-miterlimit:10;stroke-dasharray:none;stroke-opacity:1" transform="translate(176.263 398.131)" fill="none" stroke="#bb0b0b" stroke-width="15" stroke-linecap="round" stroke-linejoin="round" stroke-miterlimit="10" stroke-dasharray="none" stroke-opacity="" data-original="#000000" opacity="1" class=""></path><path d="M0 0v62.938a4.972 4.972 0 0 0 4.971 4.971h29.534a4.972 4.972 0 0 0 4.971-4.971V0a4.97 4.97 0 0 0-4.971-4.971H4.971A4.97 4.97 0 0 0 0 0Z" style="stroke-width:15;stroke-linecap:round;stroke-linejoin:round;stroke-miterlimit:10;stroke-dasharray:none;stroke-opacity:1" transform="translate(246.898 398.131)" fill="none" stroke="#bb0b0b" stroke-width="15" stroke-linecap="round" stroke-linejoin="round" stroke-miterlimit="10" stroke-dasharray="none" stroke-opacity="" data-original="#000000" opacity="1" class=""></path><path d="M0 0v62.938a4.972 4.972 0 0 0 4.971 4.971h29.535a4.972 4.972 0 0 0 4.972-4.971V0a4.971 4.971 0 0 0-4.972-4.971H4.971A4.97 4.97 0 0 0 0 0Z" style="stroke-width:15;stroke-linecap:round;stroke-linejoin:round;stroke-miterlimit:10;stroke-dasharray:none;stroke-opacity:1" transform="translate(317.531 398.131)" fill="none" stroke="#bb0b0b" stroke-width="15" stroke-linecap="round" stroke-linejoin="round" stroke-miterlimit="10" stroke-dasharray="none" stroke-opacity="" data-original="#000000" opacity="1" class=""></path></g></g></svg>