<svg xmlns="http://www.w3.org/2000/svg" version="1.1" xmlns:xlink="http://www.w3.org/1999/xlink" xmlns:svgjs="http://svgjs.com/svgjs" width="512" height="512" x="0" y="0" viewBox="0 0 64 64" style="enable-background:new 0 0 512 512" xml:space="preserve" class=""><g><path d="M6 29.91a5 5 0 1 0-5-5 5 5 0 0 0 5 5zm0-8a3 3 0 1 1-3 3 3 3 0 0 1 3-3zM58 20a5 5 0 1 0 5 5 5 5 0 0 0-5-5zm0 8a3 3 0 1 1 3-3 3 3 0 0 1-3 3zM37 6a5 5 0 1 0-5 5 5 5 0 0 0 5-5zm-5 3a3 3 0 1 1 3-3 3 3 0 0 1-3 3zM16 61a5 5 0 1 0-5-5 5 5 0 0 0 5 5zm0-8a3 3 0 1 1-3 3 3 3 0 0 1 3-3zM53 56a5 5 0 1 0-5 5 5 5 0 0 0 5-5zm-5 3a3 3 0 1 1 3-3 3 3 0 0 1-3 3zM39.7 57.84a26.07 26.07 0 0 1-11.52.86l1.74-.87L29 56l-4.47 2.25A1 1 0 0 0 24 59a1 1 0 0 0 .25.85l3.41 3.66 1.46-1.36-1.39-1.5A27.37 27.37 0 0 0 32 61a27.92 27.92 0 0 0 8.3-1.25zM54.63 45.79l-.26-1.88-2 .27.67 5a1 1 0 0 0 .51.74.91.91 0 0 0 .48.13 1 1 0 0 0 .41-.09l4.57-2-.82-1.83-1.92.86A27.82 27.82 0 0 0 60 33h-2a25.86 25.86 0 0 1-3.37 12.79zM9.19 16.77l1.62 1.16a26 26 0 0 1 10-8.4l-.71 1.68L22 12l2-4.6a1 1 0 0 0-.06-.89 1 1 0 0 0-.82-.51l-5-.59-.23 2 2.18.26a27.86 27.86 0 0 0-10.88 9.1zM54 18a1 1 0 0 0 .68-.27 1 1 0 0 0 .32-.83l-.51-5-2 .21.21 2a28.15 28.15 0 0 0-12.41-7.86l-.58 1.91a26.14 26.14 0 0 1 11.46 7.31l-2-.36-.36 2 4.92.9zM9.19 36.9l-3.47-3.59a1 1 0 0 0-.84-.3 1 1 0 0 0-.75.49l-2.48 4.34 1.74 1 .95-1.66a27.69 27.69 0 0 0 5.1 12.41l1.61-1.18A25.8 25.8 0 0 1 6.3 36.78l1.45 1.51zM22 32a10 10 0 0 0 5.5 8.93v3.57a4.5 4.5 0 0 0 9 0v-3.57A10 10 0 1 0 22 32zm12.5 12.5a2.5 2.5 0 0 1-5 0V43h5zM32 24a8 8 0 0 1 3.11 15.37 1 1 0 0 0-.61.92V41H33v-4a1 1 0 0 0-.17-.55l-2.56-3.85 1.49.37a1 1 0 0 0 .48 0l1.76-.43-.87 1.46 1.74 1 2-3.5a1 1 0 0 0-1.11-1.5L32 31l-3.76-1a1 1 0 0 0-1.06.39 1 1 0 0 0 0 1.13L31 37.3V41h-1.5v-.71a1 1 0 0 0-.61-.92A8 8 0 0 1 32 24zM44 31h3v2h-3zM17 31h3v2h-3zM39.77 22.8l2.121-2.121 1.414 1.414-2.12 2.12zM20.68 41.907l2.121-2.12 1.414 1.413-2.12 2.121zM39.774 41.197l1.414-1.415 2.121 2.122-1.414 1.413zM20.677 22.096l1.414-1.414 2.12 2.121-1.413 1.414zM31 17h2v3h-2z" fill="#bb0b0b" data-original="#000000" opacity="1" class=""></path></g></svg>