<svg xmlns="http://www.w3.org/2000/svg" version="1.1" xmlns:xlink="http://www.w3.org/1999/xlink" xmlns:svgjs="http://svgjs.com/svgjs" width="512" height="512" x="0" y="0" viewBox="0 0 682.66669 682.66669" style="enable-background:new 0 0 512 512" xml:space="preserve" class=""><g><defs id="defs502"><clipPath clipPathUnits="userSpaceOnUse" id="clipPath512"><path d="M 0,512 H 512 V 0 H 0 Z" id="path510" fill="#bb0b0b" data-original="#000000"></path></clipPath></defs><g id="g504" transform="matrix(1.3333333,0,0,-1.3333333,0,682.66667)"><g id="g506"><g id="g508" clip-path="url(#clipPath512)"><g id="g514" transform="translate(365.2134,504.5)"><path d="m 0,0 h -218.427 c -19.764,0 -35.786,-16.022 -35.786,-35.787 V -428.5 h 290 V -35.787 C 35.787,-16.022 19.765,0 0,0 Z" style="stroke-width:15;stroke-linecap:round;stroke-linejoin:round;stroke-miterlimit:10;stroke-dasharray:312, 35, 800, 0;stroke-dashoffset:0;stroke-opacity:1" id="path516" fill="none" stroke="#bb0b0b" stroke-width="15" stroke-linecap="round" stroke-linejoin="round" stroke-miterlimit="10" stroke-dasharray="312, 35, 800, 0" stroke-dashoffset="0" stroke-opacity="" data-original="#000000" class=""></path></g><g id="g518" transform="translate(233.5,41.4448)"><path d="M 0,0 H 45" style="stroke-width:15;stroke-linecap:round;stroke-linejoin:round;stroke-miterlimit:10;stroke-dasharray:none;stroke-opacity:1" id="path520" fill="none" stroke="#bb0b0b" stroke-width="15" stroke-linecap="round" stroke-linejoin="round" stroke-miterlimit="10" stroke-dasharray="none" stroke-opacity="" data-original="#000000" class=""></path></g><g id="g522" transform="translate(279.5,337.8345)"><path d="m 0,0 h -47 c -2.761,0 -5,2.239 -5,5 v 47 c 0,2.762 2.239,5 5,5 H 0 c 2.761,0 5,-2.238 5,-5 V 5 C 5,2.239 2.761,0 0,0 Z" style="stroke-width:15;stroke-linecap:round;stroke-linejoin:round;stroke-miterlimit:10;stroke-dasharray:none;stroke-opacity:1" id="path524" fill="none" stroke="#bb0b0b" stroke-width="15" stroke-linecap="round" stroke-linejoin="round" stroke-miterlimit="10" stroke-dasharray="none" stroke-opacity="" data-original="#000000" class=""></path></g><g id="g526" transform="translate(194.4604,337.8345)"><path d="m 0,0 h -47 c -2.761,0 -5,2.239 -5,5 v 47 c 0,2.762 2.239,5 5,5 H 0 c 2.762,0 5,-2.238 5,-5 V 5 C 5,2.239 2.762,0 0,0 Z" style="stroke-width:15;stroke-linecap:round;stroke-linejoin:round;stroke-miterlimit:10;stroke-dasharray:none;stroke-opacity:1" id="path528" fill="none" stroke="#bb0b0b" stroke-width="15" stroke-linecap="round" stroke-linejoin="round" stroke-miterlimit="10" stroke-dasharray="none" stroke-opacity="" data-original="#000000" class=""></path></g><g id="g530" transform="translate(364.5396,337.8345)"><path d="m 0,0 h -47 c -2.762,0 -5,2.239 -5,5 v 47 c 0,2.762 2.238,5 5,5 H 0 c 2.761,0 5,-2.238 5,-5 V 5 C 5,2.239 2.761,0 0,0 Z" style="stroke-width:15;stroke-linecap:round;stroke-linejoin:round;stroke-miterlimit:10;stroke-dasharray:none;stroke-opacity:1" id="path532" fill="none" stroke="#bb0b0b" stroke-width="15" stroke-linecap="round" stroke-linejoin="round" stroke-miterlimit="10" stroke-dasharray="none" stroke-opacity="" data-original="#000000" class=""></path></g><g id="g534" transform="translate(279.5,244.2915)"><path d="m 0,0 h -47 c -2.761,0 -5,2.238 -5,5 v 47 c 0,2.761 2.239,5 5,5 H 0 c 2.761,0 5,-2.239 5,-5 V 5 C 5,2.238 2.761,0 0,0 Z" style="stroke-width:15;stroke-linecap:round;stroke-linejoin:round;stroke-miterlimit:10;stroke-dasharray:none;stroke-opacity:1" id="path536" fill="none" stroke="#bb0b0b" stroke-width="15" stroke-linecap="round" stroke-linejoin="round" stroke-miterlimit="10" stroke-dasharray="none" stroke-opacity="" data-original="#000000" class=""></path></g><g id="g538" transform="translate(194.4604,244.2915)"><path d="m 0,0 h -47 c -2.761,0 -5,2.238 -5,5 v 47 c 0,2.761 2.239,5 5,5 H 0 c 2.762,0 5,-2.239 5,-5 V 5 C 5,2.238 2.762,0 0,0 Z" style="stroke-width:15;stroke-linecap:round;stroke-linejoin:round;stroke-miterlimit:10;stroke-dasharray:none;stroke-opacity:1" id="path540" fill="none" stroke="#bb0b0b" stroke-width="15" stroke-linecap="round" stroke-linejoin="round" stroke-miterlimit="10" stroke-dasharray="none" stroke-opacity="" data-original="#000000" class=""></path></g><g id="g542" transform="translate(364.5396,244.2915)"><path d="m 0,0 h -47 c -2.762,0 -5,2.238 -5,5 v 47 c 0,2.761 2.238,5 5,5 H 0 c 2.761,0 5,-2.239 5,-5 V 5 C 5,2.238 2.761,0 0,0 Z" style="stroke-width:15;stroke-linecap:round;stroke-linejoin:round;stroke-miterlimit:10;stroke-dasharray:none;stroke-opacity:1" id="path544" fill="none" stroke="#bb0b0b" stroke-width="15" stroke-linecap="round" stroke-linejoin="round" stroke-miterlimit="10" stroke-dasharray="none" stroke-opacity="" data-original="#000000" class=""></path></g><g id="g546" transform="translate(369.5396,459.5806)"><path d="m 0,0 c 0,-7.18 -5.82,-13 -13,-13 -7.18,0 -13,5.82 -13,13 0,7.18 5.82,13 13,13 C -5.82,13 0,7.18 0,0 Z" style="stroke-width:15;stroke-linecap:round;stroke-linejoin:round;stroke-miterlimit:10;stroke-dasharray:none;stroke-opacity:1" id="path548" fill="none" stroke="#bb0b0b" stroke-width="15" stroke-linecap="round" stroke-linejoin="round" stroke-miterlimit="10" stroke-dasharray="none" stroke-opacity="" data-original="#000000" class=""></path></g><g id="g550" transform="translate(111,43.2866)"><path d="M 0,0 C 0,-19.765 16.022,-35.787 35.787,-35.787 H 254.213 C 273.978,-35.787 290,-19.765 290,0 V 32.713 H 0 Z" style="stroke-width:15;stroke-linecap:round;stroke-linejoin:round;stroke-miterlimit:10;stroke-dasharray:229, 35, 400, 0;stroke-dashoffset:0;stroke-opacity:1" id="path552" fill="none" stroke="#bb0b0b" stroke-width="15" stroke-linecap="round" stroke-linejoin="round" stroke-miterlimit="10" stroke-dasharray="229, 35, 400, 0" stroke-dashoffset="0" stroke-opacity="" data-original="#000000" class=""></path></g></g></g></g></g></svg>