<svg xmlns="http://www.w3.org/2000/svg" version="1.1" xmlns:xlink="http://www.w3.org/1999/xlink" xmlns:svgjs="http://svgjs.com/svgjs" width="512" height="512" x="0" y="0" viewBox="0 0 682.66669 682.66669" style="enable-background:new 0 0 512 512" xml:space="preserve" class=""><g><defs id="defs3151"><clipPath clipPathUnits="userSpaceOnUse" id="clipPath3161"><path d="M 0,512 H 512 V 0 H 0 Z" id="path3159" fill="#bb0b0b" data-original="#000000"></path></clipPath></defs><g id="g3153" transform="matrix(1.3333333,0,0,-1.3333333,0,682.66667)"><g id="g3155"><g id="g3157" clip-path="url(#clipPath3161)"><g id="g3163" transform="translate(34.4102,191.3496)"><path d="m 0,0 v 191.87 c 0,16.21 9.55,30.91 24.37,37.5 l 180.55,80.24 c 10.61,4.72 22.73,4.72 33.34,0 l 180.55,-80.24 c 14.82,-6.59 24.37,-21.29 24.37,-37.5 v -43.05" style="stroke-width:15;stroke-linecap:round;stroke-linejoin:round;stroke-miterlimit:10;stroke-dasharray:none;stroke-opacity:1" id="path3165" fill="none" stroke="#bb0b0b" stroke-width="15" stroke-linecap="round" stroke-linejoin="round" stroke-miterlimit="10" stroke-dasharray="none" stroke-opacity="" data-original="#000000" class=""></path></g><g id="g3167" transform="translate(477.5898,305.1699)"><path d="m 0,0 v -176.39 c 0,-16.21 -9.55,-30.91 -24.37,-37.5 l -180.55,-80.24 c -10.61,-4.72 -22.73,-4.72 -33.34,0 l -180.55,80.24 c -14.82,6.59 -24.37,21.29 -24.37,37.5 v 27.57" style="stroke-width:15;stroke-linecap:round;stroke-linejoin:round;stroke-miterlimit:10;stroke-dasharray:none;stroke-opacity:1" id="path3169" fill="none" stroke="#bb0b0b" stroke-width="15" stroke-linecap="round" stroke-linejoin="round" stroke-miterlimit="10" stroke-dasharray="none" stroke-opacity="" data-original="#000000" class=""></path></g><g id="g3171" transform="translate(256,394.3926)"><path d="m 0,0 c -76.31,0 -138.392,-62.083 -138.392,-138.393 0,-76.309 62.082,-138.392 138.392,-138.392 76.31,0 138.392,62.083 138.392,138.392 C 138.392,-62.083 76.31,0 0,0 Z m 0,-309.11 c -94.134,0 -170.717,76.584 -170.717,170.717 0,94.134 76.583,170.718 170.717,170.718 94.134,0 170.717,-76.584 170.717,-170.718 C 170.717,-232.526 94.134,-309.11 0,-309.11 Z" style="stroke-width:15;stroke-linecap:round;stroke-linejoin:round;stroke-miterlimit:10;stroke-dasharray:none;stroke-opacity:1" id="path3173" fill="none" stroke="#bb0b0b" stroke-width="15" stroke-linecap="round" stroke-linejoin="round" stroke-miterlimit="10" stroke-dasharray="none" stroke-opacity="" data-original="#000000" class=""></path></g><g id="g3175" transform="translate(324.7798,327.1299)"><path d="m 0,0 c 18.63,-18 30.22,-43.24 30.22,-71.13 0,-54.59 -44.41,-99 -99,-99 -54.59,0 -99,44.41 -99,99 0,54.59 44.41,99 99,99 14.18,0 27.67,-2.99 39.87,-8.39 M -68.78,-4.459 c -36.762,0 -66.671,-29.908 -66.671,-66.671 0,-36.763 29.909,-66.671 66.671,-66.671 36.762,0 66.671,29.908 66.671,66.671 0,36.763 -29.909,66.671 -66.671,66.671 z" style="stroke-width:15;stroke-linecap:round;stroke-linejoin:round;stroke-miterlimit:10;stroke-dasharray:none;stroke-opacity:1" id="path3177" fill="none" stroke="#bb0b0b" stroke-width="15" stroke-linecap="round" stroke-linejoin="round" stroke-miterlimit="10" stroke-dasharray="none" stroke-opacity="" data-original="#000000" class=""></path></g></g></g></g></g></svg>