<svg xmlns="http://www.w3.org/2000/svg" version="1.1" xmlns:xlink="http://www.w3.org/1999/xlink" xmlns:svgjs="http://svgjs.com/svgjs" width="512" height="512" x="0" y="0" viewBox="0 0 512 512" style="enable-background:new 0 0 512 512" xml:space="preserve" class=""><g><path d="M504 275.09a8 8 0 0 0-5.27-7.52L384 225.85V92.23h-.31a7.922 7.922 0 0 0-4.96-9.66l-120-43.63a7.888 7.888 0 0 0-5.46 0l-120 43.63a8.018 8.018 0 0 0-5.06 5.78H128v137.5L13.27 267.57a8.018 8.018 0 0 0-5.06 5.78H8v141.82h.2a7.988 7.988 0 0 0 5.07 9.26l120 43.63a7.854 7.854 0 0 0 5.46 0L256 425.42l117.27 42.64a7.854 7.854 0 0 0 5.46 0l120-43.63a7.985 7.985 0 0 0 4.97-5.38h.3V277.23s-.006-1.416 0-2.14zM128 449.12 24 411.31v-124.8l104 37.82zm8-138.91-96.59-35.12 95.96-34.9 96.6 35.13zm112 101.1-104 37.81V324.33l104-37.82zm0-147.64-104-37.82V101.51l104 37.82zM159.41 90.09 256 54.97l96.59 35.12L256 125.21zM368 101.51v124.34l-104 37.82V139.33zm0 347.61-104-37.81v-124.8l104 37.82zm8-138.91-95.97-34.89 96.6-35.13 95.96 34.9zm112 101.1-104 37.81V324.33l104-37.82z" fill="#bb0b0b" data-original="#000000" class="" opacity="1"></path></g></svg>