<svg xmlns="http://www.w3.org/2000/svg" version="1.1" xmlns:xlink="http://www.w3.org/1999/xlink" xmlns:svgjs="http://svgjs.com/svgjs" width="512" height="512" x="0" y="0" viewBox="0 0 512 512" style="enable-background:new 0 0 512 512" xml:space="preserve" class=""><g><path d="M469.333 64H42.667C19.146 64 0 83.135 0 106.667v256c0 23.531 19.146 42.667 42.667 42.667H224v21.333h-64a10.66 10.66 0 0 0-10.667 10.667A10.66 10.66 0 0 0 160 448.001h192a10.66 10.66 0 0 0 10.667-10.667A10.66 10.66 0 0 0 352 426.667h-64v-21.333h181.333c23.521 0 42.667-19.135 42.667-42.667v-256C512 83.135 492.854 64 469.333 64zM266.667 426.667h-21.333v-21.333h21.333v21.333zm224-64c0 11.76-9.563 21.333-21.333 21.333H42.667c-11.771 0-21.333-9.573-21.333-21.333v-256c0-11.76 9.563-21.333 21.333-21.333h426.667c11.771 0 21.333 9.573 21.333 21.333v256z" fill="#bb0b0b" data-original="#000000" opacity="1" class=""></path></g></svg>