<svg xmlns="http://www.w3.org/2000/svg" version="1.1" xmlns:xlink="http://www.w3.org/1999/xlink" xmlns:svgjs="http://svgjs.com/svgjs" width="512" height="512" x="0" y="0" viewBox="0 0 512 512" style="enable-background:new 0 0 512 512" xml:space="preserve" class=""><g><path d="M477.663 127.698c-17.137-4.033-39.521-6.535-63.663-7.161V98.039c0-13.51-16.331-23.768-49.928-31.357C335.12 60.141 296.739 56.539 256 56.539c-22.168 0-43.553 1.054-63.559 3.131a7.5 7.5 0 0 0-6.686 8.234c.428 4.121 4.12 7.107 8.234 6.686 19.494-2.024 40.357-3.051 62.01-3.051 39.66 0 76.867 3.471 104.767 9.774C392.196 88.414 399 96.434 399 98.039s-6.804 9.625-38.233 16.726c-54.581 12.934-154.952 12.934-209.533 0C119.804 107.664 113 99.643 113 98.039c0-1.861 8.204-10.983 46.106-18.379a7.5 7.5 0 0 0-2.873-14.723C117.048 72.584 98 83.411 98 98.039v22.498c-24.141.626-46.525 3.127-63.663 7.161C11.231 133.136 0 140.771 0 151.039v224c0 10.268 11.231 17.902 34.337 23.341 17.138 4.033 39.522 6.535 63.663 7.16v8.499c0 13.51 16.331 23.768 49.928 31.357 56.735 13.42 159.409 13.42 216.145 0 33.597-7.59 49.928-17.848 49.928-31.357v-8.498c9.881-.255 19.505-.821 28.689-1.702a7.5 7.5 0 0 0 6.751-8.181c-.396-4.124-4.078-7.146-8.181-6.751-8.721.835-17.864 1.378-27.26 1.628V349.54c32.358-1.402 57.903-3.262 83-13.427v38.411c-1.128 1.501-6.861 5.509-22.772 9.253a7.501 7.501 0 0 0-5.583 9.019c.933 4.063 5.092 6.54 9.019 5.583 23.105-5.438 34.336-13.073 34.336-23.34v-224c0-10.268-11.231-17.903-34.337-23.341zM497 262.524c-13.508 11.482-57.35 15.299-83 16.011V237.54c32.358-1.402 57.903-3.262 83-13.427zM98 222.535c-25.507-.683-69.635-4.561-83-16.011v-38.411c25.101 10.164 50.637 12.024 83 13.427zm-83 39.989v-38.411c25.1 10.165 50.639 12.024 83 13.427v40.996c-25.507-.684-69.635-4.562-83-16.012zm98 12.957c8.21 4.546 19.817 8.502 34.928 11.916 56.735 13.42 159.409 13.42 216.145 0 15.111-3.414 26.717-7.369 34.928-11.916v59.558c0 1.604-6.804 9.625-38.233 16.726-54.581 12.934-154.952 12.934-209.533 0C119.804 344.664 113 336.643 113 335.039zm384-68.957c-13.508 11.482-57.35 15.299-83 16.011V181.54c32.36-1.403 57.903-3.262 83-13.427zm-26.783-65.116c17.189 3.61 24.253 7.667 26.317 9.631-15.606 11.288-56.018 14.642-82.534 15.497v-30.995c20.986.566 40.719 2.612 56.217 5.867zm-322.289-12.012c56.735 13.42 159.409 13.42 216.145 0 15.111-3.414 26.717-7.369 34.928-11.916v59.558c0 2.252-10.371 12.98-58.283 20.516a7.5 7.5 0 0 0-6.244 8.574c.625 4.113 4.573 6.901 8.574 6.244 25.499-4.011 44.175-9.339 55.953-15.927v59.593c0 1.604-6.804 9.625-38.233 16.726-54.581 12.934-154.952 12.934-209.533 0-31.431-7.1-38.235-15.121-38.235-16.725v-59.558c8.21 4.546 19.817 8.502 34.928 11.916 28.952 6.54 67.333 10.143 108.072 10.143 17.762 0 35.163-.685 51.72-2.035a7.501 7.501 0 0 0 6.866-8.085c-.338-4.129-3.959-7.188-8.085-6.866-16.153 1.318-33.145 1.986-50.501 1.986-39.66 0-76.867-3.471-104.767-9.774C119.804 186.664 113 178.643 113 177.039v-59.558c8.21 4.546 19.817 8.502 34.928 11.915zM41.783 141.408c15.498-3.255 35.231-5.301 56.217-5.866v30.994c-26.401-.833-67.044-4.233-82.534-15.496 2.064-1.965 9.128-6.023 26.317-9.632zm0 243.262c-18.876-3.963-25.54-8.466-26.783-10.145v-38.412c5.078 2.332 11.456 4.403 19.17 6.227 3.924.961 8.088-1.512 9.024-5.573a7.5 7.5 0 0 0-5.573-9.024c-15.8-3.735-21.498-7.723-22.621-9.217v-38.411c25.1 10.165 50.639 12.024 83 13.427v40.997c-9.063-.242-17.896-.756-26.338-1.542-4.111-.379-7.778 2.647-8.163 6.772a7.5 7.5 0 0 0 6.772 8.163c8.894.828 18.195 1.364 27.729 1.611v40.994c-20.986-.567-40.719-2.612-56.217-5.867zm318.984 46.094c-54.581 12.934-154.952 12.934-209.533 0-31.43-7.1-38.234-15.121-38.234-16.725v-59.558c8.21 4.546 19.817 8.502 34.928 11.916 56.735 13.42 159.409 13.42 216.145 0 15.111-3.414 26.717-7.369 34.928-11.916v59.558c-.001 1.604-6.805 9.625-38.234 16.725zm109.45-102.094c-15.498 3.255-35.231 5.301-56.217 5.866V293.54c32.358-1.402 57.903-3.262 83-13.427v38.411c-1.244 1.679-7.907 6.182-26.783 10.146z" fill="#bb0b0b" data-original="#000000" opacity="1" class=""></path></g></svg>