<svg xmlns="http://www.w3.org/2000/svg" version="1.1" xmlns:xlink="http://www.w3.org/1999/xlink" xmlns:svgjs="http://svgjs.com/svgjs" width="512" height="512" x="0" y="0" viewBox="0 0 512 512" style="enable-background:new 0 0 512 512" xml:space="preserve" class=""><g><path d="M7.982 141.396V15.991a8.008 8.008 0 0 1 8.008-8.008h125.405c4.423 0 8.008 3.585 8.008 8.008s-3.585 8.008-8.008 8.008H23.998v117.397a8.008 8.008 0 0 1-16.016 0zm133.414 346.606H23.998V370.604c0-4.423-3.585-8.008-8.008-8.008s-8.008 3.585-8.008 8.008V496.01a8.008 8.008 0 0 0 8.008 8.008h125.405c4.423 0 8.008-3.585 8.008-8.008s-3.585-8.008-8.007-8.008zM496.01 7.983H370.604c-4.423 0-8.008 3.585-8.008 8.008s3.585 8.008 8.008 8.008h117.397v117.397c0 4.423 3.585 8.008 8.008 8.008s8.008-3.585 8.008-8.008V15.991a8.006 8.006 0 0 0-8.007-8.008zm0 354.614a8.008 8.008 0 0 0-8.008 8.008v117.397H370.604c-4.423 0-8.008 3.585-8.008 8.008s3.585 8.008 8.008 8.008H496.01a8.008 8.008 0 0 0 8.008-8.008V370.604a8.007 8.007 0 0 0-8.008-8.007zm-100.962-21.709-135.043 77.98c-1.239.716-2.622 1.073-4.005 1.073s-2.766-.357-4.005-1.073l-135.043-77.98a8.009 8.009 0 0 1-4.003-6.935V178.047a8.009 8.009 0 0 1 4.003-6.935l135.043-77.981a8.004 8.004 0 0 1 8.01 0l135.043 77.981a8.009 8.009 0 0 1 4.003 6.935v155.906a8.012 8.012 0 0 1-4.003 6.935zM136.973 178.046 256 246.754l119.027-68.708L256 109.313zm-8.008 151.284 119.027 68.732V260.624l-119.027-68.708zm254.07 0V191.916l-119.027 68.708v137.439z" fill="#bb0b0b" data-original="#000000" opacity="1" class=""></path></g></svg>