<svg xmlns="http://www.w3.org/2000/svg" version="1.1" xmlns:xlink="http://www.w3.org/1999/xlink" xmlns:svgjs="http://svgjs.com/svgjs" width="512" height="512" x="0" y="0" viewBox="0 0 511.971 511.971" style="enable-background:new 0 0 512 512" xml:space="preserve" class=""><g><ellipse cx="331.479" cy="86.999" rx="172.991" ry="79.488" style="stroke-width:15;stroke-miterlimit:10;" fill="none" stroke="#bb0b0b" stroke-width="15" stroke-miterlimit="10" data-original="#000000" opacity="1" class=""></ellipse><path d="M309.47 266.19c7.21.42 14.55.64 22.01.64 95.54 0 172.99-35.59 172.99-79.49M309.47 366.53c7.21.42 14.55.64 22.01.64 95.54 0 172.99-35.59 172.99-79.49M309.47 466.87c7.21.42 14.55.64 22.01.64 95.54 0 172.99-35.59 172.99-79.49M158.49 234.46v-52.97M158.49 166.49V87M504.471 86.999v301.023" style="stroke-width:15;stroke-miterlimit:10;" fill="none" stroke="#bb0b0b" stroke-width="15" stroke-miterlimit="10" data-original="#000000" opacity="1" class=""></path><path d="M256 504.46h38.47c8.28 0 15-6.72 15-15v-240c0-8.28-6.72-15-15-15H22.5c-8.28 0-15 6.72-15 15v240c0 8.28 6.72 15 15 15H241M7.505 288.294h301.966M88.898 322.294V468.46M135.291 322.294V468.46M181.684 322.294V468.46M228.078 322.294V468.46M42.505 419.738h231.966M42.505 371.016h231.966" style="stroke-width:15;stroke-miterlimit:10;" fill="none" stroke="#bb0b0b" stroke-width="15" stroke-miterlimit="10" data-original="#000000" opacity="1" class=""></path><path d="M42.505 322.294h231.966v146.167H42.505zM135.988 261.377h15M165.988 261.377h15" style="stroke-width:15;stroke-miterlimit:10;" fill="none" stroke="#bb0b0b" stroke-width="15" stroke-miterlimit="10" data-original="#000000" opacity="1" class=""></path></g></svg>