<svg xmlns="http://www.w3.org/2000/svg" version="1.1" xmlns:xlink="http://www.w3.org/1999/xlink" xmlns:svgjs="http://svgjs.com/svgjs" width="512" height="512" x="0" y="0" viewBox="0 0 64 64" style="enable-background:new 0 0 512 512" xml:space="preserve" class=""><g><path d="m19.422 41.635 1.943 1.944a2.3 2.3 0 0 0 3.221.02l.023-.023a.317.317 0 0 1 .363-.069 12.9 12.9 0 0 0 2.157.9.312.312 0 0 1 .2.3A2.3 2.3 0 0 0 29.627 47h2.746a2.3 2.3 0 0 0 2.294-2.293.312.312 0 0 1 .2-.3 12.826 12.826 0 0 0 2.157-.9.316.316 0 0 1 .364.069l.022.022a2.3 2.3 0 0 0 3.223-.02l1.942-1.943a2.294 2.294 0 0 0 0-3.244.315.315 0 0 1-.069-.363 12.841 12.841 0 0 0 .905-2.186.289.289 0 0 1 .3-.175A2.3 2.3 0 0 0 46 33.374v-2.748a2.3 2.3 0 0 0-2.293-2.293.311.311 0 0 1-.3-.2 12.953 12.953 0 0 0-.9-2.158.316.316 0 0 1 .071-.365 2.293 2.293 0 0 0 0-3.242l-1.943-1.944a2.3 2.3 0 0 0-3.221-.02l-.023.023a.317.317 0 0 1-.363.069 12.9 12.9 0 0 0-2.157-.9.312.312 0 0 1-.2-.3A2.3 2.3 0 0 0 32.373 17h-2.746a2.3 2.3 0 0 0-2.294 2.321.275.275 0 0 1-.175.267 12.89 12.89 0 0 0-2.185.9.316.316 0 0 1-.364-.069l-.022-.022a2.3 2.3 0 0 0-3.223.02l-1.942 1.943a2.294 2.294 0 0 0 0 3.244.314.314 0 0 1 .068.364 12.9 12.9 0 0 0-.89 2.162.313.313 0 0 1-.3.2 2.3 2.3 0 0 0-2.3 2.296v2.748a2.3 2.3 0 0 0 2.293 2.293.311.311 0 0 1 .3.2 12.953 12.953 0 0 0 .9 2.158.316.316 0 0 1-.071.365 2.293 2.293 0 0 0 0 3.245Zm-1.129-7.968a.294.294 0 0 1-.293-.293v-2.748a.294.294 0 0 1 .293-.293 2.3 2.3 0 0 0 2.214-1.608 10.864 10.864 0 0 1 .756-1.822 2.3 2.3 0 0 0-.427-2.71.293.293 0 0 1 0-.414l1.941-1.942a.3.3 0 0 1 .416 0l.023.022a2.3 2.3 0 0 0 2.686.405 10.939 10.939 0 0 1 1.848-.764 2.269 2.269 0 0 0 1.583-2.206.294.294 0 0 1 .294-.294h2.746a.294.294 0 0 1 .294.293 2.3 2.3 0 0 0 1.607 2.213 11 11 0 0 1 1.824.757 2.3 2.3 0 0 0 2.685-.4l.024-.023a.3.3 0 0 1 .415 0l1.942 1.943a.294.294 0 0 1 0 .416 2.3 2.3 0 0 0-.426 2.707 10.894 10.894 0 0 1 .758 1.824 2.3 2.3 0 0 0 2.213 1.607.294.294 0 0 1 .293.293v2.748a.3.3 0 0 1-.321.293A2.257 2.257 0 0 0 41.5 35.25a10.908 10.908 0 0 1-.765 1.847 2.3 2.3 0 0 0 .427 2.71.293.293 0 0 1 0 .414l-1.941 1.942a.3.3 0 0 1-.416 0l-.023-.022a2.3 2.3 0 0 0-2.687-.405 10.926 10.926 0 0 1-1.824.757 2.3 2.3 0 0 0-1.606 2.213.294.294 0 0 1-.294.293h-2.744a.294.294 0 0 1-.294-.293 2.3 2.3 0 0 0-1.607-2.213 11 11 0 0 1-1.824-.757 2.28 2.28 0 0 0-1.062-.263 2.323 2.323 0 0 0-1.623.667l-.024.023a.3.3 0 0 1-.415 0l-1.942-1.943a.294.294 0 0 1 0-.416 2.3 2.3 0 0 0 .426-2.707 10.894 10.894 0 0 1-.758-1.824 2.3 2.3 0 0 0-2.211-1.606ZM43.789 48.664l-1.414-1.414a19.2 19.2 0 0 1-1.975 1.724l1.208 1.6a21.263 21.263 0 0 0 2.181-1.91Z" fill="#bb0b0b" data-original="#000000" class=""></path><path d="M9.841 53.4a3.986 3.986 0 0 0 6.339 4.553 27.189 27.189 0 0 0 31.727-4.882 25.464 25.464 0 0 0 7.183-21.54 3.952 3.952 0 0 0-2.28-7.487 25.17 25.17 0 0 0-4.9-6.941 23.814 23.814 0 0 0-33.694 0 22.312 22.312 0 0 0 0 31.564 20.921 20.921 0 0 0 25.29 3.3L38.5 50.235a18.922 18.922 0 0 1-22.87-2.982 20.313 20.313 0 0 1 0-28.736 21.815 21.815 0 0 1 30.866 0 23.225 23.225 0 0 1 4.439 6.236 3.984 3.984 0 0 0 2.2 7.235 23.465 23.465 0 0 1-6.642 19.665 25.229 25.229 0 0 1-29.215 4.6A3.943 3.943 0 0 0 17.5 55a4 4 0 0 0-4-4 3.963 3.963 0 0 0-2.408.827c-.061-.059-.125-.115-.185-.174a27.01 27.01 0 0 1 0-38.186 28.169 28.169 0 0 1 1.536-1.417A3.962 3.962 0 0 0 15 13a4 4 0 0 0 4-4 3.946 3.946 0 0 0-.182-1.129 28.83 28.83 0 0 1 33.075 5.6 31.27 31.27 0 0 1 4.715 37.876 4.062 4.062 0 1 0 1.592 1.274 33.293 33.293 0 0 0-4.89-40.568 30.82 30.82 0 0 0-35.517-5.908 3.984 3.984 0 0 0-6.52 4.275c-.591.5-1.186 1.039-1.78 1.633a29.009 29.009 0 0 0 0 41.014c.112.112.233.218.348.333ZM53.25 30a2 2 0 1 1 2-2 2 2 0 0 1-2 2ZM13.5 53a2 2 0 1 1-2 2 2 2 0 0 1 2-2ZM55 57a2 2 0 1 1 2-2 2 2 0 0 1-2 2ZM15 7a2 2 0 1 1-2 2 2 2 0 0 1 2-2Z" fill="#bb0b0b" data-original="#000000" class=""></path><path d="M31 41a9 9 0 1 0-9-9 9.01 9.01 0 0 0 9 9Zm2.556-2.49a6.911 6.911 0 0 1-5.112 0V35a1 1 0 0 1 1-1h3.112a1 1 0 0 1 1 1Zm-3.806-8.732a1.25 1.25 0 1 1 1.25 1.25 1.251 1.251 0 0 1-1.25-1.25ZM31 25a6.992 6.992 0 0 1 4.556 12.3V35a3 3 0 0 0-2.285-2.9 3.25 3.25 0 1 0-4.542 0 3 3 0 0 0-2.285 2.9v2.3A6.992 6.992 0 0 1 31 25Z" fill="#bb0b0b" data-original="#000000" class=""></path></g></svg>