<svg xmlns="http://www.w3.org/2000/svg" version="1.1" xmlns:xlink="http://www.w3.org/1999/xlink" xmlns:svgjs="http://svgjs.com/svgjs" width="512" height="512" x="0" y="0" viewBox="0 0 68 68" style="enable-background:new 0 0 512 512" xml:space="preserve" class=""><g><path d="M46.5 43.8c-3.8 0-6.8 3.1-6.8 6.8 0 3.8 3.1 6.8 6.8 6.8 3.8 0 6.8-3.1 6.8-6.8s-3.1-6.8-6.8-6.8zm0 11.7c-2.7 0-4.8-2.2-4.8-4.8 0-2.7 2.2-4.8 4.8-4.8s4.8 2.2 4.8 4.8-2.2 4.8-4.8 4.8z" fill="#bb0b0b" data-original="#000000" opacity="1" class=""></path><path d="M62 10.9h-2v-2c0-1.9-1.5-3.4-3.4-3.4S53.2 7 53.2 8.9v2h-5.5V6c0-2.2-1.8-4-4-4H24.3c-2.2 0-4 1.8-4 4v4.9h-5.5v-2c0-1.9-1.5-3.4-3.4-3.4S8 7 8 8.9v2H6c-2.2 0-4 1.8-4 4v38.5c0 2.2 1.8 4 4 4h25.7c.6 0 1-.4 1-1s-.4-1-1-1H6c-1.1 0-2-.9-2-2v-32l9.1 5.7c2.1 1.3 4.5 2 6.9 2h8v2.1c0 3.3 2.6 6 6 6 3.3 0 6-2.7 6-6v-2.1h8c2.4 0 4.8-.7 6.9-2l9.1-5.7v32c0 1.1-.9 2-2 2h-4.4c.2-.5.4-.9.5-1.4l2.8-.3c.5-.1.9-.5.9-1v-4.1c0-.5-.4-.9-.9-1l-2.8-.3c-.3-.9-.6-1.7-1-2.5l1.7-2.2c.3-.4.3-1-.1-1.3l-2.9-2.9c-.4-.4-.9-.4-1.3-.1L52.3 40c-.8-.4-1.6-.8-2.5-1l-.3-2.8c-.1-.5-.5-.9-1-.9h-4.1c-.5 0-.9.4-1 .9l-.3 2.8c-.9.3-1.7.6-2.5 1l-2.2-1.7c-.4-.3-1-.3-1.3.1l-2.9 2.9c-.4.4-.4.9-.1 1.3l1.7 2.2c-.4.8-.8 1.6-1 2.5l-2.8.3c-.5.1-.9.5-.9 1v4.1c0 .5.4.9.9 1l2.8.3c.3.9.6 1.7 1 2.5l-1.7 2.2c-.3.4-.3 1 .1 1.3l2.9 2.9c.4.4.9.4 1.3.1l2.2-1.7c.8.4 1.6.8 2.5 1l.3 2.8c.1.5.5.9 1 .9h4.1c.5 0 .9-.4 1-.9l.3-2.8c.9-.3 1.7-.6 2.5-1l2.2 1.7c.4.3 1 .3 1.3-.1l2.9-2.9c.4-.4.4-.9.1-1.3l-1-1.2H62c2.2 0 4-1.8 4-4V15c0-2.3-1.8-4.1-4-4.1zm-6.9 46.3 1.6 2-1.7 1.7-2-1.6c-.3-.3-.8-.3-1.2-.1-1 .6-2 1.1-3.2 1.3-.3.2-.6.5-.6.9l-.3 2.6h-2.4l-.3-2.6c0-.4-.4-.8-.8-.9-1.1-.3-2.2-.7-3.2-1.3-.4-.2-.8-.2-1.2.1l-2 1.6-1.7-1.7 1.6-2c.3-.3.3-.8.1-1.2-.6-1-1.1-2-1.3-3.2-.1-.4-.4-.7-.9-.8l-2.6-.3v-2.4l2.6-.3c.4 0 .8-.4.9-.8.3-1.1.7-2.2 1.3-3.2.2-.4.2-.8-.1-1.2l-1.6-2 1.7-1.7 2 1.6c.3.3.8.3 1.2.1 1-.6 2-1.1 3.2-1.3.4-.1.7-.4.8-.9l.3-2.6h2.4l.3 2.6c.1.4.4.8.8.9 1.1.3 2.2.7 3.2 1.3.4.2.8.2 1.2-.1l2-1.6 1.7 1.7-1.6 2c-.3.3-.3.8-.1 1.2.6 1 1.1 2 1.3 3.2.1.4.4.7.9.8l2.6.3v2.4l-2.6.3c-.4.1-.8.4-.9.8-.3 1.1-.7 2.2-1.3 3.2-.3.4-.3.9-.1 1.2zm.1-48.3c0-.8.6-1.4 1.4-1.4s1.4.6 1.4 1.4v2h-2.9v-2zM22.3 6c0-1.1.9-2 2-2h19.4c1.1 0 2 .9 2 2v4.9H22.3zM10 8.9c0-.8.6-1.4 1.4-1.4s1.4.6 1.4 1.4v2H10zm28 22.4c0 2.2-1.8 4-4 4s-4-1.8-4-4v-5.9c0-2.2 1.8-4 4-4s4 1.8 4 4zm26-12.1-10.2 6.4C52 26.7 50 27.3 48 27.3h-8v-1.8c0-3.3-2.7-6-6-6s-6 2.7-6 6v1.8h-8c-2.1 0-4.1-.6-5.8-1.7L4 19.2V15c0-1.1.9-2 2-2h56c1.1 0 2 .9 2 2v4.2z" fill="#bb0b0b" data-original="#000000" opacity="1" class=""></path><path d="M8.2 36.7c-.6 0-1 .4-1 1v11.8c0 1.7 1.3 3 3 3h12.2c.6 0 1-.4 1-1s-.4-1-1-1H10.2c-.6 0-1-.4-1-1V37.7c0-.6-.4-1-1-1z" fill="#bb0b0b" data-original="#000000" opacity="1" class=""></path></g></svg>