<svg xmlns="http://www.w3.org/2000/svg" version="1.1" xmlns:xlink="http://www.w3.org/1999/xlink" xmlns:svgjs="http://svgjs.com/svgjs" width="512" height="512" x="0" y="0" viewBox="0 0 66 66" style="enable-background:new 0 0 512 512" xml:space="preserve" class=""><g><g><path d="m17.09 6.07c0-.48-.39-.88-.88-.88-6.12 0-11.09 4.98-11.09 11.09 0 .48.39.88.88.88s.88-.39.88-.88c0-5.15 4.19-9.34 9.34-9.34.48 0 .87-.39.87-.87z" fill="#bb0b0b" data-original="#000000" class=""></path><path d="m19.94 33.42h-.96v-2.31c7-1.3 12.33-7.45 12.33-14.82 0-8.32-6.77-15.09-15.09-15.09s-15.09 6.77-15.09 15.09c0 7.38 5.32 13.52 12.33 14.82v2.31h-.96c-.48 0-.88.39-.88.88v13.06c0 2.54 2.06 4.6 4.6 4.6s4.6-2.06 4.6-4.6v-13.06c-.01-.49-.4-.88-.88-.88zm-17.06-17.13c0-7.35 5.98-13.34 13.34-13.34s13.34 5.98 13.34 13.34-5.98 13.34-13.34 13.34-13.34-5.99-13.34-13.34zm12.32 15.03c.34.02.67.05 1.01.05s.68-.03 1.01-.05v2.1h-2.02zm3.86 16.03c0 1.57-1.28 2.85-2.85 2.85s-2.85-1.28-2.85-2.85v-12.18h.96 3.77.96v12.18z" fill="#bb0b0b" data-original="#000000" class=""></path><path d="m64 63.05h-1.13v-34.04c0-.48-.39-.88-.88-.88h-6.83c-.48 0-.88.39-.88.88v34.04h-1.8v-17.4c0-.48-.39-.88-.88-.88h-6.8c-.48 0-.88.39-.88.88v17.4h-1.8v-24.22c0-.48-.39-.88-.88-.88h-6.83c-.48 0-.88.39-.88.88v24.22h-1.8v-10.02c0-.48-.39-.88-.88-.88h-6.83c-.48 0-.88.39-.88.88v10.02h-1.12c-.48 0-.88.39-.88.88s.39.88.88.88h41.98c.48 0 .88-.39.88-.88s-.4-.88-.88-.88zm-39.07 0v-9.14h5.07v9.14zm10.37 0v-23.34h5.08v23.34zm10.37 0v-16.53h5.08v16.53zm10.38 0v-33.16h5.08v33.17h-5.08z" fill="#bb0b0b" data-original="#000000" class=""></path><path d="m33.47 33.33c12.18 0 22.16-9.59 22.79-21.61l3.08 3.08c.17.17.4.26.62.26s.45-.08.62-.26c.34-.34.34-.9 0-1.24l-4.79-4.79c-.34-.34-.9-.34-1.24 0l-4.79 4.79c-.34.34-.34.9 0 1.24s.9.34 1.24 0l3.5-3.5c-.42 11.25-9.68 20.28-21.03 20.28-.48 0-.88.39-.88.88s.4.87.88.87z" fill="#bb0b0b" data-original="#000000" class=""></path></g></g></svg>