<svg xmlns="http://www.w3.org/2000/svg" version="1.1" xmlns:xlink="http://www.w3.org/1999/xlink" xmlns:svgjs="http://svgjs.com/svgjs" width="512" height="512" x="0" y="0" viewBox="0 0 16.933333 16.933334" style="enable-background:new 0 0 512 512" xml:space="preserve" class=""><g><g id="layer1" transform="translate(0 -280.067)"><path id="circle2652" d="m8.442805 280.74148c-1.0850796 0-1.970939.88586-1.970939 1.97094 0 .99484.7452492 1.82008 1.705322 1.95079v1.91874c-.8736651.11894-1.5671248.8133-1.6851687 1.68724h-1.9208141c-.1298099-.96106-.9552438-1.70739-1.9507836-1.70739-1.08508 0-1.97093954.88586-1.97093954 1.97094s.88585954 1.97094 1.97093954 1.97094c.9948387 0 1.820082-.74525 1.9507836-1.70533h1.9208141c.1188456.87299.8121809 1.56632 1.6851687 1.68517v1.92081c-.9600728.13043-1.705322.95389-1.705322 1.94872 0 1.08508.8858594 1.97094 1.970939 1.97094 1.085078 0 1.968871-.88586 1.968871-1.97094 0-.99547-.74462-1.8191-1.705322-1.94872v-1.92081c.873617-.11811 1.566488-.81156 1.685169-1.68517h1.920814c.130702.96008.955945 1.70533 1.950784 1.70533 1.08508 0 1.970423-.88586 1.970423-1.97094s-.885343-1.97094-1.970423-1.97094c-.99554 0-1.820974.74633-1.950784 1.70739h-1.920814c-.117882-.87457-.810874-1.56904-1.685169-1.68724v-1.91874c.960702-.12989 1.705322-.9553 1.705322-1.95079 0-1.08508-.883793-1.97094-1.968871-1.97094zm0 .52968c.799095 0 1.439188.64216 1.439188 1.44126s-.640093 1.44126-1.439188 1.44126c-.7990967 0-1.4417723-.64216-1.4417723-1.44126s.6426756-1.44126 1.4417723-1.44126zm-5.8223834 5.82032c.7990946 0 1.4412543.64216 1.4412543 1.44126s-.6421597 1.44125-1.4412543 1.44125-1.4412568-.64215-1.4412568-1.44125.6421622-1.44126 1.4412568-1.44126zm5.8223834 0c.799095 0 1.439188.64216 1.439188 1.44126s-.640093 1.44125-1.439188 1.44125c-.7990967 0-1.4417723-.64215-1.4417723-1.44125s.6426756-1.44126 1.4417723-1.44126zm5.820316 0c.799094 0 1.441257.64216 1.441257 1.44126s-.642163 1.44125-1.441257 1.44125c-.799095 0-1.441773-.64215-1.441773-1.44125s.642678-1.44126 1.441773-1.44126zm-5.820316 5.82187c.799095 0 1.439188.64061 1.439188 1.4397 0 .7991-.640093 1.44126-1.439188 1.44126-.7990967 0-1.4417723-.64216-1.4417723-1.44126 0-.79909.6426756-1.4397 1.4417723-1.4397z" font-variant-ligatures="normal" font-variant-position="normal" font-variant-caps="normal" font-variant-numeric="normal" font-variant-alternates="normal" font-feature-settings="normal" text-indent="0" text-align="start" text-decoration-line="none" text-decoration-style="solid" text-decoration-color="rgb(0,0,0)" text-transform="none" text-orientation="mixed" white-space="normal" shape-padding="0" isolation="auto" mix-blend-mode="normal" solid-color="rgb(0,0,0)" solid-opacity="1" vector-effect="none" fill="#bb0b0b" data-original="#000000" class=""></path></g></g></svg>