<svg xmlns="http://www.w3.org/2000/svg" version="1.1" xmlns:xlink="http://www.w3.org/1999/xlink" width="30" height="30" x="0" y="0" viewBox="0 0 512 512" style="enable-background:new 0 0 512 512" xml:space="preserve" class=""><g><path d="M296.081 344.693H215.92c-12.976 0-23.532 10.557-23.532 23.532v64.129c0 12.976 10.557 23.532 23.532 23.532h80.161c12.976 0 23.532-10.557 23.532-23.532v-64.129c0-12.975-10.557-23.532-23.532-23.532zm8.532 87.662c0 4.705-3.828 8.532-8.532 8.532H215.92c-4.705 0-8.532-3.828-8.532-8.532v-64.129c0-4.705 3.828-8.532 8.532-8.532h80.161c4.705 0 8.532 3.828 8.532 8.532v64.129zM432.355 248.5H320.132a7.5 7.5 0 0 0 0 15h112.223c4.705 0 8.532 3.828 8.532 8.532v48.097a7.5 7.5 0 0 0 15 0v-48.097c0-12.976-10.557-23.532-23.532-23.532zM319.613 119.726c0-35.076-28.537-63.613-63.613-63.613s-63.613 28.537-63.613 63.613c0 32.538 24.561 59.431 56.113 63.156V248.5H79.645c-12.976 0-23.532 10.557-23.532 23.532v48.097a7.5 7.5 0 0 0 15 0v-48.097c0-4.705 3.828-8.532 8.532-8.532H248.5v56.629a7.5 7.5 0 0 0 15 0V263.5h24.564a7.5 7.5 0 0 0 0-15H263.5v-65.618c31.552-3.725 56.113-30.618 56.113-63.156zM256 168.339c-26.805 0-48.613-21.808-48.613-48.613S229.195 71.113 256 71.113s48.613 21.808 48.613 48.613c0 26.806-21.808 48.613-48.613 48.613zM488.468 344.693h-80.161c-12.976 0-23.532 10.557-23.532 23.532v64.129c0 12.976 10.557 23.532 23.532 23.532h80.161c12.976 0 23.532-10.557 23.532-23.532v-64.129c0-12.975-10.557-23.532-23.532-23.532zM497 432.355c0 4.705-3.828 8.532-8.532 8.532h-80.161c-4.705 0-8.532-3.828-8.532-8.532v-64.129c0-4.705 3.828-8.532 8.532-8.532h80.161c4.705 0 8.532 3.828 8.532 8.532v64.129zM103.693 344.693H23.532C10.557 344.693 0 355.25 0 368.226v64.129c0 12.976 10.557 23.532 23.532 23.532h8.016a7.5 7.5 0 0 0 0-15h-8.016c-4.705 0-8.532-3.828-8.532-8.532v-64.129c0-4.705 3.828-8.532 8.532-8.532h80.161c4.705 0 8.532 3.828 8.532 8.532v64.129c0 4.705-3.828 8.532-8.532 8.532H63.612a7.5 7.5 0 0 0 0 15h40.081c12.976 0 23.532-10.557 23.532-23.532v-64.129c.001-12.976-10.556-23.533-23.532-23.533z" fill="#bb0b0b" opacity="1" data-original="#000000" class=""></path></g></svg>