<svg xmlns="http://www.w3.org/2000/svg" version="1.1" xmlns:xlink="http://www.w3.org/1999/xlink" width="512" height="512" x="0" y="0" viewBox="0 0 511.672 511.672" style="enable-background:new 0 0 512 512" xml:space="preserve" class=""><g><path fill="#f37c7c" d="M457.196 43.871H54.476c-25.94 0-46.98 21.03-46.98 46.98v14.39l44.151 62.777h403.38l49.149-62.777v-14.39c0-25.951-21.04-46.98-46.98-46.98z" opacity="1" data-original="#f37c7c" class=""></path><path fill="#ee6161" d="M70.669 91.979V76.041c0-12.149 3.769-23.315 10.068-32.17H54.476c-25.94 0-46.98 21.03-46.98 46.98v14.39l44.151 62.777h19.022z" opacity="1" data-original="#ee6161"></path><path fill="#f9f7f8" d="M504.176 105.24v315.58c0 25.95-21.04 46.98-46.98 46.98H54.476c-25.94 0-46.98-21.03-46.98-46.98V105.24z" opacity="1" data-original="#f9f7f8" class=""></path><path fill="#efedef" d="M70.669 441.535V105.24H7.496v315.58c0 25.95 21.04 46.98 46.98 46.98h22.622c-4.08-7.71-6.429-16.681-6.429-26.265z" opacity="1" data-original="#efedef"></path><path fill="#f37c7c" d="m287.535 351.267 11.458-53.029c1.256-5.815-5.157-10.237-10.145-6.996l-45.809 29.767-12.011 13.095L275.44 366z" opacity="1" data-original="#f37c7c" class=""></path><circle cx="255.336" cy="350.765" r="32.2" fill="#d7d0d6" opacity="1" data-original="#d7d0d6"></circle><path fill="#bbec6c" d="M421.246 233.25c-23.62-37.42-59.56-66.29-102.12-80.93l-15.91 5.005-11.402 27.172 11.402 17.313c31.74 11.17 58.4 33.16 75.55 61.53l12.614 6.928 32.635-14.504z" opacity="1" data-original="#bbec6c"></path><path fill="#f37c7c" d="M451.336 332.56c.08 2.86-2.23 5.22-5.09 5.22h-41.8c-2.74 0-4.98-2.17-5.07-4.92-.85-25.39-8.27-49.11-20.61-69.52l42.48-30.09c18.24 28.88 29.14 62.85 30.09 99.31z" opacity="1" data-original="#f37c7c" class=""></path><path fill="#fee45a" d="m211.794 156.158-20.248-3.838c-42.56 14.64-78.5 43.51-102.12 80.93v20.218l26.847 19.299 15.633-9.427c17.15-28.37 43.81-50.36 75.55-61.53l12.073-12.562z" opacity="1" data-original="#fee45a"></path><path fill="#d1f19e" d="m319.126 152.32-.12.36-15.79 49.13c-14.98-5.28-31.1-8.15-47.88-8.15s-32.9 2.87-47.88 8.15l-15.79-49.13-.12-.36c20-6.88 41.46-10.61 63.79-10.61s43.79 3.73 63.79 10.61z" opacity="1" data-original="#d1f19e" class=""></path><path fill="#fee97d" d="m89.426 233.25 42.48 30.09c-12.34 20.41-19.76 44.13-20.61 69.52a5.072 5.072 0 0 1-5.07 4.92h-41.8c-2.86 0-5.17-2.36-5.09-5.22.95-36.46 11.85-70.43 30.09-99.31z" opacity="1" data-original="#fee97d"></path><path d="M457.191 36.371H54.48C24.439 36.371 0 60.811 0 90.852V420.82c0 30.041 24.439 54.48 54.48 54.48h54.381c4.143 0 7.5-3.357 7.5-7.5s-3.357-7.5-7.5-7.5H54.48C32.71 460.3 15 442.589 15 420.82V112.744h369.021c4.143 0 7.5-3.357 7.5-7.5s-3.357-7.5-7.5-7.5H15v-6.893c0-21.77 17.711-39.48 39.48-39.48h402.711c21.77 0 39.48 17.711 39.48 39.48v6.893h-80.688c-4.143 0-7.5 3.357-7.5 7.5s3.357 7.5 7.5 7.5h80.688V420.82c0 21.77-17.711 39.48-39.48 39.48H140.823c-4.143 0-7.5 3.357-7.5 7.5s3.357 7.5 7.5 7.5h316.368c30.041 0 54.48-24.439 54.48-54.48V90.852c.001-30.041-24.439-54.481-54.48-54.481z" fill="#000000" opacity="1" data-original="#000000" class=""></path><path d="M391.876 333.116a12.534 12.534 0 0 0 12.571 12.167h41.799c3.427 0 6.632-1.353 9.024-3.81a12.473 12.473 0 0 0 3.565-9.104c-1.391-53.233-23.177-103.061-61.345-140.301-38.237-37.309-88.723-57.855-142.155-57.855S151.417 154.76 113.18 192.068c-38.168 37.24-59.954 87.067-61.345 140.3a12.476 12.476 0 0 0 3.565 9.105 12.5 12.5 0 0 0 9.024 3.81h41.799c6.82 0 12.343-5.345 12.571-12.167 1.139-33.957 14.829-66.104 38.548-90.517a7.5 7.5 0 1 0-10.757-10.453 152.301 152.301 0 0 0-16.738 20.541L99.66 231.305a190.242 190.242 0 0 1 23.997-28.501c18.388-17.941 39.838-31.685 63.136-40.767l11.351 35.315a151.066 151.066 0 0 0-25.483 13.325 7.499 7.499 0 0 0-2.188 10.378 7.497 7.497 0 0 0 10.378 2.188c22.164-14.444 47.921-22.079 74.486-22.079 35.681 0 69.439 13.67 95.058 38.492 25.558 24.768 40.291 57.958 41.481 93.46zm-269.853-67.589a151.057 151.057 0 0 0-18.123 64.756H66.911c1.201-30.733 9.759-60.175 24.749-86.263zm284.749 64.756c-1.118-22.968-7.351-45.011-18.092-64.779l30.331-21.484c14.99 26.088 23.548 55.53 24.749 86.264h-36.988zm4.24-98.978-30.166 21.367a152.808 152.808 0 0 0-20.016-23.787c-14.144-13.704-30.524-24.342-48.289-31.577l11.337-35.271c23.298 9.082 44.748 22.826 63.136 40.767a190.19 190.19 0 0 1 23.998 28.501zm-198.713-38.933-11.323-35.227c17.424-5.224 35.697-7.933 54.359-7.933s36.935 2.709 54.359 7.933l-11.316 35.205c-13.813-4.073-28.28-6.185-43.043-6.185a151.736 151.736 0 0 0-43.036 6.207z" fill="#000000" opacity="1" data-original="#000000" class=""></path><path d="m284.762 284.953-45.294 29.432c-14.012 6.136-23.831 20.129-23.831 36.38 0 21.891 17.809 39.699 39.699 39.699 21.395 0 38.881-17.014 39.662-38.222l11.327-52.42a14.117 14.117 0 0 0-5.803-14.652 14.12 14.12 0 0 0-15.76-.217zm6.471 13.684-5.703 26.396a39.833 39.833 0 0 0-16.938-11.683zm-35.897 76.827c-13.619 0-24.699-11.08-24.699-24.699s11.08-24.699 24.699-24.699 24.699 11.08 24.699 24.699-11.08 24.699-24.699 24.699zM53.578 68.009c-4.143 0-7.5 3.357-7.5 7.5s3.357 7.5 7.5 7.5h3.15c4.143 0 7.5-3.357 7.5-7.5s-3.357-7.5-7.5-7.5zM90.335 68.009c-4.143 0-7.5 3.357-7.5 7.5s3.357 7.5 7.5 7.5h3.15c4.143 0 7.5-3.357 7.5-7.5s-3.357-7.5-7.5-7.5zM127.092 68.009c-4.143 0-7.5 3.357-7.5 7.5s3.357 7.5 7.5 7.5h3.15c4.143 0 7.5-3.357 7.5-7.5s-3.357-7.5-7.5-7.5z" fill="#000000" opacity="1" data-original="#000000" class=""></path></g></svg>