<svg xmlns="http://www.w3.org/2000/svg" version="1.1" xmlns:xlink="http://www.w3.org/1999/xlink" xmlns:svgjs="http://svgjs.com/svgjs" width="512" height="512" x="0" y="0" viewBox="0 0 512 512" style="enable-background:new 0 0 512 512" xml:space="preserve" class=""><g><path d="M56.015 339.55H11a7 7 0 0 0-7 7v109.402a7 7 0 0 0 7 7h45.016a7 7 0 0 0 7-7V346.55a7.001 7.001 0 0 0-7.001-7zm-7 109.402H18V353.55h31.016v95.402zm94.937-194.903H98.936a7 7 0 0 0-7 7v194.902a7 7 0 0 0 7 7h45.016a7 7 0 0 0 7-7V261.049a7 7 0 0 0-7-7zm-7 194.902h-31.016V268.049h31.016zm94.936-143.301h-45.016a7 7 0 0 0-7 7v143.303a7 7 0 0 0 7 7h45.016a7 7 0 0 0 7-7V312.65a7 7 0 0 0-7-7zm-7 143.302h-31.016V319.65h31.016zM33.507 246.549c11.028 0 20-8.972 20-20 0-2.922-.645-5.692-1.777-8.197l61.15-59.258a19.842 19.842 0 0 0 8.563 1.953c4.775 0 9.16-1.687 12.603-4.49l55.651 32.656a19.934 19.934 0 0 0-.316 3.434c0 11.028 8.972 20 20 20s20-8.972 20-20c0-4.147-1.27-8.003-3.44-11.201l66.233-93.095c1.645.439 3.363.695 5.144.695 11.028 0 20-8.972 20-20s-8.972-20-20-20-20 8.972-20 20c0 4.147 1.27 8.003 3.44 11.201l-66.233 93.095a19.898 19.898 0 0 0-5.144-.695c-4.775 0-9.16 1.687-12.603 4.489l-55.651-32.656c.195-1.118.317-2.261.317-3.434 0-11.028-8.972-20-20-20s-20 8.972-20 20c0 2.846.607 5.55 1.683 8.003l-61.252 59.357a19.85 19.85 0 0 0-8.368-1.859c-11.028 0-20 8.972-20 20 .001 11.03 8.972 20.002 20 20.002zm263.81-183.501c3.308 0 6 2.692 6 6s-2.691 6-6 6-6-2.691-6-6 2.691-6 6-6zM209.38 186.649c3.308 0 6 2.691 6 6s-2.691 6-6 6-6-2.691-6-6 2.692-6 6-6zm-87.936-51.601c3.309 0 6 2.692 6 6s-2.691 6-6 6c-3.308 0-6-2.691-6-6s2.691-6 6-6zm-87.937 85.501c3.309 0 6 2.692 6 6s-2.691 6-6 6c-3.308 0-6-2.691-6-6s2.692-6 6-6zm470.992 155.504-20.291-11.715a87.955 87.955 0 0 0 0-25.974l20.291-11.715a7 7 0 0 0 2.562-9.562l-24.867-43.072a7.005 7.005 0 0 0-4.25-3.262 7.009 7.009 0 0 0-5.312.699l-20.301 11.721a86.317 86.317 0 0 0-22.485-13.004V246.75a7 7 0 0 0-7-7H373.11a7 7 0 0 0-7 7v23.419a86.317 86.317 0 0 0-22.485 13.004l-16.8-9.7v-84.424a7 7 0 0 0-7-7h-45.016a7 7 0 0 0-7 7v266.904a7 7 0 0 0 7 7h45.016a7 7 0 0 0 7-7v-26.724l16.8-9.7a86.326 86.326 0 0 0 22.485 13.004v23.419a7 7 0 0 0 7 7h49.736a7 7 0 0 0 7-7v-23.419a86.326 86.326 0 0 0 22.485-13.004l20.3 11.721a6.997 6.997 0 0 0 9.562-2.563l24.867-43.071a7 7 0 0 0-2.561-9.563zm-191.674 72.899h-31.016V196.049h31.016v79.59l-23.93 41.448a7 7 0 0 0 2.562 9.562l20.291 11.715a87.935 87.935 0 0 0 0 25.974l-20.291 11.715a7 7 0 0 0-2.562 9.563l23.93 41.447zm160.745-33.327-18.504-10.684a7 7 0 0 0-8.179.855c-7.663 6.887-16.48 11.986-26.208 15.156a7 7 0 0 0-4.832 6.655v21.343h-35.736v-21.343c0-3.03-1.95-5.717-4.832-6.655-9.729-3.17-18.546-8.27-26.208-15.156a7 7 0 0 0-8.179-.855l-18.504 10.684-17.868-30.947 18.486-10.674a7 7 0 0 0 3.35-7.504c-1.042-4.953-1.571-10.051-1.571-15.149s.529-10.196 1.571-15.149a7 7 0 0 0-3.35-7.504l-18.486-10.674 17.868-30.947 18.504 10.684a7.002 7.002 0 0 0 8.179-.856c7.66-6.886 16.478-11.984 26.209-15.156a7 7 0 0 0 4.831-6.655v-21.343h35.736v21.343a7 7 0 0 0 4.831 6.655c9.731 3.172 18.549 8.271 26.209 15.156a7.004 7.004 0 0 0 8.179.856l18.505-10.685 17.867 30.948-18.486 10.674a6.999 6.999 0 0 0-3.35 7.503 73.736 73.736 0 0 1 0 30.299 7 7 0 0 0 3.35 7.504l18.486 10.674zm-75.592-109.58c-24.981 0-45.305 20.324-45.305 45.306s20.324 45.305 45.305 45.305 45.306-20.323 45.306-45.305-20.324-45.306-45.306-45.306zm0 76.611c-17.262 0-31.305-14.043-31.305-31.305s14.043-31.306 31.305-31.306 31.306 14.044 31.306 31.306-14.044 31.305-31.306 31.305z" fill="#bb0b0b" data-original="#000000" class="" opacity="1"></path></g></svg>