<svg xmlns="http://www.w3.org/2000/svg" version="1.1" xmlns:xlink="http://www.w3.org/1999/xlink" xmlns:svgjs="http://svgjs.com/svgjs" width="512" height="512" x="0" y="0" viewBox="0 0 512 512" style="enable-background:new 0 0 512 512" xml:space="preserve" class=""><g><g fill="rgb(0,0,0)"><path d="m484.926 273.067-148.812-252.069c-7.844-13.289-21.747-21.088-37.174-20.997-15.432.142-29.183 8.245-36.783 21.677l-26.794 47.355c-2.323 4.106-.877 9.319 3.229 11.642 4.104 2.323 9.316.879 11.642-3.228l26.794-47.355c4.559-8.059 12.81-12.922 22.069-13.007.083-.001.165-.001.246-.001 9.16 0 17.393 4.697 22.058 12.6l148.812 252.069c4.736 8.023 4.807 17.643.187 25.735-4.619 8.091-12.939 12.922-22.256 12.922h-46.929c-4.719 0-8.542 3.825-8.542 8.542 0 4.718 3.824 8.542 8.542 8.542h46.929c15.528 0 29.396-8.051 37.094-21.536 7.7-13.485 7.582-29.519-.312-42.891z" fill="#bb0b0b" data-original="#000000" class=""></path><path d="m363.906 364.988c15.575-26.97 24.495-58.243 24.495-91.562 0-101.274-82.392-183.667-183.666-183.667s-183.666 82.392-183.666 183.667c0 101.274 82.392 183.666 183.666 183.666 28.822 0 56.11-6.681 80.409-18.564l58.476 58.476c9.67 9.67 22.54 14.996 36.24 14.996 45.352 0 72.872-58.185 39.912-91.147zm7.41-91.562c0 31.207-8.633 60.432-23.626 85.426h-229.278c-9.257 0-17.554-4.777-22.194-12.779-4.635-7.992-4.663-17.548-.074-25.568l121.766-213.14c8.91.7 17.622 2.113 26.087 4.166-3.233 4.815-5.09 10.569-5.09 16.671v102.512c0 16.295 13.614 29.899 29.899 29.899 16.487 0 29.899-13.412 29.899-29.899v-94.758c43.811 30.04 72.611 80.452 72.611 137.47zm-89.697-147.743v105.029c0 7.065-5.748 12.814-12.813 12.814-7.028 0-12.815-5.786-12.815-12.814v-102.511c0-4.635 2.48-8.811 6.371-11.076 6.627 2.451 13.055 5.317 19.257 8.558zm-243.465 147.743c0-89.749 71.348-163.137 160.301-166.452l-117.143 205.05c-7.647 13.364-7.6 29.297.126 42.62 7.732 13.333 21.554 21.293 36.974 21.293h217.538c-30.517 38.976-77.99 64.07-131.215 64.07-91.853 0-166.581-74.728-166.581-166.581zm369.588 207.868c-13.046 15.704-37.204 18.465-52.04 3.629l-54.975-54.975c21.101-12.988 39.394-30.114 53.728-50.249 0 0 53.177 53.177 53.235 53.235 13.874 13.874 11.367 34.739.052 48.36z" fill="#bb0b0b" data-original="#000000" class=""></path><path d="m268.805 273.426c-18.842 0-34.171 15.329-34.171 34.17 0 18.842 15.329 34.17 34.171 34.17s34.171-15.329 34.171-34.17c0-18.842-15.329-34.17-34.171-34.17zm0 51.255c-9.422 0-17.086-7.664-17.086-17.085s7.664-17.085 17.086-17.085 17.086 7.664 17.086 17.085-7.664 17.085-17.086 17.085z" fill="#bb0b0b" data-original="#000000" class=""></path></g></g></svg>