<svg xmlns="http://www.w3.org/2000/svg" version="1.1" xmlns:xlink="http://www.w3.org/1999/xlink" xmlns:svgjs="http://svgjs.com/svgjs" width="512" height="512" x="0" y="0" viewBox="0 0 66 66" style="enable-background:new 0 0 512 512" xml:space="preserve" class=""><g><path d="M33 26.11c-3.8 0-6.89 3.09-6.89 6.89s3.09 6.89 6.89 6.89 6.89-3.09 6.89-6.89-3.09-6.89-6.89-6.89zm0 12.03c-2.83 0-5.14-2.31-5.14-5.14s2.31-5.14 5.14-5.14 5.14 2.31 5.14 5.14-2.31 5.14-5.14 5.14z" fill="#bb0b0b" data-original="#000000" opacity="1" class=""></path><path d="M59.91 18.73c-.15 0-.29.03-.43.04-1.79-3.21-5.19-5.27-8.88-5.27H20.13c-.48 0-.88.39-.88.88s.39.88.88.88H50.6c2.91 0 5.61 1.55 7.14 3.99-1.65.81-2.79 2.49-2.79 4.44s1.15 3.63 2.79 4.44c-1.53 2.45-4.23 3.99-7.14 3.99h-2.59v-1.01c0-.4-.27-.75-.66-.85l-2.64-.67c-.25-.85-.59-1.68-1.02-2.46l1.39-2.35c.2-.34.15-.78-.13-1.07l-2.67-2.67a.875.875 0 0 0-1.07-.13l-2.35 1.39c-.78-.43-1.6-.77-2.46-1.02l-.67-2.64a.877.877 0 0 0-.85-.66H31.1c-.4 0-.75.27-.85.66l-.67 2.64c-.85.25-1.68.59-2.46 1.02l-2.35-1.39a.893.893 0 0 0-1.07.13l-2.67 2.67c-.28.28-.34.72-.13 1.07l1.39 2.35c-.43.78-.77 1.6-1.02 2.46l-2.64.67c-.39.1-.66.45-.66.85v1.01H15.4c-3.69 0-7.09 2.06-8.88 5.27-.14-.01-.28-.04-.43-.04-2.74 0-4.96 2.23-4.96 4.96s2.23 4.96 4.96 4.96c.15 0 .29-.03.43-.04 1.78 3.21 5.19 5.27 8.88 5.27h28.81c.48 0 .88-.39.88-.88s-.39-.88-.88-.88H15.4c-2.91 0-5.61-1.55-7.14-3.99 1.65-.81 2.79-2.49 2.79-4.44s-1.15-3.63-2.79-4.44c1.53-2.45 4.23-3.99 7.14-3.99h2.59v1.01c0 .4.27.75.66.85l2.64.67c.25.85.59 1.68 1.02 2.46l-1.39 2.35c-.21.34-.15.78.13 1.07l2.67 2.67c.28.28.72.34 1.07.13l2.35-1.39c.78.43 1.6.77 2.46 1.02l.67 2.64c.1.39.45.66.85.66h3.78c.4 0 .75-.27.85-.66l.67-2.64c.85-.25 1.68-.59 2.46-1.02l2.35 1.39c.34.2.78.15 1.07-.13l2.67-2.67c.28-.28.34-.72.13-1.07l-1.39-2.35c.43-.78.77-1.6 1.02-2.46l2.64-.67c.39-.1.66-.45.66-.85v-1.01h2.59c3.69 0 7.09-2.06 8.88-5.27.14.01.28.04.43.04 2.74 0 4.96-2.23 4.96-4.96s-2.24-4.96-4.98-4.96zM9.3 42.31c0 1.77-1.44 3.21-3.21 3.21s-3.21-1.44-3.21-3.21 1.44-3.21 3.21-3.21 3.21 1.44 3.21 3.21zm36.96-8.1-2.48.63c-.31.08-.56.33-.63.64a10.11 10.11 0 0 1-1.22 2.94c-.17.28-.17.62 0 .9l1.31 2.2-1.71 1.71-2.2-1.31a.88.88 0 0 0-.9 0c-.91.56-1.9.96-2.94 1.22-.31.08-.56.32-.64.63l-.63 2.48H31.8l-.63-2.48a.871.871 0 0 0-.64-.63c-1.04-.25-2.02-.66-2.94-1.22a.858.858 0 0 0-.9 0l-2.2 1.31-1.71-1.71 1.31-2.2a.88.88 0 0 0 0-.9c-.56-.91-.97-1.9-1.22-2.94a.888.888 0 0 0-.63-.64l-2.48-.63v-2.42l2.48-.63c.31-.08.56-.33.63-.64.25-1.04.66-2.02 1.22-2.94.17-.28.17-.62 0-.9l-1.31-2.2 1.71-1.71 2.2 1.31c.28.16.62.16.9 0 .91-.56 1.9-.96 2.94-1.22.31-.08.56-.32.64-.63l.63-2.48h2.42l.63 2.48c.08.31.33.56.64.63 1.04.25 2.02.66 2.94 1.22.28.17.62.17.9 0l2.2-1.31 1.71 1.71-1.31 2.2c-.17.28-.16.63.01.9.55.91.96 1.9 1.22 2.94.08.31.32.56.63.64l2.48.63v2.42zm13.65-7.31c-1.77 0-3.21-1.44-3.21-3.21s1.44-3.21 3.21-3.21 3.21 1.44 3.21 3.21-1.44 3.21-3.21 3.21z" fill="#bb0b0b" data-original="#000000" opacity="1" class=""></path><path d="M54.64 43.53c-4.46 0-8.1 3.63-8.1 8.1s3.63 8.1 8.1 8.1 8.09-3.63 8.09-8.1-3.63-8.1-8.09-8.1zm0 14.44c-3.5 0-6.35-2.85-6.35-6.35s2.85-6.35 6.35-6.35 6.34 2.85 6.34 6.35-2.84 6.35-6.34 6.35zM9.22 22.47c4.46 0 8.1-3.63 8.1-8.1s-3.63-8.1-8.1-8.1-8.1 3.63-8.1 8.1 3.64 8.1 8.1 8.1zm0-14.44c3.5 0 6.35 2.85 6.35 6.35s-2.85 6.35-6.35 6.35-6.35-2.85-6.35-6.35 2.85-6.35 6.35-6.35z" fill="#bb0b0b" data-original="#000000" opacity="1" class=""></path><path d="M7.51 16.92a.87.87 0 0 0 1.24 0l3.85-3.85c.34-.34.34-.9 0-1.24s-.9-.34-1.24 0l-3.23 3.23-1.05-1.05c-.34-.34-.9-.34-1.24 0s-.34.9 0 1.24zM56.78 49.08l-3.23 3.23-1.05-1.05c-.34-.34-.9-.34-1.24 0s-.34.9 0 1.24l1.67 1.67a.87.87 0 0 0 1.24 0l3.85-3.85c.34-.34.34-.9 0-1.24s-.9-.34-1.24 0z" fill="#bb0b0b" data-original="#000000" opacity="1" class=""></path></g></svg>