<svg xmlns="http://www.w3.org/2000/svg" version="1.1" xmlns:xlink="http://www.w3.org/1999/xlink" xmlns:svgjs="http://svgjs.com/svgjs" width="512" height="512" x="0" y="0" viewBox="0 0 64 64" style="enable-background:new 0 0 512 512" xml:space="preserve" class=""><g><path d="M61 2.758H16.087a1 1 0 0 0-1 1V13c.027 1.313 1.975 1.317 2 0V4.758h28.636v6.393a1 1 0 0 0 1 1h7.138a1 1 0 0 0 1-1V4.758H60v35.853c-1.312.018-1.315 1.98 0 2h1a1 1 0 0 0 1-1V3.758a1 1 0 0 0-1-1zm-8.139 7.393h-5.138V4.758h5.138zM8.949 39.949h8.328c1.312-.021 1.316-1.978 0-2H8.949c-1.312.021-1.317 1.978 0 2zM22.036 43.864H8.95c-1.31.02-1.318 1.978 0 2h13.087c1.31-.02 1.318-1.978 0-2z" fill="#bb0b0b" data-original="#000000" class="" opacity="1"></path><path d="M45.83 35.584c-.063 0-.125.008-.189.01v-17.05a1 1 0 0 0-1-1H3a1 1 0 0 0-1 1v33.122a1 1 0 0 0 1 1h30.677c5.01 13.46 24.79 10.163 25.051-4.253.133-6.945-5.99-12.946-12.897-12.83zm-11.707-16.04v8.646h-7.518v-8.646zM4 50.666V19.544h20.605v9.646a1 1 0 0 0 1 1h9.518a1 1 0 0 0 1-1v-9.646h7.518v16.223c-6.864 1.027-11.861 8.085-10.51 14.899zm41.83 8.576c-6.655.12-12.079-6.359-10.705-12.875 1.71-9.295 14.156-11.974 19.624-4.175 5.102 6.988-.245 17.17-8.918 17.05z" fill="#bb0b0b" data-original="#000000" class="" opacity="1"></path><path d="M45.83 46.23a1 1 0 0 0-1 1v8.28a1 1 0 1 0 2 0v-8.28a1 1 0 0 0-1-1zM45.83 41.498a1 1 0 0 0-1 1v1.183a1 1 0 1 0 2 0v-1.183a1 1 0 0 0-1-1z" fill="#bb0b0b" data-original="#000000" class="" opacity="1"></path></g></svg>