<svg xmlns="http://www.w3.org/2000/svg" version="1.1" xmlns:xlink="http://www.w3.org/1999/xlink" xmlns:svgjs="http://svgjs.com/svgjs" width="512" height="512" x="0" y="0" viewBox="0 0 64 64" style="enable-background:new 0 0 512 512" xml:space="preserve" class=""><g><path d="M21.71545,51.89c.42414.10755,5.34168,2.1565,5.65448,2.00977a1.92587,1.92587,0,0,0,1.79151-1.239c.21686-.43329.73437-2.32654,1.1441-2.58258l7.96088-6.379a7.97751,7.97751,0,0,0,2.4704-3.39679l2.66931-7.049a1.77947,1.77947,0,0,0-2.18189-2.31525l-1.39264.43561A4.74018,4.74018,0,0,0,36.81909,34.183l-.759,1.94092c-.42639,1.4046-2.20429,2.11261-3.37225,2.75556.01055-.13007.01886-1.40223.02264-1.55671a1.79452,1.79452,0,0,0-2.72162-1.53491l-3.79938,2.35907a6.02783,6.02783,0,0,0-2.443,2.96912l-3.145,8.30212A1.91927,1.91927,0,0,0,21.71545,51.89ZM25.55206,41.8006a4.08761,4.08761,0,0,1,1.65619-2.01306l3.56787-2.21582-.01269,1.08807A2.40937,2.40937,0,0,1,29.631,40.67761l-1.36432.85474a.96571.96571,0,0,0,1.025,1.63678,17.87444,17.87444,0,0,0,2.0064-1.34448l4.10767-2.21772a5.40811,5.40811,0,0,0,2.45343-2.78009c.53449-1.30273.949-3.21454,2.54962-3.6098l1.07385-.33618-2.55236,6.73785a6.036,6.036,0,0,1-1.87073,2.57318l-7.96173,6.37958c-.915.62152-1.32,2.44373-1.72412,3.39728L22.407,50.10223Z" fill="#bb0b0b" data-original="#000000" class=""></path><path d="M34.01117,28.20593c2.074-1.42322,5.39886-2.70935,6.2428-5.32861l3.14367-8.30072A1.92565,1.92565,0,0,0,42.285,12.10388l-4.97467-1.8844a1.92643,1.92643,0,0,0-2.47229,1.11359l-.79766,2.10547a1.11731,1.11731,0,0,1-.346.47705l-7.9618,6.37958a7.97325,7.97325,0,0,0-2.46893,3.3963l-2.67029,7.049a1.78088,1.78088,0,0,0,2.182,2.31525l1.39349-.43555a4.73783,4.73783,0,0,0,3.01111-2.80939l.75952-1.94043c.42823-1.40631,2.20374-2.11267,3.37274-2.756-.01037.12555-.019,1.40546-.02264,1.5567A1.7945,1.7945,0,0,0,34.01117,28.20593Zm-5.41638-3.81915c-1.83051.87836-2.56854,2.94165-3.21283,4.7207-.42957,1.251-1.69623,1.70215-2.86463,2.00537l2.55194-6.7373a6.04767,6.04767,0,0,1,1.87122-2.57361l7.95984-6.37866c.91638-.61951,1.3222-2.4444,1.72552-3.39826L41.592,13.892l-3.14453,8.30121a4.08435,4.08435,0,0,1-1.6557,2.01306l-3.56787,2.21576.01227-1.08808a2.40863,2.40863,0,0,1,1.13336-2.01776l1.36432-.85473a.96588.96588,0,0,0-1.02588-1.63684l-1.36432.85467C33.03052,22.0575,29.09692,24.108,28.59479,24.38678Z" fill="#bb0b0b" data-original="#000000" class=""></path><path d="M48.56183,48.60632a.96386.96386,0,0,0,.62421.22913.98531.98531,0,0,0,.15747-.0127C60,47.0614,60,44.5307,60,43.6991V21.51953c-.00189-2.426-4.17981-4.23828-12.41876-5.38483a.96529.96529,0,0,0-.26593,1.91218C56.24353,19.2901,58.069,21.10327,58.069,21.52094c0,.44738-1.6604,1.99847-9.04041,3.21856a.96629.96629,0,0,0-.808.95276V37.98981c-.98688-.14832-2.00867-.288-3.08893-.40772a.96576.96576,0,0,0-.21307,1.91974c1.16138.12848,2.25586.27918,3.302.441v7.92706A.96358.96358,0,0,0,48.56183,48.60632ZM50.15155,26.506c4.127-.7345,6.52478-1.58685,7.91742-2.3883V43.6991c0,.42382-1.48975,1.83764-7.91742,3.0224Z" fill="#bb0b0b" data-original="#000000" class=""></path><path d="M14.65649,48.82275a.98531.98531,0,0,0,.15747.0127.96515.96515,0,0,0,.96552-.96552V39.93872c1.47009-.227,3.05084-.42425,4.72577-.5835a.96561.96561,0,1,0-.18292-1.92254c-1.59973.1524-3.12.33807-4.54285.55145V25.69226a.9659.9659,0,0,0-.808-.95276C7.59192,23.51941,5.931,21.96832,5.931,21.52094c0-1.03437,5.11237-3.31281,17.42926-4.14826a.965.965,0,0,0,.89764-1.02869.95085.95085,0,0,0-1.02868-.89758C17.44794,15.83813,4,17.21527,4,21.52094V43.6991C4,44.5307,4,47.061,14.65649,48.82275ZM5.931,24.11719c1.39264.80194,3.79041,1.65429,7.91742,2.38879V46.7215C7.42078,45.53674,5.931,44.12292,5.931,43.6991Z" fill="#bb0b0b" data-original="#000000" class=""></path></g></svg>