<svg xmlns="http://www.w3.org/2000/svg" version="1.1" xmlns:xlink="http://www.w3.org/1999/xlink" xmlns:svgjs="http://svgjs.com/svgjs" width="512" height="512" x="0" y="0" viewBox="0 0 256 256" style="enable-background:new 0 0 512 512" xml:space="preserve" class=""><g><path d="M109.046 188.677h-28.36a4 4 0 0 1-3.961-3.437l-3.54-24.914a68.84 68.84 0 0 1-9.263-3.847L43.8 171.59a4 4 0 0 1-5.231-.369L18.52 151.167a4 4 0 0 1-.37-5.231L33.276 125.8a68.792 68.792 0 0 1-3.83-9.25l-24.924-3.544a4 4 0 0 1-3.437-3.96v-28.36a4 4 0 0 1 3.437-3.961l24.946-3.545a68.682 68.682 0 0 1 3.832-9.234L18.171 43.8a4 4 0 0 1 .37-5.231L38.6 18.52a4 4 0 0 1 5.231-.37l20.15 15.136a68.658 68.658 0 0 1 9.236-3.828l3.538-24.936a4 4 0 0 1 3.961-3.437h28.361a4 4 0 0 1 3.96 3.437l3.543 24.936a68.582 68.582 0 0 1 9.248 3.834l20.13-15.121a4 4 0 0 1 5.23.37L171.243 38.6a4 4 0 0 1 .369 5.231L156.5 63.952a68.656 68.656 0 0 1 3.842 9.265l24.9 3.538a4 4 0 0 1 3.437 3.961v28.361a4 4 0 0 1-3.438 3.96l-24.9 3.538a68.785 68.785 0 0 1-3.848 9.277l15.1 20.106a4 4 0 0 1-.369 5.23l-20.054 20.055a4 4 0 0 1-5.231.369L125.822 156.5a68.735 68.735 0 0 1-9.279 3.844l-3.537 24.891a4 4 0 0 1-3.96 3.442zm-24.889-8h21.417l3.405-23.963a4 4 0 0 1 2.851-3.28 60.7 60.7 0 0 0 12.438-5.152 4 4 0 0 1 4.334.3l19.363 14.545 15.144-15.145-14.539-19.351a4 4 0 0 1-.3-4.336 60.624 60.624 0 0 0 5.158-12.436 4 4 0 0 1 3.28-2.848l23.972-3.406V84.188l-23.972-3.407a4 4 0 0 1-3.28-2.848 60.585 60.585 0 0 0-5.153-12.425 4 4 0 0 1 .305-4.335L163.131 41.8l-15.145-15.147-19.378 14.556a4 4 0 0 1-4.334.3 60.591 60.591 0 0 0-12.41-5.145 4 4 0 0 1-2.848-3.28l-3.411-24H84.188l-3.411 24a4 4 0 0 1-2.849 3.28 60.6 60.6 0 0 0-12.4 5.139 4 4 0 0 1-4.334-.3L41.8 26.631 26.653 41.775l14.566 19.392a4 4 0 0 1 .3 4.335 60.627 60.627 0 0 0-5.146 12.4 4 4 0 0 1-3.273 2.843L9.085 84.157v21.417l23.994 3.409a4 4 0 0 1 3.28 2.85 60.65 60.65 0 0 0 5.14 12.413 4 4 0 0 1-.306 4.333l-14.562 19.386 15.144 15.144 19.369-14.548a4 4 0 0 1 4.336-.3 60.678 60.678 0 0 0 12.42 5.155 4 4 0 0 1 2.846 3.279z" fill="#bb0b0b" data-original="#000000" opacity="1"></path><path d="M94.9 144.879A50.039 50.039 0 0 1 44.913 94.9a4 4 0 0 1 8 0 41.973 41.973 0 1 0 17.22-33.907 4 4 0 1 1-4.723-6.456 49.984 49.984 0 1 1 29.49 90.342z" fill="#bb0b0b" data-original="#000000" opacity="1"></path><path d="M54.907 76.173a4 4 0 0 1-3.472-5.98 50.245 50.245 0 0 1 3.929-5.888 4 4 0 1 1 6.324 4.9 42.212 42.212 0 0 0-3.3 4.946 4 4 0 0 1-3.481 2.022zM188.681 254.915h-23.337a4 4 0 0 1-3.96-3.437l-2.852-20.068a57.535 57.535 0 0 1-6.907-2.868l-16.2 12.171a4 4 0 0 1-5.231-.369l-16.5-16.5a4 4 0 0 1-.37-5.231L125.5 202.39a57.141 57.141 0 0 1-3.635-9.39 4 4 0 0 1 7.686-2.221 49.161 49.161 0 0 0 4.168 10.069 4 4 0 0 1-.305 4.333L121.8 220.64l11.592 11.592 15.446-11.6a4 4 0 0 1 4.337-.3 49.172 49.172 0 0 0 10.076 4.184 4 4 0 0 1 2.846 3.279l2.718 19.125h16.393l2.715-19.109a4 4 0 0 1 2.851-3.28 49.177 49.177 0 0 0 10.09-4.18 4 4 0 0 1 4.334.305l15.441 11.6 11.592-11.592-11.594-15.435a4 4 0 0 1-.3-4.336 49.2 49.2 0 0 0 4.185-10.087 4 4 0 0 1 3.279-2.849l19.117-2.717v-16.399l-19.118-2.716a4 4 0 0 1-3.279-2.849 49.208 49.208 0 0 0-4.18-10.078 4 4 0 0 1 .3-4.336l11.607-15.451-11.592-11.592-15.456 11.608a4 4 0 0 1-4.334.3 49.233 49.233 0 0 0-10.066-4.173 4 4 0 1 1 2.224-7.684 57.071 57.071 0 0 1 9.388 3.643l16.214-12.18a4 4 0 0 1 5.231.37l16.5 16.5a4 4 0 0 1 .37 5.231l-12.173 16.216a57.22 57.22 0 0 1 2.865 6.909l20.059 2.851a4 4 0 0 1 3.437 3.96v23.336a4 4 0 0 1-3.437 3.961l-20.059 2.85a57.215 57.215 0 0 1-2.87 6.918l12.164 16.194a4 4 0 0 1-.369 5.231l-16.5 16.5a4 4 0 0 1-5.231.37l-16.2-12.169a57.381 57.381 0 0 1-6.92 2.866l-2.848 20.05a4 4 0 0 1-3.964 3.438z" fill="#bb0b0b" data-original="#000000" opacity="1"></path><path d="M139.562 186.329a4 4 0 0 1-3.957-3.447 42.371 42.371 0 0 1-.405-5.844 4 4 0 0 1 8 0 34.323 34.323 0 0 0 .328 4.736 4 4 0 0 1-3.407 4.516 4.084 4.084 0 0 1-.559.039z" fill="#bb0b0b" data-original="#000000" opacity="1"></path><path d="M177.038 218.876a41.722 41.722 0 0 1-37.171-22.619 41.935 41.935 0 0 1-1.486-3.191 4 4 0 0 1 7.39-3.065c.361.87.764 1.737 1.2 2.577a33.842 33.842 0 1 0 30.067-49.378 4 4 0 0 1 0-8 41.838 41.838 0 0 1 0 83.676z" fill="#bb0b0b" data-original="#000000" opacity="1"></path></g></svg>