<svg xmlns="http://www.w3.org/2000/svg" version="1.1" xmlns:xlink="http://www.w3.org/1999/xlink" xmlns:svgjs="http://svgjs.com/svgjs" width="512" height="512" x="0" y="0" viewBox="0 0 64 64" style="enable-background:new 0 0 512 512" xml:space="preserve" class=""><g><path d="M27 62c3.519 0 6.432-2.613 6.92-6h10.666l-1.293 1.293 1.414 1.414 3-3a.997.997 0 0 0 0-1.414l-3-3-1.414 1.414L44.586 54H33.92c-.488-3.387-3.401-6-6.92-6-3.86 0-7 3.14-7 7s3.14 7 7 7zm0-12c2.757 0 5 2.243 5 5s-2.243 5-5 5-5-2.243-5-5 2.243-5 5-5z" fill="#bb0b0b" data-original="#000000" opacity="1" class=""></path><path d="M55 62c3.86 0 7-3.14 7-7s-3.14-7-7-7-7 3.14-7 7 3.14 7 7 7zm0-12c2.757 0 5 2.243 5 5s-2.243 5-5 5-5-2.243-5-5 2.243-5 5-5zM23 25c-3.519 0-6.432 2.613-6.92 6H14.5C7.607 31 2 36.607 2 43.5S7.607 56 14.5 56h2.086l-1.293 1.293 1.414 1.414 3-3a.997.997 0 0 0 0-1.414l-3-3-1.414 1.414L16.586 54H14.5C8.71 54 4 49.29 4 43.5S8.71 33 14.5 33h1.58c.488 3.387 3.401 6 6.92 6 3.86 0 7-3.14 7-7s-3.14-7-7-7zm0 12c-2.757 0-5-2.243-5-5s2.243-5 5-5 5 2.243 5 5-2.243 5-5 5zM26.707 5.293l-1.414 1.414L26.586 8H15.92C15.432 4.613 12.52 2 9 2 5.14 2 2 5.14 2 9s3.14 7 7 7c3.519 0 6.432-2.613 6.92-6h10.666l-1.293 1.293 1.414 1.414 3-3a.997.997 0 0 0 0-1.414zM9 14c-2.757 0-5-2.243-5-5s2.243-5 5-5 5 2.243 5 5-2.243 5-5 5z" fill="#bb0b0b" data-original="#000000" opacity="1" class=""></path><path d="M62 20.5C62 13.607 56.393 8 49.5 8h-5.58C43.432 4.613 40.52 2 37 2c-3.86 0-7 3.14-7 7s3.14 7 7 7c3.519 0 6.432-2.613 6.92-6h5.58C55.29 10 60 14.71 60 20.5S55.29 31 49.5 31H33.414l1.293-1.293-1.414-1.414-3 3a.997.997 0 0 0 0 1.414l3 3 1.414-1.414L33.414 33H49.5C56.393 33 62 27.393 62 20.5zM37 14c-2.757 0-5-2.243-5-5s2.243-5 5-5 5 2.243 5 5-2.243 5-5 5z" fill="#bb0b0b" data-original="#000000" opacity="1" class=""></path></g></svg>