<svg xmlns="http://www.w3.org/2000/svg" version="1.1" xmlns:xlink="http://www.w3.org/1999/xlink" xmlns:svgjs="http://svgjs.com/svgjs" width="512" height="512" x="0" y="0" viewBox="0 0 64 64" style="enable-background:new 0 0 512 512" xml:space="preserve" class=""><g><g data-name="9-productivity"><path d="M63.677 21.264a.997.997 0 0 0-.96-.223l-15.952 4.712a1 1 0 0 0-.424 1.666l2.67 2.67L35 44.101l-8.464-8.466a5.014 5.014 0 0 0-7.098.028L.268 56.32a1 1 0 1 0 1.465 1.36l19.145-20.63a3.005 3.005 0 0 1 4.244 0l9.171 9.172a1.03 1.03 0 0 0 1.414 0l15.425-15.426a1 1 0 0 0 0-1.414l-2.188-2.187 12.739-3.763-2.828 13.673-2.066-2.065a1 1 0 0 0-1.414 0L37.122 53.292a3.004 3.004 0 0 1-4.244.001l-9.171-9.172a1 1 0 0 0-1.458.046l-16 18.172a1 1 0 1 0 1.501 1.322l15.296-17.372 8.418 8.419a5.008 5.008 0 0 0 7.072-.001l17.546-17.546 2.67 2.67a1 1 0 0 0 1.686-.505l3.541-17.123a1.002 1.002 0 0 0-.302-.939Z" fill="#bb0b0b" data-original="#000000" opacity="1"></path><path d="M17 56a1 1 0 0 0-1 1v6a1 1 0 0 0 2 0v-6a1 1 0 0 0-1-1ZM5 49a1 1 0 0 0 1-1V34h10v1a1 1 0 0 0 2 0v-2a1 1 0 0 0-1-1H5a1 1 0 0 0-1 1v15a1 1 0 0 0 1 1ZM47 48a1 1 0 0 0-1 1v14a1 1 0 0 0 2 0V49a1 1 0 0 0-1-1ZM47 24a1 1 0 0 0 1-1V2h10v17a1 1 0 0 0 2 0V1a1 1 0 0 0-1-1H47a1 1 0 0 0-1 1v22a1 1 0 0 0 1 1ZM59 42a1 1 0 0 0-1 1v20a1 1 0 0 0 2 0V43a1 1 0 0 0-1-1ZM38 57a1 1 0 0 0-1 1v5a1 1 0 0 0 2 0v-5a1 1 0 0 0-1-1ZM26 33a1 1 0 0 0 1-1V22h10v16a1 1 0 0 0 2 0V21a1 1 0 0 0-1-1H26a1 1 0 0 0-1 1v11a1 1 0 0 0 1 1ZM26 51a1 1 0 0 0-1 1v11a1 1 0 0 0 2 0V52a1 1 0 0 0-1-1Z" fill="#bb0b0b" data-original="#000000" opacity="1"></path></g></g></svg>