<svg xmlns="http://www.w3.org/2000/svg" version="1.1" xmlns:xlink="http://www.w3.org/1999/xlink" xmlns:svgjs="http://svgjs.com/svgjs" width="512" height="512" x="0" y="0" viewBox="0 0 512 512" style="enable-background:new 0 0 512 512" xml:space="preserve" class=""><g><path d="M7.5 301.708a7.5 7.5 0 0 0 7.5-7.5V161.165h372.053c4.143 0 7.5-3.358 7.5-7.5s-3.357-7.5-7.5-7.5H15V99.173a23.434 23.434 0 0 1 8.323-17.926 7.5 7.5 0 0 0-9.687-11.453A38.41 38.41 0 0 0 0 99.173v195.034a7.5 7.5 0 0 0 7.5 7.501z" fill="#bb0b0b" data-original="#000000" opacity="1" class=""></path><path d="M198.9 193.594a7.5 7.5 0 0 0-10.56 1.003l-45.135 54.611a7.5 7.5 0 0 0 0 9.556l45.135 54.612a7.48 7.48 0 0 0 5.785 2.722 7.5 7.5 0 0 0 5.777-12.278l-41.187-49.834 41.187-49.833a7.498 7.498 0 0 0-1.002-10.559zM313.268 314.379a7.469 7.469 0 0 0 4.774 1.719 7.486 7.486 0 0 0 5.785-2.722l45.135-54.612a7.5 7.5 0 0 0 0-9.556l-45.135-54.611a7.5 7.5 0 0 0-11.563 9.556l41.187 49.833-41.187 49.834a7.5 7.5 0 0 0 1.004 10.559zM284.843 192.589a7.498 7.498 0 0 0-9.98 3.591l-51.418 109.223a7.5 7.5 0 1 0 13.572 6.388l51.418-109.223a7.5 7.5 0 0 0-3.592-9.979z" fill="#bb0b0b" data-original="#000000" opacity="1" class=""></path><path d="M473.534 60.708H56.697c-4.143 0-7.5 3.358-7.5 7.5s3.357 7.5 7.5 7.5h416.837c12.939 0 23.466 10.527 23.466 23.466v46.991h-74.541c-4.143 0-7.5 3.358-7.5 7.5s3.357 7.5 7.5 7.5H497v251.662c0 12.939-10.526 23.466-23.466 23.466H38.466C25.526 436.292 15 425.766 15 412.826v-81.413c0-4.142-3.357-7.5-7.5-7.5s-7.5 3.358-7.5 7.5v81.413c0 21.21 17.256 38.466 38.466 38.466h435.068c21.21 0 38.466-17.256 38.466-38.466V99.173c0-21.21-17.256-38.465-38.466-38.465z" fill="#bb0b0b" data-original="#000000" opacity="1" class=""></path><circle cx="63.59" cy="110.936" r="13.892" transform="rotate(-80.8 63.57 110.942)" fill="#bb0b0b" data-original="#000000" opacity="1" class=""></circle><circle cx="106.326" cy="110.936" r="13.892" transform="rotate(-80.8 106.306 110.948)" fill="#bb0b0b" data-original="#000000" opacity="1" class=""></circle><circle cx="149.063" cy="110.936" r="13.892" transform="rotate(-80.8 149.04 110.954)" fill="#bb0b0b" data-original="#000000" opacity="1" class=""></circle><path d="M93.051 359.118H59.697c-4.143 0-7.5 3.358-7.5 7.5s3.357 7.5 7.5 7.5h33.354a7.5 7.5 0 0 0 0-15zM187.468 366.618a7.5 7.5 0 0 0-7.5-7.5h-53.421c-4.143 0-7.5 3.358-7.5 7.5s3.357 7.5 7.5 7.5h53.421a7.5 7.5 0 0 0 7.5-7.5zM353.959 366.618a7.5 7.5 0 0 0-7.5-7.5h-72.625c-4.143 0-7.5 3.358-7.5 7.5s3.357 7.5 7.5 7.5h72.625a7.5 7.5 0 0 0 7.5-7.5zM245.304 366.618a7.5 7.5 0 0 0-7.5-7.5h-21.946c-4.143 0-7.5 3.358-7.5 7.5s3.357 7.5 7.5 7.5h21.946a7.5 7.5 0 0 0 7.5-7.5zM105.099 410.461h33.354c4.143 0 7.5-3.358 7.5-7.5s-3.357-7.5-7.5-7.5h-33.354c-4.143 0-7.5 3.358-7.5 7.5s3.357 7.5 7.5 7.5zM171.947 410.461h50.126c4.143 0 7.5-3.358 7.5-7.5s-3.357-7.5-7.5-7.5h-50.126a7.5 7.5 0 0 0 0 15zM258 410.461h22.808c4.143 0 7.5-3.358 7.5-7.5s-3.357-7.5-7.5-7.5H258c-4.143 0-7.5 3.358-7.5 7.5s3.357 7.5 7.5 7.5zM448.083 410.461c4.143 0 7.5-3.358 7.5-7.5s-3.357-7.5-7.5-7.5h-22.624c-4.143 0-7.5 3.358-7.5 7.5s3.357 7.5 7.5 7.5zM316.615 410.461h74.532c4.143 0 7.5-3.358 7.5-7.5s-3.357-7.5-7.5-7.5h-74.532a7.5 7.5 0 0 0 0 15z" fill="#bb0b0b" data-original="#000000" opacity="1" class=""></path></g></svg>