<svg xmlns="http://www.w3.org/2000/svg" version="1.1" xmlns:xlink="http://www.w3.org/1999/xlink" width="512" height="512" x="0" y="0" viewBox="0 0 512 512" style="enable-background:new 0 0 512 512" xml:space="preserve" class=""><g><path d="M178.52 109.44h-46.55c-12.02 0-21.77 9.75-21.77 21.77v304.52c0 12.03 9.75 21.77 21.77 21.77h205.52l64.31-68.36V131.21c0-12.02-9.75-21.77-21.77-21.77h-46.55M62.23 153.887V109.03c0-25.73 20.86-46.59 46.59-46.59h70.79" style="stroke-width:15;stroke-linecap:round;stroke-linejoin:round;stroke-miterlimit:10;" fill="none" stroke="#bb0b0b" stroke-width="15" stroke-linecap="round" stroke-linejoin="round" stroke-miterlimit="10" data-original="#000000" class="" opacity="1"></path><path d="M329.472 504.5H108.82c-25.73 0-46.59-20.86-46.59-46.59V186.478M332.39 62.44h70.79c25.73 0 46.59 20.86 46.59 46.59v348.88c0 25.73-20.86 46.59-46.59 46.59h-37.535" style="stroke-width:15;stroke-linecap:round;stroke-linejoin:round;stroke-miterlimit:10;" fill="none" stroke="#bb0b0b" stroke-width="15" stroke-linecap="round" stroke-linejoin="round" stroke-miterlimit="10" data-original="#000000" class="" opacity="1"></path><path d="M314.336 50.979h-6.942c-2.971 0-5.453-2.174-5.947-5.104C297.773 24.093 278.827 7.5 256 7.5s-41.773 16.593-45.447 38.375c-.494 2.929-2.977 5.104-5.947 5.104h-6.942c-11.018 0-19.949 8.931-19.949 19.949v32.906c0 11.018 8.931 19.949 19.949 19.949h116.672c11.018 0 19.949-8.931 19.949-19.949V70.927c0-11.017-8.931-19.948-19.949-19.948zM401.799 389.139H362.08c-13.581 0-24.59 11.009-24.59 24.59v43.775l64.309-68.365h0zM190.379 248.85h-38.044a6.335 6.335 0 0 1-6.335-6.335v-40.313a6.335 6.335 0 0 1 6.335-6.335h38.044a6.335 6.335 0 0 1 6.335 6.335v40.313a6.335 6.335 0 0 1-6.335 6.335zM275.022 248.85h-38.044a6.335 6.335 0 0 1-6.335-6.335v-61.733a6.335 6.335 0 0 1 6.335-6.335h38.044a6.335 6.335 0 0 1 6.335 6.335v61.733a6.335 6.335 0 0 1-6.335 6.335zM359.665 248.85h-38.044a6.335 6.335 0 0 1-6.335-6.335v-85.068a6.335 6.335 0 0 1 6.335-6.335h38.044a6.335 6.335 0 0 1 6.335 6.335v85.068a6.335 6.335 0 0 1-6.335 6.335zM230.948 357.588l13.37 19.125 36.734-46.344" style="stroke-width:15;stroke-linecap:round;stroke-linejoin:round;stroke-miterlimit:10;" fill="none" stroke="#bb0b0b" stroke-width="15" stroke-linecap="round" stroke-linejoin="round" stroke-miterlimit="10" data-original="#000000" class="" opacity="1"></path><circle cx="256" cy="353.541" r="62.29" style="stroke-width:15;stroke-linecap:round;stroke-linejoin:round;stroke-miterlimit:10;" fill="none" stroke="#bb0b0b" stroke-width="15" stroke-linecap="round" stroke-linejoin="round" stroke-miterlimit="10" data-original="#000000" class="" opacity="1"></circle></g></svg>