<svg xmlns="http://www.w3.org/2000/svg" version="1.1" xmlns:xlink="http://www.w3.org/1999/xlink" width="512" height="512" x="0" y="0" viewBox="0 0 512 512" style="enable-background:new 0 0 512 512" xml:space="preserve" class=""><g><g fill-rule="evenodd" clip-rule="evenodd"><path fill="#fad1a2" d="M224 412c15.6-1.6 60.1-18.4 63.8-21l55-38.9c25.7-16.5 54.2-1.6 31.3 18.6-15.6 13.7-46.6 42.6-75.9 67.8l-52.8 7.2z" opacity="1" data-original="#fad1a2"></path><path fill="#fad1a2" d="m98.3 386.1 95.8-55.1c49.6-24.6 67.5 15.3 29.5 33.3-27.8 15.2-50.7 29-50.5 33.8.1 3.6 123.1 15.4 137.4 7.4l76.9-42.9c27.5-13.4 54.1 4.9 28.9 22.2-31.4 21.6-120.5 87.6-148.1 95.6-17.3 1.9-145.9 1.1-170 1.8z" opacity="1" data-original="#fad1a2"></path><path fill="#cc3737" d="m52.1 368 37.4-.3c4.9 0 8.8 4.3 8.8 9.1l-.1 105.3c0 4.9-4 8.6-8.8 8.6l-37.5.3c-4.9.1-8.8-4.3-8.8-9.1l.1-105.3c.1-4.9 4.1-8.6 8.9-8.6z" opacity="1" data-original="#cc3737"></path><path fill="#ffcd05" d="M240.7 66.5h29.2v19c10.6 2 20.5 6.2 29.1 12.1l13.4-13.4 20.6 20.6-13.4 13.4c5.9 8.6 10.1 18.5 12.1 29.1h19v29.1h-19c-2 10.7-6.2 20.5-12.1 29.1L333 219l-20.6 20.6-13.4-13.4c-8.6 5.9-18.5 10.1-29.1 12.1v19h-29.2v-19c-10.6-2-20.5-6.2-29.1-12.1l-13.4 13.4-20.7-20.6 13.4-13.4c-5.9-8.6-10.1-18.5-12.1-29.1h-19v-29.1h19c2-10.6 6.2-20.5 12.1-29.1l-13.4-13.4 20.6-20.6 13.4 13.4c8.6-5.9 18.5-10.1 29.1-12.1V66.5z" opacity="1" data-original="#ffcd05"></path><path fill="#cc3737" d="M255.3 121.4c22.4 0 40.5 18.1 40.5 40.5s-18.1 40.5-40.5 40.5c-22.3 0-40.5-18.1-40.5-40.5s18.2-40.5 40.5-40.5z" opacity="1" data-original="#cc3737"></path><path fill="#04b3e1" d="m426.1 113.5 21.4 15.5 21.4 15.6-8.2 25.1-8.2 25.2h-52.9l-8.2-25.2-8.1-25.1 21.4-15.6zM59.4 128.2h67.3v67.4H59.4z" opacity="1" data-original="#04b3e1"></path></g><path d="M59.4 121.2h67.4c3.9 0 7 3.1 7 7v67.4c0 3.9-3.1 7-7 7H59.4c-3.9 0-7-3.1-7-7v-67.4c0-3.9 3.1-7 7-7zm60.3 14H66.4v53.3h53.3zm310.6-27.3 42.7 31c2.6 1.9 3.5 5.2 2.5 8.1l-16.3 50.1c-1 2.9-3.7 4.8-6.6 4.8h-52.9c-3.3 0-6-2.2-6.8-5.3l-16.2-49.9c-1-2.9.2-6.1 2.6-7.8l42.8-31.1c2.4-1.8 5.8-1.7 8.2.1zm13.1 26.8-17.3-12.6-34.6 25.1 13.2 40.6h42.8l13.2-40.6zM361.2 244c2.4-3.1 6.7-3.6 9.8-1.2s3.6 6.7 1.3 9.8c-8.5 10.9-18.6 20.8-29.8 29-3.1 2.3-7.5 1.6-9.8-1.6-2.2-3.1-1.6-7.5 1.6-9.8 10.1-7.5 19.2-16.3 26.9-26.2zm-53.8 41.3c3.5-1.5 7.7.2 9.1 3.7 1.5 3.5-.2 7.7-3.7 9.1-16.2 6.8-33.1 10.7-50.4 11.5-3.9.2-7.1-2.8-7.3-6.6-.2-3.9 2.8-7.1 6.7-7.3 15.6-.7 31-4.3 45.6-10.4zm-76.3 8.3c3.8.7 6.3 4.3 5.6 8.1s-4.3 6.3-8.1 5.6c-31.8-5.8-60.9-22-82.7-45.9l.8 9.4c.3 3.9-2.6 7.2-6.4 7.5-3.9.3-7.2-2.6-7.5-6.4l-2.7-33c-.4-5.2 5-9.4 10.3-6.7l29.5 14c3.5 1.6 5 5.8 3.3 9.3-1.6 3.5-5.8 5-9.3 3.3l-1.9-.9c18.9 18.5 43.1 30.9 69.1 35.7zM364 52.9c-.3-3.9 2.6-7.2 6.4-7.5 3.9-.3 7.2 2.6 7.5 6.4l2.7 33c.4 5.2-5 9.4-10.3 6.7l-29.5-14c-3.5-1.6-5-5.8-3.3-9.3 1.6-3.5 5.8-5 9.3-3.3l1.8.9c-18.9-18.3-43.1-30.8-69.1-35.6-3.8-.7-6.3-4.3-5.6-8.1s4.3-6.3 8.1-5.6c31.7 5.8 61 22.2 82.7 46zM149.4 79.7c-2.4 3.1-6.7 3.6-9.8 1.2s-3.6-6.7-1.3-9.8c8.5-10.9 18.7-20.8 29.8-29 3.1-2.3 7.5-1.6 9.8 1.6 2.3 3.1 1.6 7.5-1.6 9.8-10.1 7.5-19.2 16.3-26.9 26.2zm53.8-41.3c-3.5 1.5-7.6-.2-9.1-3.7s.2-7.6 3.7-9.1c16.2-6.8 33.1-10.7 50.4-11.5 3.9-.2 7.1 2.8 7.3 6.6.2 3.9-2.8 7.1-6.7 7.3-15.5.7-31 4.3-45.6 10.4zm52.1 76c26.2 0 47.5 21.3 47.5 47.5s-21.3 47.5-47.5 47.5-47.5-21.3-47.5-47.5 21.3-47.5 47.5-47.5zm23.7 23.8c-13.1-13.1-34.3-13.1-47.3 0s-13.1 34.3 0 47.3c13.1 13.1 34.3 13.1 47.3 0s13-34.3 0-47.3zm-38.3-78.7h29.1c3.9 0 7 3.1 7 7v13.4c7.4 2 14.5 4.9 21.1 8.8l9.5-9.5c2.7-2.7 7.2-2.7 9.9 0L338 99.8c2.7 2.7 2.7 7.2 0 9.9l-9.5 9.5c3.8 6.6 6.8 13.7 8.8 21.1h13.4c3.9 0 7 3.1 7 7v29.2c0 4-3.2 7.1-7.6 7h-12.8c-2 7.4-4.9 14.5-8.8 21.1l9.5 9.5c2.7 2.7 2.7 7.2 0 9.9l-20.6 20.6c-2.7 2.7-7.2 2.7-9.9 0l-9.5-9.5c-6.6 3.9-13.7 6.8-21.1 8.8v13.4c0 3.9-3.1 7-7 7h-29.1c-3.9 0-7-3.1-7-7v-13.4c-3.5-.9-7.6-2.3-10.9-3.7-3.5-1.5-7-3.2-10.3-5.1l-9.5 9.5c-2.7 2.7-7.2 2.7-9.9 0L172.6 224c-2.7-2.7-2.7-7.2 0-9.9l9.5-9.5c-3.8-6.6-6.8-13.7-8.7-21.1H160c-3.9 0-7-3.1-7-7v-29.2c0-3.9 3.1-7 7-7h13.4c.9-3.3 2.3-7.7 3.7-10.9 1.5-3.5 3.2-7 5.1-10.3l-9.5-9.5c-2.7-2.7-2.7-7.1 0-9.9l20.6-20.6c2.7-2.7 7.2-2.7 9.9 0l9.5 9.5c6.6-3.9 13.7-6.8 21.1-8.8V66.5c-.1-3.9 3.1-7 6.9-7zm22.2 14h-15.2v11.6c.2 3.5-2.2 6.6-5.7 7.3-4.8.9-9.4 2.3-13.8 4.1-4.3 1.8-8.4 4-12.3 6.6-2.7 2.2-6.7 2-9.2-.6l-8.5-8.5-10.7 10.7 8.5 8.5c2.3 2.3 2.7 6.1.8 8.9-2.7 4-5 8.2-6.8 12.7-1.8 4.3-3.1 8.7-4 13.3-.4 3.5-3.3 6.2-6.9 6.2h-12v15.2h12c3.3 0 6.2 2.4 6.9 5.7.9 4.8 2.3 9.4 4.1 13.8 1.8 4.3 4 8.4 6.6 12.3 2.1 2.7 1.9 6.7-.6 9.2l-8.5 8.5 10.7 10.7 8.5-8.5c2.3-2.3 6.1-2.7 8.9-.8 4 2.7 8.2 5 12.7 6.9 4.3 1.8 8.7 3.1 13.3 4 3.5.4 6.2 3.4 6.2 6.9v12h15.2v-12c0-3.3 2.4-6.2 5.7-6.9 4.8-.9 9.4-2.3 13.8-4.1 4.3-1.8 8.4-4 12.3-6.6 2.7-2.1 6.7-1.9 9.2.6l8.5 8.5 10.7-10.7-8.5-8.5c-2.3-2.3-2.7-6-.8-8.9 5.4-8 9.2-16.9 11-26.5.6-3.2 3.5-5.7 6.9-5.7h12v-15.2h-12c-3.3 0-6.2-2.3-6.9-5.7-.9-4.8-2.3-9.4-4.1-13.8-1.8-4.3-4-8.4-6.6-12.3-2.1-2.7-1.9-6.7.6-9.2l8.5-8.5-11-10.7-8.5 8.5c-2.3 2.4-6.1 2.8-8.9.9-4-2.7-8.2-5-12.7-6.9-4.3-1.8-8.7-3.1-13.4-4-3.5-.4-6.2-3.4-6.2-7v-12zM52.1 361l37.5-.3c7.7 0 14.2 5.9 15.5 13.4l85.5-49.2c.1-.1.3-.1.4-.2 21-10.5 37.6-10.2 47.7-4.8 8.6 4.6 13.3 13.2 12.1 22.8-1.3 9.9-9 20.7-24.2 27.9-13.6 7.4-26 14.5-35 20.3-2.9 1.8-5.3 3.3-7.2 4.3 6.8.4 19.5 1.1 34.6 2.4 8.2.8 16.9 1.4 25.5 2 8-2.5 16.4-5.4 23.5-8.1 8.5-3.2 14.8-5.7 15.7-6.3l55-38.9.3-.2c14.8-9.5 34.7-11.6 45.2-1.7 2.8 2.6 4.6 5.9 5.1 9.7 14.5-5.4 32.3-4.1 40.4 6.4 2.5 3.2 3.7 6.9 3.5 11-.4 6.2-4.3 12.9-13.1 19-5.1 3.5-13.9 9.8-24.1 17-40.1 28.5-102.6 72.8-126 79.6-.4.1-.8.2-1.2.2-16.8 1.8-129 1.2-165.3 1.7-2.6 5.3-8.1 8.6-14.2 8.7l-37.5.3c-8.7 0-15.7-7.5-15.7-16 .3-35.1.1-70.3.1-105.4.1-8.8 7.2-15.5 15.9-15.6zm37.4 13.7-37.4.3c-1 0-1.9.6-1.9 1.6-.1 34.3-1.5 71.5-.1 105.4 0 1 .9 2.1 1.8 2.1 12.4 0 24.9-.2 37.4-.3 1.1 0 1.9-.6 1.9-1.8l.1-95.9v-9.3c0-.9-.8-2.1-1.8-2.1zm192.4 26.5c7.1 0 22.1-.1 25.1-1.8l64.6-36.1c2.9-3 4.1-5.4 3.9-7.1-.4-4.2-14.3-7.7-28.9 1.7l-54.8 38.7c-1.2.9-4.8 2.6-9.9 4.6zm-84.7-64L105.3 390l-.1 85c30.6-.4 154.1-.1 161.7-1.6 21.6-6.7 82.1-49.7 121.2-77.4 9.2-6.5 17.1-12.2 24.3-17.1 7-4.8 10-9.4 2.9-12.4-5.8-2.6-15.1-2.4-24.7 2.2L314 411.5c-13 7.3-78.3 1.6-96 0-18.3-1.7-34.5-4.1-43.5-6.7-.3.1-.7.1-1.1.1-3.9.1-7.1-3-7.1-6.8-.1-5.2 6.8-11.7 18-19 9.2-6 21.9-13.3 35.9-20.9.2-.1.4-.3.7-.4 10.5-5 15.7-11.5 16.4-17 .5-3.9-1.4-6.9-4.8-8.7-7-3.4-18.9-3-35.3 5.1z" fill="#000000" opacity="1" data-original="#000000" class=""></path></g></svg>