<svg xmlns="http://www.w3.org/2000/svg" version="1.1" xmlns:xlink="http://www.w3.org/1999/xlink" xmlns:svgjs="http://svgjs.com/svgjs" width="512" height="512" x="0" y="0" viewBox="0 0 512 512" style="enable-background:new 0 0 512 512" xml:space="preserve" class=""><g><path d="M480.787 26.509h-96.481a7.5 7.5 0 0 0 0 15h96.481c8.94 0 16.213 7.273 16.213 16.213v284.974H15V57.722c0-8.94 7.273-16.213 16.213-16.213h318.092a7.5 7.5 0 0 0 0-15H31.213C14.002 26.509 0 40.511 0 57.722v308.761c0 17.211 14.002 31.213 31.213 31.213h71.801a7.5 7.5 0 0 0 0-15H31.213c-8.94 0-16.213-7.273-16.213-16.213v-8.787h482v8.787c0 8.94-7.273 16.213-16.213 16.213H137.684a7.5 7.5 0 0 0 0 15h47.204l-7.405 42.795h-13.686c-12.407 0-22.5 10.093-22.5 22.5s10.093 22.5 22.5 22.5h184.406c12.407 0 22.5-10.093 22.5-22.5s-10.093-22.5-22.5-22.5h-13.686l-7.405-42.795h153.674c17.211 0 31.213-14.002 31.213-31.213V57.722c.001-17.211-14.001-31.213-31.212-31.213zM319.294 440.491h-20.418a7.5 7.5 0 0 0 0 15h49.327c4.136 0 7.5 3.364 7.5 7.5s-3.364 7.5-7.5 7.5H163.797c-4.136 0-7.5-3.364-7.5-7.5s3.364-7.5 7.5-7.5h100.067a7.5 7.5 0 0 0 0-15h-71.158l7.405-42.795H311.89z" fill="#bb0b0b" data-original="#000000" opacity="1" class=""></path><path d="M405.719 216.277a7.501 7.501 0 0 0-6.685 4.099l-35.394 69.565-29.868-58.705a7.501 7.501 0 0 0-13.37 0l-16.191 31.823H278.36a7.5 7.5 0 0 0 0 15h30.45a7.501 7.501 0 0 0 6.685-4.099l11.592-22.783 29.868 58.705a7.501 7.501 0 0 0 13.37 0l35.394-69.565 17.117 33.644a7.501 7.501 0 0 0 6.685 4.099h30.45a7.5 7.5 0 0 0 0-15H434.12l-21.716-42.683a7.5 7.5 0 0 0-6.685-4.1zM278.363 194.059h38.919a7.5 7.5 0 0 0 7.5-7.5v-78.954a7.5 7.5 0 0 0-7.5-7.5h-38.919a7.5 7.5 0 0 0-7.5 7.5v78.954a7.5 7.5 0 0 0 7.5 7.5zm7.5-78.954h23.919v63.954h-23.919zM388.891 121.56h-38.919a7.5 7.5 0 0 0-7.5 7.5v57.499a7.5 7.5 0 0 0 7.5 7.5h38.919a7.5 7.5 0 0 0 7.5-7.5V129.06a7.5 7.5 0 0 0-7.5-7.5zm-7.5 57.499h-23.919V136.56h23.919zM459.971 194.059a7.5 7.5 0 0 0 7.5-7.5V87.81a7.5 7.5 0 0 0-7.5-7.5h-38.919a7.5 7.5 0 0 0-7.5 7.5v98.749a7.5 7.5 0 0 0 7.5 7.5zM428.552 95.31h23.919v83.749h-23.919zM221.898 165.152h-170a7.5 7.5 0 0 0 0 15h170a7.5 7.5 0 0 0 0-15zM51.898 219.993H82.32a7.5 7.5 0 0 0 0-15H51.898a7.5 7.5 0 0 0 0 15zM221.898 204.993H116.685a7.5 7.5 0 0 0 0 15h105.213a7.5 7.5 0 0 0 0-15zM221.898 80.31h-170a7.5 7.5 0 0 0 0 15h170a7.5 7.5 0 0 0 0-15zM51.898 135.152H157.32a7.5 7.5 0 0 0 0-15H51.898a7.5 7.5 0 0 0 0 15zM221.898 120.152h-30.213a7.5 7.5 0 0 0 0 15h30.213a7.5 7.5 0 0 0 0-15zM229.398 251.851a7.5 7.5 0 0 0-7.5-7.5h-170a7.5 7.5 0 0 0 0 15h170a7.5 7.5 0 0 0 7.5-7.5zM51.898 283.981a7.5 7.5 0 0 0 0 15h80a7.5 7.5 0 0 0 0-15z" fill="#bb0b0b" data-original="#000000" opacity="1" class=""></path></g></svg>