<svg xmlns="http://www.w3.org/2000/svg" version="1.1" xmlns:xlink="http://www.w3.org/1999/xlink" xmlns:svgjs="http://svgjs.com/svgjs" width="512" height="512" x="0" y="0" viewBox="0 0 66 66" style="enable-background:new 0 0 512 512" xml:space="preserve" class=""><g><path d="M33.25 17.63h1.13v3.25c0 .28.16.54.41.67.11.05.22.08.34.08.16 0 .32-.05.45-.15l5.18-3.85H48c.41 0 .75-.34.75-.75s-.34-.75-.75-.75h-7.49c-.16 0-.32.05-.45.15l-4.18 3.11v-2.51c0-.41-.34-.75-.75-.75h-1.88c-.83 0-1.5-.67-1.5-1.5V4.14c0-.83.67-1.51 1.5-1.51h17.49c.83 0 1.51.68 1.51 1.51v10.49c0 .83-.68 1.5-1.51 1.5-.41 0-.75.34-.75.75s.34.75.75.75c1.66 0 3.01-1.34 3.01-3V4.14c0-1.66-1.35-3.01-3.01-3.01H33.25c-1.65 0-3 1.35-3 3.01v10.49c0 1.66 1.34 3 3 3z" fill="#bb0b0b" data-original="#000000" opacity="1" class=""></path><path d="m44.95 6.34-4.52 4.52-1.85-1.85c-.29-.29-.77-.29-1.06 0s-.29.77 0 1.06l2.38 2.38c.15.15.34.22.53.22s.38-.07.53-.22l5.05-5.05c.29-.29.29-.77 0-1.06s-.76-.29-1.06 0zM57.98 41.27a4.98 4.98 0 0 0-9.96 0c0 1.66.82 3.12 2.08 4.03-.51.19-1.02.42-1.49.71a.747.747 0 1 0 .79 1.27 6.902 6.902 0 0 1 3.61-1.03c3.79 0 6.87 3.08 6.87 6.87v.1H49c-.41 0-.75.34-.75.75s.34.75.75.75h11.62c.41 0 .75-.34.75-.75v-.85c0-3.59-2.27-6.64-5.45-7.83 1.24-.91 2.06-2.37 2.06-4.02zM53 44.75c-1.92 0-3.48-1.56-3.48-3.48s1.56-3.48 3.48-3.48 3.48 1.56 3.48 3.48-1.56 3.48-3.48 3.48zM17.98 41.27a4.98 4.98 0 0 0-9.96 0c0 1.65.82 3.11 2.06 4.02-3.18 1.19-5.45 4.24-5.45 7.83v.85c0 .41.34.75.75.75H17c.41 0 .75-.34.75-.75s-.34-.75-.75-.75H6.13v-.1c0-3.79 3.08-6.87 6.87-6.87 1.27 0 2.52.36 3.6 1.03a.747.747 0 1 0 .79-1.27c-.47-.29-.97-.52-1.49-.71 1.26-.91 2.08-2.37 2.08-4.03zM13 44.75c-1.92 0-3.48-1.56-3.48-3.48s1.56-3.48 3.48-3.48 3.48 1.56 3.48 3.48-1.56 3.48-3.48 3.48zM46.75 56.88v-28c0-2.62-2.13-4.75-4.75-4.75H24c-2.62 0-4.75 2.13-4.75 4.75v28c0 2.62 2.13 4.75 4.75 4.75h18c2.62 0 4.75-2.13 4.75-4.75zm-1.5 0c0 1.79-1.46 3.25-3.25 3.25H24c-1.79 0-3.25-1.46-3.25-3.25v-28c0-1.79 1.46-3.25 3.25-3.25h18c1.79 0 3.25 1.46 3.25 3.25z" fill="#bb0b0b" data-original="#000000" opacity="1" class=""></path><path d="M42 52.13H24c-.41 0-.75.34-.75.75s.34.75.75.75h18c.41 0 .75-.34.75-.75s-.34-.75-.75-.75zM34 56.13H24c-.41 0-.75.34-.75.75s.34.75.75.75h10c.41 0 .75-.34.75-.75s-.34-.75-.75-.75zM36.17 38.68a5.748 5.748 0 0 0 2.58-4.79c0-3.17-2.58-5.75-5.75-5.75s-5.75 2.58-5.75 5.75c0 2 1.03 3.76 2.58 4.79-3.82 1.32-6.58 4.95-6.58 9.21v1c0 .41.34.75.75.75h14.14c.41 0 .75-.34.75-.75s-.34-.75-.75-.75H24.75v-.25c0-4.55 3.7-8.25 8.25-8.25s8.25 3.7 8.25 8.25v.25h-.82c-.41 0-.75.34-.75.75s.34.75.75.75H42c.41 0 .75-.34.75-.75v-1c0-4.27-2.76-7.89-6.58-9.21zm-7.42-4.8c0-2.34 1.91-4.25 4.25-4.25s4.25 1.91 4.25 4.25-1.91 4.25-4.25 4.25-4.25-1.9-4.25-4.25zM21.91 63.01c-.41.24-.85.36-1.29.36H5.38c-1.45 0-2.63-1.18-2.63-2.63v-23.7c0-1.45 1.18-2.63 2.63-2.63H17c.41 0 .75-.34.75-.75s-.34-.76-.75-.76H5.38c-2.28 0-4.13 1.85-4.13 4.13v23.69c0 2.28 1.85 4.13 4.13 4.13h15.23a4.1 4.1 0 0 0 2.03-.55c.36-.21.49-.66.28-1.02a.732.732 0 0 0-1.01-.27zM60.62 32.9H49a.749.749 0 1 0 0 1.5h11.62c1.45 0 2.63 1.18 2.63 2.63v23.69c0 1.45-1.18 2.63-2.63 2.63H45.38c-.44 0-.88-.12-1.29-.36a.75.75 0 0 0-1.02.28.74.74 0 0 0 .28 1.02c.64.37 1.33.55 2.04.55h15.23c2.28 0 4.13-1.85 4.13-4.13V37.04a4.14 4.14 0 0 0-4.13-4.14z" fill="#bb0b0b" data-original="#000000" opacity="1" class=""></path></g></svg>