<svg xmlns="http://www.w3.org/2000/svg" version="1.1" xmlns:xlink="http://www.w3.org/1999/xlink" xmlns:svgjs="http://svgjs.com/svgjs" width="512" height="512" x="0" y="0" viewBox="0 0 500 500" style="enable-background:new 0 0 512 512" xml:space="preserve" class=""><g><path d="M78.54 34.99c-2.92-2.35-3.4-6.63-1.05-9.55s6.63-3.4 9.55-1.05l23.64 18.99c2.92 2.35 3.37 6.63 1.02 9.55s-6.6 3.37-9.55 1.02zm37.39 30.02c-2.92-2.35-3.37-6.6-1.02-9.55 2.35-2.92 6.6-3.37 9.55-1.02l42.89 34.44c2.92 2.35 3.4 6.63 1.05 9.55s-6.63 3.4-9.55 1.05zm58.48 46.94c-2.95-2.32-3.4-6.6-1.05-9.52 2.35-2.95 6.63-3.4 9.55-1.05l45.13 36.23c2.92 2.35 3.37 6.63 1.02 9.55-2.32 2.92-6.6 3.4-9.52 1.05zm61.9 49.75c-2.92-2.35-3.4-6.63-1.05-9.55s6.63-3.4 9.55-1.05l116.31 93.4c3.06 2.44 3.34 6.77.88 9.75l-11.25 13.86 70.5 14.97-29.11-65.93-11.4 14.03c-2.35 2.92-6.6 3.34-9.52 1.02L173.5 73.43c-2.92-2.35-3.4-6.63-1.05-9.55s6.63-3.4 9.55-1.05l192.44 154.54 13.89-17.09c3.15-4.14 9.55-3.8 11.76 1.22l38.98 88.24v.03c2.21 4.99-2.18 10.52-7.63 9.38l-94.39-20.04c-4.85-1.02-7.09-6.97-3.86-10.94l14.09-17.35zM168.76 52.2c2.92 2.35 3.37 6.63 1.05 9.55-2.35 2.92-6.63 3.4-9.55 1.05l-32.88-26.42c-2.92-2.32-3.37-6.6-1.02-9.52 2.32-2.92 6.6-3.4 9.52-1.05zm-47.08-37.81c2.92 2.35 3.37 6.63 1.05 9.55-2.35 2.92-6.63 3.4-9.55 1.05L97.1 12.09c-2.92-2.35-3.37-6.63-1.02-9.55s6.63-3.37 9.55-1.02zm29.82 485.6H67.17c-3.77 0-6.83-3.03-6.83-6.8V132.17c0-3.77 3.06-6.8 6.83-6.8h84.33c3.77 0 6.8 3.03 6.8 6.8v83.45h77.53c3.77 0 6.8 3.03 6.8 6.8v83.45h77.53c3.77 0 6.83 3.03 6.83 6.8v83.45h77.53a6.8 6.8 0 0 1 6.8 6.8v90.26a6.8 6.8 0 0 1-6.8 6.8H151.5zm-6.8-277.57v-83.45H73.97v347.41h70.72V222.42zm84.33 6.8H158.3v257.16h70.72V229.22zm84.33 90.26h-70.72v166.9h70.72zm84.33 90.25h-70.7v76.65h70.7z" fill="#bb0b0b" data-original="#000000" opacity="1"></path></g></svg>