<svg xmlns="http://www.w3.org/2000/svg" version="1.1" xmlns:xlink="http://www.w3.org/1999/xlink" xmlns:svgjs="http://svgjs.com/svgjs" width="512" height="512" x="0" y="0" viewBox="0 0 64 64" style="enable-background:new 0 0 512 512" xml:space="preserve" class=""><g><path d="m52 22c0-11.02832-8.97217-20-20-20s-20 8.97168-20 20 8.97217 20 20 20c1.1908 0 2.3512-.12384 3.48535-.32434v7.91809c0 .55273.44775 1 1 1h2.74023l-7.22559 8.82715-7.22559-8.82715h2.74023c.55225 0 1-.44727 1-1v-5.0791c0-.55273-.44775-1-1-1s-1 .44727-1 1v4.0791h-3.85107c-.38623 0-.73828.22266-.90381.57227-.16553.34863-.11475.76172.12988 1.06152l9.33643 11.40625c.18994.23145.47412.36621.77393.36621s.58398-.13477.77393-.36621l9.33643-11.40625c.24463-.2998.29541-.71289.12988-1.06152-.16553-.34961-.51758-.57227-.90381-.57227h-3.85107v-7.37701c8.36621-2.39246 14.51465-10.09235 14.51465-19.21674zm-38 0c0-9.9248 8.07471-18 18-18s18 8.0752 18 18-8.07471 18-18 18-18-8.0752-18-18z" fill="#bb0b0b" data-original="#000000" class=""></path><path d="m35.81201 7.23047c-.53857-.13867-1.08008.18457-1.21777.71973-.1377.53418.18408 1.08008.71875 1.21777 5.85107 1.50586 9.93701 6.78223 9.93701 12.83203 0 7.30566-5.94385 13.25-13.25 13.25s-13.25-5.94434-13.25-13.25 5.94385-13.25 13.25-13.25c.55225 0 1-.44727 1-1s-.44775-1-1-1c-8.40869 0-15.25 6.84082-15.25 15.25s6.84131 15.25 15.25 15.25 15.25-6.84082 15.25-15.25c0-6.96191-4.70361-13.03613-11.43799-14.76953z" fill="#bb0b0b" data-original="#000000" class=""></path><path d="m32 15.875c1.41309 0 2.56249 1.14941 2.56249 2.5625 0 .55273.44776 1 1 1s1-.44727 1-1c0-2.17114-1.5277-3.98602-3.56249-4.44427v-1.52838c0-.55273-.44775-1-1-1s-1 .44727-1 1v1.52844c-2.03479.45825-3.5625 2.27307-3.5625 4.44421 0 2.51563 2.04688 4.5625 4.5625 4.5625 1.41309 0 2.56249 1.14941 2.56249 2.5625s-1.14941 2.5625-2.56249 2.5625-2.5625-1.14941-2.5625-2.5625c0-.55273-.44775-1-1-1s-1 .44727-1 1c0 2.17114 1.52771 3.9859 3.5625 4.44415v1.5285c0 .55273.44775 1 1 1s1-.44727 1-1v-1.52844c2.03479-.45825 3.56249-2.27307 3.56249-4.44421 0-2.51563-2.04687-4.5625-4.56249-4.5625-1.41309 0-2.5625-1.14941-2.5625-2.5625s1.14942-2.5625 2.5625-2.5625z" fill="#bb0b0b" data-original="#000000" class=""></path></g></svg>