<svg xmlns="http://www.w3.org/2000/svg" version="1.1" xmlns:xlink="http://www.w3.org/1999/xlink" width="512" height="512" x="0" y="0" viewBox="0 0 512 512" style="enable-background:new 0 0 512 512" xml:space="preserve" class=""><g><g fill-rule="evenodd"><path fill="#121209" d="m405.45 291.762 58.026 19.49a5.481 5.481 0 0 1 3.741 5.195h.016c0 74.5-13.189 152.145-96.263 179.278a5.451 5.451 0 0 1-3.483-.03c-17.106-5.623-31.237-13.387-42.9-22.8H83.577a5.5 5.5 0 0 1-5.5-5.5v-30.611H48.694a5.5 5.5 0 0 1-5.5-5.5V21.5a5.5 5.5 0 0 1 5.5-5.5h240.654a5.479 5.479 0 0 1 3.935 1.66l34.448 34.448h72.223a5.5 5.5 0 0 1 5.5 5.5v58.282l6.044-.075a5.477 5.477 0 0 1 5.421 4.338h.011l2.289 10.616 4.864 2 8.7-5.921a5.485 5.485 0 0 1 7.069.754l16.948 16.531a5.481 5.481 0 0 1 .792 6.89l-5.906 9.154 2.038 4.854 10.319 1.958a5.484 5.484 0 0 1 4.47 5.611l.287 23.6a5.477 5.477 0 0 1-4.339 5.421v.01l-10.616 2.29-2 4.864 5.921 8.7a5.485 5.485 0 0 1-.754 7.069L440.489 241.5a5.484 5.484 0 0 1-6.89.792l-9.153-5.906-4.855 2.038-1.959 10.319a5.483 5.483 0 0 1-5.61 4.469l-6.57.082z" opacity="1" data-original="#121209" class=""></path><path fill="#e6e4e5" d="m371.012 280.2 23.446 7.875v-34.64l-6.045.075a5.477 5.477 0 0 1-5.421-4.339h-.01l-2.29-10.619-4.864-1.993-5.262 3.583v39.922c.151.036.3.082.446.136zM312.747 461.9a123.964 123.964 0 0 1-18.16-25.116H89.073V461.9zM289.134 425.792a185.745 185.745 0 0 1-12.416-40.934H89.723a5.5 5.5 0 0 1 0-10.993h185.154c-1.048-7.2-1.815-14.492-2.362-21.8H89.723a5.5 5.5 0 0 1 0-10.993h6.006V235.9a5.5 5.5 0 0 1 5.5-5.5h35.73a5.5 5.5 0 0 1 5.5 5.5v105.169h11.805V212.531a5.5 5.5 0 0 1 5.5-5.5h35.731a5.5 5.5 0 0 1 5.5 5.5v128.538H212.8v-85.982a5.5 5.5 0 0 1 5.5-5.5h35.731a5.5 5.5 0 0 1 5.5 5.5v85.982h12.319l-.537-26.127V197.6a5.5 5.5 0 0 1 5.5-5.5h35.727a5.5 5.5 0 0 1 5.5 5.5v99.22l41.538-13.951v-41.617L343.115 225.2a5.484 5.484 0 0 1-.792-6.89l5.906-9.154-2.038-4.854-10.319-1.959a5.483 5.483 0 0 1-4.469-5.61l-.294-23.607a5.476 5.476 0 0 1 4.339-5.421v-.011l10.62-2.29 1.993-4.862-5.922-8.7a5.486 5.486 0 0 1 .753-7.069l16.532-16.948c.051-.052.1-.1.155-.153V102.72h-70.232a5.5 5.5 0 0 1-5.5-5.5V27H54.19v398.792zM89.723 70.882a5.5 5.5 0 0 1 0-10.993h89.663a5.5 5.5 0 0 1 0 10.993zm0 30.406a5.5 5.5 0 1 1 0-10.992h145.543a5.5 5.5 0 1 1 0 10.992zm0 30.406a5.5 5.5 0 0 1 0-10.992h145.543a5.5 5.5 0 1 1 0 10.992z" opacity="1" data-original="#e6e4e5" class=""></path><path fill="#ffffff" d="M273.828 365.855q-.8-6.869-1.313-13.793H236.26a333.462 333.462 0 0 0 37.568 13.793zM95.729 237.2v-1.3a5.5 5.5 0 0 1 5.5-5.5h35.73a5.5 5.5 0 0 1 5.5 5.5v54.731q5.778 5.352 11.805 10.432v-88.532a5.5 5.5 0 0 1 5.5-5.5h35.731a5.5 5.5 0 0 1 5.5 5.5v121.563q5.829 3.417 11.805 6.606v-85.613a5.5 5.5 0 0 1 5.5-5.5h35.731a5.5 5.5 0 0 1 5.5 5.5v85.982h12.319l-.537-26.127V197.6a5.5 5.5 0 0 1 5.5-5.5h35.727a5.5 5.5 0 0 1 5.5 5.5v99.22l41.538-13.951v-41.617L343.115 225.2a5.484 5.484 0 0 1-.792-6.89l5.906-9.154-2.038-4.854-10.319-1.959a5.483 5.483 0 0 1-4.469-5.61l-.294-23.607a5.476 5.476 0 0 1 4.339-5.421v-.011l10.62-2.29 1.993-4.862-5.922-8.7a5.486 5.486 0 0 1 .753-7.069l16.532-16.948c.051-.052.1-.1.155-.153V102.72h-70.232a5.5 5.5 0 0 1-5.5-5.5V27H54.19v130.019A334.871 334.871 0 0 0 95.729 237.2zM89.723 70.882a5.5 5.5 0 0 1 0-10.993h89.663a5.5 5.5 0 0 1 0 10.993zm0 30.406a5.5 5.5 0 1 1 0-10.992h145.543a5.5 5.5 0 1 1 0 10.992zm0 30.406a5.5 5.5 0 0 1 0-10.992h145.543a5.5 5.5 0 1 1 0 10.992z" opacity="1" data-original="#ffffff" class=""></path><path fill="#2582bf" d="m282.306 308.821 24.738-8.308v-97.417h-24.738z" opacity="1" data-original="#2582bf" class=""></path><path fill="#5b8256" d="m413.766 306.115-44.493-14.945-86.955 29.207c.052 8.392.279 16.857.78 25.292l.069 1.116a301.975 301.975 0 0 0 3.433 31.007 5.45 5.45 0 0 1 .222 1.3 183.37 183.37 0 0 0 10.817 38.744c1.951 4.721 3.2 6.965 5.26 11.257 12.847 24.443 33.5 44.407 66.375 55.631 37.8-12.9 59.436-37.357 71.634-66.889 12.131-29.366 15.113-63.982 15.32-97.456l-42.462-14.262zm-44.493 30.6a51.236 51.236 0 1 1-51.235 51.235 51.238 51.238 0 0 1 51.235-51.236z" opacity="1" data-original="#5b8256"></path><path fill="#88ae88" d="m413.766 306.115-44.493-14.945-86.955 29.207c.052 8.392.279 16.857.78 25.292l.069 1.116c.466 7.484 1.153 14.941 2.13 22.3a334.712 334.712 0 0 0 34.109 7.063 51.247 51.247 0 0 1 99.817.351 334.638 334.638 0 0 0 33.934-6.725 388.542 388.542 0 0 0 3.071-49.4z" opacity="1" data-original="#88ae88"></path></g><path fill="#3897d3" d="M223.777 260.584h24.738v80.486h-24.738z" opacity="1" data-original="#3897d3" class=""></path><path fill="#468cbc" d="M165.25 218.027h24.738v123.042H165.25z" opacity="1" data-original="#468cbc"></path><path fill="#7dbfea" fill-rule="evenodd" d="M189.988 327.383V218.027H165.25v91.914q11.958 9.254 24.738 17.442z" opacity="1" data-original="#7dbfea"></path><path fill="#85add0" d="M106.721 241.391h24.738v99.678h-24.738z" opacity="1" data-original="#85add0"></path><path fill="#b9def6" fill-rule="evenodd" d="M131.459 279.977v-38.586h-24.738v10.576a337.806 337.806 0 0 0 24.738 28.01z" opacity="1" data-original="#b9def6"></path><path fill="#2370a8" fill-rule="evenodd" d="m400.513 126.9-8.3.1-1.675 8.825c-.724 4.428-4.334 4.433-8.426 6.142-3.941 1.647-6.506 4.106-9.942 1.895l-8.035-5.184-10.42 10.683 5.155 7.571c2.464 3.549-.105 6.207-1.725 10.146s-1.675 7.52-5.72 8.385l-9.318 2.009.193 14.928 8.827 1.675c4.427.724 4.432 4.333 6.14 8.423 1.647 3.942 4.107 6.507 1.895 9.943l-5.184 8.037 10.682 10.42 7.57-5.154c3.548-2.464 6.206.1 10.147 1.725s7.521 1.676 8.386 5.72l2.009 9.317 14.921-.186 1.675-8.827c.725-4.428 4.335-4.431 8.425-6.141 3.941-1.647 6.506-4.1 9.942-1.9l8.036 5.185 10.421-10.682-5.155-7.571c-2.464-3.547.105-6.206 1.725-10.146 1.61-3.916 1.664-7.518 5.72-8.386l9.317-2.009-.186-14.921-8.826-1.675c-4.429-.724-4.432-4.335-6.142-8.424-1.647-3.941-4.105-6.507-1.894-9.942l5.185-8.037-10.686-10.417-7.57 5.155c-3.548 2.463-6.206-.1-10.146-1.725-3.916-1.61-7.519-1.664-8.386-5.72l-2.009-9.317-6.626.082zM379.2 164.43a28.984 28.984 0 1 1 21.046 49.232v-.022a29.035 29.035 0 0 1-29.291-28.685h.021a28.881 28.881 0 0 1 8.224-20.525z" opacity="1" data-original="#2370a8" class=""></path><path fill="#e6e4e5" fill-rule="evenodd" d="M394.458 116.026V63.105h-55.735l30.233 30.233a5.477 5.477 0 0 1 1.609 3.886v32.551l4.9 3.158 4.857-2.038 1.958-10.318a5.484 5.484 0 0 1 5.61-4.469z" opacity="1" data-original="#e6e4e5" class=""></path><path fill="#b0b0b2" fill-rule="evenodd" d="M294.844 34.768v56.959h56.958z" opacity="1" data-original="#b0b0b2"></path><path fill="#2370a8" fill-rule="evenodd" d="M399.726 166.634a18.054 18.054 0 0 0-17.8 18.32h.021a18.029 18.029 0 0 0 18.3 17.735v-.02c15.471 0 24.006-19.482 12.3-30.9a17.984 17.984 0 0 0-12.821-5.135z" opacity="1" data-original="#2370a8" class=""></path><path fill="#5f9459" fill-rule="evenodd" d="M397.73 359.493a40.244 40.244 0 1 0 0 56.913 40.246 40.246 0 0 0 0-56.913zM346.921 391.5a5.484 5.484 0 0 1 7.471-8.03l9.627 8.971 19.942-20.476a5.481 5.481 0 1 1 7.858 7.642l-23.6 24.237a5.485 5.485 0 0 1-7.751.279z" opacity="1" data-original="#5f9459" class=""></path><path fill="#66a85c" fill-rule="evenodd" d="M397.73 359.493a40.25 40.25 0 0 0-67.356 18.126 339 339 0 0 0 40.192 2.4c1.879 0 3.748-.04 5.619-.071l7.776-7.985a5.48 5.48 0 0 1 8.122 7.35q8.136-.513 16.164-1.41a40.048 40.048 0 0 0-10.517-18.41z" opacity="1" data-original="#66a85c"></path></g></svg>