<svg xmlns="http://www.w3.org/2000/svg" version="1.1" xmlns:xlink="http://www.w3.org/1999/xlink" width="512" height="512" x="0" y="0" viewBox="0 0 512 512" style="enable-background:new 0 0 512 512" xml:space="preserve" class=""><g><path fill="#e8b031" d="M492.029 48.925v269.747c0 20.545-16.655 37.2-37.2 37.2H57.172c-20.545 0-37.2-16.655-37.2-37.2V48.925c0-20.545 16.655-37.2 37.2-37.2h397.657c20.545-.001 37.2 16.654 37.2 37.2z" opacity="1" data-original="#e8b031" class=""></path><path fill="#f4f4f4" d="M492.029 92.722V48.925c0-20.545-16.655-37.2-37.2-37.2H57.172c-20.545 0-37.2 16.655-37.2 37.2v43.797z" opacity="1" data-original="#f4f4f4" class=""></path><path fill="#e8b031" d="M84.563 52.223c0 7.824-6.33 14.154-14.154 14.154s-14.154-6.33-14.154-14.154 6.33-14.154 14.154-14.154 14.154 6.33 14.154 14.154zM136.655 52.223c0 7.824-6.33 14.154-14.154 14.154s-14.154-6.33-14.154-14.154 6.33-14.154 14.154-14.154 14.154 6.33 14.154 14.154zM188.747 52.223c0 7.824-6.33 14.154-14.154 14.154s-14.154-6.33-14.154-14.154 6.33-14.154 14.154-14.154 14.154 6.33 14.154 14.154zM461.117 52.223c0 7.144-5.791 12.935-12.935 12.935H296.607c-7.144 0-12.935-5.791-12.935-12.935s5.791-12.935 12.935-12.935h151.576c7.143 0 12.934 5.791 12.934 12.935z" opacity="1" data-original="#e8b031" class=""></path><path fill="#f4f4f4" d="M427.438 159.572v314.991c0 14.199-11.511 25.71-25.71 25.71H110.273c-14.199 0-25.71-11.511-25.71-25.71V159.572c0-14.199 11.511-25.71 25.71-25.71h291.454c14.2 0 25.711 11.511 25.711 25.71z" opacity="1" data-original="#f4f4f4" class=""></path><path fill="#b5a6b3" d="M157.579 179.663c0 8.883-7.202 16.115-16.115 16.115-8.883 0-16.085-7.232-16.085-16.115 0-8.913 7.202-16.115 16.085-16.115 8.913 0 16.115 7.202 16.115 16.115zM364.518 329.168h-19.422a92.517 92.517 0 0 0-7.183-17.355l13.73-13.73c4.566-4.566 4.566-11.97 0-16.537l-21.28-21.28c-4.566-4.566-11.97-4.566-16.537 0l-13.729 13.729a92.384 92.384 0 0 0-17.355-7.183V247.39c0-6.458-5.235-11.693-11.693-11.693h-30.094c-6.458 0-11.693 5.235-11.693 11.693v19.422a92.517 92.517 0 0 0-17.355 7.183l-13.73-13.73c-4.566-4.566-11.97-4.566-16.537 0l-21.28 21.28c-4.566 4.566-4.566 11.97 0 16.537l13.73 13.73a92.384 92.384 0 0 0-7.183 17.355h-19.422c-6.458 0-11.693 5.235-11.693 11.693v30.094c0 6.458 5.235 11.693 11.693 11.693h19.422a92.517 92.517 0 0 0 7.183 17.355l-13.73 13.73c-4.566 4.566-4.566 11.97 0 16.537l21.28 21.28c4.566 4.566 11.97 4.566 16.537 0l13.73-13.73a92.384 92.384 0 0 0 17.355 7.183v19.422c0 6.458 5.235 11.693 11.693 11.693h30.094c6.458 0 11.693-5.235 11.693-11.693v-19.422a92.517 92.517 0 0 0 17.355-7.183l13.729 13.729c4.566 4.566 11.97 4.566 16.537 0l21.28-21.28c4.566-4.566 4.566-11.97 0-16.537l-13.73-13.73a92.454 92.454 0 0 0 7.184-17.355h19.422c6.458 0 11.693-5.235 11.693-11.693v-30.094c-.001-6.455-5.236-11.691-11.694-11.691z" opacity="1" data-original="#b5a6b3"></path><circle cx="256" cy="355.909" r="45.534" fill="#f4f4f4" transform="rotate(-76.7 256.083 356.001)" opacity="1" data-original="#f4f4f4" class=""></circle><g fill="#4d1958"><path d="M454.829 6H57.173C33.482 6 14.245 25.276 14.245 48.939v269.732c0 23.676 19.263 42.939 42.939 42.939h4.465a5.725 5.725 0 1 0 0-11.45h-4.465c-17.362 0-31.489-14.127-31.489-31.488V98.446h460.609v220.226c0 17.362-14.127 31.488-31.489 31.488h-4.465a5.725 5.725 0 1 0 0 11.45h4.465c23.676 0 42.939-19.263 42.939-42.939V48.924C497.755 25.256 478.498 6 454.829 6zM25.697 86.995V48.924c0-17.395 14.176-31.474 31.487-31.474h397.632c17.362 0 31.489 14.127 31.489 31.489v38.056z" fill="#4d1958" opacity="1" data-original="#4d1958" class=""></path><path d="M70.409 32.345c-10.962 0-19.88 8.916-19.88 19.878s8.918 19.878 19.88 19.878 19.88-8.916 19.88-19.878-8.918-19.878-19.88-19.878zm0 28.305c-4.648 0-8.429-3.78-8.429-8.428s3.781-8.428 8.429-8.428 8.429 3.78 8.429 8.428-3.781 8.428-8.429 8.428zM122.502 32.345c-10.962 0-19.88 8.916-19.88 19.878s8.918 19.878 19.88 19.878c10.96 0 19.878-8.916 19.878-19.878s-8.918-19.878-19.878-19.878zm0 28.305c-4.648 0-8.429-3.78-8.429-8.428s3.781-8.428 8.429-8.428c4.646 0 8.428 3.78 8.428 8.428s-3.782 8.428-8.428 8.428zM174.593 32.345c-10.962 0-19.88 8.916-19.88 19.878s8.918 19.878 19.88 19.878 19.88-8.916 19.88-19.878-8.918-19.878-19.88-19.878zm0 28.305c-4.648 0-8.429-3.78-8.429-8.428s3.781-8.428 8.429-8.428 8.429 3.78 8.429 8.428-3.781 8.428-8.429 8.428zM448.183 33.564H296.607c-10.289 0-18.661 8.372-18.661 18.659s8.372 18.659 18.661 18.659h151.576c10.289 0 18.659-8.372 18.659-18.659s-8.369-18.659-18.659-18.659zm0 25.868H296.607c-3.975 0-7.211-3.235-7.211-7.209s3.235-7.209 7.211-7.209h151.576c3.975 0 7.209 3.235 7.209 7.209s-3.234 7.209-7.209 7.209zM401.728 128.138H110.272c-17.332 0-31.434 14.101-31.434 31.436v314.99C78.838 491.9 92.94 506 110.272 506h291.455c17.332 0 31.434-14.101 31.434-31.436v-314.99c.001-17.336-14.101-31.436-31.433-31.436zm19.984 346.425c0 11.022-8.964 19.986-19.984 19.986H110.272c-11.02 0-19.984-8.964-19.984-19.986v-314.99c0-11.022 8.964-19.986 19.984-19.986h291.455c11.02 0 19.984 8.964 19.984 19.986v314.99z" fill="#4d1958" opacity="1" data-original="#4d1958" class=""></path><path d="M163.305 179.664c0-12.043-9.797-21.842-21.84-21.842-12.026 0-21.81 9.799-21.81 21.842s9.784 21.838 21.81 21.838c12.043.001 21.84-9.795 21.84-21.838zm-32.201 0c0-5.729 4.648-10.392 10.36-10.392 5.729 0 10.39 4.663 10.39 10.392s-4.661 10.388-10.39 10.388c-5.712 0-10.36-4.659-10.36-10.388zM186.025 174.36H256a5.725 5.725 0 1 0 0-11.45h-69.975a5.725 5.725 0 1 0 0 11.45zM186.025 196.415H256a5.725 5.725 0 1 0 0-11.45h-69.975a5.725 5.725 0 1 0 0 11.45zM364.518 323.442H349.26a98.297 98.297 0 0 0-4.355-10.526l10.787-10.783c3.289-3.291 5.101-7.667 5.101-12.319s-1.811-9.028-5.103-12.315l-21.28-21.279c-6.789-6.787-17.839-6.795-24.632 0l-10.785 10.783a98.981 98.981 0 0 0-10.528-4.354v-15.26c0-9.605-7.814-17.418-17.418-17.418h-30.094c-9.603 0-17.418 7.813-17.418 17.418v15.26a98.683 98.683 0 0 0-10.526 4.354l-10.787-10.783c-6.789-6.787-17.839-6.795-24.632 0l-21.279 21.279c-6.789 6.787-6.789 17.839 0 24.634l10.785 10.783a98.963 98.963 0 0 0-4.354 10.526h-15.26c-9.603 0-17.418 7.813-17.418 17.418v30.094c0 9.605 7.814 17.418 17.418 17.418h15.258a98.704 98.704 0 0 0 4.355 10.53l-10.785 10.783c-6.793 6.791-6.793 17.843 0 24.634l21.279 21.279c6.791 6.791 17.845 6.791 24.632 0l10.785-10.787a98.477 98.477 0 0 0 10.528 4.357v15.256c0 9.605 7.814 17.422 17.418 17.422h30.094c9.603 0 17.418-7.816 17.418-17.422v-15.256a98.477 98.477 0 0 0 10.528-4.357l10.785 10.787c6.795 6.795 17.845 6.791 24.632 0l21.279-21.279c6.807-6.799 6.811-17.831 0-24.634l-10.785-10.783a98.497 98.497 0 0 0 4.355-10.53h15.258c9.603 0 17.418-7.813 17.418-17.418V340.86c.001-9.605-7.813-17.418-17.416-17.418zm5.967 47.513a5.973 5.973 0 0 1-5.967 5.967h-19.421a5.727 5.727 0 0 0-5.485 4.081 86.861 86.861 0 0 1-6.739 16.285 5.725 5.725 0 0 0 .991 6.765l13.73 13.728a5.967 5.967 0 0 1 0 8.442l-21.279 21.279c-2.326 2.322-6.111 2.33-8.441 0l-13.73-13.732a5.714 5.714 0 0 0-6.767-.991 86.87 86.87 0 0 1-16.281 6.743 5.722 5.722 0 0 0-4.081 5.483v19.419a5.976 5.976 0 0 1-5.967 5.971h-30.094a5.976 5.976 0 0 1-5.967-5.971v-19.419a5.723 5.723 0 0 0-4.081-5.483 86.87 86.87 0 0 1-16.281-6.743 5.728 5.728 0 0 0-6.767.991l-13.73 13.732a5.978 5.978 0 0 1-8.441 0l-21.279-21.279a5.975 5.975 0 0 1 0-8.442l13.73-13.728a5.724 5.724 0 0 0 .991-6.765 86.861 86.861 0 0 1-6.739-16.285 5.726 5.726 0 0 0-5.485-4.081h-19.421a5.973 5.973 0 0 1-5.967-5.967V340.86a5.973 5.973 0 0 1 5.967-5.967h19.423a5.727 5.727 0 0 0 5.485-4.081 86.84 86.84 0 0 1 6.737-16.281 5.725 5.725 0 0 0-.991-6.765l-13.728-13.728c-2.328-2.33-2.328-6.117-.002-8.442l21.279-21.279a5.978 5.978 0 0 1 8.441 0l13.73 13.728a5.71 5.71 0 0 0 6.763.991 87.171 87.171 0 0 1 16.285-6.739 5.722 5.722 0 0 0 4.081-5.483V247.39a5.973 5.973 0 0 1 5.967-5.967h30.094a5.973 5.973 0 0 1 5.967 5.967v19.423a5.723 5.723 0 0 0 4.081 5.483 86.81 86.81 0 0 1 16.281 6.739 5.716 5.716 0 0 0 6.767-.991l13.73-13.728c2.324-2.326 6.113-2.326 8.441 0l21.279 21.279a5.932 5.932 0 0 1 1.748 4.219 5.938 5.938 0 0 1-1.748 4.223l-13.73 13.728a5.727 5.727 0 0 0-.99 6.769 86.743 86.743 0 0 1 6.737 16.277 5.726 5.726 0 0 0 5.485 4.081h19.421a5.973 5.973 0 0 1 5.967 5.967v30.096z" fill="#4d1958" opacity="1" data-original="#4d1958" class=""></path><path d="M256 304.649c-28.264 0-51.258 22.994-51.258 51.258s22.994 51.262 51.258 51.262 51.26-22.998 51.26-51.262-22.996-51.258-51.26-51.258zm0 91.07c-21.95 0-39.808-17.858-39.808-39.812 0-21.95 17.858-39.808 39.808-39.808s39.81 17.858 39.81 39.808c0 21.954-17.86 39.812-39.81 39.812z" fill="#4d1958" opacity="1" data-original="#4d1958" class=""></path></g></g></svg>