<svg xmlns="http://www.w3.org/2000/svg" version="1.1" xmlns:xlink="http://www.w3.org/1999/xlink" width="512" height="512" x="0" y="0" viewBox="0 0 512 512" style="enable-background:new 0 0 512 512" xml:space="preserve" class=""><g><path fill-rule="evenodd" d="M329.008 16.009h25.3a19.569 19.569 0 0 1 19.529 19.529v8.481a124.172 124.172 0 0 1 30.783 12.757l6-6a19.566 19.566 0 0 1 27.616 0l17.894 17.889a19.567 19.567 0 0 1 0 27.618l-6 6a124.162 124.162 0 0 1 12.757 30.781h8.481a19.57 19.57 0 0 1 19.532 19.529v25.3a19.569 19.569 0 0 1-19.529 19.529h-8.481a124.322 124.322 0 0 1-12.756 30.782l6 6a19.566 19.566 0 0 1 0 27.617l-17.891 17.891a19.564 19.564 0 0 1-27.617 0l-6-6a124.367 124.367 0 0 1-30.783 12.756v8.48a19.57 19.57 0 0 1-19.529 19.53h-25.3a19.572 19.572 0 0 1-19.529-19.53v-8.48a124.2 124.2 0 0 1-30.78-12.757l-6 6a19.565 19.565 0 0 1-27.618 0l-17.89-17.891a19.594 19.594 0 0 1 0-27.616l6-6a124.255 124.255 0 0 1-12.756-30.782h-8.481a19.569 19.569 0 0 1-19.537-19.522v-25.3a19.572 19.572 0 0 1 19.529-19.529h8.481a124.285 124.285 0 0 1 12.757-30.78l-6-6a19.567 19.567 0 0 1 0-27.618l17.89-17.899a19.327 19.327 0 0 1 27.617 0l6 6a124.134 124.134 0 0 1 30.78-12.757v-8.479a19.57 19.57 0 0 1 19.529-19.529zM33.917 344.812l86.071 136.022 47.1-29.805q-43.033-68.012-86.07-136.022l-47.1 29.805zm78.7 148.2a6.37 6.37 0 0 0 8.783 2l57.871-36.612a6.371 6.371 0 0 0 2-8.784l-4.9-7.75 6.169-3.6 107.92 15.585A56.874 56.874 0 0 0 330.87 445l146.53-84.593a30.827 30.827 0 0 0 11.859-42.065 30.083 30.083 0 0 0-18.3-14.244 32.214 32.214 0 0 0-23.4 2.516l-87.532 45.352a30.648 30.648 0 0 0-16.936-13.93l-121.283-40.617a56.9 56.9 0 0 0-38 .2l-80.966 28.06-14.456-22.854a6.37 6.37 0 0 0-8.784-2l-57.867 36.621a6.368 6.368 0 0 0-2 8.783l92.881 146.786zm-2.787-156.293 59.709 94.361 8.308-4.845a6.355 6.355 0 0 1 4.295-.917l110.111 15.9a45.953 45.953 0 0 0 16.534-.467c6.3-1.379 10.026-3.5 15.47-6.629 48.994-28.284 97.918-57.039 147.11-84.937a18.094 18.094 0 0 0 6.814-24.562 17.45 17.45 0 0 0-10.62-8.256 19.516 19.516 0 0 0-14.167 1.567l-89.454 46.35c.345 3.577-.11 10.954-2.094 14.079a37.459 37.459 0 0 1-16.123 16.423 28.466 28.466 0 0 1-22.17 1.581l-88.6-29.671a6.368 6.368 0 1 1 4.047-12.07l88.6 29.674a15.982 15.982 0 0 0 12.44-.932 24.643 24.643 0 0 0 10.5-10.812 18.14 18.14 0 0 0-11.488-22.44L217.767 309.5a44.173 44.173 0 0 0-29.812.152l-78.121 27.074zm231.83-214.845a32.794 32.794 0 1 0 23.185 9.605 32.69 32.69 0 0 0-23.185-9.605zm14.153 18.638a20.017 20.017 0 1 0 5.862 14.153 19.953 19.953 0 0 0-5.862-14.153zm-67.688 62.526a38.443 38.443 0 0 1 8.436-6.37 37.714 37.714 0 0 1 18.418-4.807h53.362a37.7 37.7 0 0 1 18.416 4.807 38.465 38.465 0 0 1 8.437 6.37 65.527 65.527 0 1 0-107.069 0zm98.7 9.679a25.46 25.46 0 0 0-6.257-4.921 25.025 25.025 0 0 0-12.229-3.16h-53.36a25.031 25.031 0 0 0-12.229 3.16 25.433 25.433 0 0 0-6.259 4.921 65.528 65.528 0 0 0 90.336 0zM341.658 86.943a78.3 78.3 0 1 0 55.368 22.935 78.053 78.053 0 0 0-55.368-22.935zm12.651-58.157h-25.3a6.791 6.791 0 0 0-6.754 6.752l-.023 13.478a6.367 6.367 0 0 1-4.991 6.213 112.279 112.279 0 0 0-35.629 14.656 6.388 6.388 0 0 1-8.414-.545l-9.532-9.533a6.665 6.665 0 0 0-9.55 0L236.222 77.7a6.8 6.8 0 0 0 0 9.551l9.516 9.552a6.364 6.364 0 0 1 .866 7.917 112.331 112.331 0 0 0-14.84 35.565 6.39 6.39 0 0 1-6.334 5.558h-13.478a6.79 6.79 0 0 0-6.753 6.752v25.3a6.789 6.789 0 0 0 6.753 6.753l13.478.025a6.366 6.366 0 0 1 6.213 4.991 112.326 112.326 0 0 0 14.657 35.628 6.388 6.388 0 0 1-.544 8.414l-9.532 9.534a6.665 6.665 0 0 0 0 9.55l17.891 17.892a6.794 6.794 0 0 0 9.552 0l9.551-9.515a6.364 6.364 0 0 1 7.917-.867 112.27 112.27 0 0 0 35.565 14.84 6.389 6.389 0 0 1 5.557 6.335v13.476a6.791 6.791 0 0 0 6.754 6.754h25.3a6.791 6.791 0 0 0 6.754-6.754l.024-13.476a6.364 6.364 0 0 1 4.992-6.213 112.3 112.3 0 0 0 35.627-14.657 6.39 6.39 0 0 1 8.416.544l9.532 9.533a6.794 6.794 0 0 0 9.552 0L447.1 252.79a6.793 6.793 0 0 0 0-9.55l-9.516-9.551a6.363 6.363 0 0 1-.866-7.917 112.362 112.362 0 0 0 14.839-35.566 6.391 6.391 0 0 1 6.335-5.558h13.477a6.789 6.789 0 0 0 6.753-6.753v-25.3a6.79 6.79 0 0 0-6.753-6.752l-13.477-.024a6.365 6.365 0 0 1-6.213-4.992 112.355 112.355 0 0 0-14.66-35.627 6.389 6.389 0 0 1 .544-8.414l9.533-9.534a6.8 6.8 0 0 0 0-9.551l-17.891-17.894a6.792 6.792 0 0 0-9.549 0l-9.556 9.515a6.36 6.36 0 0 1-7.917.866A112.39 112.39 0 0 0 366.62 55.35a6.389 6.389 0 0 1-5.557-6.334V35.538a6.791 6.791 0 0 0-6.754-6.752z" fill="#bb0b0b" opacity="1" data-original="#000000" class=""></path></g></svg>