<svg xmlns="http://www.w3.org/2000/svg" version="1.1" xmlns:xlink="http://www.w3.org/1999/xlink" xmlns:svgjs="http://svgjs.com/svgjs" width="512" height="512" x="0" y="0" viewBox="0 0 64 64" style="enable-background:new 0 0 512 512" xml:space="preserve" class=""><g><g data-name="17-Percentage"><path d="M36 64h-8a1 1 0 0 1-1-1V36a2 2 0 0 1 2-2h6a2 2 0 0 1 2 2v27a1 1 0 0 1-1 1zm-7-2h6V36h-6zM23 64h-8a1 1 0 0 1-1-1V48a2 2 0 0 1 2-2h6a2 2 0 0 1 2 2v15a1 1 0 0 1-1 1zm-7-2h6V48h-6zM10 64H2a1 1 0 0 1-1-1v-7a2 2 0 0 1 2-2h6a2 2 0 0 1 2 2v7a1 1 0 0 1-1 1zm-7-2h6v-6H3zM49 64h-8a1 1 0 0 1-1-1V22a2 2 0 0 1 2-2h6a2 2 0 0 1 2 2v41a1 1 0 0 1-1 1zm-7-2h6V22h-6zM62 64h-8a1 1 0 0 1-1-1V10a2 2 0 0 1 2-2h6a2 2 0 0 1 2 2v4h-2v-4h-6v52h6V20h2v43a1 1 0 0 1-1 1z" fill="#bb0b0b" data-original="#000000" class=""></path><path d="M61 16h2v2.001h-2zM29.876 14.131a14.052 14.052 0 0 0-.38-1.868l1.928-.532a15.927 15.927 0 0 1 .434 2.137z" fill="#bb0b0b" data-original="#000000" class=""></path><path d="M16 32A16 16 0 0 1 4.569 4.805 16 16 0 0 1 30.667 9.6l-1.832.8A13.982 13.982 0 0 0 16 2h-.148A14 14 0 1 0 30 16h2a16.051 16.051 0 0 1-15.834 16z" fill="#bb0b0b" data-original="#000000" class=""></path><path d="M15 6h2v3h-2z" fill="#bb0b0b" data-original="#000000" class=""></path><path d="M17.5 24H12v-2h5.5a2.5 2.5 0 0 0 0-5h-3a4.5 4.5 0 0 1 0-9H20v2h-5.5a2.5 2.5 0 0 0 0 5h3a4.5 4.5 0 0 1 0 9z" fill="#bb0b0b" data-original="#000000" class=""></path><path d="M15 23h2v3h-2zM1 62h62v2H1zM5.707 48.707l-1.414-1.414 11-11A1 1 0 0 1 16 36h5.558l19.7-21.673A1 1 0 0 1 42 14h2.54L56.241.349l1.518 1.3-12 14A1 1 0 0 1 45 16h-2.558L22.74 37.673A1 1 0 0 1 22 38h-5.586zM.287 51.288l2-2L3.7 50.702l-2 2z" fill="#bb0b0b" data-original="#000000" class=""></path><path d="M58 6h-2V2h-4V0h5a1 1 0 0 1 1 1z" fill="#bb0b0b" data-original="#000000" class=""></path></g></g></svg>