<svg xmlns="http://www.w3.org/2000/svg" version="1.1" xmlns:xlink="http://www.w3.org/1999/xlink" width="512" height="512" x="0" y="0" viewBox="0 0 512 512" style="enable-background:new 0 0 512 512" xml:space="preserve" class=""><g><g fill-rule="evenodd" clip-rule="evenodd"><ellipse cx="113.248" cy="132.093" fill="#ffd064" rx="105.238" ry="105.237" transform="rotate(-45 113.233 132.125)" opacity="1" data-original="#ffd064" class=""></ellipse><path fill="#ffc338" d="M113.248 26.856c58.121 0 105.237 47.116 105.237 105.237S171.369 237.33 113.248 237.33z" opacity="1" data-original="#ffc338" class=""></path><circle cx="113.248" cy="132.093" r="89.237" fill="#ffe177" opacity="1" data-original="#ffe177" class=""></circle><path fill="#ffd064" d="M113.248 42.856c49.285 0 89.238 39.953 89.238 89.237s-39.953 89.237-89.238 89.237z" opacity="1" data-original="#ffd064" class=""></path><path fill="#fe646f" d="M85.14 359.926h45.272c5.507 0 9.999 4.492 9.999 10v105.221c0 5.508-4.492 10-9.999 10H85.14c-5.508 0-10-4.492-10-10V369.926c-.001-5.507 4.492-10 10-10z" opacity="1" data-original="#fe646f"></path><path fill="#fd4755" d="M107.776 359.926h22.636c5.507 0 9.999 4.492 9.999 10v105.221c0 5.508-4.492 10-9.999 10h-22.636z" opacity="1" data-original="#fd4755"></path><path fill="#ffe177" d="M206.339 249.803h45.273c5.508 0 10 4.492 10 10v215.345c0 5.508-4.492 10-10 10h-45.273c-5.508 0-10-4.492-10-10V259.803c0-5.508 4.492-10 10-10z" opacity="1" data-original="#ffe177" class=""></path><path fill="#ffd064" d="M228.975 249.803h22.636c5.508 0 10 4.492 10 10v215.345c0 5.508-4.492 10-10 10h-22.636z" opacity="1" data-original="#ffd064" class=""></path><path fill="#6cf5c2" d="M327.539 294.318h45.273c5.508 0 10 4.492 10 10v170.83c0 5.508-4.491 10-10 10h-45.273c-5.508 0-10-4.492-10-10v-170.83c0-5.508 4.492-10 10-10z" opacity="1" data-original="#6cf5c2"></path><path fill="#00e499" d="M350.176 294.318h22.637c5.508 0 10 4.492 10 10v170.83c0 5.508-4.491 10-10 10h-22.637z" opacity="1" data-original="#00e499"></path><path fill="#8ac9fe" d="M448.738 164.182h45.273c5.508 0 10 4.492 10 10v300.966c0 5.508-4.492 10-10 10h-45.273c-5.508 0-10-4.492-10-10V174.181c0-5.507 4.492-9.999 10-9.999z" opacity="1" data-original="#8ac9fe" class=""></path><path fill="#60b7ff" d="M471.374 164.182h22.637c5.508 0 10 4.492 10 10v300.966c0 5.508-4.492 10-10 10h-22.637z" opacity="1" data-original="#60b7ff"></path><path d="M154.505 155.821c1.208 9.816-2.231 20.01-11.264 26.864-6.217 4.722-14.213 7.5-22.001 8.585v7.415a8.001 8.001 0 0 1-16 0v-7.566c-6.467-1.047-12.651-3.335-17.949-6.859-7.448-4.962-13.151-12.279-15.562-21.954-1.052-4.278 1.561-8.604 5.84-9.656 4.283-1.052 8.609 1.566 9.661 5.845 1.358 5.458 4.613 9.613 8.878 12.453 10.477 6.977 27.378 6.736 37.51-.948 8.93-6.779 5.656-19.279-3.005-24.51-5.259-3.174-12.132-4.844-18.557-5.901-7.807-1.283-16.255-3.604-23.114-8.08-17.689-11.548-18.217-36.954-2.066-50.086 4.962-4.033 11.128-6.802 17.698-8.123l.665-.132v-7.67c0-4.42 3.58-7.995 8-7.995 4.415 0 8 3.576 8 7.995v7.548c1.076.189 2.146.415 3.207.684 11.368 2.882 21.713 10.359 27.147 23.303 1.708 4.071-.207 8.76-4.278 10.467a8.001 8.001 0 0 1-10.472-4.283c-3.887-9.269-13.439-14.769-23.42-14.774-10.637-.005-23.057 6.387-22.468 18.524.571 11.741 14.236 15.326 23.661 16.873 8.09 1.33 16.911 3.538 24.241 7.962 8.983 5.424 14.478 14.542 15.648 24.019zM132.4 475.15c0 1.08-.915 2-2 2H85.13c-1.085 0-2-.92-2-2V369.921c0-1.08.915-2 2-2h45.27c1.085 0 2 .92 2 2zm-2-123.23H85.13c-9.925 0-18 8.081-18 18.001V475.15c0 9.92 8.076 18.001 18 18.001h45.27c9.925 0 18.001-8.08 18.001-18.001V369.921c0-9.92-8.076-18.001-18.001-18.001zM496 475.15c0 1.08-.919 2-2 2h-45.27c-1.09 0-2-.92-2-2V174.18c0-1.085.911-2 2-2H494c1.08 0 2 .915 2 2zm-2-318.971h-45.27c-9.93 0-18.001 8.076-18.001 18.001v300.97c0 9.92 8.071 18.001 18.001 18.001H494c9.929 0 18-8.08 18-18.001V174.18c0-9.925-8.071-18.001-18-18.001zM374.799 475.15c0 1.08-.91 2-2 2h-45.27c-1.09 0-2-.92-2-2V304.325a2.02 2.02 0 0 1 2-2.005h45.27c1.09 0 2 .91 2 2.005zm-2-188.83h-45.27c-9.93 0-17.996 8.071-17.996 18.005V475.15c0 9.92 8.066 18.001 17.996 18.001h45.27c9.934 0 18-8.08 18-18.001V304.325c0-9.934-8.066-18.005-18-18.005zM253.602 475.15c0 1.08-.915 2-2 2h-45.275c-1.085 0-1.995-.92-1.995-2V259.805c0-1.085.911-2.005 1.995-2.005h45.275c1.085 0 2 .92 2 2.005zm-2-233.346h-45.275c-9.925 0-18 8.071-18 18.001V475.15c0 9.92 8.076 18.001 18 18.001h45.275c9.925 0 18.001-8.08 18.001-18.001V259.805c-.001-9.93-8.077-18.001-18.001-18.001zm-138.367-12.472c53.619 0 97.243-43.624 97.243-97.239 0-53.619-43.624-97.239-97.243-97.239-53.615 0-97.234 43.619-97.234 97.239 0 53.615 43.619 97.239 97.234 97.239zM493.16 73.663c-.339 4.396 2.953 8.245 7.349 8.595 4.401.344 8.25-2.943 8.59-7.345l2.873-35.138a8.854 8.854 0 0 0-.033-1.533c-.5-4.382-4.458-7.529-8.849-7.033l-35.01 4.132c-4.378.5-7.528 4.462-7.028 8.845a7.985 7.985 0 0 0 8.84 7.028l12.901-1.519-91.343 94.975-95.602-47.157a8.014 8.014 0 0 0-9.269.887l-61.917 53.931a113.512 113.512 0 0 0 1.816-20.236c0-62.44-50.803-113.239-113.243-113.239C50.799 18.856.001 69.655.001 132.095S50.8 245.334 113.235 245.334c44.492 0 83.064-25.793 101.569-63.205l78.276-68.181 96.54 47.619a7.984 7.984 0 0 0 9.439-1.788l95.149-98.941z" fill="#000000" opacity="1" data-original="#000000" class=""></path></g></g></svg>