<svg xmlns="http://www.w3.org/2000/svg" version="1.1" xmlns:xlink="http://www.w3.org/1999/xlink" width="30" height="30" x="0" y="0" viewBox="0 0 512 512" style="enable-background:new 0 0 512 512" xml:space="preserve" class=""><g><path fill-rule="evenodd" d="M493.165 73.659a7.994 7.994 0 0 0 15.938 1.25l2.867-35.137h-.003a7.988 7.988 0 0 0-8.872-8.562l-35.011 4.13a7.988 7.988 0 0 0-7.031 8.844 7.988 7.988 0 0 0 8.844 7.031l12.893-1.521-91.34 94.976-95.602-47.156a8 8 0 0 0-9.264.886l-61.92 53.931a113.46 113.46 0 0 0 1.814-20.239c0-62.439-50.798-113.238-113.238-113.238S0 69.652 0 132.091s50.798 113.237 113.237 113.237c44.488 0 83.059-25.792 101.565-63.204l78.28-68.179 96.539 47.618a7.984 7.984 0 0 0 9.436-1.786l95.154-98.941zm-379.927 155.67C59.621 229.329 16 185.708 16 132.091s43.621-97.238 97.237-97.238c53.617 0 97.238 43.621 97.238 97.238s-43.62 97.238-97.237 97.238zM251.601 241.8h-45.273c-9.925 0-18 8.075-18 18v215.345c0 9.925 8.075 18 18 18h45.273c9.925 0 18-8.075 18-18V259.801c0-9.926-8.075-18.001-18-18.001zm2 233.346c0 1.084-.916 2-2 2h-45.273c-1.084 0-2-.916-2-2V259.801c0-1.084.916-2 2-2h45.273c1.084 0 2 .916 2 2zm119.201-188.83h-45.273c-9.925 0-18 8.075-18 18v170.83c0 9.925 8.075 18 18 18h45.273c9.925 0 18-8.075 18-18v-170.83c0-9.925-8.075-18-18-18zm2 188.83c0 1.084-.916 2-2 2h-45.273c-1.084 0-2-.916-2-2v-170.83c0-1.084.916-2 2-2h45.273c1.084 0 2 .916 2 2zM494 156.179h-45.273c-9.925 0-18 8.075-18 18v300.966c0 9.925 8.075 18 18 18H494c9.925 0 18-8.075 18-18V174.179c0-9.925-8.075-18-18-18zm2 318.966c0 1.084-.916 2-2 2h-45.273c-1.084 0-2-.916-2-2V174.179c0-1.084.916-2 2-2H494c1.084 0 2 .916 2 2zM130.401 351.924H85.129c-9.925 0-18 8.075-18 18v105.221c0 9.925 8.075 18 18 18h45.272c9.925 0 18-8.075 18-18V369.924c0-9.925-8.075-18-18-18zm2 123.221c0 1.084-.916 2-2 2H85.129c-1.084 0-2-.916-2-2V369.924c0-1.084.916-2 2-2h45.272c1.084 0 2 .916 2 2zm22.103-319.327c1.209 9.817-2.232 20.013-11.263 26.865-6.219 4.719-14.211 7.5-22.003 8.584v7.418a8 8 0 0 1-16 0v-7.566c-6.466-1.048-12.651-3.336-17.946-6.863-7.448-4.961-13.154-12.277-15.565-21.951a7.981 7.981 0 0 1 15.5-3.812c1.361 5.46 4.617 9.613 8.878 12.451 10.479 6.979 27.382 6.738 37.511-.948 8.933-6.778 5.657-19.278-3.006-24.508-5.254-3.172-12.127-4.846-18.557-5.901-7.802-1.281-16.253-3.601-23.112-8.079-17.688-11.547-18.217-36.953-2.066-50.085 4.963-4.035 11.128-6.805 17.698-8.128l.666-.129v-7.67a8 8 0 0 1 16 0v7.548c1.077.186 2.148.414 3.209.682 11.371 2.883 21.715 10.359 27.148 23.3a7.999 7.999 0 0 1-14.75 6.188c-3.889-9.27-13.441-14.771-23.422-14.776-10.639-.006-23.056 6.386-22.467 18.524.57 11.74 14.237 15.327 23.659 16.874 8.092 1.328 16.913 3.538 24.244 7.964 8.981 5.423 14.477 14.544 15.644 24.018z" clip-rule="evenodd" fill="#bb0b0b" opacity="1" data-original="#000000" class=""></path></g></svg>