<svg xmlns="http://www.w3.org/2000/svg" version="1.1" xmlns:xlink="http://www.w3.org/1999/xlink" width="512" height="512" x="0" y="0" viewBox="0 0 64 64" style="enable-background:new 0 0 512 512" xml:space="preserve" class=""><g><g data-name="Layer 2"><path fill="#60b9fe" d="M55.5 18h-5a3 3 0 0 0-3 3v38a1 1 0 0 0 1 1h9a1 1 0 0 0 1-1V21a3 3 0 0 0-3-3zM41.5 26h-5a3 3 0 0 0-3 3v30a1 1 0 0 0 1 1h9a1 1 0 0 0 1-1V29a3 3 0 0 0-3-3z" opacity="1" data-original="#60b9fe"></path><path fill="#73d578" d="M27.5 34h-5a3 3 0 0 0-3 3v22a1 1 0 0 0 1 1h9a1 1 0 0 0 1-1V37a3 3 0 0 0-3-3z" opacity="1" data-original="#73d578"></path><path fill="#ffe02f" d="M13.5 42h-5a3 3 0 0 0-3 3v14a1 1 0 0 0 1 1h9a1 1 0 0 0 1-1V45a3 3 0 0 0-3-3z" opacity="1" data-original="#ffe02f" class=""></path><circle cx="17" cy="17" r="13" fill="#ffeb7e" opacity="1" data-original="#ffeb7e"></circle><circle cx="17" cy="17" r="9" fill="#ffe02f" opacity="1" data-original="#ffe02f" class=""></circle><path fill="#232323" d="m58.938 7.828-5-4a1.506 1.506 0 0 0-1.874 0l-5 4a1.5 1.5 0 0 0 1.876 2.343L53 6.921l4.063 3.251a1.5 1.5 0 0 0 1.875-2.344z" opacity="1" data-original="#232323"></path><path fill="#232323" d="M53 3.5A1.5 1.5 0 0 0 51.5 5v9a1.5 1.5 0 0 0 3 0V5A1.5 1.5 0 0 0 53 3.5z" opacity="1" data-original="#232323"></path><path fill="#ffb640" d="M17 17.75a3 3 0 1 1 3-3 .75.75 0 0 1-1.5 0 1.5 1.5 0 1 0-1.5 1.5.75.75 0 0 1 0 1.5z" opacity="1" data-original="#ffb640"></path><path fill="#ffb640" d="M17 22.25a3 3 0 0 1-3-3 .75.75 0 0 1 1.5 0 1.5 1.5 0 1 0 1.5-1.5.75.75 0 0 1 0-1.5 3 3 0 0 1 0 6zM17 13.25a.75.75 0 0 1-.75-.75V11a.75.75 0 0 1 1.5 0v1.5a.75.75 0 0 1-.75.75z" opacity="1" data-original="#ffb640"></path><path fill="#ffb640" d="M17 23.75a.75.75 0 0 1-.75-.75v-1.5a.75.75 0 0 1 1.5 0V23a.75.75 0 0 1-.75.75z" opacity="1" data-original="#ffb640"></path><g fill="#232323"><path d="M57.5 60h-9a1 1 0 0 1-1-1V19a1 1 0 0 1 1-1h9a1 1 0 0 1 1 1v40a1 1 0 0 1-1 1zm-8-2h7V20h-7zM43.5 60h-9a1 1 0 0 1-1-1V27a1 1 0 0 1 1-1h9a1 1 0 0 1 1 1v28a1 1 0 0 1-2 0V28h-7v30h8a1 1 0 0 1 0 2zM29.5 60h-9a1 1 0 0 1-1-1V35a1 1 0 0 1 1-1h9a1 1 0 0 1 1 1v24a1 1 0 0 1-1 1zm-8-2h7V36h-7zM15.5 60h-9a1 1 0 0 1-1-1V43a1 1 0 0 1 1-1h9a1 1 0 0 1 1 1v16a1 1 0 0 1-1 1zm-8-2h7V44h-7z" fill="#232323" opacity="1" data-original="#232323"></path><path d="M59 60H5a1 1 0 0 1 0-2h54a1 1 0 0 1 0 2zM17 30a13 13 0 1 1 13-13 13.015 13.015 0 0 1-13 13zm0-24a11 11 0 1 0 11 11A11.013 11.013 0 0 0 17 6z" fill="#232323" opacity="1" data-original="#232323"></path></g></g></g></svg>