<svg xmlns="http://www.w3.org/2000/svg" version="1.1" xmlns:xlink="http://www.w3.org/1999/xlink" xmlns:svgjs="http://svgjs.com/svgjs" width="512" height="512" x="0" y="0" viewBox="0 0 512 512" style="enable-background:new 0 0 512 512" xml:space="preserve" class=""><g><path d="m152.875 138.5h-47c-4.418 0-8 3.582-8 8v47c0 4.418 3.582 8 8 8h47c4.418 0 8-3.582 8-8v-47c0-4.418-3.582-8-8-8zm-8 47h-31v-31h31zm52-38.999c0-4.418 3.582-8 8-8h119.5c4.418 0 8 3.582 8 8s-3.582 8-8 8h-119.5c-4.418 0-8-3.582-8-8zm0 46.998c0-4.418 3.582-8 8-8h119.5c4.418 0 8 3.582 8 8s-3.582 8-8 8h-119.5c-4.418 0-8-3.582-8-8zm-44 52.001h-47c-4.418 0-8 3.582-8 8v47c0 4.418 3.582 8 8 8h47c4.418 0 8-3.582 8-8v-47c0-4.418-3.582-8-8-8zm-8 47h-31v-31h31zm52-39c0-4.418 3.582-8 8-8h119.5c4.418 0 8 3.582 8 8s-3.582 8-8 8h-119.5c-4.418 0-8-3.582-8-8zm72.251 46.999c0 4.418-3.582 8-8 8h-56.251c-4.418 0-8-3.582-8-8s3.582-8 8-8h56.251c4.419 0 8 3.582 8 8zm-116.251 52h-47c-4.418 0-8 3.582-8 8v47.001c0 4.418 3.582 8 8 8h47c4.418 0 8-3.582 8-8v-47.001c0-4.418-3.582-8-8-8zm-8 47.001h-31v-31.001h31zm124.251-39c0 4.418-3.582 8-8 8h-56.251c-4.418 0-8-3.582-8-8s3.582-8 8-8h56.251c4.419 0 8 3.582 8 8zm-19.5 46.999c0 4.418-3.582 8-8 8h-36.751c-4.418 0-8-3.582-8-8s3.582-8 8-8h36.751c4.418 0 8 3.582 8 8zm223.299 38.318-75.8-131.291v-234.527c0-15.438-12.561-27.999-28-27.999h-69v-18c0-4.418-3.582-8-8-8h-38.149c-6.375-15.581-21.553-26-38.851-26s-32.476 10.419-38.851 26h-38.149c-4.418 0-8 3.582-8 8v18h-69c-15.439 0-28 12.561-28 27.999v368.001c0 15.439 12.561 28 28 28h171.976c.917 4.803 2.644 9.509 5.201 13.938 7.975 13.815 22.26 22.062 38.212 22.062h158.201c15.951 0 30.235-8.247 38.211-22.062 7.975-13.813 7.975-30.307-.001-44.121zm-326.8-403.817h35.949c3.696 0 6.911-2.531 7.777-6.124 2.822-11.703 13.215-19.876 25.274-19.876s22.452 8.173 25.274 19.876c.866 3.593 4.081 6.124 7.777 6.124h35.949v36h-138zm92.178 403.817c-2.6 4.504-4.337 9.294-5.242 14.183h-171.936c-6.617 0-12-5.383-12-12v-368.001c0-6.616 5.383-11.999 12-11.999h69v18c0 4.418 3.582 8 8 8h154c4.418 0 8-3.582 8-8v-18h69c6.617 0 12 5.383 12 11.999v214.821c-7.294-5.184-16.107-8.07-25.511-8.07-15.951 0-30.235 8.247-38.21 22.061zm220.766 36.121c-5.084 8.805-14.188 14.062-24.355 14.062h-158.2c-10.167 0-19.271-5.257-24.354-14.062s-5.083-19.316 0-28.121l79.101-137.007c5.083-8.805 14.188-14.061 24.354-14.061s19.271 5.256 24.354 14.061l79.101 137.007c5.082 8.805 5.082 19.317-.001 28.121zm-103.455-36.363c-11.091 0-20.114 9.023-20.114 20.114s9.023 20.114 20.114 20.114 20.115-9.023 20.115-20.114-9.024-20.114-20.115-20.114zm0 24.229c-2.269 0-4.114-1.846-4.114-4.114s1.846-4.114 4.114-4.114c2.269 0 4.115 1.846 4.115 4.114s-1.846 4.114-4.115 4.114zm-.002-29.855h.003c9.441-.001 17.103-7.392 17.443-16.825l2.39-66.195c.175-4.848-1.512-9.256-4.881-12.749-3.368-3.491-7.712-5.337-12.563-5.337h-4.781c-4.852 0-9.196 1.846-12.564 5.337-3.369 3.494-5.057 7.902-4.88 12.749l2.39 66.194c.34 9.437 8 16.826 17.443 16.826zm-3.437-84.662c.341-.353.556-.444 1.048-.444h4.781c.492 0 .707.092 1.047.444.341.354.425.572.408 1.063l-2.39 66.195c-.028.787-.668 1.403-1.456 1.403h-.001c-.787 0-1.426-.615-1.455-1.403l-2.39-66.196c-.017-.49.067-.708.408-1.062z" fill="#bb0b0b" data-original="#000000"></path></g></svg>