<svg xmlns="http://www.w3.org/2000/svg" version="1.1" xmlns:xlink="http://www.w3.org/1999/xlink" xmlns:svgjs="http://svgjs.com/svgjs" width="512" height="512" x="0" y="0" viewBox="0 0 512 512" style="enable-background:new 0 0 512 512" xml:space="preserve" class=""><g><path d="M328.1 164.2c-3.3 0-6-2.7-6-6s2.7-6 6-6H341c3.3 0 6 2.7 6 6s-2.7 6-6 6zm-5.1-32.1c-2.4 2.2-6.2 2.1-8.4-.3s-2.1-6.2.3-8.4l7.9-7.3c2.4-2.2 6.2-2.1 8.5.3 2.2 2.4 2.1 6.2-.3 8.5zm-8.1 61c-2.4-2.2-2.6-6-.3-8.4 2.2-2.4 6-2.6 8.4-.4l7.9 7.3c2.4 2.2 2.6 6 .3 8.5-2.2 2.4-6 2.6-8.5.3zm-21-64.8c22.5 5.5 31.1 33.9 14.9 51.2-4 4.2-9.1 7.3-14.9 8.7v36.2c0 4.6-5.1 7.8-9.5 4.9l-57.7-35.9h-3.1v38.7c0 3.3-2.7 6-6 6h-10.4c-9.3 0-16.4-8.2-16.4-17.5v-28.2c-9.6-3-16.4-11.9-16.4-22.2v-26.3c0-12.8 10.5-23.2 23.3-23.2h29.1l58-36.1c4-2.5 9.2.4 9.2 5.1v38.6zm6.2 16.9c-1.7-1.8-3.8-3.3-6.2-4.3v34.7c11.9-5.2 15-20.9 6.2-30.4zm-77.6-12.5h-24.7c-6.2 0-11.3 5.1-11.3 11.3v26.3c0 6.2 5.1 11.3 11.3 11.3h24.7zm59.4-32.2L234.5 130v54.1l47.5 29.5V100.5zm-70.2 92.9h-8.8v27.2c0 2.8 1.8 5.5 4.4 5.5h4.4zm66.4 196.4H234c-27.9 0-50.7 22.8-50.7 50.7v19.2h145.5v-19.2c-.1-27.8-22.9-50.7-50.7-50.7zm6.2-11.7c31.7 3.2 56.4 30.1 56.4 62.4v25.2c0 3.3-2.7 6-6 6H177.3c-3.3 0-6-2.7-6-6v-25.2c0-32.3 24.7-59.2 56.5-62.4-20.9-16.8-22.6-48-3.6-67 17.6-17.6 46.2-17.6 63.8 0 18.9 19 17.2 50.2-3.7 67zM256 309.9c-18.3 0-33.1 14.8-33.1 33.1s14.8 33.1 33.1 33.1 33.1-14.8 33.1-33.1-14.8-33.1-33.1-33.1zm176.5 11.3h-37.8c-23.4 0-42.5 19.2-42.5 42.5v15.6H475v-15.6c0-23.3-19.2-42.5-42.5-42.5zm7.4-11.4c26.7 3.7 47.1 26.7 47.1 54v21.6c0 3.3-2.7 6-6 6H346.2c-3.3 0-6-2.7-6-6v-21.6c0-27.3 20.4-50.3 47.1-54-16.9-15.1-17.7-41.3-1.6-57.4 15.4-15.4 40.4-15.4 55.8 0 16 16 15.3 42.2-1.6 57.4zm-26.3-57c-24.4 0-36.7 29.6-19.4 46.9s46.9 5 46.9-19.4c0-15.2-12.3-27.5-27.5-27.5zm-296.3 68.4H79.5c-23.4 0-42.5 19.2-42.5 42.5v15.6h122.8v-15.6c0-23.3-19.1-42.5-42.5-42.5zm7.4-11.4c26.7 3.7 47.1 26.7 47.1 54v21.6c0 3.3-2.7 6-6 6H31c-3.3 0-6-2.7-6-6v-21.6c0-27.3 20.4-50.3 47.1-54-16.9-15.1-17.7-41.3-1.6-57.4 15.4-15.4 40.4-15.4 55.8 0 16.1 16.1 15.3 42.3-1.6 57.4zm-26.3-57c-24.4 0-36.7 29.6-19.4 46.9s46.9 5 46.9-19.4c0-15.2-12.3-27.5-27.5-27.5zM256 40.2c66.6 0 120.7 54 120.7 120.6s-54 120.7-120.7 120.7-120.6-54-120.6-120.7c0-66.5 54-120.6 120.6-120.6zm76.8 43.9c-42.4-42.4-111.2-42.4-153.7 0-42.4 42.4-42.4 111.2 0 153.7 42.4 42.4 111.2 42.4 153.7 0 42.5-42.5 42.5-111.3 0-153.7z" fill="#bb0b0b" data-original="#000000" class="" opacity="1"></path></g></svg>