<?xml version="1.0" encoding="utf-8"?>
<!-- Generator: Adobe Illustrator 27.7.0, SVG Export Plug-In . SVG Version: 6.00 Build 0)  -->
<svg version="1.1" id="Layer_1" xmlns="http://www.w3.org/2000/svg" xmlns:xlink="http://www.w3.org/1999/xlink" x="0px" y="0px"
	 viewBox="0 0 71 75" style="enable-background:new 0 0 71 75;" xml:space="preserve">
<style type="text/css">
	.st0{fill:url(#SVGID_1_);}
	.st1{fill:#6D0361;}
	.st2{fill:#FFFFFF;}
</style>
<g>
	
		<linearGradient id="SVGID_1_" gradientUnits="userSpaceOnUse" x1="42.5097" y1="6.9965" x2="42.5128" y2="6.9965" gradientTransform="matrix(1 0 0 -1 0 76)">
		<stop  offset="0" style="stop-color:#DD1F26"/>
		<stop  offset="1" style="stop-color:#E15C25"/>
	</linearGradient>
	<path class="st0" d="M42.5,69L42.5,69L42.5,69L42.5,69z"/>
	<path class="st1" d="M68.3,43.8c0.9-0.3,2.2-0.2,2.4-1.1c0.2-1.3-1.2-1-2.1-1.2c-0.8-0.1-1.5-0.3-2.3-0.5c2.1-4.6,2.2-5,1.7-5
		c-4.3-0.4-2-3.7-2.5-5.7c1.5-0.2,2.9-0.7,4.1-1.8c-0.7-0.8-2,0-2.4-1.2c-0.7-2.8-4.2-1.8-5.4-3.9c0-0.2,0-0.4,0-0.6
		c0.3-0.3,0.7-0.7,1-1l1.4-0.3c1.1-0.3,1.7-1.5,1-2c-1.4-1.2-3.1-0.8-4.5,0.3c-3.4,0.2-4.1-2.9-5.8-4.8l1.2-1.7
		c1.8-0.6,1.8-2.6,3-3.7c0.7,0.3,1.5,0.6,1.9-0.4c0.4-0.9-0.1-1.5-1-1.6c-1.6-0.2-2.6,0.6-3,2.1c-2.6,3.1-5.6,1-8.5,0.8
		c-1.7,0-3.4,0.4-4.7-1.2c0-0.6,0-1.2,0.1-1.8c1.9-1.9,2.2-4.1,0.7-7c-0.6,3.5-2.8,5.2-5.7,6.1L33,9.2l-1.2-0.8
		c-2.5-0.5-3-3.5-5.2-4.3c-0.7-0.5-1.6-1.8-2.3-1c-1.1,1.2,0.6,2.1,1,3.2c0,1.4,1.1,2.2,1.9,3.1L25.6,11c-1.4,0.3-2.7,0-4-0.6
		l-0.2-0.1c-0.3-1.1-0.3-2.3-1.4-3.1c-0.1-1.8-0.7-3.3-2.4-4.2c-0.3-0.1-1,0.1-1.1,0.4c-0.9,2,1.4,2.9,1.8,4.4
		c0.1,0.2,0.4,0.4,0.7,0.6l-0.6,2c-0.9,1.1-2.4,1.8-1.9,3.6c-0.4,0.9-1.2,0.9-2,1c-0.2-0.2-0.5-0.3-0.8-0.3
		c-0.6-1.7-1.9-3.5-3.5-2.3c-1.4,1.1-0.5,3,1.3,4c0.3,0.4,0.7,0.8,1,1.3c0,0.4,0,0.7,0.1,1.1l-1.8,1.7c-0.7-0.1-1.3-0.2-2-0.3
		c-1.2-0.7-2.8-1.5-3.5,0.2c-0.6,1.5,0.9,2,2.2,2.1c0.2,0.7,0.4,1.3,0.6,2c-1,1.5-2.1,3-3.1,4.4c-1.1,0.6-3.3-0.8-3.2,1.3
		c0,1.2,2,0.7,3.2,0.9l1,1.7L3,35.6c-0.9,0-2.1-0.1-2.5,0.8c-0.5,1,0.4,1.9,1.2,2.2c2.8,1,1.9,2.4,0.5,3.9c-2.1,3.4,3.3,3.1,2.8,5.7
		C4.7,49.9,1,50.2,3,53c1.4,1.4,3.1,0.6,4.7,0.5c0.6,0.9,1.9,2,1.6,2.6c-1.5,4.1,1.5,5,4,6.2c0.1,1,0.3,2,1.7,1.9
		c1.1,0.9-1.3,4.4,1.7,4c0.3,0,0.6,0,1.1-0.2c2.2-1.3,4.3-2.1,4.3,1.8c0,2.5,1.5,2.4,3.1,1.7c1.2-0.5,2-2,3.6-1.5
		c1.4,0.9,3.3,0.5,4.5,2c2.6,2,5.2,4.5,7.5-0.3c0.9-0.7,1.8-1.4,1.9-2.7l2.8,0.9c3.9,4.6,2.7-2.5,4.8-2.1l1.9,0.1
		c0.8,1.3,1.7,3.2,3.4,1.9c1.1-0.8,1.2-2.6-1.1-2.9c-0.4-1.3,1.4-1.5,1.3-2.6c1.1-2.3,4.1-1.8,5.3-3.9l0,0c1.3,0.8,2.7,1.3,4.3,1
		c1.3-1.3,1.8-2.9,1.8-4.6c2-2.5-0.1-2.6-1.7-3c-0.5-1.4,0.2-2.6,0.6-3.8c0.1-0.3,0.2-0.5,0.3-0.8c1.5-0.1,3.3,0.7,4.2-1.5
		c-1.4-0.8-2.8-0.5-4.2-0.5C65.8,45.3,66.9,44.5,68.3,43.8z"/>
	<path class="st1" d="M59.2,1.6c0.1-0.2-0.3-0.9-0.5-0.9c-0.7-0.1-1,0.5-1.1,1.1c0,0.4,0.2,0.7,0.4,1.4C58.5,2.5,59,2.1,59.2,1.6z"
		/>
	<g>
		<path class="st2" d="M39.8,43.5l1.8-1.8c0.3-0.3,0.1-0.6-0.1-0.8c-0.5-0.6-0.1-1.6,0.7-1.7l0.3-0.1c0.2,0,0.4-0.2,0.4-0.4v-2.5
			c0-0.2-0.2-0.4-0.4-0.4l-0.3-0.1c-0.7-0.1-1.1-1.1-0.7-1.7l0.2-0.3c0.1-0.2,0.1-0.4,0-0.6l-1.8-1.8c-0.3-0.3-0.6-0.1-0.8,0.1
			c-0.6,0.5-1.6,0.1-1.7-0.7l-0.1-0.3c0-0.2-0.2-0.4-0.4-0.4h-2.5c-0.2,0-0.4,0.2-0.4,0.4l-0.1,0.3c-0.1,0.4-0.3,0.7-0.6,0.8
			c-0.3,0.1-0.7,0.1-1-0.1c-0.2-0.2-0.5-0.4-0.8-0.1l-1.8,1.8c-0.3,0.3-0.1,0.6,0.1,0.8c0.5,0.6,0.1,1.6-0.7,1.7l-0.3,0.1
			c-0.2,0-0.4,0.2-0.4,0.4v2.5c0,0.2,0.2,0.4,0.4,0.4l0.3,0.1c0.7,0.1,1.1,1.1,0.7,1.7c-0.2,0.2-0.4,0.6-0.1,0.8l1.8,1.8
			c0.3,0.3,0.6,0.1,0.8-0.1c0.6-0.5,1.6-0.1,1.7,0.7l0.1,0.3c0,0.2,0.2,0.4,0.4,0.4h2.5c0.2,0,0.4-0.2,0.4-0.4l0.1-0.3
			c0.1-0.7,1.1-1.1,1.7-0.7C39.2,43.6,39.5,43.8,39.8,43.5L39.8,43.5z M35.5,40.8c-1.8,0-3.3-1.5-3.3-3.3c0.2-4.4,6.4-4.4,6.6,0
			C38.8,39.3,37.3,40.8,35.5,40.8z"/>
		<path class="st2" d="M35.5,35.1c-1.3,0-2.4,1.1-2.4,2.4c0.1,3.2,4.7,3.2,4.8,0C37.9,36.2,36.8,35.1,35.5,35.1z M31.6,45
			c-0.2,0-0.4,0.2-0.4,0.4v1.3c0,0.5-0.4,0.9-0.9,0.9h-3.6c-0.5-2-3.5-1.7-3.5,0.4c0,2.1,3,2.5,3.5,0.4h3.6c1,0,1.8-0.8,1.8-1.8
			v-1.3C32,45.2,31.8,45,31.6,45L31.6,45z M39.4,30c0.2,0,0.4-0.2,0.4-0.4v-1.3c0-0.5,0.4-0.9,0.9-0.9h3.6c0.5,2,3.5,1.7,3.5-0.4
			c0-2.1-3-2.5-3.5-0.4h-3.6c-1,0-1.8,0.8-1.8,1.8v1.3C39,29.8,39.2,30,39.4,30z M24.8,28.6c0.8,0,1.5-0.6,1.7-1.4h3.6
			c0.5,0,0.9,0.4,0.9,0.9v1.3c0,0.2,0.2,0.4,0.4,0.4s0.4-0.2,0.4-0.4v-1.3c0-1-0.8-1.8-1.8-1.8h-3.6c-0.2-0.8-0.9-1.4-1.7-1.4
			C22.4,25.1,22.4,28.5,24.8,28.6z M46.2,46.4c-0.8,0-1.5,0.6-1.7,1.4h-3.6c-0.5,0-0.9-0.4-0.9-0.9v-1.3c0-0.2-0.2-0.4-0.4-0.4
			c-0.2,0-0.4,0.2-0.4,0.4v1.3c0,1,0.8,1.8,1.8,1.8h3.6c0.2,0.8,0.9,1.4,1.7,1.4C48.6,49.9,48.6,46.5,46.2,46.4L46.2,46.4z"/>
	</g>
</g>
</svg>
