<svg xmlns="http://www.w3.org/2000/svg" version="1.1" xmlns:xlink="http://www.w3.org/1999/xlink" width="512" height="512" x="0" y="0" viewBox="0 0 682.667 682.667" style="enable-background:new 0 0 512 512" xml:space="preserve" class=""><g><defs><clipPath id="a" clipPathUnits="userSpaceOnUse"><path d="M0 512h512V0H0Z" fill="#000000" opacity="1" data-original="#000000"></path></clipPath></defs><g clip-path="url(#a)" transform="matrix(1.33333 0 0 -1.33333 0 682.667)"><path d="M0 0h-477c-5.523 0-10-4.477-10-10v-47.925l2.269-1H8.5l1.5 1V-10C10-4.477 5.523 0 0 0" style="fill-opacity:1;fill-rule:nonzero;stroke:none" transform="translate(494.5 487.976)" fill="#fd4755" data-original="#fd4755"></path><path d="M0 0c0 5.523 4.477 10 10 10h-60.5c-5.523 0-10-4.477-10-10v-47.925l2.269-1h60.5l-2.269 1z" style="fill-opacity:1;fill-rule:nonzero;stroke:none" transform="translate(68 477.976)" fill="#fb2b3a" data-original="#fb2b3a"></path><path d="M0 0h-391.5c-5.523 0-10-4.477-10-10v-47.925l2.269-1H94l1.5 1V-10c0 5.523-4.477 10-10 10H35" style="stroke-width:15;stroke-linecap:round;stroke-linejoin:round;stroke-miterlimit:10;stroke-dasharray:none;stroke-opacity:1" transform="translate(409 487.976)" fill="none" stroke="#000000" stroke-width="15" stroke-linecap="round" stroke-linejoin="round" stroke-miterlimit="10" stroke-dasharray="none" stroke-opacity="" data-original="#000000" class=""></path><path d="M0 0h-477c-5.523 0-10 4.477-10 10v312.065H10V10C10 4.477 5.523 0 0 0" style="fill-opacity:1;fill-rule:nonzero;stroke:none" transform="translate(494.5 107.985)" fill="#e8edf1" data-original="#e8edf1"></path><path d="M0 0v312.065h-60.5V0c0-5.523 4.477-10 10-10H10C4.477-10 0-5.523 0 0" style="fill-opacity:1;fill-rule:nonzero;stroke:none" transform="translate(68 117.985)" fill="#d9e7ec" data-original="#d9e7ec"></path><path d="M0 0h-477c-5.523 0-10 4.477-10 10v312.065H10V10C10 4.477 5.523 0 0 0Z" style="stroke-width:15;stroke-linecap:round;stroke-linejoin:round;stroke-miterlimit:10;stroke-dasharray:none;stroke-opacity:1" transform="translate(494.5 107.985)" fill="none" stroke="#000000" stroke-width="15" stroke-linecap="round" stroke-linejoin="round" stroke-miterlimit="10" stroke-dasharray="none" stroke-opacity="" data-original="#000000" class=""></path><path d="M0 0c-75.11 0-136.217 61.106-136.217 136.217 0 75.11 61.107 136.217 136.217 136.217 75.11 0 136.217-61.107 136.217-136.217C136.217 61.106 75.11 0 0 0" style="fill-opacity:1;fill-rule:nonzero;stroke:none" transform="translate(256 24.024)" fill="#fd4755" data-original="#fd4755"></path><path d="M0 0c-75.11 0-136.217 61.106-136.217 136.217 0 75.11 61.107 136.217 136.217 136.217 75.11 0 136.217-61.107 136.217-136.217C136.217 61.106 75.11 0 0 0Z" style="stroke-width:15;stroke-linecap:round;stroke-linejoin:round;stroke-miterlimit:10;stroke-dasharray:none;stroke-opacity:1" transform="translate(256 24.024)" fill="none" stroke="#000000" stroke-width="15" stroke-linecap="round" stroke-linejoin="round" stroke-miterlimit="10" stroke-dasharray="none" stroke-opacity="" data-original="#000000" class=""></path><path d="M0 0c0-61.423-49.793-111.217-111.217-111.217-61.423 0-111.217 49.794-111.217 111.217s49.794 111.217 111.217 111.217C-49.793 111.217 0 61.423 0 0" style="fill-opacity:1;fill-rule:nonzero;stroke:none" transform="translate(367.217 160.24)" fill="#ffffff" data-original="#ffffff" class=""></path><path d="M0 0c0-61.423-49.793-111.217-111.217-111.217-61.423 0-111.217 49.794-111.217 111.217s49.794 111.217 111.217 111.217C-49.793 111.217 0 61.423 0 0" style="fill-opacity:1;fill-rule:nonzero;stroke:none" transform="translate(367.217 160.24)" fill="#ffffff" data-original="#ffffff" class=""></path><path d="M0 0c0 53.499 37.776 98.169 88.108 108.806A111.625 111.625 0 0 1 65 111.217C3.577 111.217-46.217 61.423-46.217 0S3.577-111.217 65-111.217c7.924 0 15.653.835 23.108 2.411C37.776-98.169 0-53.499 0 0" style="fill-opacity:1;fill-rule:nonzero;stroke:none" transform="translate(191 160.24)" fill="#e8edf1" data-original="#e8edf1"></path><path d="M0 0c-6.778 54.931-53.605 97.458-110.37 97.458-61.423 0-111.216-49.794-111.216-111.217 0-61.424 49.793-111.217 111.216-111.217 54.159 0 99.268 38.714 109.183 89.976" style="stroke-width:15;stroke-linecap:round;stroke-linejoin:round;stroke-miterlimit:10;stroke-dasharray:none;stroke-opacity:1" transform="translate(366.37 174)" fill="none" stroke="#000000" stroke-width="15" stroke-linecap="round" stroke-linejoin="round" stroke-miterlimit="10" stroke-dasharray="none" stroke-opacity="" data-original="#000000" class=""></path><path d="M0 0c0-44.148-35.789-79.937-79.937-79.937-44.148 0-79.937 35.789-79.937 79.937" style="fill-opacity:1;fill-rule:nonzero;stroke:#000000;stroke-width:15;stroke-linecap:round;stroke-linejoin:round;stroke-miterlimit:10;stroke-dasharray:none;stroke-opacity:1" transform="translate(335.937 160.24)" data-original="#000000"></path><path d="m0 0-59-59" style="stroke-width:15;stroke-linecap:round;stroke-linejoin:round;stroke-miterlimit:10;stroke-dasharray:none;stroke-opacity:1" transform="translate(315 219.976)" fill="none" stroke="#000000" stroke-width="15" stroke-linecap="round" stroke-linejoin="round" stroke-miterlimit="10" stroke-dasharray="none" stroke-opacity="" data-original="#000000" class=""></path><path d="M0 0c0-10.877-8.818-19.695-19.695-19.695S-39.39-10.877-39.39 0s8.818 19.694 19.695 19.694S0 10.877 0 0" style="fill-opacity:1;fill-rule:nonzero;stroke:none" transform="translate(275.695 160.24)" fill="#fd4755" data-original="#fd4755"></path><path d="M0 0c0 8.163 4.966 15.165 12.042 18.152a19.633 19.633 0 0 1-7.653 1.542c-10.877 0-19.695-8.817-19.695-19.694 0-10.877 8.818-19.695 19.695-19.695 2.715 0 5.3.55 7.653 1.543C4.966-15.165 0-8.163 0 0" style="fill-opacity:1;fill-rule:nonzero;stroke:none" transform="translate(251.61 160.24)" fill="#fb2b3a" data-original="#fb2b3a"></path><path d="M0 0c0-10.877-8.818-19.695-19.695-19.695S-39.39-10.877-39.39 0s8.818 19.694 19.695 19.694S0 10.877 0 0Z" style="stroke-width:15;stroke-linecap:round;stroke-linejoin:round;stroke-miterlimit:10;stroke-dasharray:none;stroke-opacity:1" transform="translate(275.695 160.24)" fill="none" stroke="#000000" stroke-width="15" stroke-linecap="round" stroke-linejoin="round" stroke-miterlimit="10" stroke-dasharray="none" stroke-opacity="" data-original="#000000" class=""></path><path d="M0 0v0" style="stroke-width:15;stroke-linecap:round;stroke-linejoin:round;stroke-miterlimit:4;stroke-dasharray:none;stroke-opacity:1" transform="translate(176.063 160.24)" fill="none" stroke="#000000" stroke-width="15" stroke-linecap="round" stroke-linejoin="round" stroke-miterlimit="4" stroke-dasharray="none" stroke-opacity="" data-original="#000000" class=""></path><path d="M0 0c12.011 28.965 40.562 49.339 73.872 49.339 38.81 0 71.16-27.658 78.416-64.338" style="stroke-width:15;stroke-linecap:round;stroke-linejoin:round;stroke-miterlimit:4;stroke-dasharray:0, 31.392;stroke-dashoffset:0;stroke-opacity:1" transform="translate(182.128 190.839)" fill="none" stroke="#000000" stroke-width="15" stroke-linecap="round" stroke-linejoin="round" stroke-miterlimit="4" stroke-dasharray="0, 31.392" stroke-dashoffset="0" stroke-opacity="" data-original="#000000" class=""></path><path d="M0 0v0" style="stroke-width:15;stroke-linecap:round;stroke-linejoin:round;stroke-miterlimit:4;stroke-dasharray:none;stroke-opacity:1" transform="translate(335.937 160.24)" fill="none" stroke="#000000" stroke-width="15" stroke-linecap="round" stroke-linejoin="round" stroke-miterlimit="4" stroke-dasharray="none" stroke-opacity="" data-original="#000000" class=""></path><path d="M0 0a7.5 7.5 0 1 0-15 0A7.5 7.5 0 0 0 0 0" style="fill-opacity:1;fill-rule:nonzero;stroke:none" transform="translate(44 459.524)" fill="#000000" data-original="#000000"></path><path d="M0 0a7.5 7.5 0 1 0-15 0A7.5 7.5 0 0 0 0 0" style="fill-opacity:1;fill-rule:nonzero;stroke:none" transform="translate(70 459.524)" fill="#000000" data-original="#000000"></path><path d="M0 0a7.5 7.5 0 1 0-15 0A7.5 7.5 0 0 0 0 0" style="fill-opacity:1;fill-rule:nonzero;stroke:none" transform="translate(96 459.524)" fill="#000000" data-original="#000000"></path><path d="M0 0h-378c-5.523 0-10 4.477-10 10v26c0 5.523 4.477 10 10 10H0c5.523 0 10-4.477 10-10V10C10 4.477 5.523 0 0 0" style="fill-opacity:1;fill-rule:nonzero;stroke:none" transform="translate(445 336.024)" fill="#fd4755" data-original="#fd4755"></path><path d="M0 0v26c0 5.523 4.477 10 10 10h-330c-5.523 0-10-4.477-10-10V0c0-5.523 4.477-10 10-10H10C4.477-10 0-5.523 0 0" style="fill-opacity:1;fill-rule:nonzero;stroke:none" transform="translate(387 346.024)" fill="#fb2b3a" data-original="#fb2b3a"></path><path d="M0 0h123c5.523 0 10-4.477 10-10v-26c0-5.523-4.477-10-10-10H-75" style="stroke-width:15;stroke-linecap:round;stroke-linejoin:round;stroke-miterlimit:10;stroke-dasharray:none;stroke-opacity:1" transform="translate(322 382.024)" fill="none" stroke="#000000" stroke-width="15" stroke-linecap="round" stroke-linejoin="round" stroke-miterlimit="10" stroke-dasharray="none" stroke-opacity="" data-original="#000000" class=""></path><path d="M0 0h-286c-8.284 0-15 6.716-15 15v16c0 8.284 6.716 15 15 15H0Z" style="fill-opacity:1;fill-rule:nonzero;stroke:none" transform="translate(358 336.024)" fill="#fac600" data-original="#fac600" class=""></path><path d="M0 0v16c0 8.284 6.716 15 15 15h-199c-8.284 0-15-6.716-15-15V0c0-8.284 6.716-15 15-15H15C6.716-15 0-8.284 0 0" style="fill-opacity:1;fill-rule:nonzero;stroke:none" transform="translate(256 351.024)" fill="#e8b801" data-original="#e8b801"></path><path d="M0 0c-8.284 0-15-6.716-15-15v-16c0-8.284 6.716-15 15-15h156V0Z" style="fill-opacity:1;fill-rule:nonzero;stroke:none" transform="translate(72 382.024)" fill="#00c27a" data-original="#00c27a"></path><path d="M0 0v16c0 8.284 6.716 15 15 15h-30c-8.284 0-15-6.716-15-15V0c0-8.284 6.716-15 15-15h30C6.716-15 0-8.284 0 0" style="fill-opacity:1;fill-rule:nonzero;stroke:none" transform="translate(87 351.024)" fill="#08b865" data-original="#08b865"></path><path d="M0 0h160v46h-286c-8.284 0-15-6.716-15-15V15c0-8.284 6.716-15 15-15h91" style="stroke-width:15;stroke-linecap:round;stroke-linejoin:round;stroke-miterlimit:10;stroke-dasharray:none;stroke-opacity:1" transform="translate(198 336.024)" fill="none" stroke="#000000" stroke-width="15" stroke-linecap="round" stroke-linejoin="round" stroke-miterlimit="10" stroke-dasharray="none" stroke-opacity="" data-original="#000000" class=""></path><path d="M0 0v46" style="stroke-width:15;stroke-linecap:round;stroke-linejoin:round;stroke-miterlimit:10;stroke-dasharray:none;stroke-opacity:1" transform="translate(228 336.024)" fill="none" stroke="#000000" stroke-width="15" stroke-linecap="round" stroke-linejoin="round" stroke-miterlimit="10" stroke-dasharray="none" stroke-opacity="" data-original="#000000" class=""></path><path d="M0 0h76" style="stroke-width:15;stroke-linecap:round;stroke-linejoin:round;stroke-miterlimit:10;stroke-dasharray:none;stroke-opacity:1" transform="translate(57 292)" fill="none" stroke="#000000" stroke-width="15" stroke-linecap="round" stroke-linejoin="round" stroke-miterlimit="10" stroke-dasharray="none" stroke-opacity="" data-original="#000000" class=""></path><path d="M0 0h76" style="stroke-width:15;stroke-linecap:round;stroke-linejoin:round;stroke-miterlimit:10;stroke-dasharray:none;stroke-opacity:1" transform="translate(57 266)" fill="none" stroke="#000000" stroke-width="15" stroke-linecap="round" stroke-linejoin="round" stroke-miterlimit="10" stroke-dasharray="none" stroke-opacity="" data-original="#000000" class=""></path><path d="M0 0h46" style="stroke-width:15;stroke-linecap:round;stroke-linejoin:round;stroke-miterlimit:10;stroke-dasharray:none;stroke-opacity:1" transform="translate(57 240)" fill="none" stroke="#000000" stroke-width="15" stroke-linecap="round" stroke-linejoin="round" stroke-miterlimit="10" stroke-dasharray="none" stroke-opacity="" data-original="#000000" class=""></path><path d="M0 0h46" style="stroke-width:15;stroke-linecap:round;stroke-linejoin:round;stroke-miterlimit:10;stroke-dasharray:none;stroke-opacity:1" transform="translate(57 214)" fill="none" stroke="#000000" stroke-width="15" stroke-linecap="round" stroke-linejoin="round" stroke-miterlimit="10" stroke-dasharray="none" stroke-opacity="" data-original="#000000" class=""></path><path d="M0 0h31" style="stroke-width:15;stroke-linecap:round;stroke-linejoin:round;stroke-miterlimit:10;stroke-dasharray:none;stroke-opacity:1" transform="translate(57 188)" fill="none" stroke="#000000" stroke-width="15" stroke-linecap="round" stroke-linejoin="round" stroke-miterlimit="10" stroke-dasharray="none" stroke-opacity="" data-original="#000000" class=""></path><path d="M0 0h76" style="stroke-width:15;stroke-linecap:round;stroke-linejoin:round;stroke-miterlimit:10;stroke-dasharray:none;stroke-opacity:1" transform="translate(379 292)" fill="none" stroke="#000000" stroke-width="15" stroke-linecap="round" stroke-linejoin="round" stroke-miterlimit="10" stroke-dasharray="none" stroke-opacity="" data-original="#000000" class=""></path><path d="M0 0h76" style="stroke-width:15;stroke-linecap:round;stroke-linejoin:round;stroke-miterlimit:10;stroke-dasharray:none;stroke-opacity:1" transform="translate(379 266)" fill="none" stroke="#000000" stroke-width="15" stroke-linecap="round" stroke-linejoin="round" stroke-miterlimit="10" stroke-dasharray="none" stroke-opacity="" data-original="#000000" class=""></path><path d="M0 0h46" style="stroke-width:15;stroke-linecap:round;stroke-linejoin:round;stroke-miterlimit:10;stroke-dasharray:none;stroke-opacity:1" transform="translate(409 240)" fill="none" stroke="#000000" stroke-width="15" stroke-linecap="round" stroke-linejoin="round" stroke-miterlimit="10" stroke-dasharray="none" stroke-opacity="" data-original="#000000" class=""></path><path d="M0 0h46" style="stroke-width:15;stroke-linecap:round;stroke-linejoin:round;stroke-miterlimit:10;stroke-dasharray:none;stroke-opacity:1" transform="translate(409 214)" fill="none" stroke="#000000" stroke-width="15" stroke-linecap="round" stroke-linejoin="round" stroke-miterlimit="10" stroke-dasharray="none" stroke-opacity="" data-original="#000000" class=""></path><path d="M0 0h31" style="stroke-width:15;stroke-linecap:round;stroke-linejoin:round;stroke-miterlimit:10;stroke-dasharray:none;stroke-opacity:1" transform="translate(424 188)" fill="none" stroke="#000000" stroke-width="15" stroke-linecap="round" stroke-linejoin="round" stroke-miterlimit="10" stroke-dasharray="none" stroke-opacity="" data-original="#000000" class=""></path></g></g></svg>