<svg xmlns="http://www.w3.org/2000/svg" version="1.1" xmlns:xlink="http://www.w3.org/1999/xlink" xmlns:svgjs="http://svgjs.com/svgjs" width="512" height="512" x="0" y="0" viewBox="0 0 128 128" style="enable-background:new 0 0 512 512" xml:space="preserve" class=""><g><path d="m87 49.57-22-12.71a2 2 0 0 0 -2 0l-22 12.72a2 2 0 0 0 -1 1.73v25.39a2 2 0 0 0 1 1.73l22 12.71a2.07 2.07 0 0 0 1 .26 2 2 0 0 0 1-.27l22-12.71a2 2 0 0 0 1-1.73v-25.39a2 2 0 0 0 -1-1.73zm-23-8.66 18.08 10.43-18.08 10.35-18-10.38zm-20 13.86 18 10.39v20.78l-18-10.39zm22 31.17v-20.78l18-10.31v20.69z" fill="#bb0b0b" data-original="#000000" class=""></path><path d="m59 17.84 3-3v15.16a2 2 0 0 0 4 0v-15.17l3 3a2 2 0 0 0 1.42.59 2 2 0 0 0 1.42-3.42l-6.43-6.41a2 2 0 0 0 -2.82 0l-6.43 6.41a2 2 0 0 0 2.84 2.84z" fill="#bb0b0b" data-original="#000000" class=""></path><path d="m69 110.16-3 3v-15.16a2 2 0 0 0 -4 0v15.17l-3-3a2 2 0 1 0 -2.84 2.83l6.43 6.42a2 2 0 0 0 2.82 0l6.43-6.42a2 2 0 1 0 -2.84-2.84z" fill="#bb0b0b" data-original="#000000" class=""></path><path d="m35.56 45.27-13.14-7.59 4.11-1.1a2 2 0 1 0 -1-3.86l-8.78 2.35a2 2 0 0 0 -1.25.93 2.06 2.06 0 0 0 -.2 1.52l2.36 8.78a2 2 0 0 0 1.93 1.48 1.91 1.91 0 0 0 .52-.07 2 2 0 0 0 1.41-2.45l-1.1-4.11 13.14 7.58a2 2 0 0 0 1 .27 2 2 0 0 0 1-3.73z" fill="#bb0b0b" data-original="#000000" class=""></path><path d="m110.34 81.7a2 2 0 0 0 -3.86 1l1.1 4.11-13.14-7.54a2 2 0 0 0 -2 3.46l13.14 7.59-4.11 1.1a2 2 0 0 0 .51 3.93 1.86 1.86 0 0 0 .52-.07l8.78-2.35a2 2 0 0 0 1.22-.93 2.06 2.06 0 0 0 .2-1.52z" fill="#bb0b0b" data-original="#000000" class=""></path><path d="m33.56 79.27-13.14 7.58 1.1-4.11a2 2 0 1 0 -3.86-1l-2.36 8.74a2.06 2.06 0 0 0 .2 1.52 2 2 0 0 0 1.22.93l8.78 2.35a1.86 1.86 0 0 0 .52.07 2 2 0 0 0 .51-3.93l-4.11-1.1 13.14-7.59a2 2 0 0 0 -2-3.46z" fill="#bb0b0b" data-original="#000000" class=""></path><path d="m93.45 49a2 2 0 0 0 1-.27l13.14-7.58-1.1 4.11a2 2 0 0 0 1.41 2.45 1.91 1.91 0 0 0 .52.07 2 2 0 0 0 1.93-1.48l2.36-8.78a2.06 2.06 0 0 0 -.2-1.52 2 2 0 0 0 -1.22-.93l-8.78-2.35a2 2 0 1 0 -1 3.86l4.11 1.1-13.18 7.59a2 2 0 0 0 1 3.73z" fill="#bb0b0b" data-original="#000000" class=""></path></g></svg>