<svg xmlns="http://www.w3.org/2000/svg" version="1.1" xmlns:xlink="http://www.w3.org/1999/xlink" xmlns:svgjs="http://svgjs.com/svgjs" width="512" height="512" x="0" y="0" viewBox="0 0 682.667 682.667" style="enable-background:new 0 0 512 512" xml:space="preserve" class=""><g><defs><clipPath id="a" clipPathUnits="userSpaceOnUse"><path d="M0 512h512V0H0Z" fill="#bb0b0b" data-original="#000000" opacity="1"></path></clipPath></defs><g clip-path="url(#a)" transform="matrix(1.33333 0 0 -1.33333 0 682.667)"><path d="M0 0h180.86v-20.229c0-4.202 4.868-6.53 8.139-3.892l54.312 43.79a6.849 6.849 0 0 1 0 10.663l-54.312 43.79c-3.271 2.638-8.139.31-8.139-3.893V50h-60.82" style="stroke-width:15;stroke-linecap:round;stroke-linejoin:round;stroke-miterlimit:10;stroke-dasharray:none;stroke-opacity:1" transform="translate(258.64 32.87)" fill="none" stroke="#bb0b0b" stroke-width="15" stroke-linecap="round" stroke-linejoin="round" stroke-miterlimit="10" stroke-dasharray="none" stroke-opacity="" data-original="#000000" opacity="1" class=""></path><path d="m0 0-64.713-.004" style="stroke-width:15;stroke-linecap:round;stroke-linejoin:round;stroke-miterlimit:10;stroke-dasharray:none;stroke-opacity:1" transform="translate(72.213 82.873)" fill="none" stroke="#bb0b0b" stroke-width="15" stroke-linecap="round" stroke-linejoin="round" stroke-miterlimit="10" stroke-dasharray="none" stroke-opacity="" data-original="#000000" opacity="1" class=""></path><path d="M0 0c13.225 4.75 27.47 7.338 42.308 7.338 69.2 0 125.5-56.3 125.5-125.5 0-68.18-55.45-124.48-123.6-125.489l-150.687-.007" style="stroke-width:15;stroke-linecap:round;stroke-linejoin:round;stroke-miterlimit:10;stroke-dasharray:none;stroke-opacity:1" transform="translate(213.692 326.531)" fill="none" stroke="#bb0b0b" stroke-width="15" stroke-linecap="round" stroke-linejoin="round" stroke-miterlimit="10" stroke-dasharray="none" stroke-opacity="" data-original="#000000" opacity="1" class=""></path><path d="M0 0c.111 2.574.167 5.159.167 7.751 0 65.21-35.75 122.221-88.67 152.48-21.84 12.48-46.6 20.411-72.98 22.48-4.57.36-9.19.54-13.85.54-96.77 0-175.5-78.73-175.5-175.5 0-10.102.866-20.147 2.571-30.027l-18.356-3.902c-4.11-.873-5.375-6.118-2.115-8.769l54.126-44.021a6.847 6.847 0 0 1 10.429 2.217l31.542 62.23c1.899 3.747-1.39 8.024-5.5 7.151l-21.156-4.497a126.644 126.644 0 0 0-1.541 19.618c0 41.909 20.65 79.087 52.309 101.893" style="stroke-width:15;stroke-linecap:round;stroke-linejoin:round;stroke-miterlimit:10;stroke-dasharray:none;stroke-opacity:1" transform="translate(431.333 200.618)" fill="none" stroke="#bb0b0b" stroke-width="15" stroke-linecap="round" stroke-linejoin="round" stroke-miterlimit="10" stroke-dasharray="none" stroke-opacity="" data-original="#000000" opacity="1" class=""></path><path d="M0 0h251.14c45.26.67 87.75 18.41 120.04 50 .759.75 1.53 1.5 2.28 2.271 22.468 22.785 37.977 50.66 45.444 80.988" style="stroke-width:15;stroke-linecap:round;stroke-linejoin:round;stroke-miterlimit:10;stroke-dasharray:none;stroke-opacity:1" transform="translate(7.5 32.87)" fill="none" stroke="#bb0b0b" stroke-width="15" stroke-linecap="round" stroke-linejoin="round" stroke-miterlimit="10" stroke-dasharray="none" stroke-opacity="" data-original="#000000" opacity="1" class=""></path><path d="M0 0c-17.395 16.957-40.896 27.658-66.717 28.433-56.53 1.695-103.058-43.798-103.058-99.954 0-7.15.77-14.19 2.25-21.041" style="stroke-width:15;stroke-linecap:round;stroke-linejoin:round;stroke-miterlimit:10;stroke-dasharray:none;stroke-opacity:1" transform="translate(437.375 475.89)" fill="none" stroke="#bb0b0b" stroke-width="15" stroke-linecap="round" stroke-linejoin="round" stroke-miterlimit="10" stroke-dasharray="none" stroke-opacity="" data-original="#000000" opacity="1" class=""></path><path d="m0 0 .03.06c-15.58 8.89-25.26 25.55-25.26 43.46 0 27.57 22.43 50 50 50s50-22.43 50-50c0-.279.008-.544.015-.812L54.89 45.151c-4.17.512-7.075-4.036-4.856-7.603L86.88-21.695a6.845 6.845 0 0 1 10.583-1.3l50.083 48.57c3.016 2.925 1.299 8.04-2.872 8.552l-20.149 2.474c.282 4.118.321 8.282.095 12.476a98.752 98.752 0 0 1-9.818 37.942" style="stroke-width:15;stroke-linecap:round;stroke-linejoin:round;stroke-miterlimit:10;stroke-dasharray:none;stroke-opacity:1" transform="translate(342.83 360.85)" fill="none" stroke="#bb0b0b" stroke-width="15" stroke-linecap="round" stroke-linejoin="round" stroke-miterlimit="10" stroke-dasharray="none" stroke-opacity="" data-original="#000000" opacity="1" class=""></path></g></g></svg>