<svg xmlns="http://www.w3.org/2000/svg" version="1.1" xmlns:xlink="http://www.w3.org/1999/xlink" width="512" height="512" x="0" y="0" viewBox="0 0 60 60" style="enable-background:new 0 0 512 512" xml:space="preserve" class=""><g><path d="M25 40h10a3 3 0 0 0 3-3v-9a3 3 0 0 0-3-3v-2a5 5 0 0 0-10 0v2a3 3 0 0 0-3 3v9a3 3 0 0 0 3 3zm2-17a3 3 0 0 1 6 0v2h-6zm-3 5a1 1 0 0 1 1-1h10a1 1 0 0 1 1 1v9a1 1 0 0 1-1 1H25a1 1 0 0 1-1-1z" fill="#bb0b0b" opacity="1" data-original="#000000" class=""></path><path d="M29 34.816V35a1 1 0 0 0 2 0v-.184a3 3 0 1 0-2 0zM30 31a1 1 0 1 1 0 2 1 1 0 0 1 0-2z" fill="#bb0b0b" opacity="1" data-original="#000000" class=""></path><path d="M13 30c0 9.389 7.611 17 17 17s17-7.611 17-17-7.611-17-17-17c-9.385.01-16.99 7.615-17 17zm17-15c8.284 0 15 6.716 15 15s-6.716 15-15 15-15-6.716-15-15c.01-8.28 6.72-14.99 15-15zM50 52a4 4 0 0 0-3.858 3H39v-6.045a20.9 20.9 0 0 0 6-4.255 1 1 0 1 0-1.428-1.4 18.961 18.961 0 0 1-5.937 4.105.982.982 0 0 0-.354.241c-.011.012-.017.028-.028.042a.989.989 0 0 0-.175.275.957.957 0 0 0-.039.193.925.925 0 0 0-.039.174V55a2 2 0 0 0 2 2h7.142A3.993 3.993 0 1 0 50 52zm0 6a2 2 0 1 1 0-4 2 2 0 0 1 0 4zM7.858 41h4.832c.008 0 .015-.005.024-.005a.96.96 0 0 0 .291-.059 1 1 0 0 0 .136-.056c.011-.006.024-.008.035-.015s.028-.028.044-.039a.936.936 0 0 0 .238-.21.578.578 0 0 0 .033-.048.981.981 0 0 0 .144-.3c0-.015.006-.03.009-.045A.953.953 0 0 0 13.69 40a.856.856 0 0 0-.023-.112c0-.013 0-.025-.007-.039a.971.971 0 0 0-.113-.334l-.005-.016a18.836 18.836 0 0 1-2.162-5.7 1 1 0 1 0-1.96.4c.336 1.659.874 3.27 1.6 4.8H7.858a4 4 0 1 0 0 2zM4 42a2 2 0 1 1 0-4 2 2 0 0 1 0 4z" fill="#bb0b0b" opacity="1" data-original="#000000" class=""></path><path d="M0 20a3.992 3.992 0 0 0 7.858 1h4.859c.099-.006.196-.026.289-.059a.9.9 0 0 0 .128-.052.876.876 0 0 0 .15-.1.941.941 0 0 0 .216-.229c.013-.019.03-.033.042-.053A18.967 18.967 0 0 1 18.6 14.8a1 1 0 1 0-1.2-1.6 20.968 20.968 0 0 0-5.267 5.8H7.858A3.992 3.992 0 0 0 0 20zm6 0a2 2 0 1 1-4 0 2 2 0 0 1 4 0zM56 36a4 4 0 0 0-3.858 3h-3.163a20.773 20.773 0 0 0 1.6-4.8 1 1 0 0 0-1.961-.4 18.83 18.83 0 0 1-2.16 5.7v.013a.969.969 0 0 0-.116.342c0 .011 0 .021-.007.032-.01.037-.019.075-.025.113a.986.986 0 0 0 .046.231.958.958 0 0 0 .155.339c.01.015.018.03.029.044a.973.973 0 0 0 .24.212c.016.011.026.028.043.038s.024.009.035.015c.044.023.09.042.138.057a1 1 0 0 0 .289.058c.009 0 .016.005.025.005h4.832A3.993 3.993 0 1 0 56 36zm0 6a2 2 0 1 1 0-4 2 2 0 0 1 0 4zM23 48.347v-.017a1.016 1.016 0 0 0-.033-.166 1.039 1.039 0 0 0-.041-.2.982.982 0 0 0-.172-.271c-.013-.015-.019-.033-.032-.047a.986.986 0 0 0-.355-.241 19.158 19.158 0 0 1-6.806-5.054 1 1 0 1 0-1.519 1.3A21.16 21.16 0 0 0 21 48.969V55h-7.142a4 4 0 1 0 0 2H21a2 2 0 0 0 2-2zM10 58a2 2 0 1 1 0-4 2 2 0 0 1 0 4zM33.8 48.62a19.3 19.3 0 0 1-7.6 0 1 1 0 1 0-.4 1.959c1.056.205 2.125.33 3.2.371V59a1 1 0 0 0 2 0v-8.05a21.062 21.062 0 0 0 3.2-.371 1 1 0 0 0-.4-1.959zM21 3h-7.142a4 4 0 1 0 0 2H21v6.672c0 .04.019.079.024.119.01.104.037.205.079.3a.935.935 0 0 0 .273.343 1.029 1.029 0 0 0 .301.172c.071.023.145.037.22.044a.854.854 0 0 0 .1.021.989.989 0 0 0 .413-.1 18.969 18.969 0 0 1 3.79-1.19 1 1 0 0 0-.4-1.961c-.95.194-1.886.455-2.8.78V5a2 2 0 0 0-2-2zM10 6a2 2 0 1 1 0-4 2 2 0 0 1 0 4zM46.142 5a4 4 0 1 0 0-2H39a2 2 0 0 0-2 2v6.669a.925.925 0 0 0 .035.174c.006.066.02.13.039.193.043.1.102.194.175.275.011.013.017.03.028.042.099.105.22.188.354.241a18.961 18.961 0 0 1 5.937 4.1A1 1 0 1 0 45 15.3a20.9 20.9 0 0 0-6-4.255V5zM50 2a2 2 0 1 1 0 4 2 2 0 0 1 0-4zM30 0a1 1 0 0 0-1 1v9a1 1 0 0 0 1 1c1.276 0 2.55.127 3.8.38a1 1 0 0 0 .4-1.959A21.062 21.062 0 0 0 31 9.05V1a1 1 0 0 0-1-1zM52.142 21a4 4 0 1 0 0-2H47.31c-.019 0-.034.01-.052.01a.927.927 0 0 0-.171.035.96.96 0 0 0-.237.08c-.008 0-.018 0-.027.01s-.026.027-.043.038a.973.973 0 0 0-.24.212c-.011.014-.019.029-.029.044a.958.958 0 0 0-.147.3c0 .013 0 .026-.008.039a.986.986 0 0 0-.046.232c.005.038.013.076.022.114 0 .011.005.021.007.032.017.12.056.236.116.342v.013A18.988 18.988 0 0 1 49 30a1 1 0 0 0 1 1h9a1 1 0 0 0 0-2h-8.033a20.989 20.989 0 0 0-2-8zM56 18a2 2 0 1 1 0 4 2 2 0 0 1 0-4zM1 31h9a1 1 0 0 0 1-1 18.99 18.99 0 0 1 .949-5.948 1 1 0 1 0-1.9-.625A20.943 20.943 0 0 0 9.039 29H1a1 1 0 0 0 0 2z" fill="#bb0b0b" opacity="1" data-original="#000000" class=""></path></g></svg>