<svg width="71" height="75" viewBox="0 0 71 75" fill="none" xmlns="http://www.w3.org/2000/svg">
<path d="M42.1094 68.5123L42.1125 68.5107H42.1109L42.1094 68.5123Z" fill="url(#paint0_linear_540_47)"/>
<path d="M67.9252 43.2712C68.8025 43.0168 70.1742 43.1137 70.2956 42.1251C70.4574 40.8243 69.0887 41.1018 68.2317 40.95C67.4714 40.8127 66.7155 40.6436 65.9596 40.489C68.0915 35.8539 68.1276 35.5157 67.6159 35.4665C63.28 35.0474 65.6518 31.7795 65.1141 29.7619C66.6071 29.5133 68.0047 29.0594 69.1841 27.9914C68.4933 27.1892 67.1766 27.9914 66.7791 26.8351C66.0825 24.0023 62.5964 24.9923 61.3664 22.8865C61.3768 22.6893 61.371 22.4916 61.3491 22.2954C61.6887 21.9514 62.0284 21.606 62.368 21.2576L63.8018 21.0047C64.8959 20.6651 65.4567 19.5435 64.786 18.9625C63.3841 17.7455 61.7118 18.1921 60.2477 19.2414C56.8195 19.451 56.1055 16.3826 54.4665 14.4401L55.6618 12.7419C57.412 12.1189 57.412 10.0926 58.6463 9.0491C59.369 9.39019 60.1711 9.62722 60.5744 8.69789C60.9487 7.8307 60.4458 7.18754 59.5627 7.08492C57.9728 6.90137 56.9712 7.6934 56.5203 9.20375C53.9592 12.2779 50.9038 10.2155 48.0276 10.0218C46.3699 10.0218 44.6167 10.3903 43.3708 8.81351C43.392 8.2113 43.4132 7.61005 43.4344 7.00976C45.3654 5.07015 45.6024 2.86605 44.1412 0C43.5457 3.4832 41.3835 5.20312 38.4365 6.09054L32.6524 8.67765L31.4239 7.92176C28.9061 7.42746 28.4595 4.46746 26.2627 3.58582C25.5588 3.04383 24.6988 1.78785 23.9892 2.54519C22.8748 3.73902 24.6049 4.64234 24.9864 5.72488C24.9445 7.15863 26.0719 7.9073 26.8364 8.86843L25.3015 10.5392C23.8895 10.8789 22.5771 10.5623 21.3168 9.93652L21.1 9.81367C20.8239 8.69933 20.8109 7.47226 19.7241 6.71781C19.5897 4.9314 19.0014 3.38348 17.2873 2.56543C17.0156 2.4368 16.2756 2.67961 16.1628 2.93109C15.2739 4.96609 17.5214 5.81594 17.955 7.37687C18.0244 7.61824 18.3886 7.77867 18.617 7.97812L17.9984 10.0247C17.1413 11.1116 15.6208 11.84 16.0602 13.6264C15.6902 14.5514 14.8331 14.508 14.0599 14.6381C13.8227 14.4619 13.5428 14.3521 13.2491 14.3202C12.6709 12.5858 11.3846 10.7878 9.76442 11.9975C8.35092 13.0555 9.29612 15.0182 11.0493 15.9505C11.3759 16.3696 11.7069 16.7887 12.0393 17.2093C12.0567 17.5764 12.0726 17.9392 12.0899 18.3063L10.3281 20.0523C9.66762 19.9641 9.00852 19.8774 8.34952 19.7863C7.11518 19.0839 5.53545 18.3193 4.83881 19.9988C4.20866 21.5178 5.77682 21.95 7.05592 22.1407C7.23996 22.8152 7.42496 23.4873 7.61092 24.1569C6.58475 25.6369 5.55713 27.116 4.52807 28.5941C3.47444 29.1895 1.26889 27.7919 1.32815 29.8442C1.35994 31.0511 3.36026 30.5394 4.49772 30.7273L5.46897 32.4487L2.69252 35.1442C1.75307 35.1211 0.614157 35.0358 0.157437 35.9102C-0.375883 36.9349 0.550566 37.7732 1.37151 38.0782C4.19998 39.1073 3.25909 40.4991 1.90772 42.0152C-0.231344 45.4507 5.20737 45.1082 4.75209 47.7011C4.3792 49.4355 0.630057 49.6725 2.64627 52.4706C4.07135 53.8567 5.73346 53.0256 7.31174 52.9678C7.88987 53.8596 9.16612 55.0057 8.94492 55.6026C7.45916 59.6596 10.4235 60.5701 12.9918 61.829C13.0944 62.8624 13.304 63.8033 14.6669 63.7166C15.8145 64.6329 13.3661 68.1522 16.3276 67.7635C16.595 67.8097 16.9462 67.7418 17.4101 67.5149C19.6301 66.256 21.6868 65.4293 21.6984 69.3345C21.6984 71.8089 23.2203 71.7106 24.7971 71.0458C26.0083 70.537 26.8003 69.0324 28.4451 69.56C29.8268 70.4561 31.7852 70.0557 32.8981 71.5516C35.4852 73.523 38.1012 76.0899 40.3819 71.2206C41.2491 70.4821 42.1712 69.7869 42.3186 68.5266L45.1153 69.4559C49.0437 74.0159 47.8614 66.9555 49.9513 67.3313L51.8129 67.4672C52.6367 68.7506 53.4692 70.7003 55.2571 69.3721C56.3483 68.5627 56.4307 66.7705 54.1948 66.4713C53.8306 65.1922 55.549 64.9538 55.5071 63.8365C56.5853 61.5717 59.6566 62.0183 60.8548 59.9111L60.875 59.9198C62.1946 60.7132 63.572 61.2509 65.1531 60.9242C66.464 59.6538 66.9034 58.0466 66.954 56.2891C68.9225 53.8321 66.8413 53.7049 65.2384 53.3046C64.7253 51.9171 65.4263 50.7117 65.8006 49.4557C65.909 49.1912 66.0059 48.9224 66.0897 48.6492C67.5856 48.5957 69.3807 49.3112 70.271 47.1172C68.8257 46.2832 67.457 46.5839 66.1157 46.6171C65.4523 44.8105 66.5826 43.9837 67.9252 43.2712Z" fill="#F28500"/>
<path d="M58.7856 1.06667C58.8723 0.867216 58.5067 0.208153 58.2971 0.183583C57.5571 0.0968643 57.2854 0.705341 57.2247 1.31382C57.1885 1.66792 57.4053 2.04659 57.5846 2.68831C58.1208 1.9989 58.5587 1.5812 58.7856 1.06667Z" fill="#F28500"/>
<path d="M23.6982 39.3068L25.3296 39.5742C25.5874 40.8234 26.0806 42.0121 26.7831 43.0768L25.8169 44.4252C25.6165 44.6981 25.6199 45.0705 25.8254 45.3396C26.069 45.6374 26.3279 45.9224 26.6009 46.1935C26.8763 46.4693 27.1602 46.7235 27.4526 46.9693C27.7219 47.1752 28.0948 47.1787 28.3679 46.9778L29.7154 46.0112C30.7791 46.7141 31.967 47.2077 33.2155 47.4655L33.4825 49.0982C33.5334 49.4322 33.7999 49.6918 34.1351 49.7338C34.3673 49.7601 34.6012 49.7762 34.8402 49.7881C34.9562 49.7938 35.0696 49.7518 35.154 49.672C35.2385 49.5922 35.2867 49.4814 35.2877 49.3652V45.9693C35.2864 45.7404 35.1046 45.5533 34.8758 45.5456C30.5937 45.3236 27.2355 41.7868 27.2355 37.4989C27.2355 33.2111 30.5937 29.6743 34.8758 29.4523C35.1046 29.4446 35.2864 29.2575 35.2877 29.0286V25.6356C35.2871 25.5195 35.2391 25.4086 35.1549 25.3286C35.0707 25.2486 34.9574 25.2065 34.8414 25.2119C34.6033 25.2218 34.3678 25.2385 34.135 25.2619C33.7997 25.3076 33.5343 25.5682 33.4825 25.9026L33.2155 27.5353C31.967 27.7935 30.7791 28.2872 29.7154 28.99L28.3679 28.023C28.0948 27.8221 27.7219 27.8255 27.4526 28.0315C27.1556 28.2754 26.8714 28.5344 26.6009 28.8074C26.3258 29.0765 26.0669 29.3616 25.8254 29.6612C25.619 29.9307 25.6156 30.304 25.8169 30.5773L26.783 31.9257C26.0808 32.99 25.5875 34.1783 25.3296 35.427L23.6982 35.694C23.3641 35.745 23.1046 36.0117 23.0626 36.347C22.9791 37.1075 22.9791 37.8748 23.0626 38.6352C23.1002 38.9761 23.3599 39.2504 23.6982 39.3068Z" fill="white"/>
<path d="M34.882 31.1571C31.5344 31.3691 28.9277 34.1461 28.9277 37.5005C28.9277 40.8548 31.5344 43.6318 34.882 43.8439C34.9885 43.8483 35.0922 43.8088 35.1688 43.7346C35.2453 43.6605 35.2881 43.5581 35.2871 43.4515V31.5495C35.2882 31.4428 35.2454 31.3405 35.1688 31.2663C35.0922 31.1921 34.9885 31.1526 34.882 31.1571Z" fill="white"/>
<path d="M38.2535 31.5681H36.1348V32.4156H38.2535C38.9547 32.4135 39.5226 31.8456 39.5247 31.1443V28.5239C40.1084 28.3176 40.4586 27.7207 40.3539 27.1104C40.2492 26.5002 39.7201 26.0542 39.1009 26.0542C38.4818 26.0542 37.9527 26.5002 37.848 27.1104C37.7433 27.7207 38.0934 28.3176 38.6772 28.5239V31.1443C38.6772 31.3784 38.4875 31.5681 38.2535 31.5681Z" fill="white"/>
<path d="M36.1348 34.1107H40.3722C40.6062 34.1107 40.7959 33.921 40.7959 33.6869C40.7959 33.4529 40.6062 33.2632 40.3722 33.2632H36.1348V34.1107Z" fill="white"/>
<path d="M36.1348 43.4329H38.2535C38.4875 43.4329 38.6772 43.6226 38.6772 43.8567V46.4771C38.0935 46.6834 37.7433 47.2803 37.848 47.8906C37.9527 48.5008 38.4818 48.9468 39.101 48.9468C39.7201 48.9468 40.2492 48.5008 40.3539 47.8906C40.4586 47.2803 40.1085 46.6834 39.5247 46.4771V43.8567C39.5226 43.1554 38.9547 42.5875 38.2535 42.5854H36.1348V43.4329H36.1348Z" fill="white"/>
<path d="M42.4909 39.1953H36.1348V40.0428H42.4909C42.7249 40.0428 42.9146 40.2325 42.9146 40.4665V42.6632C42.3309 42.8696 41.9808 43.4665 42.0855 44.0767C42.1902 44.6869 42.7192 45.133 43.3384 45.133C43.9575 45.133 44.4866 44.6869 44.5913 44.0767C44.696 43.4665 44.3459 42.8696 43.7622 42.6632V40.4665C43.76 39.7653 43.1921 39.1974 42.4909 39.1953Z" fill="white"/>
<path d="M46.7283 36.229C46.1915 36.2312 45.714 36.5704 45.5351 37.0765H36.1348V37.9239H45.5351C45.7516 38.5318 46.3898 38.8805 47.0183 38.7341C47.6469 38.5878 48.0655 37.9932 47.9913 37.3521C47.9171 36.7112 47.3736 36.2279 46.7283 36.229Z" fill="white"/>
<path d="M40.7959 41.3139C40.7959 41.0798 40.6062 40.8901 40.3722 40.8901H36.1348V41.7376H40.3722C40.6062 41.7376 40.7959 41.5479 40.7959 41.3139Z" fill="white"/>
<path d="M43.7622 34.5341V32.3374C44.3459 32.1311 44.696 31.5342 44.5913 30.9239C44.4866 30.3137 43.9576 29.8677 43.3384 29.8677C42.7193 29.8677 42.1902 30.3137 42.0855 30.9239C41.9808 31.5342 42.3309 32.1311 42.9146 32.3374V34.5341C42.9146 34.7682 42.7249 34.9579 42.4909 34.9579H36.1348V35.8053H42.4909C43.1922 35.8032 43.7601 35.2353 43.7622 34.5341Z" fill="white"/>
<defs>
<linearGradient id="paint0_linear_540_47" x1="42.1094" y1="68.5107" x2="42.1125" y2="68.5107" gradientUnits="userSpaceOnUse">
<stop stop-color="#DD1F26"/>
<stop offset="1" stop-color="#E15C25"/>
</linearGradient>
</defs>
</svg>
