<svg xmlns="http://www.w3.org/2000/svg" version="1.1" xmlns:xlink="http://www.w3.org/1999/xlink" xmlns:svgjs="http://svgjs.com/svgjs" width="512" height="512" x="0" y="0" viewBox="0 0 682.66669 682.66669" style="enable-background:new 0 0 512 512" xml:space="preserve" class=""><g><defs id="defs4612"><clipPath clipPathUnits="userSpaceOnUse" id="clipPath4622"><path d="M 0,512 H 512 V 0 H 0 Z" id="path4620" fill="#bb0b0b" data-original="#000000"></path></clipPath></defs><g id="g4614" transform="matrix(1.3333333,0,0,-1.3333333,0,682.66667)"><g id="g4616"><g id="g4618" clip-path="url(#clipPath4622)"><g id="g4624" transform="translate(197.4839,373.2266)"><path d="m 0,0 c -18.083,-16.139 -29.371,-39.692 -29.246,-65.98 0.139,-29.174 14.512,-54.983 36.531,-70.84 13.112,-9.443 21.054,-24.466 21.054,-40.624 v -4.175 h 60.354 v 4.069 c 0,16.095 7.753,31.211 20.841,40.577 22.247,15.92 36.745,41.977 36.745,71.419 0,48.67 -39.616,88.086 -88.361,87.762 C 48.02,22.142 38.529,20.461 29.691,17.416" style="stroke-width:15;stroke-linecap:round;stroke-linejoin:round;stroke-miterlimit:10;stroke-dasharray:none;stroke-opacity:1" id="path4626" fill="none" stroke="#bb0b0b" stroke-width="15" stroke-linecap="round" stroke-linejoin="round" stroke-miterlimit="10" stroke-dasharray="none" stroke-opacity="" data-original="#000000" class=""></path></g><g id="g4628" transform="translate(293.4282,163.1543)"><path d="m 0,0 h -74.856 c -1.417,0 -2.565,1.148 -2.565,2.565 v 23.323 c 0,1.417 1.148,2.565 2.565,2.565 H 0 c 1.417,0 2.565,-1.148 2.565,-2.565 V 2.565 C 2.565,1.148 1.417,0 0,0 Z" style="stroke-width:15;stroke-linecap:round;stroke-linejoin:round;stroke-miterlimit:10;stroke-dasharray:none;stroke-opacity:1" id="path4630" fill="none" stroke="#bb0b0b" stroke-width="15" stroke-linecap="round" stroke-linejoin="round" stroke-miterlimit="10" stroke-dasharray="none" stroke-opacity="" data-original="#000000" class=""></path></g><g id="g4632" transform="translate(256,115.877)"><path d="M 0,0 V 0 C -14.173,0 -25.663,11.49 -25.663,25.663 V 47.277 H 25.663 V 25.663 C 25.663,11.49 14.173,0 0,0 Z" style="stroke-width:15;stroke-linecap:round;stroke-linejoin:round;stroke-miterlimit:10;stroke-dasharray:none;stroke-opacity:1" id="path4634" fill="none" stroke="#bb0b0b" stroke-width="15" stroke-linecap="round" stroke-linejoin="round" stroke-miterlimit="10" stroke-dasharray="none" stroke-opacity="" data-original="#000000" class=""></path></g><g id="g4636" transform="translate(256,191.6074)"><path d="M 0,0 V 91.699" style="stroke-width:15;stroke-linecap:round;stroke-linejoin:round;stroke-miterlimit:10;stroke-dasharray:none;stroke-opacity:1" id="path4638" fill="none" stroke="#bb0b0b" stroke-width="15" stroke-linecap="round" stroke-linejoin="round" stroke-miterlimit="10" stroke-dasharray="none" stroke-opacity="" data-original="#000000" class=""></path></g><g id="g4640" transform="translate(218.1372,270.8145)"><path d="M 0,0 18.929,-20 37.86,0 56.792,-20 75.726,0" style="stroke-width:15;stroke-linecap:round;stroke-linejoin:round;stroke-miterlimit:10;stroke-dasharray:none;stroke-opacity:1" id="path4642" fill="none" stroke="#bb0b0b" stroke-width="15" stroke-linecap="round" stroke-linejoin="round" stroke-miterlimit="10" stroke-dasharray="none" stroke-opacity="" data-original="#000000" class=""></path></g><g id="g4644" transform="translate(429.5728,255.6562)"><path d="m 0,0 c 0,-95.861 -77.711,-173.572 -173.573,-173.572 -95.862,0 -173.573,77.711 -173.573,173.572 0,95.862 77.711,173.573 173.573,173.573 C -77.711,173.573 0,95.862 0,0 Z" style="stroke-width:15;stroke-linecap:round;stroke-linejoin:round;stroke-miterlimit:10;stroke-dasharray:none;stroke-opacity:1" id="path4646" fill="none" stroke="#bb0b0b" stroke-width="15" stroke-linecap="round" stroke-linejoin="round" stroke-miterlimit="10" stroke-dasharray="none" stroke-opacity="" data-original="#000000" class=""></path></g><g id="g4648" transform="translate(256,430.1016)"><path d="M 0,0 V 35.529" style="stroke-width:15;stroke-linecap:round;stroke-linejoin:round;stroke-miterlimit:10;stroke-dasharray:none;stroke-opacity:1" id="path4650" fill="none" stroke="#bb0b0b" stroke-width="15" stroke-linecap="round" stroke-linejoin="round" stroke-miterlimit="10" stroke-dasharray="none" stroke-opacity="" data-original="#000000" class=""></path></g><g id="g4652" transform="translate(256,46.6826)"><path d="M 0,0 V 35.104" style="stroke-width:15;stroke-linecap:round;stroke-linejoin:round;stroke-miterlimit:10;stroke-dasharray:none;stroke-opacity:1" id="path4654" fill="none" stroke="#bb0b0b" stroke-width="15" stroke-linecap="round" stroke-linejoin="round" stroke-miterlimit="10" stroke-dasharray="none" stroke-opacity="" data-original="#000000" class=""></path></g><g id="g4656" transform="translate(132.8521,379.0928)"><path d="M 0,0 -25.123,25.122" style="stroke-width:15;stroke-linecap:round;stroke-linejoin:round;stroke-miterlimit:10;stroke-dasharray:none;stroke-opacity:1" id="path4658" fill="none" stroke="#bb0b0b" stroke-width="15" stroke-linecap="round" stroke-linejoin="round" stroke-miterlimit="10" stroke-dasharray="none" stroke-opacity="" data-original="#000000" class=""></path></g><g id="g4660" transform="translate(404.2705,107.6738)"><path d="M 0,0 -25.123,25.123" style="stroke-width:15;stroke-linecap:round;stroke-linejoin:round;stroke-miterlimit:10;stroke-dasharray:none;stroke-opacity:1" id="path4662" fill="none" stroke="#bb0b0b" stroke-width="15" stroke-linecap="round" stroke-linejoin="round" stroke-miterlimit="10" stroke-dasharray="none" stroke-opacity="" data-original="#000000" class=""></path></g><g id="g4664" transform="translate(81.8428,255.9443)"><path d="M 0,0 H -35.529" style="stroke-width:15;stroke-linecap:round;stroke-linejoin:round;stroke-miterlimit:10;stroke-dasharray:none;stroke-opacity:1" id="path4666" fill="none" stroke="#bb0b0b" stroke-width="15" stroke-linecap="round" stroke-linejoin="round" stroke-miterlimit="10" stroke-dasharray="none" stroke-opacity="" data-original="#000000" class=""></path></g><g id="g4668" transform="translate(465.6865,255.9443)"><path d="M 0,0 H -35.529" style="stroke-width:15;stroke-linecap:round;stroke-linejoin:round;stroke-miterlimit:10;stroke-dasharray:none;stroke-opacity:1" id="path4670" fill="none" stroke="#bb0b0b" stroke-width="15" stroke-linecap="round" stroke-linejoin="round" stroke-miterlimit="10" stroke-dasharray="none" stroke-opacity="" data-original="#000000" class=""></path></g><g id="g4672" transform="translate(132.8521,132.7969)"><path d="M 0,0 -61.931,-61.931" style="stroke-width:15;stroke-linecap:round;stroke-linejoin:round;stroke-miterlimit:10;stroke-dasharray:none;stroke-opacity:1" id="path4674" fill="none" stroke="#bb0b0b" stroke-width="15" stroke-linecap="round" stroke-linejoin="round" stroke-miterlimit="10" stroke-dasharray="none" stroke-opacity="" data-original="#000000" class=""></path></g><g id="g4676" transform="translate(440.2944,440.2393)"><path d="M 0,0 -61.146,-61.146" style="stroke-width:15;stroke-linecap:round;stroke-linejoin:round;stroke-miterlimit:10;stroke-dasharray:none;stroke-opacity:1" id="path4678" fill="none" stroke="#bb0b0b" stroke-width="15" stroke-linecap="round" stroke-linejoin="round" stroke-miterlimit="10" stroke-dasharray="none" stroke-opacity="" data-original="#000000" class=""></path></g><g id="g4680" transform="translate(276.1846,485.21)"><path d="m 0,0 c 0,-10.813 -8.766,-19.579 -19.579,-19.579 -10.813,0 -19.579,8.766 -19.579,19.579 0,10.813 8.766,19.579 19.579,19.579 C -8.766,19.579 0,10.813 0,0 Z" style="stroke-width:15;stroke-linecap:round;stroke-linejoin:round;stroke-miterlimit:10;stroke-dasharray:none;stroke-opacity:1" id="path4682" fill="none" stroke="#bb0b0b" stroke-width="15" stroke-linecap="round" stroke-linejoin="round" stroke-miterlimit="10" stroke-dasharray="none" stroke-opacity="" data-original="#000000" class=""></path></g><g id="g4684" transform="translate(46.5547,255.6562)"><path d="m 0,0 c 0,-10.813 -8.766,-19.578 -19.579,-19.578 -10.813,0 -19.579,8.765 -19.579,19.578 0,10.813 8.766,19.579 19.579,19.579 C -8.766,19.579 0,10.813 0,0 Z" style="stroke-width:15;stroke-linecap:round;stroke-linejoin:round;stroke-miterlimit:10;stroke-dasharray:none;stroke-opacity:1" id="path4686" fill="none" stroke="#bb0b0b" stroke-width="15" stroke-linecap="round" stroke-linejoin="round" stroke-miterlimit="10" stroke-dasharray="none" stroke-opacity="" data-original="#000000" class=""></path></g><g id="g4688" transform="translate(504.6035,255.6562)"><path d="m 0,0 c 0,-10.813 -8.766,-19.578 -19.579,-19.578 -10.813,0 -19.579,8.765 -19.579,19.578 0,10.813 8.766,19.579 19.579,19.579 C -8.766,19.579 0,10.813 0,0 Z" style="stroke-width:15;stroke-linecap:round;stroke-linejoin:round;stroke-miterlimit:10;stroke-dasharray:none;stroke-opacity:1" id="path4690" fill="none" stroke="#bb0b0b" stroke-width="15" stroke-linecap="round" stroke-linejoin="round" stroke-miterlimit="10" stroke-dasharray="none" stroke-opacity="" data-original="#000000" class=""></path></g><g id="g4692" transform="translate(275.5791,27.1035)"><path d="m 0,0 c 0,-10.813 -8.766,-19.579 -19.579,-19.579 -10.813,0 -19.579,8.766 -19.579,19.579 0,10.813 8.766,19.579 19.579,19.579 C -8.766,19.579 0,10.813 0,0 Z" style="stroke-width:15;stroke-linecap:round;stroke-linejoin:round;stroke-miterlimit:10;stroke-dasharray:none;stroke-opacity:1" id="path4694" fill="none" stroke="#bb0b0b" stroke-width="15" stroke-linecap="round" stroke-linejoin="round" stroke-miterlimit="10" stroke-dasharray="none" stroke-opacity="" data-original="#000000" class=""></path></g><g id="g4696" transform="translate(504.7334,467.501)"><path d="m 0,0 c 0,-20.594 -16.694,-37.288 -37.288,-37.288 -20.594,0 -37.288,16.694 -37.288,37.288 0,20.594 16.694,37.288 37.288,37.288 C -16.694,37.288 0,20.594 0,0 Z" style="stroke-width:15;stroke-linecap:round;stroke-linejoin:round;stroke-miterlimit:10;stroke-dasharray:none;stroke-opacity:1" id="path4698" fill="none" stroke="#bb0b0b" stroke-width="15" stroke-linecap="round" stroke-linejoin="round" stroke-miterlimit="10" stroke-dasharray="none" stroke-opacity="" data-original="#000000" class=""></path></g><g id="g4700" transform="translate(54.8447,8.6484)"><path d="m 0,0 c -3.269,-0.936 -6.721,-1.437 -10.29,-1.437 -20.594,0 -37.288,16.694 -37.288,37.288 0,20.593 16.694,37.288 37.288,37.288 20.594,0 37.288,-16.695 37.288,-37.288 0,-4.399 -0.762,-8.62 -2.16,-12.538" style="stroke-width:15;stroke-linecap:round;stroke-linejoin:round;stroke-miterlimit:10;stroke-dasharray:none;stroke-opacity:1" id="path4702" fill="none" stroke="#bb0b0b" stroke-width="15" stroke-linecap="round" stroke-linejoin="round" stroke-miterlimit="10" stroke-dasharray="none" stroke-opacity="" data-original="#000000" class=""></path></g><g id="g4704" transform="translate(114.8545,427.167)"><path d="m 0,0 c 0,-17.577 -14.25,-31.827 -31.828,-31.827 -17.577,0 -31.827,14.25 -31.827,31.827 0,17.578 14.25,31.827 31.827,31.827 C -14.25,31.827 0,17.578 0,0 Z" style="stroke-width:15;stroke-linecap:round;stroke-linejoin:round;stroke-miterlimit:10;stroke-dasharray:none;stroke-opacity:1" id="path4706" fill="none" stroke="#bb0b0b" stroke-width="15" stroke-linecap="round" stroke-linejoin="round" stroke-miterlimit="10" stroke-dasharray="none" stroke-opacity="" data-original="#000000" class=""></path></g><g id="g4708" transform="translate(460.8003,84.1465)"><path d="m 0,0 c 0,-17.578 -14.25,-31.828 -31.827,-31.828 -17.578,0 -31.828,14.25 -31.828,31.828 0,17.577 14.25,31.827 31.828,31.827 C -14.25,31.827 0,17.577 0,0 Z" style="stroke-width:15;stroke-linecap:round;stroke-linejoin:round;stroke-miterlimit:10;stroke-dasharray:none;stroke-opacity:1" id="path4710" fill="none" stroke="#bb0b0b" stroke-width="15" stroke-linecap="round" stroke-linejoin="round" stroke-miterlimit="10" stroke-dasharray="none" stroke-opacity="" data-original="#000000" class=""></path></g></g></g></g></g></svg>