<svg width="71" height="75" viewBox="0 0 71 75" fill="none" xmlns="http://www.w3.org/2000/svg">
<path d="M42.1641 68.5123L42.1672 68.5107H42.1656L42.1641 68.5123Z" fill="url(#paint0_linear_563_58)"/>
<path d="M67.9253 43.2712C68.8026 43.0168 70.1742 43.1137 70.2956 42.1251C70.4575 40.8243 69.0887 41.1018 68.2317 40.95C67.4714 40.8127 66.7155 40.6436 65.9596 40.489C68.0915 35.8539 68.1276 35.5157 67.616 35.4665C63.28 35.0474 65.6518 31.7795 65.1141 29.7619C66.6071 29.5133 68.0048 29.0594 69.1841 27.9914C68.4933 27.1892 67.1766 27.9914 66.7791 26.8351C66.0825 24.0023 62.5964 24.9923 61.3664 22.8865C61.3768 22.6893 61.371 22.4916 61.3491 22.2954C61.6887 21.9514 62.0284 21.606 62.368 21.2576L63.8018 21.0047C64.8959 20.6651 65.4567 19.5435 64.786 18.9625C63.3841 17.7455 61.7119 18.1921 60.2478 19.2414C56.8195 19.451 56.1055 16.3826 54.4665 14.4401L55.6618 12.7419C57.4121 12.1189 57.4121 10.0926 58.6464 9.0491C59.369 9.39019 60.1712 9.62722 60.5744 8.69789C60.9487 7.8307 60.4458 7.18754 59.5627 7.08492C57.9728 6.90137 56.9712 7.6934 56.5203 9.20375C53.9592 12.2779 50.9038 10.2155 48.0276 10.0218C46.3699 10.0218 44.6167 10.3903 43.3708 8.81351C43.392 8.2113 43.4132 7.61005 43.4344 7.00976C45.3654 5.07015 45.6024 2.86605 44.1412 0C43.5457 3.4832 41.3835 5.20312 38.4365 6.09054L32.6524 8.67765L31.4239 7.92176C28.9062 7.42746 28.4595 4.46746 26.2627 3.58582C25.5588 3.04383 24.6988 1.78785 23.9892 2.54519C22.8749 3.73902 24.6049 4.64234 24.9865 5.72488C24.9445 7.15863 26.0719 7.9073 26.8365 8.86843L25.3015 10.5392C23.8895 10.8789 22.5771 10.5623 21.3168 9.93652L21.1 9.81367C20.824 8.69933 20.811 7.47226 19.7241 6.71781C19.5897 4.9314 19.0014 3.38348 17.2873 2.56543C17.0156 2.4368 16.2756 2.67961 16.1628 2.93109C15.274 4.96609 17.5214 5.81594 17.955 7.37687C18.0244 7.61824 18.3886 7.77867 18.617 7.97812L17.9984 10.0247C17.1413 11.1116 15.6208 11.84 16.0602 13.6264C15.6902 14.5514 14.8331 14.508 14.0599 14.6381C13.8227 14.4619 13.5428 14.3521 13.2491 14.3202C12.671 12.5858 11.3846 10.7878 9.7644 11.9975C8.3509 13.0555 9.2961 15.0182 11.0493 15.9505C11.376 16.3696 11.7069 16.7887 12.0394 17.2093C12.0567 17.5764 12.0726 17.9392 12.0899 18.3063L10.3281 20.0523C9.6676 19.9641 9.0085 19.8774 8.3495 19.7863C7.11517 19.0839 5.53545 18.3193 4.83881 19.9988C4.20865 21.5178 5.77681 21.95 7.05591 22.1407C7.23995 22.8152 7.42495 23.4873 7.61091 24.1569C6.58474 25.6369 5.55713 27.116 4.52806 28.5941C3.47443 29.1895 1.26888 27.7919 1.32814 29.8442C1.35994 31.0511 3.36025 30.5394 4.49771 30.7273L5.46896 32.4487L2.69252 35.1442C1.75306 35.1211 0.614158 35.0358 0.157438 35.9102C-0.375882 36.9349 0.550558 37.7732 1.3715 38.0782C4.19998 39.1073 3.25908 40.4991 1.90771 42.0152C-0.231352 45.4507 5.20736 45.1082 4.75209 47.7011C4.3792 49.4355 0.630048 49.6725 2.64627 52.4706C4.07134 53.8567 5.73345 53.0256 7.31174 52.9678C7.88986 53.8596 9.1661 55.0057 8.9449 55.6026C7.45916 59.6596 10.4235 60.5701 12.9918 61.829C13.0944 62.8624 13.304 63.8033 14.6669 63.7166C15.8145 64.6329 13.3661 68.1522 16.3276 67.7635C16.595 67.8097 16.9462 67.7418 17.4101 67.5149C19.6301 66.256 21.6868 65.4293 21.6984 69.3345C21.6984 71.8089 23.2203 71.7106 24.7971 71.0458C26.0083 70.537 26.8003 69.0324 28.4451 69.56C29.8268 70.4561 31.7852 70.0557 32.8981 71.5516C35.4852 73.523 38.1012 76.0899 40.3819 71.2206C41.2491 70.4821 42.1712 69.7869 42.3187 68.5266L45.1153 69.4559C49.0437 74.0159 47.8614 66.9555 49.9514 67.3313L51.8129 67.4672C52.6367 68.7506 53.4692 70.7003 55.2571 69.3721C56.3483 68.5627 56.4307 66.7705 54.1948 66.4713C53.8306 65.1922 55.549 64.9538 55.5071 63.8365C56.5853 61.5717 59.6566 62.0183 60.8548 59.9111L60.875 59.9198C62.1946 60.7132 63.572 61.2509 65.1532 60.9242C66.4641 59.6538 66.9034 58.0466 66.954 56.2891C68.9225 53.8321 66.8413 53.7049 65.2384 53.3046C64.7253 51.9171 65.4263 50.7117 65.8007 49.4557C65.909 49.1912 66.0059 48.9224 66.0897 48.6492C67.5856 48.5957 69.3807 49.3112 70.271 47.1172C68.8257 46.2832 67.457 46.5839 66.1157 46.6171C65.4523 44.8105 66.5826 43.9837 67.9253 43.2712Z" fill="#DE3423"/>
<path d="M58.8403 1.06667C58.927 0.867216 58.5614 0.208153 58.3518 0.183583C57.6118 0.0968643 57.3401 0.705341 57.2794 1.31382C57.2432 1.66792 57.46 2.04659 57.6393 2.68831C58.1755 1.9989 58.6134 1.5812 58.8403 1.06667Z" fill="#DE3423"/>
<path d="M30.6503 42.0931L23 37.9209V35.61L30.6503 31.4614V34.1757L25.3194 36.7365L30.6503 39.3939V42.0931Z" fill="white"/>
<path d="M31.957 43.553L37.0304 30H38.6333L33.5481 43.553H31.957Z" fill="white"/>
<path d="M40.3496 42.0927V39.3935L45.6794 36.7576L40.3496 34.142V31.46L47.9999 35.6139V37.9108L40.3496 42.0927Z" fill="white"/>
<defs>
<linearGradient id="paint0_linear_563_58" x1="42.1641" y1="68.5107" x2="42.1672" y2="68.5107" gradientUnits="userSpaceOnUse">
<stop stop-color="#DD1F26"/>
<stop offset="1" stop-color="#E15C25"/>
</linearGradient>
</defs>
</svg>
