<?xml version="1.0" encoding="UTF-8"?><svg id="Layer_1" xmlns="http://www.w3.org/2000/svg" viewBox="0 0 71 75"><defs><style>.cls-1{fill:#fff;}.cls-2{fill:#009edb;}</style></defs><path class="cls-2" d="m68.2,43.8c.9-.3,2.2-.2,2.4-1.1.2-1.3-1.2-1-2.1-1.2-.8,0-1.5-.3-2.3-.5,2.1-4.6,2.2-5,1.7-5-4.3-.4-2-3.7-2.5-5.7,1.5-.2,2.9-.7,4.1-1.8-.7-.8-2,0-2.4-1.2-.7-2.8-4.2-1.8-5.4-3.9v-.6l1-1,1.4-.3c1.1-.3,1.7-1.5,1-2-1.4-1.2-3.1-.8-4.5.3-3.4.2-4.1-2.9-5.8-4.8l1.2-1.7c1.8-.6,1.8-2.6,3-3.7.7.3,1.5.6,1.9-.4.4-.9,0-1.5-1-1.6-1.6-.2-2.6.6-3,2.1-2.6,3.1-5.6,1-8.5.8-1.7,0-3.4.4-4.7-1.2,0-.6,0-1.2,0-1.8,1.9-1.9,2.2-4.1.7-7-.6,3.5-2.8,5.2-5.7,6.1l-5.8,2.6-1.2-.8c-2.5-.5-3-3.5-5.2-4.3-.7-.5-1.6-1.8-2.3-1-1.1,1.2.6,2.1,1,3.2,0,1.4,1.1,2.2,1.9,3.1l-1.5,1.7c-1.4.3-2.7,0-4-.6h-.2c-.3-1.2-.3-2.4-1.4-3.2-.1-1.8-.7-3.3-2.4-4.2-.3,0-1,0-1.1.4-.9,2,1.4,2.9,1.8,4.4,0,.2.3.4.5.6l-.6,2c-.9,1.1-2.4,1.8-1.9,3.6-.4.9-1.2.9-2,1-.2-.2-.5-.3-.8-.3-.6-1.7-1.9-3.5-3.5-2.3-1.4,1.1-.5,3,1.3,4,.3.4.7.8,1,1.3,0,.4,0,.7.1,1.1l-1.8,1.7c-.7-.1-1.3-.2-2-.3-1.2-.7-2.8-1.5-3.5.2-.6,1.5.9,2,2.2,2.1.2.7.4,1.3.6,2-1,1.5-2.1,3-3.1,4.4-1.1.6-3.3-.8-3.2,1.3,0,1.2,2,.7,3.2.9l1,1.7-2.8,2.7c-.9,0-2.1,0-2.5.8-.5,1,.4,1.9,1.2,2.2,2.8,1,1.9,2.4.5,3.9-2.1,3.4,3.3,3.1,2.8,5.7-.4,1.7-4.1,2-2.1,4.8,1.4,1.4,3,.5,4.6.5.6.9,1.9,2,1.6,2.6-1.5,4.1,1.5,5,4,6.2.1,1,.3,2,1.7,1.9,1.1.9-1.3,4.4,1.7,4,.3,0,.6,0,1.1-.2,2.2-1.3,4.3-2.1,4.3,1.8s1.5,2.4,3.1,1.7c1.2-.5,2-2,3.6-1.5,1.4.9,3.3.5,4.5,2,2.6,2,5.2,4.5,7.5-.3.9-.7,1.8-1.4,1.9-2.7l2.8.9c3.9,4.6,2.8-2.4,4.9-2.1h1.9c.8,1.4,1.7,3.3,3.4,2,1.1-.8,1.2-2.6-1.1-2.9-.4-1.3,1.4-1.5,1.3-2.6,1.1-2.3,4.1-1.8,5.3-3.9h0c1.3.8,2.7,1.3,4.3,1,1.3-1.3,1.8-2.9,1.8-4.6,2-2.5,0-2.6-1.7-3-.5-1.4.2-2.6.6-3.8,0-.3.2-.5.3-.8,1.5,0,3.3.7,4.2-1.5-1.4-.8-2.8-.5-4.2-.5-.6-1.9.5-2.7,1.8-3.4Z"/><path class="cls-2" d="m59.1,1.6c0-.2-.3-.9-.5-.9-.7-.1-1,.5-1.1,1.1,0,.4.2.7.4,1.4.6-.7,1-1.1,1.2-1.6Z"/><path class="cls-1" d="m43.8,30c-1,0-1.9.2-2.7.6-1-1.3-2.5-2.1-4.3-2.1s-1,.1-1.5.2l-5.3,9.1,5.3,9.1c.6-.5,1.1-1,1.5-1.7.6.2,1.2.3,1.9.3,1.9,0,3.6-1,4.5-2.5h.6c3.6,0,6.5-2.9,6.5-6.5s-2.9-6.5-6.5-6.5Z"/><path class="cls-1" d="m33.5,29.6c-1.2-1.3-2.9-2.1-4.8-2.1-3.6,0-6.5,2.9-6.5,6.5s.1,1.3.3,2c-1.3,1-2.2,2.5-2.2,4.3,0,2.9,2.4,5.3,5.3,5.3h.2c1.2,1.7,3.1,2.8,5.4,2.8s3-.5,4.1-1.5v-18.3c-.7.2-1.3.6-1.8,1Z"/></svg>