<svg xmlns="http://www.w3.org/2000/svg" version="1.1" xmlns:xlink="http://www.w3.org/1999/xlink" xmlns:svgjs="http://svgjs.com/svgjs" width="512" height="512" x="0" y="0" viewBox="0 0 512 512" style="enable-background:new 0 0 512 512" xml:space="preserve" class=""><g><g id="Layer_2_00000081627105053815238370000007448482367015898506_"><g id="Layer_1-2"><g id="discover"><path d="m256 .7c-141.3.1-255.8 114.6-256 256 14.1 339.6 498 339.5 512 0-.2-141.4-114.7-255.9-256-256zm0 496.4c-132.8-.1-240.3-107.7-240.5-240.4 13.2-319 467.8-318.9 481 0-.2 132.7-107.7 240.3-240.5 240.4z" fill="#bb0b0b" data-original="#000000" class=""></path><path d="m64.4 225.2c4.2.8 8.3-1.9 9.2-6.1 14.9-73 71.9-130 144.9-144.9 4.2-.9 6.9-4.9 6.1-9.1s-4.9-6.9-9.1-6.1c-79.1 16.1-140.9 78-157 157.1-.9 4.2 1.8 8.2 5.9 9.1z" fill="#bb0b0b" data-original="#000000" class=""></path><path d="m218.5 439.1c-73-14.9-130-71.9-144.9-144.9-2.3-9.7-16.9-6.8-15.1 3.1 16.1 79.1 77.9 140.9 157 156.9 9.8 1.5 12.7-12.7 3-15.1z" fill="#bb0b0b" data-original="#000000" class=""></path><path d="m447.6 288.1c-4.2-.8-8.3 1.9-9.2 6.1-14.9 73-71.9 130-144.9 144.9-4.2.9-6.8 5.1-5.9 9.3.8 3.5 3.8 6 7.4 6.1 79.8-15.4 142.4-77.5 158.5-157.2 1-4.2-1.7-8.3-5.9-9.2z" fill="#bb0b0b" data-original="#000000" class=""></path><path d="m293.5 74.3c73 14.9 130 71.9 144.9 144.9 2.4 9.6 16.8 6.8 15.2-3.1-16.1-79.1-77.9-140.9-157-157-4.2-.9-8.3 1.8-9.2 6-.8 4.2 1.9 8.3 6.1 9.2z" fill="#bb0b0b" data-original="#000000" class=""></path><path d="m352 150.7-142.6 54.9c-2 .8-3.6 2.4-4.4 4.4 0 0-55 142.8-55 142.8-2.5 6 4 12.6 10 10 0 0 142.6-54.9 142.6-54.9 2-.8 3.7-2.4 4.4-4.5 0 0 55-142.7 55-142.7 2.4-6-4-12.4-10-10zm-181.2 191.2 44.3-115.2 70.9 70.9zm126.1-55.3-70.9-70.9 115.2-44.3z" fill="#bb0b0b" data-original="#000000" class=""></path><path d="m93.1 256.7c0-4.3-3.5-7.8-7.8-7.8h-46.5c-4.3-.2-7.9 3.2-8 7.5-.2 4.5 3.6 8.2 8 8h46.5c4.3 0 7.8-3.5 7.8-7.7z" fill="#bb0b0b" data-original="#000000" class=""></path><path d="m473.2 248.9h-46.5c-10.2-.1-10.8 14.9-.6 15.5h47.1c4.3-.2 7.6-3.8 7.5-8-.2-4.1-3.4-7.4-7.5-7.5z" fill="#bb0b0b" data-original="#000000" class=""></path><path d="m256 419.6c-4.3 0-7.8 3.5-7.8 7.8v46.5c.2 4.3 3.8 7.6 8 7.5 4.1-.2 7.3-3.4 7.5-7.5v-46.5c.1-4.4-3.4-7.8-7.7-7.8z" fill="#bb0b0b" data-original="#000000" class=""></path><path d="m256 93.7c4.3 0 7.8-3.5 7.8-7.8v-46.5c-.2-4.3-3.8-7.6-8-7.5-4.1.2-7.3 3.4-7.5 7.5v46.6c0 4.3 3.4 7.7 7.7 7.7z" fill="#bb0b0b" data-original="#000000" class=""></path></g></g></g></g></svg>