<svg xmlns="http://www.w3.org/2000/svg" version="1.1" xmlns:xlink="http://www.w3.org/1999/xlink" xmlns:svgjs="http://svgjs.com/svgjs" width="512" height="512" x="0" y="0" viewBox="0 0 512 512" style="enable-background:new 0 0 512 512" xml:space="preserve" class=""><g><path d="m512 428.651v-345.302a9.278 9.278 0 0 0 -9.245-9.269h-130.146a9.283 9.283 0 0 0 -9.255 9.269v67.629a9.275 9.275 0 0 0 9.255 9.26h53.233v191.519h-53.233a9.275 9.275 0 0 0 -9.255 9.26v67.634a9.283 9.283 0 0 0 9.255 9.269h130.146a9.278 9.278 0 0 0 9.245-9.269zm-137.018-215.732a9.281 9.281 0 0 1 9.26 9.269v67.619a9.282 9.282 0 0 1 -9.26 9.274h-177.722v64.969a11.8 11.8 0 0 1 -18.029 10.019l-85.87-53.431-87.79-54.619a11.795 11.795 0 0 1 0-20.038l87.79-54.624 85.87-53.426a11.8 11.8 0 0 1 18.029 10.019v64.969zm121.018 209.001h-116.646v-54.163h62.488v-223.519h-62.488v-54.158h116.646zm-127.758-193v54.162h-186.982v73.406l-79.446-49.433-82.059-51.055 82.059-51.059 79.446-49.429v73.407z" fill-rule="evenodd" fill="#bb0b0b" data-original="#000000" class=""></path></g></svg>