<svg xmlns="http://www.w3.org/2000/svg" version="1.1" xmlns:xlink="http://www.w3.org/1999/xlink" width="512" height="512" x="0" y="0" viewBox="0 0 512 512" style="enable-background:new 0 0 512 512" xml:space="preserve" class=""><g><path d="M196.81 217.07c-.69 2.71-3.13 4.51-5.81 4.51-.49 0-.99-.06-1.49-.19-2.93-.75-5.78-1.56-8.45-2.42-3.16-1.01-4.9-4.38-3.89-7.54s4.38-4.9 7.54-3.89c2.45.78 5.07 1.53 7.77 2.22 3.21.83 5.15 4.1 4.33 7.31zm59.19-.27c-15.56 0-30.43-1.06-44.22-3.16-3.28-.5-6.34 1.75-6.83 5.03s1.75 6.34 5.03 6.83c14.38 2.19 29.87 3.3 46.03 3.3 3.31 0 6-2.69 6-6s-2.7-6-6.01-6zm-44.22 59.71a5.986 5.986 0 0 0-6.83 5.03 5.986 5.986 0 0 0 5.03 6.83c14.38 2.19 29.87 3.3 46.03 3.3 3.31 0 6-2.69 6-6s-2.69-6-6-6c-15.57 0-30.45-1.06-44.23-3.16zm-19.3-3.87c-2.7-.69-5.32-1.44-7.77-2.22-3.16-1.01-6.53.73-7.54 3.89s.73 6.53 3.89 7.54c2.68.86 5.52 1.67 8.45 2.42.5.13 1 .19 1.49.19 2.68 0 5.12-1.8 5.81-4.51a6.01 6.01 0 0 0-4.33-7.31zm0 62.88c-2.7-.69-5.32-1.44-7.77-2.22-3.16-1.01-6.53.73-7.54 3.89s.73 6.53 3.89 7.54c2.68.86 5.52 1.67 8.45 2.42.5.13 1 .19 1.49.19 2.68 0 5.12-1.8 5.81-4.51a6.01 6.01 0 0 0-4.33-7.31zm63.52 7.02c-15.55 0-30.43-1.06-44.22-3.16-3.27-.51-6.33 1.75-6.83 5.03s1.75 6.34 5.03 6.83c14.39 2.19 29.87 3.3 46.03 3.3 3.31 0 6-2.69 6-6s-2.7-6-6.01-6zm137.64 4.89c-10.87 6.5-22.84 9.6-34.67 9.6-23.06 0-45.55-11.75-58.23-32.93-19.18-32.05-8.71-73.72 23.33-92.9 15.52-9.29 33.73-11.98 51.28-7.57s32.33 15.38 41.62 30.91c9.29 15.52 11.98 33.74 7.57 51.28-4.4 17.54-15.37 32.32-30.9 41.61zm13.04-86.74c-7.64-12.77-19.81-21.8-34.24-25.43-14.44-3.62-29.42-1.41-42.2 6.23-26.37 15.78-34.98 50.07-19.2 76.44s50.07 34.98 76.44 19.2 34.98-50.07 19.2-76.44zm69.01 200.3c-5.12 9.44-15.13 15.5-25.56 15.5h-.31c-10.62-.12-19.96-6.53-25.63-17.58l-41.57-81.1a90.99 90.99 0 0 1-23.61 3.11c-10.79 0-21.48-1.91-31.57-5.58-.33.1-.66.2-.99.29v78.88c0 6.53 5.31 11.84 11.85 11.84h20.81l-8.41-8.41a6 6 0 0 1 0-8.48 6 6 0 0 1 8.48 0l18.66 18.66a6 6 0 0 1 0 8.48l-18.66 18.66a5.991 5.991 0 0 1-8.48 0 6 6 0 0 1 0-8.48l8.41-8.41H338.3c-13.15 0-23.85-10.7-23.85-23.84v-75.94c-15.49 3.25-33.49 5.15-52.44 5.48v92.48l8.41-8.41c2.34-2.34 6.14-2.34 8.48 0s2.34 6.14 0 8.48l-18.66 18.66a5.991 5.991 0 0 1-8.48 0l-18.66-18.66a6 6 0 0 1 0-8.48 6 6 0 0 1 8.48 0l8.41 8.41v-92.48c-18.4-.33-36.64-2.17-52.44-5.46v75.93c0 13.15-10.7 23.84-23.85 23.84h-20.8l8.41 8.41a6 6 0 0 1-4.24 10.24c-1.53 0-3.07-.59-4.24-1.76l-18.66-18.66a6 6 0 0 1 0-8.48l18.66-18.66c2.34-2.34 6.14-2.34 8.48 0s2.34 6.14 0 8.48l-8.41 8.41h20.81c6.53 0 11.85-5.31 11.85-11.84v-78.85c-21.73-6.16-36.53-15.64-36.53-28.28v-24.14c-9.59.04-19.17.08-28.76.11-48.19 0-87.39-39.19-87.39-87.37 0-21.84 8.1-42.74 22.81-58.86 12.86-14.1 29.8-23.51 48.33-26.99-3.45-10.39-5.19-21.24-5.19-32.34C98.83 61.11 144.94 15 201.61 15c40.99 0 77.98 24.5 94.21 61.65 12.6-6.73 26.68-10.26 41.11-10.26 48.17 0 87.37 39.19 87.37 87.37v.27c32.96 13.22 54.81 45.26 54.81 81.09 0 25.04-10.66 48.71-29.33 65.3-.47 3.75-1.14 7.49-2.07 11.21-4.15 16.52-12.62 31.23-24.46 42.88l50.04 75.01c6.83 10.23 7.7 21.7 2.4 31.47zM149.03 311.23V162.99c0-24.11 53.81-36.73 106.97-36.73s106.97 12.62 106.97 36.73v34.83c29.67 1.38 58.14 17.1 74.51 44.44 7.47 12.49 11.76 26.27 12.78 40.38 10.84-13.33 16.86-30.03 16.86-47.52 0-32.2-20.45-60.85-50.88-71.3a5.983 5.983 0 0 1-4.04-5.99c.07-1.37.11-2.75.11-4.08 0-41.56-33.81-75.37-75.37-75.37-14.55 0-28.68 4.16-40.85 12.02-1.54 1-3.45 1.23-5.19.64s-3.11-1.94-3.72-3.67C274.34 51.27 239.96 27 201.61 27c-50.06 0-90.78 40.72-90.78 90.78 0 12.1 2.34 23.84 6.96 34.91a5.998 5.998 0 0 1-4.96 8.28c-38.74 3.78-67.95 36.02-67.95 75 0 41.56 33.81 75.37 75.36 75.37 9.59-.03 19.19-.07 28.79-.11zm201.94-113.19v-17.17c-18.82 12.43-57.06 18.85-94.97 18.85s-76.15-6.42-94.97-18.85v43.58c0 4.12 7.83 10.67 25.32 15.99 18.52 5.64 43.25 8.74 69.65 8.74 7.03 0 14.01-.24 20.82-.68 7.71-15.58 19.71-28.66 34.98-37.8 12.34-7.39 25.73-11.52 39.17-12.66zm-79.16 62.75c-5.22.25-10.5.38-15.81.38-37.91 0-76.15-6.42-94.97-18.85v43.58c0 4.12 7.83 10.67 25.32 15.99 18.52 5.64 43.25 8.74 69.65 8.74 4.58 0 9.14-.11 13.66-.29-3.34-14.1-3.29-28.89.34-43.35.53-2.1 1.15-4.16 1.81-6.2zm-85.4-81.83c18.56 5.65 43.27 8.76 69.59 8.76s51.04-3.11 69.59-8.76c17.53-5.33 25.38-11.87 25.38-15.97s-7.85-10.64-25.38-15.97c-18.56-5.65-43.27-8.76-69.59-8.76s-51.04 3.11-69.59 8.76c-17.53 5.33-25.38 11.87-25.38 15.97s7.85 10.63 25.38 15.97zm124.12 188.16c-12.04-7.45-22.53-17.8-30.29-30.76a93.075 93.075 0 0 1-6.9-14.17c-5.71.29-11.52.45-17.34.45-37.91 0-76.15-6.42-94.97-18.85v43.58c0 4.12 7.83 10.67 25.32 15.99 18.52 5.64 43.25 8.74 69.65 8.74 19.75-.01 38.56-1.74 54.53-4.98zm89.22-9.49c37.67-22.54 49.98-71.54 27.43-109.21-14.9-24.89-41.35-38.71-68.45-38.71-13.91 0-27.98 3.64-40.76 11.28-18.25 10.92-31.15 28.3-36.33 48.92-5.18 20.63-2.02 42.04 8.9 60.29 14.9 24.89 41.35 38.71 68.45 38.71 13.91 0 27.98-3.63 40.76-11.28zm-5.66 16.25 10.68 20.83 22.29-12.87-12.96-19.44a94.641 94.641 0 0 1-8.19 5.53c-3.85 2.3-7.8 4.27-11.82 5.95zm69.22 62.3-29.57-44.33-23.49 13.56 24.62 48.02c3.67 7.16 8.89 10.98 15.09 11.06 6.04.06 12.15-3.63 15.18-9.22 3.15-5.82 2.51-12.6-1.83-19.09zm-78.86-170.11-33.75 33.75-17.42-17.42c-2.34-2.34-6.14-2.34-8.49 0-2.34 2.34-2.34 6.14 0 8.49l21.67 21.67a5.987 5.987 0 0 0 8.48 0l38-38a6 6 0 0 0 0-8.48c-2.35-2.35-6.15-2.35-8.49-.01z" fill="#bb0b0b" opacity="1" data-original="#000000" class=""></path></g></svg>