<svg xmlns="http://www.w3.org/2000/svg" version="1.1" xmlns:xlink="http://www.w3.org/1999/xlink" xmlns:svgjs="http://svgjs.com/svgjs" width="512" height="512" x="0" y="0" viewBox="0 0 512 512" style="enable-background:new 0 0 512 512" xml:space="preserve" class=""><g><path d="m38.423 340.487c1.562 4.133-.521 8.75-4.654 10.312-.932.352-1.888.519-2.828.519-3.23 0-6.273-1.971-7.484-5.173-17.686-46.777-20.32-97.198-7.617-145.813 12.966-49.624 40.92-93.003 80.842-125.448 25.164-20.451 54.247-35.597 85.165-44.493l-11.916-4.228c-4.163-1.478-6.341-6.051-4.863-10.215 1.477-4.164 6.05-6.342 10.215-4.864l38.013 13.489c2.395.85 4.243 2.787 4.98 5.219s.274 5.069-1.245 7.106l-24.529 32.858c-1.571 2.104-3.979 3.215-6.417 3.215-1.665 0-3.344-.518-4.78-1.59-3.54-2.643-4.268-7.656-1.625-11.196l11.819-15.833c-30.801 8.052-59.819 22.706-84.725 42.947-75.072 61.013-102.54 162.761-68.351 253.188zm394.464 61.617c-3.417-2.802-8.456-2.305-11.259 1.112-9.543 11.635-20.353 22.387-32.128 31.957-90.167 73.279-218.344 65.858-299.18-14.746l16.397 3.028c4.342.8 8.518-2.071 9.319-6.415.802-4.345-2.069-8.518-6.415-9.32l-39.664-7.324c-2.497-.458-5.067.292-6.923 2.03-1.854 1.738-2.772 4.253-2.474 6.776l4.813 40.721c.48 4.069 3.936 7.062 7.935 7.062.312 0 .63-.018.949-.056 4.388-.519 7.523-4.496 7.005-8.884l-1.887-15.967c39.608 39.244 91.293 63.332 147.451 68.343 7.246.646 14.466.967 21.66.967 54.978 0 107.957-18.731 151.104-53.798 12.607-10.246 24.184-21.762 34.407-34.227 2.804-3.416 2.306-8.457-1.11-11.259zm69.2-90.168c-2.868-3.362-7.918-3.764-11.278-.896l-9.663 8.241c7.892-31.821 9.261-65.136 3.896-97.528-6.774-40.897-24.255-79.617-50.55-111.972-37.11-45.661-89.512-76.029-147.552-85.513-4.363-.708-8.472 2.245-9.186 6.605-.712 4.36 2.245 8.473 6.605 9.185 54.17 8.851 103.078 37.196 137.716 79.813 46.166 56.805 61.478 130.852 42.202 200.763l-7.807-18.165c-1.744-4.059-6.446-5.938-10.509-4.19-4.059 1.745-5.936 6.449-4.19 10.509l16.191 37.672c1.003 2.334 3.057 4.054 5.531 4.631.603.141 1.212.209 1.818.209 1.883 0 3.729-.666 5.191-1.913l30.688-26.175c3.363-2.865 3.764-7.915.897-11.276zm-283.66-217.933c1.188-3.089 4.156-5.126 7.466-5.126h44.486c3.31 0 6.277 2.038 7.466 5.126l8.993 23.367c12.48 3.35 24.436 8.306 35.645 14.776l22.897-10.169c3.026-1.343 6.563-.685 8.904 1.655l31.456 31.458c2.34 2.34 2.997 5.879 1.654 8.904l-10.174 22.904c6.471 11.21 11.426 23.162 14.774 35.633l23.373 8.997c3.088 1.189 5.126 4.157 5.126 7.466v44.486c0 3.31-2.038 6.277-5.126 7.466l-23.366 8.994c-3.351 12.48-8.307 24.436-14.777 35.645l10.17 22.896c1.343 3.024.686 6.564-1.655 8.904l-31.457 31.456c-2.341 2.34-5.879 2.996-8.903 1.655l-22.905-10.173c-11.208 6.469-23.16 11.425-35.633 14.773l-8.997 23.373c-1.188 3.088-4.156 5.126-7.466 5.126h-44.486c-3.31 0-6.277-2.038-7.466-5.126l-8.993-23.366c-12.479-3.35-24.436-8.306-35.645-14.776l-22.896 10.169c-3.025 1.343-6.563.685-8.904-1.655l-31.457-31.458c-2.34-2.34-2.997-5.879-1.654-8.904l10.174-22.904c-6.471-11.21-11.426-23.162-14.774-35.633l-23.372-8.997c-3.088-1.189-5.126-4.157-5.126-7.466v-44.485c0-3.31 2.038-6.277 5.126-7.466l23.372-8.997c3.349-12.471 8.304-24.423 14.774-35.633l-10.174-22.904c-1.343-3.025-.686-6.564 1.655-8.904l31.458-31.457c2.339-2.341 5.878-2.998 8.903-1.655l22.902 10.171c11.207-6.47 23.161-11.425 35.637-14.774zm-1.165 37.891c-13.689 3.257-26.722 8.66-38.733 16.057-2.248 1.384-5.033 1.57-7.442.5l-21.668-9.623-23.689 23.689 9.625 21.669c1.07 2.411.884 5.195-.499 7.442-7.399 12.017-12.802 25.047-16.059 38.731-.61 2.566-2.446 4.667-4.908 5.614l-22.11 8.511v33.5l22.11 8.511c2.462.948 4.298 3.048 4.908 5.614 3.257 13.685 8.659 26.716 16.059 38.731 1.383 2.247 1.569 5.031.499 7.442l-9.625 21.669 23.688 23.689 21.662-9.621c2.409-1.07 5.194-.884 7.442.5 12.014 7.398 25.048 12.802 38.741 16.06 2.566.611 4.667 2.447 5.614 4.909l8.508 22.104h33.5l8.512-22.111c.947-2.461 3.048-4.298 5.613-4.909 13.687-3.257 26.717-8.66 38.731-16.058 2.246-1.383 5.032-1.569 7.441-.5l21.671 9.625 23.688-23.688-9.621-21.662c-1.07-2.411-.884-5.196.5-7.442 7.397-12.012 12.801-25.046 16.061-38.741.61-2.566 2.446-4.667 4.908-5.614l22.104-8.508v-33.5l-22.11-8.511c-2.462-.947-4.298-3.047-4.908-5.613-3.258-13.684-8.66-26.715-16.06-38.731-1.383-2.247-1.569-5.03-.499-7.442l9.625-21.67-23.688-23.689-21.663 9.621c-2.409 1.069-5.194.884-7.442-.5-12.013-7.398-25.047-12.801-38.741-16.06-2.566-.611-4.667-2.447-5.614-4.909l-8.508-22.104h-33.5l-8.51 22.108c-.946 2.463-3.047 4.299-5.613 4.91zm30.874 24.567c57.772 0 104.773 47.001 104.773 104.774 0 57.772-47.001 104.774-104.773 104.774s-104.774-47.001-104.774-104.774c-.001-57.773 47.001-104.774 104.774-104.774zm-88.775 104.774c0 48.95 39.824 88.774 88.774 88.774s88.773-39.824 88.773-88.774-39.823-88.774-88.773-88.774-88.774 39.824-88.774 88.774zm76.719 44.994c.693.186 1.39.274 2.075.274 3.532 0 6.765-2.357 7.723-5.932l19.971-74.532c1.144-4.268-1.39-8.654-5.657-9.798-4.262-1.142-8.654 1.39-9.798 5.657l-19.971 74.531c-1.144 4.27 1.389 8.656 5.657 9.8zm-55.174-38.876 32.541 27.421c1.501 1.265 3.331 1.882 5.151 1.882 2.277 0 4.539-.967 6.121-2.845 2.848-3.379 2.417-8.426-.962-11.273l-25.281-21.304 25.281-21.303c3.379-2.847 3.81-7.894.962-11.273s-7.895-3.81-11.272-.962l-32.541 27.421c-1.804 1.52-2.845 3.759-2.845 6.118s1.042 4.598 2.845 6.118zm90.647 26.459c1.582 1.878 3.844 2.845 6.121 2.845 1.82 0 3.65-.618 5.151-1.882l32.54-27.421c1.804-1.52 2.845-3.759 2.845-6.118s-1.041-4.598-2.845-6.118l-32.54-27.421c-3.379-2.847-8.426-2.416-11.272.962-2.848 3.379-2.417 8.426.962 11.273l25.28 21.303-25.28 21.304c-3.379 2.847-3.81 7.894-.962 11.273z" fill="#bb0b0b" data-original="#000000" class=""></path></g></svg>