<svg xmlns="http://www.w3.org/2000/svg" version="1.1" xmlns:xlink="http://www.w3.org/1999/xlink" xmlns:svgjs="http://svgjs.com/svgjs" width="512" height="512" x="0" y="0" viewBox="0 0 512 512" style="enable-background:new 0 0 512 512" xml:space="preserve" class=""><g><path d="M430.655 85.796C384.003 39.144 321.976 13.451 256 13.451S127.997 39.144 81.345 85.796C34.692 132.448 9 194.475 9 260.451c0 54.967 17.67 106.994 51.101 150.455 32.372 42.084 78.201 73.117 129.045 87.38a7 7 0 0 0 8.629-4.845l44.882-159.661a6.998 6.998 0 0 0-4.848-8.634c-28.849-8.093-48.997-34.696-48.997-64.695 0-37.047 30.14-67.187 67.187-67.187s67.187 30.14 67.187 67.187c0 29.999-20.148 56.602-48.997 64.695a6.998 6.998 0 0 0-4.848 8.633l44.882 159.662a7.003 7.003 0 0 0 8.63 4.845c50.845-14.264 96.674-45.296 129.046-87.38C485.33 367.445 503 315.418 503 260.451c0-65.976-25.692-128.003-72.345-174.655zM284.632 336.44c31.266-11.791 52.555-42.098 52.555-75.989 0-44.767-36.42-81.187-81.187-81.187s-81.187 36.42-81.187 81.187c0 33.891 21.289 64.198 52.555 75.989l-8.813 31.354a41.665 41.665 0 0 0-20.707-6.257c-11.172-.33-21.752 3.929-29.825 12.001a3.021 3.021 0 0 1-2.146.889 3.024 3.024 0 0 1-2.146-.889l-21.604-21.604a3.037 3.037 0 0 1 0-4.292c11.881-11.881 15.261-28.919 8.821-44.465-6.439-15.545-20.876-25.202-37.678-25.202a3.038 3.038 0 0 1-3.035-3.035v-30.551a3.038 3.038 0 0 1 3.035-3.035c16.801 0 31.239-9.657 37.678-25.202 6.439-15.546 3.06-32.583-8.821-44.465a3.04 3.04 0 0 1 0-4.293l21.604-21.604c.592-.592 1.369-.888 2.146-.888s1.555.296 2.146.888c11.881 11.88 28.919 15.26 44.465 8.822 15.545-6.439 25.202-20.876 25.202-37.678a3.038 3.038 0 0 1 3.035-3.035h30.552a3.038 3.038 0 0 1 3.035 3.035c0 16.802 9.657 31.239 25.202 37.678s32.584 3.058 44.464-8.821a3.04 3.04 0 0 1 4.293 0l21.604 21.604a3.038 3.038 0 0 1 0 4.293c-11.881 11.881-15.261 28.919-8.822 44.465 6.439 15.545 20.876 25.202 37.678 25.202a3.04 3.04 0 0 1 3.035 3.035v30.551a3.038 3.038 0 0 1-3.035 3.035c-16.802 0-31.239 9.657-37.678 25.202-6.439 15.546-3.059 32.584 8.822 44.465a3.037 3.037 0 0 1 0 4.292l-21.604 21.604a3.038 3.038 0 0 1-4.293 0c-8.057-8.057-18.63-12.304-29.785-11.982a41.72 41.72 0 0 0-20.739 6.262zm41.147 146.375-28.294-100.653a27.649 27.649 0 0 1 17.121-6.612c5.138-.149 12.677 1.094 19.472 7.887 6.642 6.643 17.45 6.643 24.092 0l21.604-21.604c6.642-6.642 6.642-17.449 0-24.091-9.324-9.325-9.103-21.202-5.787-29.208 3.316-8.005 11.558-16.56 24.744-16.56 9.393 0 17.035-7.642 17.035-17.035v-30.551c0-9.393-7.642-17.035-17.035-17.035-13.186 0-21.428-8.554-24.744-16.56s-3.538-19.883 5.787-29.208c6.642-6.641 6.642-17.449 0-24.092l-21.604-21.604c-6.643-6.641-17.449-6.641-24.092 0-9.325 9.324-21.201 9.104-29.208 5.787-8.005-3.316-16.56-11.558-16.56-24.744 0-9.393-7.642-17.035-17.035-17.035h-30.552c-9.393 0-17.035 7.642-17.035 17.035 0 13.186-8.554 21.428-16.56 24.744-8.007 3.315-19.883 3.537-29.208-5.787-6.642-6.643-17.45-6.644-24.091 0l-21.604 21.604c-6.641 6.643-6.641 17.45 0 24.091 9.324 9.325 9.103 21.202 5.787 29.208-3.316 8.005-11.558 16.559-24.744 16.559-9.393 0-17.035 7.642-17.035 17.035v30.551c0 9.393 7.642 17.035 17.035 17.035 13.186 0 21.427 8.554 24.744 16.56 3.316 8.006 3.538 19.883-5.787 29.208-6.642 6.642-6.642 17.449 0 24.091l21.604 21.604c3.217 3.218 7.495 4.99 12.046 4.99s8.829-1.772 12.046-4.989c6.813-6.812 14.364-8.057 19.507-7.907a27.598 27.598 0 0 1 17.092 6.609l-28.3 100.677C89.771 452.58 23 362.138 23 260.451c0-128.477 104.523-233 233-233s233 104.523 233 233c0 101.687-66.771 192.129-163.221 222.364z" fill="#bb0b0b" data-original="#000000" opacity="1" class=""></path></g></svg>