<svg xmlns="http://www.w3.org/2000/svg" version="1.1" xmlns:xlink="http://www.w3.org/1999/xlink" xmlns:svgjs="http://svgjs.com/svgjs" width="512" height="512" x="0" y="0" viewBox="0 0 512 512" style="enable-background:new 0 0 512 512" xml:space="preserve" class=""><g><path d="M245.25 452.267H59.733V85.333H128V102.4a8.533 8.533 0 0 0 8.533 8.533h136.533a8.533 8.533 0 0 0 8.533-8.533V85.333h68.267v187.733a8.533 8.533 0 0 0 17.066 0V76.8a8.533 8.533 0 0 0-8.533-8.533h-76.8V51.2a8.533 8.533 0 0 0-8.533-8.533h-25.6C247.467 19.142 228.325 0 204.8 0s-42.667 19.142-42.667 42.667h-25.6A8.533 8.533 0 0 0 128 51.2v17.067H51.2a8.533 8.533 0 0 0-8.533 8.533v384a8.533 8.533 0 0 0 8.533 8.533h194.05a8.533 8.533 0 0 0 0-17.066zm-40.45-435.2c14.117 0 25.6 11.483 25.6 25.6h-51.2c0-14.117 11.483-25.6 25.6-25.6zm-59.733 42.666h119.467v34.133H145.067V59.733z" fill="#bb0b0b" data-original="#000000" class="" opacity="1"></path><path d="M358.4 290.133c-61.171 0-110.933 49.762-110.933 110.933S297.229 512 358.4 512s110.933-49.762 110.933-110.933S419.571 290.133 358.4 290.133zm0 204.8c-51.758 0-93.867-42.108-93.867-93.867 0-51.758 42.108-93.867 93.867-93.867s93.867 42.108 93.867 93.867c0 51.759-42.109 93.867-93.867 93.867zM102.4 349.867a8.533 8.533 0 0 0 0 17.066h126.804a8.533 8.533 0 0 0 0-17.066H102.4zM273.15 298.667a8.533 8.533 0 0 0-8.533-8.533H102.4a8.533 8.533 0 0 0 0 17.066h162.217a8.534 8.534 0 0 0 8.533-8.533zM315.733 238.933a8.533 8.533 0 0 0-8.533-8.533H102.4a8.533 8.533 0 0 0 0 17.066h204.8a8.532 8.532 0 0 0 8.533-8.533zM307.2 170.667H102.4a8.533 8.533 0 0 0 0 17.066h204.8a8.533 8.533 0 0 0 0-17.066z" fill="#bb0b0b" data-original="#000000" class="" opacity="1"></path><path d="M424.167 360.9a8.531 8.531 0 0 0-12.067 0l-70.767 70.767-36.633-36.634a8.531 8.531 0 0 0-12.067 0 8.531 8.531 0 0 0 0 12.067l42.667 42.667c1.667 1.667 3.85 2.5 6.033 2.5s4.367-.833 6.033-2.5l76.8-76.8a8.53 8.53 0 0 0 .001-12.067z" fill="#bb0b0b" data-original="#000000" class="" opacity="1"></path></g></svg>