<svg xmlns="http://www.w3.org/2000/svg" version="1.1" xmlns:xlink="http://www.w3.org/1999/xlink" xmlns:svgjs="http://svgjs.com/svgjs" width="512" height="512" x="0" y="0" viewBox="0 0 28 28" style="enable-background:new 0 0 512 512" xml:space="preserve" class=""><g><g data-name="Layer 2"><path d="M10.07 10.283a.4.4 0 0 0 .567 0L11.97 8.95a.4.4 0 0 0-.567-.566l-1.049 1.051-.384-.385a.4.4 0 0 0-.567.566ZM13.687 9.733h4.626a.4.4 0 1 0 0-.8h-4.626a.4.4 0 1 0 0 .8ZM10.07 13.283a.4.4 0 0 0 .567 0l1.333-1.333a.4.4 0 0 0-.567-.566l-1.049 1.051-.384-.385a.4.4 0 0 0-.567.566ZM13.687 12.733h4.626a.4.4 0 1 0 0-.8h-4.626a.4.4 0 1 0 0 .8ZM10.07 16.283a.4.4 0 0 0 .567 0l1.333-1.333a.4.4 0 0 0-.567-.566l-1.049 1.051-.384-.385a.4.4 0 0 0-.567.566ZM13.687 15.733h4.626a.4.4 0 1 0 0-.8h-4.626a.4.4 0 1 0 0 .8Z" fill="#bb0b0b" data-original="#000000" opacity="1" class=""></path><path d="M26 22.6h-.6V10.275A1.678 1.678 0 0 0 23.725 8.6H21.4V6a.4.4 0 0 0-.117-.283l-4-4A.4.4 0 0 0 17 1.6H7.865A1.267 1.267 0 0 0 6.6 2.865V8.6H4.275A1.678 1.678 0 0 0 2.6 10.275V22.6H2a.4.4 0 0 0-.4.4v1.408A2.07 2.07 0 0 0 3.736 26.4h20.528a2.07 2.07 0 0 0 2.136-1.992V23a.4.4 0 0 0-.4-.4ZM23.725 9.4a.877.877 0 0 1 .875.875V22.6h-.9V10.7a.4.4 0 0 0-.4-.4h-1.9v-.9Zm-7 13.2a.4.4 0 0 0-.352.209l-.432.791h-3.885l-.432-.791a.4.4 0 0 0-.352-.209H5.1V11.1h1.5V19a1.268 1.268 0 0 0 1.265 1.266h12.27A1.268 1.268 0 0 0 21.4 19v-7.9h1.5v11.5ZM17.4 2.967 20.033 5.6H17.4Zm-10-.1a.465.465 0 0 1 .465-.467H16.6V6a.4.4 0 0 0 .4.4h3.6V19a.465.465 0 0 1-.465.465H7.865A.465.465 0 0 1 7.4 19Zm-4 7.41a.877.877 0 0 1 .875-.877H6.6v.9H4.7a.4.4 0 0 0-.4.4v11.9h-.9Zm22.2 14.131a1.272 1.272 0 0 1-1.336 1.192H3.736A1.272 1.272 0 0 1 2.4 24.408V23.4h8.635l.432.791a.4.4 0 0 0 .351.209h4.364a.4.4 0 0 0 .351-.209l.432-.791H25.6Z" fill="#bb0b0b" data-original="#000000" opacity="1" class=""></path></g></g></svg>