<svg xmlns="http://www.w3.org/2000/svg" version="1.1" xmlns:xlink="http://www.w3.org/1999/xlink" xmlns:svgjs="http://svgjs.com/svgjs" width="512" height="512" x="0" y="0" viewBox="0 0 512 512" style="enable-background:new 0 0 512 512" xml:space="preserve" class=""><g><path d="M422.782 161.813h-37.23v-39.665c0-22.73-8.552-44.383-24.081-60.968a7.646 7.646 0 0 0-10.809-.355 7.646 7.646 0 0 0-.355 10.808c12.865 13.741 19.951 31.681 19.951 50.515v39.665H214.646c-49.195 0-89.218 40.024-89.218 89.219v27.358H113.45a17.73 17.73 0 0 0-12.617 5.226l-40.588 40.588v-40.83c0-6.255-3.349-12.133-8.742-15.339-22.334-13.279-36.209-37.637-36.209-63.568v-82.319c0-40.762 33.162-73.924 73.924-73.924h207.116c9.554 0 18.847 1.793 27.621 5.331a7.647 7.647 0 0 0 5.719-14.185c-10.599-4.274-21.817-6.44-33.34-6.44H89.218C40.023 32.93 0 72.953 0 122.148v82.319c0 31.298 16.74 60.693 43.687 76.714a2.572 2.572 0 0 1 1.264 2.194v44.522a13.725 13.725 0 0 0 8.497 12.717c3.445 1.656 10.479 1.417 15.001-2.983l43.198-43.199a2.532 2.532 0 0 1 1.803-.747h11.978v39.665c0 12.042 2.36 23.727 7.014 34.731a7.648 7.648 0 0 0 14.087-5.958c-3.852-9.108-5.806-18.788-5.806-28.772v-82.318c0-40.763 33.162-73.925 73.924-73.925h208.135c40.762 0 73.924 33.162 73.924 73.925v82.318c0 26.032-13.311 49.66-35.608 63.206-5.255 3.193-8.52 9.02-8.52 15.206v49.876L403.44 412.5a17.727 17.727 0 0 0-12.617-5.226H214.646c-18.551 0-36.29-6.9-49.951-19.428a7.647 7.647 0 1 0-10.338 11.272c16.489 15.123 37.899 23.451 60.288 23.451h176.176c.671 0 1.328.272 1.802.747l51.749 51.749c3.996 3.071 7.902 5.445 15 2.983a13.725 13.725 0 0 0 8.497-12.717v-53.569c0-.879.448-1.698 1.168-2.135C495.94 393.284 512 364.77 512 333.35v-82.318c0-49.195-40.023-89.219-89.218-89.219z" fill="#bb0b0b" data-original="#000000" opacity="1" class=""></path><path d="M297.13 344.186c-4.484-6.336-12.653-10.584-21.97-10.584-14.127 0-25.619 9.765-25.619 21.768 0 12.002 11.493 21.767 25.619 21.767 12.396 0 22.761-7.519 25.116-17.471a42.585 42.585 0 0 0 24.014-26.195c11.168-2.543 19.531-12.547 19.531-24.475v-27.575c0-11.515-7.794-21.237-18.382-24.185-2.492-15.359-10.04-29.452-21.611-40.103-12.911-11.885-29.691-18.43-47.249-18.43-34.551 0-63.45 24.887-68.867 58.534-10.584 2.95-18.375 12.671-18.375 24.183v27.575c0 13.844 11.263 25.107 25.107 25.107s25.107-11.263 25.107-25.107V281.42c0-10.795-6.849-20.02-16.429-23.56 4.958-25.335 27.105-43.863 53.457-43.863 26.018 0 48.444 18.852 53.437 43.871-9.57 3.545-16.409 12.764-16.409 23.552v27.575c0 10.204 6.122 19 14.884 22.923a27.305 27.305 0 0 1-11.361 12.268zm-21.97 17.658c-6.085 0-10.325-3.411-10.325-6.473s4.24-6.474 10.325-6.474 10.326 3.412 10.326 6.474-4.242 6.473-10.326 6.473zm-70.903-52.847c0 5.411-4.402 9.813-9.813 9.813s-9.813-4.402-9.813-9.813v-27.575c0-5.411 4.402-9.813 9.813-9.813s9.813 4.402 9.813 9.813zm104.644-27.575c0-5.411 4.402-9.813 9.813-9.813s9.813 4.402 9.813 9.813v27.575c0 5.411-4.402 9.813-9.813 9.813s-9.813-4.402-9.813-9.813zM363.692 242.043h60.911a7.647 7.647 0 1 0 0-15.294h-60.911a7.647 7.647 0 1 0 0 15.294zM363.692 276.276h46.967a7.647 7.647 0 1 0 0-15.294h-46.967a7.647 7.647 0 1 0 0 15.294z" fill="#bb0b0b" data-original="#000000" opacity="1" class=""></path><circle cx="75.233" cy="132.953" r="11.401" fill="#bb0b0b" data-original="#000000" opacity="1" class=""></circle><circle cx="109.763" cy="132.953" r="11.401" fill="#bb0b0b" data-original="#000000" opacity="1" class=""></circle><circle cx="144.09" cy="132.953" r="11.401" fill="#bb0b0b" data-original="#000000" opacity="1" class=""></circle></g></svg>