<svg xmlns="http://www.w3.org/2000/svg" version="1.1" xmlns:xlink="http://www.w3.org/1999/xlink" xmlns:svgjs="http://svgjs.com/svgjs" width="512" height="512" x="0" y="0" viewBox="0 0 512 512" style="enable-background:new 0 0 512 512" xml:space="preserve" class=""><g><path d="M255.996 240.381v96.04M85.096 336.421v-36.053c0-10.223 8.287-18.51 18.51-18.51h304.788c10.223 0 18.51 8.287 18.51 18.51v36.053" style="stroke-width:15;stroke-linecap:round;stroke-linejoin:round;stroke-miterlimit:10;" fill="none" stroke="#bb0b0b" stroke-width="15" stroke-linecap="round" stroke-linejoin="round" stroke-miterlimit="10" data-original="#000000" opacity="1"></path><circle cx="256" cy="369.27" r="32.849" style="stroke-width:15;stroke-linecap:round;stroke-linejoin:round;stroke-miterlimit:10;" fill="none" stroke="#bb0b0b" stroke-width="15" stroke-linecap="round" stroke-linejoin="round" stroke-miterlimit="10" data-original="#000000" opacity="1"></circle><path d="M255.248 402.125c-24.101.403-43.203 20.568-43.203 44.672v42.652c0 8.312 6.738 15.051 15.051 15.051h57.809c8.312 0 15.051-6.738 15.051-15.051v-43.376c-.001-24.526-20.088-44.36-44.708-43.948z" style="stroke-width:15;stroke-linecap:round;stroke-linejoin:round;stroke-miterlimit:10;" fill="none" stroke="#bb0b0b" stroke-width="15" stroke-linecap="round" stroke-linejoin="round" stroke-miterlimit="10" data-original="#000000" opacity="1"></path><circle cx="426.904" cy="369.27" r="32.849" style="stroke-width:15;stroke-linecap:round;stroke-linejoin:round;stroke-miterlimit:10;" fill="none" stroke="#bb0b0b" stroke-width="15" stroke-linecap="round" stroke-linejoin="round" stroke-miterlimit="10" data-original="#000000" opacity="1"></circle><path d="M382.949 460.086v29.364c0 8.312 6.738 15.051 15.051 15.051h57.809c8.312 0 15.051-6.738 15.051-15.051v-43.376c0-24.526-20.087-44.36-44.707-43.949-16.209.271-30.157 9.481-37.554 22.816" style="stroke-width:15;stroke-linecap:round;stroke-linejoin:round;stroke-miterlimit:10;" fill="none" stroke="#bb0b0b" stroke-width="15" stroke-linecap="round" stroke-linejoin="round" stroke-miterlimit="10" data-original="#000000" opacity="1"></path><circle cx="85.096" cy="369.27" r="32.849" style="stroke-width:15;stroke-linecap:round;stroke-linejoin:round;stroke-miterlimit:10;" fill="none" stroke="#bb0b0b" stroke-width="15" stroke-linecap="round" stroke-linejoin="round" stroke-miterlimit="10" data-original="#000000" opacity="1"></circle><path d="M129.051 477.571v11.878c0 8.312-6.738 15.051-15.051 15.051H56.192c-8.312 0-15.051-6.738-15.051-15.051v-43.376c0-24.526 20.087-44.36 44.707-43.949 22.026.368 39.878 17.243 42.788 38.546M326.198 217.122c-19.526 14.754-43.842 23.503-70.202 23.503-64.376 0-116.563-52.187-116.563-116.563S191.621 7.5 255.996 7.5s116.563 52.187 116.563 116.563c0 25.039-7.895 48.234-21.331 67.231" style="stroke-width:15;stroke-linecap:round;stroke-linejoin:round;stroke-miterlimit:10;" fill="none" stroke="#bb0b0b" stroke-width="15" stroke-linecap="round" stroke-linejoin="round" stroke-miterlimit="10" data-original="#000000" opacity="1"></path><path d="M256 118.457v78.33a9.192 9.192 0 0 1-4.186-1.011l-55.816-28.455c-3.238-1.649-5.291-5.066-5.291-8.803V91.137c0-1.885.522-3.686 1.455-5.225L256 118.457zM321.291 91.137v67.382c0 3.737-2.05 7.154-5.291 8.803l-55.813 28.455a9.195 9.195 0 0 1-4.186 1.011v-78.33l63.836-32.545a10.073 10.073 0 0 1 1.454 5.224z" style="stroke-width:15;stroke-linecap:round;stroke-linejoin:round;stroke-miterlimit:10;" fill="none" stroke="#bb0b0b" stroke-width="15" stroke-linecap="round" stroke-linejoin="round" stroke-miterlimit="10" data-original="#000000" opacity="1"></path><path d="M319.836 85.912 256 118.457l-63.839-32.545a9.606 9.606 0 0 1 3.658-3.486l55.813-29.984c.015-.006.028-.016.043-.022a9.183 9.183 0 0 1 8.689.022l55.813 29.984a9.58 9.58 0 0 1 3.659 3.486z" style="stroke-width:15;stroke-linecap:round;stroke-linejoin:round;stroke-miterlimit:10;" fill="none" stroke="#bb0b0b" stroke-width="15" stroke-linecap="round" stroke-linejoin="round" stroke-miterlimit="10" data-original="#000000" opacity="1"></path></g></svg>