<svg xmlns="http://www.w3.org/2000/svg" version="1.1" xmlns:xlink="http://www.w3.org/1999/xlink" width="512" height="512" x="0" y="0" viewBox="0 0 66 66" style="enable-background:new 0 0 512 512" xml:space="preserve" class=""><g><path d="M55.8 44.1c-1.6-.6-3.4-.4-5 .6l-9.6 5.8c-.4-.3-.8-.6-1.2-.7l-14.5-5.2c-1.1-.4-2.3-.4-3.3.1 0 0-.1 0-.1.1l-5.8 3.5V48c0-1.1-.9-2-2-2H9.5c-1.1 0-2 .9-2 2v15c0 1.1.9 2 2 2h4.7c1.1 0 2-.9 2-2v-.5c2.2-1.2 3.1-2.3 4.6-2.1l16 3.5c1.3.4 2.7.1 3.9-.7L57 50.3c2.2-1.5 2-5-1.2-6.2zM9.5 63V48h4.7v15zm46.3-14.3C39.2 61.3 39.6 62.6 37.3 61.9l-16.1-3.5h-.1c-2.3-.4-3.9 1.2-4.9 1.7v-9.6l6.8-4.1c.6-.2 1.2-.2 1.8 0l14.5 5.2c1.3.5 1.8 2.1 1 3.2-.6.8-1.6 1.1-2.6.7l-8.6-3.3c-.5-.2-1.1.1-1.3.6s.1 1.1.6 1.3l8.6 3.3c1.8.8 3.8.2 4.9-1.3.8-1.1 1.1-2.4.5-3.9l9.5-5.7c1-.6 2.2-.8 3.3-.4 1.5.5 1.6 1.9.6 2.6z" fill="#bb0b0b" opacity="1" data-original="#000000" class=""></path><path d="M31.3 34.1c.9.6 1.5 1.6 1.7 2.6-.9.5-1.4 1.5-1.4 2.5 0 1.4 1 2.6 2.4 2.9l.4 3.2c.1.5.5.9 1 .9h7.8c.5 0 .9-.4 1-.9l.4-3.3c1.2-.4 2.2-1.5 2.2-2.8 0-1.1-.6-2-1.4-2.5.1-1 .7-2 1.7-2.7 3.7-2.6 6-6.8 6-11.3 0-7.8-6.5-14.1-14.4-13.7-7.1.3-13 6.4-13.1 13.5-.3 4.7 1.9 9 5.7 11.6zm4.9 10.2-.2-2h6.5l-.2 2zm7.4-4h-9.1c-.5 0-1-.4-1-1 0-.5.4-1 1-1h9.1c.5 0 1 .4 1 1 0 .5-.4 1-1 1zm-5.1-29.2c6.7-.3 12.3 5.1 12.3 11.7 0 3.9-1.9 7.5-5.1 9.7-1.4.9-2.3 2.3-2.5 3.9H35c-.2-1.5-1.1-2.9-2.5-3.9-3.2-2.2-5.1-5.9-5.1-9.8.1-6.1 5.1-11.3 11.1-11.6z" fill="#bb0b0b" opacity="1" data-original="#000000" class=""></path><path d="M38.8 16.1c3.8-.2 7 2.9 7 6.7 0 .6.4 1 1 1s1-.4 1-1c0-4.9-4.1-8.9-9.1-8.7-.6 0-1 .5-1 1 0 .6.5 1 1.1 1zM39.1 6.9c.6 0 1-.4 1-1V2c0-.6-.4-1-1-1s-1 .4-1 1v3.9c0 .6.4 1 1 1zM32 7.4c.2.4.5.6.9.6.1 0 .3 0 .4-.1.5-.2.8-.8.5-1.3L32.3 3c-.2-.5-.8-.8-1.3-.5-.5.2-.8.8-.5 1.3zM27 11.2c.4.4 1 .4 1.4 0s.4-1 0-1.4L25.6 7c-.4-.4-1-.4-1.4 0s-.4 1 0 1.4zM51.1 11.5l2.8-2.8c.4-.4.4-1 0-1.4s-1-.4-1.4 0L49.7 10c-.4.4-.4 1 0 1.4.3.4 1 .4 1.4.1zM44.8 8.1c.1.1.3.1.4.1.4 0 .8-.2.9-.6L47.6 4c.2-.5 0-1.1-.5-1.3s-1.1 0-1.3.5l-1.5 3.6c-.2.5 0 1.1.5 1.3z" fill="#bb0b0b" opacity="1" data-original="#000000" class=""></path></g></svg>