<svg xmlns="http://www.w3.org/2000/svg" version="1.1" xmlns:xlink="http://www.w3.org/1999/xlink" xmlns:svgjs="http://svgjs.com/svgjs" width="512" height="512" x="0" y="0" viewBox="0 0 64 64" style="enable-background:new 0 0 512 512" xml:space="preserve" class=""><g><path d="M52,40.05V16.78A5.78,5.78,0,0,0,46.22,11H7.78A5.78,5.78,0,0,0,2,16.78V49.22A5.78,5.78,0,0,0,7.78,55h33A11,11,0,1,0,52,40.05ZM7.78,53A3.79,3.79,0,0,1,4,49.22V16.78A3.79,3.79,0,0,1,7.78,13H46.22A3.79,3.79,0,0,1,50,16.78V40.05a11,11,0,0,0-9.81,13ZM51,60a9,9,0,1,1,9-9A9,9,0,0,1,51,60Z" fill="#bb0b0b" data-original="#000000" class=""></path><path d="M47.9,53.57l-2.12-2.63L44.22,52.2,47,55.63a1,1,0,0,0,.69.37h.09a1,1,0,0,0,.65-.24l9.24-8-1.32-1.52Z" fill="#bb0b0b" data-original="#000000" class=""></path><path d="M12,27a4,4,0,0,0,3.86-3H47V22H15.86A4,4,0,1,0,12,27Zm0-6a2,2,0,1,1-2,2A2,2,0,0,1,12,21Z" fill="#bb0b0b" data-original="#000000" class=""></path><path d="M12,37a4,4,0,0,0,3.86-3H43V32H15.86A4,4,0,1,0,12,37Zm0-6a2,2,0,1,1-2,2A2,2,0,0,1,12,31Z" fill="#bb0b0b" data-original="#000000" class=""></path><path d="M12,39a4,4,0,1,0,3.86,5H39V42H15.86A4,4,0,0,0,12,39Zm0,6a2,2,0,1,1,2-2A2,2,0,0,1,12,45Z" fill="#bb0b0b" data-original="#000000" class=""></path></g></svg>