<svg xmlns="http://www.w3.org/2000/svg" version="1.1" xmlns:xlink="http://www.w3.org/1999/xlink" xmlns:svgjs="http://svgjs.com/svgjs" width="512" height="512" x="0" y="0" viewBox="0 0 64 64" style="enable-background:new 0 0 512 512" xml:space="preserve" class=""><g><path d="M28,57H13a7.008,7.008,0,0,1-7-7V9a7.008,7.008,0,0,1,7-7H39a7.008,7.008,0,0,1,7,7V23a1,1,0,0,1-2,0V9a5.006,5.006,0,0,0-5-5H13A5.006,5.006,0,0,0,8,9V50a5.006,5.006,0,0,0,5,5H28a1,1,0,0,1,0,2Z" fill="#bb0b0b" data-original="#000000"></path><path d="M13,16H10a1,1,0,0,1,0-2h3a5.006,5.006,0,0,0,5-5V6a1,1,0,0,1,2,0V9A7.008,7.008,0,0,1,13,16Z" fill="#bb0b0b" data-original="#000000"></path><circle cx="14" cy="24" r="1" fill="#bb0b0b" data-original="#000000"></circle><circle cx="14" cy="33" r="1" fill="#bb0b0b" data-original="#000000"></circle><circle cx="14" cy="42" r="1" fill="#bb0b0b" data-original="#000000"></circle><path d="M35,25H20a1,1,0,0,1,0-2H35a1,1,0,0,1,0,2Z" fill="#bb0b0b" data-original="#000000"></path><path d="M30,34H20a1,1,0,0,1,0-2H30a1,1,0,0,1,0,2Z" fill="#bb0b0b" data-original="#000000"></path><path d="M27,43H20a1,1,0,0,1,0-2h7a1,1,0,0,1,0,2Z" fill="#bb0b0b" data-original="#000000"></path><path d="M57,55H33.226a5.351,5.351,0,0,1-3.852-1.655,4.83,4.83,0,0,1-1.368-3.585,5.022,5.022,0,0,1,1.452-3.292,5.118,5.118,0,0,1,.98-.76A3.074,3.074,0,0,0,32,43.079V38.35A13.6,13.6,0,0,1,36,28.8,12.708,12.708,0,0,1,45,25h.024A12.984,12.984,0,0,1,58,38v5.077A3.067,3.067,0,0,0,59.558,45.7,5,5,0,0,1,57,55ZM45,27a10.718,10.718,0,0,0-7.59,3.22A11.582,11.582,0,0,0,34,38.35v4.729a5.053,5.053,0,0,1-2.537,4.346,3.1,3.1,0,0,0-.591.457A3.023,3.023,0,0,0,30,49.856a2.849,2.849,0,0,0,.817,2.109A3.34,3.34,0,0,0,33.226,53H57a2.994,2.994,0,0,0,3-3,2.979,2.979,0,0,0-1.467-2.58A5.048,5.048,0,0,1,56,43.077V38A10.984,10.984,0,0,0,45.022,27Z" fill="#bb0b0b" data-original="#000000"></path><path d="M53,39a1,1,0,0,1-1-1,6.982,6.982,0,0,0-7-7,1,1,0,0,1,0-2h0a8.983,8.983,0,0,1,9,9A1,1,0,0,1,53,39Z" fill="#bb0b0b" data-original="#000000"></path><path d="M45,62a4,4,0,0,1-4-4V57a1,1,0,0,1,2,0v1a2,2,0,0,0,4,0V57a1,1,0,0,1,2,0v1A4,4,0,0,1,45,62Z" fill="#bb0b0b" data-original="#000000"></path></g></svg>