<svg xmlns="http://www.w3.org/2000/svg" version="1.1" xmlns:xlink="http://www.w3.org/1999/xlink" xmlns:svgjs="http://svgjs.com/svgjs" width="512" height="512" x="0" y="0" viewBox="0 0 512 512" style="enable-background:new 0 0 512 512" xml:space="preserve" class=""><g><path d="M474.132 225.421c-13.698 0-25.264 9.272-28.771 21.868H413.6v-12.246a8 8 0 0 0-5.126-7.466l-20.927-8.055a135.337 135.337 0 0 0-13.244-31.946l9.108-20.507a7.999 7.999 0 0 0-1.654-8.904l-5.396-5.396 42.29-33.475a8 8 0 0 0 3.035-6.272V91.79c12.595-3.507 21.868-15.073 21.868-28.77 0-16.469-13.398-29.868-29.868-29.868-16.469 0-29.867 13.399-29.867 29.868 0 13.698 9.272 25.263 21.867 28.77v17.361l-40.714 32.229-11.847-11.846a8.003 8.003 0 0 0-8.904-1.655l-20.515 9.111a135.427 135.427 0 0 0-31.937-13.241l-8.058-20.933a7.998 7.998 0 0 0-7.466-5.126H264v-15.9c12.595-3.507 21.868-15.073 21.868-28.771 0-16.469-13.398-29.868-29.868-29.868s-29.868 13.399-29.868 29.868c0 13.698 9.272 25.264 21.868 28.771v15.899h-12.246a8 8 0 0 0-7.466 5.126l-8.058 20.934a135.36 135.36 0 0 0-31.937 13.241l-20.515-9.111a8 8 0 0 0-8.904 1.655l-11.846 11.846-40.714-32.229V91.79c12.595-3.507 21.868-15.073 21.868-28.77 0-16.469-13.398-29.868-29.868-29.868S68.448 46.55 68.448 63.02c0 13.698 9.272 25.263 21.868 28.77v21.231a7.998 7.998 0 0 0 3.035 6.272l42.29 33.476-5.396 5.397a8 8 0 0 0-1.655 8.904l9.11 20.513a135.367 135.367 0 0 0-13.242 31.938l-20.931 8.058a8.001 8.001 0 0 0-5.126 7.466v12.245H66.639c-3.507-12.595-15.073-21.868-28.771-21.868C21.399 225.421 8 238.82 8 255.289s13.398 29.868 29.868 29.868c13.698 0 25.264-9.272 28.771-21.868H98.4v12.247a8 8 0 0 0 5.126 7.466l20.927 8.055a135.393 135.393 0 0 0 13.244 31.946l-9.108 20.506a7.999 7.999 0 0 0 1.654 8.904l6.19 6.19-43.083 34.104a8 8 0 0 0-3.035 6.272v21.231c-12.595 3.507-21.868 15.073-21.868 28.77 0 16.469 13.398 29.868 29.868 29.868s29.868-13.399 29.868-29.868c0-13.698-9.272-25.263-21.868-28.77v-17.36l41.508-32.857 11.053 11.053a8 8 0 0 0 8.904 1.655l20.515-9.111a135.375 135.375 0 0 0 31.937 13.24l8.057 20.933a7.998 7.998 0 0 0 7.466 5.126h11.484v17.538c-12.207 3.753-21.106 15.133-21.106 28.554 0 16.469 13.398 29.868 29.868 29.868s29.868-13.399 29.868-29.868c0-13.973-9.647-25.732-22.629-28.976v-17.116h13.008a8 8 0 0 0 7.466-5.126l8.055-20.927a135.383 135.383 0 0 0 31.947-13.243l20.506 9.108a7.999 7.999 0 0 0 8.904-1.654l11.053-11.053 41.508 32.856v17.361c-12.595 3.507-21.867 15.073-21.867 28.77 0 16.469 13.398 29.868 29.867 29.868s29.868-13.399 29.868-29.868c0-13.698-9.272-25.263-21.868-28.77V398.98a7.998 7.998 0 0 0-3.035-6.272l-43.083-34.104 6.19-6.19a7.999 7.999 0 0 0 1.654-8.904l-9.111-20.515a135.382 135.382 0 0 0 13.24-31.937L408.474 283a7.998 7.998 0 0 0 5.126-7.466v-12.246h31.761c3.507 12.595 15.073 21.868 28.771 21.868 16.469 0 29.868-13.398 29.868-29.868s-13.399-29.867-29.868-29.867zM399.818 63.02c0-7.647 6.221-13.868 13.867-13.868s13.868 6.221 13.868 13.868c0 7.646-6.221 13.867-13.868 13.867s-13.867-6.221-13.867-13.867zM242.133 53.019c0-7.647 6.221-13.868 13.868-13.868s13.868 6.221 13.868 13.868c0 7.646-6.221 13.868-13.868 13.868s-13.868-6.221-13.868-13.868zM84.448 63.02c0-7.647 6.221-13.868 13.868-13.868s13.868 6.221 13.868 13.868c0 7.646-6.221 13.867-13.868 13.867S84.448 70.666 84.448 63.02zm-46.58 206.137c-7.646 0-13.868-6.221-13.868-13.868s6.221-13.868 13.868-13.868 13.868 6.221 13.868 13.868-6.222 13.868-13.868 13.868zm74.315 179.823c0 7.647-6.221 13.868-13.868 13.868s-13.868-6.221-13.868-13.868c0-7.646 6.221-13.867 13.868-13.867s13.868 6.221 13.868 13.867zm157.685 10.001c0 7.647-6.221 13.868-13.868 13.868s-13.868-6.221-13.868-13.868c0-7.646 6.221-13.868 13.868-13.868s13.868 6.221 13.868 13.868zm157.685-10.001c0 7.647-6.221 13.868-13.868 13.868s-13.867-6.221-13.867-13.868c0-7.646 6.221-13.867 13.867-13.867s13.868 6.221 13.868 13.867zM397.6 270.042l-19.665 7.569a8.002 8.002 0 0 0-4.909 5.614 119.488 119.488 0 0 1-14.528 35.043 7.999 7.999 0 0 0-.499 7.441l8.56 19.273-20.864 20.865-19.265-8.557a7.995 7.995 0 0 0-7.442.499 119.496 119.496 0 0 1-35.053 14.531 8 8 0 0 0-5.614 4.909l-7.567 19.659h-29.506l-7.569-19.665a8 8 0 0 0-5.614-4.909 119.48 119.48 0 0 1-35.043-14.528 8.005 8.005 0 0 0-7.441-.499l-19.274 8.56-20.865-20.864 8.557-19.265a8.003 8.003 0 0 0-.499-7.443 119.471 119.471 0 0 1-14.531-35.053 7.998 7.998 0 0 0-4.909-5.613l-19.658-7.566v-29.506l19.663-7.569a8.004 8.004 0 0 0 4.909-5.614 119.478 119.478 0 0 1 14.529-35.045 8.004 8.004 0 0 0 .5-7.442l-8.559-19.271 20.864-20.865 19.273 8.56a7.999 7.999 0 0 0 7.441-.5 119.484 119.484 0 0 1 35.043-14.528 8 8 0 0 0 5.614-4.909l7.57-19.665h29.506l7.569 19.665a8.002 8.002 0 0 0 5.614 4.909 119.488 119.488 0 0 1 35.043 14.528 8.005 8.005 0 0 0 7.441.5l19.274-8.56 20.864 20.864-8.557 19.266a8 8 0 0 0 .5 7.443 119.49 119.49 0 0 1 14.531 35.052 8 8 0 0 0 4.909 5.614l19.659 7.567v29.505zm76.532-.885c-7.646 0-13.868-6.221-13.868-13.868s6.221-13.868 13.868-13.868S488 247.643 488 255.289s-6.221 13.868-13.868 13.868zM256 169.028c-47.564 0-86.261 38.696-86.261 86.261S208.436 341.55 256 341.55s86.261-38.697 86.261-86.261-38.696-86.261-86.261-86.261zm0 156.522c-38.742 0-70.261-31.519-70.261-70.261s31.519-70.261 70.261-70.261 70.261 31.519 70.261 70.261S294.742 325.55 256 325.55z" fill="#bb0b0b" data-original="#000000" opacity="1"></path></g></svg>