<svg xmlns="http://www.w3.org/2000/svg" version="1.1" xmlns:xlink="http://www.w3.org/1999/xlink" xmlns:svgjs="http://svgjs.com/svgjs" width="512" height="512" x="0" y="0" viewBox="0 0 512 512" style="enable-background:new 0 0 512 512" xml:space="preserve" class=""><g><path d="M504.076 346.174h-21.917a102.618 102.618 0 0 0-6.991-16.886l15.496-15.494a7.929 7.929 0 0 0 0-11.208l-32.496-32.494a7.925 7.925 0 0 0-11.206 0l-15.494 15.495a102.629 102.629 0 0 0-16.886-6.99v-21.92a7.923 7.923 0 0 0-7.924-7.924h-45.952a7.923 7.923 0 0 0-7.924 7.924v21.92a102.612 102.612 0 0 0-16.886 6.991l-15.494-15.495a7.926 7.926 0 0 0-11.207-.001L276.7 302.586a7.921 7.921 0 0 0-2.321 5.604c0 2.101.835 4.117 2.32 5.604l15.494 15.493a102.542 102.542 0 0 0-6.99 16.888h-21.918a7.923 7.923 0 0 0-7.924 7.924v45.952a7.923 7.923 0 0 0 7.924 7.924h21.917a102.613 102.613 0 0 0 6.991 16.887L276.7 440.354a7.924 7.924 0 0 0 0 11.207l32.495 32.496a7.926 7.926 0 0 0 11.208 0l15.493-15.495a102.383 102.383 0 0 0 16.888 6.992v21.918a7.923 7.923 0 0 0 7.924 7.924h45.952a7.923 7.923 0 0 0 7.924-7.924v-21.918a102.56 102.56 0 0 0 16.886-6.993l15.494 15.496a7.93 7.93 0 0 0 11.208.001l32.496-32.496a7.929 7.929 0 0 0-.001-11.208l-15.496-15.495a102.614 102.614 0 0 0 6.991-16.885h21.917a7.923 7.923 0 0 0 7.924-7.924v-45.952a7.928 7.928 0 0 0-7.927-7.924zm-7.924 45.952h-19.998a7.922 7.922 0 0 0-7.69 6.017 86.887 86.887 0 0 1-9.93 23.982 7.926 7.926 0 0 0 1.183 9.696l14.139 14.137-21.289 21.288-14.137-14.14a7.924 7.924 0 0 0-9.697-1.182 86.735 86.735 0 0 1-23.98 9.93 7.925 7.925 0 0 0-6.018 7.692v20h-30.104v-20a7.926 7.926 0 0 0-6.018-7.692 86.66 86.66 0 0 1-23.978-9.929 7.923 7.923 0 0 0-9.699 1.181l-14.137 14.14-21.288-21.288 14.138-14.137a7.925 7.925 0 0 0 1.181-9.697 86.843 86.843 0 0 1-9.929-23.981 7.923 7.923 0 0 0-7.69-6.017h-20v-30.104h19.998a7.922 7.922 0 0 0 7.69-6.016 86.804 86.804 0 0 1 9.928-23.981 7.925 7.925 0 0 0-1.18-9.698l-14.138-14.137 21.288-21.287 14.137 14.139a7.922 7.922 0 0 0 9.698 1.181 86.845 86.845 0 0 1 23.982-9.93 7.924 7.924 0 0 0 6.015-7.69v-20h30.105v20a7.923 7.923 0 0 0 6.015 7.69 86.934 86.934 0 0 1 23.984 9.93 7.93 7.93 0 0 0 9.696-1.182l14.137-14.138 21.288 21.287-14.137 14.136a7.925 7.925 0 0 0-1.182 9.697 86.86 86.86 0 0 1 9.929 23.982 7.923 7.923 0 0 0 7.69 6.016h19.998v30.105z" fill="#bb0b0b" data-original="#000000" opacity="1" class=""></path><path d="M382.586 308.693c-37.704 0-68.378 30.676-68.378 68.383 0 37.705 30.673 68.381 68.378 68.381s68.382-30.675 68.382-68.381-30.676-68.383-68.382-68.383zm0 120.915c-28.965 0-52.53-23.566-52.53-52.533 0-28.968 23.565-52.535 52.53-52.535 28.967 0 52.534 23.567 52.534 52.535 0 28.967-23.567 52.533-52.534 52.533z" fill="#bb0b0b" data-original="#000000" opacity="1" class=""></path><path d="M424.447 175.124h-42.216a171.717 171.717 0 0 0-14.92-36.04l29.849-29.844a7.918 7.918 0 0 0 2.321-5.604 7.934 7.934 0 0 0-2.32-5.604l-56.212-56.211a7.925 7.925 0 0 0-11.206 0l-29.849 29.847a171.704 171.704 0 0 0-36.041-14.92V14.529a7.923 7.923 0 0 0-7.924-7.924H176.44a7.923 7.923 0 0 0-7.924 7.924v42.219a171.662 171.662 0 0 0-36.042 14.923l-29.845-29.847a7.927 7.927 0 0 0-11.208 0L35.215 98.035a7.923 7.923 0 0 0 0 11.206l29.845 29.844a171.665 171.665 0 0 0-14.92 36.04H7.924A7.924 7.924 0 0 0 0 183.049v79.49a7.923 7.923 0 0 0 7.924 7.924h42.215a171.824 171.824 0 0 0 14.921 36.039L35.215 336.35a7.923 7.923 0 0 0 0 11.206l56.206 56.211a7.926 7.926 0 0 0 11.208 0l29.844-29.85a171.667 171.667 0 0 0 36.043 14.927v42.218a7.923 7.923 0 0 0 7.924 7.924h62.685a7.923 7.923 0 0 0 7.422-10.697c-6.116-16.37-9.217-33.602-9.217-51.213 0-17.123 2.933-33.901 8.72-49.869a7.928 7.928 0 0 0-1.538-7.975 7.918 7.918 0 0 0-7.749-2.433 97.106 97.106 0 0 1-22.471 2.655c-53.293 0-96.651-43.359-96.651-96.653 0-53.297 43.358-96.658 96.651-96.658 53.296 0 96.655 43.361 96.655 96.658 0 4.459-.329 9.043-.976 13.626a7.929 7.929 0 0 0 3.147 7.489 7.927 7.927 0 0 0 8.086.783c19.612-9.274 40.633-13.977 62.477-13.977 13.098 0 26.111 1.741 38.677 5.175a7.917 7.917 0 0 0 6.897-1.345 7.928 7.928 0 0 0 3.116-6.299V183.05a7.924 7.924 0 0 0-7.924-7.926zm-7.922 43.088a162.881 162.881 0 0 0-32.843-3.34c-19.686 0-38.772 3.45-56.912 10.268.018-.783.025-1.565.025-2.342 0-62.036-50.469-112.505-112.503-112.505-62.033 0-112.499 50.47-112.499 112.505 0 62.034 50.467 112.501 112.499 112.501 4.274 0 8.559-.247 12.824-.74-3.742 13.801-5.633 28.049-5.633 42.514 0 15.716 2.23 31.162 6.642 46.064h-43.76v-40.378a7.922 7.922 0 0 0-6.017-7.69 155.812 155.812 0 0 1-43.078-17.843 7.925 7.925 0 0 0-9.699 1.181l-28.545 28.551-45.001-45.004 28.545-28.548a7.923 7.923 0 0 0 1.181-9.696 155.99 155.99 0 0 1-17.837-43.078 7.923 7.923 0 0 0-7.69-6.017H15.848v-63.642h40.375a7.924 7.924 0 0 0 7.69-6.016 155.992 155.992 0 0 1 17.837-43.079 7.926 7.926 0 0 0-1.181-9.697l-28.545-28.543 45.001-45.004 28.545 28.548a7.926 7.926 0 0 0 9.699 1.181c13.349-8.058 27.844-14.06 43.079-17.841a7.924 7.924 0 0 0 6.016-7.69V22.455h63.64v40.378a7.923 7.923 0 0 0 6.016 7.69A156.004 156.004 0 0 1 297.1 88.36a7.929 7.929 0 0 0 9.696-1.181l28.548-28.547 45.006 45.005-28.548 28.544a7.925 7.925 0 0 0-1.182 9.697 155.919 155.919 0 0 1 17.836 43.078 7.923 7.923 0 0 0 7.69 6.017h40.378v27.239z" fill="#bb0b0b" data-original="#000000" opacity="1" class=""></path><path d="M285.998 183.851a7.924 7.924 0 0 0-13.939 7.541c5.162 9.544 7.891 20.364 7.891 31.29 0 36.317-29.546 65.864-65.863 65.864s-65.864-29.547-65.864-65.864c0-36.317 29.547-65.863 65.864-65.863 14.913 0 28.976 4.859 40.668 14.052a7.924 7.924 0 0 0 9.795-12.459c-14.513-11.409-31.963-17.44-50.464-17.44-45.057 0-81.712 36.655-81.712 81.711 0 45.057 36.655 81.712 81.712 81.712 45.056 0 81.711-36.655 81.711-81.712 0-13.553-3.388-26.98-9.799-38.832zM382.588 339.289c-20.835 0-37.786 16.951-37.786 37.786s16.951 37.786 37.786 37.786 37.786-16.951 37.786-37.786-16.951-37.786-37.786-37.786zm0 59.723c-12.096 0-21.938-9.841-21.938-21.938s9.841-21.938 21.938-21.938 21.938 9.84 21.938 21.938c0 12.097-9.842 21.938-21.938 21.938z" fill="#bb0b0b" data-original="#000000" opacity="1" class=""></path></g></svg>