<svg xmlns="http://www.w3.org/2000/svg" version="1.1" xmlns:xlink="http://www.w3.org/1999/xlink" xmlns:svgjs="http://svgjs.com/svgjs" width="512" height="512" x="0" y="0" viewBox="0 0 512 512" style="enable-background:new 0 0 512 512" xml:space="preserve" class=""><g><path d="M504 360h-32V224c0-8.82-7.18-16-16-16h-88V72c0-8.82-7.18-16-16-16H160c-8.82 0-16 7.18-16 16v136H56c-8.82 0-16 7.18-16 16v136H8c-4.42 0-8 3.58-8 8v40c0 4.42 3.58 8 8 8v32c0 4.42 3.58 8 8 8h80c4.42 0 8-3.58 8-8v-32h104v32c0 4.42 3.58 8 8 8h80c4.42 0 8-3.58 8-8v-32h104v32c0 4.42 3.58 8 8 8h80c4.42 0 8-3.58 8-8v-32c4.42 0 8-3.58 8-8v-40c0-4.42-3.58-8-8-8zm-48 0H264V224h68v40c0 4.42 3.58 8 8 8h40c4.42 0 8-3.58 8-8v-40h68zm-84-104h-24v-32h24zM268 72v32h-24V72zm-108.01 0H228v40c0 4.42 3.58 8 8 8h40c4.42 0 8-3.58 8-8V72h68v136H160V72zM152 224h12v32h-24v-32zm-96.01 0H124v40c0 4.42 3.58 8 8 8h40c4.42 0 8-3.58 8-8v-40h68v136H56V224zM16 376h480v24H16zm72 64H24v-24h64zm200 0h-64v-24h64zm200 0h-64v-24h64z" fill="#bb0b0b" data-original="#000000" class="" opacity="1"></path></g></svg>