<svg xmlns="http://www.w3.org/2000/svg" version="1.1" xmlns:xlink="http://www.w3.org/1999/xlink" xmlns:svgjs="http://svgjs.com/svgjs" width="512" height="512" x="0" y="0" viewBox="0 0 68 68" style="enable-background:new 0 0 512 512" xml:space="preserve" class=""><g><g id="_x31_75"><path d="m6 55.2h30.1c1.7 1.3 5.7 7.7 14.8 7.7s13.1-6.7 14.9-8c.4-.4.4-1 0-1.4-1.9-1.5-5.3-7.1-13.4-7.8v-12c0-.6-.4-1-1-1h-5.4c-.6 0-1 .4-1 1v13c-1.7.6-3.3 1.5-4.8 2.7v-5.6c0-.6-.4-1-1-1h-5.2c-.6 0-1 .4-1 1v9.6h-4.8v-20c0-.6-.4-1-1-1h-5.3c-.6 0-1 .4-1 1v20h-4.8v-8.6c0-.6-.4-1-1-1h-5.2c-.6 0-1 .4-1 1v8.6h-2.9c-1.1 0-2-.9-2-2v-34.3h53.2v27.2c0 .6.4 1 1 1s1-.4 1-1v-35.2c0-2.2-1.8-4-4-4h-49.2c-2.2 0-4 1.8-4 4v42c0 2.3 1.8 4.1 4 4.1zm41-20.6h3.3v11c-1.1 0-2.2.2-3.3.4zm16.6 19.5c-1.3 1-4.9 6.7-12.8 6.7-7.8.1-11.5-5.6-12.8-6.6 1.3-.9 4.9-6.7 12.8-6.7s11.5 5.7 12.8 6.6zm-28.6-9.5h3.3v6.5l-2.1 2.1h-1.2zm-12.1-10.4h3.3v19h-3.3zm-12 11.4h3.3v7.6h-3.3zm-4.9-38.5h49.2c1.1 0 2 .9 2 2v6h-53.2v-6c0-1.1.9-2 2-2z" fill="#bb0b0b" data-original="#000000" class=""></path><path d="m30.5 12.1h22.7c.6 0 1-.4 1-1s-.4-1-1-1h-22.7c-.6 0-1 .4-1 1s.4 1 1 1z" fill="#bb0b0b" data-original="#000000" class=""></path><path d="m8 12.1c.5 0 1-.5 1-1s-.4-1-1-1-1 .5-1 1c0 .6.5 1 1 1z" fill="#bb0b0b" data-original="#000000" class=""></path><path d="m13 12.1c.5 0 1-.5 1-1s-.4-1-1-1-1 .5-1 1c0 .6.5 1 1 1z" fill="#bb0b0b" data-original="#000000" class=""></path><path d="m18 12.1c.5 0 1-.5 1-1s-.4-1-1-1c-.5 0-1 .4-1 1s.5 1 1 1z" fill="#bb0b0b" data-original="#000000" class=""></path><path d="m48.9 26.8c1.9 0 3.5-1.6 3.5-3.5s-1.6-3.5-3.5-3.5-3.5 1.6-3.5 3.5c0 .6.2 1.2.5 1.7l-7.2 7.2c-.6-.4-1.3-.7-2-.7-.8 0-1.6.3-2.2.8l-7.3-7.3c0-.2.1-.4.1-.6 0-1.9-1.6-3.5-3.5-3.5s-3.5 1.6-3.5 3.5c0 .4.1.8.2 1.1l-6.7 6.7c-.5-.3-1-.4-1.6-.4-1.9 0-3.5 1.6-3.5 3.5s1.6 3.5 3.5 3.5 3.5-1.6 3.5-3.5c0-.6-.2-1.2-.5-1.7l6.5-6.5c.6.5 1.3.7 2.1.7 1 0 1.9-.4 2.5-1l7.1 7.1c-.1.3-.2.7-.2 1 0 1.9 1.6 3.5 3.5 3.5s3.5-1.6 3.5-3.5c0-.4-.1-.9-.2-1.2l7.5-7.5c.3.4.8.6 1.4.6zm-36.8 10.2c-.8 0-1.5-.7-1.5-1.5s.7-1.5 1.5-1.5 1.5.7 1.5 1.5-.7 1.5-1.5 1.5zm11.6-11c-.8 0-1.5-.7-1.5-1.5s.7-1.5 1.5-1.5 1.5.7 1.5 1.5c0 .9-.6 1.5-1.5 1.5zm25.2-4.3c.8 0 1.5.7 1.5 1.5s-.7 1.5-1.5 1.5-1.5-.7-1.5-1.5.7-1.5 1.5-1.5zm-12.3 14.9c-.8 0-1.5-.7-1.5-1.5s.7-1.5 1.5-1.5 1.5.7 1.5 1.5-.6 1.5-1.5 1.5z" fill="#bb0b0b" data-original="#000000" class=""></path><path d="m50.8 58.8c2.5 0 4.6-2.1 4.6-4.6s-2.1-4.6-4.6-4.6-4.6 2.1-4.6 4.6 2 4.6 4.6 4.6zm0-7.2c1.4 0 2.6 1.2 2.6 2.6s-1.2 2.6-2.6 2.6-2.6-1.2-2.6-2.6 1.1-2.6 2.6-2.6z" fill="#bb0b0b" data-original="#000000" class=""></path></g></g></svg>