<svg xmlns="http://www.w3.org/2000/svg" version="1.1" xmlns:xlink="http://www.w3.org/1999/xlink" xmlns:svgjs="http://svgjs.com/svgjs" width="512" height="512" x="0" y="0" viewBox="0 0 682.66669 682.66669" style="enable-background:new 0 0 512 512" xml:space="preserve" class=""><g><defs id="defs1126"><clipPath clipPathUnits="userSpaceOnUse" id="clipPath1136"><path d="M 0,512 H 512 V 0 H 0 Z" id="path1134" fill="#bb0b0b" data-original="#000000"></path></clipPath><clipPath clipPathUnits="userSpaceOnUse" id="clipPath1150"><path d="M 0,512 H 512 V 0 H 0 Z" id="path1148" fill="#bb0b0b" data-original="#000000"></path></clipPath></defs><g id="g1128" transform="matrix(1.3333333,0,0,-1.3333333,0,682.66667)"><g id="g1130"><g id="g1132" clip-path="url(#clipPath1136)"><path d="M 196,376 H 10 v 126 h 186 z" style="stroke-width:20;stroke-linecap:round;stroke-linejoin:round;stroke-miterlimit:10;stroke-dasharray:none;stroke-opacity:1" id="path1138" fill="none" stroke="#bb0b0b" stroke-width="20" stroke-linecap="round" stroke-linejoin="round" stroke-miterlimit="10" stroke-dasharray="none" stroke-opacity="" data-original="#000000" class=""></path></g></g><g id="g1140" transform="translate(346,256)"><path d="M 0,0 V -60 H -180 V 60 H 0 Z" style="stroke-width:20;stroke-linecap:round;stroke-linejoin:round;stroke-miterlimit:10;stroke-dasharray:none;stroke-opacity:1" id="path1142" fill="none" stroke="#bb0b0b" stroke-width="20" stroke-linecap="round" stroke-linejoin="round" stroke-miterlimit="10" stroke-dasharray="none" stroke-opacity="" data-original="#000000" class=""></path></g><g id="g1144"><g id="g1146" clip-path="url(#clipPath1150)"><path d="M 502,10 H 316 v 126 h 186 z" style="stroke-width:20;stroke-linecap:round;stroke-linejoin:round;stroke-miterlimit:10;stroke-dasharray:none;stroke-opacity:1" id="path1152" fill="none" stroke="#bb0b0b" stroke-width="20" stroke-linecap="round" stroke-linejoin="round" stroke-miterlimit="10" stroke-dasharray="none" stroke-opacity="" data-original="#000000" class=""></path><g id="g1154" transform="translate(196,439)"><path d="m 0,0 h 220 c 11.05,0 20,-8.95 20,-20 v -143 c 0,-11.05 -8.95,-20 -20,-20 h -70" style="stroke-width:20;stroke-linecap:round;stroke-linejoin:round;stroke-miterlimit:10;stroke-dasharray:none;stroke-opacity:1" id="path1156" fill="none" stroke="#bb0b0b" stroke-width="20" stroke-linecap="round" stroke-linejoin="round" stroke-miterlimit="10" stroke-dasharray="none" stroke-opacity="" data-original="#000000" class=""></path></g><g id="g1158" transform="translate(166,256)"><path d="m 0,0 h -70 c -11.05,0 -20,-8.95 -20,-20 v -143 c 0,-11.05 8.95,-20 20,-20 h 220" style="stroke-width:20;stroke-linecap:round;stroke-linejoin:round;stroke-miterlimit:10;stroke-dasharray:none;stroke-opacity:1" id="path1160" fill="none" stroke="#bb0b0b" stroke-width="20" stroke-linecap="round" stroke-linejoin="round" stroke-miterlimit="10" stroke-dasharray="none" stroke-opacity="" data-original="#000000" class=""></path></g><g id="g1162" transform="translate(366,53)"><path d="m 0,0 c 0,-5.523 -4.478,-10 -10,-10 -5.522,0 -10,4.477 -10,10 0,5.523 4.478,10 10,10 C -4.478,10 0,5.523 0,0" style="fill-opacity:1;fill-rule:nonzero;stroke:none" id="path1164" fill="#bb0b0b" data-original="#000000"></path></g><g id="g1166" transform="translate(401,53)"><path d="M 0,0 H 61" style="stroke-width:20;stroke-linecap:round;stroke-linejoin:round;stroke-miterlimit:10;stroke-dasharray:none;stroke-opacity:1" id="path1168" fill="none" stroke="#bb0b0b" stroke-width="20" stroke-linecap="round" stroke-linejoin="round" stroke-miterlimit="10" stroke-dasharray="none" stroke-opacity="" data-original="#000000" class=""></path></g></g></g></g></g></svg>