<svg xmlns="http://www.w3.org/2000/svg" version="1.1" xmlns:xlink="http://www.w3.org/1999/xlink" xmlns:svgjs="http://svgjs.com/svgjs" width="512" height="512" x="0" y="0" viewBox="0 0 500 500" style="enable-background:new 0 0 512 512" xml:space="preserve" class=""><g><path fill-rule="evenodd" d="M250.17 150.036a6.345 6.345 0 0 1 6.347-6.347l49.912-.029a6.34 6.34 0 0 1 6.352 6.341 6.358 6.358 0 0 1-6.341 6.358l-49.923.029a6.353 6.353 0 0 1-6.347-6.352zm-71.571 0c-.006-3.504 2.843-6.347 6.341-6.347l49.923-.029c3.498 0 6.335 2.837 6.347 6.341a6.359 6.359 0 0 1-6.347 6.358l-49.912.029a6.35 6.35 0 0 1-6.352-6.352zm71.571-24.037c0-3.509 2.837-6.358 6.347-6.358l49.912-.023a6.342 6.342 0 0 1 6.352 6.347c0 3.503-2.837 6.352-6.341 6.352l-49.923.023c-3.499 0-6.347-2.838-6.347-6.341zm-71.571 0a6.35 6.35 0 0 1 6.341-6.358l49.923-.023c3.498 0 6.335 2.837 6.347 6.347a6.35 6.35 0 0 1-6.347 6.352l-49.912.023a6.345 6.345 0 0 1-6.352-6.341zm71.571-24.043a6.358 6.358 0 0 1 6.347-6.358l49.912-.029c3.515 0 6.352 2.843 6.352 6.352s-2.837 6.347-6.341 6.347l-49.923.029c-3.499 0-6.347-2.837-6.347-6.341zm-71.571 0c-.006-3.509 2.843-6.347 6.341-6.358l49.923-.029c3.498 0 6.335 2.843 6.347 6.352a6.342 6.342 0 0 1-6.347 6.347l-49.912.029a6.345 6.345 0 0 1-6.352-6.341zM354.192 226.46c5.893 0 10.804-3.699 11.935-9l5.824-27.299c.063.052.132.127.218.201l24.531 22.802c1.499 1.384 1.47 3.917 1.189 5.795l-6.094 40.096h-46.816l-20.447-32.595zm-40.458-7.329c-2.889 4.153-3.205 8.862-.873 12.607l20.625 33.06c2.883 4.618 6.623 6.955 11.108 6.955h47.402c6.215 0 11.389-4.463 12.326-10.597l6.122-40.297c1.051-6.932-.764-12.975-5.1-17.007l-24.531-22.796c-8.367-7.776-19.3-2.866-20.987 5.06l-5.887 27.644h-29.964c-4.147.001-7.886 1.959-10.241 5.371zm147.38 63.759c.419-2.722.408-6.427-1.959-8.633l-30.653-28.482c-1.048-.979-1.583-1.346-2.596-.821l-7.576 35.518c-1.252 5.876-6.743 9.982-13.365 9.982h-37.753c-.794 0-1.094.493-1.413 1.177l25.415 40.728c.908 1.447 1.551 1.976 1.769 1.976h59.205c.672 0 1.183-.448 1.281-1.097zm6.686-17.931-30.659-28.488c-9.578-8.904-21.738-3.16-23.589 5.497l-7.581 35.57c-.184.103-.54.218-1.005.218h-37.753c-10.86 0-17.474 12.115-12.532 20.039l25.771 41.291c3.28 5.273 7.501 7.949 12.532 7.949h16.967v57.011h-34.22a6.35 6.35 0 0 0-6.347 6.347 6.347 6.347 0 0 0 6.347 6.352h81.151a6.354 6.354 0 0 0 6.347-6.352 6.356 6.356 0 0 0-6.347-6.347H422.65v-57.011h29.539c6.978 0 12.791-5.008 13.836-11.895l7.645-50.337c1.235-8.133-.856-15.18-5.87-19.844zm-364.505-51.795 24.536-22.802c.081-.075.149-.149.212-.201l5.824 27.299c1.126 5.301 6.042 9 11.935 9h29.66l-20.441 32.595H108.2l-6.094-40.096c-.282-1.878-.304-4.411 1.189-5.795zm-7.622 47.993c.936 6.134 6.117 10.597 12.331 10.597H155.4c4.491 0 8.225-2.338 11.108-6.955l20.625-33.06c4.502-7.224-1.464-17.978-11.108-17.978h-29.97l-5.893-27.644c-1.695-7.938-12.621-12.83-20.981-5.06L94.65 203.853c-4.336 4.032-6.152 10.074-5.101 17.007zm249.622 85.964c1.804-1.746 1.315-2.567.844-3.354l-63.392-105.435c-1.338-2.229-5.387-4.491-11.418-4.491h-51.29c-6.019 0-10.068 2.263-11.407 4.491L145.24 343.767c-.471.787-.959 1.608.833 3.354 2.263 2.2 6.117 3.457 10.585 3.457H334.72c4.464 0 8.323-1.257 10.575-3.457zm-48.677 75.051h-8.409l-15.037-43.45a6.35 6.35 0 0 0-6.008-4.273h-42.951a6.355 6.355 0 0 0-6.008 4.273l-15.042 43.45h-8.403v-58.895h101.857v58.895zm-2.987-190.382c-3.946-6.565-12.487-10.649-22.302-10.649h-51.29c-9.804 0-18.345 4.084-22.291 10.649l-63.392 105.441c-3.779 6.301-2.688 13.572 2.86 18.983 4.681 4.56 11.579 7.065 19.442 7.065h25.41v65.247a6.342 6.342 0 0 0 6.347 6.347h19.27a6.336 6.336 0 0 0 5.996-4.268l15.048-43.456h33.922l15.037 43.456a6.363 6.363 0 0 0 6.008 4.268h19.27a6.346 6.346 0 0 0 6.352-6.347v-65.247h25.404c7.863 0 14.761-2.504 19.436-7.065 5.548-5.41 6.645-12.682 2.855-18.983zM171.161 91.899v68.159c0 7.765 6.318 14.077 14.072 14.077h120.914c7.754 0 14.072-6.312 14.072-14.077V91.899c0-7.765-6.318-14.077-14.072-14.077H185.233c-7.754 0-14.072 6.312-14.072 14.077zm14.072 94.93h120.914c14.761 0 26.771-12.004 26.771-26.771V91.899c0-14.767-12.01-26.771-26.771-26.771H185.233c-14.755 0-26.765 12.004-26.765 26.771v68.159c0 14.767 12.01 26.771 26.765 26.771zM46.525 333.239c.103.649.609 1.097 1.269 1.097h59.216c.218 0 .862-.528 1.769-1.976l25.415-40.728c-.319-.684-.619-1.177-1.413-1.177H95.03c-6.617 0-12.113-4.107-13.365-9.982l-7.576-35.518c-1.026-.53-1.515-.187-2.596.821l-30.654 28.482c-2.366 2.206-2.378 5.91-1.959 8.633zm77.74 70.807H90.033v-57.011h16.978c5.025 0 9.241-2.677 12.538-7.949l25.766-41.302c4.952-7.923-1.685-20.028-12.532-20.028H95.03c-.459 0-.821-.115-1.005-.218l-7.582-35.57c-1.091-5.089-5.33-8.84-11.073-9.793-4.446-.735-8.656.706-12.515 4.296l-30.659 28.488c-5.014 4.664-7.099 11.711-5.864 19.844l7.645 50.337c1.039 6.887 6.858 11.895 13.819 11.895H77.34v57.011H43.114a6.356 6.356 0 0 0-6.347 6.347 6.354 6.354 0 0 0 6.347 6.352h81.151a6.353 6.353 0 0 0 6.346-6.352 6.355 6.355 0 0 0-6.346-6.347z" clip-rule="evenodd" fill="#000000" data-original="#000000" class=""></path></g></svg>