<svg xmlns="http://www.w3.org/2000/svg" version="1.1" xmlns:xlink="http://www.w3.org/1999/xlink" xmlns:svgjs="http://svgjs.com/svgjs" width="512" height="512" x="0" y="0" viewBox="0 0 512 512" style="enable-background:new 0 0 512 512" xml:space="preserve" class=""><g><g id="Layer_1" display="none"><g display="inline" fill="none" stroke="#ff2f29" stroke-miterlimit="10" stroke-width=".5"><path d="m32.291 32.291h447.417v447.417h-447.417z" fill=""></path><path d="m0 0c256 256 512 512 512 512" fill=""></path><path d="m512 0-512 512" fill=""></path><path d="m32.291 32.291h447.417v447.417h-447.417z" fill=""></path><path d="m0 0c256 256 512 512 512 512" fill=""></path><path d="m512 0-512 512" fill=""></path><path d="m256 .177v511.647" fill=""></path><path d="m511.823 256h-511.646" fill=""></path><path d="m256 .177v511.647" fill=""></path><path d="m511.823 256h-511.646" fill=""></path><circle cx="256" cy="256" r="223.709" fill=""></circle></g></g><g id="Layer_2"><g fill="#231f20"><path d="m250 184c44.112 0 80-35.888 80-80s-35.888-80-80-80-80 35.888-80 80 35.888 80 80 80zm0-144c35.29 0 64 28.71 64 64s-28.71 64-64 64-64-28.71-64-64 28.71-64 64-64z" fill="#bb0b0b" data-original="#231f20" class=""></path><path d="m464 472h-60.737c.421-1.193.765-2.426.997-3.705l.72-3.96 29.057-29.057c10.506-10.507 14.314-25.851 9.939-40.04l-16.616-54.002 3.081-16.944c1.243-6.815-.521-13.831-4.842-19.248-3.069-3.848-7.207-6.612-11.829-8.007l-10.745-34.919c-5.576-18.113-16.583-33.641-31.833-44.901-15.249-11.264-33.328-17.217-52.282-17.217h-137.82c-18.954 0-37.033 5.953-52.283 17.215-15.25 11.261-26.257 26.788-31.833 44.902l-10.744 34.916c-4.617 1.394-8.758 4.159-11.829 8.01-4.321 5.418-6.086 12.437-4.842 19.248l3.08 16.945-16.613 53.997c-4.377 14.194-.568 29.538 9.938 40.045l29.054 29.054.721 3.956c.232 1.282.578 2.517 1 3.713h-48.739c-4.418 0-8 3.582-8 8s3.582 8 8 8h71.35 261.3 83.35c4.418 0 8-3.582 8-8s-3.582-8.001-8-8.001zm-35.314-72.053c2.624 8.512.34 17.714-5.963 24.016l-12.714 12.714 11.135-61.243zm-247.596-183.947h137.82c31.809 0 59.467 20.424 68.823 50.822l8.979 29.178h-293.423l8.978-29.177c9.356-30.399 37.014-50.823 68.823-50.823zm-109.774 183.942 7.54-24.505 11.132 61.236-12.711-12.711c-6.302-6.301-8.587-15.503-5.961-24.02zm48.034 72.058c-3.869 0-7.178-2.762-7.869-6.576l-22.769-125.234c-.004-.022-.007-.044-.012-.066l-3.4-18.702c-.421-2.301.151-4.574 1.609-6.403 1.466-1.837 3.558-2.905 5.867-3.006.131-.005.262-.013.394-.013h313.66c.132 0 .263.008.371.012 2.332.102 4.424 1.17 5.89 3.007 1.458 1.829 2.03 4.103 1.609 6.403 0 .002 0 .004-.001.006l-3.397 18.688c-.007.031-.011.063-.017.094l-21.577 118.693c-.001.007-.002.015-.004.021l-.014.079-1.173 6.428c-.689 3.807-3.998 6.568-7.867 6.568h-261.3z" fill="#bb0b0b" data-original="#231f20" class=""></path><path d="m250 360c-22.056 0-40 14.355-40 32s17.944 32 40 32 40-14.355 40-32-17.944-32-40-32zm0 48c-13.01 0-24-7.327-24-16s10.99-16 24-16 24 7.327 24 16-10.99 16-24 16z" fill="#bb0b0b" data-original="#231f20" class=""></path></g></g></g></svg>