<svg xmlns="http://www.w3.org/2000/svg" version="1.1" xmlns:xlink="http://www.w3.org/1999/xlink" xmlns:svgjs="http://svgjs.com/svgjs" width="512" height="512" x="0" y="0" viewBox="0 0 511 511" style="enable-background:new 0 0 512 512" xml:space="preserve" class=""><g><path d="M451 105.474h60v-75h-15.5V.5h-60v29.974h-30v15H496v45H15v-45h375.5v-15H76V.5H16v29.974H0v75h61v44.991l-6.824 43.955 14.789 2.506 7.872-46.461h23.759L41.182 495.5H18.379l48.169-284.305-14.789-2.506L.624 510.5h53.195l23.247-135H345.5v-15H79.649l2.561-14.872h346.575l2.561 14.872H390.5v15h43.429l23.247 135h53.196L451 150.465zm-.5-89.974h30v14.974h-30zM31 15.5h30v14.974H31zm405 89.974v29.991H76v-29.991zM84.793 330.628l31.024-180.163h279.361l31.024 180.163zM492.616 495.5h-22.802L410.4 150.465h24.758z" fill="#bb0b0b" data-original="#000000" opacity="1"></path><path d="M360.5 360.5h15v15h-15zM45.5 60.474h15v15h-15zM75.5 60.474h15v15h-15z" fill="#bb0b0b" data-original="#000000" opacity="1"></path></g></svg>