<svg xmlns="http://www.w3.org/2000/svg" version="1.1" xmlns:xlink="http://www.w3.org/1999/xlink" xmlns:svgjs="http://svgjs.com/svgjs" width="512" height="512" x="0" y="0" viewBox="0 0 60 60" style="enable-background:new 0 0 512 512" xml:space="preserve" class=""><g><path d="M48.499 26.08c-3.244 0-5.933 2.391-6.417 5.502H31v-6.908h5.08a4.64 4.64 0 0 0 4.634-4.634v-8.899a4.64 4.64 0 0 0-4.634-4.634H23.92a4.64 4.64 0 0 0-4.634 4.634v8.899a4.64 4.64 0 0 0 4.634 4.634H29v6.908H17.919c-.484-3.111-3.173-5.502-6.417-5.502C7.917 26.08 5 28.997 5 32.582s2.917 6.502 6.502 6.502c3.244 0 5.933-2.391 6.417-5.502H29v6.993c-3.11.484-5.501 3.173-5.501 6.417A6.509 6.509 0 0 0 30 53.493a6.509 6.509 0 0 0 6.502-6.501c0-3.244-2.391-5.933-5.502-6.417v-6.993h11.082c.484 3.111 3.173 5.502 6.417 5.502 3.584 0 6.501-2.917 6.501-6.502s-2.917-6.502-6.501-6.502zm-27.212-6.04v-8.899a2.637 2.637 0 0 1 2.634-2.634H36.08a2.637 2.637 0 0 1 2.634 2.634v8.899a2.637 2.637 0 0 1-2.634 2.634H23.92a2.637 2.637 0 0 1-2.633-2.634zm-9.785 17.044C9.02 37.084 7 35.064 7 32.582s2.02-4.502 4.502-4.502 4.502 2.02 4.502 4.502-2.02 4.502-4.502 4.502zm23 9.908c0 2.481-2.02 4.501-4.502 4.501s-4.501-2.02-4.501-4.501c0-2.482 2.019-4.502 4.501-4.502s4.502 2.02 4.502 4.502zm13.997-9.908c-2.482 0-4.502-2.02-4.502-4.502s2.02-4.502 4.502-4.502S53 30.1 53 32.582s-2.019 4.502-4.501 4.502z" fill="#bb0b0b" data-original="#000000" class=""></path></g></svg>